<?xml version="1.0" encoding="iso-8859-1"?>
<!-- Generator: Adobe Illustrator 19.0.0, SVG Export Plug-In . SVG Version: 6.00 Build 0)  -->
<svg version="1.1" id="Layer_1" xmlns="http://www.w3.org/2000/svg" xmlns:xlink="http://www.w3.org/1999/xlink" x="0px" y="0px"
	 viewBox="0 0 395.701 395.701" style="enable-background:new 0 0 395.701 395.701;" xml:space="preserve">
<g>
	<rect x="175.58" y="39.596" style="fill:#FFFFFF;" width="213.915" height="183.596"/>
	<path style="fill:#FFFFFF;" d="M226.844,137.277h111.257c28.444,0,51.329-22.885,51.329-51.329V39.596H175.58v46.352
		C175.58,114.392,198.465,137.277,226.844,137.277z"/>
</g>
<path style="fill:#2EA2DB;" d="M135.37,289.325l-21.333,23.661c-8.339-0.517-16.356-0.84-23.79-0.84
	c-6.853,0-13.511,0.259-19.911,0.776l32.259-23.596H135.37z"/>
<path style="fill:#FFFFFF;" d="M90.246,312.21c22.238,0,49.455,2.457,75.442,6.788c1.228,0,11.119-15.451,14.804-22.885
	l19.135-3.103l-6.206,61.802c-22.238,6.206-77.253,9.891-103.24,9.891c-46.352,0-84.04-11.766-84.04-25.988
	C6.206,323.976,43.895,312.21,90.246,312.21z"/>
<g>
	<path style="fill:#193651;" d="M327.046,33.39V3.135h-89.018v30.319h-68.655v195.943h226.263V33.39H327.046z M250.376,15.483
		h63.677V33.39h-63.677V15.483z M383.289,216.986H181.721v-95.16c10.537,13.576,26.57,21.657,45.123,21.657h111.257
		c17.907,0,34.586-8.663,45.123-21.657v95.16H383.289z M383.289,85.947c0,24.76-20.428,45.123-45.123,45.123H226.844
		c-24.76,0-45.123-20.428-45.123-45.123v-40.21h201.503v40.21H383.289z"/>
	<path style="fill:#193651;" d="M72.921,260.881v-12.347h-4.978c-2.457,0-4.331,0-6.788-0.646l-1.228,12.347
		c2.457,0.646,5.56,0.646,8.016,0.646H72.921z"/>
	<rect x="69.236" y="124.929" style="fill:#193651;" width="12.347" height="12.347"/>
	<path style="fill:#193651;" d="M58.117,138.505l-2.457-12.347c-4.331,0.646-9.244,1.875-12.994,3.685l4.331,11.766
		C50.683,140.38,54.432,139.152,58.117,138.505z"/>
	<path style="fill:#193651;" d="M46.352,257.196l3.685-11.766c-3.685-1.228-6.788-2.457-9.891-4.331l-6.206,10.537
		C37.689,254.093,42.02,255.968,46.352,257.196z"/>
	<rect x="85.333" y="248.533" style="fill:#193651;" width="12.347" height="12.347"/>
	<path style="fill:#193651;" d="M21.657,162.618l-10.537-6.788c-2.457,3.685-4.978,8.016-6.206,12.347l11.766,4.331
		C17.907,168.824,19.135,165.721,21.657,162.618z"/>
	<path style="fill:#193651;" d="M22.885,243.62l8.016-9.244c-3.103-2.457-5.56-5.56-7.434-8.016l-9.891,7.37
		C16.097,236.768,19.135,240.517,22.885,243.62z"/>
	<path style="fill:#193651;" d="M1.875,208.388c1.228,4.331,2.457,8.663,4.331,12.994l11.119-4.913
		c-1.875-3.103-3.103-6.788-3.685-10.537L1.875,208.388z"/>
	<rect x="160.129" y="248.533" style="fill:#193651;" width="12.347" height="12.347"/>
	<rect x="144.679" y="124.929" style="fill:#193651;" width="12.347" height="12.347"/>
	<rect x="94.578" y="124.929" style="fill:#193651;" width="12.347" height="12.347"/>
	<path style="fill:#193651;" d="M393.18,278.206c-1.875-4.331-4.331-8.663-6.788-12.347l-9.891,7.434
		c2.457,2.457,3.685,5.56,4.978,9.244L393.18,278.206z"/>
	<rect x="185.471" y="248.533" style="fill:#193651;" width="12.347" height="12.347"/>
	<rect x="135.37" y="248.533" style="fill:#193651;" width="12.347" height="12.347"/>
	<rect x="110.675" y="248.533" style="fill:#193651;" width="12.347" height="12.347"/>
	<rect x="119.337" y="124.929" style="fill:#193651;" width="12.347" height="12.347"/>
	<path style="fill:#193651;" d="M37.107,146.521l-6.788-10.537c-3.685,2.457-7.434,5.56-10.537,8.663l8.663,8.663
		C30.901,150.853,34.004,149.042,37.107,146.521z"/>
	<rect x="325.754" y="327.079" style="fill:#193651;" width="12.347" height="12.347"/>
	<rect x="300.412" y="327.079" style="fill:#193651;" width="12.347" height="12.347"/>
	<rect x="310.303" y="248.533" style="fill:#193651;" width="12.347" height="12.347"/>
	<path style="fill:#193651;" d="M350.513,327.079v12.347c4.913,0,9.891-0.646,14.222-2.457l-4.331-11.766
		C357.301,326.432,354.198,327.079,350.513,327.079z"/>
	<rect x="335.644" y="248.533" style="fill:#193651;" width="12.347" height="12.347"/>
	<path style="fill:#193651;" d="M362.279,249.762l-3.103,11.766c3.103,0.646,6.788,2.457,9.244,4.331l6.788-10.537
		C370.941,253.511,366.61,250.99,362.279,249.762z"/>
	<path style="fill:#193651;" d="M383.289,294.303c0,3.103-0.646,6.206-1.228,9.244l11.766,3.685
		c1.228-4.331,1.875-8.663,1.875-12.994v-1.875l-12.347,0.646v1.293H383.289z"/>
	<path style="fill:#193651;" d="M370.295,320.226l7.434,9.891c3.685-3.103,7.434-6.206,9.891-10.537l-9.891-6.788
		C375.208,315.313,372.751,318.416,370.295,320.226z"/>
	<rect x="285.608" y="248.533" style="fill:#193651;" width="12.347" height="12.347"/>
	<rect x="225.616" y="327.079" style="fill:#193651;" width="12.347" height="12.347"/>
	<path style="fill:#193651;" d="M12.347,192.937c0-3.103,0-6.206,0.646-9.891l-12.347-1.875c0,3.685-0.646,8.016-0.646,11.766v1.875
		h12.347V192.937z"/>
	<rect x="210.166" y="248.533" style="fill:#193651;" width="12.347" height="12.347"/>
	<rect x="235.507" y="248.533" style="fill:#193651;" width="12.347" height="12.347"/>
	<rect x="275.717" y="327.079" style="fill:#193651;" width="12.347" height="12.347"/>
	<rect x="250.376" y="327.079" style="fill:#193651;" width="12.347" height="12.347"/>
	<rect x="260.267" y="248.533" style="fill:#193651;" width="12.347" height="12.347"/>
	<path style="fill:#193651;" d="M207.063,286.222L177.39,291.2l-1.228,2.457c-6.206,10.537-9.891,16.679-11.766,19.135
		c-26.57-4.331-51.911-6.788-72.921-6.788C45.77,306.004,0,317.188,0,338.78c0,21.01,45.77,32.129,90.246,32.129
		c27.798,0,82.23-3.685,105.115-9.891l4.331-1.228l1.875-20.428h11.119v-12.347h-9.891L207.063,286.222z M188.574,350.545
		c-23.467,4.913-72.921,8.016-98.263,8.016c-50.101,0-77.899-12.994-77.899-19.782s27.798-20.428,77.899-20.428
		c21.01,0,47.58,2.457,74.214,6.788h1.228c3.685,0,4.913,0,19.135-22.885l8.016-1.228L188.574,350.545z"/>
</g>
<g>
	<polygon style="fill:#2EA2DB;" points="48.808,348.671 102.012,348.671 141.576,392.566 108.8,392.566 	"/>
	<polygon style="fill:#2EA2DB;" points="265.18,168.178 282.505,168.178 299.83,168.178 299.83,113.745 265.18,113.745 	"/>
</g>
<g>
</g>
<g>
</g>
<g>
</g>
<g>
</g>
<g>
</g>
<g>
</g>
<g>
</g>
<g>
</g>
<g>
</g>
<g>
</g>
<g>
</g>
<g>
</g>
<g>
</g>
<g>
</g>
<g>
</g>
</svg>
