<?xml version="1.0" encoding="iso-8859-1"?>
<!-- Generator: Adobe Illustrator 19.0.0, SVG Export Plug-In . SVG Version: 6.00 Build 0)  -->
<svg version="1.1" id="Layer_1" xmlns="http://www.w3.org/2000/svg" xmlns:xlink="http://www.w3.org/1999/xlink" x="0px" y="0px"
	 viewBox="0 0 395.636 395.636" style="enable-background:new 0 0 395.636 395.636;" xml:space="preserve">
<circle style="fill:#F16051;" cx="197.818" cy="197.818" r="197.818"/>
<polygon style="fill:#FFFFFF;" points="369.067,382.642 302.933,370.941 151.79,220.315 206.804,165.301 357.947,315.863 "/>
<path style="fill:#E1E6E9;" d="M68.59,38.335L25.341,81.584c-6.788,6.788-6.788,17.907,0,25.341l119.919,119.919l68.59-68.59
	L93.349,38.335C86.562,31.547,75.442,31.547,68.59,38.335z"/>
<g>
	
		<rect x="84.917" y="98.07" transform="matrix(-0.7071 0.7071 -0.7071 -0.7071 228.7166 113.749)" style="fill:#193651;" width="11.766" height="12.347"/>
	
		<rect x="106.521" y="119.994" transform="matrix(-0.7071 0.7071 -0.7071 -0.7071 281.0985 135.8996)" style="fill:#193651;" width="11.766" height="12.347"/>
	
		<rect x="129.023" y="141.898" transform="matrix(-0.7071 0.7071 -0.7071 -0.7071 335.0007 157.3817)" style="fill:#193651;" width="11.766" height="12.347"/>
	<path style="fill:#193651;" d="M380.186,385.099l-5.56-5.56l-11.119-66.133L215.143,165.042l6.788-6.788L124.25,59.992
		l10.537-10.537l77.899,77.899c5.56,5.56,12.347,8.016,19.782,8.016s14.222-3.103,19.782-8.016l-8.663-8.663
		c-6.206,6.206-16.097,6.206-22.238,0L105.115,1.875l-8.663,8.663l30.319,30.319l-10.537,10.537l-17.325-17.39
		c-9.244-9.244-24.695-9.244-34.004,0L21.657,77.253c-9.244,9.244-9.244,24.76,0,34.004l124.251,124.25l6.788-6.788l148.364,148.364
		l66.133,11.119l5.56,5.56c1.228,1.228,5.56,3.103,8.663,0C382.642,391.305,382.642,387.62,380.186,385.099z M144.679,218.246
		L29.026,102.594c-4.331-4.331-4.331-11.766,0-16.679l43.248-43.248c2.457-2.457,4.978-3.103,8.016-3.103
		c3.038,0,6.206,1.228,8.016,3.103l115.588,115.588L144.679,218.246z M305.39,365.317L160.129,220.057l46.352-46.352
		l145.261,145.261l9.244,55.661L305.39,365.317z"/>
</g>
<g>
</g>
<g>
</g>
<g>
</g>
<g>
</g>
<g>
</g>
<g>
</g>
<g>
</g>
<g>
</g>
<g>
</g>
<g>
</g>
<g>
</g>
<g>
</g>
<g>
</g>
<g>
</g>
<g>
</g>
</svg>
