<?xml version="1.0" encoding="iso-8859-1"?>
<!-- Generator: Adobe Illustrator 19.0.0, SVG Export Plug-In . SVG Version: 6.00 Build 0)  -->
<svg version="1.1" id="Layer_1" xmlns="http://www.w3.org/2000/svg" xmlns:xlink="http://www.w3.org/1999/xlink" x="0px" y="0px"
	 viewBox="0 0 395.766 395.766" style="enable-background:new 0 0 395.766 395.766;" xml:space="preserve">
<path style="fill:#FFFFFF;" d="M223.806,119.37c-30.255,30.255-36.461,76.024-17.907,112.485l-6.788,48.808l48.873-6.788
	c19.2,9.568,40.727,12.735,61.22,9.374v42.602H6.206V55.693h302.933v36.784C279.014,87.305,246.885,96.226,223.806,119.37z"/>
<path style="fill:#2EA2DB;" d="M223.806,119.37c-30.255,30.255-36.461,76.024-17.907,112.485l-6.788,48.808l48.873-6.788
	c11.572,5.754,23.984,9.244,36.461,10.279v16.873H30.901V80.388H284.38v10.99C262.206,93.188,240.614,102.497,223.806,119.37z"/>
<g>
	<path style="fill:#FFFFFF;" d="M309.075,55.693V24.792c0-10.537-8.016-18.554-18.554-18.554H24.76
		c-10.537,0-18.554,8.016-18.554,18.554v30.901H309.075z"/>
	<path style="fill:#FFFFFF;" d="M6.206,325.786v45.123c0,10.537,8.016,18.554,18.554,18.554h265.826
		c10.537,0,18.554-8.016,18.554-18.554v-45.123H6.206z"/>
</g>
<g>
	<rect x="139.119" y="24.792" style="fill:#193651;" width="37.107" height="12.347"/>
	<rect x="139.119" y="351.774" style="fill:#193651;" width="37.107" height="12.347"/>
	<rect x="199.693" y="351.774" style="fill:#193651;" width="12.347" height="12.347"/>
	<rect x="102.594" y="351.774" style="fill:#193651;" width="12.347" height="12.347"/>
</g>
<path style="fill:#FFFFFF;" d="M361.051,256.549c37.689-37.689,37.689-99.556,0-137.244s-99.556-37.689-137.244,0
	c-30.319,30.319-36.461,76.024-17.907,112.485l-6.788,48.808l48.808-6.788C284.962,292.428,330.731,286.869,361.051,256.549z"/>
<g>
	<path style="fill:#193651;" d="M365.317,115.038c-14.222-14.222-31.547-23.467-50.101-27.798V24.792
		c0-13.576-11.119-24.76-24.76-24.76H24.76C11.119,0.032,0,11.152,0,24.792v346.182c0,13.576,11.119,24.76,24.76,24.76h265.826
		c13.576,0,24.76-11.119,24.76-24.76v-82.877c19.135-4.331,36.461-13.576,50.101-27.798c19.782-19.135,30.319-45.123,30.319-72.339
		C395.636,160.162,385.099,134.174,365.317,115.038z M12.347,24.792c0-6.788,5.56-12.347,12.347-12.347h265.826
		c6.788,0,12.347,5.56,12.347,12.347v24.76H12.347V24.792z M302.933,370.974c0,6.788-5.56,12.347-12.348,12.347H24.76
		c-6.788,0-12.347-5.56-12.347-12.347v-38.917h290.521V370.974z M302.933,319.644H12.347V61.834h290.521v23.531
		c-3.103-0.646-40.792-8.016-83.459,29.673c-30.901,30.901-38.917,78.481-19.782,118.044l-7.434,55.014l55.014-7.434
		c14.222,9.244,51.911,12.347,55.014,9.891v29.026h0.711V319.644z M356.719,252.218c-26.57,26.57-69.236,35.232-106.925,16.097
		l-43.248,5.56l5.56-43.248l-0.646-1.875c-17.907-35.232-11.119-77.253,16.679-105.115c17.325-17.325,40.21-23.467,64.323-26.57
		c4.913-0.646,83.459,1.875,90.893,90.893C381.414,212.073,373.98,234.958,356.719,252.218z"/>
	<path style="fill:#193651;" d="M292.396,182.4c-8.663,0-16.097-7.434-16.097-16.097s7.434-16.097,16.097-16.097
		c8.663,0,16.097,7.434,16.097,16.097h12.347c0-13.317-9.697-24.824-22.238-27.733v-11.184h-12.347v11.248
		c-12.606,2.909-22.238,14.416-22.238,27.733c0,15.451,12.994,28.444,28.444,28.444c8.663,0,16.097,7.434,16.097,16.097
		c0,8.663-7.434,16.097-16.097,16.097s-16.097-7.434-16.097-16.097h-12.348c0,13.317,9.697,24.824,22.238,27.733v9.374h12.347
		v-9.438c12.929-2.844,22.238-14.352,22.238-27.798C320.84,195.394,307.846,182.4,292.396,182.4z"/>
</g>
<g>
</g>
<g>
</g>
<g>
</g>
<g>
</g>
<g>
</g>
<g>
</g>
<g>
</g>
<g>
</g>
<g>
</g>
<g>
</g>
<g>
</g>
<g>
</g>
<g>
</g>
<g>
</g>
<g>
</g>
</svg>
