<?xml version="1.0" encoding="iso-8859-1"?>
<!-- Generator: Adobe Illustrator 19.0.0, SVG Export Plug-In . SVG Version: 6.00 Build 0)  -->
<svg version="1.1" id="Layer_1" xmlns="http://www.w3.org/2000/svg" xmlns:xlink="http://www.w3.org/1999/xlink" x="0px" y="0px"
	 viewBox="0 0 395.636 395.636" style="enable-background:new 0 0 395.636 395.636;" xml:space="preserve">
<g>
	<rect x="51.911" y="6.206" style="fill:#FFFFFF;" width="55.014" height="383.289"/>
	<polygon style="fill:#FFFFFF;" points="361.051,389.43 106.925,389.43 106.925,6.206 361.051,6.206 361.051,302.933 	"/>
</g>
<rect x="131.685" y="30.901" style="fill:#FDBF5E;" width="204.606" height="333.834"/>
<g>
	<rect x="270.739" y="309.075" style="fill:#193651;" width="12.347" height="12.347"/>
	<rect x="236.735" y="309.075" style="fill:#193651;" width="12.347" height="12.347"/>
	<rect x="203.378" y="309.075" style="fill:#193651;" width="12.347" height="12.347"/>
	<path style="fill:#193651;" d="M45.77,0v40.792H28.444v12.347H45.77v37.689H28.444v12.347H45.77v37.754H28.444v12.347H45.77v38.335
		H28.444v12.347H45.77v37.689H28.444v12.412H45.77v37.689H28.444v12.347H45.77v37.689H28.444v12.347H45.77v41.503h321.422V0H45.77z
		 M100.784,383.289H58.117v-28.444h17.325v-12.347H58.117v-37.689h17.325v-12.347H58.117v-37.754h17.325V242.36H58.117v-38.335
		h17.325v-12.347H58.117v-37.689h17.325v-12.412H58.117v-37.689h17.325V91.539H58.117V53.204h17.325V40.857H58.117V12.412h42.667
		V383.289z M354.844,383.289H113.131V12.347h241.713V383.289L354.844,383.289z"/>
</g>
<rect x="180.493" y="68.008" style="fill:#FFFFFF;" width="106.925" height="106.925"/>
<g>
	<path style="fill:#193651;" d="M293.624,181.139H174.352V61.802h119.337v119.337H293.624z M186.699,168.792h94.578V74.214h-94.578
		V168.792z"/>
	<rect x="206.481" y="95.224" style="fill:#193651;" width="55.014" height="12.347"/>
	<rect x="206.481" y="135.37" style="fill:#193651;" width="55.014" height="12.347"/>
</g>
<g>
</g>
<g>
</g>
<g>
</g>
<g>
</g>
<g>
</g>
<g>
</g>
<g>
</g>
<g>
</g>
<g>
</g>
<g>
</g>
<g>
</g>
<g>
</g>
<g>
</g>
<g>
</g>
<g>
</g>
</svg>
