<?xml version="1.0" encoding="iso-8859-1"?>
<!-- Generator: Adobe Illustrator 19.0.0, SVG Export Plug-In . SVG Version: 6.00 Build 0)  -->
<svg version="1.1" id="Layer_1" xmlns="http://www.w3.org/2000/svg" xmlns:xlink="http://www.w3.org/1999/xlink" x="0px" y="0px"
	 viewBox="0 0 395.636 395.636" style="enable-background:new 0 0 395.636 395.636;" xml:space="preserve">
<g>
	<rect x="192.259" y="315.604" style="fill:#193651;" width="12.347" height="12.994"/>
	
		<rect x="297.71" y="238.672" transform="matrix(0.3091 -0.951 0.951 0.3091 -23.2111 458.3865)" style="fill:#193651;" width="12.347" height="12.994"/>
	
		<rect x="257.052" y="115.129" transform="matrix(-0.8088 -0.5881 0.5881 -0.8088 404.5941 374.798)" style="fill:#193651;" width="12.348" height="12.994"/>
	
		<rect x="126.855" y="115.208" transform="matrix(-0.5879 -0.8089 0.8089 -0.5879 113.5637 300.6151)" style="fill:#193651;" width="12.994" height="12.347"/>
	
		<rect x="86.674" y="239.373" transform="matrix(0.9512 -0.3086 0.3086 0.9512 -71.2278 40.7369)" style="fill:#193651;" width="12.994" height="12.348"/>
</g>
<g>
	<circle style="fill:#F16051;" cx="198.465" cy="168.469" r="24.76"/>
	<path style="fill:#F16051;" d="M240.485,203.701l-11.766-5.56c-8.016,8.016-18.554,12.994-30.319,12.994
		s-22.885-4.913-30.319-12.994l-11.766,5.56c-3.685,1.875-6.788,6.206-6.788,10.537v45.123h97.034v-45.123
		C246.691,209.907,244.234,206.158,240.485,203.701z"/>
</g>
<g>
	<circle style="fill:#FFFFFF;" cx="97.099" cy="353.939" r="27.798"/>
	<circle style="fill:#FFFFFF;" cx="299.83" cy="353.939" r="27.798"/>
	<circle style="fill:#FFFFFF;" cx="362.279" cy="161.034" r="27.798"/>
	<circle style="fill:#FFFFFF;" cx="198.465" cy="42.99" r="27.798"/>
	<circle style="fill:#FFFFFF;" cx="33.164" cy="161.034" r="27.798"/>
</g>
<path style="fill:#183651;" d="M362.279,128.259c-8.921,0-17.002,3.426-22.949,9.051l-111.192-81.39
	c1.875-4.331,3.103-9.244,3.103-14.222c0-18.554-14.869-33.358-33.358-33.358c-18.554,0-33.358,14.804-33.358,33.358
	c0,4.978,1.228,9.891,3.103,14.222L56.307,136.857c-5.947-5.754-14.093-9.309-23.079-9.309C14.869,127.547,0,142.416,0,160.776
	s14.869,33.228,33.228,33.228c1.293,0,2.586-0.065,3.814-0.259L79.127,323.62c-9.891,5.56-16.679,16.097-16.679,28.444
	c0,18.554,14.869,33.358,33.358,33.358c15.451,0,28.444-11.119,32.129-25.341h138.99c2.78,15.451,16.291,27.216,32.517,27.216
	c18.23,0,33.034-14.804,33.034-33.034c0-12.8-7.305-23.919-17.907-29.414l42.279-130.263c1.745,0.259,3.556,0.453,5.43,0.453
	c18.554,0,33.358-14.869,33.358-33.358S380.832,128.259,362.279,128.259z M198.465,21.333c11.766,0,21.01,9.244,21.01,21.01
	s-9.244,21.01-21.01,21.01s-21.01-9.244-21.01-21.01S186.699,21.333,198.465,21.333z M33.228,181.527
	c-11.442,0-20.687-9.309-20.687-20.752s9.244-20.752,20.687-20.752s20.687,9.309,20.687,20.752
	C53.98,172.218,44.671,181.527,33.228,181.527z M97.099,373.075c-11.766,0-21.01-9.244-21.01-21.01
	c0-11.766,9.244-21.01,21.01-21.01s21.01,9.244,21.01,21.01C118.109,363.83,108.8,373.075,97.099,373.075z M320.517,354.263
	c0,11.766-9.244,21.01-21.01,21.01c-11.766,0-21.01-9.244-21.01-21.01c0-11.766,9.309-21.01,21.01-21.01
	C311.208,333.253,320.517,342.497,320.517,354.263z M303.903,321.487c-1.422-0.194-2.909-0.323-4.396-0.323
	c-4.784,0-9.309,1.034-13.446,2.844l-30.125-41.826l-9.891,7.434l29.867,41.438c-4.525,4.655-7.758,10.602-8.921,17.261H129.875
	c-1.228-6.788-3.685-12.347-8.016-17.325l29.673-40.792l-9.956-7.37l-29.673,40.21c-3.685-3.103-17.325-4.331-19.782-3.103
	L49.907,189.543c5.172-3.038,9.438-7.37,12.412-12.606l49.648,16.291l3.685-11.766l-49.455-16.226
	c0.194-1.422,0.323-2.909,0.323-4.461c0-4.784-1.034-9.244-2.78-13.382l111.321-80.937c4.331,4.331,9.891,7.434,16.679,8.663v45.123
	h12.347v-45.77c6.206-1.228,11.766-4.331,16.679-8.663l111.515,81.196c-2.133,4.396-3.362,9.374-3.362,14.675
	c0,0.97,0.065,1.875,0.129,2.844l-48.937,16.356l3.685,11.766l48.485-16.162c2.844,5.883,7.37,10.731,12.994,14.028L303.903,321.487
	z M362.279,182.691c-11.766,0-21.01-9.244-21.01-21.01c0.646-11.766,9.891-21.01,21.01-21.01c11.766,0,21.01,9.244,21.01,21.01
	S374.044,182.691,362.279,182.691z"/>
<g>
</g>
<g>
</g>
<g>
</g>
<g>
</g>
<g>
</g>
<g>
</g>
<g>
</g>
<g>
</g>
<g>
</g>
<g>
</g>
<g>
</g>
<g>
</g>
<g>
</g>
<g>
</g>
<g>
</g>
</svg>
