<?xml version="1.0" encoding="iso-8859-1"?>
<!-- Generator: Adobe Illustrator 19.0.0, SVG Export Plug-In . SVG Version: 6.00 Build 0)  -->
<svg version="1.1" id="Layer_1" xmlns="http://www.w3.org/2000/svg" xmlns:xlink="http://www.w3.org/1999/xlink" x="0px" y="0px"
	 viewBox="0 0 394.343 394.343" style="enable-background:new 0 0 394.343 394.343;" xml:space="preserve">
<circle style="fill:#FDBF5E;" cx="197.172" cy="197.172" r="194.715"/>
<polygon style="fill:#FFFFFF;" points="365.964,307.846 385.745,385.745 307.846,365.964 31.483,89.6 89.6,31.483 "/>
<polygon style="fill:#D3D7DA;" points="320.194,343.661 163.168,186.634 186.634,163.168 343.661,320.194 351.741,351.741 "/>
<rect x="21.058" y="15.858" transform="matrix(0.7071 -0.7071 0.7071 0.7071 -17.3787 42.3163)" style="fill:#FFFFFF;" width="42.666" height="52.557"/>
<g>
	<path style="fill:#193651;" d="M371.523,304.743L124.251,57.471l9.891-9.891l106.343,105.697c3.685,4.331,8.663,6.206,14.222,6.206
		c5.56,0,10.537-1.875,14.869-6.206l-8.663-8.663c-3.103,3.103-8.016,3.103-11.119,0L134.723,29.673l-19.135,19.135L89.6,22.82
		L75.701,36.719L38.917,0L0,38.917l36.784,36.784L22.885,89.6l281.859,281.923l89.6,22.82L371.523,304.743z M17.261,38.917
		l21.657-21.657l27.798,28.444L45.382,67.038L17.261,38.917z M40.792,89.018L89.6,40.21l270.158,271.386l17.325,66.133
		l-66.133-17.325L40.792,89.018z"/>
	
		<rect x="83.515" y="83.399" transform="matrix(0.7071 0.7071 -0.7071 0.7071 89.6068 -37.1844)" style="fill:#193651;" width="12.347" height="12.347"/>
	
		<rect x="112.028" y="111.789" transform="matrix(0.7071 0.7072 -0.7072 0.7071 118.0449 -49.0311)" style="fill:#193651;" width="12.348" height="12.348"/>
	
		<rect x="140.105" y="140.675" transform="matrix(-0.7072 0.7071 -0.7071 -0.7072 353.5515 147.267)" style="fill:#193651;" width="12.348" height="12.348"/>
</g>
<g>
</g>
<g>
</g>
<g>
</g>
<g>
</g>
<g>
</g>
<g>
</g>
<g>
</g>
<g>
</g>
<g>
</g>
<g>
</g>
<g>
</g>
<g>
</g>
<g>
</g>
<g>
</g>
<g>
</g>
</svg>
