<?xml version="1.0" encoding="iso-8859-1"?>
<!-- Generator: Adobe Illustrator 19.0.0, SVG Export Plug-In . SVG Version: 6.00 Build 0)  -->
<svg version="1.1" id="Layer_1" xmlns="http://www.w3.org/2000/svg" xmlns:xlink="http://www.w3.org/1999/xlink" x="0px" y="0px"
	 viewBox="0 0 395.636 395.636" style="enable-background:new 0 0 395.636 395.636;" xml:space="preserve">
<rect x="101.366" y="191.612" style="fill:#FFFFFF;" width="192.259" height="197.818"/>
<rect x="144.032" y="242.941" style="fill:#4FBF9F;" width="106.925" height="118.691"/>
<path style="fill:#FFFFFF;" d="M155.152,242.941v92.121c7.434,0,13.576,6.788,13.576,14.869h57.535
	c0-8.016,6.206-14.869,13.576-14.869v-92.121H155.152z"/>
<g>
	<circle style="fill:#4FBF9F;" cx="197.818" cy="283.152" r="25.341"/>
	<circle style="fill:#4FBF9F;" cx="197.818" cy="328.275" r="9.244"/>
</g>
<rect x="128.582" y="236.735" style="fill:#193651;" width="138.473" height="12.347"/>
<rect x="43.248" y="6.206" style="fill:#FFFFFF;" width="309.075" height="185.471"/>
<path style="fill:#193651;" d="M37.107,0v197.818h58.117v197.818H299.83V197.818h58.699V0H37.107z M288.065,383.289H107.572V197.818
	h179.911v185.471H288.065z M346.182,185.471H49.455V12.347h296.727V185.471z"/>
<rect x="68.008" y="30.901" style="fill:#2EA2DB;" width="259.62" height="136.016"/>
<rect x="89.018" y="52.558" style="fill:#FFFFFF;" width="116.816" height="92.703"/>
<g>
	<path style="fill:#193651;" d="M209.455,149.204H80.873V44.089h129.228v105.115H209.455z M93.285,136.857h104.469v-80.42H93.285
		V136.857z"/>
	<rect x="294.271" y="64.905" style="fill:#193651;" width="12.347" height="12.347"/>
	<rect x="294.271" y="95.806" style="fill:#193651;" width="12.347" height="12.347"/>
	<rect x="294.271" y="120.566" style="fill:#193651;" width="12.347" height="12.347"/>
	<rect x="267.701" y="64.905" style="fill:#193651;" width="12.347" height="12.347"/>
	<rect x="267.701" y="95.806" style="fill:#193651;" width="12.347" height="12.347"/>
	<rect x="267.701" y="120.566" style="fill:#193651;" width="12.347" height="12.347"/>
	<rect x="241.713" y="64.905" style="fill:#193651;" width="12.347" height="12.347"/>
	<rect x="241.713" y="95.806" style="fill:#193651;" width="12.347" height="12.347"/>
	<rect x="241.713" y="120.566" style="fill:#193651;" width="12.347" height="12.347"/>
</g>
<g>
</g>
<g>
</g>
<g>
</g>
<g>
</g>
<g>
</g>
<g>
</g>
<g>
</g>
<g>
</g>
<g>
</g>
<g>
</g>
<g>
</g>
<g>
</g>
<g>
</g>
<g>
</g>
<g>
</g>
</svg>
