<?xml version="1.0" encoding="iso-8859-1"?>
<!-- Generator: Adobe Illustrator 19.0.0, SVG Export Plug-In . SVG Version: 6.00 Build 0)  -->
<svg version="1.1" id="Layer_1" xmlns="http://www.w3.org/2000/svg" xmlns:xlink="http://www.w3.org/1999/xlink" x="0px" y="0px"
	 viewBox="0 0 396.283 396.283" style="enable-background:new 0 0 396.283 396.283;" xml:space="preserve">
<circle style="fill:#2EA2DB;" cx="197.818" cy="197.818" r="194.715"/>
<rect x="25.341" y="126.125" style="fill:#FFFFFF;" width="334.416" height="213.269"/>
<rect x="50.101" y="150.82" style="fill:#FDBF5E;" width="284.962" height="163.814"/>
<path style="fill:#FFFFFF;" d="M6.206,334.416c0,25.341,20.428,52.558,46.352,52.558h291.168c25.341,0,46.352-26.57,46.352-52.558
	H6.206z"/>
<g>
	<path style="fill:#193651;" d="M365.317,328.275V119.919H19.135v208.356H0v6.206c0,27.798,22.238,58.699,52.558,58.699h291.168
		c29.673,0,52.558-30.901,52.558-58.699v-6.206H365.317z M31.547,132.267h322.069V328.21H31.547V132.267z M343.079,380.186H52.558
		c-20.428,0-36.461-20.428-39.564-40.21h369.648C380.186,359.758,363.507,380.186,343.079,380.186z"/>
	<rect x="163.232" y="354.198" style="fill:#193651;" width="12.347" height="12.347"/>
	<rect x="191.612" y="354.198" style="fill:#193651;" width="12.347" height="12.347"/>
	<rect x="220.057" y="354.198" style="fill:#193651;" width="12.347" height="12.347"/>
</g>
<g>
	<rect x="195.362" y="170.02" style="fill:#FFFFFF;" width="108.8" height="125.479"/>
	<circle style="fill:#FFFFFF;" cx="249.729" cy="205.834" r="21.01"/>
</g>
<path style="fill:#193651;" d="M249.729,233.051c-14.869,0-27.216-12.347-27.216-27.216c0-14.869,12.347-27.216,27.216-27.216
	s27.216,12.347,27.216,27.216C276.945,220.703,265.18,233.051,249.729,233.051z M249.729,191.03
	c-8.016,0-14.869,6.788-14.869,14.869c0,8.081,6.788,14.869,14.869,14.869c8.016,0,14.869-6.788,14.869-14.869
	C264.598,197.818,258.392,191.03,249.729,191.03z"/>
<path style="fill:#FFFFFF;" d="M211.394,284.962L211.394,284.962c0-21.01,17.325-38.335,38.335-38.335l0,0
	c21.01,0,38.335,17.325,38.335,38.335"/>
<g>
	<path style="fill:#193651;" d="M205.253,284.962c0-24.76,19.782-44.541,44.541-44.541s44.541,19.782,44.541,44.541h-12.348
		c0-17.907-14.222-32.129-32.129-32.129s-32.129,14.222-32.129,32.129H205.253z"/>
	<rect x="80.356" y="268.929" style="fill:#193651;" width="56.889" height="12.347"/>
	<rect x="80.356" y="226.844" style="fill:#193651;" width="56.889" height="12.347"/>
	<rect x="80.356" y="184.242" style="fill:#193651;" width="56.889" height="12.347"/>
</g>
<g>
</g>
<g>
</g>
<g>
</g>
<g>
</g>
<g>
</g>
<g>
</g>
<g>
</g>
<g>
</g>
<g>
</g>
<g>
</g>
<g>
</g>
<g>
</g>
<g>
</g>
<g>
</g>
<g>
</g>
</svg>
