<?xml version="1.0" encoding="iso-8859-1"?>
<!-- Generator: Adobe Illustrator 19.0.0, SVG Export Plug-In . SVG Version: 6.00 Build 0)  -->
<svg version="1.1" id="Layer_1" xmlns="http://www.w3.org/2000/svg" xmlns:xlink="http://www.w3.org/1999/xlink" x="0px" y="0px"
	 viewBox="0 0 395.636 395.636" style="enable-background:new 0 0 395.636 395.636;" xml:space="preserve">
<rect x="6.206" y="6.206" style="fill:#FFFFFF;" width="383.289" height="383.289"/>
<path style="fill:#193651;" d="M395.636,395.636H0V0h395.636V395.636z M12.347,383.289h370.941V12.347H12.347V383.289z"/>
<rect x="30.901" y="30.901" style="fill:#FDBF5E;" width="333.834" height="63.677"/>
<g>
	<rect x="279.402" y="173.123" style="fill:#193651;" width="85.333" height="12.347"/>
	<rect x="279.402" y="225.616" style="fill:#193651;" width="85.333" height="12.347"/>
	<rect x="279.402" y="277.592" style="fill:#193651;" width="85.333" height="12.347"/>
	<rect x="279.402" y="329.503" style="fill:#193651;" width="85.333" height="12.347"/>
	<rect x="63.677" y="56.242" style="fill:#193651;" width="12.347" height="12.347"/>
	<rect x="115.006" y="56.242" style="fill:#193651;" width="12.347" height="12.347"/>
	<rect x="166.271" y="56.242" style="fill:#193651;" width="12.347" height="12.347"/>
	<rect x="216.954" y="56.242" style="fill:#193651;" width="12.347" height="12.347"/>
	<rect x="268.283" y="56.242" style="fill:#193651;" width="12.347" height="12.347"/>
	<rect x="319.612" y="56.242" style="fill:#193651;" width="12.347" height="12.347"/>
</g>
<circle style="fill:#FFFFFF;" cx="135.37" cy="192.905" r="42.667"/>
<path style="fill:#193651;" d="M135.37,144.032c-27.216,0-48.808,21.657-48.808,48.808s21.657,48.808,48.808,48.808
	s48.808-21.657,48.808-48.808C184.242,166.271,162.586,144.032,135.37,144.032z M135.37,229.947
	c-20.428,0-36.461-16.679-36.461-36.461s16.679-36.461,36.461-36.461c20.428,0,36.461,16.679,36.461,36.461
	S155.152,229.947,135.37,229.947z"/>
<path style="fill:#2EA2DB;" d="M238.61,346.828v-1.875c0-42.667-25.988-79.774-63.03-95.806
	c-11.119,8.016-25.341,12.994-40.21,12.994c-15.451,0-29.026-4.913-40.792-12.994c-12.347,5.56-24.113,12.994-33.358,22.238
	c-18.554,19.135-30.319,45.123-30.319,73.568v1.875H238.61z"/>
<g>
</g>
<g>
</g>
<g>
</g>
<g>
</g>
<g>
</g>
<g>
</g>
<g>
</g>
<g>
</g>
<g>
</g>
<g>
</g>
<g>
</g>
<g>
</g>
<g>
</g>
<g>
</g>
<g>
</g>
</svg>
