<?xml version="1.0" encoding="iso-8859-1"?>
<!-- Generator: Adobe Illustrator 19.0.0, SVG Export Plug-In . SVG Version: 6.00 Build 0)  -->
<svg version="1.1" id="Layer_1" xmlns="http://www.w3.org/2000/svg" xmlns:xlink="http://www.w3.org/1999/xlink" x="0px" y="0px"
	 viewBox="0 0 395.636 395.636" style="enable-background:new 0 0 395.636 395.636;" xml:space="preserve">
<g>
	<polygon style="fill:#FFFFFF;" points="252.832,116.816 116.234,231.176 116.234,389.43 389.43,389.43 389.43,231.176 	"/>
	<polygon style="fill:#FFFFFF;" points="389.43,389.43 252.832,274.489 116.234,389.43 	"/>
</g>
<polygon style="fill:#2EA2DB;" points="184.242,364.735 252.832,307.265 321.487,364.735 "/>
<polygon style="fill:#FFFFFF;" points="6.206,6.206 273.842,6.206 273.842,170.602 93.931,170.602 93.931,197.818 51.329,170.602 
	6.206,170.602 "/>
<path style="fill:#193651;" d="M280.048,131.685V0H0v176.808h49.455l51.329,32.776v-32.776h71.693l-61.802,51.911v166.917h284.962
	V228.719L280.048,131.685z M87.79,164.461v22.238l-35.232-22.238h-40.21V12.347h255.289v152.048H87.79V164.461z M191.03,176.808
	h89.018v-29.026l99.556,83.459l-90.893,65.487l-32.129-27.216c-2.457-1.875-5.56-1.875-8.016,0l-31.612,27.216l-90.828-65.551
	L191.03,176.808z M122.376,243.588l84.687,61.802l-84.687,71.111C122.376,376.501,122.376,243.588,122.376,243.588z M133.56,383.289
	l119.273-100.784L372.17,383.289H133.56z M383.289,376.501l-84.687-71.693l84.687-61.802V376.501z"/>
<rect x="37.689" y="37.689" style="fill:#FDBF5E;" width="205.253" height="101.366"/>
<g>
	<rect x="186.053" y="82.23" style="fill:#193651;" width="12.347" height="12.347"/>
	<rect x="134.141" y="82.23" style="fill:#193651;" width="12.347" height="12.347"/>
	<rect x="81.584" y="82.23" style="fill:#193651;" width="12.347" height="12.347"/>
</g>
<g>
</g>
<g>
</g>
<g>
</g>
<g>
</g>
<g>
</g>
<g>
</g>
<g>
</g>
<g>
</g>
<g>
</g>
<g>
</g>
<g>
</g>
<g>
</g>
<g>
</g>
<g>
</g>
<g>
</g>
</svg>
