<?xml version="1.0" encoding="iso-8859-1"?>
<!-- Generator: Adobe Illustrator 19.0.0, SVG Export Plug-In . SVG Version: 6.00 Build 0)  -->
<svg version="1.1" id="Layer_1" xmlns="http://www.w3.org/2000/svg" xmlns:xlink="http://www.w3.org/1999/xlink" x="0px" y="0px"
	 viewBox="0 0 396.04 396.04" style="enable-background:new 0 0 396.04 396.04;" xml:space="preserve">
<g>
	<rect x="47.233" y="141.778" style="fill:#FFFFFF;" width="302.287" height="247.919"/>
	<polygon style="fill:#FFFFFF;" points="333.423,102.02 333.423,6.408 282.093,6.408 282.093,65.753 198.053,6.408 6.441,141.778 
		389.665,141.778 	"/>
</g>
<path style="fill:#193651;" d="M393.415,136.8l-53.786-37.689V0.202h-63.677v53.786L201.738,1.43c-1.875-1.228-4.913-1.228-7.434,0
	L2.691,136.8c-2.457,1.875-3.103,4.331-2.457,6.788s3.103,4.331,6.206,4.331h34.586v247.919h314.634V147.919h34.004
	c2.457,0,4.913-1.875,6.206-4.331C396.518,141.131,395.225,138.028,393.415,136.8z M288.3,12.549h38.917v77.253L288.3,62.586V12.549
	z M342.732,383.491H53.374V147.919h289.939v235.507h-0.582V383.491z M25.576,135.572L198.053,13.778L370.53,135.572H25.576
	L25.576,135.572z"/>
<polygon style="fill:#F16051;" points="84.34,117.018 198.053,36.662 311.831,117.018 "/>
<path style="fill:#D3D7DA;" d="M178.982,298.351v13.64h38.141v-15.774c0-20.299,5.947-40.145,16.937-57.147
	c4.396-6.788,6.917-14.869,6.917-23.531c0-23.919-19.265-43.248-43.119-43.442c-23.919-0.129-43.701,19.523-43.701,43.442
	c0,8.986,2.715,17.325,7.434,24.242C173.229,256.978,178.982,277.535,178.982,298.351z"/>
<path style="fill:#4FBF9F;" d="M311.184,358.731H84.922v-30.319c0-12.347,9.891-21.657,21.657-21.657h183.014
	c12.347,0,21.657,9.891,21.657,21.657v11.766L311.184,358.731L311.184,358.731z"/>
<g>
	<rect x="157.261" y="325.955" style="fill:#193651;" width="12.347" height="12.994"/>
	<rect x="191.847" y="325.955" style="fill:#193651;" width="12.347" height="12.994"/>
	<rect x="226.498" y="325.955" style="fill:#193651;" width="12.347" height="12.994"/>
</g>
<g>
</g>
<g>
</g>
<g>
</g>
<g>
</g>
<g>
</g>
<g>
</g>
<g>
</g>
<g>
</g>
<g>
</g>
<g>
</g>
<g>
</g>
<g>
</g>
<g>
</g>
<g>
</g>
<g>
</g>
</svg>
