<?xml version="1.0" encoding="iso-8859-1"?>
<!-- Generator: Adobe Illustrator 19.0.0, SVG Export Plug-In . SVG Version: 6.00 Build 0)  -->
<svg version="1.1" id="Layer_1" xmlns="http://www.w3.org/2000/svg" xmlns:xlink="http://www.w3.org/1999/xlink" x="0px" y="0px"
	 viewBox="0 0 396.024 396.024" style="enable-background:new 0 0 396.024 396.024;" xml:space="preserve">
<g>
	<circle style="fill:#FFFFFF;" cx="370.941" cy="309.236" r="18.554"/>
	<circle style="fill:#FFFFFF;" cx="284.38" cy="340.137" r="18.554"/>
	<circle style="fill:#FFFFFF;" cx="197.818" cy="371.103" r="18.554"/>
	<circle style="fill:#FFFFFF;" cx="111.257" cy="340.137" r="18.554"/>
	<circle style="fill:#FFFFFF;" cx="24.76" cy="309.236" r="18.554"/>
</g>
<rect x="6.206" y="6.368" style="fill:#4FBF9F;" width="383.289" height="143.451"/>
<g>
	<path style="fill:#193651;" d="M395.636,155.96V0.162H0V155.96h191.612v55.596H18.554v73.568C8.016,287.644,0,297.535,0,309.236
		c0,13.576,11.119,24.76,24.76,24.76s24.76-11.119,24.76-24.76c0-11.766-8.016-21.01-18.554-24.113v-61.22h74.214v92.121
		c-10.537,2.457-18.554,12.347-18.554,24.113c0,13.576,11.119,24.76,24.76,24.76s24.76-11.119,24.76-24.76
		c0-11.766-8.016-21.01-18.554-24.113v-92.057h74.214V346.99c-10.537,2.457-18.554,12.347-18.554,24.113
		c0,13.576,11.119,24.76,24.76,24.76c13.64,0,24.76-11.119,24.76-24.76c0-11.766-8.016-21.01-18.554-24.113V223.968h74.214v92.121
		c-10.537,2.457-18.554,12.347-18.554,24.113c0,13.576,11.119,24.76,24.76,24.76s24.76-11.119,24.76-24.76
		c0-11.766-8.016-21.01-18.554-24.113v-92.121h74.214v61.22c-10.537,2.457-18.554,12.347-18.554,24.113
		c0,13.576,11.119,24.76,24.76,24.76s24.76-11.119,24.76-24.76c0-11.766-8.016-21.01-18.554-24.113v-73.632H204.024V155.96H395.636z
		 M37.107,309.236c0,6.788-5.56,12.347-12.347,12.347s-12.347-5.56-12.347-12.347c0-4.913,3.103-9.244,7.434-11.119
		c3.685-0.646,7.434,0,11.119,0.646C34.586,300.574,37.107,304.905,37.107,309.236z M123.669,340.137
		c0,6.788-5.56,12.347-12.347,12.347c-6.788,0-12.347-5.56-12.347-12.347c0-4.913,2.457-8.663,6.788-11.119
		c3.685-0.646,8.016-0.646,11.766,0C121.147,331.475,123.669,335.224,123.669,340.137z M375.208,297.535
		c4.331,1.875,8.016,6.206,8.016,11.766c0,6.788-5.56,12.347-12.347,12.347c-6.788,0-12.347-5.56-12.347-12.347
		c0-4.331,2.457-8.663,6.206-10.537l0,0C368.42,297.535,372.17,297.535,375.208,297.535z M296.727,340.137
		c0,6.788-5.56,12.347-12.347,12.347s-12.347-5.56-12.347-12.347c0-6.788,5.56-12.347,12.347-12.347
		S296.727,333.349,296.727,340.137z M210.166,371.103c0,6.788-5.56,12.347-12.347,12.347c-6.788,0-12.347-5.56-12.347-12.347
		c0-6.788,5.56-12.347,12.347-12.347C204.606,358.691,210.166,364.25,210.166,371.103z M12.347,143.612V12.509h370.941v131.038
		H12.347V143.612z"/>
	<rect x="321.487" y="255.45" style="fill:#193651;" width="12.347" height="12.347"/>
	<rect x="234.925" y="255.45" style="fill:#193651;" width="12.347" height="12.347"/>
	<rect x="148.364" y="255.45" style="fill:#193651;" width="12.347" height="12.347"/>
	<rect x="61.802" y="255.45" style="fill:#193651;" width="12.347" height="12.347"/>
</g>
<g>
	<circle style="fill:#FFFFFF;" cx="293.624" cy="78.061" r="18.554"/>
	<circle style="fill:#FFFFFF;" cx="197.818" cy="78.061" r="18.554"/>
	<circle style="fill:#FFFFFF;" cx="102.012" cy="78.061" r="18.554"/>
</g>
<g>
	<path style="fill:#193651;" d="M102.012,102.756c-13.576,0-24.76-11.119-24.76-24.76s11.119-24.76,24.76-24.76
		s24.76,11.119,24.76,24.76S115.588,102.756,102.012,102.756z M102.012,65.713c-6.788,0-12.347,5.56-12.347,12.347
		c0,6.788,5.56,12.347,12.347,12.347s12.347-5.56,12.347-12.347C114.36,71.273,108.8,65.713,102.012,65.713z"/>
	<path style="fill:#193651;" d="M293.624,102.756c-13.576,0-24.76-11.119-24.76-24.76s11.119-24.76,24.76-24.76
		c13.64,0,24.76,11.119,24.76,24.76S307.265,102.756,293.624,102.756z M293.624,65.713c-6.788,0-12.347,5.56-12.347,12.347
		c0,6.788,5.56,12.347,12.347,12.347c6.788,0,12.348-5.56,12.348-12.347C305.972,71.273,300.412,65.713,293.624,65.713z"/>
	<path style="fill:#193651;" d="M197.818,102.756c-13.576,0-24.76-11.119-24.76-24.76s11.119-24.76,24.76-24.76
		c13.64,0,24.76,11.119,24.76,24.76S211.394,102.756,197.818,102.756z M197.818,65.713c-6.788,0-12.347,5.56-12.347,12.347
		c0,6.788,5.56,12.347,12.347,12.347c6.788,0,12.347-5.56,12.347-12.347C210.166,71.273,204.606,65.713,197.818,65.713z"/>
</g>
<g>
</g>
<g>
</g>
<g>
</g>
<g>
</g>
<g>
</g>
<g>
</g>
<g>
</g>
<g>
</g>
<g>
</g>
<g>
</g>
<g>
</g>
<g>
</g>
<g>
</g>
<g>
</g>
<g>
</g>
</svg>
