<?xml version="1.0" encoding="iso-8859-1"?>
<!-- Generator: Adobe Illustrator 19.0.0, SVG Export Plug-In . SVG Version: 6.00 Build 0)  -->
<svg version="1.1" id="Layer_1" xmlns="http://www.w3.org/2000/svg" xmlns:xlink="http://www.w3.org/1999/xlink" x="0px" y="0px"
	 viewBox="0 0 395.636 395.636" style="enable-background:new 0 0 395.636 395.636;" xml:space="preserve">
<path style="fill:#FFFFFF;" d="M236.154,389.43l-28.057-61.543c8.533-3.879,14.481-12.477,14.481-22.497
	c0-13.64-11.055-24.76-24.76-24.76c-13.64,0-24.76,11.055-24.76,24.76c0,10.02,5.947,18.618,14.481,22.497l-28.057,61.543H236.154z"
	/>
<circle style="fill:#D3D7DA;" cx="197.818" cy="68.59" r="62.448"/>
<circle style="fill:#FDBF5E;" cx="327.046" cy="180.493" r="62.448"/>
<g>
	<circle style="fill:#FFFFFF;" cx="197.818" cy="305.39" r="24.76"/>
	<circle style="fill:#FFFFFF;" cx="68.59" cy="305.39" r="24.76"/>
</g>
<path id="SVGCleanerId_0" style="fill:#193651;" d="M333.188,212.04H320.84v-31.547h6.206c6.788,0,12.994-5.56,12.994-12.994
	c0-6.788-6.206-12.994-12.994-12.994c-6.788,0-12.994,5.56-12.994,12.994h-12.347c0-14.222,11.119-25.341,25.341-25.341
	c14.222,0,25.341,11.119,25.341,25.341c0,11.766-8.016,21.657-19.135,24.76v19.782H333.188z"/>
<g>
	<rect x="254.061" y="236.735" style="fill:#193651;" width="12.347" height="12.347"/>
	<rect x="254.061" y="283.733" style="fill:#193651;" width="12.347" height="12.347"/>
	<rect x="254.061" y="331.313" style="fill:#193651;" width="12.347" height="12.347"/>
	<rect x="129.228" y="236.735" style="fill:#193651;" width="12.347" height="12.347"/>
	<rect x="129.228" y="283.733" style="fill:#193651;" width="12.347" height="12.347"/>
	<rect x="129.228" y="331.313" style="fill:#193651;" width="12.347" height="12.347"/>
</g>
<circle style="fill:#4FBF9F;" cx="68.59" cy="180.493" r="62.448"/>
<circle style="fill:#FDBF5E;" cx="327.046" cy="180.493" r="62.448"/>
<path style="fill:#FFFFFF;" d="M365.317,389.43l-28.057-61.543c8.533-3.879,14.481-12.477,14.481-22.497
	c0-13.64-11.055-24.76-24.76-24.76c-13.64,0-24.76,11.055-24.76,24.76c0,10.02,5.947,18.618,14.481,22.497l-28.057,61.543H365.317z"
	/>
<path style="fill:#193651;" d="M395.636,179.911c0-37.689-30.901-68.59-68.59-68.59s-68.59,30.901-68.59,68.59
	c0,35.62,27.604,65.164,62.449,68.331v26.893c-13.964,2.844-24.824,15.127-24.824,30.255c0,10.537,4.978,19.135,12.994,24.76
	l-30.255,65.487h95.806l-29.673-65.552c7.434-5.56,12.994-14.869,12.994-24.76c0-14.675-10.473-27.41-24.695-30.255v-26.828
	C368.032,245.075,395.636,215.531,395.636,179.911z M270.739,180.493c0-30.901,25.341-56.242,56.242-56.242
	s56.242,25.341,56.242,56.242s-25.341,56.242-56.242,56.242S270.739,211.394,270.739,180.493z M355.426,383.289h-57.471
	l22.238-48.226c2.457,0.646,11.766,0.646,13.576,0L355.426,383.289z M345.535,305.39c0,10.537-8.016,18.554-18.554,18.554
	c-10.537-0.646-18.554-8.663-18.554-18.554s8.016-18.554,18.554-18.554C336.937,286.836,345.535,294.853,345.535,305.39z"/>
<path style="fill:#FFFFFF;" d="M106.925,389.43l-28.057-61.543c8.533-3.879,14.481-12.477,14.481-22.497
	c0-13.64-11.055-24.76-24.76-24.76s-24.76,11.055-24.76,24.76c0,10.02,5.947,18.618,14.481,22.497L30.255,389.43H106.925z"/>
<g>
	<path id="SVGCleanerId_0_1_" style="fill:#193651;" d="M333.188,212.04H320.84v-31.547h6.206c6.788,0,12.994-5.56,12.994-12.994
		c0-6.788-6.206-12.994-12.994-12.994c-6.788,0-12.994,5.56-12.994,12.994h-12.347c0-14.222,11.119-25.341,25.341-25.341
		c14.222,0,25.341,11.119,25.341,25.341c0,11.766-8.016,21.657-19.135,24.76v19.782H333.188z"/>
</g>
<g>
	<path style="fill:#193651;" d="M68.59,171.248c-4.331,0-8.016-3.685-8.016-8.016c0-4.331,3.685-8.016,8.016-8.016
		s8.016,3.685,8.016,8.016h12.347c0-8.986-6.012-16.743-14.222-19.394v-4.719H62.448v4.719c-8.21,2.651-14.222,10.408-14.222,19.394
		c0,11.119,9.244,20.428,20.428,20.428c4.331,0,8.016,3.685,8.016,8.016s-3.685,8.016-8.016,8.016c-4.331,0-8.016-3.685-8.016-8.016
		H48.226c0,8.986,6.012,16.743,14.222,19.394v4.073h12.347v-4.073c8.21-2.651,14.222-10.408,14.222-19.394
		C89.018,180.493,79.774,171.248,68.59,171.248z"/>
	<rect x="175.58" y="62.448" style="fill:#193651;" width="12.347" height="12.347"/>
	<rect x="207.709" y="62.448" style="fill:#193651;" width="12.347" height="12.347"/>
	<path style="fill:#193651;" d="M266.408,68.59c0-37.689-30.901-68.59-68.59-68.59s-68.59,30.901-68.59,69.236
		c0,35.62,27.604,65.164,62.449,68.331V275.2c-13.964,3.038-24.113,15.192-24.113,30.19c0,10.537,4.913,19.135,12.994,24.76
		l-30.966,65.487h96.453l-29.673-65.552c7.434-5.56,12.994-14.869,12.994-24.76c0-14.869-10.796-27.733-25.341-30.384V137.568
		C238.869,134.4,266.408,104.857,266.408,68.59z M226.263,383.289h-57.471l22.238-48.226c2.457,0.646,11.766,0.646,13.576,0
		L226.263,383.289z M216.372,305.39c0,10.537-8.016,18.554-18.554,18.554s-18.554-8.663-18.554-18.554s8.016-18.554,18.554-18.554
		S216.372,294.853,216.372,305.39z M197.818,124.897c-30.901,0-56.242-25.341-56.242-56.242s25.341-56.242,56.242-56.242
		s56.242,25.341,56.242,56.242S228.719,124.897,197.818,124.897z"/>
	<path style="fill:#193651;" d="M137.244,179.911c0-37.689-30.901-68.59-68.59-68.59S0,142.158,0,179.911
		c0,35.62,27.604,65.164,62.448,68.331v26.893c-13.899,2.844-24.76,15.127-24.76,30.255c0,10.537,4.978,19.135,12.994,24.76
		l-30.255,65.487h95.806l-29.673-65.552c7.434-5.56,12.994-14.869,12.994-24.76c0-14.675-10.473-27.41-24.695-30.255v-26.828
		C109.64,245.075,137.244,215.531,137.244,179.911z M12.347,180.493c0-30.901,25.341-56.242,56.242-56.242
		s56.242,25.341,56.242,56.242s-25.341,56.242-56.242,56.242S12.347,211.394,12.347,180.493z M97.034,383.289H39.564l22.238-48.226
		c2.457,0.646,11.766,0.646,13.576,0L97.034,383.289z M87.143,305.39c0,10.537-8.016,18.554-18.554,18.554
		c-10.537-0.646-18.554-8.663-18.554-18.554s8.016-18.554,18.554-18.554C78.481,286.836,87.143,294.853,87.143,305.39z"/>
</g>
<g>
</g>
<g>
</g>
<g>
</g>
<g>
</g>
<g>
</g>
<g>
</g>
<g>
</g>
<g>
</g>
<g>
</g>
<g>
</g>
<g>
</g>
<g>
</g>
<g>
</g>
<g>
</g>
<g>
</g>
</svg>
