<?xml version="1.0" encoding="iso-8859-1"?>
<!-- Generator: Adobe Illustrator 19.0.0, SVG Export Plug-In . SVG Version: 6.00 Build 0)  -->
<svg version="1.1" id="Layer_1" xmlns="http://www.w3.org/2000/svg" xmlns:xlink="http://www.w3.org/1999/xlink" x="0px" y="0px"
	 viewBox="0 0 395.636 395.636" style="enable-background:new 0 0 395.636 395.636;" xml:space="preserve">
<polygon style="fill:#2EA2DB;" points="262.691,6.206 43.216,6.206 43.216,389.43 352.356,389.43 352.356,95.806 "/>
<polygon style="fill:#FFFFFF;" points="67.976,364.735 67.976,30.901 252.8,30.901 327.596,105.697 327.596,364.735 "/>
<polygon style="fill:#FDBF5E;" points="252.8,105.697 327.596,105.697 252.8,30.901 "/>
<rect id="SVGCleanerId_0" x="98.618" y="61.802" style="fill:#193651;" width="12.929" height="12.347"/>
<rect id="SVGCleanerId_1" x="126.416" y="61.802" style="fill:#193651;" width="12.929" height="12.347"/>
<rect id="SVGCleanerId_2" x="154.861" y="61.802" style="fill:#193651;" width="12.929" height="12.347"/>
<rect id="SVGCleanerId_3" x="96.743" y="137.244" style="fill:#F16051;" width="12.929" height="86.562"/>
<rect id="SVGCleanerId_4" x="121.438" y="137.244" style="fill:#F16051;" width="12.929" height="86.562"/>
<rect id="SVGCleanerId_5" x="146.198" y="137.244" style="fill:#F16051;" width="12.929" height="86.562"/>
<rect id="SVGCleanerId_6" x="170.893" y="137.244" style="fill:#F16051;" width="12.929" height="86.562"/>
<rect id="SVGCleanerId_7" x="212.008" y="136.986" style="fill:#4FBF9F;" width="86.562" height="12.929"/>
<rect id="SVGCleanerId_8" x="212.008" y="161.681" style="fill:#4FBF9F;" width="86.562" height="12.929"/>
<rect id="SVGCleanerId_9" x="212.008" y="186.44" style="fill:#4FBF9F;" width="86.562" height="12.929"/>
<rect id="SVGCleanerId_10" x="212.008" y="211.135" style="fill:#4FBF9F;" width="86.562" height="12.929"/>
<rect id="SVGCleanerId_11" x="285.899" y="250.958" style="fill:#F16051;" width="12.929" height="86.562"/>
<rect id="SVGCleanerId_12" x="261.204" y="250.958" style="fill:#F16051;" width="12.929" height="86.562"/>
<rect id="SVGCleanerId_13" x="236.444" y="250.958" style="fill:#F16051;" width="12.929" height="86.562"/>
<rect id="SVGCleanerId_14" x="211.749" y="250.958" style="fill:#F16051;" width="12.929" height="86.562"/>
<rect id="SVGCleanerId_15" x="97.002" y="324.848" style="fill:#4FBF9F;" width="86.562" height="12.929"/>
<rect id="SVGCleanerId_16" x="97.002" y="300.154" style="fill:#4FBF9F;" width="86.562" height="12.929"/>
<rect id="SVGCleanerId_17" x="97.002" y="275.394" style="fill:#4FBF9F;" width="86.562" height="12.929"/>
<rect id="SVGCleanerId_18" x="97.002" y="250.699" style="fill:#4FBF9F;" width="86.562" height="12.929"/>
<path style="fill:#193651;" d="M265.147,0H37.075v395.636h321.487V93.349L265.147,0z M346.149,383.289H49.422V12.347h210.812
	l85.915,85.915V383.289z"/>
<polygon style="fill:#FFFFFF;" points="67.976,364.735 67.976,30.901 252.8,30.901 327.596,105.697 327.596,364.735 "/>
<polygon style="fill:#FDBF5E;" points="252.8,105.697 327.596,105.697 252.8,30.901 "/>
<g>
	<rect id="SVGCleanerId_0_1_" x="98.618" y="61.802" style="fill:#193651;" width="12.929" height="12.347"/>
</g>
<g>
	<rect id="SVGCleanerId_1_1_" x="126.416" y="61.802" style="fill:#193651;" width="12.929" height="12.347"/>
</g>
<g>
	<rect id="SVGCleanerId_2_1_" x="154.861" y="61.802" style="fill:#193651;" width="12.929" height="12.347"/>
</g>
<g>
	<rect id="SVGCleanerId_3_1_" x="96.743" y="137.244" style="fill:#F16051;" width="12.929" height="86.562"/>
</g>
<g>
	<rect id="SVGCleanerId_4_1_" x="121.438" y="137.244" style="fill:#F16051;" width="12.929" height="86.562"/>
</g>
<g>
	<rect id="SVGCleanerId_5_1_" x="146.198" y="137.244" style="fill:#F16051;" width="12.929" height="86.562"/>
</g>
<g>
	<rect id="SVGCleanerId_6_1_" x="170.893" y="137.244" style="fill:#F16051;" width="12.929" height="86.562"/>
</g>
<g>
	<rect id="SVGCleanerId_7_1_" x="212.008" y="136.986" style="fill:#4FBF9F;" width="86.562" height="12.929"/>
</g>
<g>
	<rect id="SVGCleanerId_8_1_" x="212.008" y="161.681" style="fill:#4FBF9F;" width="86.562" height="12.929"/>
</g>
<g>
	<rect id="SVGCleanerId_9_1_" x="212.008" y="186.44" style="fill:#4FBF9F;" width="86.562" height="12.929"/>
</g>
<g>
	<rect id="SVGCleanerId_10_1_" x="212.008" y="211.135" style="fill:#4FBF9F;" width="86.562" height="12.929"/>
</g>
<g>
	<rect id="SVGCleanerId_11_1_" x="285.899" y="250.958" style="fill:#F16051;" width="12.929" height="86.562"/>
</g>
<g>
	<rect id="SVGCleanerId_12_1_" x="261.204" y="250.958" style="fill:#F16051;" width="12.929" height="86.562"/>
</g>
<g>
	<rect id="SVGCleanerId_13_1_" x="236.444" y="250.958" style="fill:#F16051;" width="12.929" height="86.562"/>
</g>
<g>
	<rect id="SVGCleanerId_14_1_" x="211.749" y="250.958" style="fill:#F16051;" width="12.929" height="86.562"/>
</g>
<g>
	<rect id="SVGCleanerId_15_1_" x="97.002" y="324.848" style="fill:#4FBF9F;" width="86.562" height="12.929"/>
</g>
<g>
	<rect id="SVGCleanerId_16_1_" x="97.002" y="300.154" style="fill:#4FBF9F;" width="86.562" height="12.929"/>
</g>
<g>
	<rect id="SVGCleanerId_17_1_" x="97.002" y="275.394" style="fill:#4FBF9F;" width="86.562" height="12.929"/>
</g>
<g>
	<rect id="SVGCleanerId_18_1_" x="97.002" y="250.699" style="fill:#4FBF9F;" width="86.562" height="12.929"/>
</g>
<g>
</g>
<g>
</g>
<g>
</g>
<g>
</g>
<g>
</g>
<g>
</g>
<g>
</g>
<g>
</g>
<g>
</g>
<g>
</g>
<g>
</g>
<g>
</g>
<g>
</g>
<g>
</g>
<g>
</g>
</svg>
