<?xml version="1.0" encoding="iso-8859-1"?>
<!-- Generator: Adobe Illustrator 19.0.0, SVG Export Plug-In . SVG Version: 6.00 Build 0)  -->
<svg version="1.1" id="Layer_1" xmlns="http://www.w3.org/2000/svg" xmlns:xlink="http://www.w3.org/1999/xlink" x="0px" y="0px"
	 viewBox="0 0 395.636 395.636" style="enable-background:new 0 0 395.636 395.636;" xml:space="preserve">
<rect x="6.206" y="167.499" style="fill:#2EA2DB;" width="383.289" height="46.352"/>
<circle style="fill:#E1E6E9;" cx="256.517" cy="84.04" r="40.792"/>
<circle style="fill:#D3D7DA;" cx="312.178" cy="84.04" r="40.792"/>
<g>
	<rect x="42.667" y="48.808" style="fill:#193651;" width="72.339" height="12.347"/>
	<rect x="42.667" y="89.018" style="fill:#193651;" width="72.339" height="12.347"/>
	<rect x="42.667" y="129.228" style="fill:#193651;" width="12.347" height="12.347"/>
	<rect x="102.594" y="129.228" style="fill:#193651;" width="12.347" height="12.347"/>
	<rect x="72.921" y="129.228" style="fill:#193651;" width="12.347" height="12.347"/>
</g>
<rect x="109.446" y="261.495" style="fill:#F16051;" width="177.39" height="127.935"/>
<path style="fill:#193651;" d="M0,0v267.701h103.24v127.935h189.802V267.701h102.594V0H0z M280.048,383.289H115.588V267.701H280.63
	v115.588H280.048z M139.119,255.289v-24.76c0-32.776,26.57-58.699,58.699-58.699c32.776,0,58.699,26.57,58.699,58.699v24.76
	L139.119,255.289L139.119,255.289z M383.289,255.289h-114.36v-24.76c0-39.564-32.129-71.111-71.111-71.111
	c-39.564,0-71.111,32.129-71.111,71.111v24.76H12.347V12.347h370.941L383.289,255.289L383.289,255.289z"/>
<g>
	<circle style="fill:#FFFFFF;" cx="197.818" cy="313.406" r="14.869"/>
	<rect x="191.612" y="325.754" style="fill:#FFFFFF;" width="12.347" height="26.57"/>
</g>
<g>
</g>
<g>
</g>
<g>
</g>
<g>
</g>
<g>
</g>
<g>
</g>
<g>
</g>
<g>
</g>
<g>
</g>
<g>
</g>
<g>
</g>
<g>
</g>
<g>
</g>
<g>
</g>
<g>
</g>
</svg>
