<?xml version="1.0" encoding="iso-8859-1"?>
<!-- Generator: Adobe Illustrator 19.0.0, SVG Export Plug-In . SVG Version: 6.00 Build 0)  -->
<svg version="1.1" id="Layer_1" xmlns="http://www.w3.org/2000/svg" xmlns:xlink="http://www.w3.org/1999/xlink" x="0px" y="0px"
	 viewBox="0 0 395.636 395.636" style="enable-background:new 0 0 395.636 395.636;" xml:space="preserve">
<path style="fill:#FFFFFF;" d="M219.475,156.38l-20.428,20.428l17.907,22.885c-4.331,7.434-7.434,14.869-9.891,23.467l-29.026,3.685
	v28.444l29.026,3.685c1.875,8.016,4.913,16.097,9.891,23.467l-17.907,22.885l20.428,20.364l22.885-17.907
	c7.434,4.331,14.869,7.434,23.467,9.891l3.685,29.091h13.576v42.667H6.206V6.206h197.172l79.774,79.709v48.808h-13.576
	l-3.685,29.673c-8.016,1.875-16.097,4.978-23.467,9.891L219.475,156.38z"/>
<path style="fill:#FDBF5E;" d="M200.275,89.665h80.356c1.228,0,1.875-1.228,0.646-2.457L202.15,8.016
	c-0.646-0.646-2.457,0-2.457,0.646v81.002C199.693,89.665,200.275,89.665,200.275,89.665z"/>
<path style="fill:#193651;" d="M395.636,260.848v-39.564l-30.319-3.685c-1.875-6.206-4.331-11.766-7.434-17.325l18.554-24.113
	l-27.216-27.798l-24.048,18.554c-5.56-3.103-11.119-5.56-17.325-7.434l-3.685-30.319h-14.222V82.812L206.481,0H0v395.636h289.293
	v-43.249h14.222l3.685-30.319c6.206-1.875,11.766-4.331,17.325-7.434l24.113,18.554l27.798-27.798l-18.554-24.113
	c3.103-5.56,5.56-11.119,7.434-17.325L395.636,260.848z M276.945,383.289H12.347V12.347h188.574l76.024,76.024v40.792h-12.994
	l-3.685,30.319c-6.206,1.875-11.766,4.331-17.325,7.434l-24.113-18.554l-27.216,27.798l18.554,24.113
	c-3.103,5.56-5.56,11.119-7.434,17.325l-30.319,3.685v39.564l30.319,3.685c1.875,6.206,4.331,11.766,7.434,17.325l-18.554,24.113
	l27.798,27.798l24.113-18.554c5.56,3.103,11.119,5.56,17.325,7.434l3.685,30.319h12.994v30.319H276.945z M360.404,304.743
	l-12.347,12.347l-22.238-17.325c-9.244,6.206-19.135,10.537-29.026,12.347l-3.685,27.798H275.2l-3.685-27.798
	c-10.537-1.875-19.782-6.206-29.026-12.347l-22.238,17.325l-12.347-12.347l17.325-22.238c-6.206-8.663-9.891-18.554-12.347-29.026
	l-27.798-3.685v-17.907l27.798-3.685c1.875-9.891,6.206-19.782,12.347-29.026l-17.325-22.238l12.347-12.347l22.238,17.325
	c8.663-6.206,18.554-9.891,29.026-12.347l3.685-27.798h17.907l3.685,27.798c11.119,2.457,20.428,6.206,29.026,12.347l22.238-17.325
	l12.347,12.347l-17.325,22.238c6.206,9.244,10.537,19.135,12.347,29.026l27.798,3.685v17.907l-27.798,3.685
	c-1.875,10.537-6.206,19.782-12.347,29.026L360.404,304.743z"/>
<circle style="fill:#FFFFFF;" cx="284.38" cy="241.067" r="40.21"/>
<g>
	<path style="fill:#193651;" d="M284.38,287.483c-12.347,0-24.113-4.913-32.776-13.576c-8.663-8.663-13.576-20.428-13.576-32.776
		c0-12.347,4.913-24.113,13.576-32.776c8.663-8.663,20.428-13.576,32.776-13.576s24.113,4.913,32.776,13.576
		c17.907,17.907,17.907,47.58,0,66.133C308.493,282.505,296.727,287.483,284.38,287.483z M284.38,206.481
		c-9.244,0-17.907,3.685-24.113,9.891c-13.576,13.576-13.576,35.232,0,48.226c6.206,6.206,14.869,9.891,24.113,9.891
		s17.907-3.685,24.113-9.891c13.576-13.576,13.576-35.232,0-48.226C301.64,210.166,293.042,206.481,284.38,206.481z"/>
	<rect x="38.917" y="63.03" style="fill:#193651;" width="105.697" height="12.347"/>
	<rect x="38.917" y="98.263" style="fill:#193651;" width="105.697" height="12.347"/>
	<rect x="38.917" y="133.495" style="fill:#193651;" width="105.697" height="12.347"/>
	<rect x="38.917" y="338.747" style="fill:#193651;" width="12.347" height="12.347"/>
	<rect x="69.883" y="338.747" style="fill:#193651;" width="12.347" height="12.347"/>
	<rect x="101.366" y="338.747" style="fill:#193651;" width="12.347" height="12.347"/>
	<rect x="132.267" y="338.747" style="fill:#193651;" width="12.347" height="12.347"/>
</g>
<g>
</g>
<g>
</g>
<g>
</g>
<g>
</g>
<g>
</g>
<g>
</g>
<g>
</g>
<g>
</g>
<g>
</g>
<g>
</g>
<g>
</g>
<g>
</g>
<g>
</g>
<g>
</g>
<g>
</g>
</svg>
