<?xml version="1.0" encoding="iso-8859-1"?>
<!-- Generator: Adobe Illustrator 19.0.0, SVG Export Plug-In . SVG Version: 6.00 Build 0)  -->
<svg version="1.1" id="Layer_1" xmlns="http://www.w3.org/2000/svg" xmlns:xlink="http://www.w3.org/1999/xlink" x="0px" y="0px"
	 viewBox="0 0 395.636 395.636" style="enable-background:new 0 0 395.636 395.636;" xml:space="preserve">
<path style="fill:#FFFFFF;" d="M305.002,145.261h-83.071v144.743c-19.911,9.826-42.408,15.386-66.133,15.386
	c-82.618,0-149.592-66.974-149.592-149.592S73.18,6.206,155.798,6.206C234.861,6.206,299.636,67.556,305.002,145.261z"/>
<path style="fill:#FDBF5E;" d="M274.036,145.261h-52.105v109.059c-18.877,12.735-41.632,20.17-66.133,20.17
	c-65.552,0-118.691-53.139-118.691-118.691S90.246,37.107,155.798,37.107C217.794,37.107,268.671,84.687,274.036,145.261z"/>
<path style="fill:#193651;" d="M155.798,150.82c-12.994,0-23.467-10.537-23.467-23.467c0-12.929,10.537-23.467,23.467-23.467
	c12.994,0,23.467,10.537,23.467,23.467h12.347c0-17.648-12.8-32.388-29.673-35.297v-8.598h-12.347v8.598
	c-16.873,2.909-29.673,17.648-29.673,35.297c0,19.782,16.097,35.879,35.879,35.879c12.994,0,23.467,10.537,23.467,23.467
	c0,12.994-10.537,23.467-23.467,23.467c-12.994,0-23.467-10.537-23.467-23.467h-12.347c0,17.648,12.8,32.388,29.673,35.297v6.077
	h12.347v-6.077c16.873-2.909,29.673-17.648,29.673-35.297C191.612,166.917,175.58,150.82,155.798,150.82z"/>
<rect x="221.931" y="145.261" style="fill:#FFFFFF;" width="167.499" height="244.17"/>
<path style="fill:#193651;" d="M310.949,139.119C302.287,61.22,236.154,0,155.798,0C69.883,0,0,69.883,0,155.798
	s69.883,155.798,155.798,155.798c21.01,0,41.438-4.331,59.992-11.766v95.806h179.846V139.119H310.949z M155.798,299.184
	c-79.127,0-143.451-64.323-143.451-143.451S76.671,12.347,155.798,12.347c73.568,0,134.141,55.661,142.158,126.707h-82.23V286.19
	C197.818,294.853,177.39,299.184,155.798,299.184z M383.289,383.289H228.137V151.467h155.152V383.289z"/>
<g>
	<rect x="246.626" y="315.863" style="fill:#F16051;" width="46.352" height="46.352"/>
	<rect x="318.384" y="315.863" style="fill:#F16051;" width="46.352" height="46.352"/>
	<rect x="246.626" y="249.147" style="fill:#F16051;" width="46.352" height="46.352"/>
	<rect x="318.384" y="251.604" style="fill:#F16051;" width="46.352" height="46.352"/>
</g>
<rect x="243.588" y="168.792" style="fill:#2EA2DB;" width="124.897" height="63.03"/>
<g>
	<rect x="267.055" y="193.487" style="fill:#193651;" width="12.347" height="12.929"/>
	<rect x="299.83" y="193.487" style="fill:#193651;" width="12.347" height="12.929"/>
	<rect x="331.96" y="193.487" style="fill:#193651;" width="12.347" height="12.929"/>
</g>
<g>
</g>
<g>
</g>
<g>
</g>
<g>
</g>
<g>
</g>
<g>
</g>
<g>
</g>
<g>
</g>
<g>
</g>
<g>
</g>
<g>
</g>
<g>
</g>
<g>
</g>
<g>
</g>
<g>
</g>
</svg>
