<?xml version="1.0" encoding="iso-8859-1"?>
<!-- Generator: Adobe Illustrator 19.0.0, SVG Export Plug-In . SVG Version: 6.00 Build 0)  -->
<svg version="1.1" id="Layer_1" xmlns="http://www.w3.org/2000/svg" xmlns:xlink="http://www.w3.org/1999/xlink" x="0px" y="0px"
	 viewBox="0 0 395.636 395.636" style="enable-background:new 0 0 395.636 395.636;" xml:space="preserve">
<circle style="fill:#FFFFFF;" cx="299.83" cy="95.806" r="89.665"/>
<path style="fill:#193651;" d="M299.83,191.612c-53.139,0-95.806-43.248-95.806-95.806S246.626,0,299.83,0
	c52.558,0,95.806,43.248,95.806,95.806S352.388,191.612,299.83,191.612z M299.83,12.347c-46.352,0-83.459,37.689-83.459,83.459
	c0,46.352,37.107,83.459,83.459,83.459c45.77,0,83.459-37.107,83.459-83.459C383.289,50.101,345.535,12.347,299.83,12.347z"/>
<path style="fill:#F16051;" d="M299.83,160.711c-35.879,0-64.905-29.026-64.905-64.905s29.026-64.905,64.905-64.905
	s64.905,29.026,64.905,64.905S335.644,160.711,299.83,160.711z"/>
<circle style="fill:#FFFFFF;" cx="90.893" cy="90.893" r="84.687"/>
<path style="fill:#193651;" d="M90.893,181.721C40.792,181.721,0,140.929,0,90.893S40.792,0,90.893,0s90.893,40.792,90.893,90.893
	S140.929,181.721,90.893,181.721z M90.893,12.347c-43.248,0-78.481,35.232-78.481,78.481s35.168,78.545,78.481,78.545
	s78.481-35.232,78.481-78.481S134.141,12.347,90.893,12.347z"/>
<path style="fill:#2EA2DB;" d="M90.893,150.82c-33.358,0-59.992-27.216-59.992-59.992s26.57-59.992,59.992-59.992
	s59.992,26.57,59.992,59.992S123.669,150.82,90.893,150.82z"/>
<ellipse style="fill:#FFFFFF;" cx="200.275" cy="287.483" rx="101.366" ry="102.012"/>
<path style="fill:#193651;" d="M200.275,395.636c-59.345,0-107.572-48.226-107.572-108.154c0-59.345,48.226-108.154,107.572-108.154
	s107.572,48.226,107.572,108.154C308.493,347.41,260.267,395.636,200.275,395.636z M200.275,191.612
	c-52.558,0-95.224,43.248-95.224,95.806c0,53.139,42.667,95.806,95.224,95.806s95.224-42.667,95.224-95.806
	C296.081,234.925,253.479,191.612,200.275,191.612z"/>
<path style="fill:#FDBF5E;" d="M200.275,364.735c-42.02,0-76.671-34.586-76.671-77.253s34.651-77.253,76.671-77.253
	c42.667,0,76.671,34.586,76.671,77.253C277.592,330.085,242.941,364.735,200.275,364.735z"/>
<g>
	<path style="fill:#193651;" d="M200.275,281.859c-6.788,0-12.347-5.56-12.347-12.347s5.56-12.347,12.347-12.347
		c6.788,0,12.347,5.56,12.347,12.347h12.347c0-11.442-7.887-21.204-18.554-23.919v-8.21h-12.347v8.21
		c-10.602,2.78-18.554,12.477-18.554,23.919c0,13.576,11.119,24.76,24.76,24.76c6.788,0,12.347,5.56,12.347,12.347
		c0,6.788-5.56,12.347-12.347,12.347s-12.347-5.56-12.347-12.347H175.58c0,11.442,7.887,21.204,18.554,23.919v6.982h12.347v-6.982
		c10.602-2.78,18.554-12.477,18.554-23.919C225.034,293.042,213.915,281.859,200.275,281.859z"/>
	<path style="fill:#193651;" d="M315.281,116.234c-7.434,9.891-20.428,9.891-27.798,0c-0.905-1.164-1.681-2.392-2.457-3.685h19.717
		v-12.347h-23.531c-0.323-2.844-0.259-5.818,0.065-8.663h23.467V79.192h-19.394c0.646-1.099,1.293-2.133,2.069-3.103
		c7.434-9.891,20.428-9.891,27.798,0l9.244-8.016c-6.206-8.016-14.222-12.347-23.467-12.347c-8.663,0-17.325,4.331-23.467,12.347
		c-2.651,3.362-4.784,7.111-6.271,11.119h-7.305v12.347h4.525c-0.259,2.844-0.259,5.754,0,8.663h-4.525v12.283h7.305
		c1.487,4.008,3.62,7.758,6.271,11.119c6.206,8.016,14.222,12.347,23.467,12.347c9.244,0,17.325-4.331,24.113-12.347
		L315.281,116.234z"/>
	<path style="fill:#193651;" d="M104.469,103.822v10.537H87.143c0-4.008,0-8.663,0-17.325h13.576V84.687H87.143
		c0-3.685,0-10.537,0-10.537c0-4.331,3.685-8.016,8.016-8.016c2.457,0,4.913,1.875,6.206,3.685l10.537-6.788
		c-3.685-5.56-9.891-8.663-16.679-8.663c-11.119,0-20.428,9.244-20.428,20.428v9.891h-4.331v12.347h4.331v17.325h-4.331v12.347
		h46.352v-22.885H104.469z"/>
	<rect x="245.398" y="281.277" style="fill:#193651;" width="12.347" height="12.347"/>
	<rect x="142.804" y="281.277" style="fill:#193651;" width="12.347" height="12.347"/>
</g>
<g>
</g>
<g>
</g>
<g>
</g>
<g>
</g>
<g>
</g>
<g>
</g>
<g>
</g>
<g>
</g>
<g>
</g>
<g>
</g>
<g>
</g>
<g>
</g>
<g>
</g>
<g>
</g>
<g>
</g>
</svg>
