<?xml version="1.0" encoding="iso-8859-1"?>
<!-- Generator: Adobe Illustrator 19.0.0, SVG Export Plug-In . SVG Version: 6.00 Build 0)  -->
<svg version="1.1" id="Layer_1" xmlns="http://www.w3.org/2000/svg" xmlns:xlink="http://www.w3.org/1999/xlink" x="0px" y="0px"
	 viewBox="0 0 398.158 398.158" style="enable-background:new 0 0 398.158 398.158;" xml:space="preserve">
<g>
	<rect x="177.455" y="347.442" style="fill:#193651;" width="12.347" height="12.347"/>
	<rect x="208.356" y="347.442" style="fill:#193651;" width="12.347" height="12.347"/>
	<rect x="239.903" y="347.442" style="fill:#193651;" width="12.347" height="12.347"/>
</g>
<path style="fill:#FFFFFF;" d="M216.372,148.978l29.673-6.788v-30.319l-29.673-6.788c-2.457-9.244-6.206-18.554-11.119-26.57
	l16.097-25.341L199.693,31.58l-25.341,16.097c-8.016-4.978-17.325-8.663-26.57-11.119l-6.206-29.026h-30.319l-6.788,29.673
	c-9.244,2.457-18.554,6.206-26.57,11.119L52.558,31.644L30.901,53.301l16.097,25.341c-4.913,8.016-8.663,17.325-11.119,26.57
	l-29.673,6.723v30.255l29.673,6.788c2.457,9.244,6.206,18.554,11.119,26.57l-16.097,25.341l21.657,21.657l25.341-16.097
	c8.016,4.913,17.325,8.663,26.57,11.119l6.788,29.673h30.319l6.788-29.673c9.244-2.457,18.554-6.206,26.57-11.119l25.341,16.097
	l21.657-21.657l-16.097-25.341C210.23,167.531,213.915,158.287,216.372,148.978z"/>
<path style="fill:#193651;" d="M361.05,137.859V68.04h1.875c18.554,0,33.358-14.869,33.358-33.358s-15.45-33.422-33.358-33.422
	h-196.59v12.347h195.943c11.766,0,21.01,9.244,21.01,21.01s-9.244,21.01-21.01,21.01h-90.246c-13.576,0-24.76,11.119-24.76,24.76
	v14.804h12.347V80.388c0-6.788,5.56-12.347,12.347-12.347h76.671v71.693l32.129,84.04h-38.335v64.323
	c0,11.119-9.244,20.428-20.428,20.428h-35.232v76.024H140.994V252.865h5.56l6.788-30.901c7.434-1.875,14.804-4.913,21.01-8.663
	l26.57,16.679l28.444-28.444l-16.679-26.57c3.685-6.788,6.788-13.576,8.663-21.01l30.901-6.788v-40.21l-30.901-6.788
	c-1.875-7.434-4.913-14.222-8.663-21.01l16.679-26.57l-28.444-28.444l-26.57,16.679c-6.788-3.685-13.576-6.788-21.01-8.663
	l-6.788-30.901h-40.21l-6.788,30.901c-7.434,1.875-14.804,4.978-21.01,8.663L51.329,24.145L22.885,52.59l16.679,26.57
	c-3.685,6.788-6.788,13.576-8.663,21.01L0,106.958v40.21l30.901,6.788c1.875,7.434,4.978,14.869,8.663,21.01l-16.679,26.57
	l28.444,28.444l26.57-16.679c6.788,3.685,13.576,6.788,21.01,8.663l6.788,30.901h22.238v144.032h170.667v-76.024h22.885
	c17.907,0,32.776-14.869,32.776-32.776v-51.911h43.895L361.05,137.859z M116.234,240.517l-6.206-28.444
	c-9.891-1.875-21.01-6.206-32.129-12.994l-24.76,15.451l-14.222-14.222l15.451-24.76c-6.206-9.244-10.537-20.428-12.994-32.129
	l-28.444-6.206v-20.428l28.444-6.206c2.457-11.766,6.788-22.238,12.994-32.129l-15.451-24.76l14.222-14.222l24.76,15.451
	c9.891-6.206,20.428-11.119,32.129-12.994l6.206-28.444h20.428l6.206,28.444c11.119,2.457,21.657,6.788,32.129,12.994l24.76-15.451
	l14.222,14.222l-15.451,24.76c6.206,9.891,11.119,20.428,12.994,32.129l28.444,6.206v20.428l-28.444,6.206
	c-2.457,11.766-6.788,22.885-12.994,32.129l15.451,24.76l-14.222,14.222l-24.76-15.451c-10.537,6.206-21.01,11.119-32.129,12.994
	l-6.206,28.444H116.234L116.234,240.517z"/>
<circle style="fill:#F16051;" cx="126.125" cy="126.739" r="66.133"/>
<circle style="fill:#FFFFFF;" cx="126.125" cy="126.739" r="29.673"/>
<g>
	<path style="fill:#193651;" d="M126.125,163.2c-19.782,0-35.879-16.097-35.879-35.879s16.097-35.879,35.879-35.879
		s35.879,16.097,35.879,35.879S145.907,163.2,126.125,163.2z M126.125,103.273c-12.994,0-23.467,10.537-23.467,23.467
		s10.537,23.467,23.467,23.467s23.467-10.537,23.467-23.467S139.119,103.273,126.125,103.273z"/>
	<rect x="307.265" y="124.929" style="fill:#193651;" width="19.135" height="12.347"/>
</g>
<g>
</g>
<g>
</g>
<g>
</g>
<g>
</g>
<g>
</g>
<g>
</g>
<g>
</g>
<g>
</g>
<g>
</g>
<g>
</g>
<g>
</g>
<g>
</g>
<g>
</g>
<g>
</g>
<g>
</g>
</svg>
