<?xml version="1.0" encoding="iso-8859-1"?>
<!-- Generator: Adobe Illustrator 19.0.0, SVG Export Plug-In . SVG Version: 6.00 Build 0)  -->
<svg version="1.1" id="Layer_1" xmlns="http://www.w3.org/2000/svg" xmlns:xlink="http://www.w3.org/1999/xlink" x="0px" y="0px"
	 viewBox="0 0 395.636 395.636" style="enable-background:new 0 0 395.636 395.636;" xml:space="preserve">
<rect y="26.57" style="fill:#D3D7DA;" width="395.636" height="79.774"/>
<rect x="6.206" y="106.343" style="fill:#FDBF5E;" width="383.289" height="282.505"/>
<path style="fill:#193651;" d="M395.636,394.99H0V100.137h395.636V394.99z M12.347,382.642h370.941V112.485H12.347V382.642z"/>
<g>
	<rect x="30.901" y="131.038" style="fill:#FFFFFF;" width="333.834" height="233.051"/>
	<circle style="fill:#FFFFFF;" cx="346.182" cy="66.133" r="14.869"/>
	<circle style="fill:#FFFFFF;" cx="272.032" cy="66.133" r="14.869"/>
</g>
<path style="fill:#193651;" d="M272.032,87.143c-11.766,0-21.01-9.244-21.01-21.01s9.244-21.01,21.01-21.01s21.01,9.244,21.01,21.01
	S283.733,87.143,272.032,87.143z M272.032,57.471c-4.913,0-8.663,3.685-8.663,8.663s3.685,8.663,8.663,8.663
	c4.913,0,8.663-3.685,8.663-8.663S276.945,57.471,272.032,57.471z"/>
<circle style="fill:#FFFFFF;" cx="197.818" cy="66.133" r="14.869"/>
<path style="fill:#193651;" d="M197.818,87.143c-11.766,0-21.01-9.244-21.01-21.01s9.244-21.01,21.01-21.01
	c11.766,0,21.01,9.244,21.01,21.01S209.584,87.143,197.818,87.143z M197.818,57.471c-4.913,0-8.663,3.685-8.663,8.663
	s3.685,8.663,8.663,8.663s8.663-3.685,8.663-8.663S202.731,57.471,197.818,57.471z"/>
<g>
	<circle style="fill:#FFFFFF;" cx="123.669" cy="66.133" r="14.869"/>
	<circle style="fill:#FFFFFF;" cx="272.032" cy="66.133" r="14.869"/>
	<circle style="fill:#FFFFFF;" cx="197.818" cy="66.133" r="14.869"/>
	<circle style="fill:#FFFFFF;" cx="49.455" cy="66.133" r="14.869"/>
</g>
<g>
	<path style="fill:#193651;" d="M352.388,46.352V0.646H340.04v45.77c-8.663,2.457-14.869,10.537-14.869,19.782
		c0,11.766,9.244,21.01,21.01,21.01s21.01-9.244,21.01-21.01C367.192,56.889,361.051,48.808,352.388,46.352z M346.182,74.796
		c-4.913,0-8.663-3.685-8.663-8.663s3.685-8.663,8.663-8.663c4.913,0,8.663,3.685,8.663,8.663S350.513,74.796,346.182,74.796z"/>
	<path style="fill:#193651;" d="M129.81,46.352V0.646h-12.347v45.77c-8.663,2.457-14.869,10.537-14.869,19.782
		c0,11.766,9.244,21.01,21.01,21.01s21.01-9.244,21.01-21.01C144.679,56.889,138.473,48.808,129.81,46.352z M123.669,74.796
		c-4.913,0-8.663-3.685-8.663-8.663s3.685-8.663,8.663-8.663c4.978,0,8.663,3.685,8.663,8.663
		C132.267,71.111,128.582,74.796,123.669,74.796z"/>
	<path style="fill:#193651;" d="M278.174,46.352V0.646h-12.347v45.77c-8.663,2.457-14.869,10.537-14.869,19.782
		c0,11.766,9.244,21.01,21.01,21.01c11.766,0,21.01-9.244,21.01-21.01C293.042,56.889,286.836,48.808,278.174,46.352z
		 M272.032,74.796c-4.913,0-8.663-3.685-8.663-8.663s3.685-8.663,8.663-8.663c4.913,0,8.663,3.685,8.663,8.663
		C280.63,71.111,276.945,74.796,272.032,74.796z"/>
	<path style="fill:#193651;" d="M204.024,46.352V0.646h-12.347v45.77c-8.663,2.457-14.869,10.537-14.869,19.782
		c0,11.766,9.244,21.01,21.01,21.01c11.766,0,21.01-9.244,21.01-21.01C218.828,56.889,212.687,48.808,204.024,46.352z
		 M197.818,74.796c-4.913,0-8.663-3.685-8.663-8.663s3.685-8.663,8.663-8.663s8.663,3.685,8.663,8.663
		S202.731,74.796,197.818,74.796z"/>
	<path style="fill:#193651;" d="M55.661,46.352V0.646H43.248v45.77C34.586,48.873,28.38,56.954,28.38,66.198
		c0,11.766,9.244,21.01,21.01,21.01s21.01-9.244,21.01-21.01C70.465,56.889,64.323,48.808,55.661,46.352z M49.455,74.796
		c-4.978,0-8.663-3.685-8.663-8.663s3.685-8.663,8.663-8.663s8.663,3.685,8.663,8.663S54.432,74.796,49.455,74.796z"/>
</g>
<g>
	<rect x="120.566" y="173.705" style="fill:#2EA2DB;" width="29.026" height="29.026"/>
	<rect x="182.368" y="174.933" style="fill:#2EA2DB;" width="29.026" height="29.026"/>
</g>
<rect x="246.044" y="174.933" style="fill:#4FBF9F;" width="29.026" height="29.026"/>
<g>
	<rect x="309.721" y="174.933" style="fill:#2EA2DB;" width="29.026" height="29.026"/>
	<rect x="56.889" y="234.925" style="fill:#2EA2DB;" width="29.026" height="29.026"/>
	<rect x="120.566" y="235.507" style="fill:#2EA2DB;" width="29.026" height="29.026"/>
</g>
<rect x="182.368" y="236.735" style="fill:#F16051;" width="29.026" height="29.026"/>
<g>
	<rect x="246.044" y="236.735" style="fill:#2EA2DB;" width="29.026" height="29.026"/>
	<rect x="309.721" y="236.735" style="fill:#2EA2DB;" width="29.026" height="29.026"/>
	<rect x="56.889" y="296.727" style="fill:#2EA2DB;" width="29.026" height="29.026"/>
	<rect x="120.566" y="297.374" style="fill:#2EA2DB;" width="29.026" height="29.026"/>
	<rect x="182.368" y="298.602" style="fill:#2EA2DB;" width="29.026" height="29.026"/>
	<rect x="246.044" y="298.602" style="fill:#2EA2DB;" width="29.026" height="29.026"/>
</g>
<g>
</g>
<g>
</g>
<g>
</g>
<g>
</g>
<g>
</g>
<g>
</g>
<g>
</g>
<g>
</g>
<g>
</g>
<g>
</g>
<g>
</g>
<g>
</g>
<g>
</g>
<g>
</g>
<g>
</g>
</svg>
