<?xml version="1.0" encoding="iso-8859-1"?>
<!-- Generator: Adobe Illustrator 19.0.0, SVG Export Plug-In . SVG Version: 6.00 Build 0)  -->
<svg version="1.1" id="Layer_1" xmlns="http://www.w3.org/2000/svg" xmlns:xlink="http://www.w3.org/1999/xlink" x="0px" y="0px"
	 viewBox="0 0 395.636 395.636" style="enable-background:new 0 0 395.636 395.636;" xml:space="preserve">
<ellipse style="fill:#FFFFFF;" cx="335.644" cy="172.477" rx="28.444" ry="28.444"/>
<path style="fill:#193651;" d="M335.644,207.709c-19.135,0-34.586-15.451-34.586-34.65c0-19.135,15.451-34.586,34.586-34.586
	s35.232,15.451,35.232,34.586C370.295,191.612,354.844,207.709,335.644,207.709z M335.644,150.238
	c-12.347,0-22.238,9.891-22.238,22.238s9.891,22.238,22.238,22.238s22.885-9.891,22.885-22.238
	C357.947,160.129,348.057,150.238,335.644,150.238z"/>
<path style="fill:#FFFFFF;" d="M389.43,294.853v-16.097c0-29.673-24.113-53.786-53.786-53.786l0,0
	c-29.673,0-53.786,24.113-53.786,53.786v16.097H389.43z"/>
<g>
	<path style="fill:#193651;" d="M395.636,301.059H275.071V278.82c0-32.776,27.216-59.992,59.992-59.992
		c33.358,0,59.992,26.57,59.992,59.992v22.238H395.636z M287.483,288.711h95.806v-9.891c0-25.988-21.657-47.58-47.58-47.58
		c-26.57,0-47.58,21.01-47.58,47.58v9.891H287.483z"/>
	<rect x="329.503" y="254.061" style="fill:#193651;" width="12.347" height="11.766"/>
</g>
<ellipse style="fill:#FFFFFF;" cx="197.818" cy="267.701" rx="28.444" ry="28.444"/>
<path style="fill:#193651;" d="M197.818,302.287c-19.135,0-35.232-15.451-35.232-34.586s15.451-34.586,35.232-34.586
	c19.135,0,34.586,15.451,34.586,34.586S216.954,302.287,197.818,302.287z M197.818,245.398c-12.347,0-22.885,9.891-22.885,22.238
	s9.891,22.238,22.885,22.238s22.238-9.891,22.238-22.238C220.057,255.289,210.166,245.398,197.818,245.398z"/>
<path style="fill:#FFFFFF;" d="M251.604,389.43v-16.097c0-29.673-24.113-53.786-53.786-53.786l0,0
	c-29.673,0-53.786,24.113-53.786,53.786v16.097H251.604z"/>
<path style="fill:#193651;" d="M257.81,395.636H137.826v-22.238c0-32.776,27.216-59.992,59.992-59.992
	c33.358,0,59.992,26.57,59.992,59.992V395.636z M150.238,383.289h95.806v-9.891c0-25.988-21.657-47.58-47.58-47.58
	s-47.58,21.01-47.58,47.58v9.891H150.238z"/>
<ellipse style="fill:#FFFFFF;" cx="197.818" cy="41.438" rx="35.232" ry="35.232"/>
<path style="fill:#193651;" d="M197.818,82.812c-22.885,0-42.02-18.554-42.02-41.438S174.933,0,197.818,0
	s41.438,18.554,41.438,41.438S220.703,82.812,197.818,82.812z M197.818,12.347c-16.097,0-29.673,12.994-29.673,29.026
	s12.994,29.091,29.673,29.091c16.097,0,29.026-12.994,29.026-29.026S213.915,12.347,197.818,12.347z"/>
<path style="fill:#F16051;" d="M264.598,191.03v-19.782c0-36.461-29.673-66.133-66.78-66.133l0,0
	c-37.107,0-66.78,29.673-66.78,66.133v19.782H264.598L264.598,191.03z"/>
<path style="fill:#193651;" d="M270.739,197.172H124.897v-25.988c0-40.21,32.776-72.339,72.921-72.339s72.921,32.776,72.921,72.339
	V197.172z M137.244,184.824h121.147v-13.576c0-33.358-27.216-59.992-60.574-59.992s-60.574,27.216-60.574,59.992V184.824
	L137.244,184.824z"/>
<ellipse style="fill:#FFFFFF;" cx="59.992" cy="172.477" rx="28.444" ry="28.444"/>
<path style="fill:#193651;" d="M59.992,207.709c-19.135,0-35.232-15.451-35.232-34.65c0-19.135,15.451-34.586,35.232-34.586
	c19.135,0,34.586,15.451,34.586,34.586C95.224,191.612,79.127,207.709,59.992,207.709z M59.992,150.238
	c-12.347,0-22.885,9.891-22.885,22.238s9.891,22.238,22.885,22.238s22.238-9.891,22.238-22.238
	C82.812,160.129,72.339,150.238,59.992,150.238z"/>
<path style="fill:#FFFFFF;" d="M114.36,294.853v-16.097c0-29.673-24.113-53.786-53.786-53.786l0,0
	c-29.673,0-53.786,24.113-53.786,53.786v16.097H114.36z"/>
<g>
	<path style="fill:#193651;" d="M120.566,301.059H0V278.82c0-32.776,27.216-59.992,59.992-59.992
		c33.358,0,59.992,26.57,59.992,59.992v22.238H120.566z M12.347,288.711h95.806v-9.891c0-25.988-21.657-47.58-47.58-47.58
		c-26.57,0-47.58,21.01-47.58,47.58v9.891H12.347z"/>
	<rect x="191.612" y="348.638" style="fill:#193651;" width="12.347" height="11.766"/>
	<rect x="53.786" y="254.061" style="fill:#193651;" width="12.347" height="11.766"/>
</g>
<g>
</g>
<g>
</g>
<g>
</g>
<g>
</g>
<g>
</g>
<g>
</g>
<g>
</g>
<g>
</g>
<g>
</g>
<g>
</g>
<g>
</g>
<g>
</g>
<g>
</g>
<g>
</g>
<g>
</g>
</svg>
