<?xml version="1.0" encoding="iso-8859-1"?>
<!-- Generator: Adobe Illustrator 19.0.0, SVG Export Plug-In . SVG Version: 6.00 Build 0)  -->
<svg version="1.1" id="Layer_1" xmlns="http://www.w3.org/2000/svg" xmlns:xlink="http://www.w3.org/1999/xlink" x="0px" y="0px"
	 viewBox="0 0 395.636 395.636" style="enable-background:new 0 0 395.636 395.636;" xml:space="preserve">
<rect x="6.206" y="6.206" style="fill:#FFFFFF;" width="383.289" height="383.289"/>
<path style="fill:#193651;" d="M0,0v395.636h395.636V0H0z M383.289,383.289H12.347V12.347h370.941L383.289,383.289L383.289,383.289z
	"/>
<rect x="42.02" y="42.02" style="fill:#E1E6E9;" width="311.596" height="311.596"/>
<rect x="42.02" y="42.02" style="fill:#4FBF9F;" width="156.38" height="156.38"/>
<g>
	<rect x="61.802" y="191.612" style="fill:#193651;" width="12.347" height="12.347"/>
	<rect x="321.487" y="116.816" style="fill:#193651;" width="12.347" height="12.347"/>
	<rect x="321.487" y="191.612" style="fill:#193651;" width="12.347" height="12.347"/>
	<rect x="321.487" y="266.408" style="fill:#193651;" width="12.347" height="12.347"/>
	<rect x="61.802" y="266.408" style="fill:#193651;" width="12.347" height="12.347"/>
	<rect x="266.408" y="321.487" style="fill:#193651;" width="12.347" height="12.347"/>
	<rect x="191.612" y="321.487" style="fill:#193651;" width="12.347" height="12.347"/>
	<rect x="116.816" y="321.487" style="fill:#193651;" width="12.347" height="12.347"/>
	<rect x="266.408" y="61.802" style="fill:#193651;" width="12.347" height="12.347"/>
	<rect x="191.612" y="61.802" style="fill:#193651;" width="12.347" height="12.347"/>
	<rect x="61.802" y="116.816" style="fill:#193651;" width="12.347" height="12.347"/>
	<rect x="116.816" y="61.802" style="fill:#193651;" width="12.347" height="12.347"/>
</g>
<circle style="fill:#FFFFFF;" cx="197.818" cy="197.818" r="19.135"/>
<path style="fill:#193651;" d="M204.024,173.705V93.349h-12.347v80.356c-8.663,2.457-16.097,9.244-17.907,17.907h-50.101v12.347
	h50.101c2.457,11.119,12.347,19.135,24.113,19.135c13.576,0,25.341-11.119,25.341-25.341
	C223.16,186.053,215.143,176.162,204.024,173.705z M197.818,210.812c-6.788,0-12.994-5.56-12.994-12.994
	c0-6.788,5.56-12.994,12.994-12.994c6.788,0,12.994,5.56,12.994,12.994C210.812,204.606,204.606,210.812,197.818,210.812z"/>
<g>
</g>
<g>
</g>
<g>
</g>
<g>
</g>
<g>
</g>
<g>
</g>
<g>
</g>
<g>
</g>
<g>
</g>
<g>
</g>
<g>
</g>
<g>
</g>
<g>
</g>
<g>
</g>
<g>
</g>
</svg>
