<?xml version="1.0" encoding="iso-8859-1"?>
<!-- Generator: Adobe Illustrator 19.0.0, SVG Export Plug-In . SVG Version: 6.00 Build 0)  -->
<svg version="1.1" id="Layer_1" xmlns="http://www.w3.org/2000/svg" xmlns:xlink="http://www.w3.org/1999/xlink" x="0px" y="0px"
	 viewBox="0 0 395.636 395.636" style="enable-background:new 0 0 395.636 395.636;" xml:space="preserve">
<path style="fill:#FFFFFF;" d="M273.599,333.834v-47.58H128.92c-9.891,0-17.325-8.016-17.325-17.325V118.044
	c0-9.891,8.016-17.325,17.325-17.325h144.679V17.907c-0.582-6.788-5.56-11.766-12.347-11.766H18.246
	c-6.206,0-11.766,4.978-11.766,11.766V333.77h267.119V333.834z"/>
<g>
	<path style="fill:#D3D7DA;" d="M261.187,6.206H18.246c-6.206,0-11.766,4.978-11.766,11.766v36.461h266.408V17.972
		C272.953,11.766,268.04,6.206,261.187,6.206z"/>
	<path style="fill:#D3D7DA;" d="M6.545,333.834v43.895c0,6.206,4.978,11.766,11.766,11.766h242.941
		c6.206,0,11.766-4.913,11.766-11.766v-43.895H6.545z"/>
</g>
<path style="fill:#FFFFFF;" d="M389.769,118.044v150.885c0,9.891-8.016,17.325-17.325,17.325H128.92
	c-9.891,0-17.325-8.016-17.325-17.325V118.044c0-9.891,8.016-17.325,17.325-17.325h243.588
	C381.753,100.784,389.769,108.8,389.769,118.044z"/>
<g>
	<rect x="111.013" y="355.426" style="fill:#193651;" width="58.117" height="12.347"/>
	<rect x="124.007" y="25.988" style="fill:#193651;" width="31.547" height="12.347"/>
	<rect x="266.747" y="233.697" style="fill:#193651;" width="12.347" height="12.347"/>
	<rect x="297.712" y="233.697" style="fill:#193651;" width="12.347" height="12.347"/>
	<rect x="328.613" y="233.697" style="fill:#193651;" width="12.347" height="12.347"/>
</g>
<rect x="111.595" y="136.598" style="fill:#FDBF5E;" width="278.174" height="42.667"/>
<path style="fill:#193651;" d="M372.508,94.578h-92.768V17.907C279.741,8.016,271.724,0,261.834,0H18.246
	C11.458,0,5.898,3.685,2.795,8.663c-1.228,2.457-2.457,5.56-2.457,9.244v359.758c0,9.956,8.016,17.972,17.907,17.972h242.941
	c9.891,0,17.907-8.016,17.907-17.907v-84.687h92.703c12.994,0,23.467-10.537,23.467-23.467V118.044
	C395.975,105.115,385.438,94.578,372.508,94.578z M266.747,377.729c0,3.103-2.457,5.56-5.56,5.56H18.246
	c-3.103,0-5.56-2.457-5.56-5.56V54.432V17.972c-1.228-2.457,4.331-6.788,5.56-5.56h242.941c3.103,0.646,5.56,1.875,5.56,5.56v76.671
	H128.92c-12.994,0-23.467,10.537-23.467,23.467v150.82c0,12.994,10.537,23.467,23.467,23.467h138.473L266.747,377.729z
	 M383.627,269.511c0,6.206-4.913,11.119-11.119,11.119H128.92c-6.206,0-11.119-4.913-11.119-11.119V118.044
	c0-6.206,4.913-11.119,11.119-11.119h243.588c6.206,0,11.119,4.978,11.119,11.119L383.627,269.511L383.627,269.511z"/>
<g>
</g>
<g>
</g>
<g>
</g>
<g>
</g>
<g>
</g>
<g>
</g>
<g>
</g>
<g>
</g>
<g>
</g>
<g>
</g>
<g>
</g>
<g>
</g>
<g>
</g>
<g>
</g>
<g>
</g>
</svg>
