<?xml version="1.0" encoding="iso-8859-1"?>
<!-- Generator: Adobe Illustrator 19.0.0, SVG Export Plug-In . SVG Version: 6.00 Build 0)  -->
<svg version="1.1" id="Layer_1" xmlns="http://www.w3.org/2000/svg" xmlns:xlink="http://www.w3.org/1999/xlink" x="0px" y="0px"
	 viewBox="0 0 395.636 395.636" style="enable-background:new 0 0 395.636 395.636;" xml:space="preserve">
<path style="fill:#F16051;" d="M197.818,389.43L197.818,389.43c-105.697,0-191.612-85.915-191.612-191.612l0,0
	C6.206,92.121,92.121,6.206,197.818,6.206l0,0c105.697,0,191.612,85.915,191.612,191.612l0,0
	C389.43,303.515,303.515,389.43,197.818,389.43z"/>
<path style="fill:#193651;" d="M197.818,395.636C89.018,395.636,0,306.618,0,197.818S89.018,0,197.818,0
	s197.818,89.018,197.818,197.818S306.618,395.636,197.818,395.636z M197.818,12.347c-102.012,0-185.471,83.459-185.471,185.471
	s83.459,185.471,185.471,185.471s185.471-83.459,185.471-185.471S299.83,12.347,197.818,12.347z"/>
<path style="fill:#FFFFFF;" d="M197.818,359.758c-89.665,0-161.939-72.275-161.939-161.939S108.154,35.879,197.818,35.879
	s161.939,72.275,161.939,161.939S287.483,359.758,197.818,359.758z"/>
<g>
	<rect x="191.612" y="49.455" style="fill:#193651;" width="12.347" height="21.01"/>
	<rect x="191.612" y="324.525" style="fill:#193651;" width="12.347" height="21.01"/>
	<rect x="325.172" y="191.612" style="fill:#193651;" width="21.01" height="12.347"/>
	<rect x="49.455" y="191.612" style="fill:#193651;" width="21.01" height="12.347"/>
	
		<rect x="289.284" y="89.809" transform="matrix(0.7071 0.7071 -0.7071 0.7071 157.4705 -179.5388)" style="fill:#193651;" width="12.347" height="21.01"/>
	
		<rect x="94.115" y="284.233" transform="matrix(0.7071 0.7071 -0.7071 0.7071 237.7851 15.412)" style="fill:#193651;" width="12.347" height="21.01"/>
	
		<rect x="284.525" y="288.501" transform="matrix(0.7071 0.7071 -0.7071 0.7071 294.7784 -122.3094)" style="fill:#193651;" width="21.01" height="12.347"/>
	
		<rect x="89.732" y="93.781" transform="matrix(-0.7071 -0.7071 0.7071 -0.7071 100.4361 241.512)" style="fill:#193651;" width="21.01" height="12.347"/>
</g>
<path style="fill:#FFFFFF;" d="M218.828,217.6l42.02-82.812l-82.812,42.02v0.646l40.21,40.21
	C218.246,218.246,218.246,218.246,218.828,217.6z"/>
<path style="fill:#F16051;" d="M177.131,177.713l-42.02,82.812l82.812-42.02v-0.646l-40.21-40.21
	C177.713,177.131,177.713,177.131,177.131,177.713z"/>
<path style="fill:#193651;" d="M274.812,120.824l-100.784,53.075l-53.139,100.848l101.366-50.683L274.812,120.824z M246.949,148.687
	l-30.319,58.699l-28.444-28.444L246.949,148.687z M149.269,246.368l29.673-58.699l29.026,29.026L149.269,246.368z"/>
<g>
</g>
<g>
</g>
<g>
</g>
<g>
</g>
<g>
</g>
<g>
</g>
<g>
</g>
<g>
</g>
<g>
</g>
<g>
</g>
<g>
</g>
<g>
</g>
<g>
</g>
<g>
</g>
<g>
</g>
</svg>
