<?xml version="1.0" encoding="iso-8859-1"?>
<!-- Generator: Adobe Illustrator 19.0.0, SVG Export Plug-In . SVG Version: 6.00 Build 0)  -->
<svg version="1.1" id="Layer_1" xmlns="http://www.w3.org/2000/svg" xmlns:xlink="http://www.w3.org/1999/xlink" x="0px" y="0px"
	 viewBox="0 0 395.636 395.636" style="enable-background:new 0 0 395.636 395.636;" xml:space="preserve">
<rect x="6.206" y="6.206" style="fill:#FFFFFF;" width="284.38" height="383.289"/>
<rect x="30.901" y="30.901" style="fill:#E1E6E9;" width="234.925" height="333.834"/>
<g>
	<polygon style="fill:#FFFFFF;" points="153.277,257.164 118.691,278.82 90.246,352.388 163.814,323.943 185.471,288.711 	"/>
	
		<rect x="183.036" y="159.695" transform="matrix(0.7071 0.7071 -0.7071 0.7071 223.3877 -87.0033)" style="fill:#FFFFFF;" width="67.361" height="132.912"/>
	<path style="fill:#FFFFFF;" d="M292.396,207.709l-57.471-57.471l85.333-85.333c16.097-16.097,41.438-16.097,57.471,0l0,0
		c16.097,16.097,16.097,41.438,0,57.471L292.396,207.709z"/>
</g>
<g>
	<path style="fill:#193651;" d="M382.061,60.574c-8.663-8.663-20.428-13.576-33.358-13.576c-12.347,0-24.113,4.978-33.358,13.576
		l-18.618,19.2V0H0v395.636h296.727V212.04l85.333-85.333c8.663-8.663,13.576-20.428,13.576-33.358
		C395.636,81.002,390.723,69.236,382.061,60.574z M284.38,383.289H12.347V12.347H284.38v79.774l-58.117,58.117l4.913,4.913
		l-94.578,93.996l6.788,6.788l-28.444,17.325c-1.228,0.646-1.875,1.875-2.457,3.103l-27.798,72.921
		c-0.646,2.457,0,4.331,1.228,6.788c1.228,1.875,5.56,2.457,6.788,1.228l72.921-27.798c1.228-0.646,2.457-1.228,3.103-2.457
		l17.325-28.444l6.788,6.788l91.475-90.893v168.792H284.38z M154.57,249.147l85.333-85.333l38.917,38.917l-85.333,85.333
		L154.57,249.147z M177.39,289.939l-17.907,29.026l-58.117,22.238l22.238-58.117l29.026-17.907l22.885,22.885L177.39,289.939z
		 M373.398,118.044l-81.002,81.002l-48.808-48.808l80.937-81.002c6.788-7.434,30.319-18.554,48.808,0
		C380.186,76.024,391.305,98.263,373.398,118.044z"/>
	
		<rect x="238.877" y="193.061" transform="matrix(0.7073 0.7069 -0.7069 0.7073 212.2053 -114.0454)" style="fill:#193651;" width="9.891" height="12.347"/>
	
		<rect x="218.12" y="213.163" transform="matrix(-0.7069 0.7073 -0.7073 -0.7069 537.117 213.6461)" style="fill:#193651;" width="12.347" height="9.891"/>
	
		<rect x="199.009" y="232.487" transform="matrix(-0.7073 0.7069 -0.7069 -0.7073 518.152 260.325)" style="fill:#193651;" width="12.347" height="9.891"/>
	<rect x="61.802" y="61.22" style="fill:#193651;" width="173.705" height="12.347"/>
	<rect x="61.802" y="102.594" style="fill:#193651;" width="173.705" height="12.347"/>
	<rect x="61.802" y="143.451" style="fill:#193651;" width="64.259" height="12.347"/>
</g>
<path style="fill:#F16051;" d="M359.887,82.101L359.887,82.101c-6.141-6.141-16.097-6.141-22.238,0l-68.137,68.137l22.238,22.238
	l68.073-68.073C366.028,98.263,366.028,88.242,359.887,82.101z"/>
<g>
</g>
<g>
</g>
<g>
</g>
<g>
</g>
<g>
</g>
<g>
</g>
<g>
</g>
<g>
</g>
<g>
</g>
<g>
</g>
<g>
</g>
<g>
</g>
<g>
</g>
<g>
</g>
<g>
</g>
</svg>
