<?xml version="1.0" encoding="iso-8859-1"?>
<!-- Generator: Adobe Illustrator 19.0.0, SVG Export Plug-In . SVG Version: 6.00 Build 0)  -->
<svg version="1.1" id="Layer_1" xmlns="http://www.w3.org/2000/svg" xmlns:xlink="http://www.w3.org/1999/xlink" x="0px" y="0px"
	 viewBox="0 0 396.929 396.929" style="enable-background:new 0 0 396.929 396.929;" xml:space="preserve">
<circle style="fill:#E1E6E9;" cx="198.465" cy="197.818" r="195.362"/>
<g>
	<circle style="fill:#FFFFFF;" cx="365.964" cy="197.818" r="24.113"/>
	<circle style="fill:#FFFFFF;" cx="30.966" cy="197.818" r="24.113"/>
	<circle style="fill:#FFFFFF;" cx="198.465" cy="366.61" r="24.113"/>
	<circle style="fill:#FFFFFF;" cx="198.465" cy="30.319" r="24.113"/>
	<circle style="fill:#FFFFFF;" cx="317.156" cy="316.509" r="24.113"/>
	<circle style="fill:#FFFFFF;" cx="79.774" cy="79.127" r="24.113"/>
	<circle style="fill:#FFFFFF;" cx="79.451" cy="317.479" r="24.113"/>
	<circle style="fill:#FFFFFF;" cx="317.156" cy="79.127" r="24.113"/>
	<circle style="fill:#FFFFFF;" cx="198.465" cy="197.818" r="77.253"/>
</g>
<g>
	<path style="fill:#193651;" d="M198.465,281.277c-45.77,0-83.459-37.689-83.459-83.459c0-22.238,8.663-43.248,24.76-58.699
		c15.451-15.451,36.461-24.76,58.699-24.76c45.77,0,83.459,37.689,83.459,83.459S244.234,281.277,198.465,281.277z M198.465,126.772
		c-19.135,0-37.107,7.434-50.101,21.01c-13.576,13.576-21.01,31.547-21.01,50.101c0,38.917,32.129,71.111,71.111,71.111
		s71.111-32.129,71.111-71.111S237.382,126.772,198.465,126.772z"/>
	<rect x="192.259" y="68.655" style="fill:#193651;" width="12.347" height="12.347"/>
	<rect x="192.259" y="93.349" style="fill:#193651;" width="12.347" height="12.347"/>
	<rect x="192.259" y="289.939" style="fill:#193651;" width="12.347" height="12.347"/>
	<rect x="192.259" y="314.699" style="fill:#193651;" width="12.347" height="12.347"/>
	<rect x="315.281" y="191.677" style="fill:#193651;" width="12.347" height="12.347"/>
	<rect x="290.586" y="191.677" style="fill:#193651;" width="12.347" height="12.347"/>
	<rect x="93.996" y="191.677" style="fill:#193651;" width="12.347" height="12.347"/>
	<rect x="69.236" y="191.677" style="fill:#193651;" width="12.347" height="12.347"/>
	
		<rect x="279.203" y="105.253" transform="matrix(-0.7071 -0.7071 0.7071 -0.7071 408.3776 392.0084)" style="fill:#193651;" width="12.347" height="12.347"/>
	
		<rect x="261.488" y="122.289" transform="matrix(-0.7071 -0.7071 0.7071 -0.7071 366.0908 408.5651)" style="fill:#193651;" width="12.347" height="12.347"/>
	
		<rect x="123.216" y="261.1" transform="matrix(0.7071 0.7071 -0.7071 0.7071 226.8885 -13.2094)" style="fill:#193651;" width="12.347" height="12.347"/>
	
		<rect x="105.073" y="278.605" transform="matrix(0.7071 0.7071 -0.7071 0.7071 233.9521 4.7464)" style="fill:#193651;" width="12.347" height="12.347"/>
	
		<rect x="279.24" y="278.972" transform="matrix(0.7071 0.7072 -0.7072 0.7071 285.2528 -118.301)" style="fill:#193651;" width="12.348" height="12.348"/>
	
		<rect x="261.748" y="260.848" transform="matrix(-0.7072 0.7071 -0.7071 -0.7072 646.1839 266.4122)" style="fill:#193651;" width="12.348" height="12.348"/>
	
		<rect x="122.968" y="122.535" transform="matrix(-0.7071 -0.7072 0.7072 -0.7071 129.4362 311.0369)" style="fill:#193651;" width="12.348" height="12.348"/>
	
		<rect x="104.992" y="104.828" transform="matrix(-0.707 -0.7072 0.7072 -0.707 111.2596 268.097)" style="fill:#193651;" width="12.347" height="12.347"/>
</g>
<g>
	<circle style="fill:#2EA2DB;" cx="198.465" cy="176.808" r="17.325"/>
	<path style="fill:#2EA2DB;" d="M198.465,250.376c15.451,0,29.026-6.788,38.335-17.325c-4.331-16.679-19.782-28.444-38.335-28.444
		s-34.004,12.347-38.335,29.026C169.438,243.588,183.014,250.376,198.465,250.376z"/>
</g>
<g>
	<path style="fill:#193651;" d="M30.966,228.137c-16.743,0-30.319-13.576-30.319-30.319c0-16.679,13.576-30.319,30.319-30.319
		s30.319,13.576,30.319,30.319C61.22,214.562,47.644,228.137,30.966,228.137z M30.966,179.911c-9.891,0-17.907,8.016-17.907,17.907
		c0,9.891,8.016,17.907,17.907,17.907s17.907-8.016,17.907-17.907C48.226,187.927,40.857,179.911,30.966,179.911z"/>
	<path style="fill:#193651;" d="M365.964,228.137c-16.679,0-30.319-13.576-30.319-30.319c0-16.679,13.576-30.319,30.319-30.319
		c16.679,0,30.319,13.576,30.319,30.319S382.707,228.137,365.964,228.137z M365.964,179.911c-9.891,0-17.907,8.016-17.907,17.907
		c0,9.891,8.016,17.907,17.907,17.907s17.907-8.016,17.907-17.907C383.935,187.927,375.855,179.911,365.964,179.911z"/>
	<path style="fill:#193651;" d="M58.764,100.784c-11.766-11.766-11.766-30.901,0-42.667s30.901-11.766,42.667,0
		s11.766,30.901,0,42.667S70.529,112.55,58.764,100.784z M92.768,66.78c-6.788-6.788-17.907-6.788-25.341,0
		c-7.434,6.788-6.788,17.907,0,25.341c6.788,6.788,17.907,6.788,25.341,0C99.556,84.752,99.556,73.568,92.768,66.78z"/>
	<path style="fill:#193651;" d="M295.499,337.584c-11.766-11.766-11.766-30.901,0-42.667c11.766-11.766,30.901-11.766,42.667,0
		c11.766,11.766,11.766,30.901,0,42.667C326.4,349.285,307.265,349.285,295.499,337.584z M329.503,304.162
		c-6.788-6.788-17.907-6.788-25.341,0c-6.788,6.788-6.788,17.907,0,25.341c6.788,6.788,17.907,6.788,25.341,0
		C336.937,322.715,336.291,310.949,329.503,304.162z"/>
	<path style="fill:#193651;" d="M168.145,30.319C168.145,13.64,181.721,0,198.465,0c16.679,0,30.319,13.576,30.319,30.319
		s-13.576,30.319-30.319,30.319C181.786,60.638,168.145,46.998,168.145,30.319z M216.372,30.319c0-9.891-8.016-17.907-17.907-17.907
		c-9.891,0-17.907,8.016-17.907,17.907s8.016,17.907,17.907,17.907C208.356,48.226,216.372,40.21,216.372,30.319z"/>
	<path style="fill:#193651;" d="M168.145,366.61c0-16.679,13.576-30.319,30.319-30.319c16.679,0,30.319,13.576,30.319,30.319
		c0,16.679-13.576,30.319-30.319,30.319S168.145,383.289,168.145,366.61z M216.372,366.61c0-9.891-8.016-17.907-17.907-17.907
		c-9.891,0-17.907,8.016-17.907,17.907s8.016,17.907,17.907,17.907C208.356,384.517,216.372,376.501,216.372,366.61z"/>
	<path style="fill:#193651;" d="M296.145,58.117c11.766-11.766,30.901-11.766,42.667,0s11.766,30.901,0,42.667
		c-11.766,11.766-30.901,11.766-42.667,0C284.38,89.018,284.38,69.883,296.145,58.117z M330.15,92.121
		c6.788-6.788,6.788-18.554,0-25.341c-6.788-6.788-17.907-6.788-25.341,0c-6.788,6.788-6.788,18.554,0,25.341
		S323.362,98.909,330.15,92.121z"/>
	<path style="fill:#193651;" d="M58.117,296.145c11.766-11.766,30.901-11.766,42.667,0s11.766,30.901,0,42.667
		c-11.766,11.766-30.901,11.766-42.667,0C46.416,327.046,46.416,307.911,58.117,296.145z M92.121,330.15
		c6.788-6.788,6.788-18.554,0-25.341c-6.788-6.788-17.907-6.788-25.341,0c-6.788,6.788-6.788,18.554,0,25.341
		S85.333,336.937,92.121,330.15z"/>
</g>
<g>
</g>
<g>
</g>
<g>
</g>
<g>
</g>
<g>
</g>
<g>
</g>
<g>
</g>
<g>
</g>
<g>
</g>
<g>
</g>
<g>
</g>
<g>
</g>
<g>
</g>
<g>
</g>
<g>
</g>
</svg>
