<?xml version="1.0" encoding="iso-8859-1"?>
<!-- Generator: Adobe Illustrator 19.0.0, SVG Export Plug-In . SVG Version: 6.00 Build 0)  -->
<svg version="1.1" id="Layer_1" xmlns="http://www.w3.org/2000/svg" xmlns:xlink="http://www.w3.org/1999/xlink" x="0px" y="0px"
	 viewBox="0 0 395.636 395.636" style="enable-background:new 0 0 395.636 395.636;" xml:space="preserve">
<polygon style="fill:#FFFFFF;" points="389.43,6.206 56.889,6.206 56.889,56.889 6.206,56.889 6.206,389.43 338.747,389.43 
	338.747,338.747 389.43,338.747 "/>
<path style="fill:#193651;" d="M50.683,0v50.683H0v344.954h344.954v-50.683h50.683V0H50.683z M332.606,383.289H12.347V63.03h38.335
	v281.277H331.96v38.917h0.646V383.289z M383.289,332.606H63.03V12.347h320.194v320.259H383.289z"/>
<rect x="81.584" y="30.901" style="fill:#2EA2DB;" width="283.152" height="283.152"/>
<circle style="fill:#FFFFFF;" cx="163.168" cy="74.214" r="24.113"/>
<path style="fill:#193651;" d="M163.168,104.469c-16.679,0-30.319-13.576-30.319-30.319s13.576-30.319,30.319-30.319
	c16.679,0,30.319,13.576,30.319,30.319C194.133,90.893,180.493,104.469,163.168,104.469z M163.168,55.661
	c-9.891,0-17.907,8.016-17.907,17.907s8.016,17.907,17.907,17.907s17.907-8.016,17.907-17.907
	C181.721,64.259,173.705,55.661,163.168,55.661z"/>
<path style="fill:#FFFFFF;" d="M216.954,176.808v-3.685c0-29.673-24.113-53.786-53.786-53.786s-53.786,24.113-53.786,53.786v3.685
	H216.954z"/>
<g>
	<path style="fill:#193651;" d="M223.16,183.014H103.24v-9.891c0-32.776,26.57-59.992,59.992-59.992
		c32.776,0,59.992,26.57,59.992,59.992L223.16,183.014L223.16,183.014z M116.234,170.602h94.578
		c-1.228-25.341-22.238-45.123-47.58-45.123S116.816,145.907,116.234,170.602z"/>
	<rect x="243.588" y="54.432" style="fill:#193651;" width="97.034" height="12.347"/>
	<rect x="243.588" y="92.121" style="fill:#193651;" width="97.034" height="12.347"/>
	<rect x="243.588" y="130.457" style="fill:#193651;" width="12.994" height="12.347"/>
	<rect x="272.032" y="130.457" style="fill:#193651;" width="12.994" height="12.347"/>
	<rect x="299.83" y="130.457" style="fill:#193651;" width="12.994" height="12.347"/>
	<rect x="328.275" y="130.457" style="fill:#193651;" width="12.994" height="12.347"/>
	<rect x="109.446" y="278.174" style="fill:#193651;" width="226.844" height="12.347"/>
	<rect x="109.446" y="246.044" style="fill:#193651;" width="226.844" height="12.347"/>
	<rect x="109.446" y="213.269" style="fill:#193651;" width="226.844" height="12.347"/>
</g>
<g>
</g>
<g>
</g>
<g>
</g>
<g>
</g>
<g>
</g>
<g>
</g>
<g>
</g>
<g>
</g>
<g>
</g>
<g>
</g>
<g>
</g>
<g>
</g>
<g>
</g>
<g>
</g>
<g>
</g>
</svg>
