<?xml version="1.0" encoding="iso-8859-1"?>
<!-- Generator: Adobe Illustrator 19.0.0, SVG Export Plug-In . SVG Version: 6.00 Build 0)  -->
<svg version="1.1" id="Layer_1" xmlns="http://www.w3.org/2000/svg" xmlns:xlink="http://www.w3.org/1999/xlink" x="0px" y="0px"
	 viewBox="0 0 395.636 395.636" style="enable-background:new 0 0 395.636 395.636;" xml:space="preserve">
<rect y="56.275" style="fill:#4FBF9F;" width="395.636" height="48.808"/>
<g>
	<path style="fill:#193651;" d="M334.416,82.263c-14.222,0-25.988-11.766-25.988-25.988s11.766-25.988,25.988-25.988
		c14.222,0,25.988,11.766,25.988,25.988h-12.347c0-7.434-6.206-13.576-13.576-13.576c-7.434,0-13.576,6.206-13.576,13.576
		c0,7.434,6.206,13.576,13.576,13.576v12.412H334.416z"/>
	<path style="fill:#193651;" d="M243.588,82.263c-14.222,0-25.988-11.766-25.988-25.988s11.766-25.988,25.988-25.988
		c14.222,0,25.988,11.766,25.988,25.988h-12.347c0-7.434-6.206-13.576-13.576-13.576c-7.37,0-13.576,6.206-13.576,13.576
		c0,7.434,6.206,13.576,13.576,13.576v12.412H243.588z"/>
	<path style="fill:#193651;" d="M152.048,82.263c-14.222,0-25.988-11.766-25.988-25.988s11.766-25.988,25.988-25.988
		c14.222,0,25.988,11.766,25.988,25.988h-12.347c0-7.434-6.206-13.576-13.576-13.576c-7.37,0-13.576,6.206-13.576,13.576
		c0,7.434,6.206,13.576,13.576,13.576L152.048,82.263L152.048,82.263z"/>
	<path style="fill:#193651;" d="M61.22,82.263c-14.222,0-25.988-11.766-25.988-25.988S46.998,30.287,61.22,30.287
		s25.988,11.766,25.988,25.988H74.861c0-7.434-6.206-13.576-13.576-13.576c-7.37,0-13.576,6.206-13.576,13.576
		c0,7.434,6.206,13.576,13.576,13.576v12.412H61.22z"/>
</g>
<rect x="6.206" y="104.501" style="fill:#FFFFFF;" width="383.289" height="254.707"/>
<path style="fill:#193651;" d="M395.636,365.349H0V98.295h395.636V365.349z M12.347,353.002h370.941V110.707H12.347V353.002z"/>
<polygon style="fill:#ECF0F3;" points="364.735,129.261 30.901,129.261 30.901,334.448 302.287,334.448 364.735,272.065 "/>
<polygon style="fill:#D3D7DA;" points="302.287,334.448 364.735,272.065 302.287,272.065 "/>
<g>
	<rect x="61.22" y="171.281" style="fill:#193651;" width="272.614" height="12.347"/>
	<rect x="61.22" y="225.648" style="fill:#193651;" width="272.614" height="12.347"/>
	<rect x="61.22" y="280.663" style="fill:#193651;" width="12.347" height="12.347"/>
	<rect x="93.931" y="280.663" style="fill:#193651;" width="12.347" height="12.347"/>
	<rect x="126.707" y="280.663" style="fill:#193651;" width="12.347" height="12.347"/>
	<rect x="159.483" y="280.663" style="fill:#193651;" width="12.347" height="12.347"/>
	<rect x="192.259" y="280.663" style="fill:#193651;" width="12.347" height="12.347"/>
</g>
<g>
</g>
<g>
</g>
<g>
</g>
<g>
</g>
<g>
</g>
<g>
</g>
<g>
</g>
<g>
</g>
<g>
</g>
<g>
</g>
<g>
</g>
<g>
</g>
<g>
</g>
<g>
</g>
<g>
</g>
</svg>
