<?xml version="1.0" encoding="iso-8859-1"?>
<!-- Generator: Adobe Illustrator 19.0.0, SVG Export Plug-In . SVG Version: 6.00 Build 0)  -->
<svg version="1.1" id="Layer_1" xmlns="http://www.w3.org/2000/svg" xmlns:xlink="http://www.w3.org/1999/xlink" x="0px" y="0px"
	 viewBox="0 0 395.636 395.636" style="enable-background:new 0 0 395.636 395.636;" xml:space="preserve">
<g>
	<rect x="159.483" y="333.188" style="fill:#FFFFFF;" width="77.253" height="56.242"/>
	<rect x="6.206" y="6.206" style="fill:#FFFFFF;" width="383.289" height="279.402"/>
	<rect x="6.206" y="285.608" style="fill:#FFFFFF;" width="383.289" height="47.58"/>
</g>
<rect x="30.901" y="30.901" style="fill:#2EA2DB;" width="333.834" height="229.947"/>
<g>
	<rect x="145.261" y="303.515" style="fill:#193651;" width="12.347" height="12.347"/>
	<rect x="191.612" y="303.515" style="fill:#193651;" width="12.347" height="12.347"/>
	<rect x="238.028" y="303.515" style="fill:#193651;" width="12.347" height="12.347"/>
	<path style="fill:#193651;" d="M395.636,339.394V0H0v339.394h153.277v43.895h-19.135v12.347h127.935v-12.347h-19.135v-43.895
		H395.636z M12.347,12.347h370.941v267.055H12.347V12.347z M12.347,291.814h370.941v35.232H12.347V291.814z M229.947,383.289
		h-64.323v-43.895h64.905v43.895H229.947z"/>
	<rect x="75.119" y="187.281" style="fill:#193651;" width="12.347" height="73.568"/>
	<rect x="145.584" y="162.586" style="fill:#193651;" width="12.347" height="98.263"/>
	<rect x="215.467" y="137.826" style="fill:#193651;" width="12.347" height="123.022"/>
	<polygon style="fill:#193651;" points="291.491,79.774 263.046,108.8 271.709,117.463 285.285,103.822 285.285,260.848 
		297.632,260.848 297.632,103.822 311.855,117.463 320.517,108.8 	"/>
</g>
<g>
</g>
<g>
</g>
<g>
</g>
<g>
</g>
<g>
</g>
<g>
</g>
<g>
</g>
<g>
</g>
<g>
</g>
<g>
</g>
<g>
</g>
<g>
</g>
<g>
</g>
<g>
</g>
<g>
</g>
</svg>
