<?xml version="1.0" encoding="iso-8859-1"?>
<!-- Generator: Adobe Illustrator 19.0.0, SVG Export Plug-In . SVG Version: 6.00 Build 0)  -->
<svg version="1.1" id="Layer_1" xmlns="http://www.w3.org/2000/svg" xmlns:xlink="http://www.w3.org/1999/xlink" x="0px" y="0px"
	 viewBox="0 0 395.701 395.701" style="enable-background:new 0 0 395.701 395.701;" xml:space="preserve">
<path style="fill:#FFFFFF;" d="M272.903,389.43H25.048c-10.537,0-18.554-8.016-18.554-18.489V24.76
	c0-10.537,8.016-18.554,18.554-18.554h247.919c10.537,0,18.554,8.016,18.554,18.554v346.182
	C291.456,381.414,283.44,389.43,272.903,389.43z"/>
<rect x="31.19" y="85.333" style="fill:#2EA2DB;" width="233.05" height="221.285"/>
<g>
	<path style="fill:#FFFFFF;" d="M6.495,331.96v38.917c0,10.537,8.016,18.554,18.554,18.554h247.919
		c10.537,0,18.554-8.016,18.554-18.554V331.96H6.495z"/>
	<path style="fill:#FFFFFF;" d="M291.456,60.574V24.695c0-10.537-8.016-18.554-18.554-18.554H25.048
		C14.511,6.206,6.495,14.222,6.495,24.76v35.879h284.962V60.574z"/>
</g>
<g>
	<rect x="133.784" y="27.216" style="fill:#193651;" width="30.319" height="12.347"/>
	<rect x="125.186" y="354.198" style="fill:#193651;" width="47.58" height="12.347"/>
	<rect x="204.313" y="354.198" style="fill:#193651;" width="12.347" height="12.347"/>
	<rect x="81.872" y="354.198" style="fill:#193651;" width="12.347" height="12.347"/>
</g>
<path style="fill:#FFFFFF;" d="M301.347,107.572c-48.808,0-88.372,39.564-88.372,88.372c0,17.907,5.56,34.586,14.222,48.226
	l-14.222,40.21l40.21-14.222c14.222,9.244,30.319,14.222,48.226,14.222c48.808,0,88.372-39.564,88.372-88.372
	S350.155,107.572,301.347,107.572z"/>
<path style="fill:#193651;" d="M301.347,101.366c-1.228,0-1.875,0-3.103,0V24.76c0-13.576-11.119-24.76-24.76-24.76H25.048
	c-13.64,0-24.76,11.119-24.76,24.76v346.182c0,13.576,11.119,24.76,24.76,24.76h247.919c13.576,0,24.76-11.119,24.76-24.76v-79.774
	c1.228,0,1.875,0,3.103,0c52.558,0,94.578-42.667,94.578-94.578C395.925,144.032,353.258,101.366,301.347,101.366z M12.636,24.76
	c0-6.788,5.56-12.347,12.347-12.347h247.919c6.788,0,12.347,5.56,12.347,12.347v29.673H12.636V24.76z M285.25,370.941
	c0,6.788-5.56,12.347-12.348,12.347H25.048c-6.788,0-12.347-5.56-12.347-12.347v-32.776h272.614v32.776H285.25z M285.25,325.754
	H12.636V66.78H285.25v35.879c-45.123,7.434-79.127,46.352-79.127,93.35c0,17.325,4.913,34.586,13.576,49.455l-17.907,49.455
	l49.455-17.907c10.537,6.206,21.657,10.537,33.358,12.347v36.461h0.646V325.754z M301.347,278.82
	c-16.097,0-31.547-4.978-45.123-13.576l-2.457-1.875l-30.901,11.119l11.119-30.901l-1.875-2.457
	c-8.663-13.576-13.576-29.026-13.576-45.123c0-45.77,37.107-82.23,82.23-82.23c45.77,0,82.23,37.107,82.23,82.23
	C383.577,241.713,346.47,278.82,301.347,278.82z"/>
<path style="fill:#FDBF5E;" d="M301.347,260.267c-35.232,0-63.677-28.444-63.677-63.677s28.444-63.677,63.677-63.677
	c35.232-0.646,63.677,27.798,63.677,63.03C365.024,231.822,336.579,260.267,301.347,260.267z"/>
<path style="fill:#193651;" d="M301.347,190.384c-6.206,0-11.119-4.913-11.119-11.119c0-6.206,4.978-11.119,11.119-11.119
	c6.141,0,11.119,4.978,11.119,11.119h12.347c0-10.861-7.305-19.976-17.325-22.691v-5.754h-12.347v5.754
	c-9.956,2.715-17.325,11.83-17.325,22.691c0,12.994,10.537,23.467,23.467,23.467c6.206,0,11.119,4.978,11.119,11.119
	s-4.913,11.119-11.119,11.119s-11.119-4.913-11.119-11.119h-12.347c0,10.861,7.305,19.976,17.325,22.691v5.172h12.347v-5.172
	c9.956-2.715,17.325-11.83,17.325-22.691C324.814,200.921,314.341,190.384,301.347,190.384z"/>
<g>
</g>
<g>
</g>
<g>
</g>
<g>
</g>
<g>
</g>
<g>
</g>
<g>
</g>
<g>
</g>
<g>
</g>
<g>
</g>
<g>
</g>
<g>
</g>
<g>
</g>
<g>
</g>
<g>
</g>
</svg>
