<?xml version="1.0" encoding="iso-8859-1"?>
<!-- Generator: Adobe Illustrator 19.0.0, SVG Export Plug-In . SVG Version: 6.00 Build 0)  -->
<svg version="1.1" id="Layer_1" xmlns="http://www.w3.org/2000/svg" xmlns:xlink="http://www.w3.org/1999/xlink" x="0px" y="0px"
	 viewBox="0 0 395.636 395.636" style="enable-background:new 0 0 395.636 395.636;" xml:space="preserve">
<path style="fill:#FFFFFF;" d="M156.38,214.497V12.994c0-3.685-3.103-6.788-6.788-6.788H13.576c-4.331,0-7.434,3.103-7.434,6.788
	v201.503c0,3.685,3.103,6.788,6.788,6.788h136.016C153.277,221.931,156.38,218.828,156.38,214.497z"/>
<g>
	<path style="fill:#E1E6E9;" d="M6.206,178.036v36.461c0,3.685,3.103,6.788,6.788,6.788H149.01c3.685,0,6.788-3.103,6.788-6.788
		v-36.461H6.206z"/>
	<path style="fill:#E1E6E9;" d="M149.592,6.206H13.576c-4.331,0-7.434,3.103-7.434,6.788V45.77H156.38V12.994
		C156.38,9.244,153.277,6.206,149.592,6.206z"/>
</g>
<path style="fill:#FFFFFF;" d="M389.43,382.642V181.139c0-3.685-3.103-6.788-6.788-6.788H246.626c-3.685,0-6.788,3.103-6.788,6.788
	v201.503c0,3.685,3.103,6.788,6.788,6.788h136.016C386.392,389.43,389.43,386.392,389.43,382.642z"/>
<g>
	<path style="fill:#E1E6E9;" d="M239.257,346.44v36.461c0,3.685,3.103,6.788,6.788,6.788h136.016c3.685,0,6.788-3.103,6.788-6.788
		V346.44H239.257z"/>
	<path style="fill:#E1E6E9;" d="M382.642,174.352H246.626c-3.685,0-6.788,3.103-6.788,6.788v32.776H389.43v-32.776
		C389.43,177.39,386.392,174.352,382.642,174.352z"/>
</g>
<g>
	<path style="fill:#193651;" d="M161.939,214.497V12.994C161.939,6.206,156.38,0,148.945,0H12.994C6.206,0,0,6.206,0,12.994v202.15
		c0,6.788,5.56,12.994,12.994,12.994H149.01C156.38,228.137,162.586,221.931,161.939,214.497z M149.592,214.497
		c0,0,0,0.646-0.646,0.646H12.994c0,0-0.646,0-0.646-0.646V12.994l0.646-0.646H149.01c0,0,0.646,0,0.646,0.646v201.503H149.592z"/>
	<path style="fill:#193651;" d="M283.152,36.461c-4.331-0.646-8.663-1.228-12.994-1.228l-0.646,12.347
		c3.685,0,7.434,0.646,11.119,1.228L283.152,36.461z"/>
	<rect x="244.816" y="35.232" style="fill:#193651;" width="12.347" height="12.347"/>
	<path style="fill:#193651;" d="M308.493,44.477c-4.331-1.875-8.016-3.685-12.348-4.913l-3.685,11.766
		c3.685,1.228,6.788,2.457,10.537,4.331L308.493,44.477z"/>
	<rect x="35.232" y="233.697" style="fill:#193651;" width="12.347" height="12.347"/>
	<rect x="348.057" y="142.158" style="fill:#193651;" width="12.347" height="12.347"/>
	<path style="fill:#193651;" d="M329.503,58.699c-3.103-3.103-6.788-5.56-10.537-8.016l-6.788,10.537
		c3.685,2.457,6.206,4.978,9.244,7.434L329.503,58.699z"/>
	<path style="fill:#193651;" d="M346.182,79.127c-1.875-3.685-4.331-7.434-7.434-10.537l-9.244,8.016
		c2.457,3.103,4.978,6.206,6.788,9.244L346.182,79.127z"/>
	<path style="fill:#193651;" d="M345.535,106.925l11.766-3.685c-1.228-4.331-2.457-8.016-4.331-12.347l-11.119,4.978
		C343.079,99.556,344.307,103.24,345.535,106.925z"/>
	<path style="fill:#193651;" d="M348.057,128.582v1.228h12.347v-1.875c0-3.685,0-8.016-0.646-11.766l-12.347,1.875
		C348.057,121.794,348.057,124.897,348.057,128.582z"/>
	<rect x="131.038" y="348.057" style="fill:#193651;" width="12.347" height="12.347"/>
	<rect x="220.057" y="35.232" style="fill:#193651;" width="12.347" height="12.347"/>
	<rect x="205.253" y="348.057" style="fill:#193651;" width="12.347" height="12.347"/>
	<rect x="180.493" y="348.057" style="fill:#193651;" width="12.347" height="12.347"/>
	<rect x="195.362" y="35.232" style="fill:#193651;" width="12.347" height="12.347"/>
	<rect x="170.602" y="35.232" style="fill:#193651;" width="12.347" height="12.347"/>
	<path style="fill:#193651;" d="M49.455,281.277l-12.347,2.457c0.646,4.331,1.875,8.663,3.103,12.994l12.347-4.331
		C51.329,288.711,50.101,284.962,49.455,281.277z"/>
	<rect x="155.798" y="348.057" style="fill:#193651;" width="12.347" height="12.347"/>
	<path style="fill:#193651;" d="M69.236,321.487l-9.244,8.663c3.103,3.685,6.206,6.788,9.891,9.244l8.016-9.891
		C74.796,327.046,71.693,324.525,69.236,321.487z"/>
	<path style="fill:#193651;" d="M80.356,346.828c3.685,2.457,7.434,4.331,11.766,6.206l4.913-11.766
		c-3.685-1.228-7.434-3.103-10.537-4.978L80.356,346.828z"/>
	<rect x="35.232" y="258.392" style="fill:#193651;" width="12.347" height="12.347"/>
	<path style="fill:#193651;" d="M56.242,303.515l-11.119,5.56c1.875,3.685,4.331,7.434,6.788,11.119l9.891-6.788
		C59.992,310.303,58.117,307.265,56.242,303.515z"/>
	<path style="fill:#193651;" d="M105.115,357.301c4.331,1.228,8.663,1.875,12.994,2.457l1.228-12.347
		c-3.685,0-7.434-0.646-11.119-1.875L105.115,357.301z"/>
	<path style="fill:#193651;" d="M382.642,168.145h-22.238v-1.228h-12.347v1.228h-101.43c-6.788,0-12.994,5.56-12.994,12.994v166.917
		h-3.685v12.347h3.685v22.238c0,6.788,5.56,12.994,12.994,12.994h136.016c6.788,0,12.994-6.206,12.994-12.994V181.139
		C395.636,174.352,390.077,168.145,382.642,168.145z M383.289,382.061c0,0,0,0.646-0.646,0.646H246.626c0,0-0.646,0-0.646-0.646
		V180.493c0,0,0-0.646,0.646-0.646v0.646h136.016c0,0,0.646,0,0.646,0.646V382.061z"/>
	<rect x="282.505" y="358.4" style="fill:#193651;" width="63.677" height="12.347"/>
	<rect x="299.83" y="191.03" style="fill:#193651;" width="29.026" height="12.347"/>
	<rect x="49.455" y="193.487" style="fill:#193651;" width="63.677" height="12.347"/>
	<rect x="66.78" y="22.238" style="fill:#193651;" width="29.026" height="12.347"/>
</g>
<g>
	<path style="fill:#FDBF5E;" d="M345.535,328.275v-35.232c0-5.56-4.331-9.891-9.891-9.891h-41.438c-5.56,0-9.891,4.331-9.891,9.891
		v35.232H345.535z"/>
	<circle style="fill:#FDBF5E;" cx="314.634" cy="252.186" r="17.325"/>
</g>
<g>
	<path style="fill:#2EA2DB;" d="M111.903,160.129v-35.232c0-5.56-4.331-9.891-9.891-9.891H60.574c-5.56,0-9.891,4.331-9.891,9.891
		v35.232H111.903L111.903,160.129z"/>
	<circle style="fill:#2EA2DB;" cx="81.002" cy="84.687" r="17.325"/>
</g>
<g>
</g>
<g>
</g>
<g>
</g>
<g>
</g>
<g>
</g>
<g>
</g>
<g>
</g>
<g>
</g>
<g>
</g>
<g>
</g>
<g>
</g>
<g>
</g>
<g>
</g>
<g>
</g>
<g>
</g>
</svg>
