<?xml version="1.0" encoding="iso-8859-1"?>
<!-- Generator: Adobe Illustrator 19.0.0, SVG Export Plug-In . SVG Version: 6.00 Build 0)  -->
<svg version="1.1" id="Layer_1" xmlns="http://www.w3.org/2000/svg" xmlns:xlink="http://www.w3.org/1999/xlink" x="0px" y="0px"
	 viewBox="0 0 395.636 395.636" style="enable-background:new 0 0 395.636 395.636;" xml:space="preserve">
<rect x="6.206" y="81.584" style="fill:#FFFFFF;" width="383.289" height="307.846"/>
<rect x="30.901" y="106.343" style="fill:#E1E6E9;" width="333.834" height="258.392"/>
<rect x="116.816" y="223.16" style="fill:#FFFFFF;" width="161.939" height="113.778"/>
<path style="fill:#193651;" d="M260.267,216.954v-17.907c0-34.651-27.798-62.448-62.448-62.448s-62.448,27.798-62.448,62.448v17.907
	h-24.76v126.125h174.352V216.954H260.267z M147.717,199.046c0-27.798,22.238-50.101,50.101-50.101s50.101,22.238,50.101,50.101
	v17.907H147.717V199.046z M272.614,330.731H123.022V229.366h149.592V330.731z"/>
<rect x="141.576" y="247.919" style="fill:#4FBF9F;" width="112.485" height="64.323"/>
<path style="fill:#193651;" d="M207.063,272.614c0-4.913-4.331-9.244-9.244-9.244s-9.244,4.331-9.244,9.244
	c0,3.685,2.457,7.434,6.206,8.663l-1.875,15.451h9.891l-1.875-16.097C204.606,280.048,207.063,276.299,207.063,272.614z"/>
<rect x="6.206" y="6.206" style="fill:#FFFFFF;" width="383.289" height="75.442"/>
<path style="fill:#193651;" d="M0,0v395.636h395.636V0H0z M383.289,383.289H12.347V87.79h370.941L383.289,383.289L383.289,383.289z
	 M383.289,75.442H12.347v-63.03h370.941L383.289,75.442L383.289,75.442z"/>
<rect x="30.901" y="30.901" style="fill:#2EA2DB;" width="107.572" height="25.988"/>
<g>
	<rect x="45.77" y="37.689" style="fill:#193651;" width="12.347" height="11.766"/>
	<rect x="78.481" y="37.689" style="fill:#193651;" width="12.347" height="11.766"/>
	<rect x="111.257" y="37.689" style="fill:#193651;" width="12.347" height="11.766"/>
</g>
<g>
</g>
<g>
</g>
<g>
</g>
<g>
</g>
<g>
</g>
<g>
</g>
<g>
</g>
<g>
</g>
<g>
</g>
<g>
</g>
<g>
</g>
<g>
</g>
<g>
</g>
<g>
</g>
<g>
</g>
</svg>
