<?xml version="1.0" encoding="iso-8859-1"?>
<!-- Generator: Adobe Illustrator 19.0.0, SVG Export Plug-In . SVG Version: 6.00 Build 0)  -->
<svg version="1.1" id="Layer_1" xmlns="http://www.w3.org/2000/svg" xmlns:xlink="http://www.w3.org/1999/xlink" x="0px" y="0px"
	 viewBox="0 0 395.636 395.636" style="enable-background:new 0 0 395.636 395.636;" xml:space="preserve">
<g>
	<path style="fill:#FFFFFF;" d="M389.43,246.626c0-13.576-10.537-25.341-24.113-25.988c-1.228,0-2.457,0.646-3.103,1.228
		l-24.113,17.325l-24.113-17.325c-0.646-0.646-1.875-1.228-3.103-1.228c-13.576,1.228-24.113,12.347-24.113,25.988v70.465h16.679
		v72.339h70.465v-72.275h15.451v-70.529H389.43z"/>
	<circle style="fill:#FFFFFF;" cx="337.519" cy="185.471" r="21.657"/>
</g>
<path style="fill:#193651;" d="M337.519,212.687c-15.451,0-27.798-12.347-27.798-27.798s12.347-27.798,27.798-27.798
	c15.451,0,27.798,12.347,27.798,27.798S352.97,212.687,337.519,212.687z M337.519,170.02c-8.663,0-15.451,6.788-15.451,15.451
	s6.788,15.451,15.451,15.451c8.663,0,15.451-6.788,15.451-15.451S346.182,170.02,337.519,170.02z"/>
<g>
	<path style="fill:#FFFFFF;" d="M110.028,246.626c0-13.576-10.537-25.341-24.113-25.988c-1.228,0-2.457,0.646-3.103,1.228
		l-24.113,17.325l-24.113-17.325c-0.646-0.646-1.875-1.228-3.103-1.228C17.907,221.867,7.37,232.986,7.37,246.626v70.465h16.679
		v72.339h70.465v-72.275h16.679v-70.465h-1.164V246.626z"/>
	<circle style="fill:#FFFFFF;" cx="58.117" cy="185.471" r="21.657"/>
</g>
<path style="fill:#193651;" d="M58.117,212.687c-15.451,0-27.798-12.347-27.798-27.798s12.347-27.798,27.798-27.798
	s27.798,12.347,27.798,27.798S72.921,212.687,58.117,212.687z M58.117,170.02c-8.663,0-15.451,6.788-15.451,15.451
	s6.788,15.451,15.451,15.451s15.451-6.788,15.451-15.451S66.133,170.02,58.117,170.02z"/>
<path style="fill:#FFFFFF;" d="M285.608,147.135c0-24.76-19.782-44.541-44.541-44.541h-43.248H154.57
	c-24.76,0-44.541,19.782-44.541,44.541v119.337h27.798v123.022h119.919V266.408h27.798L285.608,147.135L285.608,147.135z"/>
<path style="fill:#FDBF5E;" d="M162.586,364.735V241.713h-27.798v-94.578c0-11.119,8.663-19.782,19.782-19.782h86.562
	c11.119,0,19.782,8.663,19.782,19.782v94.578h-27.798v123.022H162.586z"/>
<path style="fill:#193651;" d="M365.317,214.497h-0.646c-2.457,0-4.913,1.228-6.788,2.457l-20.428,14.869l-20.428-14.869
	c-1.875-1.875-4.331-2.457-6.788-2.457h-0.646c-6.788,0.646-12.994,3.103-17.907,6.788v-74.149
	c0-27.798-22.885-50.683-50.683-50.683H154.57c-27.798,0-50.683,22.885-50.683,50.683v74.214
	c-4.978-3.685-11.119-6.788-17.907-6.788h-0.646c-2.457,0-4.978,1.228-6.788,2.457l-20.428,14.869l-20.428-14.869
	c-1.875-1.875-4.331-2.457-6.788-2.457h-0.646C12.994,215.725,0,229.947,0,246.626v76.671h16.679v72.339h82.877v-72.339h16.679
	v-50.683h15.451v123.022h132.267V272.614h15.451v50.683h16.679v72.339h82.812v-72.339h16.743v-76.671
	C395.636,229.947,382.642,215.725,365.317,214.497z M103.822,310.949H87.143v72.339H64.259V331.96H51.911v51.329H29.026v-72.339
	H12.347v-64.259c0-10.537,8.016-19.135,17.907-19.782l27.798,20.428l27.798-20.428c9.891,1.228,17.907,9.891,17.907,19.782v64.259
	H103.822z M279.402,260.267h-27.798v123.022h-47.58v-91.475h-12.347v91.475h-47.58V260.267h-27.798V147.135
	c0-21.01,17.325-38.335,38.335-38.335h86.562c21.01,0,38.335,17.325,38.335,38.335v113.131H279.402z M383.289,310.949H366.61v72.339
	h-22.885V331.96h-12.347v51.329h-22.885v-72.339h-16.679v-64.259c0-10.537,8.016-19.135,17.907-19.782l27.798,20.428l27.798-20.428
	c9.891,1.228,17.907,9.891,17.907,19.782v64.259H383.289z"/>
<circle style="fill:#FFFFFF;" cx="197.818" cy="42.667" r="36.461"/>
<g>
	<path style="fill:#193651;" d="M197.818,85.333c-23.467,0-42.667-19.135-42.667-42.667S174.287,0,197.818,0
		s42.667,19.135,42.667,42.667S221.285,85.333,197.818,85.333z M197.818,12.347c-16.679,0-30.319,13.576-30.319,30.319
		s13.576,30.319,30.319,30.319s30.319-13.576,30.319-30.319S214.497,12.347,197.818,12.347z"/>
	<rect x="154.57" y="158.255" style="fill:#193651;" width="12.347" height="12.347"/>
	<rect x="191.612" y="158.255" style="fill:#193651;" width="12.347" height="12.347"/>
	<rect x="228.719" y="158.255" style="fill:#193651;" width="12.347" height="12.347"/>
</g>
<g>
</g>
<g>
</g>
<g>
</g>
<g>
</g>
<g>
</g>
<g>
</g>
<g>
</g>
<g>
</g>
<g>
</g>
<g>
</g>
<g>
</g>
<g>
</g>
<g>
</g>
<g>
</g>
<g>
</g>
</svg>
