<?xml version="1.0" encoding="iso-8859-1"?>
<!-- Generator: Adobe Illustrator 19.0.0, SVG Export Plug-In . SVG Version: 6.00 Build 0)  -->
<svg version="1.1" id="Layer_1" xmlns="http://www.w3.org/2000/svg" xmlns:xlink="http://www.w3.org/1999/xlink" x="0px" y="0px"
	 viewBox="0 0 396.283 396.283" style="enable-background:new 0 0 396.283 396.283;" xml:space="preserve">
<path style="fill:#FFFFFF;" d="M365.317,136.598v202.796H30.901v-236.8H177.39v14.222c0,11.119,9.244,19.782,20.428,19.782h15.451
	v34.586l48.226-34.586L365.317,136.598L365.317,136.598z"/>
<path style="fill:#2EA2DB;" d="M340.622,136.598v171.248H55.661V126.707H180.17c3.556,5.947,10.214,9.891,17.713,9.891h15.451
	v34.586l48.226-34.586H340.622z"/>
<path style="fill:#FFFFFF;" d="M6.206,332.606c0,25.341,20.428,46.352,46.352,46.352h291.168c25.341,0,46.352-20.428,46.352-46.352
	H6.206z"/>
<g>
	<rect x="172.477" y="349.285" style="fill:#193651;" width="50.683" height="12.347"/>
	<rect x="249.729" y="349.285" style="fill:#193651;" width="12.347" height="12.347"/>
	<rect x="133.495" y="349.285" style="fill:#193651;" width="12.347" height="12.347"/>
</g>
<ellipse style="fill:#FFFFFF;" cx="139.701" cy="177.39" rx="29.673" ry="28.444"/>
<path style="fill:#193651;" d="M139.701,212.04c-19.782,0-35.879-15.451-35.879-34.651c0-19.135,16.097-34.586,35.879-34.586
	s35.879,15.451,35.879,34.586C175.58,196.59,159.483,212.04,139.701,212.04z M139.701,155.152c-12.994,0-23.467,9.891-23.467,22.238
	c0,12.347,10.537,22.238,23.467,22.238s23.467-9.891,23.467-22.238C163.168,165.042,152.695,155.152,139.701,155.152z"/>
<path style="fill:#FFFFFF;" d="M194.715,293.042v-16.097c0-29.673-24.76-53.786-55.661-53.786l0,0
	c-30.319,0-55.661,24.113-55.661,53.786v16.097H194.715z"/>
<g>
	<path style="fill:#193651;" d="M200.921,299.184H77.899v-22.238c0-32.776,27.798-59.992,61.802-59.992s61.802,26.57,61.802,59.992
		v22.238H200.921z M90.246,286.836h98.263v-9.891c0-25.988-22.238-47.58-49.455-47.58S89.6,250.376,89.6,276.945v9.891H90.246z"/>
	<rect x="249.729" y="194.133" style="fill:#193651;" width="58.699" height="12.347"/>
	<rect x="249.729" y="225.034" style="fill:#193651;" width="58.699" height="12.347"/>
	<rect x="249.729" y="255.935" style="fill:#193651;" width="58.699" height="12.347"/>
</g>
<path style="fill:#FFFFFF;" d="M369.067,16.679H197.818c-11.119,0-20.428,8.663-20.428,19.782v80.356
	c0,11.119,9.244,19.782,20.428,19.782h15.451v34.586l48.226-34.586h107.572c11.119,0,20.428-8.663,20.428-19.782V37.107
	C389.43,25.988,380.186,16.679,369.067,16.679z"/>
<g>
	<path style="fill:#193651;" d="M395.636,117.463V37.107c0-14.222-11.766-25.988-26.57-25.988H197.818
		c-14.804,0-26.57,11.766-26.57,25.988v59.345H24.76V326.4H0v6.206c0,29.026,23.467,52.558,52.558,52.558h291.168
		c29.026,0,52.558-23.467,52.558-52.558V326.4h-24.76v-182.95C385.099,142.158,395.636,131.038,395.636,117.463z M183.014,37.107
		c0-7.434,6.788-13.576,14.222-13.576h171.248c8.016,0,14.222,6.206,14.222,13.576v80.356c0,7.434-6.788,13.576-14.222,13.576
		H259.038l-40.21,28.444v-28.444h-21.01c-8.016,0-14.222-6.206-14.222-13.576V37.107H183.014z M343.079,372.751H52.558
		c-19.782,0-36.461-14.869-39.564-34.004h369.648C379.539,357.947,363.507,372.751,343.079,372.751z M37.107,326.4V108.8h134.141
		v8.663c0,14.222,11.766,25.988,26.57,25.988h9.244v40.145l56.242-40.21h95.224V326.4H37.107L37.107,326.4z"/>
	<rect x="312.824" y="70.465" style="fill:#193651;" width="12.347" height="11.766"/>
	<rect x="276.945" y="70.465" style="fill:#193651;" width="12.347" height="11.766"/>
	<rect x="241.067" y="70.465" style="fill:#193651;" width="12.347" height="11.766"/>
</g>
<g>
</g>
<g>
</g>
<g>
</g>
<g>
</g>
<g>
</g>
<g>
</g>
<g>
</g>
<g>
</g>
<g>
</g>
<g>
</g>
<g>
</g>
<g>
</g>
<g>
</g>
<g>
</g>
<g>
</g>
</svg>
