<?xml version="1.0" encoding="iso-8859-1"?>
<!-- Generator: Adobe Illustrator 19.0.0, SVG Export Plug-In . SVG Version: 6.00 Build 0)  -->
<svg version="1.1" id="Layer_1" xmlns="http://www.w3.org/2000/svg" xmlns:xlink="http://www.w3.org/1999/xlink" x="0px" y="0px"
	 viewBox="0 0 396.234 396.234" style="enable-background:new 0 0 396.234 396.234;" xml:space="preserve">
<circle style="fill:#F16051;" cx="180.509" cy="215.442" r="180.493"/>
<path id="SVGCleanerId_0" style="fill:#D3D7DA;" d="M9.907,361.931l23.467,24.113c4.978,4.978,12.994,4.978,17.325,0l100.137-98.909
	l-41.438-42.02L9.261,344.024C4.994,348.937,4.994,357.018,9.907,361.931z"/>
<circle style="fill:#FFFFFF;" cx="254.077" cy="141.875" r="135.37"/>
<circle style="fill:#E1E6E9;" cx="254.077" cy="141.875" r="110.675"/>
<path style="fill:#FFFFFF;" d="M144.048,141.875c61.22-73.568,159.483-73.568,220.703,0l0,0l0,0
	C303.531,215.442,205.269,215.442,144.048,141.875L144.048,141.875L144.048,141.875z"/>
<path id="SVGCleanerId_1" style="fill:#2EA2DB;" d="M195.378,141.875c0-22.885,12.994-42.02,31.547-52.558
	c18.554-3.685,37.107-3.685,55.014,0c18.554,9.891,31.547,29.673,31.547,52.558s-12.994,42.02-31.547,52.558
	c-18.554,3.685-37.107,3.685-55.014,0C207.725,183.895,195.378,164.113,195.378,141.875z"/>
<circle style="fill:#193651;" cx="254.077" cy="141.875" r="27.798"/>
<circle style="fill:#F16051;" cx="180.509" cy="215.442" r="180.493"/>
<g>
	<path id="SVGCleanerId_0_1_" style="fill:#D3D7DA;" d="M9.907,361.931l23.467,24.113c4.978,4.978,12.994,4.978,17.325,0
		l100.137-98.909l-41.438-42.02L9.261,344.024C4.994,348.937,4.994,357.018,9.907,361.931z"/>
</g>
<g>
	<path style="fill:#FFFFFF;" d="M145.923,229.665l-25.988,25.988l20.428,20.428l25.988-25.341
		C158.271,244.469,150.836,237.681,145.923,229.665z"/>
	<circle style="fill:#FFFFFF;" cx="254.077" cy="141.875" r="135.37"/>
</g>
<circle style="fill:#E1E6E9;" cx="254.077" cy="141.875" r="110.675"/>
<path style="fill:#FFFFFF;" d="M144.048,141.875c61.22,73.568,159.483,73.568,220.703,0
	C303.531,68.307,205.269,68.307,144.048,141.875z"/>
<g>
	<path id="SVGCleanerId_1_1_" style="fill:#2EA2DB;" d="M195.378,141.875c0-22.885,12.994-42.02,31.547-52.558
		c18.554-3.685,37.107-3.685,55.014,0c18.554,9.891,31.547,29.673,31.547,52.558s-12.994,42.02-31.547,52.558
		c-18.554,3.685-37.107,3.685-55.014,0C207.725,183.895,195.378,164.113,195.378,141.875z"/>
</g>
<g>
	<circle style="fill:#193651;" cx="254.077" cy="141.875" r="27.798"/>
	
		<rect x="95.899" y="287.601" transform="matrix(-0.7071 -0.7071 0.7071 -0.7071 -33.4814 573.6817)" style="fill:#193651;" width="12.347" height="12.347"/>
	
		<rect x="69.959" y="313.728" transform="matrix(0.7071 0.7071 -0.7071 0.7071 248.5033 39.863)" style="fill:#193651;" width="12.347" height="12.347"/>
	
		<rect x="44.044" y="339.819" transform="matrix(0.7071 0.7072 -0.7072 0.7071 259.3824 65.8439)" style="fill:#193651;" width="12.348" height="12.348"/>
	<path style="fill:#193651;" d="M254.4,0.299c-78.352,0-141.834,63.547-141.834,141.834c0,31.418,10.214,60.509,27.539,84.04
		l-20.752,20.752l-9.891-9.891L5.576,339.693c-7.434,7.434-7.434,19.135,0,26.57l23.467,24.113c3.685,3.103,8.016,5.56,13.576,5.56
		c4.978,0,9.309-1.875,12.994-5.56l104.469-103.24l-11.119-11.119l20.493-20.234c23.661,17.713,53.075,28.251,84.945,28.251
		c78.352,0,141.834-63.547,141.834-141.834C396.299,63.847,332.752,0.299,254.4,0.299z M47.014,381.713
		c-1.228,1.228-3.103,1.875-4.331,1.875c-1.875,0-3.103-0.646-4.331-1.875L14.885,357.6c-2.457-2.457-2.457-6.206,0-8.663
		l95.806-94.578l31.547,32.776L47.014,381.713z M140.364,267.354l-11.766-11.766l19.653-19.329
		c3.685,4.137,7.564,8.081,11.701,11.766L140.364,267.354z M254.4,271.103c-71.111,0-128.905-57.859-128.905-128.905
		c0-71.111,57.859-128.905,128.905-128.905c71.111,0,128.905,57.859,128.905,128.905C383.37,213.244,325.511,271.103,254.4,271.103z
		"/>
</g>
<g>
</g>
<g>
</g>
<g>
</g>
<g>
</g>
<g>
</g>
<g>
</g>
<g>
</g>
<g>
</g>
<g>
</g>
<g>
</g>
<g>
</g>
<g>
</g>
<g>
</g>
<g>
</g>
<g>
</g>
</svg>
