<?xml version="1.0" encoding="iso-8859-1"?>
<!-- Generator: Adobe Illustrator 19.0.0, SVG Export Plug-In . SVG Version: 6.00 Build 0)  -->
<svg version="1.1" id="Layer_1" xmlns="http://www.w3.org/2000/svg" xmlns:xlink="http://www.w3.org/1999/xlink" x="0px" y="0px"
	 viewBox="0 0 396.218 396.218" style="enable-background:new 0 0 396.218 396.218;" xml:space="preserve">
<g>
	<polyline style="fill:none;stroke:#193651;stroke-width:2;stroke-miterlimit:10;" points="6.206,213.56 45.123,133.204 
		83.459,213.56 	"/>
	<path style="fill:#FFFFFF;stroke:#193651;stroke-width:2;stroke-linejoin:round;stroke-miterlimit:10;" d="M6.206,213.56
		c1.228,20.428,17.907,36.461,38.917,36.461s37.689-16.097,38.917-36.461H6.206z"/>
	<polyline style="fill:none;stroke:#193651;stroke-width:2;stroke-miterlimit:10;" points="312.178,213.56 350.513,133.204 
		389.43,213.56 	"/>
	<path style="fill:#FFFFFF;stroke:#193651;stroke-width:2;stroke-miterlimit:10;" d="M276.299,102.885h-48.226
		c-9.244,4.331-19.135,7.434-30.319,7.434c-10.537,0-21.01-2.457-30.319-7.434h-48.226H20.945c-8.016,0-14.869,6.788-14.869,14.804
		l0,0c0,8.016,6.788,14.804,14.869,14.804h98.263v133.56h24.76v123.669h106.925V266.699h24.76V133.204h98.263
		c8.016,0,14.869-6.788,14.869-14.804l0,0c0-8.016-6.788-14.869-14.869-14.869h-97.616V102.885z"/>
</g>
<path id="SVGCleanerId_0" style="fill:#E1E6E9;" d="M166.271,242.004v123.022h63.03V242.004h24.76v-114.36h-26.57
	c-9.244,4.331-19.135,7.434-30.319,7.434c-10.537,0-21.01-2.457-30.319-7.434h-26.57v114.36H166.271z"/>
<g>
	
		<line style="fill:none;stroke:#193651;stroke-width:2;stroke-miterlimit:10;" x1="197.818" y1="389.721" x2="197.818" y2="292.105"/>
	<g>
		<circle style="fill:#FFFFFF;stroke:#193651;stroke-width:2;stroke-miterlimit:10;" cx="197.818" cy="42.958" r="36.461"/>
		<path style="fill:#FFFFFF;stroke:#193651;stroke-width:2;stroke-linejoin:round;stroke-miterlimit:10;" d="M312.178,213.56
			c1.228,20.428,17.907,36.461,38.917,36.461c20.428,0,37.689-16.097,38.917-36.461H312.178z"/>
	</g>
</g>
<g>
	<path style="fill:#FFFFFF;" d="M6.206,213.56c1.228,20.428,17.907,36.461,38.917,36.461s37.689-16.097,38.917-36.461H6.206z"/>
	<path style="fill:#FFFFFF;" d="M276.299,102.885h-48.226c-9.244,4.331-19.135,7.434-30.319,7.434
		c-10.537,0-21.01-2.457-30.319-7.434h-48.226H20.945c-8.016,0-14.869,6.788-14.869,14.804l0,0c0,8.016,6.788,14.804,14.869,14.804
		h98.263v133.56h24.76v123.669h106.925V266.699h24.76V133.204h98.263c8.016,0,14.869-6.788,14.869-14.804l0,0
		c0-8.016-6.788-14.869-14.869-14.869h-97.616V102.885z"/>
</g>
<g>
	<path id="SVGCleanerId_0_1_" style="fill:#E1E6E9;" d="M166.271,242.004v123.022h63.03V242.004h24.76v-114.36h-26.57
		c-9.244,4.331-19.135,7.434-30.319,7.434c-10.537,0-21.01-2.457-30.319-7.434h-26.57v114.36H166.271z"/>
</g>
<circle style="fill:#FFFFFF;" cx="197.818" cy="42.958" r="36.461"/>
<g>
	<path style="fill:#193651;" d="M197.818,85.624c-23.467,0-42.667-19.135-42.667-42.667s19.135-42.667,42.667-42.667
		s42.667,19.135,42.667,42.667S221.285,85.624,197.818,85.624z M197.818,12.638c-16.679,0-30.319,13.576-30.319,30.319
		s13.576,30.319,30.319,30.319s30.319-13.576,30.319-30.319S214.497,12.638,197.818,12.638z"/>
	<rect x="158.901" y="170.893" style="fill:#193651;" width="12.347" height="12.347"/>
	<rect x="191.612" y="170.893" style="fill:#193651;" width="12.347" height="12.347"/>
	<rect x="224.388" y="170.893" style="fill:#193651;" width="12.347" height="12.347"/>
</g>
<path style="fill:#FFFFFF;" d="M312.178,213.56c1.228,20.428,17.907,36.461,38.917,36.461c20.428,0,37.689-16.097,38.917-36.461
	H312.178z"/>
<path style="fill:#193651;" d="M394.99,210.457l-34.586-71.111h13.576c11.766,0,21.01-9.244,21.01-21.01s-9.244-21.01-21.01-21.01
	H226.263l-1.228,0.646c-17.325,8.663-37.107,8.663-54.368,0l-1.228-0.646H21.01C9.244,97.325,0,106.634,0,118.335
	c0,11.766,9.244,21.01,21.01,21.01h13.576L0.646,210.457l0,0C0,211.685,0,212.913,0,213.56c1.875,23.467,21.01,42.02,45.123,42.02
	c23.467,0,43.248-18.554,45.123-42.02c0-1.228,0-1.875-0.646-3.103l0,0L54.95,139.345h58.182V272.84h24.76v123.087h119.337V272.905
	h24.63V139.41h58.117l-33.358,71.111l0,0c-0.646,1.228-0.646,1.875-0.646,3.103c1.875,23.467,21.01,42.02,45.123,42.02
	s43.249-18.554,45.123-42.02C395.636,212.978,395.636,211.685,394.99,210.457L394.99,210.457z M45.123,147.426l29.026,59.345H16.097
	L45.123,147.426z M45.123,243.232c-14.869,0-27.798-9.891-31.547-24.113h63.03C72.339,233.341,59.992,243.232,45.123,243.232z
	 M270.158,126.998v133.495h-24.76v123.022H203.96v-91.41h-12.347v91.475h-41.438V260.558h-24.76v-133.56H21.01
	c-4.913,0-8.663-3.685-8.663-8.663c0-4.913,3.685-8.663,8.663-8.663h145.261c19.782,9.244,43.248,9.244,63.03,0h145.261
	c4.913,0,8.663,3.685,8.663,8.663c0,4.913-3.685,8.663-8.663,8.663H270.158z M379.539,207.354h-58.117l29.026-59.345
	L379.539,207.354z M350.513,243.232c-14.869,0-27.798-9.891-31.547-24.113h63.095C378.311,233.341,365.317,243.232,350.513,243.232z
	"/>
<g>
</g>
<g>
</g>
<g>
</g>
<g>
</g>
<g>
</g>
<g>
</g>
<g>
</g>
<g>
</g>
<g>
</g>
<g>
</g>
<g>
</g>
<g>
</g>
<g>
</g>
<g>
</g>
<g>
</g>
</svg>
