<?xml version="1.0" encoding="iso-8859-1"?>
<!-- Generator: Adobe Illustrator 19.0.0, SVG Export Plug-In . SVG Version: 6.00 Build 0)  -->
<svg version="1.1" id="Layer_1" xmlns="http://www.w3.org/2000/svg" xmlns:xlink="http://www.w3.org/1999/xlink" x="0px" y="0px"
	 viewBox="0 0 395.636 395.636" style="enable-background:new 0 0 395.636 395.636;" xml:space="preserve">
<circle style="fill:#FDBF5E;" cx="197.818" cy="200.921" r="194.715"/>
<g>
	<circle style="fill:#FFFFFF;" cx="197.818" cy="369.067" r="20.428"/>
	<rect x="47.58" y="42.667" style="fill:#FFFFFF;" width="300.412" height="247.919"/>
</g>
<rect x="72.339" y="67.362" style="fill:#4FBF9F;" width="250.958" height="198.465"/>
<g>
	<circle style="fill:#FFFFFF;" cx="197.818" cy="166.271" r="53.786"/>
	<path style="fill:#FFFFFF;" d="M389.43,40.792c0,26.57-24.76,34.651-34.586,34.651h-6.788V42.667H47.58v33.358h-6.788
		C21.657,75.378,6.206,59.927,6.206,40.792c0-9.244,3.685-18.554,10.537-24.76c6.206-6.206,14.869-9.891,24.76-9.891h314.053
		C373.98,6.206,389.43,21.657,389.43,40.792z"/>
</g>
<g>
	<path style="fill:#193651;" d="M204.024,343.079v-52.558h-12.347v52.558c-11.766,3.103-20.428,12.994-20.428,25.988
		c0,14.869,11.766,26.57,26.57,26.57c14.804,0,26.57-11.766,26.57-26.57C224.388,356.719,215.725,346.182,204.024,343.079z
		 M197.818,383.289c-8.016,0-14.222-6.206-14.222-14.222s6.206-14.222,14.222-14.222s14.222,6.206,14.222,14.222
		C212.04,377.083,205.834,383.289,197.818,383.289z"/>
	<path style="fill:#193651;" d="M354.844,0H40.792c-10.537,0-21.01,4.331-29.026,11.766C4.331,19.782,0,30.319,0,40.792
		c0,22.885,18.554,40.792,40.792,40.792h0.646v208.937h12.347V48.808H341.85v241.713h12.347V82.23h0.646
		c11.119,0,21.01-4.331,29.026-11.766c7.434-8.663,11.766-18.554,11.766-29.673C395.636,18.554,377.083,0,354.844,0z M375.208,61.22
		c-5.56,5.56-12.347,8.663-20.428,8.663h-0.646V36.525H41.438v33.358h-0.646c-15.451,0-28.444-12.994-28.444-29.026
		c0-7.434,3.103-14.869,8.663-20.428s12.347-8.016,19.782-8.016h314.052c15.451,0,28.444,12.994,28.444,28.444
		C383.289,48.808,380.186,55.661,375.208,61.22z"/>
</g>
<polygon style="fill:#F16051;" points="181.721,134.141 181.721,199.046 225.616,166.271 "/>
<g>
	<rect x="292.396" y="194.133" style="fill:#FFFFFF;" width="12.347" height="12.347"/>
	<rect x="292.396" y="160.129" style="fill:#FFFFFF;" width="12.347" height="12.347"/>
	<rect x="292.396" y="126.707" style="fill:#FFFFFF;" width="12.347" height="12.347"/>
	<rect x="90.893" y="194.133" style="fill:#FFFFFF;" width="12.347" height="12.347"/>
	<rect x="90.893" y="160.129" style="fill:#FFFFFF;" width="12.347" height="12.347"/>
	<rect x="90.893" y="126.707" style="fill:#FFFFFF;" width="12.347" height="12.347"/>
</g>
<g>
</g>
<g>
</g>
<g>
</g>
<g>
</g>
<g>
</g>
<g>
</g>
<g>
</g>
<g>
</g>
<g>
</g>
<g>
</g>
<g>
</g>
<g>
</g>
<g>
</g>
<g>
</g>
<g>
</g>
</svg>
