<?xml version="1.0" encoding="iso-8859-1"?>
<!-- Generator: Adobe Illustrator 19.0.0, SVG Export Plug-In . SVG Version: 6.00 Build 0)  -->
<svg version="1.1" id="Layer_1" xmlns="http://www.w3.org/2000/svg" xmlns:xlink="http://www.w3.org/1999/xlink" x="0px" y="0px"
	 viewBox="0 0 396.024 396.024" style="enable-background:new 0 0 396.024 396.024;" xml:space="preserve">
<g>
	<path style="fill:#FFFFFF;" d="M370.36,26.182c-25.988-25.988-68.008-25.988-93.996,0l93.996,94.578
		C396.348,94.125,396.348,52.105,370.36,26.182z"/>
	<path style="fill:#FFFFFF;" d="M26.053,25.535c-25.988,25.988-25.988,68.008,0,93.996L120.049,25.6
		C93.996,0.194,51.976,0.194,26.053,25.535z"/>
	<path style="fill:#FFFFFF;" d="M197.883,55.208L197.883,55.208c-92.121,0-167.499,74.796-167.499,166.917l0,0
		c0,92.703,75.442,167.499,167.499,167.499l0,0c92.121,0,167.499-74.796,167.499-167.499l0,0
		C365.382,130.004,290.004,55.208,197.883,55.208z"/>
</g>
<path style="fill:#4FBF9F;" d="M197.883,364.929c-78.481,0-142.804-63.677-142.804-142.804c0-78.481,63.677-142.804,142.804-142.804
	s142.804,63.677,142.804,142.804S276.364,364.929,197.883,364.929z"/>
<rect x="165.734" y="215.271" transform="matrix(0.8631 0.505 -0.505 0.8631 158.1505 -50.3258)" style="fill:#F16051;" width="12.347" height="102.592"/>
<g>
	<rect x="188.638" y="120.113" style="fill:#FFFFFF;" width="18.554" height="102.594"/>
	<rect x="197.883" y="212.881" style="fill:#FFFFFF;" width="71.111" height="18.554"/>
</g>
<path style="fill:#193651;" d="M370.36,128.776l4.331-4.331c28.444-28.444,28.444-74.214,0-102.594
	C360.469,7.628,342.562,0.194,322.78,0.194c-19.135,0-37.689,7.434-51.329,21.01l-4.331,4.331l46.998,46.998l-11.119,11.766
	c-29.026-22.238-65.552-35.232-105.115-35.232S122.44,62.061,92.768,84.299L81.002,72.533L128,25.535l-4.331-4.331
	C110.675,7.628,92.121,0.194,72.986,0.194c-19.782,0-37.689,7.434-51.329,21.01C7.434,35.426,0,53.333,0,73.115
	c0,19.135,7.434,37.689,21.01,51.329l4.331,4.331l46.998-46.998l10.537,10.537c-35.879,31.547-58.699,78.481-58.699,129.81
	c0,50.683,22.238,96.453,56.889,128.582l-34.586,34.586l9.244,8.663l35.232-35.232c29.673,22.885,66.715,37.107,106.925,37.107
	s77.253-13.576,106.925-37.107l35.232,35.232l8.663-8.663l-34.586-34.586c35.232-31.547,56.889-77.253,56.889-128.582
	c0-51.911-22.885-98.263-58.699-129.81l10.537-10.537L370.36,128.776z M26.053,110.869C17.39,100.331,12.477,86.756,12.477,73.18
	c0-16.097,6.206-31.547,17.907-42.667c11.119-11.766,26.57-17.907,42.667-17.907c14.222,0,27.216,4.978,38.335,13.576
	L26.053,110.869z M359.24,222.125c0,89.018-72.339,161.358-161.358,161.358S36.525,311.143,36.525,222.125
	c0-48.226,21.657-92.121,55.661-121.147l9.891-8.016c102.012-72.339,201.503,3.685,201.503,8.016
	C337.584,130.651,359.24,173.899,359.24,222.125z M285.026,26.182c10.537-8.663,24.113-13.576,37.689-13.576
	c16.097,0,31.547,6.206,42.667,17.907c22.238,22.238,23.467,56.889,4.331,81.002L285.026,26.182z"/>
<circle style="fill:#FFFFFF;" cx="197.883" cy="222.125" r="15.451"/>
<g>
	<path style="fill:#193651;" d="M197.883,243.782c-11.766,0-21.657-9.891-21.657-21.657c0-11.766,9.891-21.657,21.657-21.657
		c11.766,0,21.657,9.891,21.657,21.657C219.539,234.473,209.649,243.782,197.883,243.782z M197.883,212.881
		c-4.913,0-9.244,4.331-9.244,9.244s4.331,9.244,9.244,9.244s9.244-4.331,9.244-9.244
		C207.127,217.147,202.796,212.881,197.883,212.881z"/>
	<rect x="191.677" y="92.315" style="fill:#193651;" width="12.347" height="12.347"/>
	<rect x="191.677" y="340.17" style="fill:#193651;" width="12.347" height="12.347"/>
	
		<rect x="129.61" y="109.037" transform="matrix(-0.5 -0.866 0.866 -0.5 103.9028 290.4077)" style="fill:#193651;" width="12.347" height="12.347"/>
	
		<rect x="253.711" y="323.396" transform="matrix(0.5 0.866 -0.866 0.5 415.3529 -60.2837)" style="fill:#193651;" width="12.347" height="12.347"/>
	
		<rect x="84.235" y="154.057" transform="matrix(0.8661 0.4999 -0.4999 0.8661 92.205 -23.7376)" style="fill:#193651;" width="12.348" height="12.348"/>
	
		<rect x="299.164" y="278.433" transform="matrix(0.866 0.5001 -0.5001 0.866 183.2505 -114.551)" style="fill:#193651;" width="12.348" height="12.348"/>
	<rect x="67.426" y="215.919" style="fill:#193651;" width="12.347" height="12.347"/>
	<rect x="315.927" y="215.919" style="fill:#193651;" width="12.347" height="12.347"/>
	
		<rect x="84.033" y="278.121" transform="matrix(-0.866 0.5 -0.5 -0.866 310.4783 485.3954)" style="fill:#193651;" width="12.347" height="12.347"/>
	
		<rect x="299.205" y="154.298" transform="matrix(0.5 0.866 -0.866 0.5 291.6578 -184.2299)" style="fill:#193651;" width="12.347" height="12.347"/>
	
		<rect x="129.942" y="323.597" transform="matrix(-0.4999 0.8661 -0.8661 -0.4999 489.7694 376.7328)" style="fill:#193651;" width="12.348" height="12.348"/>
	
		<rect x="253.481" y="108.875" transform="matrix(-0.8661 -0.4999 0.4999 -0.8661 427.0273 344.4914)" style="fill:#193651;" width="12.348" height="12.348"/>
</g>
<g>
</g>
<g>
</g>
<g>
</g>
<g>
</g>
<g>
</g>
<g>
</g>
<g>
</g>
<g>
</g>
<g>
</g>
<g>
</g>
<g>
</g>
<g>
</g>
<g>
</g>
<g>
</g>
<g>
</g>
</svg>
