<?xml version="1.0" encoding="iso-8859-1"?>
<!-- Generator: Adobe Illustrator 19.0.0, SVG Export Plug-In . SVG Version: 6.00 Build 0)  -->
<svg version="1.1" id="Layer_1" xmlns="http://www.w3.org/2000/svg" xmlns:xlink="http://www.w3.org/1999/xlink" x="0px" y="0px"
	 viewBox="0 0 395.636 395.636" style="enable-background:new 0 0 395.636 395.636;" xml:space="preserve">
<path style="fill:#FFFFFF;" d="M284.962,115.556V17.875H99.556v97.681H22.885v214.497h338.166V115.556H284.962z M99.556,255.903
	L99.556,255.903h185.471l0,0H99.556z"/>
<g>
	<polygon style="fill:#FDBF5E;" points="191.03,95.192 197.172,107.539 211.394,109.414 200.921,119.305 203.378,132.881 
		191.03,126.675 179.265,132.881 181.139,119.305 171.248,109.414 184.824,107.539 	"/>
	<polygon style="fill:#FDBF5E;" points="149.01,184.21 155.152,196.558 168.792,198.432 158.901,208.323 161.358,221.899 
		149.01,215.693 136.598,221.899 139.119,208.323 129.228,198.432 142.804,196.558 	"/>
	<polygon style="fill:#FDBF5E;" points="235.507,184.21 241.713,196.558 255.935,198.432 246.044,208.323 247.919,221.899 
		235.507,215.693 223.806,221.899 225.616,208.323 215.725,198.432 229.947,196.558 	"/>
</g>
<polygon style="fill:#2EA2DB;" points="291.168,140.315 291.168,255.903 93.349,255.903 93.349,140.315 47.58,140.315 
	47.58,305.358 336.291,305.358 336.291,140.315 "/>
<g>
	<rect x="159.483" y="347.378" style="fill:#193651;" width="12.347" height="12.347"/>
	<rect x="191.612" y="347.378" style="fill:#193651;" width="12.347" height="12.347"/>
	<rect x="223.806" y="347.378" style="fill:#193651;" width="12.347" height="12.347"/>
</g>
<g>
	<polygon style="fill:#FDBF5E;" points="191.03,95.192 197.172,107.539 211.394,109.414 200.921,119.305 203.378,132.881 
		191.03,126.675 179.265,132.881 181.139,119.305 171.248,109.414 184.824,107.539 	"/>
	<polygon style="fill:#FDBF5E;" points="149.01,184.21 155.152,196.558 168.792,198.432 158.901,208.323 161.358,221.899 
		149.01,215.693 136.598,221.899 139.119,208.323 129.228,198.432 142.804,196.558 	"/>
	<polygon style="fill:#FDBF5E;" points="235.507,184.21 241.713,196.558 255.935,198.432 246.044,208.323 247.919,221.899 
		235.507,215.693 223.806,221.899 225.616,208.323 215.725,198.432 229.947,196.558 	"/>
</g>
<g>
	<rect x="129.81" y="63.644" style="fill:#193651;" width="120.566" height="12.347"/>
	<rect x="129.228" y="152.663" style="fill:#193651;" width="120.566" height="12.347"/>
	<path style="fill:#193651;" d="M367.192,323.911V109.414h-76.024V11.733H93.349v97.681H16.679v214.497H0v6.206
		c0,29.673,23.467,53.786,52.558,53.786h290.521c29.026,0,52.558-24.113,52.558-53.786v-6.206H367.192z M29.026,121.762h64.323
		v134.141h12.347V24.081H278.82v231.822h12.347V121.762h63.677v202.149H29.026V121.762z M343.725,371.491H52.558
		c-19.782,0-36.461-15.451-39.564-35.232h370.295C380.186,356.04,363.507,371.491,343.725,371.491z"/>
</g>
<g>
</g>
<g>
</g>
<g>
</g>
<g>
</g>
<g>
</g>
<g>
</g>
<g>
</g>
<g>
</g>
<g>
</g>
<g>
</g>
<g>
</g>
<g>
</g>
<g>
</g>
<g>
</g>
<g>
</g>
</svg>
