<?xml version="1.0" encoding="iso-8859-1"?>
<!-- Generator: Adobe Illustrator 19.0.0, SVG Export Plug-In . SVG Version: 6.00 Build 0)  -->
<svg version="1.1" id="Layer_1" xmlns="http://www.w3.org/2000/svg" xmlns:xlink="http://www.w3.org/1999/xlink" x="0px" y="0px"
	 viewBox="0 0 396.929 396.929" style="enable-background:new 0 0 396.929 396.929;" xml:space="preserve">
<polygon style="fill:#FFFFFF;" points="390.077,231.822 390.077,391.305 6.853,391.305 6.853,231.822 74.861,231.822 
	74.861,304.808 323.362,304.808 323.362,231.822 "/>
<path style="fill:#E1E6E9;" d="M273.907,157.026h-40.792c-9.244,9.244-20.428,14.869-34.004,14.869
	c-12.347,0-24.113-6.206-33.358-14.869h-41.438c-27.216,0-49.455,20.428-49.455,45.123v102.659h248.501V202.15
	C323.362,177.455,301.059,157.026,273.907,157.026z"/>
<g>
	<polygon style="fill:#FDBF5E;" points="319.03,335.063 323.943,346.182 336.291,347.475 327.693,356.073 329.503,368.485 
		319.03,362.279 307.911,368.485 309.721,356.073 301.059,347.475 313.471,346.182 	"/>
	<polygon style="fill:#FDBF5E;" points="77.899,335.063 83.459,346.182 95.871,347.475 87.208,356.073 89.018,368.485 
		77.899,362.279 67.426,368.485 69.236,356.073 60.638,347.475 72.986,346.182 	"/>
	<polygon style="fill:#FDBF5E;" points="138.473,335.063 143.451,346.182 155.798,347.475 147.135,356.073 149.01,368.485 
		138.473,362.279 127.354,368.485 129.875,356.073 120.566,347.475 132.913,346.182 	"/>
	<polygon style="fill:#FDBF5E;" points="198.465,335.063 204.024,346.182 215.79,347.475 207.127,356.073 209.584,368.485 
		198.465,362.279 187.345,368.485 189.802,356.073 181.139,347.475 192.905,346.182 	"/>
	<polygon style="fill:#FDBF5E;" points="258.457,335.063 264.016,346.182 276.364,347.475 267.055,356.073 269.576,368.485 
		258.457,362.279 247.919,368.485 249.794,356.073 241.131,347.475 253.479,346.182 	"/>
</g>
<polygon style="fill:#2EA2DB;" points="144.679,279.467 140.347,230.012 256.582,230.012 252.251,279.467 "/>
<path style="fill:#FFFFFF;" d="M245.463,60.638v38.917c0,22.885-18.554,41.438-41.438,41.438h-6.788
	c-22.885,0-41.438-18.554-41.438-41.438V71.046c1.487-5.042,5.366-8.986,10.408-10.408
	C166.206,60.638,245.463,60.638,245.463,60.638z"/>
<path style="fill:#F16051;" d="M244.234,5.624h-51.911c-30.319,0-54.432,24.113-54.432,54.432v12.994
	c0,9.244,8.016,17.325,17.325,17.325l0,0V75.507c0-8.663,6.788-15.451,15.451-15.451h72.339c14.869,0,27.798-11.766,28.444-26.57
	C272.032,18.554,259.685,5.624,244.234,5.624z"/>
<g>
	<polygon style="fill:#FDBF5E;" points="319.03,335.063 323.943,346.182 336.291,347.475 327.693,356.073 329.503,368.485 
		319.03,362.279 307.911,368.485 309.721,356.073 301.059,347.475 313.471,346.182 	"/>
	<polygon style="fill:#FDBF5E;" points="77.899,335.063 83.459,346.182 95.871,347.475 87.208,356.073 89.018,368.485 
		77.899,362.279 67.426,368.485 69.236,356.073 60.638,347.475 72.986,346.182 	"/>
	<polygon style="fill:#FDBF5E;" points="138.473,335.063 143.451,346.182 155.798,347.475 147.135,356.073 149.01,368.485 
		138.473,362.279 127.354,368.485 129.875,356.073 120.566,347.475 132.913,346.182 	"/>
	<polygon style="fill:#FDBF5E;" points="198.465,335.063 204.024,346.182 215.79,347.475 207.127,356.073 209.584,368.485 
		198.465,362.279 187.345,368.485 189.802,356.073 181.139,347.475 192.905,346.182 	"/>
	<polygon style="fill:#FDBF5E;" points="258.457,335.063 264.016,346.182 276.364,347.475 267.055,356.073 269.576,368.485 
		258.457,362.279 247.919,368.485 249.794,356.073 241.131,347.475 253.479,346.182 	"/>
</g>
<polygon style="fill:#FFFFFF;" points="113.131,205.899 122.44,304.808 274.489,304.808 283.798,205.899 "/>
<path style="fill:#193651;" d="M329.503,225.681v-22.885c0-28.444-25.341-51.329-55.661-51.329h-43.248l-1.875,1.875
	c-9.244,8.663-19.135,13.576-29.673,13.576c-12.994,0-22.885-7.434-29.026-13.576l-2.457-2.457h-43.895
	c-30.901,0-55.661,22.885-55.661,51.329v22.885H0.646v171.83h395.636V225.681H329.503z M123.022,163.232h38.917
	c11.119,9.891,23.467,14.869,35.879,14.869c12.994,0,25.988-4.913,36.461-14.869h38.335c24.113,0,43.248,17.325,43.248,38.917
	v95.224H280.63l9.244-98.909H106.279l9.244,98.909H79.644V202.15l0,0C79.774,180.558,99.556,163.232,123.022,163.232z
	 M119.984,211.459H277.01l-8.081,86.562H128L119.984,211.459z M383.935,385.164H12.994V238.028h54.432v59.992H47.644v12.347h19.782
	h261.495h21.01V298.02h-21.01v-59.992h55.014L383.935,385.164L383.935,385.164z"/>
<polygon style="fill:#2EA2DB;" points="140.347,230.012 144.679,279.467 252.251,279.467 256.582,230.012 "/>
<g>
	<rect x="159.547" y="248.566" style="fill:#193651;" width="12.347" height="12.347"/>
	<rect x="192.259" y="248.566" style="fill:#193651;" width="12.347" height="12.347"/>
	<rect x="225.034" y="248.566" style="fill:#193651;" width="12.347" height="12.347"/>
</g>
<path style="fill:#F16051;" d="M244.234,5.624h-51.911c-30.319,0-54.368,24.113-54.368,54.368v12.994
	c0,9.244,8.016,17.325,17.325,17.325V75.442c0-8.663,6.788-15.451,15.451-15.451h72.339c14.869,0,27.798-11.766,28.444-26.57
	C272.032,18.554,259.685,5.624,244.234,5.624z"/>
<path style="fill:#193651;" d="M244.816,0h-51.911c-33.358,0-60.574,27.216-60.574,60.574v12.994
	c0,10.861,7.305,19.976,17.325,22.691v2.069c0,25.988,21.657,47.58,47.58,47.58h6.788c25.988,0,47.58-21.657,46.998-46.998V65.358
	c15.063-3.168,26.634-15.903,27.216-31.354C278.82,25.406,272.743,0.711,244.816,0z M239.257,98.909
	c0,19.135-16.097,35.232-35.232,35.232h-6.788c-19.135,0-35.232-16.097-35.232-35.232V75.442c0-4.978,4.331-9.244,9.244-9.244
	h68.008L239.257,98.909L239.257,98.909z M243.588,53.786h-72.339l0,0l0,0c-11.766,0-21.592,9.891-21.592,21.657v6.788
	c-3.103-1.875-4.978-5.56-4.978-9.244V59.992c0-26.57,21.657-48.226,48.226-48.226h51.911c17.778,0.776,21.01,16.097,21.01,21.657
	C265.244,44.541,255.354,53.786,243.588,53.786z"/>
<g>
</g>
<g>
</g>
<g>
</g>
<g>
</g>
<g>
</g>
<g>
</g>
<g>
</g>
<g>
</g>
<g>
</g>
<g>
</g>
<g>
</g>
<g>
</g>
<g>
</g>
<g>
</g>
<g>
</g>
</svg>
