<?xml version="1.0" encoding="iso-8859-1"?>
<!-- Generator: Adobe Illustrator 19.0.0, SVG Export Plug-In . SVG Version: 6.00 Build 0)  -->
<svg version="1.1" id="Layer_1" xmlns="http://www.w3.org/2000/svg" xmlns:xlink="http://www.w3.org/1999/xlink" x="0px" y="0px"
	 viewBox="0 0 395.636 395.636" style="enable-background:new 0 0 395.636 395.636;" xml:space="preserve">
<circle style="fill:#4FBF9F;" cx="197.818" cy="197.818" r="173.123"/>
<rect x="118.044" y="6.206" style="fill:#FFFFFF;" width="159.483" height="96.453"/>
<rect x="142.804" y="30.901" style="fill:#F16051;" width="110.028" height="46.998"/>
<g>
	<rect x="158.901" y="48.549" style="fill:#193651;" width="12.347" height="11.766"/>
	<rect x="191.612" y="48.549" style="fill:#193651;" width="12.347" height="11.766"/>
	<rect x="224.388" y="48.549" style="fill:#193651;" width="12.347" height="11.766"/>
</g>
<g>
	<rect x="293.624" y="186.053" style="fill:#FFFFFF;" width="95.806" height="52.558"/>
	<rect x="150.238" y="186.053" style="fill:#FFFFFF;" width="95.806" height="52.558"/>
	<rect x="6.206" y="186.053" style="fill:#FFFFFF;" width="95.806" height="52.558"/>
</g>
<g>
	<rect x="221.931" y="336.291" style="fill:#FDBF5E;" width="95.806" height="52.558"/>
	<rect x="77.899" y="336.291" style="fill:#FDBF5E;" width="95.806" height="52.558"/>
</g>
<path style="fill:#193651;" d="M287.483,179.911v64.905h108.154v-64.905h-47.58v-42.02H204.024v-29.673h79.774V0H111.903v108.8
	h79.774v29.673H46.998v42.02H0v64.905h108.154v-65.487H59.345v-29.673h132.267v29.673h-47.58v64.905h47.58v30.319h-80.937v55.014
	H71.758v65.487h108.154v-64.905h-56.889v-42.667h148.364v42.667h-55.661v64.905h108.154v-64.905h-40.21v-55.014h-79.644v-30.319
	h47.58v-65.487h-47.58v-29.673h131.685v29.673H287.483L287.483,179.911z M124.251,12.347h147.135v84.105H124.251V12.347z
	 M95.806,233.051H12.347v-40.21h83.459C95.806,192.84,95.806,233.051,95.806,233.051z M167.499,383.289H84.105v-40.21h83.459v40.21
	H167.499z M311.596,383.289h-83.459v-40.21h83.459V383.289z M239.257,233.051H156.38v-40.21h83.459v40.21H239.257z M383.289,233.051
	H299.83v-40.21h83.459V233.051z"/>
<g>
</g>
<g>
</g>
<g>
</g>
<g>
</g>
<g>
</g>
<g>
</g>
<g>
</g>
<g>
</g>
<g>
</g>
<g>
</g>
<g>
</g>
<g>
</g>
<g>
</g>
<g>
</g>
<g>
</g>
</svg>
