<?xml version="1.0" encoding="iso-8859-1"?>
<!-- Generator: Adobe Illustrator 19.0.0, SVG Export Plug-In . SVG Version: 6.00 Build 0)  -->
<svg version="1.1" id="Layer_1" xmlns="http://www.w3.org/2000/svg" xmlns:xlink="http://www.w3.org/1999/xlink" x="0px" y="0px"
	 viewBox="0 0 395.636 395.636" style="enable-background:new 0 0 395.636 395.636;" xml:space="preserve">
<g>
	<polygon style="fill:#FFFFFF;" points="345.535,378.311 6.206,378.311 6.206,85.333 345.535,19.135 	"/>
	<rect x="6.206" y="85.333" style="fill:#FFFFFF;" width="383.289" height="293.042"/>
</g>
<rect x="30.901" y="110.028" style="fill:#FDBF5E;" width="333.834" height="243.588"/>
<g>
	<rect x="319.612" y="310.949" style="fill:#193651;" width="6.206" height="12.347"/>
	<path style="fill:#193651;" d="M307.846,323.297h-11.766v-12.347h11.766V323.297z M284.38,323.297h-12.347v-12.347h12.347V323.297z
		 M260.267,323.297h-11.766v-12.347h11.766V323.297z M236.735,323.297H224.97v-12.347h11.766V323.297z M213.269,323.297h-11.766
		v-12.347h11.766V323.297z M189.802,323.297h-11.766v-12.347h11.766V323.297z M165.689,323.297h-11.766v-12.347h11.766V323.297z
		 M142.158,323.297h-11.766v-12.347h11.766V323.297z M118.691,323.297h-11.766v-12.347h11.766V323.297z M95.224,323.297H83.459
		v-12.347h11.766V323.297z"/>
	<rect x="59.345" y="310.949" style="fill:#193651;" width="12.347" height="12.347"/>
	<path style="fill:#193651;" d="M71.693,298.602H59.345v-12.347h12.347V298.602z M71.693,274.489H59.345v-12.348h12.347V274.489z
		 M71.693,249.729H59.345v-12.347h12.347V249.729z M71.693,225.616H59.345v-12.347h12.347V225.616z M71.693,201.503H59.345v-12.347
		h12.347V201.503z M71.693,176.808H59.345v-12.347h12.347V176.808z"/>
	<rect x="59.345" y="140.347" style="fill:#193651;" width="12.347" height="12.347"/>
	<path style="fill:#193651;" d="M307.846,152.695h-11.766v-12.347h11.766V152.695z M284.38,152.695h-12.347v-12.347h12.347V152.695z
		 M260.267,152.695h-11.766v-12.347h11.766V152.695z M236.735,152.695H224.97v-12.347h11.766V152.695z M213.269,152.695h-11.766
		v-12.347h11.766V152.695z M189.802,152.695h-11.766v-12.347h11.766V152.695z M165.689,152.695h-11.766v-12.347h11.766V152.695z
		 M142.158,152.695h-11.766v-12.347h11.766V152.695z M118.691,152.695h-11.766v-12.347h11.766V152.695z M95.224,152.695H83.459
		v-12.347h11.766V152.695z"/>
	<rect x="319.612" y="140.347" style="fill:#193651;" width="6.206" height="12.347"/>
</g>
<rect x="240.485" y="195.943" style="fill:#FFFFFF;" width="149.01" height="71.111"/>
<path style="fill:#193651;" d="M351.741,79.127V11.119L5.56,78.481H0v1.875v304.162h351.741h43.895V79.127H351.741z M339.394,26.57
	v52.558H69.883L339.394,26.57z M383.289,260.848H246.626V202.15h136.598v58.699H383.289z M383.289,189.802h-149.01v83.459h149.01
	v98.263H12.347V91.475h370.941L383.289,189.802L383.289,189.802z"/>
<circle style="fill:#2EA2DB;" cx="270.739" cy="231.822" r="11.766"/>
<g>
</g>
<g>
</g>
<g>
</g>
<g>
</g>
<g>
</g>
<g>
</g>
<g>
</g>
<g>
</g>
<g>
</g>
<g>
</g>
<g>
</g>
<g>
</g>
<g>
</g>
<g>
</g>
<g>
</g>
</svg>
