<?xml version="1.0" encoding="iso-8859-1"?>
<!-- Generator: Adobe Illustrator 19.0.0, SVG Export Plug-In . SVG Version: 6.00 Build 0)  -->
<svg version="1.1" id="Layer_1" xmlns="http://www.w3.org/2000/svg" xmlns:xlink="http://www.w3.org/1999/xlink" x="0px" y="0px"
	 viewBox="0 0 395.636 395.636" style="enable-background:new 0 0 395.636 395.636;" xml:space="preserve">
<path style="fill:#FDBF5E;" d="M197.818,389.43L197.818,389.43c-105.697,0-191.612-85.915-191.612-191.612l0,0
	C6.206,92.121,92.121,6.206,197.818,6.206l0,0c105.697,0,191.612,85.915,191.612,191.612l0,0
	C389.43,303.515,303.515,389.43,197.818,389.43z"/>
<path style="fill:#193651;" d="M197.818,395.636C89.018,395.636,0,306.618,0,197.818S89.018,0,197.818,0
	s197.818,89.018,197.818,197.818S306.618,395.636,197.818,395.636z M197.818,12.347c-102.012,0-185.471,83.459-185.471,185.471
	s83.459,185.471,185.471,185.471s185.471-83.459,185.471-185.471S299.83,12.347,197.818,12.347z"/>
<path style="fill:#FFFFFF;" d="M197.56,364.735c-92.121,0-166.917-74.796-166.917-166.917S105.438,30.901,197.56,30.901
	s166.917,74.796,166.917,166.917S289.681,364.735,197.56,364.735z"/>
<g>
	<rect x="191.612" y="45.123" style="fill:#193651;" width="12.347" height="21.657"/>
	<rect x="191.612" y="328.275" style="fill:#193651;" width="12.347" height="21.657"/>
	
		<rect x="291.942" y="88.881" transform="matrix(-0.7071 0.7071 -0.7071 -0.7071 579.3299 -49.8562)" style="fill:#193651;" width="16.097" height="12.347"/>
	
		<rect x="87.71" y="293.813" transform="matrix(-0.7071 0.7071 -0.7071 -0.7071 375.5917 444.3982)" style="fill:#193651;" width="16.097" height="12.347"/>
	<rect x="328.857" y="191.612" style="fill:#193651;" width="21.657" height="12.347"/>
	<rect x="45.123" y="191.612" style="fill:#193651;" width="21.657" height="12.347"/>
	
		<rect x="291.824" y="293.486" transform="matrix(0.7071 0.7071 -0.7071 0.7071 299.7222 -124.2736)" style="fill:#193651;" width="16.097" height="12.347"/>
	
		<rect x="87.334" y="88.808" transform="matrix(-0.7071 -0.7071 0.7071 -0.7071 95.6664 229.5899)" style="fill:#193651;" width="16.097" height="12.347"/>
</g>
<g>
	<path style="fill:#1C76A3;" d="M281.147,122.699c0,2.133-0.776,4.331-2.327,5.883l-63.418,63.354
		c-1.81-5.56-6.206-9.891-11.766-11.766l63.354-63.418c3.103-3.103,8.663-3.103,11.766,0
		C280.372,118.368,281.147,120.566,281.147,122.699z"/>
	<path style="fill:#1C76A3;" d="M197.818,280.048c-4.978,0-8.663-3.685-8.663-8.663v-57.147c2.586,1.358,5.495,2.133,8.663,2.133
		c2.909,0,5.624-0.646,8.016-1.81v57.471C206.481,276.299,202.796,280.048,197.818,280.048z"/>
</g>
<path style="fill:#CC432B;" d="M189.349,181.333c-3.426,1.745-6.271,4.59-8.016,8.016l-68.202-68.202
	c-2.457-2.457-2.457-5.56,0-8.016c1.228-1.228,2.651-1.875,4.008-1.875c1.358,0,2.78,0.646,4.008,1.875L189.349,181.333z"/>
<circle style="fill:#FFFFFF;" cx="197.818" cy="197.818" r="18.554"/>
<path style="fill:#193651;" d="M197.818,222.578c-13.576,0-24.76-11.119-24.76-24.76c0-13.64,11.119-24.76,24.76-24.76
	c13.64,0,24.76,11.119,24.76,24.76C222.578,211.459,211.394,222.578,197.818,222.578z M197.818,185.471
	c-6.788,0-12.347,5.56-12.347,12.347c0,6.788,5.56,12.347,12.347,12.347c6.788,0,12.347-5.56,12.347-12.347
	C210.166,191.03,204.606,185.471,197.818,185.471z"/>
<g>
</g>
<g>
</g>
<g>
</g>
<g>
</g>
<g>
</g>
<g>
</g>
<g>
</g>
<g>
</g>
<g>
</g>
<g>
</g>
<g>
</g>
<g>
</g>
<g>
</g>
<g>
</g>
<g>
</g>
</svg>
