<?xml version="1.0" encoding="iso-8859-1"?>
<!-- Generator: Adobe Illustrator 19.0.0, SVG Export Plug-In . SVG Version: 6.00 Build 0)  -->
<svg version="1.1" id="Layer_1" xmlns="http://www.w3.org/2000/svg" xmlns:xlink="http://www.w3.org/1999/xlink" x="0px" y="0px"
	 viewBox="0 0 395.636 395.636" style="enable-background:new 0 0 395.636 395.636;" xml:space="preserve">
<g>
	<polygon style="fill:#FFFFFF;" points="389.43,61.77 389.43,117.43 135.37,117.43 110.028,142.772 6.206,142.772 6.206,43.216 
		108.154,43.216 132.267,61.77 	"/>
	<polygon style="fill:#FFFFFF;" points="389.43,61.77 389.43,117.43 135.37,117.43 110.028,142.772 6.206,142.772 6.206,43.216 
		108.154,43.216 132.267,61.77 	"/>
</g>
<polygon style="fill:#D3D7DA;" points="364.735,88.986 364.735,117.43 135.37,117.43 110.028,142.772 30.901,142.772 30.901,122.99 
	64.259,88.986 "/>
<polygon style="fill:#FFFFFF;" points="389.43,352.356 6.206,352.356 6.206,142.772 110.028,142.772 135.37,117.43 389.43,117.43 
	"/>
<path style="fill:#193651;" d="M134.788,55.628l-24.113-18.554H0v321.487h395.636V55.628H134.788z M383.289,346.149H12.347V148.978
	h100.137l25.988-25.988h244.816V346.149z M383.289,111.224H132.913l-25.988,25.988H12.347v-87.79h93.996l24.113,18.554h252.832
	V111.224z"/>
<polygon style="fill:#FDBF5E;" points="30.901,327.596 30.901,174.319 114.36,174.319 147.135,142.125 364.735,142.125 
	364.735,327.596 "/>
<g>
	<rect x="55.661" y="289.907" style="fill:#193651;" width="12.347" height="12.347"/>
	<rect x="88.372" y="289.907" style="fill:#193651;" width="12.347" height="12.347"/>
	<rect x="120.566" y="289.907" style="fill:#193651;" width="12.347" height="12.347"/>
</g>
<polygon style="fill:#ECF0F3;" points="30.901,122.99 64.323,122.99 64.323,88.986 "/>
<g>
	<rect x="234.279" y="160.679" style="fill:#193651;" width="99.556" height="12.347"/>
	<rect x="234.279" y="191.58" style="fill:#193651;" width="99.556" height="12.347"/>
	<rect x="234.279" y="221.899" style="fill:#193651;" width="99.556" height="12.347"/>
</g>
<g>
</g>
<g>
</g>
<g>
</g>
<g>
</g>
<g>
</g>
<g>
</g>
<g>
</g>
<g>
</g>
<g>
</g>
<g>
</g>
<g>
</g>
<g>
</g>
<g>
</g>
<g>
</g>
<g>
</g>
</svg>
