<?xml version="1.0" encoding="iso-8859-1"?>
<!-- Generator: Adobe Illustrator 19.0.0, SVG Export Plug-In . SVG Version: 6.00 Build 0)  -->
<svg version="1.1" id="Layer_1" xmlns="http://www.w3.org/2000/svg" xmlns:xlink="http://www.w3.org/1999/xlink" x="0px" y="0px"
	 viewBox="0 0 395.726 395.726" style="enable-background:new 0 0 395.726 395.726;" xml:space="preserve">
<path style="fill:#FFFFFF;" d="M286.836,6.251H18.554c-6.788,0-12.347,5.56-12.347,12.347v358.529
	c0,6.788,5.56,12.347,12.347,12.347h268.283c6.788,0,12.347-5.56,12.347-12.347V18.598C299.184,11.81,293.624,6.251,286.836,6.251z"
	/>
<rect x="30.901" y="76.715" style="fill:#2EA2DB;" width="243.588" height="233.05"/>
<polygon style="fill:#FFFFFF;" points="126.125,165.087 92.703,165.087 92.703,220.748 126.125,220.748 126.125,221.329 
	212.04,274.534 212.04,111.948 "/>
<g>
	<path style="fill:#193651;" d="M364.089,117.83l-8.663,8.663c36.461,36.461,36.461,96.453,0,132.913l9.244,8.663
		C406.174,226.63,406.174,159.204,364.089,117.83z"/>
	<path style="fill:#193651;" d="M335.063,141.944l-8.663,8.663c23.467,23.467,23.467,61.802,0,85.333l8.663,8.663
		C363.507,216.093,363.507,169.742,335.063,141.944z"/>
	<path style="fill:#193651;" d="M286.836,0.045H18.554C8.016,0.045,0,8.061,0,18.598v309.721v48.808
		c0,10.537,8.016,18.554,18.554,18.554h268.283c10.537,0,18.554-8.016,18.554-18.554v-48.808V18.598
		C305.39,8.061,296.727,0.045,286.836,0.045z M293.042,377.127c0,3.685-2.457,6.206-6.206,6.206H18.554
		c-3.685,0-6.206-2.457-6.206-6.206v-36.461h280.63v36.461H293.042z M293.042,328.319H12.347V58.162h280.63v270.158H293.042z
		 M293.042,45.814H12.347V18.598c0-3.685,2.457-6.206,6.206-6.206h268.283c3.685,0,6.206,2.457,6.206,6.206L293.042,45.814
		L293.042,45.814z"/>
	<rect x="131.362" y="22.929" style="fill:#193651;" width="42.667" height="12.347"/>
	<rect x="131.038" y="356.117" style="fill:#193651;" width="42.667" height="12.347"/>
	<rect x="192.905" y="356.117" style="fill:#193651;" width="12.347" height="12.347"/>
	<rect x="100.137" y="356.117" style="fill:#193651;" width="12.347" height="12.347"/>
	<path style="fill:#193651;" d="M218.246,285.006V100.764l-93.931,58.117H86.626v68.008h37.689L218.246,285.006z M132.267,168.837
		l73.568-45.77v140.347l-73.568-45.77C132.267,217.645,132.267,168.837,132.267,168.837z M119.919,214.542h-21.01v-43.248h21.01
		V214.542z"/>
</g>
<g>
</g>
<g>
</g>
<g>
</g>
<g>
</g>
<g>
</g>
<g>
</g>
<g>
</g>
<g>
</g>
<g>
</g>
<g>
</g>
<g>
</g>
<g>
</g>
<g>
</g>
<g>
</g>
<g>
</g>
</svg>
