<?xml version="1.0" encoding="iso-8859-1"?>
<!-- Generator: Adobe Illustrator 19.0.0, SVG Export Plug-In . SVG Version: 6.00 Build 0)  -->
<svg version="1.1" id="Layer_1" xmlns="http://www.w3.org/2000/svg" xmlns:xlink="http://www.w3.org/1999/xlink" x="0px" y="0px"
	 viewBox="0 0 395.636 395.636" style="enable-background:new 0 0 395.636 395.636;" xml:space="preserve">
<rect x="6.206" y="6.206" style="fill:#FFFFFF;" width="383.289" height="383.289"/>
<path style="fill:#193651;" d="M395.636,395.636H0V0h395.636V395.636z M12.347,383.289h370.941V12.347H12.347V383.289z"/>
<rect x="37.107" y="37.107" style="fill:#2EA2DB;" width="321.487" height="321.487"/>
<path style="fill:#FFFFFF;" d="M313.406,270.158l-71.693-72.339l72.339-72.339c12.347-12.347,12.347-31.547,0-43.895l0,0
	c-12.347-12.347-31.547-12.347-43.895,0l-72.339,72.339L125.479,82.23c-12.347-12.347-31.547-12.347-43.895,0
	s-12.347,31.547,0,43.895l72.339,71.693L82.23,270.158c-12.347,12.347-12.347,31.547,0,43.895l0,0
	c12.347,12.347,31.547,12.347,43.895,0l71.693-72.339l72.339,72.339c12.347,12.347,31.547,12.347,43.895,0
	C325.754,301.64,325.754,281.859,313.406,270.158z"/>
<g>
	<path style="fill:#193651;" d="M317.737,265.826l-68.008-68.008l68.008-68.008c14.222-14.222,14.222-37.689,0-52.558
		c-6.788-6.788-16.097-11.119-25.988-11.119c-9.891,0-19.135,3.685-25.988,11.119l-67.943,68.008L129.81,77.253
		c-6.788-6.788-16.097-11.119-25.988-11.119s-19.135,3.685-25.988,11.119c-6.788,6.788-11.119,16.097-11.119,25.988
		s3.685,19.135,11.119,25.988l68.073,67.943L77.899,265.18c-6.788,6.788-11.119,16.097-11.119,25.988s3.685,19.135,11.119,25.988
		c6.788,6.788,16.097,11.119,25.988,11.119s19.135-3.685,25.988-11.119l67.943-68.008l68.008,68.008
		c6.788,6.788,16.097,11.119,25.988,11.119s19.135-3.685,25.988-11.119C332.606,303.515,332.606,280.048,317.737,265.826z
		 M309.075,309.075c-9.244,9.244-25.341,9.244-35.232,0l-76.024-76.024l-76.671,76.024c-9.244,9.244-25.341,9.244-35.232,0
		c-4.978-4.913-7.434-11.119-7.434-17.325c0-6.788,2.457-12.994,7.434-17.325l76.671-76.606l-76.024-76.671
		c-9.244-4.331-8.016-27.798,0-35.232c7.434-6.206,20.428-12.347,35.232,0l76.024,76.671l76.671-76.024
		c9.244-9.244,25.341-9.244,35.232,0c9.891,9.891,9.891,25.341,0,35.232l-76.671,76.024l76.024,76.671
		C318.966,283.733,318.966,299.83,309.075,309.075z"/>
	<rect x="191.612" y="191.612" style="fill:#193651;" width="12.347" height="12.347"/>
	<rect x="191.612" y="318.384" style="fill:#193651;" width="12.347" height="12.347"/>
	<rect x="191.612" y="64.905" style="fill:#193651;" width="12.347" height="12.347"/>
	<rect x="64.905" y="191.612" style="fill:#193651;" width="12.347" height="12.347"/>
	<rect x="318.384" y="191.612" style="fill:#193651;" width="12.347" height="12.347"/>
</g>
<g>
</g>
<g>
</g>
<g>
</g>
<g>
</g>
<g>
</g>
<g>
</g>
<g>
</g>
<g>
</g>
<g>
</g>
<g>
</g>
<g>
</g>
<g>
</g>
<g>
</g>
<g>
</g>
<g>
</g>
</svg>
