<?xml version="1.0" encoding="iso-8859-1"?>
<!-- Generator: Adobe Illustrator 19.0.0, SVG Export Plug-In . SVG Version: 6.00 Build 0)  -->
<svg version="1.1" id="Layer_1" xmlns="http://www.w3.org/2000/svg" xmlns:xlink="http://www.w3.org/1999/xlink" x="0px" y="0px"
	 viewBox="0 0 395.701 395.701" style="enable-background:new 0 0 395.701 395.701;" xml:space="preserve">
<path style="fill:#FFFFFF;" d="M358.529,389.463H37.107c-17.325,0-30.901-13.576-30.901-30.901V37.139
	c0-17.325,13.576-30.901,30.901-30.901h321.487c17.325,0,30.901,13.576,30.901,30.901v321.487
	C389.43,375.887,375.855,389.463,358.529,389.463z"/>
<path style="fill:#193651;" d="M358.529,0.032H37.107C16.679,0.032,0,16.711,0,37.139v321.487c0,20.364,16.679,37.042,37.107,37.042
	h321.487c20.428,0,37.107-16.679,37.107-37.107V37.139C395.636,16.711,378.958,0.032,358.529,0.032z M383.289,358.562
	c0,13.576-11.119,24.76-24.76,24.76H37.107c-13.576,0-24.76-11.119-24.76-24.76V37.139c0-13.576,11.119-24.76,24.76-24.76h321.487
	c13.576,0,24.76,11.119,24.76,24.76v321.422H383.289z"/>
<polyline style="fill:#2EA2DB;" points="55.661,318.416 55.661,340.008 339.976,340.008 339.976,55.693 55.661,55.693 
	55.661,77.285 "/>
<polygon style="fill:#193651;" points="49.455,49.487 49.455,77.285 61.802,77.285 61.802,61.834 333.834,61.834 333.834,333.867 
	61.802,333.867 61.802,318.416 49.455,318.416 49.455,346.214 346.182,346.214 346.182,49.487 "/>
<rect x="38.335" y="99.588" style="fill:#FFFFFF;" width="35.232" height="50.683"/>
<path style="fill:#193651;" d="M79.127,156.412H32.129v-63.03h47.58v63.03H79.127z M44.477,144.065h22.885v-38.335H44.477V144.065z"
	/>
<rect x="38.335" y="245.43" style="fill:#FFFFFF;" width="35.232" height="50.683"/>
<path style="fill:#193651;" d="M79.127,302.319H32.129v-63.03h47.58v63.03H79.127z M44.477,289.972h22.885v-38.335H44.477V289.972z"
	/>
<path style="fill:#FFFFFF;" d="M225.034,126.158c-39.564,0-71.693,32.129-71.693,71.693s32.129,71.693,71.693,71.693
	c40.21,0,71.693-32.129,71.693-71.693S265.18,126.158,225.034,126.158z M225.034,225.067c-15.451,0-27.216-12.347-27.216-27.216
	c0-15.451,12.347-27.216,27.216-27.216s27.216,12.347,27.216,27.216C252.832,213.301,240.485,225.067,225.034,225.067z"/>
<g>
	<path style="fill:#193651;" d="M225.034,275.75c-42.667,0-77.899-35.232-77.899-77.899s35.232-77.899,77.899-77.899
		s77.899,35.232,77.899,77.899S268.283,275.75,225.034,275.75z M225.034,132.299c-35.879,0-65.552,29.673-65.552,65.551
		s29.673,65.552,65.552,65.552c36.461,0,65.551-29.673,65.551-65.552S261.495,132.299,225.034,132.299z M225.034,231.208
		c-18.554,0-33.358-14.869-33.358-33.358s14.804-33.358,33.358-33.358s33.358,14.804,33.358,33.358
		C259.038,216.404,243.588,231.208,225.034,231.208z M225.034,176.84c-11.766,0-21.01,9.244-21.01,21.01
		c0,11.766,9.244,21.01,21.01,21.01s21.01-9.244,21.01-21.01C246.626,186.085,236.735,176.84,225.034,176.84z"/>
	<rect x="186.699" y="306.004" style="fill:#193651;" width="12.347" height="12.347"/>
	<rect x="218.828" y="306.004" style="fill:#193651;" width="12.347" height="12.347"/>
	<rect x="251.604" y="306.004" style="fill:#193651;" width="12.347" height="12.347"/>
	<rect x="186.699" y="77.285" style="fill:#193651;" width="12.347" height="12.347"/>
	<rect x="218.828" y="77.285" style="fill:#193651;" width="12.347" height="12.347"/>
	<rect x="251.604" y="77.285" style="fill:#193651;" width="12.347" height="12.347"/>
	<rect x="49.455" y="180.525" style="fill:#193651;" width="12.347" height="34.586"/>
</g>
<g>
</g>
<g>
</g>
<g>
</g>
<g>
</g>
<g>
</g>
<g>
</g>
<g>
</g>
<g>
</g>
<g>
</g>
<g>
</g>
<g>
</g>
<g>
</g>
<g>
</g>
<g>
</g>
<g>
</g>
</svg>
