<?xml version="1.0" encoding="iso-8859-1"?>
<!-- Generator: Adobe Illustrator 19.0.0, SVG Export Plug-In . SVG Version: 6.00 Build 0)  -->
<svg version="1.1" id="Layer_1" xmlns="http://www.w3.org/2000/svg" xmlns:xlink="http://www.w3.org/1999/xlink" x="0px" y="0px"
	 viewBox="0 0 395.636 395.636" style="enable-background:new 0 0 395.636 395.636;" xml:space="preserve">
<path style="fill:#FFFFFF;" d="M377.083,344.307H18.554c-6.788,0-12.347-5.56-12.347-12.347V63.677
	c0-6.788,5.56-12.347,12.347-12.347h358.529c6.788,0,12.347,5.56,12.347,12.347V331.96
	C389.43,338.747,383.871,344.307,377.083,344.307z"/>
<polygon style="fill:#F16051;" points="240.485,161.939 240.485,233.051 364.735,233.051 364.735,319.612 30.901,319.612 
	30.901,76.024 364.735,76.024 364.735,161.939 "/>
<g>
	<rect x="49.455" y="288.711" style="fill:#193651;" width="12.347" height="12.347"/>
	<path style="fill:#193651;" d="M61.802,276.299H49.455v-12.348h12.347V276.299z M61.802,252.186H49.455v-12.347h12.347V252.186z
		 M61.802,228.137H49.455V215.79h12.347V228.137z M61.802,204.024H49.455v-12.347h12.347V204.024z M61.802,179.911H49.455v-12.347
		h12.347V179.911z M61.802,155.152H49.455v-12.347h12.347V155.152z M61.802,131.038H49.455v-12.347h12.347V131.038z"/>
	<rect x="49.455" y="94.578" style="fill:#193651;" width="12.347" height="12.347"/>
	<path style="fill:#193651;" d="M322.069,106.925h-11.766V94.578h11.766V106.925z M298.602,106.925h-11.766V94.578h11.766V106.925z
		 M274.489,106.925h-11.766V94.578h11.766V106.925z M250.958,106.925h-11.766V94.578h11.766V106.925z M227.491,106.925h-11.766
		V94.578h11.766V106.925z M204.024,106.925h-12.347V94.578h12.347V106.925z M179.911,106.925h-11.766V94.578h11.766V106.925z
		 M156.38,106.925h-11.766V94.578h11.766V106.925z M132.913,106.925h-11.766V94.578h11.766V106.925z M109.446,106.925H97.681V94.578
		h11.766V106.925z M85.333,106.925H73.568V94.578h11.766V106.925z"/>
	<rect x="333.834" y="94.578" style="fill:#193651;" width="12.347" height="12.347"/>
	<rect x="333.834" y="118.691" style="fill:#193651;" width="12.347" height="12.347"/>
	<rect x="333.834" y="239.838" style="fill:#193651;" width="12.347" height="12.347"/>
	<rect x="333.834" y="142.804" style="fill:#193651;" width="12.347" height="12.347"/>
	<rect x="333.834" y="263.952" style="fill:#193651;" width="12.347" height="12.347"/>
	<rect x="333.834" y="288.711" style="fill:#193651;" width="12.347" height="12.347"/>
	<path style="fill:#193651;" d="M322.069,301.059h-11.766v-12.347h11.766V301.059z M298.602,301.059h-11.766v-12.347h11.766V301.059
		z M274.489,301.059h-11.766v-12.347h11.766V301.059z M250.958,301.059h-11.766v-12.347h11.766V301.059z M227.491,301.059h-11.766
		v-12.347h11.766V301.059z M204.024,301.059h-12.347v-12.347h12.347V301.059z M179.911,301.059h-11.766v-12.347h11.766V301.059z
		 M156.38,301.059h-11.766v-12.347h11.766V301.059z M132.913,301.059h-11.766v-12.347h11.766V301.059z M109.446,301.059H97.681
		v-12.347h11.766V301.059z M85.333,301.059H73.568v-12.347h11.766V301.059z"/>
	<path style="fill:#193651;" d="M377.083,45.123H18.554C8.016,45.123,0,53.139,0,63.677V331.96c0,10.537,8.016,18.554,18.554,18.554
		h358.529c10.537,0,18.554-8.016,18.554-18.554V63.677C395.636,53.786,387.62,45.123,377.083,45.123z M383.289,227.491H246.626
		v-58.699h136.598v58.699H383.289z M383.289,155.798h-149.01v83.459h149.01v92.121c0,3.685-2.457,6.206-6.206,6.206H18.554
		c-3.685,0-6.206-2.457-6.206-6.206V63.677c0-3.685,2.457-6.206,6.206-6.206h358.529c3.685,0,6.206,2.457,6.206,6.206
		L383.289,155.798L383.289,155.798z"/>
</g>
<circle style="fill:#2EA2DB;" cx="270.739" cy="197.818" r="11.766"/>
<g>
</g>
<g>
</g>
<g>
</g>
<g>
</g>
<g>
</g>
<g>
</g>
<g>
</g>
<g>
</g>
<g>
</g>
<g>
</g>
<g>
</g>
<g>
</g>
<g>
</g>
<g>
</g>
<g>
</g>
</svg>
