<?xml version="1.0" encoding="iso-8859-1"?>
<!-- Generator: Adobe Illustrator 19.0.0, SVG Export Plug-In . SVG Version: 6.00 Build 0)  -->
<svg version="1.1" id="Layer_1" xmlns="http://www.w3.org/2000/svg" xmlns:xlink="http://www.w3.org/1999/xlink" x="0px" y="0px"
	 viewBox="0 0 395.636 395.636" style="enable-background:new 0 0 395.636 395.636;" xml:space="preserve">
<path style="fill:#FFFFFF;" d="M377.083,389.43H18.554c-6.788,0-12.347-5.56-12.347-12.347V197.818h383.289v179.265
	C389.43,383.871,383.871,389.43,377.083,389.43z"/>
<rect x="30.901" y="222.578" style="fill:#D3D7DA;" width="333.834" height="142.158"/>
<polyline style="fill:#FFFFFF;" points="245.398,293.624 245.398,330.731 150.238,330.731 150.238,293.624 "/>
<g>
	<polygon style="fill:#193651;" points="251.604,336.937 144.032,336.937 144.032,293.624 156.38,293.624 156.38,324.525 
		239.257,324.525 239.257,293.624 251.604,293.624 	"/>
	<rect x="225.616" y="244.17" style="fill:#193651;" width="12.347" height="12.347"/>
	<rect x="191.612" y="244.17" style="fill:#193651;" width="12.347" height="12.347"/>
	<rect x="157.608" y="244.17" style="fill:#193651;" width="12.347" height="12.347"/>
</g>
<path style="fill:#FFFFFF;" d="M18.554,6.206h358.529c6.788,0,12.347,5.56,12.347,12.347v179.265H6.206V18.554
	C6.206,11.766,11.766,6.206,18.554,6.206z"/>
<path style="fill:#193651;" d="M377.083,0H18.554C8.016,0,0,8.016,0,18.554v358.529c0,10.537,8.016,18.554,18.554,18.554h358.529
	c10.537,0,18.554-8.016,18.554-18.554V18.554C395.636,8.016,387.62,0,377.083,0z M383.289,377.083c0,3.685-2.457,6.206-6.206,6.206
	H18.554c-3.685,0-6.206-2.457-6.206-6.206V204.024h370.941L383.289,377.083L383.289,377.083z M383.289,191.612H12.347V18.554
	c0-3.685,2.457-6.206,6.206-6.206h358.529c3.685,0,6.206,2.457,6.206,6.206L383.289,191.612L383.289,191.612z"/>
<rect x="30.901" y="30.901" style="fill:#D3D7DA;" width="333.834" height="142.158"/>
<polyline style="fill:#FFFFFF;" points="245.398,102.012 245.398,139.119 150.238,139.119 150.238,102.012 "/>
<g>
	<polygon style="fill:#193651;" points="251.604,145.261 144.032,145.261 144.032,102.012 156.38,102.012 156.38,132.913 
		239.257,132.913 239.257,102.012 251.604,102.012 	"/>
	<rect x="225.616" y="52.558" style="fill:#193651;" width="12.347" height="12.347"/>
	<rect x="191.612" y="52.558" style="fill:#193651;" width="12.347" height="12.347"/>
	<rect x="157.608" y="52.558" style="fill:#193651;" width="12.347" height="12.347"/>
</g>
<g>
</g>
<g>
</g>
<g>
</g>
<g>
</g>
<g>
</g>
<g>
</g>
<g>
</g>
<g>
</g>
<g>
</g>
<g>
</g>
<g>
</g>
<g>
</g>
<g>
</g>
<g>
</g>
<g>
</g>
</svg>
