<?xml version="1.0" encoding="iso-8859-1"?>
<!-- Generator: Adobe Illustrator 19.0.0, SVG Export Plug-In . SVG Version: 6.00 Build 0)  -->
<svg version="1.1" id="Layer_1" xmlns="http://www.w3.org/2000/svg" xmlns:xlink="http://www.w3.org/1999/xlink" x="0px" y="0px"
	 viewBox="0 0 395.636 395.636" style="enable-background:new 0 0 395.636 395.636;" xml:space="preserve">
<g>
	<path style="fill:#FFFFFF;" d="M346.182,37.689H32.129c-14.222,0-25.988,11.766-25.988,25.988l0,0
		c0,14.222,11.766,25.988,25.988,25.988h314.053V37.689z"/>
	<path style="fill:#FFFFFF;" d="M346.182,89.665H54.432H32.129c-14.222,0-25.988-11.766-25.988-25.988V331.96
		c0,14.222,11.766,25.988,25.988,25.988h338.747V89.665C370.877,89.665,346.182,89.665,346.182,89.665z"/>
</g>
<rect x="30.901" y="114.36" style="fill:#FDBF5E;" width="315.281" height="218.828"/>
<path style="fill:#FFFFFF;" d="M389.43,257.164h-71.693c-18.554,0-34.004-14.869-34.004-34.004l0,0
	c0-18.554,14.869-34.004,34.004-34.004h71.693V257.164z"/>
<g>
	<path style="fill:#193651;" d="M377.083,183.596V83.459h-24.76V31.547H32.129C14.222,31.547,0,45.77,0,63.677V331.96
		c0,17.907,14.222,32.129,32.129,32.129h344.954V263.37h18.554v-79.774H377.083z M32.129,43.895h307.846v39.564H32.129
		c-2.457,0-5.56-0.646-7.434-1.875c-7.434-3.103-12.347-9.891-12.347-17.907C12.347,52.558,21.01,43.895,32.129,43.895z
		 M364.735,351.741H32.129c-11.119,0-19.782-8.663-19.782-19.782V89.018c0.646,0,7.434,4.331,8.016,4.331
		c1.228,0.646,9.244,2.457,11.766,2.457h332.606v87.79h-46.998c-22.238,0-40.21,17.907-40.21,40.21s17.907,40.21,40.21,40.21h46.998
		V351.741z M383.289,250.958h-65.552c-15.451,0-27.798-12.347-27.798-27.798s12.347-27.798,27.798-27.798h65.552V250.958z"/>
	<rect x="55.661" y="296.081" style="fill:#193651;" width="12.347" height="12.347"/>
	<rect x="308.493" y="296.081" style="fill:#193651;" width="12.347" height="12.347"/>
	<rect x="276.945" y="296.081" style="fill:#193651;" width="12.347" height="12.347"/>
	<rect x="245.398" y="296.081" style="fill:#193651;" width="12.347" height="12.347"/>
	<rect x="213.915" y="296.081" style="fill:#193651;" width="12.347" height="12.347"/>
	<rect x="182.368" y="296.081" style="fill:#193651;" width="12.347" height="12.347"/>
	<rect x="150.238" y="296.081" style="fill:#193651;" width="12.347" height="12.347"/>
	<rect x="118.691" y="296.081" style="fill:#193651;" width="12.347" height="12.347"/>
	<rect x="87.143" y="296.081" style="fill:#193651;" width="12.347" height="12.347"/>
	<rect x="55.661" y="139.119" style="fill:#193651;" width="12.347" height="12.347"/>
	<rect x="308.493" y="139.119" style="fill:#193651;" width="12.347" height="12.347"/>
	<rect x="276.945" y="139.119" style="fill:#193651;" width="12.347" height="12.347"/>
	<rect x="245.398" y="139.119" style="fill:#193651;" width="12.347" height="12.347"/>
	<rect x="213.915" y="139.119" style="fill:#193651;" width="12.347" height="12.347"/>
	<rect x="182.368" y="139.119" style="fill:#193651;" width="12.347" height="12.347"/>
	<rect x="150.238" y="139.119" style="fill:#193651;" width="12.347" height="12.347"/>
	<rect x="118.691" y="139.119" style="fill:#193651;" width="12.347" height="12.347"/>
	<rect x="87.143" y="139.119" style="fill:#193651;" width="12.347" height="12.347"/>
</g>
<circle style="fill:#FFFFFF;" cx="320.84" cy="223.806" r="12.347"/>
<g>
	<path style="fill:#193651;" d="M320.84,241.713c-9.891,0-18.554-8.016-18.554-18.554c0-9.891,8.016-18.554,18.554-18.554
		c9.891,0,18.554,8.016,18.554,18.554S331.313,241.713,320.84,241.713z M320.84,217.6c-3.103,0-6.206,2.457-6.206,6.206
		c0,3.103,2.457,6.206,6.206,6.206c3.103,0,6.206-2.457,6.206-6.206S324.525,217.6,320.84,217.6z"/>
	<rect x="35.879" y="57.471" style="fill:#193651;" width="281.277" height="12.347"/>
</g>
<g>
</g>
<g>
</g>
<g>
</g>
<g>
</g>
<g>
</g>
<g>
</g>
<g>
</g>
<g>
</g>
<g>
</g>
<g>
</g>
<g>
</g>
<g>
</g>
<g>
</g>
<g>
</g>
<g>
</g>
</svg>
