<?xml version="1.0" encoding="iso-8859-1"?>
<!-- Generator: Adobe Illustrator 19.0.0, SVG Export Plug-In . SVG Version: 6.00 Build 0)  -->
<svg version="1.1" id="Layer_1" xmlns="http://www.w3.org/2000/svg" xmlns:xlink="http://www.w3.org/1999/xlink" x="0px" y="0px"
	 viewBox="0 0 395.636 395.636" style="enable-background:new 0 0 395.636 395.636;" xml:space="preserve">
<circle style="fill:#FFFFFF;" cx="86.562" cy="86.562" r="80.356"/>
<g>
	<path style="fill:#193651;" d="M86.562,172.477C38.917,172.477,0,133.495,0,85.915S38.917,0,86.562,0s86.562,38.917,86.562,86.562
		S134.141,172.477,86.562,172.477z M86.562,12.347c-40.792,0-74.214,33.358-74.214,74.214s33.358,74.214,74.214,74.214
		s74.15-33.422,74.15-74.214S127.354,12.347,86.562,12.347z"/>
	<path style="fill:#193651;" d="M86.562,81.002c-6.788,0-12.347-5.56-12.347-12.347s5.56-12.347,12.347-12.347
		c6.788,0,12.347,5.56,12.347,12.347h12.347c0-11.119-8.016-21.01-18.554-23.467v-8.016H80.356v8.016
		c-10.537,2.457-18.554,12.347-18.554,23.467c0,13.576,11.119,24.76,24.76,24.76c6.788,0,12.347,5.56,12.347,12.347
		s-5.56,12.347-12.347,12.347s-12.347-5.56-12.347-12.347H61.802c0,11.119,8.016,21.01,18.554,23.467v6.788h12.347v-6.788
		c10.537-2.457,18.554-12.347,18.554-23.467C110.675,91.475,99.556,81.002,86.562,81.002z"/>
</g>
<g>
	<polygon style="fill:#FFFFFF;" points="277.075,250.958 252.832,296.727 229.43,252.574 239.838,223.16 229.947,205.834 
		252.832,182.368 275.717,205.834 267.055,221.285 	"/>
	<circle style="fill:#FFFFFF;" cx="252.832" cy="103.822" r="56.242"/>
</g>
<path style="fill:#193651;" d="M252.832,166.271c-34.586,0-62.448-27.798-62.448-62.448s27.798-62.448,62.448-62.448
	s62.449,27.798,62.449,62.448S287.483,166.271,252.832,166.271z M252.832,53.786c-27.798,0-50.101,22.238-50.101,50.101
	s22.238,50.101,50.101,50.101s50.101-22.238,50.101-50.101S280.63,53.786,252.832,53.786z"/>
<path style="fill:#FFFFFF;" d="M389.43,389.43V251.604c0-38.335-34.004-69.236-76.024-69.236l0,0l-60.574,114.36l-60.574-114.36l0,0
	c-42.02,0-76.024,30.901-76.024,69.236V389.43H389.43z"/>
<path style="fill:#193651;" d="M313.406,176.162h-3.685l-30.901,58.699l-4.331-13.576l9.244-16.679l-30.901-31.547l-30.901,31.547
	l10.537,18.554l-4.331,13.576l-32.129-60.574h-3.685c-45.123,0-82.23,34.004-82.23,75.442v144.032h285.543V251.604
	C395.636,210.166,358.529,176.162,313.406,176.162z M237.382,207.063l15.451-15.451l15.451,15.451l-7.434,13.576l9.891,29.673
	l-17.325,33.358l-16.679-31.547l10.537-29.673L237.382,207.063z M383.289,383.289H122.376V251.604
	c0-33.358,29.673-61.22,66.133-63.03l64.323,121.147l64.323-121.147c37.107,1.875,66.133,29.026,66.133,63.03V383.289
	L383.289,383.289z"/>
<path style="fill:#F16051;" d="M138.473,367.192V251.604c0-22.238,17.907-40.792,41.438-45.77l72.921,138.473l72.921-138.473
	c23.467,4.913,41.438,23.467,41.438,45.77v115.588H138.473L138.473,367.192z"/>
<g>
	<rect x="134.788" y="80.356" style="fill:#193651;" width="12.347" height="11.766"/>
	<rect x="25.988" y="80.356" style="fill:#193651;" width="12.347" height="11.766"/>
</g>
<g>
</g>
<g>
</g>
<g>
</g>
<g>
</g>
<g>
</g>
<g>
</g>
<g>
</g>
<g>
</g>
<g>
</g>
<g>
</g>
<g>
</g>
<g>
</g>
<g>
</g>
<g>
</g>
<g>
</g>
</svg>
