<?xml version="1.0" encoding="iso-8859-1"?>
<!-- Generator: Adobe Illustrator 19.0.0, SVG Export Plug-In . SVG Version: 6.00 Build 0)  -->
<svg version="1.1" id="Layer_1" xmlns="http://www.w3.org/2000/svg" xmlns:xlink="http://www.w3.org/1999/xlink" x="0px" y="0px"
	 viewBox="0 0 395.636 395.636" style="enable-background:new 0 0 395.636 395.636;" xml:space="preserve">
<circle style="fill:#ECF0F3;" cx="197.818" cy="197.818" r="197.818"/>
<path style="fill:#FDBF5E;" d="M120.566,160.711c-63.095,0-114.36,51.329-114.36,114.36s51.329,114.36,114.36,114.36
	s114.36-51.329,114.36-114.36S183.596,160.711,120.566,160.711z M97.552,338.554c-22.303-0.453-40.21-18.36-40.663-40.663
	c0-22.756,17.907-40.663,40.21-40.21s40.21,18.36,40.663,40.663C137.762,320.194,119.402,338.554,97.552,338.554z"/>
<path style="fill:#FFFFFF;" d="M227.491,234.925L389.43,73.568l-1.228-66.78h-66.133l1.875,38.335l-46.998,6.788l-6.788,43.895
	l-42.02,6.788l3.103,30.901l-19.846,19.846l-31.547-4.978l-19.135,19.135c2.457,0.646,4.913,1.875,7.434,3.103
	c0.646,0,1.228,0.646,1.875,0.646c11.766,5.56,22.238,12.994,32.129,22.238c9.244,9.244,17.325,20.428,22.238,32.129
	c0.646,0.646,0.646,1.228,0.646,1.875C225.616,229.947,226.844,232.404,227.491,234.925z"/>
<g>
	
		<rect x="133.668" y="203.655" transform="matrix(0.707 0.7073 -0.7073 0.707 189.3829 -37.4154)" style="fill:#193651;" width="12.348" height="12.348"/>
	
		<rect x="156.24" y="226.837" transform="matrix(0.7071 0.7071 -0.7071 0.7071 212.3332 -46.597)" style="fill:#193651;" width="12.347" height="12.347"/>
	
		<rect x="179.279" y="249.713" transform="matrix(0.7071 0.7071 -0.7071 0.7071 235.257 -56.1874)" style="fill:#193651;" width="12.347" height="12.347"/>
	<path style="fill:#193651;" d="M395.636,76.671l-1.228-76.024h-79.127l2.457,38.917l-46.352,6.788l-6.788,43.895l-43.895,6.788
		l3.685,33.358l-15.451,15.451l-31.547-3.685l-18.554,18.554c-11.766-3.685-24.76-6.206-38.335-6.206
		C53.786,154.57,0,208.356,0,275.071s53.786,120.566,120.566,120.566s120.566-53.786,120.566-120.566
		c0-13.576-2.457-25.988-6.206-38.335L395.636,76.671z M181.786,155.152l32.129,3.685l23.467-23.467l-2.457-28.444l40.792-6.788
		l6.788-43.895l48.226-6.788l-1.875-37.107l53.786,0.646v24.113L216.954,202.731c-12.347-16.032-27.798-28.38-45.705-37.042
		L181.786,155.152z M120.566,383.289c-59.992,0-108.154-48.226-108.154-108.154s48.226-108.154,108.154-108.154
		s108.154,48.226,108.154,108.154S180.493,383.289,120.566,383.289z M223.741,213.269L382.642,53.786l0.646,17.325L229.947,224.388
		C228.073,220.703,226.263,216.372,223.741,213.269z"/>
	<path style="fill:#193651;" d="M97.034,251.604c-25.988,0-46.352,21.01-46.352,46.352c0,25.988,21.01,46.352,46.352,46.352
		s46.352-21.01,46.352-46.352C144.032,272.614,123.022,251.604,97.034,251.604z M97.034,331.96
		c-19.135,0-34.004-15.451-34.004-34.004c0-19.135,15.451-34.004,34.004-34.004s34.004,15.451,34.004,34.004
		C131.685,317.156,116.234,331.96,97.034,331.96z"/>
</g>
<g>
</g>
<g>
</g>
<g>
</g>
<g>
</g>
<g>
</g>
<g>
</g>
<g>
</g>
<g>
</g>
<g>
</g>
<g>
</g>
<g>
</g>
<g>
</g>
<g>
</g>
<g>
</g>
<g>
</g>
</svg>
