<?xml version="1.0" encoding="iso-8859-1"?>
<!-- Generator: Adobe Illustrator 19.0.0, SVG Export Plug-In . SVG Version: 6.00 Build 0)  -->
<svg version="1.1" id="Layer_1" xmlns="http://www.w3.org/2000/svg" xmlns:xlink="http://www.w3.org/1999/xlink" x="0px" y="0px"
	 viewBox="0 0 395.701 395.701" style="enable-background:new 0 0 395.701 395.701;" xml:space="preserve">
<g>
	<rect x="257.164" y="185.503" style="fill:#193651;" width="12.347" height="12.347"/>
	<rect x="191.612" y="293.075" style="fill:#193651;" width="12.347" height="12.347"/>
	<rect x="126.125" y="185.503" style="fill:#193651;" width="12.347" height="12.347"/>
</g>
<g>
	<path style="fill:#FDBF5E;" d="M197.818,157.64c25.988,0,48.808-12.994,62.448-33.358c-13.576-19.782-36.461-32.776-62.448-32.776
		s-48.808,12.994-62.448,32.776C149.01,144.711,171.83,157.64,197.818,157.64z"/>
	<circle style="fill:#FDBF5E;" cx="197.818" cy="55.046" r="23.467"/>
</g>
<g>
	<path style="fill:#F16051;" d="M82.23,389.463c25.988,0,48.808-12.994,62.448-33.358c-13.576-19.782-36.461-32.776-62.448-32.776
		s-48.808,12.994-62.448,32.776C32.776,376.533,55.661,389.463,82.23,389.463z"/>
	<circle style="fill:#F16051;" cx="82.23" cy="286.869" r="23.467"/>
</g>
<g>
	<path style="fill:#2EA2DB;" d="M313.406,389.463c25.988,0,48.808-12.994,62.448-33.358c-13.576-19.782-36.461-32.776-62.448-32.776
		c-25.988,0-48.808,12.994-62.448,32.776C264.598,376.533,287.483,389.463,313.406,389.463z"/>
	<circle style="fill:#2EA2DB;" cx="313.406" cy="286.869" r="23.467"/>
</g>
<path style="fill:#193651;" d="M313.406,231.855c-21.657,0-40.792,8.663-55.661,21.657L203.96,222.61v-58.699
	c42.02-3.103,76.024-38.335,76.024-81.584c0.065-45.834-37.042-82.295-82.166-82.295s-82.23,36.461-82.23,82.23
	c0,43.248,33.358,78.481,76.024,81.584v58.699l-53.786,30.901c-14.804-13.576-34.004-21.657-55.661-21.657
	C36.461,231.855,0,268.315,0,313.438c0,45.77,36.461,82.23,82.23,82.23c45.123,0,82.23-36.461,82.23-82.23
	c0-19.135-6.788-36.461-17.907-50.683l51.911-29.673l51.911,29.673c-11.119,14.222-17.907,31.547-17.907,50.683
	c0,45.123,36.461,82.23,82.23,82.23c44.541,0,81.002-36.461,81.002-82.23C395.636,268.315,359.176,231.855,313.406,231.855z
	 M82.23,383.321c-38.917,0-69.883-30.901-69.883-69.883c0-38.335,30.901-69.883,69.883-69.883c38.335,0,69.883,30.901,69.883,69.883
	C151.467,352.42,120.566,383.321,82.23,383.321z M127.935,82.263c0-38.917,31.547-69.883,69.883-69.883s69.883,30.901,69.883,69.883
	c0,38.335-30.901,69.883-69.883,69.883C159.483,151.499,127.935,120.598,127.935,82.263z M313.406,383.321
	c-38.335,0-69.883-30.901-69.883-69.883c0-38.335,30.901-69.883,69.883-69.883c38.335,0,69.883,30.901,69.883,69.883
	C383.289,352.42,352.388,383.321,313.406,383.321z"/>
<g>
</g>
<g>
</g>
<g>
</g>
<g>
</g>
<g>
</g>
<g>
</g>
<g>
</g>
<g>
</g>
<g>
</g>
<g>
</g>
<g>
</g>
<g>
</g>
<g>
</g>
<g>
</g>
<g>
</g>
</svg>
