<?xml version="1.0" encoding="iso-8859-1"?>
<!-- Generator: Adobe Illustrator 19.0.0, SVG Export Plug-In . SVG Version: 6.00 Build 0)  -->
<svg version="1.1" id="Layer_1" xmlns="http://www.w3.org/2000/svg" xmlns:xlink="http://www.w3.org/1999/xlink" x="0px" y="0px"
	 viewBox="0 0 395.636 395.636" style="enable-background:new 0 0 395.636 395.636;" xml:space="preserve">
<rect x="6.206" y="6.206" style="fill:#FFFFFF;" width="383.289" height="357.947"/>
<rect x="46.998" y="45.77" style="fill:#2EA2DB;" width="301.705" height="278.82"/>
<g>
	<path style="fill:#FFFFFF;" d="M73.568,133.56h-26.57V97.681h26.57c9.891,0,17.907,8.016,17.907,17.907l0,0
		C90.893,125.479,83.459,133.56,73.568,133.56z"/>
	<path style="fill:#FFFFFF;" d="M73.568,272.032h-26.57v-35.879h26.57c9.891,0,17.907,8.016,17.907,17.907l0,0
		C90.893,263.952,83.459,272.032,73.568,272.032z"/>
	<rect x="298.602" y="364.089" style="fill:#FFFFFF;" width="55.661" height="25.341"/>
	<rect x="42.02" y="364.089" style="fill:#FFFFFF;" width="55.661" height="25.341"/>
</g>
<g>
	<path style="fill:#193651;" d="M0,0v370.295h35.879v25.341h68.008v-25.341h188.574v25.341h68.008v-25.341h35.168V0H0z
		 M90.893,383.289H47.58v-12.994h43.248v12.994H90.893z M347.41,383.289h-43.249v-12.994h43.249V383.289z M383.289,357.947H12.347
		v-345.6h370.941L383.289,357.947L383.289,357.947z"/>
	<polygon style="fill:#193651;" points="354.844,39.564 46.998,39.564 46.998,51.911 342.497,51.911 342.497,318.384 
		46.998,318.384 46.998,330.731 354.844,330.731 	"/>
</g>
<g>
	<rect x="158.901" y="283.733" style="fill:#FFFFFF;" width="12.347" height="11.766"/>
	<rect x="191.612" y="283.733" style="fill:#FFFFFF;" width="12.347" height="11.766"/>
	<rect x="224.388" y="283.733" style="fill:#FFFFFF;" width="12.347" height="11.766"/>
	<rect x="158.901" y="74.149" style="fill:#FFFFFF;" width="12.347" height="11.766"/>
	<rect x="191.612" y="74.149" style="fill:#FFFFFF;" width="12.347" height="11.766"/>
	<rect x="224.388" y="74.149" style="fill:#FFFFFF;" width="12.347" height="11.766"/>
	<path style="fill:#FFFFFF;" d="M228.137,158.255c0-16.679-13.576-30.319-30.319-30.319s-30.319,13.576-30.319,30.319
		c0,11.766,6.788,22.238,16.679,27.216l-10.537,56.242h48.808l-10.537-56.242C221.285,180.493,228.137,170.02,228.137,158.255z"/>
</g>
<g>
</g>
<g>
</g>
<g>
</g>
<g>
</g>
<g>
</g>
<g>
</g>
<g>
</g>
<g>
</g>
<g>
</g>
<g>
</g>
<g>
</g>
<g>
</g>
<g>
</g>
<g>
</g>
<g>
</g>
</svg>
