<?xml version="1.0" encoding="iso-8859-1"?>
<!-- Generator: Adobe Illustrator 19.0.0, SVG Export Plug-In . SVG Version: 6.00 Build 0)  -->
<svg version="1.1" id="Layer_1" xmlns="http://www.w3.org/2000/svg" xmlns:xlink="http://www.w3.org/1999/xlink" x="0px" y="0px"
	 viewBox="0 0 395.636 395.636" style="enable-background:new 0 0 395.636 395.636;" xml:space="preserve">
<path style="fill:#FDBF5E;" d="M389.43,197.818c0-105.697-85.915-191.612-191.612-191.612S6.206,92.121,6.206,197.818
	S92.121,389.43,197.818,389.43S389.43,303.515,389.43,197.818z M166.271,229.366c-17.325-17.325-17.325-46.352,0-63.677
	s46.352-17.325,63.677,0s17.325,46.352,0,63.677C212.04,247.273,183.596,247.273,166.271,229.366z"/>
<g>
	<path style="fill:#FFFFFF;" d="M218.828,350.513l-1.875-12.347c77.253-10.537,131.685-82.23,121.147-159.483l12.347-1.875
		C362.279,261.495,302.933,339.394,218.828,350.513z"/>
	<path style="fill:#FFFFFF;" d="M213.269,310.303l-1.875-12.347c55.661-7.434,94.578-58.699,86.562-114.36l12.347-1.875
		C318.966,244.816,275.071,302.287,213.269,310.303z"/>
	<path style="fill:#FFFFFF;" d="M176.808,45.123l1.875,12.347c-77.317,10.537-131.685,82.23-121.212,159.483l-12.347,1.875
		C33.358,134.141,92.703,56.242,176.808,45.123z"/>
	<path style="fill:#FFFFFF;" d="M182.368,85.333l1.875,12.347c-55.661,7.434-94.578,58.699-86.562,114.36l-12.347,1.875
		C76.671,150.82,120.566,93.349,182.368,85.333z"/>
</g>
<g>
	<path style="fill:#193651;" d="M197.818,395.636L197.818,395.636C89.018,395.636,0,306.618,0,197.818S89.018,0,197.818,0
		s197.818,89.018,197.818,197.818S306.618,395.636,197.818,395.636z M197.818,12.347c-102.012,0-185.471,83.459-185.471,185.471
		s83.459,185.471,185.471,185.471s185.471-83.459,185.471-185.471S299.83,12.347,197.818,12.347z"/>
	<path style="fill:#193651;" d="M233.632,162.004c-19.653-19.653-52.04-19.653-71.693,0s-19.653,52.04,0,71.693
		s52.04,19.653,71.693,0C253.349,213.98,253.349,181.657,233.632,162.004z M170.731,224.905c-14.869-14.869-14.869-39.37,0-54.174
		c14.869-14.869,39.37-14.869,54.174,0c14.804,14.869,14.869,39.37,0,54.174C210.036,239.709,185.6,239.774,170.731,224.905z"/>
</g>
<g>
</g>
<g>
</g>
<g>
</g>
<g>
</g>
<g>
</g>
<g>
</g>
<g>
</g>
<g>
</g>
<g>
</g>
<g>
</g>
<g>
</g>
<g>
</g>
<g>
</g>
<g>
</g>
<g>
</g>
</svg>
