<?xml version="1.0" encoding="iso-8859-1"?>
<!-- Generator: Adobe Illustrator 19.0.0, SVG Export Plug-In . SVG Version: 6.00 Build 0)  -->
<svg version="1.1" id="Layer_1" xmlns="http://www.w3.org/2000/svg" xmlns:xlink="http://www.w3.org/1999/xlink" x="0px" y="0px"
	 viewBox="0 0 396.929 396.929" style="enable-background:new 0 0 396.929 396.929;" xml:space="preserve">
<g>
	<rect x="288.5" y="188.574" style="fill:#FFFFFF;" width="53.139" height="144.679"/>
	<rect x="277.381" y="155.798" style="fill:#FFFFFF;" width="75.442" height="32.776"/>
	<rect x="277.381" y="333.253" style="fill:#FFFFFF;" width="75.442" height="32.776"/>
	<rect x="160.565" y="155.798" style="fill:#FFFFFF;" width="75.442" height="32.776"/>
	<rect x="160.565" y="333.253" style="fill:#FFFFFF;" width="75.442" height="32.776"/>
	<rect x="43.684" y="155.798" style="fill:#FFFFFF;" width="75.442" height="32.776"/>
	<rect x="43.684" y="333.253" style="fill:#FFFFFF;" width="75.442" height="32.776"/>
	<rect x="27.005" y="126.772" style="fill:#FFFFFF;" width="342.497" height="29.026"/>
</g>
<path style="fill:#F16051;" d="M389.284,125.543L198.254,7.434L7.224,125.543c-0.646,0.646-0.646,1.228,0,1.228h382.061
	C389.866,126.772,389.866,126.125,389.284,125.543z"/>
<circle style="fill:#FFFFFF;" cx="198.254" cy="75.442" r="23.467"/>
<rect x="6.642" y="359.822" style="fill:#4FBF9F;" width="383.289" height="30.901"/>
<rect x="171.684" y="188.574" style="fill:#FFFFFF;" width="53.139" height="144.679"/>
<g>
	<rect x="192.048" y="212.687" style="fill:#193651;" width="12.347" height="12.347"/>
	<rect x="192.048" y="245.463" style="fill:#193651;" width="12.347" height="12.347"/>
	<rect x="192.048" y="278.238" style="fill:#193651;" width="12.347" height="12.347"/>
</g>
<rect x="54.868" y="188.574" style="fill:#FFFFFF;" width="53.139" height="144.679"/>
<g>
	<polygon style="fill:#193651;" points="383.725,359.822 383.725,384.517 12.783,384.517 12.783,359.822 0.436,359.822 
		0.436,396.929 396.072,396.929 396.072,359.822 	"/>
	<path style="fill:#193651;" d="M392.969,119.984L198.254,0L4.121,119.984c-3.038,1.228-4.331,4.913-3.685,8.016
		c0.646,3.103,3.685,4.913,6.788,4.913h13.576v29.026h16.679v32.776h11.119v132.267H37.543v32.776h87.79v-32.776h-11.119V194.78
		h11.119v-32.776h29.026v32.776h11.119v132.267h-11.119v32.776h87.79v-32.776H231.03V194.78h11.119v-32.776h29.026v32.776h11.119
		v132.267h-11.119v32.129h12.412v-19.782h63.03v19.782h12.347v-32.129h-11.119V194.78h11.119v-32.776h17.325v-29.026h13.576
		c3.103,0,5.56-1.875,6.788-4.913C396.719,124.897,395.426,121.212,392.969,119.984z M112.921,359.822H49.89v-20.428h63.03V359.822z
		 M61.009,327.046V194.78h40.792v132.267H61.009z M112.921,182.368H49.89v-20.428h63.03V182.368z M229.801,359.822h-63.03v-20.428
		h63.03V359.822z M177.826,327.046V194.78h40.792v132.267H177.826z M229.801,182.368h-63.03v-20.428h63.03V182.368z
		 M335.498,327.046h-40.792V194.78h40.792V327.046z M346.617,182.368h-63.03v-20.428h63.03V182.368z M363.296,149.657H33.211
		v-16.679h330.085V149.657z M26.424,120.566l171.83-105.697l171.83,106.343H26.424V120.566z"/>
</g>
<g>
</g>
<g>
</g>
<g>
</g>
<g>
</g>
<g>
</g>
<g>
</g>
<g>
</g>
<g>
</g>
<g>
</g>
<g>
</g>
<g>
</g>
<g>
</g>
<g>
</g>
<g>
</g>
<g>
</g>
</svg>
