<?xml version="1.0" encoding="iso-8859-1"?>
<!-- Generator: Adobe Illustrator 19.0.0, SVG Export Plug-In . SVG Version: 6.00 Build 0)  -->
<svg version="1.1" id="Layer_1" xmlns="http://www.w3.org/2000/svg" xmlns:xlink="http://www.w3.org/1999/xlink" x="0px" y="0px"
	 viewBox="0 0 395.636 395.636" style="enable-background:new 0 0 395.636 395.636;" xml:space="preserve">
<path style="fill:#FFFFFF;stroke:#193651;stroke-width:2;stroke-miterlimit:10;" d="M389.43,228.137L389.43,228.137
	c0-89.018-72.339-161.358-161.358-161.358l0,0c-89.018,0-161.358,72.339-161.358,161.358l0,0
	c0,89.018,72.339,161.358,161.358,161.358l0,0C317.156,389.43,389.43,317.156,389.43,228.137z"/>
<path id="SVGCleanerId_0" style="fill:#FDBF5E;" d="M228.137,365.964c-76.024,0-138.473-61.802-138.473-138.473
	S151.467,89.018,228.137,89.018c37.107,0,71.693,14.222,97.681,40.21s40.21,60.574,40.21,97.681
	C365.964,304.162,304.162,365.964,228.137,365.964L228.137,365.964z"/>
<g>
	<circle style="fill:#FFFFFF;stroke:#193651;stroke-width:2;stroke-miterlimit:10;" cx="228.137" cy="228.137" r="20.428"/>
	<circle style="fill:#FFFFFF;stroke:#193651;stroke-width:2;stroke-miterlimit:10;" cx="97.681" cy="97.681" r="91.475"/>
</g>
<path id="SVGCleanerId_2" style="fill:#E1E6E9;" d="M97.681,164.461c-37.107,0-66.78-30.319-66.78-66.78s29.673-66.78,66.78-66.78
	c36.461,0,66.78,29.673,66.78,66.78S134.141,164.461,97.681,164.461z"/>
<path style="fill:#FFFFFF;" d="M389.43,228.137L389.43,228.137c0-89.018-72.339-161.358-161.358-161.358l0,0
	c-89.018,0-161.358,72.339-161.358,161.358l0,0c0,89.018,72.339,161.358,161.358,161.358l0,0
	C317.156,389.43,389.43,317.156,389.43,228.137z"/>
<g>
	<path id="SVGCleanerId_0_1_" style="fill:#FDBF5E;" d="M228.137,365.964c-76.024,0-138.473-61.802-138.473-138.473
		S151.467,89.018,228.137,89.018c37.107,0,71.693,14.222,97.681,40.21s40.21,60.574,40.21,97.681
		C365.964,304.162,304.162,365.964,228.137,365.964L228.137,365.964z"/>
</g>
<g>
	<rect x="343.079" y="221.931" style="fill:#193651;" width="11.119" height="12.347"/>
	<rect x="102.012" y="221.931" style="fill:#193651;" width="11.119" height="12.347"/>
	
		<rect x="327.086" y="161.396" transform="matrix(0.866 -0.5 0.5 0.866 -39.2185 188.7777)" style="fill:#193651;" width="11.119" height="12.347"/>
	
		<rect x="117.703" y="282.494" transform="matrix(-0.866 0.5 -0.5 -0.866 374.3464 477.0263)" style="fill:#193651;" width="11.119" height="12.347"/>
	
		<rect x="281.851" y="117.918" transform="matrix(-0.8661 -0.4999 0.4999 -0.8661 475.7545 374.4018)" style="fill:#193651;" width="12.348" height="11.119"/>
	
		<rect x="161.979" y="326.343" transform="matrix(-0.4999 0.8661 -0.8661 -0.4999 539.2786 353.6358)" style="fill:#193651;" width="11.119" height="12.348"/>
	<rect x="221.931" y="102.012" style="fill:#193651;" width="12.347" height="11.119"/>
	<rect x="221.931" y="343.079" style="fill:#193651;" width="12.347" height="11.119"/>
	
		<rect x="282.964" y="326.673" transform="matrix(0.5 0.866 -0.866 0.5 432.5105 -83.4472)" style="fill:#193651;" width="11.119" height="12.347"/>
	
		<rect x="327.192" y="281.954" transform="matrix(0.866 0.5 -0.5 0.866 188.6492 -127.7758)" style="fill:#193651;" width="11.119" height="12.347"/>
</g>
<circle style="fill:#FFFFFF;" cx="228.137" cy="228.137" r="20.428"/>
<path style="fill:#193651;" d="M301.059,221.931h-47.58c-3.103-11.766-12.994-20.428-25.341-20.428
	c-14.869,0-26.57,11.766-26.57,26.57c0,12.347,8.663,22.885,20.428,25.341v79.127h12.347v-79.063
	c9.891-2.457,17.325-9.891,19.135-19.135h47.58V221.931z M228.137,242.36c-8.016,0-14.222-6.206-14.222-14.222
	s6.206-14.222,14.222-14.222s14.222,6.206,14.222,14.222S235.507,242.36,228.137,242.36z"/>
<circle style="fill:#FFFFFF;" cx="97.681" cy="97.681" r="91.475"/>
<path style="fill:#193651;" d="M346.828,109.446c-31.547-31.547-73.568-48.808-118.691-48.808c-12.994,0-25.988,1.875-38.335,4.331
	C176.162,27.216,139.701,0,97.681,0C43.895,0,0,43.895,0,97.681c0,42.667,27.216,78.481,64.905,92.121
	c-3.103,12.347-4.331,25.341-4.331,38.335c0,44.541,17.325,87.143,48.808,118.691c31.547,31.483,73.632,48.808,118.756,48.808
	c92.057,0,167.499-75.442,167.499-167.499C395.636,183.014,378.311,140.929,346.828,109.446z M12.347,97.681
	c0-46.998,38.335-85.333,85.333-85.333s85.333,38.335,85.333,85.333s-38.335,85.333-85.333,85.333S12.347,144.679,12.347,97.681z
	 M228.137,383.289L228.137,383.289c-41.438,0-80.356-16.097-110.028-45.77c-29.026-29.026-45.77-68.59-45.77-110.028
	c0-12.347,1.228-23.467,4.331-35.232c6.788,1.228,13.576,2.457,21.01,2.457c53.786,0,97.681-43.895,97.681-97.681
	c0-7.434-0.646-14.222-2.457-21.01c11.119-2.457,22.885-4.331,35.232-4.331c41.438,0,80.356,16.097,110.028,45.77
	c29.026,29.026,45.77,68.59,45.77,110.028C383.289,313.406,313.406,383.289,228.137,383.289z"/>
<g>
	<path id="SVGCleanerId_2_1_" style="fill:#E1E6E9;" d="M97.681,164.461c-37.107,0-66.78-30.319-66.78-66.78
		s29.673-66.78,66.78-66.78c36.461,0,66.78,29.673,66.78,66.78S134.141,164.461,97.681,164.461z"/>
</g>
<path style="fill:#193651;" d="M97.681,91.475c-5.56,0-9.891-4.331-9.891-9.891c0-5.56,4.331-9.891,9.891-9.891
	c5.56,0,9.891,4.331,9.891,9.891h12.347c0-10.214-6.723-18.747-16.097-21.398v-5.818H91.475v5.818
	c-9.309,2.651-16.097,11.184-16.097,21.398c0,12.347,9.891,22.238,22.238,22.238c5.56,0,9.891,4.331,9.891,9.891
	c0,5.56-4.331,9.891-9.891,9.891s-9.891-4.331-9.891-9.891H75.378c0,10.214,6.723,18.747,16.097,21.398v5.818h12.347v-5.818
	c9.309-2.651,16.097-11.184,16.097-21.398C119.919,101.366,110.028,91.475,97.681,91.475z"/>
<g>
</g>
<g>
</g>
<g>
</g>
<g>
</g>
<g>
</g>
<g>
</g>
<g>
</g>
<g>
</g>
<g>
</g>
<g>
</g>
<g>
</g>
<g>
</g>
<g>
</g>
<g>
</g>
<g>
</g>
</svg>
