<?xml version="1.0" encoding="iso-8859-1"?>
<!-- Generator: Adobe Illustrator 19.0.0, SVG Export Plug-In . SVG Version: 6.00 Build 0)  -->
<svg version="1.1" id="Layer_1" xmlns="http://www.w3.org/2000/svg" xmlns:xlink="http://www.w3.org/1999/xlink" x="0px" y="0px"
	 viewBox="0 0 395.636 395.636" style="enable-background:new 0 0 395.636 395.636;" xml:space="preserve">
<path style="fill:#193651;" d="M197.818,395.636c-1.875,0-4.331,0-6.206,0l0.646-12.347c3.685,0,8.016,0,11.766,0l0.646,12.347
	C202.15,395.636,200.275,395.636,197.818,395.636z M179.265,394.99c-4.331-0.646-8.663-1.228-12.347-1.875l1.875-12.347
	c3.685,0.646,8.016,1.228,11.766,1.228L179.265,394.99z M216.954,394.408l-1.228-12.347c3.685-0.646,8.016-0.646,11.766-1.228
	l1.875,12.347C225.616,393.762,221.285,394.408,216.954,394.408z M153.923,390.723c-4.331-1.228-8.016-1.875-12.347-3.103
	l3.685-11.766c3.685,1.228,7.434,1.875,11.766,3.103L153.923,390.723z M241.713,390.723l-2.457-11.766
	c3.685-0.646,7.434-1.875,11.766-3.103l3.685,11.766C250.376,388.848,246.044,389.43,241.713,390.723z M129.81,383.289
	c-3.685-1.228-8.016-3.103-11.766-4.913l4.913-11.119c3.685,1.875,7.434,3.103,11.119,4.331L129.81,383.289z M266.408,383.289
	l-4.331-11.766c3.685-1.228,7.434-3.103,11.119-4.331l4.913,11.119C274.489,380.186,270.158,382.061,266.408,383.289z
	 M106.343,373.398c-3.685-1.875-7.434-4.331-11.119-6.206l6.206-10.537c3.103,1.875,6.788,3.685,10.537,5.56L106.343,373.398z
	 M289.293,373.398l-5.56-11.119c3.685-1.875,6.788-3.685,10.537-5.56l6.206,10.537C296.727,369.067,293.042,370.941,289.293,373.398
	z M84.687,360.404c-3.685-2.457-6.788-4.913-9.891-7.434l7.434-9.891c3.103,2.457,6.206,4.913,9.244,6.788L84.687,360.404z
	 M310.949,359.758l-6.788-9.891c3.103-2.457,6.206-4.978,9.244-7.434l8.016,9.891C317.737,354.844,314.634,357.301,310.949,359.758z
	 M64.905,344.307c-3.103-3.103-6.206-5.56-9.244-8.663l8.663-8.663c2.457,3.103,5.56,5.56,8.663,8.016L64.905,344.307z
	 M330.731,344.307l-8.016-9.244c3.103-2.457,5.56-5.56,8.663-8.016l8.663,8.663C336.937,338.166,333.834,341.269,330.731,344.307z
	 M47.58,326.4c-2.457-3.103-5.56-6.788-8.016-9.891l9.891-7.434c2.457,3.103,4.978,6.206,7.434,9.244L47.58,326.4z M348.638,325.754
	l-9.244-8.016c2.457-3.103,4.978-6.206,7.434-9.244l9.891,7.434C353.616,319.612,351.095,322.715,348.638,325.754z M32.129,305.972
	c-2.457-3.685-4.331-7.434-6.788-11.119l10.537-6.206c1.875,3.685,3.685,6.788,6.206,9.891L32.129,305.972z M363.507,305.39
	l-10.537-6.788c2.457-3.103,4.331-6.788,6.206-9.891l10.537,6.206C368.42,298.602,365.964,302.287,363.507,305.39z M19.782,283.733
	c-1.875-3.685-3.685-7.434-4.913-11.766l11.766-4.913c1.228,3.685,3.103,7.434,4.978,11.119L19.782,283.733z M375.855,283.733
	l-11.119-5.56c1.875-3.685,3.103-7.434,4.913-11.119l11.766,4.913C379.539,275.717,377.729,280.048,375.855,283.733z M9.891,260.267
	c-1.228-3.685-2.457-8.016-3.685-12.347l12.347-2.457c1.228,3.685,1.875,7.434,3.685,11.119L9.891,260.267z M385.745,260.267
	l-11.766-3.685c1.228-3.685,2.457-7.434,3.103-11.119l11.766,3.103C388.202,252.186,386.974,255.935,385.745,260.267z
	 M3.685,236.154c-0.646-4.331-1.228-8.016-1.875-12.347l12.347-1.875c0.646,3.685,1.228,8.016,1.875,11.766L3.685,236.154z
	 M391.952,235.507l-12.347-2.457c0.646-3.685,1.228-8.016,1.875-11.766l12.347,1.875
	C393.762,227.491,392.533,231.176,391.952,235.507z M0.646,210.812c0-4.331-0.646-8.663-0.646-12.347h12.347
	c0,3.685,0,8.016,0.646,11.766L0.646,210.812z M394.99,210.166l-12.347-0.646c0-3.685,0.646-8.016,0.646-11.766v-0.646h12.347v0.646
	C395.636,202.15,395.636,206.481,394.99,210.166z M12.994,186.053l-12.347-0.646c0-4.331,0.646-8.663,1.228-12.347l12.347,1.875
	C13.576,178.683,12.994,182.368,12.994,186.053z M382.642,184.824c0-3.685-0.646-8.016-1.228-11.766l12.347-1.875
	c0.646,4.331,1.228,8.663,1.228,12.347L382.642,184.824z M15.451,162.586l-12.347-2.457c0.646-4.331,1.875-8.016,3.103-12.347
	l12.347,3.103C17.325,155.152,16.679,158.901,15.451,162.586z M379.539,161.358c-0.646-3.685-1.875-8.016-2.457-11.766l11.766-3.103
	c1.228,4.331,1.875,8.016,3.103,12.347L379.539,161.358z M21.657,139.701l-11.766-3.685c1.228-3.685,2.457-8.016,4.331-11.766
	l11.766,4.331C24.113,132.267,22.885,136.016,21.657,139.701z M373.398,138.473c-1.228-3.685-2.457-7.434-4.331-11.119l11.766-4.913
	c1.875,3.685,3.103,8.016,4.331,11.766L373.398,138.473z M30.319,117.463l-11.119-5.56c1.875-3.685,3.685-7.434,5.56-11.119
	l10.537,6.206C34.004,110.675,32.129,114.36,30.319,117.463z M364.735,116.816c-1.875-3.685-3.685-6.788-5.56-10.537l10.537-6.206
	c1.875,3.685,4.331,7.434,6.206,11.119L364.735,116.816z M42.02,97.034l-10.537-6.788c2.457-3.685,4.978-6.788,7.434-10.537
	l9.891,7.434C46.352,90.246,44.477,93.349,42.02,97.034z M352.97,95.806c-2.457-3.103-4.331-6.206-6.788-9.244l9.891-7.434
	c2.457,3.103,4.913,6.788,7.434,10.537L352.97,95.806z M56.242,77.899l-9.244-8.016c2.457-3.103,5.56-6.206,8.663-9.244l8.663,8.663
	C61.802,71.693,58.699,74.796,56.242,77.899z M338.747,77.253c-2.457-3.103-4.913-6.206-8.016-8.663l8.663-8.663
	c3.103,3.103,5.56,6.206,8.663,9.244L338.747,77.253z M72.921,60.574l-8.016-9.244c3.103-3.103,6.206-5.56,9.891-8.016l8.016,9.891
	C78.481,55.661,76.024,58.117,72.921,60.574z M322.069,59.992c-3.103-2.457-6.206-4.913-9.244-7.434l7.434-9.891
	c3.103,2.457,6.788,5.56,9.891,8.016L322.069,59.992z M91.475,45.77l-6.788-9.891c3.685-2.457,6.788-4.978,10.537-6.788
	l6.206,10.537C97.681,41.438,94.578,43.895,91.475,45.77z M303.515,45.123c-3.103-2.457-6.788-4.331-9.891-6.206l6.206-10.537
	c3.685,2.457,7.434,4.331,10.537,6.788L303.515,45.123z M111.903,33.358l-5.56-11.119c3.103-1.875,6.788-3.685,11.119-4.978
	l4.913,11.119C118.691,29.673,115.006,31.547,111.903,33.358z M283.152,32.776c-3.685-1.875-6.788-3.685-10.537-4.978l4.913-11.119
	c3.685,1.875,7.434,3.685,11.766,5.56L283.152,32.776z M133.56,24.113l-4.331-11.766c3.685-1.228,8.016-3.103,11.766-4.331
	l3.685,11.766C140.929,21.01,137.244,22.238,133.56,24.113z M261.495,23.467c-3.685-1.228-7.434-2.457-11.119-3.685l3.103-11.766
	c4.331,1.228,8.016,2.457,11.766,3.685L261.495,23.467z M155.798,17.325L153.341,5.56c4.331-1.228,8.016-1.875,12.347-2.457
	l1.875,12.347C163.814,15.451,160.129,16.097,155.798,17.325z M238.61,16.679c-3.685-0.646-8.016-1.875-11.766-2.457l1.875-12.347
	c4.331,0.646,8.663,1.228,12.347,2.457L238.61,16.679z M179.265,12.994l-1.228-12.347C182.368,0,186.699,0,190.384,0l0.646,12.347
	C187.281,12.347,183.596,12.994,179.265,12.994z M215.143,12.994c-3.685,0-8.016-0.646-11.766-0.646L204.024,0
	c4.331,0,8.663,0.646,12.347,0.646L215.143,12.994z"/>
<path style="fill:#FFFFFF;" d="M197.818,352.388c-85.333,0-154.57-69.236-154.57-154.57s69.236-154.57,154.57-154.57
	s154.57,69.236,154.57,154.57S283.152,352.388,197.818,352.388z"/>
<path style="fill:#193651;" d="M197.818,358.529c-88.372,0-160.711-72.339-160.711-160.711S109.446,37.107,197.818,37.107
	s160.711,72.339,160.711,160.711S286.19,358.529,197.818,358.529z M197.818,49.455c-81.584,0-148.364,66.78-148.364,148.364
	s66.78,148.364,148.364,148.364s148.364-66.78,148.364-148.364S279.402,49.455,197.818,49.455z"/>
<g>
	<path style="fill:#F16051;" d="M136.598,197.818c0,17.907,1.875,34.586,5.56,50.101h49.455V147.717h-49.455
		C138.473,163.168,136.598,179.911,136.598,197.818z"/>
	<path style="fill:#F16051;" d="M191.612,74.796c-19.782,4.331-36.461,27.798-46.352,60.574h46.352V74.796z"/>
	<path style="fill:#F16051;" d="M271.386,197.818c0,17.907-1.875,34.586-4.913,50.101h50.683
		c6.788-15.451,9.891-32.776,9.891-50.101s-3.685-34.586-9.891-50.101h-50.683C269.511,163.168,271.386,179.911,271.386,197.818z"/>
	<path style="fill:#F16051;" d="M191.612,320.84v-60.574h-46.352C155.152,293.042,171.83,316.509,191.612,320.84z"/>
	<path style="fill:#F16051;" d="M263.37,135.37h47.58c-17.907-32.776-49.455-56.889-87.143-64.259
		C241.713,82.812,255.289,105.697,263.37,135.37z"/>
	<path style="fill:#F16051;" d="M204.024,74.796v60.574h46.352C240.485,102.594,223.806,79.127,204.024,74.796z"/>
	<path style="fill:#F16051;" d="M77.899,147.717c-6.206,15.451-9.891,32.129-9.891,50.101c0,17.907,3.685,34.586,9.891,50.101
		h50.683c-3.103-15.451-4.913-32.129-4.913-50.101c0-17.907,1.875-34.586,4.913-50.101H77.899L77.899,147.717z"/>
	<path style="fill:#F16051;" d="M132.267,260.267h-47.58c17.907,32.776,49.455,56.889,87.143,64.323
		C153.923,312.824,140.347,289.939,132.267,260.267z"/>
	<path style="fill:#F16051;" d="M263.37,260.267c-8.016,29.673-22.238,52.558-38.917,64.323
		c37.689-8.016,69.236-32.129,87.143-64.323H263.37L263.37,260.267z"/>
	<path style="fill:#F16051;" d="M259.038,197.818c0-17.907-1.875-34.65-5.56-50.101h-49.455v100.784h49.455
		C257.164,232.404,259.038,215.725,259.038,197.818z"/>
	<path style="fill:#F16051;" d="M250.376,260.267h-46.352v60.574C223.806,316.509,240.485,293.042,250.376,260.267z"/>
	<path style="fill:#F16051;" d="M132.267,135.37c8.016-29.673,22.238-52.558,38.917-64.259
		c-37.689,8.016-69.236,32.129-87.143,64.259H132.267z"/>
</g>
<g>
</g>
<g>
</g>
<g>
</g>
<g>
</g>
<g>
</g>
<g>
</g>
<g>
</g>
<g>
</g>
<g>
</g>
<g>
</g>
<g>
</g>
<g>
</g>
<g>
</g>
<g>
</g>
<g>
</g>
</svg>
