<?xml version="1.0" encoding="iso-8859-1"?>
<!-- Generator: Adobe Illustrator 19.0.0, SVG Export Plug-In . SVG Version: 6.00 Build 0)  -->
<svg version="1.1" id="Layer_1" xmlns="http://www.w3.org/2000/svg" xmlns:xlink="http://www.w3.org/1999/xlink" x="0px" y="0px"
	 viewBox="0 0 395.636 395.636" style="enable-background:new 0 0 395.636 395.636;" xml:space="preserve">
<circle style="fill:#F16051;" cx="197.818" cy="197.818" r="197.818"/>
<rect x="6.206" y="55.661" style="fill:#FFFFFF;" width="383.289" height="284.38"/>
<rect x="30.901" y="80.356" style="fill:#FDBF5E;" width="333.834" height="234.925"/>
<g>
	<rect x="158.901" y="278.174" style="fill:#193651;" width="12.347" height="12.347"/>
	<rect x="191.612" y="278.174" style="fill:#193651;" width="12.347" height="12.347"/>
	<rect x="224.388" y="278.174" style="fill:#193651;" width="12.347" height="12.347"/>
	<path style="fill:#193651;" d="M395.636,49.455H0v296.727h395.636V49.455z M383.289,326.788l-144.032-128.97L383.289,69.366
		V326.788z M373.398,61.802l-175.58,156.444L22.238,61.802H373.398z M12.347,69.366L156.38,197.818L12.347,326.271V69.366z
		 M22.238,333.834l143.45-127.935l28.444,25.341c1.228,1.228,2.457,1.875,4.331,1.875c1.875,0,3.103-0.646,4.331-1.875
		l28.444-25.341l142.158,127.935H22.238z"/>
</g>
<g>
</g>
<g>
</g>
<g>
</g>
<g>
</g>
<g>
</g>
<g>
</g>
<g>
</g>
<g>
</g>
<g>
</g>
<g>
</g>
<g>
</g>
<g>
</g>
<g>
</g>
<g>
</g>
<g>
</g>
</svg>
