<?xml version="1.0" encoding="iso-8859-1"?>
<!-- Generator: Adobe Illustrator 19.0.0, SVG Export Plug-In . SVG Version: 6.00 Build 0)  -->
<svg version="1.1" id="Layer_1" xmlns="http://www.w3.org/2000/svg" xmlns:xlink="http://www.w3.org/1999/xlink" x="0px" y="0px"
	 viewBox="0 0 395.636 395.636" style="enable-background:new 0 0 395.636 395.636;" xml:space="preserve">
<circle style="fill:#2EA2DB;" cx="197.818" cy="197.818" r="197.818"/>
<polygon style="fill:#FFFFFF;" points="246.368,6.206 246.368,38.917 214.238,38.917 214.238,6.206 182.044,6.206 182.044,38.917 
	149.915,38.917 149.915,6.206 117.786,6.206 117.786,72.339 278.497,72.339 278.497,6.206 "/>
<path style="fill:#D3D7DA;" d="M229.689,139.119c2.457-10.537,12.347-34.651,35.232-66.78H130.78
	c23.467,32.129,32.776,56.242,35.232,66.78H229.689z"/>
<path id="SVGCleanerId_0" style="fill:#FFFFFF;" d="M241.39,139.119h-86.497c-8.663,0-16.097,7.434-16.097,16.097l0,0
	c0,8.663,7.434,16.097,16.097,16.097h86.562c8.663,0,16.097-7.434,16.097-16.097l0,0
	C257.487,146.489,250.699,139.119,241.39,139.119z"/>
<rect x="92.444" y="341.204" style="fill:#FFFFFF;" width="210.812" height="48.226"/>
<polygon style="fill:#FDBF5E;" points="229.689,171.248 166.594,171.248 117.786,341.269 278.497,341.269 "/>
<g>
	<path id="SVGCleanerId_0_1_" style="fill:#FFFFFF;" d="M241.39,139.119h-86.497c-8.663,0-16.097,7.434-16.097,16.097l0,0
		c0,8.663,7.434,16.097,16.097,16.097h86.562c8.663,0,16.097-7.434,16.097-16.097l0,0
		C257.487,146.489,250.699,139.119,241.39,139.119z"/>
</g>
<g>
	<path style="fill:#193651;" d="M283.475,335.063l-45.77-157.608h3.685c12.347,0,22.238-9.891,22.238-22.238
		c0-12.347-9.891-22.238-22.238-22.238h-3.685c4.331-12.347,14.222-31.547,30.319-54.432h16.679V0h-44.541v32.776H220.38V0h-44.541
		v32.776h-19.717V0h-44.477v78.481h16.679c16.097,22.885,25.988,42.02,30.319,54.432h-3.685c-12.347,0-22.238,9.891-22.238,22.238
		c0,12.347,9.891,22.238,22.238,22.238h3.685l-45.834,157.673h-26.57v60.574h223.16v-60.574H283.475z M123.992,66.133V12.347h19.782
		v32.776h44.541V12.347h19.782v32.776h44.541V12.347h19.782v53.786H123.992z M143.127,78.481h110.675
		c-15.451,22.885-24.76,42.02-28.444,54.432h-53.786C167.24,120.566,158.578,101.366,143.127,78.481z M154.893,165.042
		c-5.56,0-9.891-4.331-9.891-9.891c0-5.56,4.331-9.891,9.891-9.891h6.788h72.921h6.788c5.56,0,9.891,4.331,9.891,9.891
		c0,5.56-4.331,9.891-9.891,9.891H154.893z M170.925,177.39h53.786l45.77,157.608H125.802L170.925,177.39z M297.697,383.289H98.586
		V347.41h198.465v35.879H297.697z"/>
	<rect x="191.677" y="210.812" style="fill:#193651;" width="12.347" height="12.347"/>
	<rect x="191.677" y="249.729" style="fill:#193651;" width="12.347" height="12.347"/>
	<rect x="191.677" y="289.293" style="fill:#193651;" width="12.347" height="12.347"/>
</g>
<g>
</g>
<g>
</g>
<g>
</g>
<g>
</g>
<g>
</g>
<g>
</g>
<g>
</g>
<g>
</g>
<g>
</g>
<g>
</g>
<g>
</g>
<g>
</g>
<g>
</g>
<g>
</g>
<g>
</g>
</svg>
