<?xml version="1.0" encoding="iso-8859-1"?>
<!-- Generator: Adobe Illustrator 19.0.0, SVG Export Plug-In . SVG Version: 6.00 Build 0)  -->
<svg version="1.1" id="Layer_1" xmlns="http://www.w3.org/2000/svg" xmlns:xlink="http://www.w3.org/1999/xlink" x="0px" y="0px"
	 viewBox="0 0 395.701 395.701" style="enable-background:new 0 0 395.701 395.701;" xml:space="preserve">
<circle style="fill:#E1E6E9;" cx="197.56" cy="163.814" r="163.814"/>
<rect x="34.974" y="186.053" style="fill:#FFFFFF;stroke:#193651;stroke-width:2;stroke-linejoin:round;stroke-miterlimit:10;" width="325.754" height="203.378"/>
<rect id="SVGCleanerId_0" x="59.733" y="210.812" style="fill:#F16051;" width="276.299" height="153.923"/>
<g>
	<path style="fill:#FFFFFF;" d="M197.56,6.206c-64.259,0-116.816,52.558-116.816,116.816v63.677h37.107v-63.677
		c0-43.895,35.879-79.774,79.774-79.774s79.774,35.879,79.774,79.774v63.677h37.107v-63.677
		C314.376,58.699,261.883,6.206,197.56,6.206z"/>
	<rect x="34.974" y="186.053" style="fill:#FFFFFF;" width="325.754" height="203.378"/>
</g>
<path style="fill:#193651;" d="M360.145,179.911h-39.564v-56.889C320.582,55.014,265.568,0,197.56,0S74.537,55.014,74.537,123.022
	v56.889H34.974c-3.685,0-6.206,2.457-6.206,6.206v203.378c0,3.685,2.457,6.206,6.206,6.206h325.754c3.685,0,6.206-2.457,6.206-6.206
	V186.053C366.352,182.368,363.83,179.911,360.145,179.911z M86.885,123.022c0-61.22,49.455-110.675,110.675-110.675
	s110.675,49.455,110.675,110.675v56.889h-24.76v-56.889c0-47.58-38.335-85.915-85.915-85.915s-85.915,38.335-85.915,85.915v56.889
	h-24.76L86.885,123.022L86.885,123.022z M271.127,123.022v56.889H123.992v-56.889c0-40.792,32.776-73.568,73.568-73.568
	S271.127,82.23,271.127,123.022z M353.939,383.289H41.18v-191.03h313.406v191.03H353.939z"/>
<g>
	<rect id="SVGCleanerId_0_1_" x="59.733" y="210.812" style="fill:#F16051;" width="276.299" height="153.923"/>
</g>
<g>
	<rect x="279.79" y="251.927" style="fill:#FFFFFF;" width="12.347" height="12.929"/>
	<rect x="279.79" y="281.018" style="fill:#FFFFFF;" width="12.347" height="12.929"/>
	<rect x="279.79" y="310.044" style="fill:#FFFFFF;" width="12.347" height="12.929"/>
	<rect x="102.982" y="251.927" style="fill:#FFFFFF;" width="12.347" height="12.929"/>
	<rect x="102.982" y="281.018" style="fill:#FFFFFF;" width="12.347" height="12.929"/>
	<rect x="102.982" y="310.044" style="fill:#FFFFFF;" width="12.347" height="12.929"/>
</g>
<path style="fill:#193651;" d="M197.56,281.018c-7.564,0-13.317-5.754-13.317-13.317s5.754-13.317,13.317-13.317
	s13.317,5.754,13.317,13.317h12.929c0-12.477-8.275-22.691-19.782-25.471v-6.077h-12.929v6.077
	c-11.507,2.78-19.782,12.994-19.782,25.471c0,14.739,11.507,26.246,26.246,26.246c7.564,0,13.317,5.754,13.317,13.317
	c0,7.564-5.754,13.317-13.317,13.317s-13.317-5.754-13.317-13.317h-12.929c0,12.477,8.275,22.691,19.782,25.471v6.659h12.929v-6.659
	c11.507-2.78,19.782-12.994,19.782-25.471C223.806,292.525,212.299,281.018,197.56,281.018z"/>
<g>
</g>
<g>
</g>
<g>
</g>
<g>
</g>
<g>
</g>
<g>
</g>
<g>
</g>
<g>
</g>
<g>
</g>
<g>
</g>
<g>
</g>
<g>
</g>
<g>
</g>
<g>
</g>
<g>
</g>
</svg>
