<?xml version="1.0" encoding="iso-8859-1"?>
<!-- Generator: Adobe Illustrator 19.0.0, SVG Export Plug-In . SVG Version: 6.00 Build 0)  -->
<svg version="1.1" id="Layer_1" xmlns="http://www.w3.org/2000/svg" xmlns:xlink="http://www.w3.org/1999/xlink" x="0px" y="0px"
	 viewBox="0 0 395.636 395.636" style="enable-background:new 0 0 395.636 395.636;" xml:space="preserve">
<path style="fill:#FFFFFF;" d="M197.818,6.206L197.818,6.206C92.121,6.206,6.206,92.121,6.206,197.818l0,0
	c0,105.697,85.915,191.612,191.612,191.612l0,0c105.697,0,191.612-85.915,191.612-191.612l0,0
	C389.43,92.121,303.515,6.206,197.818,6.206z"/>
<path style="fill:#193651;" d="M197.818,395.636C89.018,395.636,0,306.618,0,197.818S89.018,0,197.818,0
	s197.818,89.018,197.818,197.818S306.618,395.636,197.818,395.636z M197.818,12.347c-102.012,0-185.471,83.459-185.471,185.471
	s83.459,185.471,185.471,185.471s185.471-83.459,185.471-185.471S299.83,12.347,197.818,12.347z"/>
<path style="fill:#4FBF9F;" d="M197.818,358.529c-88.372,0-160.711-72.339-160.711-160.711S109.446,37.107,197.818,37.107
	s160.711,72.339,160.711,160.711S286.19,358.529,197.818,358.529z"/>
<g>
	
		<rect x="105.832" y="277.91" transform="matrix(0.7071 0.7071 -0.7071 0.7071 233.6829 4.0064)" style="fill:#193651;" width="12.347" height="12.347"/>
	
		<rect x="278.281" y="105.387" transform="matrix(-0.7071 0.7071 -0.7071 -0.7071 564.4802 -10.6949)" style="fill:#193651;" width="12.347" height="12.347"/>
	
		<rect x="105.415" y="105.882" transform="matrix(0.7071 0.7071 -0.7071 0.7071 111.9188 -46.0849)" style="fill:#193651;" width="12.347" height="12.347"/>
	
		<rect x="277.915" y="278.312" transform="matrix(-0.707 -0.7072 0.7072 -0.707 283.751 686.5291)" style="fill:#193651;" width="12.347" height="12.347"/>
</g>
<polygon style="fill:#FFFFFF;" points="236.154,222.578 320.194,197.818 236.154,173.123 252.832,142.804 222.578,159.483 
	197.818,75.442 173.123,159.483 142.804,142.804 159.483,173.123 75.442,197.818 159.483,222.578 142.804,252.832 173.123,236.154 
	197.818,320.194 222.578,236.154 252.832,252.832 "/>
<path style="fill:#193651;" d="M197.818,341.85l-28.444-96.453l-42.02,22.885l22.885-42.02l-96.453-28.444l96.453-28.444
	l-22.885-42.02l42.02,22.885l28.444-96.453l28.444,96.453l42.02-22.885l-22.885,42.02l96.453,28.444l-96.453,28.444l22.885,42.02
	l-42.02-22.885L197.818,341.85z M176.808,227.491l21.01,70.465l21.01-71.111l18.554,9.891l-9.891-18.554l70.465-20.428
	l-71.111-21.01l9.891-18.554l-18.554,9.891l-20.428-70.465l-21.01,71.111l-18.554-9.891l9.891,18.554l-70.465,20.428l71.111,21.01
	l-9.891,18.554L176.808,227.491z"/>
<circle style="fill:#FDBF5E;" cx="197.818" cy="197.818" r="19.782"/>
<g>
</g>
<g>
</g>
<g>
</g>
<g>
</g>
<g>
</g>
<g>
</g>
<g>
</g>
<g>
</g>
<g>
</g>
<g>
</g>
<g>
</g>
<g>
</g>
<g>
</g>
<g>
</g>
<g>
</g>
</svg>
