<?xml version="1.0" encoding="iso-8859-1"?>
<!-- Generator: Adobe Illustrator 19.0.0, SVG Export Plug-In . SVG Version: 6.00 Build 0)  -->
<svg version="1.1" id="Layer_1" xmlns="http://www.w3.org/2000/svg" xmlns:xlink="http://www.w3.org/1999/xlink" x="0px" y="0px"
	 viewBox="0 0 395.701 395.701" style="enable-background:new 0 0 395.701 395.701;" xml:space="preserve">
<path style="fill:#FFFFFF;" d="M377.083,99.879H18.554c-6.788,0-12.347-5.56-12.347-12.347v-66.78
	c0-6.788,5.56-12.347,12.347-12.347h358.529c6.788,0,12.347,5.56,12.347,12.347v66.78C389.43,94.319,383.871,99.879,377.083,99.879z
	"/>
<rect x="30.901" y="33.099" style="fill:#F16051;" width="236.154" height="42.02"/>
<path style="fill:#2EA2DB;" d="M322.715,54.174L322.715,54.174c0-11.766,9.244-21.01,21.01-21.01l0,0
	c11.766,0,21.01,9.244,21.01,21.01l0,0c0,11.766-9.244,21.01-21.01,21.01l0,0C331.96,75.184,322.715,65.293,322.715,54.174z"/>
<path style="fill:#FFFFFF;" d="M377.083,219.798H18.554c-6.788,0-12.347-5.56-12.347-12.347v-67.362
	c0-6.788,5.56-12.347,12.347-12.347h358.529c6.788,0,12.347,5.56,12.347,12.347v66.78
	C389.43,214.238,383.871,219.798,377.083,219.798z"/>
<rect x="30.901" y="152.436" style="fill:#F16051;" width="236.154" height="42.02"/>
<path style="fill:#2EA2DB;" d="M322.715,173.446L322.715,173.446c0-11.766,9.244-21.01,21.01-21.01l0,0
	c11.766,0,21.01,9.244,21.01,21.01l0,0c0,11.766-9.244,21.01-21.01,21.01l0,0C331.96,195.103,322.715,185.212,322.715,173.446z"/>
<path style="fill:#FFFFFF;" d="M377.083,339.135H18.554c-6.788,0-12.347-5.56-12.347-12.347v-66.78
	c0-6.788,5.56-12.347,12.347-12.347h358.529c6.788,0,12.347,5.56,12.347,12.347v66.78
	C389.43,333.576,383.871,339.135,377.083,339.135z"/>
<path style="fill:#193651;" d="M377.083,106.085c10.537,0,18.554-8.016,18.554-18.554v-66.78c0-10.537-8.016-18.554-18.554-18.554
	H18.554C8.016,2.198,0,10.279,0,20.752v66.78c0,10.537,8.016,18.554,18.554,18.554h173.123v16.097H18.554
	C8.016,122.117,0,130.198,0,140.671v66.78c0,10.537,8.016,18.554,18.554,18.554h173.123v16.097H18.554
	C8.016,242.101,0,250.117,0,260.59v66.78c0,10.537,8.016,18.554,18.554,18.554h173.123v35.232H99.556v12.347h196.525v-12.347
	h-92.057v-35.232h173.123c10.537,0,18.554-8.016,18.554-18.554v-67.362c0-10.537-8.016-18.554-18.554-18.554H204.024v-16.097
	h173.123c10.537,0,18.554-8.016,18.554-18.554v-66.715c0-10.537-8.016-18.554-18.554-18.554H204.024v-16.097h173.123v0.646H377.083z
	 M377.083,253.802c3.685,0,6.206,2.457,6.206,6.206v66.78c0,3.685-2.457,6.206-6.206,6.206H18.554c-3.685,0-6.206-2.457-6.206-6.206
	v-66.78c0-3.685,2.457-6.206,6.206-6.206H377.083z M377.083,133.883c3.685,0,6.206,2.457,6.206,6.206v66.78
	c0,3.685-2.457,6.206-6.206,6.206H18.554c-3.685,0-6.206-2.457-6.206-6.206v-66.78c0-3.685,2.457-6.206,6.206-6.206H377.083z
	 M18.554,93.673c-3.685,0-6.206-2.457-6.206-6.206V20.752c0-3.685,2.457-6.206,6.206-6.206h358.529c3.685,0,6.206,2.457,6.206,6.206
	v66.78c0,3.685-2.457,6.206-6.206,6.206C377.083,93.737,18.554,93.737,18.554,93.673z"/>
<rect x="30.901" y="272.356" style="fill:#F16051;" width="236.154" height="42.02"/>
<path style="fill:#2EA2DB;" d="M322.715,293.366L322.715,293.366c0-11.766,9.244-21.01,21.01-21.01l0,0
	c11.766,0,21.01,9.244,21.01,21.01l0,0c0,11.766-9.244,21.01-21.01,21.01l0,0C331.96,314.376,322.715,305.131,322.715,293.366z"/>
<g>
	<rect x="62.448" y="47.968" style="fill:#FFFFFF;" width="12.347" height="12.347"/>
	<rect x="102.594" y="47.968" style="fill:#FFFFFF;" width="12.347" height="12.347"/>
	<rect x="142.804" y="47.968" style="fill:#FFFFFF;" width="12.347" height="12.347"/>
	<rect x="182.949" y="47.968" style="fill:#FFFFFF;" width="12.347" height="12.347"/>
	<rect x="223.16" y="47.968" style="fill:#FFFFFF;" width="12.347" height="12.347"/>
	<rect x="62.448" y="167.24" style="fill:#FFFFFF;" width="12.347" height="12.347"/>
	<rect x="102.594" y="167.24" style="fill:#FFFFFF;" width="12.347" height="12.347"/>
	<rect x="142.804" y="167.24" style="fill:#FFFFFF;" width="12.347" height="12.347"/>
	<rect x="182.949" y="167.24" style="fill:#FFFFFF;" width="12.347" height="12.347"/>
	<rect x="223.16" y="167.24" style="fill:#FFFFFF;" width="12.347" height="12.347"/>
	<rect x="62.448" y="287.224" style="fill:#FFFFFF;" width="12.347" height="12.347"/>
	<rect x="102.594" y="287.224" style="fill:#FFFFFF;" width="12.347" height="12.347"/>
	<rect x="142.804" y="287.224" style="fill:#FFFFFF;" width="12.347" height="12.347"/>
	<rect x="182.949" y="287.224" style="fill:#FFFFFF;" width="12.347" height="12.347"/>
	<rect x="223.16" y="287.224" style="fill:#FFFFFF;" width="12.347" height="12.347"/>
</g>
<g>
</g>
<g>
</g>
<g>
</g>
<g>
</g>
<g>
</g>
<g>
</g>
<g>
</g>
<g>
</g>
<g>
</g>
<g>
</g>
<g>
</g>
<g>
</g>
<g>
</g>
<g>
</g>
<g>
</g>
</svg>
