<?xml version="1.0" encoding="iso-8859-1"?>
<!-- Generator: Adobe Illustrator 19.0.0, SVG Export Plug-In . SVG Version: 6.00 Build 0)  -->
<svg version="1.1" id="Layer_1" xmlns="http://www.w3.org/2000/svg" xmlns:xlink="http://www.w3.org/1999/xlink" x="0px" y="0px"
	 viewBox="0 0 395.636 395.636" style="enable-background:new 0 0 395.636 395.636;" xml:space="preserve">
<g>
	<rect x="87.143" y="6.206" style="fill:#FFFFFF;" width="220.703" height="69.236"/>
	<polygon style="fill:#FFFFFF;" points="389.43,75.442 389.43,285.608 308.493,285.608 308.493,226.263 87.143,226.263 
		87.143,285.608 6.206,285.608 6.206,75.442 	"/>
</g>
<polygon style="fill:#4FBF9F;" points="364.735,100.137 364.735,260.848 308.493,260.848 308.493,226.263 87.143,226.263 
	87.143,260.848 30.901,260.848 30.901,100.137 "/>
<rect x="87.143" y="226.263" style="fill:#FFFFFF;" width="221.285" height="163.232"/>
<rect x="111.903" y="250.958" style="fill:#E1E6E9;" width="171.248" height="113.778"/>
<g>
	<rect x="134.788" y="271.386" style="fill:#193651;" width="126.707" height="12.347"/>
	<rect x="134.788" y="301.64" style="fill:#193651;" width="126.707" height="12.347"/>
	<rect x="134.788" y="331.96" style="fill:#193651;" width="126.707" height="12.347"/>
</g>
<g>
	<rect x="55.661" y="124.897" style="fill:#FFFFFF;" width="12.347" height="12.347"/>
	<rect x="81.002" y="124.897" style="fill:#FFFFFF;" width="12.347" height="12.347"/>
	<rect x="105.697" y="124.897" style="fill:#FFFFFF;" width="12.347" height="12.347"/>
	<circle style="fill:#FFFFFF;" cx="323.297" cy="142.158" r="16.679"/>
</g>
<g>
	<path style="fill:#193651;" d="M323.297,165.042c-12.994,0-22.885-10.537-22.885-22.885c0-12.994,10.537-22.885,22.885-22.885
		c12.994,0,22.885,10.537,22.885,22.885C346.182,154.505,335.644,165.042,323.297,165.042z M323.297,131.038
		c-5.56,0-10.537,4.913-10.537,10.537c0,6.206,4.913,10.537,10.537,10.537s10.537-4.913,10.537-10.537
		C333.834,135.952,328.857,131.038,323.297,131.038z"/>
	<path style="fill:#193651;" d="M314.634,69.236V0H81.002v69.236H0v222.578h81.002v103.822h233.051V291.814h81.584V69.236H314.634z
		 M93.349,12.347h208.356v56.889H93.349V12.347z M93.349,383.289V232.404h208.356v150.82H93.349V383.289z M383.289,279.402h-68.655
		v-47.58h26.57v-12.347H55.014v12.347h26.57v47.58H12.347V81.584h370.941L383.289,279.402L383.289,279.402z"/>
</g>
<g>
</g>
<g>
</g>
<g>
</g>
<g>
</g>
<g>
</g>
<g>
</g>
<g>
</g>
<g>
</g>
<g>
</g>
<g>
</g>
<g>
</g>
<g>
</g>
<g>
</g>
<g>
</g>
<g>
</g>
</svg>
