<?xml version="1.0" encoding="iso-8859-1"?>
<!-- Generator: Adobe Illustrator 19.0.0, SVG Export Plug-In . SVG Version: 6.00 Build 0)  -->
<svg version="1.1" id="Layer_1" xmlns="http://www.w3.org/2000/svg" xmlns:xlink="http://www.w3.org/1999/xlink" x="0px" y="0px"
	 viewBox="0 0 390.077 390.077" style="enable-background:new 0 0 390.077 390.077;" xml:space="preserve">
<path style="fill:#FFFFFF;" d="M29.349,6.788c-12.347,0-22.885,10.537-22.885,23.467v173.123v43.248v91.475l64.905-91.475h263.37
	c12.347,0,22.885-10.537,22.885-23.467V6.788H29.349z"/>
<g>
	<path style="fill:#193651;" d="M0.323,357.301V29.673C0.323,13.576,13.317,0,29.349,0h334.416v143.451h-12.347V12.994H29.349
		c-9.244,0-16.679,7.434-16.679,17.325V319.03l55.661-78.545h71.693v12.347H74.473L0.323,357.301z"/>
	<rect x="79.45" y="53.786" style="fill:#193651;" width="205.253" height="12.347"/>
	<rect x="79.45" y="92.121" style="fill:#193651;" width="205.253" height="12.347"/>
</g>
<path id="SVGCleanerId_0" style="fill:#F16051;" d="M375.531,183.596c8.016,0,14.222,6.206,14.222,14.222v108.154v27.216v56.889
	l-40.792-56.889H184.501c-8.016,0-14.222-6.206-14.222-14.222v-135.37H375.531z"/>
<g>
	<path id="SVGCleanerId_0_1_" style="fill:#F16051;" d="M375.531,183.596c8.016,0,14.222,6.206,14.222,14.222v108.154v27.216v56.889
		l-40.792-56.889H184.501c-8.016,0-14.222-6.206-14.222-14.222v-135.37H375.531z"/>
</g>
<g>
	<rect x="217.277" y="222.578" style="fill:#FFFFFF;" width="126.125" height="12.347"/>
	<rect x="217.277" y="264.598" style="fill:#FFFFFF;" width="11.766" height="12.347"/>
	<rect x="245.721" y="264.598" style="fill:#FFFFFF;" width="11.766" height="12.347"/>
	<rect x="274.166" y="264.598" style="fill:#FFFFFF;" width="11.766" height="12.347"/>
	<rect x="302.61" y="264.598" style="fill:#FFFFFF;" width="11.766" height="12.347"/>
	<rect x="331.636" y="264.598" style="fill:#FFFFFF;" width="11.766" height="12.347"/>
</g>
<g>
	<rect x="80.679" y="127.354" style="fill:#193651;" width="11.766" height="12.347"/>
	<rect x="119.014" y="127.354" style="fill:#193651;" width="11.766" height="12.347"/>
	<rect x="157.349" y="127.354" style="fill:#193651;" width="11.766" height="12.347"/>
	<rect x="195.685" y="127.354" style="fill:#193651;" width="11.766" height="12.347"/>
	<rect x="233.956" y="127.354" style="fill:#193651;" width="11.766" height="12.347"/>
	<rect x="272.291" y="127.354" style="fill:#193651;" width="11.766" height="12.347"/>
</g>
<g>
</g>
<g>
</g>
<g>
</g>
<g>
</g>
<g>
</g>
<g>
</g>
<g>
</g>
<g>
</g>
<g>
</g>
<g>
</g>
<g>
</g>
<g>
</g>
<g>
</g>
<g>
</g>
<g>
</g>
</svg>
