<?xml version="1.0" encoding="iso-8859-1"?>
<!-- Generator: Adobe Illustrator 19.0.0, SVG Export Plug-In . SVG Version: 6.00 Build 0)  -->
<svg version="1.1" id="Layer_1" xmlns="http://www.w3.org/2000/svg" xmlns:xlink="http://www.w3.org/1999/xlink" x="0px" y="0px"
	 viewBox="0 0 395.636 395.636" style="enable-background:new 0 0 395.636 395.636;" xml:space="preserve">
<rect x="335.644" y="28.485" style="fill:#4FBF9F;" width="53.786" height="110.675"/>
<rect x="6.206" y="256.558" style="fill:#FDBF5E;" width="53.786" height="110.675"/>
<g>
	<rect x="27.216" y="330.772" style="fill:#193651;" width="12.347" height="12.347"/>
	<rect x="27.216" y="306.012" style="fill:#193651;" width="12.347" height="12.347"/>
	<rect x="27.216" y="281.317" style="fill:#193651;" width="12.347" height="12.347"/>
	<rect x="356.073" y="102.052" style="fill:#193651;" width="12.347" height="12.347"/>
	<rect x="356.073" y="77.293" style="fill:#193651;" width="12.347" height="12.347"/>
	<rect x="356.073" y="52.598" style="fill:#193651;" width="12.347" height="12.347"/>
	<path style="fill:#193651;" d="M320.194,301.681c-4.913-11.119-17.907-16.097-29.026-12.347l-66.78,22.885c0-1.228,0-2.457,0-3.685
		c0-13.576-11.119-24.76-24.76-24.76h-50.683c-1.228,0-3.103,0-4.331-0.646l-32.776-17.325h-0.646
		c-3.103-1.228-6.206-1.875-9.891-1.875H65.422v-13.576H0v123.022h66.133v-10.537h11.119l93.349,30.901
		c3.685,1.228,7.434,1.875,11.119,1.875c5.56,0,11.766-1.228,16.679-4.331l111.257-58.699
		C320.84,327.087,325.754,313.446,320.194,301.681z M12.347,262.764h41.438v1.228v97.034H12.347V262.764z M304.162,322.109
		l-111.257,58.699c-5.56,3.103-12.347,3.685-18.554,1.228l-95.224-31.547H65.551v-74.15h35.879c1.875,0,3.685,0,4.913,0.646
		l32.776,17.325l0.646,0.646c3.103,1.228,6.206,1.875,8.663,1.875h50.683c6.788,0,12.347,5.56,12.347,12.347
		c0,3.685-1.875,6.788-4.331,9.244l-9.244,3.103h-40.792c-11.119,0-19.782,9.244-19.782,19.782h12.347
		c0-4.331,3.685-7.434,7.434-7.434h42.02c5.56,0,9.891-1.875,14.222-4.331l81.002-27.798c5.56-1.875,11.119,0.646,13.576,5.56
		C311.596,312.865,309.075,319.006,304.162,322.109z"/>
	<path style="fill:#193651;" d="M148.299,203.418c0.84-1.875,1.293-4.008,1.293-6.206c0-2.198-0.453-4.267-1.293-6.206h21.333
		c-0.517,1.939-0.84,4.073-0.84,6.206c0,2.133,0.323,4.202,0.84,6.206H148.299z"/>
</g>
<circle style="fill:#FDBF5E;" cx="134.141" cy="197.212" r="15.451"/>
<path style="fill:#193651;" d="M218.634,231.927c-4.396,0.388-8.275,2.651-10.796,6.012l-10.667-18.489
	c4.137-1.034,7.822-3.168,10.731-6.141L218.634,231.927z"/>
<circle style="fill:#F16051;" cx="220.057" cy="247.313" r="15.451"/>
<path style="fill:#193651;" d="M218.505,163.143l-10.473,18.166c-2.909-2.974-6.529-5.172-10.667-6.206l10.408-17.972
	C210.295,160.428,214.109,162.756,218.505,163.143z"/>
<circle style="fill:#4FBF9F;" cx="220.057" cy="147.758" r="15.451"/>
<circle style="fill:#E1E6E9;" cx="191.612" cy="197.212" r="22.885"/>
<path style="fill:#193651;" d="M329.503,22.279v10.537h-11.119l-93.35-30.901c-9.244-3.103-19.782-2.457-28.444,2.457L85.333,63.071
	c-11.119,6.206-15.451,19.782-10.537,30.901c4.978,11.119,17.907,16.097,29.026,12.347l66.78-22.885c0,1.228,0,2.457,0,3.685
	c0,13.576,11.119,24.76,24.76,24.76h50.683c1.228,0,3.103,0,4.331,0.646l32.776,17.325h1.228c3.103,1.228,6.206,1.875,9.891,1.875
	h35.879v13.576h65.487V22.279H329.503z M330.085,118.731h-36.461v0.646c-1.875,0-3.685,0-4.913-0.646l-32.776-17.325l-0.646-0.646
	c-3.103-1.228-6.206-1.875-9.244-1.875h-50.683c-6.853,0-12.347-5.56-12.347-12.347s5.56-12.347,12.347-12.347h42.02
	c11.119,0,19.782-9.244,19.782-19.782h-12.347c0,4.331-3.685,7.434-7.434,7.434h-42.02c-5.56,0-9.891,1.875-14.222,4.331
	l-81.002,27.798c-5.56,1.875-11.119-0.646-13.576-5.56c-2.457-5.56-0.646-11.766,4.978-14.804l111.257-58.699
	c5.56-3.103,12.347-3.685,18.554-1.228l95.224,31.547h13.576v73.503H330.085z M383.289,132.953h-41.438v-1.228V34.626h41.438
	V132.953z"/>
<g>
</g>
<g>
</g>
<g>
</g>
<g>
</g>
<g>
</g>
<g>
</g>
<g>
</g>
<g>
</g>
<g>
</g>
<g>
</g>
<g>
</g>
<g>
</g>
<g>
</g>
<g>
</g>
<g>
</g>
</svg>
