<?xml version="1.0" encoding="iso-8859-1"?>
<!-- Generator: Adobe Illustrator 19.0.0, SVG Export Plug-In . SVG Version: 6.00 Build 0)  -->
<svg version="1.1" id="Layer_1" xmlns="http://www.w3.org/2000/svg" xmlns:xlink="http://www.w3.org/1999/xlink" x="0px" y="0px"
	 viewBox="0 0 512 512" style="enable-background:new 0 0 512 512;" xml:space="preserve">
<polygon style="fill:#D3D7DA;" points="336.8,127.2 456,127.2 336.8,8 "/>
<path style="fill:#193651;" d="M464,512H48V0h297.6L464,118.4V512z M64,496h384V124.8L339.2,16H64V496z"/>
<path style="fill:#F16051;" d="M137.6,198.4c11.2,7.2,24.8,11.2,39.2,11.2c35.2,0,64.8-24.8,72-58.4l-68.8-8.8L137.6,198.4z"/>
<path style="fill:#FDBF5E;" d="M251.2,136.8c0-1.6,0-2.4,0-4c0-38.4-29.6-70.4-68-72.8v68L251.2,136.8z"/>
<path style="fill:#2EA2DB;" d="M169.6,60c-37.6,3.2-68,34.4-68,72.8c0,22.4,9.6,41.6,24.8,55.2l42.4-56.8V60H169.6z"/>
<rect x="192" y="428.8" style="fill:#193651;" width="16" height="16"/>
<rect x="121.6" y="417.6" style="fill:#F16051;" width="37.6" height="37.6"/>
<rect x="192" y="356.8" style="fill:#193651;" width="16" height="16"/>
<rect x="121.6" y="345.6" style="fill:#F16051;" width="37.6" height="37.6"/>
<g>
	<rect x="192" y="284.8" style="fill:#193651;" width="16" height="16"/>
	<rect x="229.6" y="428.8" style="fill:#193651;" width="160" height="16"/>
	<rect x="229.6" y="356.8" style="fill:#193651;" width="160" height="16"/>
	<rect x="229.6" y="284.8" style="fill:#193651;" width="160" height="16"/>
</g>
<rect x="121.6" y="273.6" style="fill:#F16051;" width="37.6" height="37.6"/>
<g>
</g>
<g>
</g>
<g>
</g>
<g>
</g>
<g>
</g>
<g>
</g>
<g>
</g>
<g>
</g>
<g>
</g>
<g>
</g>
<g>
</g>
<g>
</g>
<g>
</g>
<g>
</g>
<g>
</g>
</svg>
