<?xml version="1.0" encoding="iso-8859-1"?>
<!-- Generator: Adobe Illustrator 19.0.0, SVG Export Plug-In . SVG Version: 6.00 Build 0)  -->
<svg version="1.1" id="Layer_1" xmlns="http://www.w3.org/2000/svg" xmlns:xlink="http://www.w3.org/1999/xlink" x="0px" y="0px"
	 viewBox="0 0 398.158 398.158" style="enable-background:new 0 0 398.158 398.158;" xml:space="preserve">
<ellipse style="fill:#FFFFFF;" cx="68.622" cy="280.63" rx="29.673" ry="29.026"/>
<path style="fill:#F16051;" d="M70.497,333.834h-4.331c-32.129,0-58.699,25.988-58.699,58.117h122.376l0,0
	C129.842,359.758,103.273,333.834,70.497,333.834z"/>
<ellipse style="fill:#FFFFFF;" cx="199.079" cy="280.63" rx="29.673" ry="29.026"/>
<path style="fill:#FDBF5E;" d="M200.954,333.834h-4.331c-32.776,0-59.345,25.988-59.345,58.117h122.376l0,0
	C260.299,359.758,233.665,333.834,200.954,333.834z"/>
<ellipse style="fill:#FFFFFF;" cx="329.535" cy="280.63" rx="29.673" ry="29.026"/>
<g>
	<path style="fill:#193651;" d="M329.535,316.509c-19.782,0-35.879-16.097-35.879-35.232c0-19.782,16.097-35.232,35.879-35.232
		c19.782,0,35.879,16.097,35.879,35.232C365.35,300.412,349.317,316.509,329.535,316.509z M329.535,257.745
		c-12.994,0-23.467,10.537-23.467,22.885c0,12.347,10.537,23.467,23.467,23.467s23.467-10.537,23.467-22.885
		C353.002,268.283,342.529,257.745,329.535,257.745z"/>
	<path style="fill:#193651;" d="M199.079,316.509c-19.782,0-35.879-16.097-35.879-35.232c0-19.782,16.097-35.232,35.879-35.232
		s35.879,16.097,35.879,35.232S218.861,316.509,199.079,316.509z M199.079,257.745c-12.994,0-23.467,10.537-23.467,22.885
		c0,12.347,10.537,23.467,23.467,23.467c12.929,0,23.467-10.537,23.467-22.885C222.545,268.283,212.073,257.745,199.079,257.745z"/>
	<path style="fill:#193651;" d="M68.622,316.509c-19.782,0-35.879-16.097-35.879-35.232c0-19.782,16.097-35.232,35.879-35.232
		s35.879,16.097,35.879,35.232S88.404,316.509,68.622,316.509z M68.622,257.745c-12.994,0-23.467,10.537-23.467,22.885
		c0,12.347,10.537,23.467,23.467,23.467s23.467-10.537,23.467-22.885C92.154,268.283,81.616,257.745,68.622,257.745z"/>
</g>
<path style="fill:#2EA2DB;" d="M331.345,333.834h-4.331c-32.776,0-59.345,25.988-59.345,58.117h123.022l0,0
	C390.691,359.758,364.121,333.834,331.345,333.834z"/>
<g>
	<path style="fill:#193651;" d="M331.345,327.628h-4.331c-30.319,0-56.242,21.01-63.03,48.808
		c-6.788-27.798-32.776-48.808-63.03-48.808h-4.331c-30.319,0-56.242,21.01-63.03,48.808c-6.788-27.798-32.776-48.808-63.03-48.808
		H66.23c-35.943,0-64.97,28.444-64.97,64.323v6.206h395.636v-6.206C396.897,356.073,367.871,327.628,331.345,327.628z
		 M14.255,385.745c3.103-25.988,25.341-45.77,52.558-45.77h4.331c27.216,0,49.455,20.428,52.558,45.77H14.255z M144.711,385.745
		c3.103-25.988,25.341-45.77,52.558-45.77h4.331c27.216,0,49.455,20.428,52.558,45.77H144.711z M275.103,385.745
		c3.103-25.988,25.341-45.77,52.558-45.77h4.331c27.216,0,49.455,20.428,52.558,45.77H275.103z"/>
	<polygon style="fill:#193651;" points="161.972,85.915 171.281,94.578 194.747,71.111 203.41,71.111 226.877,94.578 
		236.186,85.915 199.079,49.455 	"/>
	<rect x="192.873" y="157.608" style="fill:#193651;" width="12.347" height="12.347"/>
	<rect x="192.873" y="132.913" style="fill:#193651;" width="12.347" height="12.347"/>
	<rect x="192.873" y="182.368" style="fill:#193651;" width="12.347" height="12.347"/>
	<rect x="192.873" y="207.063" style="fill:#193651;" width="12.347" height="12.347"/>
	<rect x="192.873" y="83.459" style="fill:#193651;" width="12.347" height="12.347"/>
	<rect x="192.873" y="108.154" style="fill:#193651;" width="12.347" height="12.347"/>
	<polygon style="fill:#193651;" points="31.58,147.717 40.178,156.38 64.873,132.267 72.372,132.267 96.485,156.38 105.083,147.717 
		68.622,111.257 	"/>
	<rect x="62.481" y="194.133" style="fill:#193651;" width="12.347" height="12.347"/>
	<rect x="62.481" y="218.828" style="fill:#193651;" width="12.347" height="6.206"/>
	<rect x="62.481" y="169.374" style="fill:#193651;" width="12.347" height="12.347"/>
	<rect x="62.481" y="144.679" style="fill:#193651;" width="12.347" height="12.347"/>
	<polygon style="fill:#193651;" points="329.535,0 293.075,36.461 301.673,45.123 325.786,21.01 333.285,21.01 357.98,45.123 
		366.578,36.461 	"/>
	<rect x="323.329" y="132.267" style="fill:#193651;" width="12.347" height="12.347"/>
	<rect x="323.329" y="157.026" style="fill:#193651;" width="12.347" height="12.347"/>
	<rect x="323.329" y="181.721" style="fill:#193651;" width="12.347" height="12.347"/>
	<rect x="323.329" y="206.481" style="fill:#193651;" width="12.347" height="12.347"/>
	<rect x="323.329" y="58.117" style="fill:#193651;" width="12.347" height="12.347"/>
	<rect x="323.329" y="33.358" style="fill:#193651;" width="12.347" height="12.347"/>
	<rect x="323.329" y="82.812" style="fill:#193651;" width="12.347" height="12.347"/>
	<rect x="323.329" y="107.572" style="fill:#193651;" width="12.347" height="12.347"/>
</g>
<g>
</g>
<g>
</g>
<g>
</g>
<g>
</g>
<g>
</g>
<g>
</g>
<g>
</g>
<g>
</g>
<g>
</g>
<g>
</g>
<g>
</g>
<g>
</g>
<g>
</g>
<g>
</g>
<g>
</g>
</svg>
