<?xml version="1.0" encoding="iso-8859-1"?>
<!-- Generator: Adobe Illustrator 19.0.0, SVG Export Plug-In . SVG Version: 6.00 Build 0)  -->
<svg version="1.1" id="Layer_1" xmlns="http://www.w3.org/2000/svg" xmlns:xlink="http://www.w3.org/1999/xlink" x="0px" y="0px"
	 viewBox="0 0 395.83 395.83" style="enable-background:new 0 0 395.83 395.83;" xml:space="preserve">
<rect x="197.818" y="49.584" style="fill:#FFFFFF;" width="173.123" height="305.39"/>
<path style="fill:#F16051;" d="M383.289,49.584H12.347c-3.685,0-6.206-3.103-6.206-6.206V12.477c0-3.685,2.457-6.206,6.206-6.206
	h370.941c3.685,0,6.206,2.457,6.206,6.206v30.901C389.43,46.481,386.974,49.584,383.289,49.584z"/>
<g>
	<polygon style="fill:#FFFFFF;" points="78.481,389.56 51.911,389.56 45.77,354.974 84.105,354.974 	"/>
	<rect x="24.76" y="49.584" style="fill:#FFFFFF;" width="173.123" height="83.459"/>
	<polygon style="fill:#FFFFFF;" points="343.725,389.56 317.156,389.56 310.949,354.974 349.867,354.974 	"/>
	<rect x="24.76" y="133.042" style="fill:#FFFFFF;" width="173.123" height="83.459"/>
	<rect x="24.76" y="216.501" style="fill:#FFFFFF;" width="173.123" height="137.826"/>
</g>
<g>
	<path style="fill:#193651;" d="M383.289,0.129H12.347C5.56,0.129,0,5.689,0,12.477v30.901c0,6.788,5.56,12.347,12.347,12.347h6.206
		v305.39H40.21l6.206,34.586h37.107l6.206-34.586h216.372l6.206,34.586h37.107l6.206-34.586h21.657V55.79h6.206
		c6.788,0,12.347-5.56,12.347-12.347V12.541C395.636,5.689,390.077,0.129,383.289,0.129z M72.921,383.418H56.889l-3.685-22.238
		h24.113L72.921,383.418z M191.612,348.768H30.901V222.707h160.711V348.768z M191.612,210.295H30.901v-71.111h160.711V210.295z
		 M191.612,126.836H30.901V55.725h160.711V126.836z M338.747,383.418h-16.097l-3.685-22.238h24.113L338.747,383.418z
		 M364.735,348.768H204.024V55.79h160.711V348.768z M377.083,43.378H204.024h-12.347H18.554h-6.206V12.477h370.941v30.901H377.083z"
		/>
	<rect x="221.931" y="183.079" style="fill:#193651;" width="12.347" height="38.335"/>
	<rect x="93.349" y="84.816" style="fill:#193651;" width="35.879" height="12.347"/>
	<rect x="93.349" y="168.921" style="fill:#193651;" width="35.879" height="12.347"/>
	<rect x="93.349" y="242.489" style="fill:#193651;" width="35.879" height="12.347"/>
	<rect x="246.626" y="309.85" style="fill:#193651;" width="12.347" height="12.994"/>
	<rect x="278.174" y="309.85" style="fill:#193651;" width="12.347" height="12.994"/>
	<rect x="309.721" y="309.85" style="fill:#193651;" width="12.347" height="12.994"/>
</g>
<g>
</g>
<g>
</g>
<g>
</g>
<g>
</g>
<g>
</g>
<g>
</g>
<g>
</g>
<g>
</g>
<g>
</g>
<g>
</g>
<g>
</g>
<g>
</g>
<g>
</g>
<g>
</g>
<g>
</g>
</svg>
