<?xml version="1.0" encoding="iso-8859-1"?>
<!-- Generator: Adobe Illustrator 19.0.0, SVG Export Plug-In . SVG Version: 6.00 Build 0)  -->
<svg version="1.1" id="Layer_1" xmlns="http://www.w3.org/2000/svg" xmlns:xlink="http://www.w3.org/1999/xlink" x="0px" y="0px"
	 viewBox="0 0 395.636 395.636" style="enable-background:new 0 0 395.636 395.636;" xml:space="preserve">
<path style="fill:#FFFFFF;" d="M171.83,32.129L171.83,32.129c-91.475,0-165.624,74.214-165.624,165.689
	S80.42,363.507,171.895,363.507l0,0c91.475,0,165.689-74.214,165.689-165.689S263.37,32.129,171.83,32.129z"/>
<path style="fill:#2EA2DB;" d="M171.83,328.275c-71.693,0-130.457-58.699-130.457-130.457S99.556,67.362,171.83,67.362
	s130.457,58.764,130.457,130.457S243.588,328.275,171.83,328.275z"/>
<g>
	<path style="fill:#193651;" d="M171.83,298.602c-6.788,0-13.576-0.646-19.782-1.875l2.457-12.347
		c5.56,1.228,11.766,1.875,17.325,1.875v8.663V298.602L171.83,298.602z M191.612,296.727l-2.457-12.347
		c5.56-1.228,11.119-3.103,16.679-4.913l4.913,11.119C204.606,293.624,198.465,295.499,191.612,296.727z M132.913,291.168
		c-6.206-2.457-11.766-5.56-17.325-9.244l6.788-10.537c4.913,3.103,9.891,6.206,15.451,8.016L132.913,291.168z M228.137,281.277
		l-6.788-10.537c4.913-3.103,9.244-6.788,13.576-11.119l8.663,8.663C238.61,273.842,233.697,277.592,228.137,281.277z
		 M100.784,269.511c-4.978-4.913-8.663-9.891-12.347-15.451l10.537-6.788c3.103,4.913,6.788,9.244,11.119,13.576L100.784,269.511z
		 M255.935,253.479l-10.537-6.788c3.103-4.913,6.206-9.891,8.016-15.451l11.119,4.913
		C262.723,242.36,259.62,247.919,255.935,253.479z M78.481,236.735c-2.457-6.206-4.331-12.347-5.56-19.135l12.347-2.457
		c1.228,5.56,3.103,11.119,4.913,16.679L78.481,236.735z M270.739,216.954l-12.347-2.457c1.228-5.56,1.875-11.119,1.875-16.679
		h12.347l0,0C272.614,204.606,272.032,210.812,270.739,216.954z M71.111,197.818L71.111,197.818c0-6.788,0.646-12.994,1.875-19.782
		l12.347,2.457c-1.228,5.56-1.875,11.119-1.875,17.325L71.111,197.818z M258.392,180.493c-1.228-5.56-3.103-11.119-4.913-16.679
		l11.119-4.913c2.457,6.206,4.331,12.347,5.56,19.135L258.392,180.493z M89.665,163.814l-11.119-4.913
		c2.457-6.206,5.56-11.766,9.244-17.325l10.537,6.788C94.578,153.277,92.121,158.901,89.665,163.814z M245.398,148.364
		c-3.103-4.913-6.788-9.244-11.119-13.576l8.663-8.663c4.913,4.913,8.663,9.891,12.347,15.451L245.398,148.364z M108.8,135.37
		l-8.663-8.663c4.913-4.913,9.891-8.663,15.451-12.347l6.788,10.537C117.463,127.354,113.131,131.038,108.8,135.37z
		 M220.703,124.251c-4.913-3.103-9.891-6.206-15.451-8.016l4.913-11.119c6.206,2.457,11.766,5.56,17.325,9.244L220.703,124.251z
		 M137.826,116.234l-4.913-11.119c6.206-2.457,12.347-4.331,19.135-5.56l2.457,12.347
		C149.01,111.903,142.804,113.713,137.826,116.234z M189.156,110.675c-5.56-1.228-11.119-1.875-17.325-1.875V96.453l0,0
		c6.788,0,12.994,0.646,19.135,1.875L189.156,110.675z"/>
	<path style="fill:#193651;" d="M383.289,280.63c0,42.02-34.65,76.671-76.671,76.671h-70.917
		c63.16-25.471,108.024-87.467,108.024-159.483c0-94.578-77.253-171.83-171.83-171.83S0,103.24,0,197.818
		s77.253,171.83,171.83,171.83h134.788c48.808,0,89.018-40.21,89.018-89.018H383.289z M12.347,197.818
		c0-87.79,71.693-159.483,159.483-159.483s159.483,71.693,159.483,159.483S259.62,357.301,171.83,357.301
		S12.347,285.608,12.347,197.818z"/>
</g>
<path style="fill:#FFFFFF;" d="M171.83,222.578c-13.576,0-24.76-11.119-24.76-24.76c0-13.64,11.119-24.76,24.76-24.76
	s24.76,11.119,24.76,24.76C196.59,211.459,185.471,222.578,171.83,222.578z"/>
<g>
</g>
<g>
</g>
<g>
</g>
<g>
</g>
<g>
</g>
<g>
</g>
<g>
</g>
<g>
</g>
<g>
</g>
<g>
</g>
<g>
</g>
<g>
</g>
<g>
</g>
<g>
</g>
<g>
</g>
</svg>
