<?xml version="1.0" encoding="iso-8859-1"?>
<!-- Generator: Adobe Illustrator 19.0.0, SVG Export Plug-In . SVG Version: 6.00 Build 0)  -->
<svg version="1.1" id="Layer_1" xmlns="http://www.w3.org/2000/svg" xmlns:xlink="http://www.w3.org/1999/xlink" x="0px" y="0px"
	 viewBox="0 0 396.929 396.929" style="enable-background:new 0 0 396.929 396.929;" xml:space="preserve">
<path style="fill:#F16051;" d="M356.719,6.885L356.719,6.885c-18.554,0-33.358,14.869-33.358,33.358l0,0
	c0,18.554,14.869,33.358,33.358,33.358l0,0c18.554,0,33.358-14.869,33.358-33.358l0,0C390.077,21.689,375.273,6.885,356.719,6.885z"
	/>
<path style="fill:#193651;" d="M356.719,80.453c-21.657,0-39.564-17.907-39.564-39.564c-0.646-22.238,17.325-40.21,39.564-40.21
	c21.657,0,39.564,17.907,39.564,39.564C396.283,62.481,378.376,80.453,356.719,80.453z M356.719,13.026
	c-14.869,0-27.216,12.347-27.216,27.216s12.347,27.216,27.216,27.216s27.216-12.347,27.216-27.216S371.588,13.026,356.719,13.026z"
	/>
<path style="fill:#FDBF5E;" d="M40.21,6.885L40.21,6.885c-18.554,0-33.358,14.869-33.358,33.358l0,0
	C6.853,58.796,21.721,73.6,40.21,73.6l0,0c18.554,0,33.358-14.869,33.358-33.358l0,0C74.214,21.689,58.764,6.885,40.21,6.885z"/>
<path style="fill:#193651;" d="M40.21,80.453c-21.657,0-39.564-17.972-39.564-40.21c0-21.657,17.907-39.564,39.564-39.564
	s39.564,17.907,39.564,39.564C80.42,62.481,62.448,80.453,40.21,80.453z M40.21,13.026c-14.869,0-27.216,12.347-27.216,27.216
	S25.341,67.459,40.21,67.459s27.216-12.347,27.216-27.216S55.661,13.026,40.21,13.026z"/>
<path style="fill:#4FBF9F;" d="M356.719,322.747L356.719,322.747c-18.554,0-33.358,14.869-33.358,33.358l0,0
	c0,18.554,14.869,33.358,33.358,33.358l0,0c18.554,0,33.358-14.869,33.358-33.358l0,0
	C390.077,338.198,375.273,322.747,356.719,322.747z"/>
<path style="fill:#193651;" d="M356.719,396.315c-21.657,0-39.564-17.907-39.564-39.564s17.907-39.564,39.564-39.564
	c21.657,0,39.564,17.907,39.564,39.564S378.376,396.315,356.719,396.315z M356.719,328.954c-14.869,0-27.216,12.347-27.216,27.216
	c0,14.869,12.347,27.216,27.216,27.216s27.216-12.347,27.216-27.216C383.935,341.301,371.588,328.954,356.719,328.954z"/>
<path style="fill:#D3D7DA;" d="M40.21,322.747L40.21,322.747c-18.554,0-33.358,14.869-33.358,33.358l0,0
	c0,18.554,14.869,33.358,33.358,33.358l0,0c18.554,0,33.358-14.869,33.358-33.358l0,0C74.214,338.198,58.764,322.747,40.21,322.747z
	"/>
<path style="fill:#193651;" d="M40.21,396.315c-21.657,0-39.564-17.907-39.564-39.564s17.907-39.564,39.564-39.564
	s39.564,17.907,39.564,39.564C80.42,378.408,62.448,396.315,40.21,396.315z M40.21,328.954c-14.869,0-27.216,12.347-27.216,27.216
	c0,15.451,12.347,27.798,27.216,27.798s27.216-12.347,27.216-27.216C68.008,341.301,55.661,328.954,40.21,328.954z"/>
<circle style="fill:#FFFFFF;" cx="198.465" cy="198.497" r="113.778"/>
<g>
	<path style="fill:#193651;" d="M198.465,318.416c-66.133,0-119.919-53.786-119.919-119.919S132.331,78.578,198.465,78.578
		s119.919,53.786,119.919,119.919S264.598,318.416,198.465,318.416z M198.465,90.925c-59.345,0-107.572,48.226-107.572,107.572
		s48.226,107.572,107.572,107.572s107.572-48.226,107.572-107.572S257.81,90.925,198.465,90.925z"/>
	<polygon style="fill:#193651;" points="137.891,4.364 126.772,0.032 115.006,32.226 147.135,43.345 151.467,31.58 131.103,24.792 	
		"/>
	<polygon style="fill:#193651;" points="364.735,115.685 353.616,147.814 365.382,151.499 372.17,131.135 392.598,138.505 
		396.929,126.804 	"/>
	<path style="fill:#193651;" d="M210.23,378.99l1.228,12.347c4.331-0.646,8.663-1.228,12.347-1.228l-1.875-12.347
		C218.246,378.408,213.915,378.408,210.23,378.99z"/>
	<path style="fill:#193651;" d="M234.343,374.659l2.457,12.347c4.331-0.646,8.663-1.875,12.994-3.685l-3.685-11.766
		C242.36,372.848,238.028,374.077,234.343,374.659z"/>
	<path style="fill:#193651;" d="M186.117,391.984c2.457,0,5.56,0,8.016,0c1.875,0,3.103,0,4.331,0v-12.347
		c-3.685,0-8.016,0-11.766,0L186.117,391.984z"/>
	<path style="fill:#193651;" d="M161.358,388.881c3.685,0.646,8.016,1.228,12.347,1.875l1.228-12.347
		c-3.685-0.646-8.016-1.228-11.766-1.875L161.358,388.881z"/>
	<path style="fill:#193651;" d="M111.903,374.077c3.685,1.875,8.016,3.685,11.766,4.978L128,367.289
		c-3.685-1.228-7.434-2.457-11.119-4.331L111.903,374.077z"/>
	<path style="fill:#193651;" d="M136.016,383.321c4.331,1.228,8.016,1.875,12.347,3.103l3.103-11.766
		c-4.331-0.646-8.016-1.875-11.766-3.103L136.016,383.321z"/>
	<path style="fill:#193651;" d="M245.463,365.414l12.089,4.008l4.008,10.796c0.517-0.194,1.034-0.388,1.616-0.582l-4.719,12.929
		l11.766,4.331l11.119-32.129l-31.548-11.119L245.463,365.414z"/>
	<path style="fill:#193651;" d="M186.117,18.586l-1.228-12.347c-3.685,0-8.016,0.646-12.347,1.228l1.875,12.347
		C178.683,19.232,182.368,18.586,186.117,18.586z"/>
	<path style="fill:#193651;" d="M260.913,14.255c-4.331-1.228-8.016-1.875-12.347-3.103l-3.103,11.766
		c4.331,0.646,8.016,1.875,11.766,3.103L260.913,14.255z"/>
	<path style="fill:#193651;" d="M236.154,8.113c-3.685-0.646-8.016-1.228-12.347-1.875l-1.228,12.347
		c3.685,0.646,8.016,1.228,11.766,1.875L236.154,8.113z"/>
	<path style="fill:#193651;" d="M162.586,22.335l-2.457-12.347c-4.331,0.646-8.016,1.875-12.347,3.103l3.103,11.766
		C155.216,23.564,158.901,22.917,162.586,22.335z"/>
	<path style="fill:#193651;" d="M211.459,5.657c-4.331,0-8.663,0-12.994,0v12.347c3.685,0,8.016,0,11.766,0L211.459,5.657z"/>
	<path style="fill:#193651;" d="M268.347,29.705c3.685,1.228,7.434,2.457,11.119,4.331l4.978-11.119
		c-3.685-1.875-8.016-3.685-11.766-4.913L268.347,29.705z"/>
	<path style="fill:#193651;" d="M391.37,185.503c0-3.685-0.646-8.016-1.228-12.347l-12.347,1.875
		c0.646,3.685,0.646,8.016,1.228,11.766L391.37,185.503z"/>
	<path style="fill:#193651;" d="M371.588,257.196l11.766,3.685c1.228-3.685,1.875-8.016,3.103-12.347l-11.766-3.103
		C374.044,249.826,372.816,253.511,371.588,257.196z"/>
	<path style="fill:#193651;" d="M362.925,280.081l11.119,4.913c1.875-4.331,3.103-8.016,4.978-11.766l-11.766-4.331
		C365.964,272.711,364.735,276.396,362.925,280.081z"/>
	<path style="fill:#193651;" d="M391.37,198.497h-12.347c0,1.228,0,3.103,0,4.331c0,2.457,0,4.913,0,7.434l12.347,0.646
		c0.646-2.457,0.646-5.56,0-7.434C391.37,201.6,391.37,200.372,391.37,198.497z"/>
	<path style="fill:#193651;" d="M372.17,150.917c1.228,3.685,2.457,8.016,3.103,11.766l11.766-3.103
		c-0.646-4.331-1.875-8.016-3.103-12.347L372.17,150.917z"/>
	<path style="fill:#193651;" d="M376.501,234.376l12.347,1.875c0.646-4.331,1.228-8.663,1.875-12.347l-12.347-1.228
		C377.729,226.295,377.147,230.626,376.501,234.376z"/>
	<path style="fill:#193651;" d="M25.406,139.798l-11.766-3.685c-1.228,4.331-1.875,8.016-3.103,12.347l11.766,3.103
		C23.531,147.168,24.76,143.483,25.406,139.798z"/>
	<path style="fill:#193651;" d="M34.004,117.495l-11.119-4.978c-1.875,3.685-3.685,8.016-4.913,11.766l11.766,4.331
		C30.966,124.929,32.776,121.244,34.004,117.495z"/>
	<path style="fill:#193651;" d="M25.406,246.077c-1.228-3.685-2.457-8.016-3.103-11.766l-12.347,2.457
		c0.646,4.331,1.875,8.016,3.103,12.347L25.406,246.077z"/>
	<path style="fill:#193651;" d="M17.325,194.166c0-2.457,0-4.978,0-7.434l-12.347-0.646c0,2.457,0,5.56,0,8.016
		c0,1.875,0,3.103,0,4.978l12.347-0.646C17.325,197.269,17.325,195.394,17.325,194.166z"/>
	<path style="fill:#193651;" d="M20.428,163.265L8.081,161.39c-0.646,3.685-1.228,8.016-1.875,12.347l12.347,1.228
		C19.2,170.699,19.2,166.949,20.428,163.265z"/>
	<path style="fill:#193651;" d="M6.206,212.073c0,3.685,0.646,8.016,1.228,12.347l12.347-1.875
		c-0.646-3.685-0.646-8.016-1.228-11.766L6.206,212.073z"/>
	<polygon style="fill:#193651;" points="24.76,265.859 4.331,259.071 0,270.836 32.194,281.956 43.313,249.826 31.547,245.495 	"/>
</g>
<path style="fill:#D3D7DA;" d="M170.667,246.723v12.994h55.014V247.37c0-16.097,4.913-32.129,14.869-44.541
	c7.434-9.244,11.766-21.01,11.766-33.358c0-31.547-27.798-57.471-59.992-53.786c-24.76,2.457-45.123,22.885-47.58,48.226
	c-1.228,14.222,2.457,27.798,10.537,38.335C165.107,214.594,170.667,230.626,170.667,246.723z"/>
<path style="fill:#FDBF5E;" d="M252.251,173.156c0-1.228,0-2.457,0-3.685c0-31.547-27.798-57.471-59.992-53.786
	c-24.76,2.457-45.123,22.885-47.58,48.226c-0.646,3.103-0.646,6.206,0,9.244L252.251,173.156L252.251,173.156z"/>
<path style="fill:#2EA2DB;" d="M204.024,281.956h-11.766c-9.244,0-16.679-7.434-16.679-16.679v-5.56h44.477v5.56
	C220.703,274.521,213.333,281.956,204.024,281.956z"/>
<g>
</g>
<g>
</g>
<g>
</g>
<g>
</g>
<g>
</g>
<g>
</g>
<g>
</g>
<g>
</g>
<g>
</g>
<g>
</g>
<g>
</g>
<g>
</g>
<g>
</g>
<g>
</g>
<g>
</g>
</svg>
