<?xml version="1.0" encoding="iso-8859-1"?>
<!-- Generator: Adobe Illustrator 19.0.0, SVG Export Plug-In . SVG Version: 6.00 Build 0)  -->
<svg version="1.1" id="Layer_1" xmlns="http://www.w3.org/2000/svg" xmlns:xlink="http://www.w3.org/1999/xlink" x="0px" y="0px"
	 viewBox="0 0 395.636 395.636" style="enable-background:new 0 0 395.636 395.636;" xml:space="preserve">
<rect x="103.79" y="6.206" style="fill:#FFFFFF;" width="248.501" height="383.289"/>
<rect x="128.549" y="30.901" style="fill:#E1E6E9;" width="199.046" height="333.834"/>
<polyline style="fill:#FFFFFF;" points="169.988,161.358 169.988,75.442 286.158,75.442 286.158,161.358 "/>
<g>
	<polygon style="fill:#193651;" points="292.364,161.358 280.016,161.358 280.016,81.584 176.129,81.584 176.129,161.358 
		163.782,161.358 163.782,69.236 292.364,69.236 	"/>
	<path style="fill:#193651;" d="M37.075,0v395.636h321.487V0H37.075z M97.648,383.289H49.422v-27.798h12.994v-12.347H49.422v-30.901
		h12.994v-12.347H49.422v-30.966h12.994v-12.347H49.422v-30.966h12.994v-12.347H49.422v-30.901h12.994V170.02H49.422v-30.901h12.994
		v-12.412H49.422V95.806h12.994V83.459H49.422V52.558h12.994V40.21H49.422V12.412h48.226V383.289z M346.149,383.289H109.996V12.347
		h236.154V383.289z"/>
	<rect x="189.123" y="321.487" style="fill:#193651;" width="12.347" height="12.347"/>
	<rect x="221.899" y="321.487" style="fill:#193651;" width="12.347" height="12.347"/>
	<rect x="254.028" y="321.487" style="fill:#193651;" width="12.347" height="12.347"/>
	<rect x="195.911" y="97.681" style="fill:#193651;" width="64.259" height="12.347"/>
	<rect x="195.911" y="126.125" style="fill:#193651;" width="64.259" height="12.347"/>
</g>
<g>
</g>
<g>
</g>
<g>
</g>
<g>
</g>
<g>
</g>
<g>
</g>
<g>
</g>
<g>
</g>
<g>
</g>
<g>
</g>
<g>
</g>
<g>
</g>
<g>
</g>
<g>
</g>
<g>
</g>
</svg>
