<?xml version="1.0" encoding="iso-8859-1"?>
<!-- Generator: Adobe Illustrator 19.0.0, SVG Export Plug-In . SVG Version: 6.00 Build 0)  -->
<svg version="1.1" id="Layer_1" xmlns="http://www.w3.org/2000/svg" xmlns:xlink="http://www.w3.org/1999/xlink" x="0px" y="0px"
	 viewBox="0 0 395.636 395.636" style="enable-background:new 0 0 395.636 395.636;" xml:space="preserve">
<circle style="fill:#FDBF5E;" cx="197.818" cy="197.818" r="197.818"/>
<path style="fill:#FFFFFF;" d="M64.259,18.554v358.529c0,6.788,5.56,12.347,12.347,12.347h241.713
	c6.788,0,12.347-5.56,12.347-12.347V18.554c0-6.788-5.56-12.347-12.347-12.347H76.671C69.883,6.206,64.259,11.766,64.259,18.554z"/>
<path id="SVGCleanerId_0" style="fill:#193651;" d="M318.966,395.636H76.671c-10.537,0-18.554-8.016-18.554-18.554V18.554
	C58.117,8.016,66.133,0,76.671,0h241.713c10.537,0,18.554,8.016,18.554,18.554v358.529
	C337.519,387.62,328.857,395.636,318.966,395.636z M76.671,12.347c-3.685,0-6.206,2.457-6.206,6.206v358.529
	c0,3.685,2.457,6.206,6.206,6.206h241.713c3.685,0,6.206-2.457,6.206-6.206V18.554c0-3.685-2.457-6.206-6.206-6.206H76.671z"/>
<g>
	<path style="fill:#D3D7DA;" d="M64.323,331.96v45.123c0,6.788,5.56,12.347,12.347,12.347h241.713
		c6.788,0,12.347-5.56,12.347-12.347V331.96H64.323z"/>
	<path style="fill:#D3D7DA;" d="M318.966,6.206H76.671c-6.788,0-12.347,5.56-12.347,12.347v36.461h267.055V18.554
		C331.313,11.766,325.754,6.206,318.966,6.206z"/>
</g>
<g>
	<rect x="168.792" y="351.741" style="fill:#193651;" width="58.117" height="12.347"/>
	<rect x="241.713" y="351.741" style="fill:#193651;" width="16.097" height="12.347"/>
	<rect x="137.244" y="351.741" style="fill:#193651;" width="16.097" height="12.347"/>
	<rect x="181.721" y="26.57" style="fill:#193651;" width="31.547" height="12.347"/>
</g>
<g>
	<rect x="267.701" y="84.105" style="fill:#2EA2DB;" width="33.358" height="28.444"/>
	<rect x="267.701" y="147.717" style="fill:#2EA2DB;" width="33.358" height="28.444"/>
	<rect x="267.701" y="211.394" style="fill:#2EA2DB;" width="33.358" height="28.444"/>
	<rect x="210.166" y="84.105" style="fill:#2EA2DB;" width="33.358" height="28.444"/>
	<rect x="210.166" y="147.717" style="fill:#2EA2DB;" width="33.358" height="28.444"/>
	<rect x="210.166" y="211.394" style="fill:#2EA2DB;" width="33.358" height="28.444"/>
	<rect x="152.048" y="84.105" style="fill:#2EA2DB;" width="33.358" height="28.444"/>
	<rect x="152.048" y="147.717" style="fill:#2EA2DB;" width="33.358" height="28.444"/>
	<rect x="152.048" y="211.394" style="fill:#2EA2DB;" width="33.358" height="28.444"/>
	<rect x="94.578" y="84.105" style="fill:#2EA2DB;" width="33.358" height="28.444"/>
	<rect x="94.578" y="147.717" style="fill:#2EA2DB;" width="33.358" height="28.444"/>
	<rect x="94.578" y="211.394" style="fill:#2EA2DB;" width="33.358" height="28.444"/>
	<rect x="267.701" y="275.071" style="fill:#2EA2DB;" width="33.358" height="28.444"/>
	<rect x="210.166" y="275.071" style="fill:#2EA2DB;" width="33.358" height="28.444"/>
	<rect x="152.048" y="275.071" style="fill:#2EA2DB;" width="33.358" height="28.444"/>
	<rect x="94.578" y="275.071" style="fill:#2EA2DB;" width="33.358" height="28.444"/>
</g>
<g>
	<path id="SVGCleanerId_0_1_" style="fill:#193651;" d="M318.966,395.636H76.671c-10.537,0-18.554-8.016-18.554-18.554V18.554
		C58.117,8.016,66.133,0,76.671,0h241.713c10.537,0,18.554,8.016,18.554,18.554v358.529
		C337.519,387.62,328.857,395.636,318.966,395.636z M76.671,12.347c-3.685,0-6.206,2.457-6.206,6.206v358.529
		c0,3.685,2.457,6.206,6.206,6.206h241.713c3.685,0,6.206-2.457,6.206-6.206V18.554c0-3.685-2.457-6.206-6.206-6.206H76.671z"/>
</g>
<g>
</g>
<g>
</g>
<g>
</g>
<g>
</g>
<g>
</g>
<g>
</g>
<g>
</g>
<g>
</g>
<g>
</g>
<g>
</g>
<g>
</g>
<g>
</g>
<g>
</g>
<g>
</g>
<g>
</g>
</svg>
