<?xml version="1.0" encoding="iso-8859-1"?>
<!-- Generator: Adobe Illustrator 19.0.0, SVG Export Plug-In . SVG Version: 6.00 Build 0)  -->
<svg version="1.1" id="Layer_1" xmlns="http://www.w3.org/2000/svg" xmlns:xlink="http://www.w3.org/1999/xlink" x="0px" y="0px"
	 viewBox="0 0 396.348 396.348" style="enable-background:new 0 0 396.348 396.348;" xml:space="preserve">
<rect x="86.82" y="142.222" style="fill:#FFFFFF;" width="222.578" height="111.257"/>
<g>
	<rect x="120.824" y="191.677" style="fill:#193651;" width="12.347" height="12.347"/>
	<rect x="156.638" y="191.677" style="fill:#193651;" width="12.347" height="12.347"/>
	<rect x="191.871" y="191.677" style="fill:#193651;" width="12.347" height="12.347"/>
	<rect x="227.103" y="191.677" style="fill:#193651;" width="12.347" height="12.347"/>
	<rect x="262.982" y="191.677" style="fill:#193651;" width="12.347" height="12.347"/>
	<rect x="358.788" y="156.444" style="fill:#193651;" width="12.347" height="12.347"/>
	<rect x="358.788" y="191.677" style="fill:#193651;" width="12.347" height="12.347"/>
	<rect x="358.788" y="226.909" style="fill:#193651;" width="12.347" height="12.347"/>
	<rect x="25.018" y="156.444" style="fill:#193651;" width="12.347" height="12.347"/>
	<rect x="25.018" y="191.677" style="fill:#193651;" width="12.347" height="12.347"/>
	<rect x="25.018" y="226.909" style="fill:#193651;" width="12.347" height="12.347"/>
</g>
<g>
	<circle style="fill:#F16051;" cx="25.018" cy="371.006" r="18.554"/>
	<circle style="fill:#F16051;" cx="371.2" cy="371.006" r="18.554"/>
	<circle style="fill:#F16051;" cx="255.548" cy="371.006" r="18.554"/>
	<circle style="fill:#F16051;" cx="140.606" cy="371.006" r="18.554"/>
</g>
<g>
	<circle style="fill:#2EA2DB;" cx="25.018" cy="24.824" r="18.554"/>
	<circle style="fill:#2EA2DB;" cx="371.2" cy="24.824" r="18.554"/>
	<circle style="fill:#2EA2DB;" cx="255.548" cy="24.824" r="18.554"/>
	<circle style="fill:#2EA2DB;" cx="140.606" cy="24.824" r="18.554"/>
</g>
<path style="fill:#193651;" d="M377.341,346.893v-60.574H204.283v-26.57h111.257V136.081H204.283v-27.216h173.123V48.873
	c10.537-2.457,18.554-12.347,18.554-24.113C395.96,11.184,384.84,0,371.2,0s-24.76,11.119-24.76,24.76
	c0,11.766,8.016,21.01,18.554,24.113v48.226h-103.24V48.873c10.537-2.457,18.554-12.347,18.554-24.113
	c0-13.576-11.119-24.76-24.76-24.76c-13.576,0-24.76,11.119-24.76,24.76c0,11.766,8.016,21.01,18.554,24.113v48.226H146.748V48.873
	c10.537-2.457,18.554-12.347,18.554-24.113c0-13.576-11.119-24.76-24.76-24.76c-13.576,0-24.76,11.119-24.76,24.76
	c0,11.766,8.016,21.01,18.554,24.113v48.226H31.16v-47.58c-1.228,0-2.457,0-3.685,0c12.347-1.228,22.238-11.766,22.238-24.76
	C49.713,11.184,38.594,0,24.954,0S0.259,11.184,0.259,24.824c0,11.766,8.016,21.01,18.554,24.113v60.574h173.123v26.57H80.614
	V259.75h111.257v27.216H18.812v60.574c-10.537,2.392-18.554,12.283-18.554,24.048c0,13.576,11.119,24.76,24.76,24.76
	s24.76-11.119,24.76-24.76c0-11.766-8.016-21.01-18.554-24.113v-48.226h103.24v48.226c-10.537,2.457-18.554,12.347-18.554,24.113
	c0,13.576,11.119,24.76,24.76,24.76c13.576,0,24.76-11.119,24.76-24.76c0-11.766-8.016-21.01-18.554-24.113v-48.226h102.594v47.774
	c-10.602,2.78-18.554,12.477-18.554,23.919c0,13.576,11.119,24.76,24.76,24.76c13.576,0,24.76-11.119,24.76-24.76
	c0-11.442-7.887-21.204-18.554-23.919v-47.774h103.24v48.226c-10.537,2.457-18.554,12.347-18.554,24.113
	c0,13.576,11.119,24.76,24.76,24.76s24.76-11.119,24.76-24.76C395.895,359.24,387.879,349.931,377.341,346.893z M358.788,24.824
	c0-6.788,5.56-12.347,12.347-12.347c6.788,0,12.347,5.56,12.347,12.347s-5.56,12.347-12.347,12.347
	C364.347,37.172,358.788,31.612,358.788,24.824z M243.2,24.824c0-6.788,5.56-12.347,12.347-12.347
	c6.788,0,12.347,5.56,12.347,12.347s-5.56,12.347-12.347,12.347C248.76,37.172,243.2,31.612,243.2,24.824z M12.606,24.824
	c0-6.788,5.56-12.347,12.347-12.347s12.347,5.56,12.347,12.347s-5.56,12.347-12.347,12.347S12.606,31.612,12.606,24.824z
	 M128.194,24.824c0-6.788,5.56-12.347,12.347-12.347c6.788,0,12.347,5.56,12.347,12.347s-5.56,12.347-12.347,12.347
	C133.754,37.172,128.194,31.612,128.194,24.824z M37.366,371.006c0,6.788-5.56,12.347-12.347,12.347s-12.347-5.56-12.347-12.347
	s5.56-12.347,12.347-12.347S37.366,364.154,37.366,371.006z M152.954,371.006c0,6.788-5.56,12.347-12.347,12.347
	c-6.788,0-12.347-5.56-12.347-12.347s5.56-12.347,12.347-12.347C147.394,358.594,152.954,364.154,152.954,371.006z M92.962,247.337
	v-98.909h210.166v98.909H92.962z M267.96,371.006c0,6.788-5.56,12.347-12.347,12.347s-12.347-5.56-12.347-12.347
	s5.56-12.347,12.347-12.347C262.335,358.594,267.96,364.154,267.96,371.006z M371.2,383.354c-6.788,0-12.347-5.56-12.347-12.347
	c0-6.788,5.56-12.347,12.347-12.347c6.788,0,12.347,5.56,12.347,12.347C383.547,377.794,377.988,383.354,371.2,383.354z"/>
<g>
</g>
<g>
</g>
<g>
</g>
<g>
</g>
<g>
</g>
<g>
</g>
<g>
</g>
<g>
</g>
<g>
</g>
<g>
</g>
<g>
</g>
<g>
</g>
<g>
</g>
<g>
</g>
<g>
</g>
</svg>
