<?xml version="1.0" encoding="iso-8859-1"?>
<!-- Generator: Adobe Illustrator 19.0.0, SVG Export Plug-In . SVG Version: 6.00 Build 0)  -->
<svg version="1.1" id="Layer_1" xmlns="http://www.w3.org/2000/svg" xmlns:xlink="http://www.w3.org/1999/xlink" x="0px" y="0px"
	 viewBox="0 0 395.636 395.636" style="enable-background:new 0 0 395.636 395.636;" xml:space="preserve">
<polygon style="fill:#FFFFFF;" points="136.598,6.206 38.917,103.822 38.917,389.43 356.719,389.43 356.719,6.206 "/>
<polygon style="fill:#193651;" points="362.861,395.636 32.776,395.636 32.776,103.822 45.123,103.822 45.123,383.289 
	350.513,383.289 350.513,12.347 136.598,12.347 136.598,0 362.861,0 "/>
<polygon style="fill:#FDBF5E;" points="118.044,85.333 118.044,6.206 38.917,85.333 "/>
<g>
	<rect x="82.812" y="197.818" style="fill:#193651;" width="229.947" height="12.347"/>
	<rect x="82.812" y="153.277" style="fill:#193651;" width="229.947" height="12.347"/>
	<rect x="82.812" y="242.36" style="fill:#193651;" width="229.947" height="12.347"/>
	<rect x="82.812" y="287.483" style="fill:#193651;" width="229.947" height="12.347"/>
	<rect x="82.812" y="331.96" style="fill:#193651;" width="128.582" height="12.347"/>
</g>
<rect x="171.83" y="45.77" style="fill:#E1E6E9;" width="140.929" height="68.008"/>
<g>
	<rect x="203.378" y="73.568" style="fill:#193651;" width="12.347" height="12.347"/>
	<rect x="236.154" y="73.568" style="fill:#193651;" width="12.347" height="12.347"/>
	<rect x="268.929" y="73.568" style="fill:#193651;" width="12.347" height="12.347"/>
</g>
<g>
</g>
<g>
</g>
<g>
</g>
<g>
</g>
<g>
</g>
<g>
</g>
<g>
</g>
<g>
</g>
<g>
</g>
<g>
</g>
<g>
</g>
<g>
</g>
<g>
</g>
<g>
</g>
<g>
</g>
</svg>
