<?xml version="1.0" encoding="iso-8859-1"?>
<!-- Generator: Adobe Illustrator 19.0.0, SVG Export Plug-In . SVG Version: 6.00 Build 0)  -->
<svg version="1.1" id="Layer_1" xmlns="http://www.w3.org/2000/svg" xmlns:xlink="http://www.w3.org/1999/xlink" x="0px" y="0px"
	 viewBox="0 0 395.636 395.636" style="enable-background:new 0 0 395.636 395.636;" xml:space="preserve">
<polygon style="fill:#FFFFFF;" points="263.337,32.129 256.873,6.206 138.182,6.206 131.717,32.129 41.147,32.129 41.147,389.43 
	354.554,389.43 354.554,32.129 "/>
<rect x="65.842" y="57.471" style="fill:#D3D7DA;" width="263.37" height="307.265"/>
<g>
	<path style="fill:#193651;" d="M267.992,25.988L261.85,0H133.269l-6.853,25.988H34.941v369.648h325.754V25.988H267.992z
		 M143.16,12.347h108.8l9.891,39.564H133.269L143.16,12.347z M347.766,383.289H47.289V38.335h76.671l-6.788,25.988h160.711
		l-6.788-25.988h76.671L347.766,383.289L347.766,383.289z"/>
	<rect x="158.61" y="25.988" style="fill:#193651;" width="12.347" height="12.347"/>
	<rect x="191.321" y="25.988" style="fill:#193651;" width="12.347" height="12.347"/>
	<rect x="224.097" y="25.988" style="fill:#193651;" width="12.347" height="12.347"/>
	<rect x="101.721" y="115.588" style="fill:#193651;" width="192.259" height="12.347"/>
	<rect x="101.721" y="161.939" style="fill:#193651;" width="192.259" height="12.347"/>
	<rect x="101.721" y="208.937" style="fill:#193651;" width="192.259" height="12.347"/>
	<rect x="101.721" y="255.289" style="fill:#193651;" width="100.784" height="12.347"/>
</g>
<g>
</g>
<g>
</g>
<g>
</g>
<g>
</g>
<g>
</g>
<g>
</g>
<g>
</g>
<g>
</g>
<g>
</g>
<g>
</g>
<g>
</g>
<g>
</g>
<g>
</g>
<g>
</g>
<g>
</g>
</svg>
