<?xml version="1.0" encoding="iso-8859-1"?>
<!-- Generator: Adobe Illustrator 19.0.0, SVG Export Plug-In . SVG Version: 6.00 Build 0)  -->
<svg version="1.1" id="Layer_1" xmlns="http://www.w3.org/2000/svg" xmlns:xlink="http://www.w3.org/1999/xlink" x="0px" y="0px"
	 viewBox="0 0 395.636 395.636" style="enable-background:new 0 0 395.636 395.636;" xml:space="preserve">
<rect x="115.588" y="219.475" style="fill:#FFFFFF;" width="163.814" height="170.02"/>
<rect x="144.032" y="219.475" style="fill:#FDBF5E;" width="30.901" height="170.02"/>
<circle style="fill:#E1E6E9;" cx="231.822" cy="310.949" r="19.782"/>
<circle style="fill:#D3D7DA;" cx="231.822" cy="341.204" r="19.782"/>
<rect x="6.206" y="6.206" style="fill:#FFFFFF;" width="383.289" height="213.269"/>
<path style="fill:#193651;" d="M0,0v225.616h109.446v170.02h176.162v-170.02h110.028V0H0z M273.842,383.289H122.376V225.616h151.467
	V383.289z M383.289,213.269H12.347V12.347h370.941L383.289,213.269L383.289,213.269z"/>
<path style="fill:#4FBF9F;" d="M30.901,151.467V61.802c17.325,0,30.901-13.576,30.901-30.901h272.032
	c0,17.325,13.576,30.901,30.901,30.901v102.012c-17.325,0-30.901,13.576-30.901,30.901H61.802
	C61.802,177.39,48.226,151.467,30.901,151.467z"/>
<circle style="fill:#FFFFFF;" cx="197.818" cy="112.485" r="64.259"/>
<g>
	<rect x="301.64" y="77.253" style="fill:#193651;" width="12.347" height="12.347"/>
	<rect x="301.64" y="106.343" style="fill:#193651;" width="12.347" height="12.347"/>
	<rect x="301.64" y="136.016" style="fill:#193651;" width="12.347" height="12.347"/>
	<rect x="81.584" y="77.253" style="fill:#193651;" width="12.347" height="12.347"/>
	<rect x="81.584" y="106.343" style="fill:#193651;" width="12.347" height="12.347"/>
	<rect x="81.584" y="136.016" style="fill:#193651;" width="12.347" height="12.347"/>
	<path style="fill:#193651;" d="M197.818,106.925c-7.434,0-13.576-6.206-13.576-13.576c0-7.37,6.206-13.576,13.576-13.576
		c7.37,0,13.576,6.206,13.576,13.576h12.347c0-12.089-8.469-22.368-19.782-25.212V61.22h-12.347v6.917
		c-11.313,2.78-19.782,13.123-19.782,25.212c0,14.222,11.766,25.988,25.988,25.988c7.434,0,13.576,6.206,13.576,13.576
		s-6.206,13.576-13.576,13.576c-7.37,0-13.576-6.206-13.576-13.576h-12.347c0,12.089,8.469,22.368,19.782,25.212v6.335h12.347
		v-6.335c11.313-2.78,19.782-13.123,19.782-25.212C223.806,118.691,212.04,106.925,197.818,106.925z"/>
</g>
<g>
</g>
<g>
</g>
<g>
</g>
<g>
</g>
<g>
</g>
<g>
</g>
<g>
</g>
<g>
</g>
<g>
</g>
<g>
</g>
<g>
</g>
<g>
</g>
<g>
</g>
<g>
</g>
<g>
</g>
</svg>
