<?xml version="1.0" encoding="iso-8859-1"?>
<!-- Generator: Adobe Illustrator 19.0.0, SVG Export Plug-In . SVG Version: 6.00 Build 0)  -->
<svg version="1.1" id="Layer_1" xmlns="http://www.w3.org/2000/svg" xmlns:xlink="http://www.w3.org/1999/xlink" x="0px" y="0px"
	 viewBox="0 0 395.636 395.636" style="enable-background:new 0 0 395.636 395.636;" xml:space="preserve">
<path style="fill:#E1E6E9;" d="M197.818,6.206L197.818,6.206C92.121,6.206,6.206,92.121,6.206,197.818l0,0
	c0,105.697,85.915,191.612,191.612,191.612l0,0c105.697,0,191.612-85.915,191.612-191.612l0,0
	C389.43,92.121,303.515,6.206,197.818,6.206z"/>
<path style="fill:#FFFFFF;" d="M197.818,352.388c-85.333,0-154.57-69.236-154.57-154.57s69.236-154.57,154.57-154.57
	s154.57,69.236,154.57,154.57S283.152,352.388,197.818,352.388z"/>
<g>
	<rect x="191.612" y="311.596" style="fill:#193651;" width="12.347" height="12.347"/>
	<rect x="191.612" y="71.693" style="fill:#193651;" width="12.347" height="12.347"/>
	<rect x="71.693" y="191.612" style="fill:#193651;" width="12.347" height="12.347"/>
	<rect x="311.596" y="191.612" style="fill:#193651;" width="12.347" height="12.347"/>
	<path style="fill:#193651;" d="M197.818,0C89.018,0,0,89.018,0,197.818s89.018,197.818,197.818,197.818
		s197.818-89.018,197.818-197.818S306.618,0,197.818,0z M383.289,191.612h-24.76c-3.103-83.459-71.111-151.467-154.57-154.57v-24.76
		C301.059,15.451,380.186,94.578,383.289,191.612z M197.818,346.182c-81.584,0-148.364-66.78-148.364-148.364
		s66.78-148.364,148.364-148.364s148.364,66.78,148.364,148.364S279.402,346.182,197.818,346.182z M191.612,12.347v24.76
		c-83.459,3.103-151.467,71.111-154.57,154.57H12.347C15.451,94.578,94.578,15.451,191.612,12.347z M12.347,204.024h24.76
		c3.103,83.459,70.465,151.467,154.57,154.57v24.76C94.578,380.186,15.451,301.059,12.347,204.024z M204.024,383.289v-24.76
		c83.459-3.103,151.467-70.465,154.57-154.57h24.76C380.186,301.059,301.059,380.186,204.024,383.289z"/>
</g>
<polygon style="fill:#FDBF5E;" points="170.02,170.02 225.616,225.616 290.521,105.115 "/>
<polygon style="fill:#F16051;" points="170.02,170.02 105.115,290.521 225.616,225.616 "/>
<circle style="fill:#FFFFFF;" cx="197.818" cy="197.818" r="17.325"/>
<path style="fill:#193651;" d="M197.818,221.285c-12.994,0-23.467-10.537-23.467-23.467c0-12.994,10.537-23.467,23.467-23.467
	s23.467,10.537,23.467,23.467S210.812,221.285,197.818,221.285z M197.818,186.699c-6.206,0-11.119,4.913-11.119,11.119
	c0,6.206,4.913,11.119,11.119,11.119c6.206,0,11.119-4.913,11.119-11.119C208.937,191.612,204.024,186.699,197.818,186.699z"/>
<g>
</g>
<g>
</g>
<g>
</g>
<g>
</g>
<g>
</g>
<g>
</g>
<g>
</g>
<g>
</g>
<g>
</g>
<g>
</g>
<g>
</g>
<g>
</g>
<g>
</g>
<g>
</g>
<g>
</g>
</svg>
