<?xml version="1.0" encoding="iso-8859-1"?>
<!-- Generator: Adobe Illustrator 19.0.0, SVG Export Plug-In . SVG Version: 6.00 Build 0)  -->
<svg version="1.1" id="Layer_1" xmlns="http://www.w3.org/2000/svg" xmlns:xlink="http://www.w3.org/1999/xlink" x="0px" y="0px"
	 viewBox="0 0 395.636 395.636" style="enable-background:new 0 0 395.636 395.636;" xml:space="preserve">
<circle style="fill:#4FBF9F;" cx="87.143" cy="331.96" r="25.341"/>
<g>
	<polygon style="fill:#193651;" points="252.186,325.754 252.186,229.366 239.838,229.366 239.838,338.166 308.493,338.166 
		308.493,325.754 	"/>
	<polygon style="fill:#193651;" points="143.451,325.754 87.143,325.754 87.143,338.166 155.798,338.166 155.798,229.366 
		143.451,229.366 	"/>
	<rect x="191.612" y="242.36" style="fill:#193651;" width="12.347" height="127.935"/>
</g>
<path style="fill:#E1E6E9;" d="M300.412,242.36c49.455,0,89.018-39.564,89.018-89.018s-39.564-89.018-89.018-89.018
	c-6.206,0-12.348,0.646-18.554,1.875c-11.766-34.65-45.123-59.992-84.04-59.992s-72.339,25.341-84.105,60.574
	c-6.206-1.228-12.347-1.875-18.554-1.875c-49.455,0-89.018,39.564-89.018,89.018s39.564,89.018,89.018,89.018"/>
<path style="fill:#193651;" d="M300.412,248.501v-12.347c45.77,0,82.812-37.107,82.812-82.812s-37.042-82.877-82.812-82.877
	c-5.56,0-11.766,0.646-17.325,1.875l-4.913,1.228l-1.875-4.978c-11.766-33.358-43.248-56.242-78.481-56.242
	s-66.78,22.885-78.481,56.242l-1.875,4.913l-5.56-1.228c-5.56-1.228-11.119-1.875-17.325-1.875
	c-45.123,0.646-82.23,37.689-82.23,83.459s37.107,82.812,82.812,82.812v12.347C42.667,248.501,0,205.834,0,153.923
	c0-52.558,42.667-95.224,95.224-95.224c4.913,0,9.891,0.646,14.222,1.228C124.251,23.467,158.901,0,197.818,0
	s73.568,23.467,88.372,59.345c4.913-0.646,9.891-1.228,14.222-1.228c52.558,0,95.224,42.667,95.224,95.224
	S352.97,248.501,300.412,248.501z"/>
<circle style="fill:#F16051;" cx="197.818" cy="370.295" r="25.341"/>
<circle style="fill:#FDBF5E;" cx="308.493" cy="331.96" r="25.341"/>
<g>
	<rect x="158.901" y="156.38" style="fill:#193651;" width="12.347" height="12.347"/>
	<rect x="191.612" y="156.38" style="fill:#193651;" width="12.347" height="12.347"/>
	<rect x="224.388" y="156.38" style="fill:#193651;" width="12.347" height="12.347"/>
</g>
<g>
</g>
<g>
</g>
<g>
</g>
<g>
</g>
<g>
</g>
<g>
</g>
<g>
</g>
<g>
</g>
<g>
</g>
<g>
</g>
<g>
</g>
<g>
</g>
<g>
</g>
<g>
</g>
<g>
</g>
</svg>
