<?xml version="1.0" encoding="iso-8859-1"?>
<!-- Generator: Adobe Illustrator 19.0.0, SVG Export Plug-In . SVG Version: 6.00 Build 0)  -->
<svg version="1.1" id="Layer_1" xmlns="http://www.w3.org/2000/svg" xmlns:xlink="http://www.w3.org/1999/xlink" x="0px" y="0px"
	 viewBox="0 0 389.495 389.495" style="enable-background:new 0 0 389.495 389.495;" xml:space="preserve">
<path style="fill:#E1E6E9;" d="M353.972,140.412c0,39.564-32.194,71.111-71.111,71.111H251.96v-72.404H140.057v72.404h-33.358
	c-39.564,0-71.111-32.129-71.111-71.111s31.547-70.465,70.465-71.111C118.4,34.65,149.947,9.309,188.283,6.853
	c1.875-0.646,4.331-0.646,6.788-0.646c1.875,0,4.331,0.646,6.788,0.646c38.335,2.457,69.883,27.863,82.23,62.448
	C322.424,69.883,353.972,101.43,353.972,140.412z"/>
<g>
	<rect x="140.057" y="139.119" style="fill:#FFFFFF;" width="111.903" height="250.376"/>
	<path style="fill:#FFFFFF;" d="M336.646,69.883c0,7.176-1.164,14.028-3.362,20.428c-12.671-12.8-30.061-20.752-49.196-21.075
		c-8.21-22.885-24.76-41.762-46.093-52.558c10.02-6.659,22.044-10.473,34.974-10.473C308.137,6.206,336.646,34.715,336.646,69.883z"
		/>
</g>
<g>
	<path style="fill:#193651;" d="M339.749,88.436c1.875-6.206,2.457-12.347,2.457-18.554C342.206,31.547,310.659,0,272.323,0
		c-12.994,0-24.76,3.685-35.232,9.891c-10.537-4.913-22.885-8.016-35.232-9.244C196.945,0,191.321,0,186.408,0.646
		c-37.107,2.457-70.465,27.216-84.687,62.448c-40.21,2.457-72.339,36.461-72.339,76.671c0,42.667,34.586,77.253,77.253,77.253
		h27.216v172.477h12.347V345.6h99.556v43.895h12.347V217.018h24.76c42.667,0,77.253-34.651,77.253-77.253
		C360.113,119.984,352.679,102.077,339.749,88.436z M272.97,12.412c31.547,0,57.471,25.988,57.471,57.471
		c0,3.103-0.646,6.206-0.646,8.663c-11.766-8.663-25.988-14.222-41.438-15.451c-8.016-19.135-21.01-35.232-37.689-46.352
		C257.519,14.287,264.954,12.412,272.97,12.412z M245.754,333.253h-99.556v-37.689h99.556V333.253z M245.754,283.152h-99.556
		v-37.689h99.556V283.152z M245.754,233.115h-99.556v-37.689h99.556V233.115z M283.442,204.671h-24.76v-65.552h-12.347v43.895
		H146.263v-43.895h-12.347v65.552h-27.216c-35.879,0-64.905-29.026-64.905-64.905c0-35.232,29.026-64.259,64.259-64.905h4.331
		l1.228-4.331c11.766-32.129,42.02-55.014,77.253-57.471c1.875,0,10.537,0,12.994,0c34.65,2.457,64.905,25.341,76.024,58.117
		l1.228,4.331h4.331c35.232,0,64.323,29.026,64.323,64.905C347.766,175.644,318.739,204.671,283.442,204.671z"/>
	<rect x="152.404" y="90.311" style="fill:#193651;" width="12.347" height="12.347"/>
	<rect x="188.865" y="90.311" style="fill:#193651;" width="12.347" height="12.347"/>
	<rect x="225.39" y="90.311" style="fill:#193651;" width="12.347" height="12.347"/>
</g>
<g>
</g>
<g>
</g>
<g>
</g>
<g>
</g>
<g>
</g>
<g>
</g>
<g>
</g>
<g>
</g>
<g>
</g>
<g>
</g>
<g>
</g>
<g>
</g>
<g>
</g>
<g>
</g>
<g>
</g>
</svg>
