<?xml version="1.0" encoding="iso-8859-1"?>
<!-- Generator: Adobe Illustrator 19.0.0, SVG Export Plug-In . SVG Version: 6.00 Build 0)  -->
<svg version="1.1" id="Layer_1" xmlns="http://www.w3.org/2000/svg" xmlns:xlink="http://www.w3.org/1999/xlink" x="0px" y="0px"
	 viewBox="0 0 395.636 395.636" style="enable-background:new 0 0 395.636 395.636;" xml:space="preserve">
<path style="fill:#FFFFFF;" d="M389.43,38.335c0,8.016-3.232,15.321-8.533,20.558c-5.236,5.236-12.541,8.469-20.558,8.469h-5.56
	V38.335H40.792v29.026h-5.56c-16.097,0-29.091-12.994-29.091-29.026c0-8.016,3.232-15.321,8.533-20.558s12.541-8.469,20.558-8.469
	h325.172C376.501,9.244,389.43,22.238,389.43,38.335z"/>
<path style="fill:#193651;" d="M360.404,3.103H35.232C16.097,3.103,0,19.135,0,38.335c0,19.135,16.097,35.232,35.232,35.232h5.56
	V61.22h-5.56c-12.347,0-22.885-10.537-22.885-22.885S22.885,15.45,35.232,15.45h325.172c12.347,0,22.885,10.537,22.885,22.885
	S372.752,61.22,360.404,61.22h-5.56v12.347h5.56c19.2,0,35.232-16.097,35.232-35.232C395.636,19.135,379.539,3.103,360.404,3.103z"
	/>
<polygon style="fill:#D3D7DA;" points="75.442,392.533 116.234,351.741 157.026,392.533 197.818,351.741 238.61,392.533 
	279.402,351.741 320.194,392.533 354.844,357.947 354.844,38.335 40.792,38.335 40.792,357.947 "/>
<g>
	<rect x="59.992" y="61.22" style="fill:#193651;" width="11.766" height="12.347"/>
	<rect x="93.349" y="61.22" style="fill:#193651;" width="11.766" height="12.347"/>
	<rect x="126.125" y="61.22" style="fill:#193651;" width="11.766" height="12.347"/>
	<rect x="158.901" y="61.22" style="fill:#193651;" width="11.766" height="12.347"/>
	<rect x="192.259" y="61.22" style="fill:#193651;" width="11.766" height="12.347"/>
	<rect x="225.034" y="61.22" style="fill:#193651;" width="11.766" height="12.347"/>
	<rect x="257.81" y="61.22" style="fill:#193651;" width="11.766" height="12.347"/>
	<rect x="291.168" y="61.22" style="fill:#193651;" width="11.766" height="12.347"/>
	<rect x="323.943" y="61.22" style="fill:#193651;" width="11.766" height="12.347"/>
	<rect x="79.127" y="274.489" style="fill:#193651;" width="11.766" height="12.347"/>
	<rect x="79.127" y="150.238" style="fill:#193651;" width="12.347" height="94.578"/>
	<rect x="120.566" y="274.489" style="fill:#193651;" width="11.766" height="12.347"/>
	<rect x="119.919" y="150.238" style="fill:#193651;" width="12.347" height="94.578"/>
	<rect x="161.358" y="274.489" style="fill:#193651;" width="11.766" height="12.347"/>
	<rect x="160.711" y="150.238" style="fill:#193651;" width="12.347" height="94.578"/>
</g>
<path style="fill:#FFFFFF;" d="M297.374,215.143c4.913,2.457,9.891,5.56,12.994,9.891c3.685,4.331,5.56,9.891,5.56,17.325
	c0,6.206-1.875,11.119-4.913,16.097c-3.038,4.978-7.434,8.663-13.576,11.119c-5.56,3.103-12.347,4.331-20.428,4.913v12.994
	c0,1.228-0.646,1.875-1.228,2.457c0,0.646-0.646,0.646-1.875,0.646s-1.875-0.646-2.457-1.228c-0.646-0.646-1.228-1.228-1.228-2.457
	v-12.994c-12.347-0.646-24.113-3.103-35.232-8.016c-1.228-0.646-2.457-1.228-3.103-2.457c-0.646-1.228-1.228-2.457-1.228-3.685
	c0-1.875,0.646-3.685,1.875-4.913c1.228-1.228,3.103-1.875,4.913-1.875c1.228,0,1.875,0,3.103,0.646
	c8.663,3.685,18.554,6.206,29.673,6.206v-37.107c-8.016-1.875-14.869-4.331-19.782-6.206c-4.913-2.457-9.891-5.56-12.994-9.891
	c-3.685-4.331-5.56-9.891-5.56-16.679c0-6.206,1.228-11.119,4.331-16.097s7.434-8.663,12.994-11.766
	c5.56-3.103,12.994-4.913,21.01-5.56v-12.994c0-1.228,0.646-1.875,1.228-2.457c0.646-0.646,1.228-1.228,2.457-1.228
	s1.875,0.646,2.457,1.228c0.646,0.646,1.228,1.875,1.228,2.457v12.283c10.537,0.646,20.428,1.875,29.026,5.56
	c3.103,1.228,4.331,3.103,4.331,6.788c0,1.875-0.646,3.103-1.875,4.913c-1.228,1.228-3.103,1.875-4.913,1.875
	c-0.646,0-1.228,0-2.457-0.646c-8.016-3.103-16.097-4.331-24.76-4.331v38.917C285.608,210.812,292.396,213.269,297.374,215.143z
	 M252.832,200.275c4.331,2.457,9.891,4.913,17.907,6.788V170.02c-6.788,0.646-12.994,2.457-17.325,5.56s-6.788,7.434-6.788,12.994
	C246.626,194.133,248.501,197.818,252.832,200.275z M301.64,241.067c0-4.331-1.875-7.434-6.206-9.891
	c-3.685-2.457-9.891-4.913-17.907-6.788v35.879C293.624,259.038,301.64,252.832,301.64,241.067z"/>
<g>
</g>
<g>
</g>
<g>
</g>
<g>
</g>
<g>
</g>
<g>
</g>
<g>
</g>
<g>
</g>
<g>
</g>
<g>
</g>
<g>
</g>
<g>
</g>
<g>
</g>
<g>
</g>
<g>
</g>
</svg>
