<?xml version="1.0" encoding="iso-8859-1"?>
<!-- Generator: Adobe Illustrator 19.0.0, SVG Export Plug-In . SVG Version: 6.00 Build 0)  -->
<svg version="1.1" id="Layer_1" xmlns="http://www.w3.org/2000/svg" xmlns:xlink="http://www.w3.org/1999/xlink" x="0px" y="0px"
	 viewBox="0 0 395.636 395.636" style="enable-background:new 0 0 395.636 395.636;" xml:space="preserve">
<polygon style="fill:#FFFFFF;" points="277.592,6.206 49.455,6.206 49.455,389.43 346.182,389.43 346.182,74.796 "/>
<path style="fill:#193651;" d="M352.388,395.636H43.248V0h236.735l72.339,72.339L352.388,395.636L352.388,395.636z M55.661,383.289
	h284.38V77.253l-64.97-64.905H55.661V383.289z"/>
<polygon style="fill:#E1E6E9;" points="74.214,364.735 74.214,30.901 267.055,30.901 321.487,85.333 321.487,364.735 "/>
<polygon style="fill:#4FBF9F;" points="267.055,85.333 321.487,85.333 267.055,30.901 "/>
<g>
	<polygon style="fill:#FFFFFF;" points="197.818,234.279 206.481,252.186 226.844,255.289 212.04,268.929 215.725,289.293 
		197.818,279.402 179.911,289.293 183.596,268.929 168.792,255.289 189.156,252.186 	"/>
	<polygon style="fill:#FFFFFF;" points="138.473,280.63 147.135,298.602 167.499,301.64 152.695,315.281 156.38,335.063 
		138.473,325.754 120.566,335.063 124.251,315.281 109.446,301.64 129.81,298.602 	"/>
	<polygon style="fill:#FFFFFF;" points="257.164,280.63 265.826,298.602 286.19,301.64 271.386,315.281 275.071,335.063 
		257.164,325.754 239.257,335.063 242.941,315.281 228.137,301.64 248.501,298.602 	"/>
</g>
<g>
	<rect x="109.446" y="74.796" style="fill:#193651;" width="129.81" height="12.347"/>
	<rect x="109.446" y="116.234" style="fill:#193651;" width="129.81" height="12.347"/>
	<rect x="109.446" y="157.608" style="fill:#193651;" width="129.81" height="12.347"/>
	<rect x="109.446" y="199.046" style="fill:#193651;" width="12.347" height="12.347"/>
	<rect x="139.119" y="199.046" style="fill:#193651;" width="12.347" height="12.347"/>
	<rect x="168.145" y="199.046" style="fill:#193651;" width="12.347" height="12.347"/>
	<rect x="197.818" y="199.046" style="fill:#193651;" width="12.347" height="12.347"/>
	<rect x="227.491" y="199.046" style="fill:#193651;" width="12.347" height="12.347"/>
</g>
<g>
</g>
<g>
</g>
<g>
</g>
<g>
</g>
<g>
</g>
<g>
</g>
<g>
</g>
<g>
</g>
<g>
</g>
<g>
</g>
<g>
</g>
<g>
</g>
<g>
</g>
<g>
</g>
<g>
</g>
</svg>
