<?xml version="1.0" encoding="iso-8859-1"?>
<!-- Generator: Adobe Illustrator 19.0.0, SVG Export Plug-In . SVG Version: 6.00 Build 0)  -->
<svg version="1.1" id="Layer_1" xmlns="http://www.w3.org/2000/svg" xmlns:xlink="http://www.w3.org/1999/xlink" x="0px" y="0px"
	 viewBox="0 0 398.093 398.093" style="enable-background:new 0 0 398.093 398.093;" xml:space="preserve">
<path style="fill:#FFFFFF;" d="M332.541,211.394L182.368,361.632c-40.21,40.21-105.697,40.21-145.907,0
	c-40.21-40.145-40.21-105.697,0-145.907L186.053,66.133L332.541,211.394z"/>
<path style="fill:#193651;" d="M0,288.711c0,29.026,11.766,56.889,32.129,77.253c20.428,21.01,48.226,32.129,77.253,32.129
	s56.242-11.119,77.253-32.129l150.238-150.238l-8.663-8.663L178.036,357.301c-18.554,18.554-42.667,28.444-68.59,28.444
	c-25.988,0-50.101-9.891-68.59-28.444c-18.489-18.554-28.444-42.667-28.444-68.59c0-25.988,9.891-50.101,28.444-68.59
	L190.448,70.529l-8.663-8.663L32.129,211.394C11.119,231.822,0,259.62,0,288.711z"/>
<polyline style="fill:#4FBF9F;" points="307.846,187.927 389.43,106.343 291.749,8.663 210.166,90.246 "/>
<g>
	<polygon style="fill:#193651;" points="312.178,192.259 303.515,182.949 380.768,106.343 291.749,17.325 215.143,94.578 
		205.834,85.915 291.749,0 398.093,106.343 	"/>
	
		<rect x="275.109" y="65.42" transform="matrix(-0.7071 0.7071 -0.7071 -0.7071 542.4461 -81.502)" style="fill:#193651;" width="25.988" height="12.347"/>
	
		<rect x="313.328" y="103.808" transform="matrix(-0.7071 0.7071 -0.7071 -0.7071 634.8351 -42.9938)" style="fill:#193651;" width="25.988" height="12.347"/>
	
		<rect x="160.593" y="175.578" transform="matrix(0.7071 0.7071 -0.7071 0.7071 177.5911 -64.5934)" style="fill:#193651;" width="12.347" height="12.994"/>
	
		<rect x="185.747" y="199.87" transform="matrix(0.7071 0.7071 -0.7071 0.7071 202.1358 -75.2653)" style="fill:#193651;" width="12.347" height="12.994"/>
	
		<rect x="210.081" y="224.923" transform="matrix(-0.7071 0.7071 -0.7071 -0.7071 533.1316 241.3635)" style="fill:#193651;" width="12.994" height="12.347"/>
	<path style="fill:#193651;" d="M111.903,233.503L111.903,233.503c-30.319,0-54.885,24.566-54.885,54.885l0,0
		c0,30.319,24.566,54.885,54.885,54.885l0,0c30.319,0,54.885-24.566,54.885-54.885l0,0
		C166.788,258.069,142.222,233.503,111.903,233.503z M111.903,330.343c-23.143,0-41.956-18.812-41.956-41.956
		s18.812-41.956,41.956-41.956s41.956,18.812,41.956,41.956S135.046,330.343,111.903,330.343z"/>
</g>
<g>
</g>
<g>
</g>
<g>
</g>
<g>
</g>
<g>
</g>
<g>
</g>
<g>
</g>
<g>
</g>
<g>
</g>
<g>
</g>
<g>
</g>
<g>
</g>
<g>
</g>
<g>
</g>
<g>
</g>
</svg>
