<?xml version="1.0" encoding="iso-8859-1"?>
<!-- Generator: Adobe Illustrator 19.0.0, SVG Export Plug-In . SVG Version: 6.00 Build 0)  -->
<svg version="1.1" id="Layer_1" xmlns="http://www.w3.org/2000/svg" xmlns:xlink="http://www.w3.org/1999/xlink" x="0px" y="0px"
	 viewBox="0 0 395.636 395.636" style="enable-background:new 0 0 395.636 395.636;" xml:space="preserve">
<rect x="127.354" y="6.206" style="fill:#FFFFFF;" width="262.077" height="383.289"/>
<path style="fill:#193651;" d="M395.636,395.636H121.147V0h274.489V395.636z M133.56,383.289h249.729V12.347H133.56V383.289z"/>
<rect x="152.048" y="30.901" style="fill:#2EA2DB;" width="212.622" height="84.687"/>
<g>
	<rect x="194.133" y="66.78" style="fill:#193651;" width="12.347" height="12.347"/>
	<rect x="252.186" y="66.78" style="fill:#193651;" width="12.347" height="12.347"/>
	<rect x="310.303" y="66.78" style="fill:#193651;" width="12.347" height="12.347"/>
</g>
<g>
	<polygon style="fill:#FFFFFF;" points="38.917,161.939 38.917,343.725 64.905,380.768 90.893,343.725 90.893,161.939 	"/>
	<path style="fill:#FFFFFF;" d="M30.901,18.554v143.451h68.008V18.554c0-6.788-5.56-12.347-12.347-12.347H43.248
		C36.461,6.206,30.901,11.766,30.901,18.554z"/>
</g>
<path style="fill:#193651;" d="M86.562,0H43.248C32.711,0,24.695,8.016,24.695,18.554v14.222H0v135.37h12.347V45.123h12.347v123.022
	h8.016v177.39l25.988,37.107v6.788c0,3.685,2.457,6.206,6.206,6.206c3.749,0,6.206-2.457,6.206-6.206v-6.788l25.988-37.107v-177.39
	h8.016V18.554C105.115,8.016,97.034,0,86.562,0z M84.687,341.269l-19.782,28.444l-19.782-28.444v-52.558h39.564
	C84.687,288.711,84.687,341.269,84.687,341.269z M84.687,276.299H45.123V168.145h39.564V276.299z M92.703,155.798H37.107V18.554
	c0-3.685,2.457-6.206,6.206-6.206h43.248c3.685,0,6.206,2.457,6.206,6.206v137.244H92.703z"/>
<g>
	<rect x="152.048" y="306.618" style="fill:#D3D7DA;" width="60.574" height="58.117"/>
	<rect x="152.048" y="140.347" style="fill:#D3D7DA;" width="60.574" height="58.117"/>
	<rect x="152.048" y="223.16" style="fill:#D3D7DA;" width="60.574" height="58.117"/>
	<rect x="228.137" y="306.618" style="fill:#D3D7DA;" width="60.574" height="58.117"/>
</g>
<rect x="228.137" y="140.347" style="fill:#F16051;" width="60.574" height="58.117"/>
<rect x="228.137" y="223.16" style="fill:#D3D7DA;" width="60.574" height="58.117"/>
<g>
	<rect x="304.162" y="306.618" style="fill:#F16051;" width="60.574" height="58.117"/>
	<rect x="304.162" y="140.347" style="fill:#F16051;" width="60.574" height="58.117"/>
</g>
<rect x="304.162" y="223.16" style="fill:#D3D7DA;" width="60.574" height="58.117"/>
<g>
</g>
<g>
</g>
<g>
</g>
<g>
</g>
<g>
</g>
<g>
</g>
<g>
</g>
<g>
</g>
<g>
</g>
<g>
</g>
<g>
</g>
<g>
</g>
<g>
</g>
<g>
</g>
<g>
</g>
</svg>
