<?xml version="1.0" encoding="iso-8859-1"?>
<!-- Generator: Adobe Illustrator 19.0.0, SVG Export Plug-In . SVG Version: 6.00 Build 0)  -->
<svg version="1.1" id="Layer_1" xmlns="http://www.w3.org/2000/svg" xmlns:xlink="http://www.w3.org/1999/xlink" x="0px" y="0px"
	 viewBox="0 0 409.212 409.212" style="enable-background:new 0 0 409.212 409.212;" xml:space="preserve">
<g>
	<polygon style="fill:#FFFFFF;" points="395.895,247.822 360.081,204.574 324.848,247.822 	"/>
	<polygon style="fill:#FFFFFF;" points="83.717,247.822 48.485,204.574 12.671,247.822 	"/>
</g>
<path style="fill:#D3D7DA;" d="M315.539,168.695c0-2.457,0-4.331,0-6.788c0-65.552-56.889-117.463-124.25-110.028
	c-50.683,5.56-92.121,46.352-97.681,97.034c-0.646,6.788-0.646,13.576-0.646,19.782L315.539,168.695L315.539,168.695z"/>
<path style="fill:#FFFFFF;" d="M224.065,393.147h-40.21c-6.788,0-12.347-5.56-12.347-12.347v-17.907h64.905V380.8
	C236.412,387.523,230.853,393.147,224.065,393.147z"/>
<rect x="135.693" y="308.461" style="fill:#F16051;" width="137.826" height="54.368"/>
<g>
	<path style="fill:#193651;" d="M204.283,44.444c-4.913,0-9.244,0-13.576,0.646c-53.786,6.206-97.034,49.455-103.24,103.24
		c-3.103,30.901,4.978,61.22,24.113,85.333c16.356,21.01,25.471,44.735,26.505,68.59h-8.533v66.78h35.879V380.8
		c0,10.537,8.016,18.554,18.554,18.554h40.21c10.537,0,18.554-8.016,18.554-18.554v-11.766h36.461h0.646v-66.78h-9.18
		c0.97-23.919,10.15-47.58,25.859-67.362c16.679-21.01,25.341-46.352,25.341-72.921C321.745,97.002,269.188,44.444,204.283,44.444z
		 M230.853,380.735c0,3.685-2.457,6.206-6.206,6.206h-40.21c-3.685,0-6.206-2.457-6.206-6.206V368.97h52.558v11.766H230.853z
		 M267.313,356.622H141.834v-42.02h125.479V356.622z M287.095,226.812c-17.584,22.303-27.41,48.485-28.38,75.442h-48.291V171.087
		l46.61-46.481l-8.727-8.727l-43.572,43.442l-43.248-43.119l-8.727,8.727l45.253,45.123v132.202H150.95
		c-0.84-27.087-10.667-53.01-28.962-76.671c-17.325-21.657-24.76-48.226-21.657-76.024c5.56-48.226,44.477-86.562,92.703-92.121
		c3.685-0.646,8.016-0.646,11.766-0.646c58.117,0,105.115,46.998,105.115,105.115C309.98,185.438,301.964,208.259,287.095,226.812z"
		/>
	<rect x="198.077" y="9.859" style="fill:#193651;" width="12.347" height="14.222"/>
	
		<rect x="143.485" y="21.363" transform="matrix(-0.3837 -0.9234 0.9234 -0.3837 182.9548 177.1701)" style="fill:#193651;" width="14.221" height="12.347"/>
	
		<rect x="98.742" y="51.438" transform="matrix(-0.7081 -0.7061 0.7061 -0.7081 140.1278 173.1509)" style="fill:#193651;" width="14.222" height="12.347"/>
	
		<rect x="68.196" y="97.062" transform="matrix(0.9242 0.3818 -0.3818 0.9242 45.1222 -20.9322)" style="fill:#193651;" width="14.222" height="12.347"/>
	<rect x="57.794" y="150.206" style="fill:#193651;" width="14.222" height="12.347"/>
	<rect x="337.196" y="150.206" style="fill:#193651;" width="14.222" height="12.347"/>
	
		<rect x="326.325" y="96.809" transform="matrix(-0.9242 0.3818 -0.3818 -0.9242 680.93 70.8515)" style="fill:#193651;" width="14.222" height="12.347"/>
	
		<rect x="296.997" y="50.672" transform="matrix(-0.7061 -0.7081 0.7081 -0.7061 476.3242 313.2603)" style="fill:#193651;" width="12.347" height="14.222"/>
	
		<rect x="251.863" y="20.458" transform="matrix(-0.9236 -0.3833 0.3833 -0.9236 485.7964 151.9389)" style="fill:#193651;" width="12.347" height="14.222"/>
	<path style="fill:#193651;" d="M0,254.028h20.428v145.261h56.242v-12.347h-43.96V254.028h31.547v54.368h12.347v-54.368h20.428
		l-48.226-59.345L0,254.028z M25.923,241.681l22.885-27.216l22.238,27.216H25.923z"/>
	<path style="fill:#193651;" d="M360.986,194.683l-48.808,59.345h20.428v54.368h12.347v-54.368h31.547v132.913h-43.895v12.347
		h56.242V254.028h20.364L360.986,194.683z M338.101,241.681l22.885-27.216l22.238,27.216H338.101z"/>
	<rect x="64.259" y="356.04" style="fill:#193651;" width="12.347" height="12.347"/>
	<rect x="64.259" y="325.139" style="fill:#193651;" width="12.347" height="12.347"/>
	<rect x="332.541" y="356.04" style="fill:#193651;" width="12.347" height="12.347"/>
	<rect x="332.541" y="325.139" style="fill:#193651;" width="12.347" height="12.347"/>
</g>
<g>
</g>
<g>
</g>
<g>
</g>
<g>
</g>
<g>
</g>
<g>
</g>
<g>
</g>
<g>
</g>
<g>
</g>
<g>
</g>
<g>
</g>
<g>
</g>
<g>
</g>
<g>
</g>
<g>
</g>
</svg>
