<?xml version="1.0" encoding="iso-8859-1"?>
<!-- Generator: Adobe Illustrator 19.0.0, SVG Export Plug-In . SVG Version: 6.00 Build 0)  -->
<svg version="1.1" id="Layer_1" xmlns="http://www.w3.org/2000/svg" xmlns:xlink="http://www.w3.org/1999/xlink" x="0px" y="0px"
	 viewBox="0 0 395.636 395.636" style="enable-background:new 0 0 395.636 395.636;" xml:space="preserve">
<rect x="6.206" y="81.584" style="fill:#FFFFFF;" width="383.289" height="307.846"/>
<rect x="30.901" y="106.343" style="fill:#E1E6E9;" width="333.834" height="258.392"/>
<rect x="6.206" y="6.206" style="fill:#FFFFFF;" width="383.289" height="75.442"/>
<path style="fill:#193651;" d="M0,0v395.636h395.636V0H0z M383.289,383.289H12.347V87.79h370.941L383.289,383.289L383.289,383.289z
	 M383.289,75.442H12.347v-63.03h370.941L383.289,75.442L383.289,75.442z"/>
<g>
	<rect x="37.107" y="34.004" style="fill:#FDBF5E;" width="170.602" height="19.782"/>
	<circle style="fill:#FDBF5E;" cx="278.174" cy="43.248" r="9.244"/>
</g>
<circle style="fill:#2EA2DB;" cx="313.406" cy="43.248" r="9.244"/>
<circle style="fill:#F16051;" cx="349.285" cy="43.248" r="9.244"/>
<g>
	<rect x="305.972" y="144.679" style="fill:#193651;" width="12.347" height="181.139"/>
	<rect x="260.267" y="182.949" style="fill:#193651;" width="12.347" height="143.451"/>
	<rect x="214.497" y="212.687" style="fill:#193651;" width="12.347" height="113.131"/>
	<rect x="168.792" y="236.154" style="fill:#193651;" width="12.347" height="89.665"/>
	<rect x="123.022" y="255.289" style="fill:#193651;" width="12.347" height="71.111"/>
	<rect x="77.253" y="270.158" style="fill:#193651;" width="12.347" height="56.242"/>
</g>
<g>
</g>
<g>
</g>
<g>
</g>
<g>
</g>
<g>
</g>
<g>
</g>
<g>
</g>
<g>
</g>
<g>
</g>
<g>
</g>
<g>
</g>
<g>
</g>
<g>
</g>
<g>
</g>
<g>
</g>
</svg>
