<?xml version="1.0" encoding="iso-8859-1"?>
<!-- Generator: Adobe Illustrator 19.0.0, SVG Export Plug-In . SVG Version: 6.00 Build 0)  -->
<svg version="1.1" id="Layer_1" xmlns="http://www.w3.org/2000/svg" xmlns:xlink="http://www.w3.org/1999/xlink" x="0px" y="0px"
	 viewBox="0 0 396.218 396.218" style="enable-background:new 0 0 396.218 396.218;" xml:space="preserve">
<path style="fill:#FFFFFF;" d="M348.348,228.137l41.438-8.016v-43.895l-41.438-8.016c-2.457-9.891-5.56-19.782-9.891-29.026
	c-3.685-8.663-8.016-16.679-12.994-24.76l24.76-36.461l-30.901-30.901l-36.525,24.63c-16.679-11.119-35.232-18.554-54.368-22.885
	l-8.016-42.667h-43.895l-8.663,42.667c-19.135,3.685-37.107,11.766-53.139,22.238l-36.461-24.76L47.354,77.188l24.76,36.461
	c-4.978,8.016-9.891,16.097-12.994,24.76c-4.331,9.244-8.016,18.554-9.891,29.026L6.562,175.45v43.895L48,227.362
	c2.457,9.891,5.56,19.782,9.891,29.026c3.685,8.663,8.016,16.679,12.994,24.76l-24.76,36.461l30.901,30.901l36.461-24.76
	c16.097,10.537,34.004,17.907,53.139,22.238l8.663,42.667h43.895l8.663-42.667c19.135-3.685,37.107-11.766,53.139-22.238
	l36.461,24.76l30.901-30.901l-24.76-36.461c4.913-8.016,9.891-16.097,12.994-24.76C342.141,247.919,345.826,238.028,348.348,228.137
	z"/>
<path style="fill:#193651;" d="M353.261,233.051l42.667-8.663V170.02l-42.667-8.663c-2.457-8.663-5.56-17.907-9.244-25.988
	c-3.103-7.434-6.788-14.804-11.766-22.238l24.76-37.107l-38.335-38.335l-37.107,24.76c-14.869-9.244-30.901-16.097-48.226-19.782
	L225.325,0h-54.368l-8.663,43.895c-16.679,3.685-32.776,10.537-48.226,19.782l-37.107-24.76L38.626,77.253l24.695,37.107
	c-3.685,6.788-7.434,14.222-10.537,21.657c-4.331,8.663-7.434,17.325-9.891,25.988l-42.602,8.598v54.368l42.667,8.663
	c2.457,8.663,5.56,17.907,9.244,25.988c3.103,7.434,6.788,14.869,11.766,22.238l-24.76,37.107l38.335,38.335l37.107-24.76
	c14.804,9.244,30.901,16.097,48.226,19.782l8.663,43.895h54.368l8.663-43.895c16.679-3.685,32.776-10.537,48.226-19.782
	l37.107,24.76l38.335-38.335l-24.76-37.107c4.331-7.434,8.016-14.869,11.766-21.657C347.701,250.958,350.804,242.36,353.261,233.051
	z M317.446,281.277l24.113,35.232l-24.113,24.113l-35.297-24.113c-17.907,12.347-37.689,20.428-58.699,24.113l-8.663,42.667h-34.004
	l-8.016-42.02c-21.657-4.331-41.438-11.766-58.699-24.113l-35.232,24.113l-24.113-24.113l24.113-35.232
	c-12.347-18.554-21.01-37.689-25.988-58.699l-40.21-8.663v-34.004l40.792-7.434c3.685-19.782,12.994-38.917,25.988-58.699
	L55.305,79.192l24.113-24.113l35.232,24.113c18.554-12.347,37.689-21.01,58.699-24.113l8.016-42.667h34.004l8.016,42.02
	c21.01,3.685,40.21,11.766,58.699,24.113l35.232-24.113l24.113,24.113l-23.984,35.232c12.347,19.782,21.657,38.917,25.988,58.699
	l40.792,8.016v34.004l-41.438,8.016C337.81,244.17,329.147,263.37,317.446,281.277z"/>
<path style="fill:#FDBF5E;" d="M198.109,325.172c-69.883,0-127.354-56.889-127.354-127.354c0-69.883,56.889-127.354,127.354-127.354
	c69.883,0,127.354,56.889,127.354,127.354C325.463,267.701,267.992,325.172,198.109,325.172z"/>
<g>
	<rect x="191.903" y="89.665" style="fill:#193651;" width="12.347" height="12.347"/>
	
		<rect x="94.825" y="160.176" transform="matrix(0.951 0.3091 -0.3091 0.951 56.3663 -23.0727)" style="fill:#193651;" width="12.347" height="12.347"/>
	
		<rect x="289.017" y="223.155" transform="matrix(0.951 0.3091 -0.3091 0.951 85.3437 -80.015)" style="fill:#193651;" width="12.347" height="12.347"/>
	
		<rect x="131.832" y="274.52" transform="matrix(-0.5878 0.809 -0.809 -0.5878 446.2087 334.0386)" style="fill:#193651;" width="12.347" height="12.347"/>
	
		<rect x="251.987" y="108.805" transform="matrix(0.809 0.5878 -0.5878 0.809 116.8924 -129.7874)" style="fill:#193651;" width="12.347" height="12.347"/>
	
		<rect x="251.838" y="274.319" transform="matrix(0.5877 0.8091 -0.8091 0.5877 333.3233 -93.1036)" style="fill:#193651;" width="12.348" height="12.348"/>
	
		<rect x="132.05" y="108.994" transform="matrix(0.5878 0.809 -0.809 0.5878 150.1467 -64.352)" style="fill:#193651;" width="12.347" height="12.347"/>
	
		<rect x="289.072" y="159.946" transform="matrix(-0.3091 -0.951 0.951 -0.3091 228.5241 498.2545)" style="fill:#193651;" width="12.347" height="12.347"/>
	
		<rect x="94.843" y="223.322" transform="matrix(0.3091 0.951 -0.951 0.3091 288.0481 62.4878)" style="fill:#193651;" width="12.347" height="12.347"/>
</g>
<circle style="fill:#FFFFFF;" cx="198.109" cy="197.818" r="18.554"/>
<path style="fill:#193651;" d="M222.869,197.818c0-13.576-11.119-24.76-24.76-24.76c-11.766,0-21.01,8.016-24.113,18.554H125.77
	v12.347h48.226c2.457,8.663,9.244,15.451,17.907,17.907v84.687h12.347v-84.687C214.788,218.828,222.869,209.584,222.869,197.818z
	 M198.109,210.166c-6.788,0-12.347-5.56-12.347-12.347c0-6.788,5.56-12.347,12.347-12.347c6.788,0,12.347,5.56,12.347,12.347
	C210.457,204.606,204.897,210.166,198.109,210.166z"/>
<g>
</g>
<g>
</g>
<g>
</g>
<g>
</g>
<g>
</g>
<g>
</g>
<g>
</g>
<g>
</g>
<g>
</g>
<g>
</g>
<g>
</g>
<g>
</g>
<g>
</g>
<g>
</g>
<g>
</g>
</svg>
