<?xml version="1.0" encoding="iso-8859-1"?>
<!-- Generator: Adobe Illustrator 19.0.0, SVG Export Plug-In . SVG Version: 6.00 Build 0)  -->
<svg version="1.1" id="Layer_1" xmlns="http://www.w3.org/2000/svg" xmlns:xlink="http://www.w3.org/1999/xlink" x="0px" y="0px"
	 viewBox="0 0 406.756 406.756" style="enable-background:new 0 0 406.756 406.756;" xml:space="preserve">
<path style="fill:#FFFFFF;" d="M201.503,139.701L201.503,139.701c-35.232,0-63.677,28.444-63.677,63.677l0,0
	c0,35.232,28.444,63.677,63.677,63.677l0,0c35.232,0,63.677-28.444,63.677-63.677l0,0
	C265.18,168.145,236.735,139.701,201.503,139.701z"/>
<path style="fill:#F16051;" d="M201.503,236.154c-17.907,0-32.776-14.869-32.776-32.776s14.869-32.776,32.776-32.776
	s32.776,14.869,32.776,32.776C234.279,221.285,219.475,236.154,201.503,236.154z"/>
<g>
	<path style="fill:#193651;" d="M201.503,133.495c-38.335,0-69.883,31.547-69.883,69.883s31.547,69.883,69.883,69.883
		s69.883-31.547,69.883-69.883S239.838,133.495,201.503,133.495z M201.503,260.848c-31.547,0-57.471-25.988-57.471-57.471
		s25.988-57.471,57.471-57.471c31.547,0,57.471,25.988,57.471,57.471S233.05,260.848,201.503,260.848z"/>
	<polygon style="fill:#193651;" points="197.818,21.01 205.253,21.01 224.388,40.145 233.05,31.547 201.503,0 170.02,31.547 
		178.683,40.145 	"/>
	<rect x="195.362" y="82.812" style="fill:#193651;" width="12.347" height="12.347"/>
	<rect x="195.362" y="58.117" style="fill:#193651;" width="12.347" height="12.347"/>
	<rect x="195.362" y="107.572" style="fill:#193651;" width="12.347" height="12.347"/>
	<rect x="195.362" y="33.358" style="fill:#193651;" width="12.347" height="12.347"/>
	<polygon style="fill:#193651;" points="205.253,385.745 197.818,385.745 178.683,366.61 170.02,375.208 201.503,406.756 
		233.05,375.208 224.388,366.61 	"/>
	<rect x="195.362" y="336.291" style="fill:#193651;" width="12.347" height="12.347"/>
	<rect x="195.362" y="311.531" style="fill:#193651;" width="12.347" height="12.347"/>
	<rect x="195.362" y="286.836" style="fill:#193651;" width="12.347" height="12.347"/>
	<rect x="195.362" y="360.986" style="fill:#193651;" width="12.347" height="12.347"/>
	<polygon style="fill:#193651;" points="30.901,123.604 23.661,97.875 26.893,91.475 53.786,84.04 50.683,72.339 7.434,84.04 
		18.554,127.354 	"/>
	
		<rect x="80.624" y="117.704" transform="matrix(-0.8944 -0.4472 0.4472 -0.8944 109.0798 273.5695)" style="fill:#193651;" width="12.412" height="12.412"/>
	
		<rect x="58.402" y="106.624" transform="matrix(0.8944 0.4472 -0.4472 0.8944 57.2798 -16.9816)" style="fill:#193651;" width="12.412" height="12.412"/>
	
		<rect x="36.133" y="95.484" transform="matrix(0.8944 0.4472 -0.4472 0.8944 49.9468 -8.199)" style="fill:#193651;" width="12.412" height="12.412"/>
	
		<rect x="102.929" y="128.911" transform="matrix(0.8944 0.4472 -0.4472 0.8944 71.9478 -34.5421)" style="fill:#193651;" width="12.412" height="12.412"/>
	<polygon style="fill:#193651;" points="390.659,268.929 378.958,271.968 386.198,298.473 382.448,304.808 356.073,311.531 
		359.176,323.943 402.424,312.178 	"/>
	
		<rect x="318.745" y="262.449" transform="matrix(0.8619 0.507 -0.507 0.8619 181.0157 -127.6287)" style="fill:#193651;" width="12.218" height="12.218"/>
	
		<rect x="297.694" y="250.125" transform="matrix(0.8619 0.507 -0.507 0.8619 171.8607 -118.6571)" style="fill:#193651;" width="12.218" height="12.218"/>
	
		<rect x="362.022" y="286.562" transform="matrix(-0.8619 -0.507 0.507 -0.8619 537.0457 731.5833)" style="fill:#193651;" width="12.218" height="12.218"/>
	
		<rect x="340.394" y="274.258" transform="matrix(0.8619 0.507 -0.507 0.8619 189.9917 -136.9751)" style="fill:#193651;" width="12.218" height="12.218"/>
	<polygon style="fill:#193651;" points="20.558,292.913 27.798,266.408 16.097,263.37 4.331,306.618 47.58,318.384 50.683,305.972 
		24.307,299.248 	"/>
	
		<rect x="75.753" y="256.914" transform="matrix(0.507 0.8619 -0.8619 0.507 267.065 59.1052)" style="fill:#193651;" width="12.218" height="12.218"/>
	
		<rect x="54.143" y="268.664" transform="matrix(0.507 0.8619 -0.8619 0.507 266.5393 83.5248)" style="fill:#193651;" width="12.218" height="12.218"/>
	
		<rect x="32.544" y="281.012" transform="matrix(-0.507 -0.8619 0.8619 -0.507 -189.2283 466.0133)" style="fill:#193651;" width="12.218" height="12.218"/>
	
		<rect x="96.789" y="244.549" transform="matrix(0.507 0.8619 -0.8619 0.507 266.777 34.8775)" style="fill:#193651;" width="12.218" height="12.218"/>
	
		<rect x="358.901" y="91.871" transform="matrix(-0.8619 0.507 -0.507 -0.8619 729.3026 -2.6359)" style="fill:#193651;" width="12.218" height="12.218"/>
	<polygon style="fill:#193651;" points="383.224,91.798 375.855,118.044 388.202,121.794 399.321,77.899 356.073,66.78 
		352.97,78.481 379.733,85.851 	"/>
	
		<rect x="293.999" y="127.715" transform="matrix(-0.507 -0.8619 0.8619 -0.507 336.9213 460.3487)" style="fill:#193651;" width="12.218" height="12.218"/>
	
		<rect x="337.291" y="103.638" transform="matrix(-0.507 -0.8619 0.8619 -0.507 422.9164 461.3796)" style="fill:#193651;" width="12.218" height="12.218"/>
	
		<rect x="315.663" y="115.979" transform="matrix(-0.507 -0.8619 0.8619 -0.507 379.6845 461.3354)" style="fill:#193651;" width="12.218" height="12.218"/>
</g>
<g>
</g>
<g>
</g>
<g>
</g>
<g>
</g>
<g>
</g>
<g>
</g>
<g>
</g>
<g>
</g>
<g>
</g>
<g>
</g>
<g>
</g>
<g>
</g>
<g>
</g>
<g>
</g>
<g>
</g>
</svg>
