<?xml version="1.0" encoding="iso-8859-1"?>
<!-- Generator: Adobe Illustrator 19.0.0, SVG Export Plug-In . SVG Version: 6.00 Build 0)  -->
<svg version="1.1" id="Layer_1" xmlns="http://www.w3.org/2000/svg" xmlns:xlink="http://www.w3.org/1999/xlink" x="0px" y="0px"
	 viewBox="0 0 395.636 395.636" style="enable-background:new 0 0 395.636 395.636;" xml:space="preserve">
<path style="fill:#FFFFFF;stroke:#193651;stroke-width:2;stroke-miterlimit:10;" d="M197.818,6.206L197.818,6.206
	C92.121,6.206,6.206,92.121,6.206,197.818l0,0c0,105.697,85.915,191.612,191.612,191.612l0,0
	c105.697,0,191.612-85.915,191.612-191.612l0,0C389.43,92.121,303.515,6.206,197.818,6.206z"/>
<path id="SVGCleanerId_0" style="fill:#FDBF5E;" d="M197.818,364.735c-92.121,0-166.917-74.796-166.917-166.917
	S105.697,30.901,197.818,30.901s166.917,74.796,166.917,166.917S289.939,364.735,197.818,364.735z"/>
<path style="fill:#FFFFFF;" d="M197.818,6.206L197.818,6.206C92.121,6.206,6.206,92.121,6.206,197.818l0,0
	c0,105.697,85.915,191.612,191.612,191.612l0,0c105.697,0,191.612-85.915,191.612-191.612l0,0
	C389.43,92.121,303.515,6.206,197.818,6.206z"/>
<path style="fill:#193651;" d="M197.818,395.636C89.018,395.636,0,306.618,0,197.818S89.018,0,197.818,0
	s197.818,89.018,197.818,197.818S306.618,395.636,197.818,395.636z M197.818,12.347c-102.012,0-185.471,83.459-185.471,185.471
	s83.459,185.471,185.471,185.471s185.471-83.459,185.471-185.471S299.83,12.347,197.818,12.347z"/>
<g>
	<path id="SVGCleanerId_0_1_" style="fill:#FDBF5E;" d="M197.818,364.735c-92.121,0-166.917-74.796-166.917-166.917
		S105.697,30.901,197.818,30.901s166.917,74.796,166.917,166.917S289.939,364.735,197.818,364.735z"/>
</g>
<g>
	<path style="fill:#193651;" d="M236.154,229.366v34.004h-59.992v-59.345h43.895v-24.76h-43.895v-32.776
		c0-14.804,12.347-27.216,27.216-27.216c9.244,0,17.325,4.331,22.238,11.766l20.428-13.576
		c-9.891-14.222-25.988-22.885-43.248-22.885c-28.444,0-51.911,23.467-51.911,51.911v32.776h-16.679v24.76h16.679v59.992h-16.679
		v24.76h126.125v-58.699h-24.113v-0.711H236.154z"/>
	<rect x="327.628" y="191.354" style="fill:#193651;" width="12.347" height="12.929"/>
	<polygon style="fill:#193651;" points="55.661,197.172 55.661,198.465 55.661,204.283 68.008,204.283 68.008,198.465 
		68.008,197.172 68.008,191.354 55.661,191.354 	"/>
</g>
<g>
</g>
<g>
</g>
<g>
</g>
<g>
</g>
<g>
</g>
<g>
</g>
<g>
</g>
<g>
</g>
<g>
</g>
<g>
</g>
<g>
</g>
<g>
</g>
<g>
</g>
<g>
</g>
<g>
</g>
</svg>
