<?xml version="1.0" encoding="iso-8859-1"?>
<!-- Generator: Adobe Illustrator 19.0.0, SVG Export Plug-In . SVG Version: 6.00 Build 0)  -->
<svg version="1.1" id="Layer_1" xmlns="http://www.w3.org/2000/svg" xmlns:xlink="http://www.w3.org/1999/xlink" x="0px" y="0px"
	 viewBox="0 0 395.636 395.636" style="enable-background:new 0 0 395.636 395.636;" xml:space="preserve">
<path style="fill:#FFFFFF;" d="M37.689,6.174h205.253c17.325,0,31.547,14.222,31.547,31.547v95.224
	c0,17.325-14.222,31.547-31.547,31.547H119.337v33.293l-43.248-33.358h-38.4c-17.325,0-31.547-14.222-31.547-31.547V37.657
	C6.206,20.396,20.428,6.174,37.689,6.174z"/>
<rect x="37.689" y="37.657" style="fill:#E1E6E9;" width="205.253" height="95.224"/>
<g>
	<rect x="186.053" y="77.22" style="fill:#193651;" width="12.347" height="15.451"/>
	<rect x="134.141" y="77.22" style="fill:#193651;" width="12.347" height="15.451"/>
	<rect x="82.23" y="77.22" style="fill:#193651;" width="12.347" height="15.451"/>
</g>
<g>
	<circle style="fill:#FFFFFF;" cx="263.952" cy="154.537" r="64.905"/>
	<path style="fill:#FFFFFF;" d="M372.751,246.012l-43.248-21.657c-17.325,16.097-40.21,25.988-65.552,25.988
		s-48.226-9.891-65.487-25.988l-43.313,21.657c-10.537,4.913-16.679,16.097-16.679,27.216v116.234H389.43V273.228
		C389.43,261.463,382.642,250.925,372.751,246.012z"/>
</g>
<g>
	<path style="fill:#193651;" d="M280.048,85.301v-47.58c0-21.01-16.679-37.689-37.689-37.689H37.689C16.679-0.032,0,16.647,0,37.657
		v95.224c0,21.01,16.679,37.689,37.689,37.689h36.461l51.329,40.21v-40.21h69.883c7.434,31.547,35.232,55.014,69.236,55.014
		c38.917,0,71.111-31.547,71.111-71.111C335.063,120.533,311.596,92.671,280.048,85.301z M193.487,158.222h-80.356v27.216
		l-34.65-27.216H37.689c-13.576,0-25.341-11.119-25.341-25.341V37.657c0-14.222,11.119-25.341,25.341-25.341h205.253
		c13.576,0,25.341,11.119,25.341,25.341v46.352c-1.228,0-68.59-3.685-74.796,70.465
		C192.905,155.766,193.487,156.994,193.487,158.222z M263.952,212.655c-32.129,0-58.699-25.988-58.699-58.699
		c0-32.129,25.988-58.699,58.699-58.699c32.129,0,58.699,25.988,58.699,58.699S296.081,212.655,263.952,212.655z"/>
	<path style="fill:#193651;" d="M375.208,240.453l-46.998-23.467l-3.103,3.103c-16.679,15.451-38.335,24.113-61.22,24.113
		s-44.541-8.663-61.22-24.113l-3.103-3.103l-46.869,23.467c-12.347,6.206-20.428,19.135-20.428,32.776v122.376h263.37V273.228
		C395.636,259.588,387.62,246.594,375.208,240.453z M383.289,383.257h-238.61V273.228c0-9.244,4.913-17.907,13.576-21.657
		l39.564-19.782c18.554,16.097,42.02,24.76,66.78,24.76c24.76,0,47.58-8.663,66.133-24.76l39.564,19.782
		c8.016,4.331,13.576,12.347,13.576,21.657v110.028H383.289z"/>
</g>
<path style="fill:#F16051;" d="M171.83,356.04v-81.002l22.885-11.766c20.428,12.994,44.541,20.428,69.236,20.428
	s48.808-6.788,69.236-20.428l22.885,11.766v81.002L171.83,356.04L171.83,356.04z"/>
<g>
	<rect x="215.725" y="309.689" style="fill:#193651;" width="12.347" height="16.679"/>
	<rect x="257.81" y="309.689" style="fill:#193651;" width="12.347" height="16.679"/>
	<rect x="300.412" y="309.689" style="fill:#193651;" width="12.347" height="16.679"/>
</g>
<g>
</g>
<g>
</g>
<g>
</g>
<g>
</g>
<g>
</g>
<g>
</g>
<g>
</g>
<g>
</g>
<g>
</g>
<g>
</g>
<g>
</g>
<g>
</g>
<g>
</g>
<g>
</g>
<g>
</g>
</svg>
