<?xml version="1.0" encoding="iso-8859-1"?>
<!-- Generator: Adobe Illustrator 19.0.0, SVG Export Plug-In . SVG Version: 6.00 Build 0)  -->
<svg version="1.1" id="Layer_1" xmlns="http://www.w3.org/2000/svg" xmlns:xlink="http://www.w3.org/1999/xlink" x="0px" y="0px"
	 viewBox="0 0 395.636 395.636" style="enable-background:new 0 0 395.636 395.636;" xml:space="preserve">
<rect id="SVGCleanerId_0" x="64.259" y="76.315" style="fill:#E1E6E9;" width="266.408" height="221.285"/>
<rect id="SVGCleanerId_1" x="6.206" y="6.497" style="fill:#2EA2DB;" width="383.289" height="38.917"/>
<g>
	<circle style="fill:#FFFFFF;" cx="197.818" cy="374.271" r="15.451"/>
	<path style="fill:#FFFFFF;" d="M89.018,186.99L89.018,186.99L89.018,186.99c59.992,79.774,157.026,79.774,216.954,0l0,0l0,0
		C246.626,106.634,149.01,106.634,89.018,186.99z"/>
</g>
<path id="SVGCleanerId_2" style="fill:#F16051;" d="M259.038,186.99c0-27.216-17.907-50.101-42.02-58.117
	c-12.994-1.875-25.988-1.875-38.335,0c-24.76,8.016-42.02,30.901-42.02,58.117s17.907,50.101,42.02,58.117
	c12.994,1.875,25.988,1.875,38.335,0C241.713,237.026,259.038,214.206,259.038,186.99z"/>
<polygon style="fill:#FFFFFF;" points="181.721,151.758 181.721,222.222 235.507,186.99 "/>
<g>
	<rect id="SVGCleanerId_0_1_" x="64.259" y="76.315" style="fill:#E1E6E9;" width="266.408" height="221.285"/>
</g>
<g>
	<rect id="SVGCleanerId_1_1_" x="6.206" y="6.497" style="fill:#2EA2DB;" width="383.289" height="38.917"/>
</g>
<g>
	<rect x="300.412" y="94.869" style="fill:#193651;" width="12.347" height="12.347"/>
	<rect x="300.412" y="266.117" style="fill:#193651;" width="12.347" height="12.347"/>
	<rect x="82.812" y="94.869" style="fill:#193651;" width="12.347" height="12.347"/>
	<rect x="82.812" y="266.117" style="fill:#193651;" width="12.347" height="12.347"/>
</g>
<circle style="fill:#FFFFFF;" cx="197.818" cy="374.271" r="15.451"/>
<path style="fill:#193651;" d="M0,0.291V51.62h27.216v282.505h164.461v19.135c-8.663,2.457-15.451,11.119-15.451,20.428
	c0,11.766,9.891,21.657,21.657,21.657c11.766,0,21.657-9.891,21.657-21.657c0-9.891-6.788-17.907-15.451-20.428v-19.135h164.461
	V51.62h27.087V0.291H0z M207.063,374.271c0,4.913-4.331,9.244-9.244,9.244s-9.244-4.331-9.244-9.244s4.331-9.244,9.244-9.244
	S207.063,369.358,207.063,374.271z M356.073,321.778H39.564V51.62h315.863v270.158H356.073z M383.289,39.208H12.347v-26.57h370.941
	L383.289,39.208L383.289,39.208z"/>
<g>
	<path id="SVGCleanerId_2_1_" style="fill:#F16051;" d="M259.038,186.99c0-27.216-17.907-50.101-42.02-58.117
		c-12.994-1.875-25.988-1.875-38.335,0c-24.76,8.016-42.02,30.901-42.02,58.117s17.907,50.101,42.02,58.117
		c12.994,1.875,25.988,1.875,38.335,0C241.713,237.026,259.038,214.206,259.038,186.99z"/>
</g>
<path style="fill:#193651;" d="M311.596,183.305c-30.319-40.792-70.465-62.448-113.778-62.448s-83.459,22.238-113.713,62.448
	l-3.103,3.685l3.103,3.685c30.319,40.21,70.465,62.448,113.713,62.448s83.459-22.238,113.778-62.448l3.103-3.685L311.596,183.305z
	 M215.725,238.901c-11.766,1.875-23.467,1.875-35.232,0c-22.238-7.434-37.689-28.444-37.689-52.558
	c0-23.467,14.804-44.541,37.689-52.558c11.766-1.875,23.467-1.875,35.232,0c22.238,7.434,37.689,28.444,37.689,52.558
	C252.832,210.457,238.028,231.467,215.725,238.901z M97.034,186.99c13.576-17.325,29.026-30.319,45.77-39.564
	c-8.016,11.119-12.994,24.76-12.994,39.564c0,14.869,4.913,28.444,12.994,39.564C126.125,217.244,110.675,203.669,97.034,186.99z
	 M252.832,226.554c8.016-11.119,12.994-24.76,12.994-39.564c0-14.804-4.913-28.444-12.994-39.564
	c16.679,9.244,32.129,22.238,45.77,39.564C284.962,203.669,269.511,217.244,252.832,226.554z"/>
<polygon style="fill:#FFFFFF;" points="181.721,151.758 181.721,222.222 235.507,186.99 "/>
<g>
</g>
<g>
</g>
<g>
</g>
<g>
</g>
<g>
</g>
<g>
</g>
<g>
</g>
<g>
</g>
<g>
</g>
<g>
</g>
<g>
</g>
<g>
</g>
<g>
</g>
<g>
</g>
<g>
</g>
</svg>
