<?xml version="1.0" encoding="iso-8859-1"?>
<!-- Generator: Adobe Illustrator 19.0.0, SVG Export Plug-In . SVG Version: 6.00 Build 0)  -->
<svg version="1.1" id="Layer_1" xmlns="http://www.w3.org/2000/svg" xmlns:xlink="http://www.w3.org/1999/xlink" x="0px" y="0px"
	 viewBox="0 0 395.649 395.649" style="enable-background:new 0 0 395.649 395.649;" xml:space="preserve">
<polygon style="fill:#FFFFFF;" points="94.556,6.206 6.766,93.931 6.766,389.43 296.705,389.43 296.705,6.206 "/>
<g>
	<rect x="39.542" y="226.844" style="fill:#193651;" width="225.034" height="12.347"/>
	<rect x="39.542" y="183.596" style="fill:#193651;" width="225.034" height="12.347"/>
	<rect x="39.542" y="139.701" style="fill:#193651;" width="181.139" height="12.347"/>
	<rect x="197.15" y="276.299" style="fill:#193651;" width="12.347" height="11.766"/>
	<rect x="171.226" y="276.299" style="fill:#193651;" width="12.347" height="11.766"/>
	<rect x="145.885" y="276.299" style="fill:#193651;" width="12.347" height="11.766"/>
	<rect x="119.897" y="276.299" style="fill:#193651;" width="12.347" height="11.766"/>
	<rect x="94.556" y="276.299" style="fill:#193651;" width="12.347" height="11.766"/>
</g>
<path style="fill:#D3D7DA;" d="M375.186,116.816L229.538,328.404c2.844-0.905,5.883-1.358,9.051-1.358
	c14.028,0,26.117,9.438,30.319,22.174l118.691-172.412C401.174,157.026,395.614,129.81,375.186,116.816z"/>
<path style="fill:#E1E6E9;" d="M353.206,323.879c3.168,0,6.271,0.517,9.18,1.358l-143.515-208.42
	c-20.428,12.994-25.988,40.21-12.347,59.992l116.493,169.18C327.089,333.253,339.243,323.879,353.206,323.879z"/>
<g>
	<path style="fill:#F16051;" d="M387.598,333.834c-12.347-18.554-37.689-22.885-56.242-11.119
		c-18.554,12.347-23.467,36.461-11.119,55.014c12.347,18.554,37.689,23.467,56.242,11.119
		C394.968,376.501,399.946,351.741,387.598,333.834z M366.329,374.109c-10.214,6.853-24.242,4.073-31.03-6.141
		s-4.073-23.531,6.141-30.384c10.214-6.465,24.242-4.073,31.03,6.141C379.323,353.616,376.608,367.257,366.329,374.109z"/>
	<path style="fill:#F16051;" d="M262.119,322.715c-18.554-11.766-43.895-7.434-56.242,11.119
		c-12.347,17.907-7.434,42.667,11.119,55.014c18.554,12.347,43.895,7.434,56.242-11.119
		C285.586,359.758,280.608,335.063,262.119,322.715z M257.723,367.709c-6.659,10.02-20.364,12.671-30.384,6.012
		s-12.671-20.04-6.012-29.737c6.659-10.02,20.364-12.347,30.384-6.012C261.731,344.63,264.447,358.012,257.723,367.709z"/>
</g>
<path style="fill:#193651;" d="M294.83,275.717L294.83,275.717c-4.331,0-8.663-3.685-8.663-8.663l0,0
	c0-4.331,3.685-8.663,8.663-8.663l0,0c4.331,0,8.663,3.685,8.663,8.663l0,0C302.911,272.032,299.162,275.717,294.83,275.717z"/>
<path style="fill:#2EA2DB;" d="M94.556,93.931V9.244c0-1.228-1.228-1.875-1.875-0.646L9.222,92.121
	c-0.646,0.646,0,1.875,0.646,1.875h84.687V93.931z"/>
<path style="fill:#193651;" d="M92.099,0L0.624,91.475v304.162h150.82v-12.347H12.972V100.137h87.79v-87.79h189.802v158.901h12.348
	V0H92.099z M88.35,87.79H22.216L88.35,21.01C88.35,21.01,88.35,87.79,88.35,87.79z"/>
<g>
</g>
<g>
</g>
<g>
</g>
<g>
</g>
<g>
</g>
<g>
</g>
<g>
</g>
<g>
</g>
<g>
</g>
<g>
</g>
<g>
</g>
<g>
</g>
<g>
</g>
<g>
</g>
<g>
</g>
</svg>
