<?xml version="1.0" encoding="iso-8859-1"?>
<!-- Generator: Adobe Illustrator 19.0.0, SVG Export Plug-In . SVG Version: 6.00 Build 0)  -->
<svg version="1.1" id="Layer_1" xmlns="http://www.w3.org/2000/svg" xmlns:xlink="http://www.w3.org/1999/xlink" x="0px" y="0px"
	 viewBox="0 0 397.511 397.511" style="enable-background:new 0 0 397.511 397.511;" xml:space="preserve">
<circle style="fill:#D3D7DA;" cx="199.402" cy="198.4" r="197.818"/>
<polygon style="fill:#FFFFFF;" points="154.214,362.279 35.523,243.588 215.434,63.677 334.125,182.368 "/>
<path style="fill:#193651;" d="M154.214,368.42c-1.875,0-3.103-0.646-4.331-1.875L31.257,247.855
	c-1.228-1.228-1.875-2.457-1.875-4.331c0-1.875,0.646-3.103,1.875-4.331L211.168,59.281c2.457-2.457,6.206-2.457,8.663,0
	l118.691,118.691c1.228,1.228,1.875,2.457,1.875,4.331s-0.646,3.103-1.875,4.331L158.545,366.545
	C157.317,367.838,156.089,368.42,154.214,368.42z M44.186,243.588l110.028,110.028l171.248-171.248L215.434,72.339L44.186,243.588z"
	/>
<g>
	
		<rect x="18.047" y="145.419" transform="matrix(-0.7071 0.7071 -0.7071 -0.7071 370.533 193.2765)" style="fill:#2EA2DB;" width="254.381" height="55.919"/>
	
		<rect x="97.173" y="224.546" transform="matrix(-0.7071 0.7071 -0.7071 -0.7071 561.561 272.4046)" style="fill:#2EA2DB;" width="254.381" height="55.919"/>
</g>
<g>
	<polygon style="fill:#FFFFFF;" points="154.214,362.279 35.523,243.588 20.073,325.172 72.63,377.729 	"/>
	<polygon style="fill:#FFFFFF;" points="20.073,325.172 7.725,390.077 72.63,377.729 	"/>
	<path style="fill:#FFFFFF;" d="M381.705,88.372L309.43,16.097c-12.994-12.994-34.004-12.994-46.998,0l-46.998,46.998
		l118.691,118.691l46.998-46.998C394.699,122.376,394.699,101.366,381.705,88.372z"/>
</g>
<g>
	<path style="fill:#193651;" d="M386.036,84.04l-72.275-72.275C306.327,4.331,296.436,0,285.964,0
		c-10.537,0-20.428,4.331-27.798,11.766L31.257,239.257c-0.646,0.646-0.646,1.228-1.228,1.875c0,0,0,0,0,0.646v0.646L0.291,397.511
		l156.444-29.673h0.646c0.646,0,1.228-0.646,1.875-1.228l226.844-226.844C400.905,124.25,400.905,99.491,386.036,84.04z
		 M15.806,381.996l8.663-44.541l35.879,35.879L15.806,381.996z M74.505,370.877l-47.58-47.58l12.929-67.362l102.012,102.012
		L74.505,370.877z M154.214,353.616L44.186,243.588L215.434,72.339l110.028,110.028L154.214,353.616z M377.438,130.457
		l-42.667,42.667L224.097,63.677l42.667-42.667c4.913-4.913,11.766-8.016,19.135-8.016c7.37,0,14.222,3.103,19.135,8.016
		l71.693,71.693C387.911,103.24,387.911,119.919,377.438,130.457z"/>
	
		<rect x="277.275" y="51.372" transform="matrix(0.7071 0.7071 -0.7071 0.7071 125.9052 -182.6648)" style="fill:#193651;" width="12.347" height="18.553"/>
	
		<rect x="300.625" y="81.347" transform="matrix(-0.7071 0.7071 -0.7071 -0.7071 590.9224 -69.7273)" style="fill:#193651;" width="18.553" height="12.347"/>
	
		<rect x="328.046" y="108.217" transform="matrix(-0.7071 0.7071 -0.7071 -0.7071 656.7323 -43.247)" style="fill:#193651;" width="18.553" height="12.347"/>
</g>
<g>
</g>
<g>
</g>
<g>
</g>
<g>
</g>
<g>
</g>
<g>
</g>
<g>
</g>
<g>
</g>
<g>
</g>
<g>
</g>
<g>
</g>
<g>
</g>
<g>
</g>
<g>
</g>
<g>
</g>
</svg>
