<?xml version="1.0" encoding="iso-8859-1"?>
<!-- Generator: Adobe Illustrator 19.0.0, SVG Export Plug-In . SVG Version: 6.00 Build 0)  -->
<svg version="1.1" id="Layer_1" xmlns="http://www.w3.org/2000/svg" xmlns:xlink="http://www.w3.org/1999/xlink" x="0px" y="0px"
	 viewBox="0 0 395.636 395.636" style="enable-background:new 0 0 395.636 395.636;" xml:space="preserve">
<circle style="fill:#2EA2DB;" cx="197.818" cy="197.818" r="197.818"/>
<g>
	<polygon style="fill:#FFFFFF;" points="213.269,210.812 220.315,240.743 197.818,284.962 176.226,242.554 183.596,212.687 
		173.123,192.84 197.818,165.042 222.578,192.84 	"/>
	<circle style="fill:#FFFFFF;" cx="197.818" cy="72.339" r="66.133"/>
</g>
<path style="fill:#193651;" d="M197.818,144.679c-39.564,0-72.339-32.129-72.339-72.339S158.255,0,197.818,0
	s72.339,32.129,72.339,72.339S237.382,144.679,197.818,144.679z M197.818,12.347c-32.776,0-59.992,26.57-59.992,59.992
	c0,32.776,26.57,59.992,59.992,59.992s59.992-26.57,59.992-59.992S230.594,12.347,197.818,12.347z"/>
<path style="fill:#D3D7DA;" d="M250.958,180.493l-53.139,104.469l-53.139-104.469l0,0c-50.683,0-92.121,41.438-92.121,92.121
	v110.675c0,3.685,3.103,6.206,6.206,6.206h278.174c3.685,0,6.206-3.103,6.206-6.206V273.261
	C343.079,221.931,301.64,180.493,250.958,180.493L250.958,180.493z"/>
<g>
	<path style="fill:#193651;" d="M336.937,395.636H58.699c-6.788,0-12.347-5.56-12.347-12.347V273.261
		c0-54.432,43.895-98.263,98.263-98.263h3.685l49.519,96.388l48.808-97.034h3.685c54.368,0,98.263,43.895,98.263,98.263v110.675
		C349.285,390.077,343.725,395.636,336.937,395.636z M140.929,187.281c-45.77,1.875-82.23,39.564-82.23,85.915v110.028h278.174l0,0
		V273.261c0-46.352-36.461-84.105-82.23-85.915l-56.889,111.257L140.929,187.281z"/>
	<rect x="158.901" y="343.079" style="fill:#193651;" width="12.347" height="12.347"/>
	<rect x="191.612" y="343.079" style="fill:#193651;" width="12.347" height="12.347"/>
	<rect x="224.388" y="343.079" style="fill:#193651;" width="12.347" height="12.347"/>
</g>
<g>
</g>
<g>
</g>
<g>
</g>
<g>
</g>
<g>
</g>
<g>
</g>
<g>
</g>
<g>
</g>
<g>
</g>
<g>
</g>
<g>
</g>
<g>
</g>
<g>
</g>
<g>
</g>
<g>
</g>
</svg>
