<?xml version="1.0" encoding="iso-8859-1"?>
<!-- Generator: Adobe Illustrator 19.0.0, SVG Export Plug-In . SVG Version: 6.00 Build 0)  -->
<svg version="1.1" id="Layer_1" xmlns="http://www.w3.org/2000/svg" xmlns:xlink="http://www.w3.org/1999/xlink" x="0px" y="0px"
	 viewBox="0 0 395.701 395.701" style="enable-background:new 0 0 395.701 395.701;" xml:space="preserve">
<g>
	<path style="fill:#FFFFFF;" d="M363.539,50.101v326.982c0,10.537-8.016,18.554-18.554,18.554H50.715
		c-10.537,0-18.554-8.016-18.554-18.554V50.101c0-10.537,8.016-18.554,18.554-18.554h25.988l25.341-28.444
		C103.273,1.228,105.147,0,107.604,0h180.493c1.875,0,3.685,1.228,5.56,3.103l25.341,28.444h25.988
		C355.459,31.547,363.539,39.564,363.539,50.101z"/>
	<path style="fill:#FFFFFF;" d="M50.715,389.172c-6.917,0-12.089-5.172-12.089-12.089V50.101c0-6.917,5.172-12.089,12.089-12.089
		h28.832l27.604-30.966l0.259-0.388c0.065-0.129,0.129-0.194,0.194-0.194h180.105c0.194,0.129,0.646,0.453,1.293,1.099
		l27.152,30.448h28.897c6.853,0,12.089,5.172,12.089,12.089v326.982c0,6.917-5.172,12.089-12.089,12.089H50.715z"/>
</g>
<g>
	<polygon style="fill:#E1E6E9;" points="160.614,136.145 44.509,252.251 44.509,208.937 140.057,113.455 	"/>
	<polygon style="fill:#E1E6E9;" points="73.6,383.289 191.063,265.568 191.063,308.881 116.848,383.289 	"/>
	<polygon style="fill:#E1E6E9;" points="351.192,105.115 351.192,148.364 204.057,295.887 204.057,252.574 	"/>
</g>
<g>
	<polygon style="fill:#F16051;" points="112.517,82.877 44.509,150.82 44.509,106.99 91.895,60.057 	"/>
	<polygon style="fill:#F16051;" points="44.509,310.303 191.063,163.814 191.063,207.063 44.509,353.616 	"/>
	<path style="fill:#F16051;" d="M350.675,47.451L204.057,194.133v-43.248l14.352-14.352l7.887,8.792L318.416,43.96h26.57
		C347.701,43.895,349.77,45.253,350.675,47.451z"/>
	<polygon style="fill:#F16051;" points="174.966,383.289 191.063,367.127 191.063,383.289 	"/>
	<polygon style="fill:#F16051;" points="351.192,206.481 351.192,249.794 218.214,383.289 204.057,383.289 204.057,354.133 	"/>
</g>
<polygon style="fill:#E1E6E9;" points="351.192,307.911 351.192,351.741 319.644,383.289 276.331,383.289 "/>
<g>
	<rect x="160.743" y="163.232" style="fill:#193651;" width="12.347" height="12.347"/>
	<rect x="160.743" y="247.919" style="fill:#193651;" width="12.347" height="12.347"/>
	<rect x="160.743" y="332.606" style="fill:#193651;" width="12.347" height="12.347"/>
	<path style="fill:#193651;" d="M344.986,31.547h-25.988L293.657,3.103C291.782,1.228,289.972,0,288.097,0H107.604
		c-2.457,0-4.331,1.228-5.56,3.103L76.703,31.547H50.715c-10.537,0-18.554,8.016-18.554,18.554v327.046
		c0,10.537,8.016,18.554,18.554,18.554h294.271c10.537,0,18.554-8.016,18.554-18.554V50.101
		C363.539,39.564,355.459,31.547,344.986,31.547z M306.004,35.879c0,0.646,0,1.875,0,2.457l-79.709,88.372l-19.782-21.657
		l81.002-89.665L306.004,35.879z M272.646,12.347L197.85,95.224l-74.796-82.877H272.646z M89.697,35.232l17.907-19.782
		l81.584,89.665l-19.782,21.592l-79.709-87.79C89.697,37.689,89.697,36.461,89.697,35.232z M44.509,377.083V50.101
		c0-3.685,2.457-6.206,6.206-6.206h26.57l91.475,101.366l22.238-24.76v262.723H50.715C47.03,383.289,44.509,380.768,44.509,377.083z
		 M351.127,377.083c0,3.685-2.457,6.206-6.206,6.206H203.992V120.566l22.238,24.76L318.352,43.96h26.57
		c3.685,0,6.206,2.457,6.206,6.206V377.083z"/>
</g>
<g>
</g>
<g>
</g>
<g>
</g>
<g>
</g>
<g>
</g>
<g>
</g>
<g>
</g>
<g>
</g>
<g>
</g>
<g>
</g>
<g>
</g>
<g>
</g>
<g>
</g>
<g>
</g>
<g>
</g>
</svg>
