<?xml version="1.0" encoding="iso-8859-1"?>
<!-- Generator: Adobe Illustrator 19.0.0, SVG Export Plug-In . SVG Version: 6.00 Build 0)  -->
<svg version="1.1" id="Layer_1" xmlns="http://www.w3.org/2000/svg" xmlns:xlink="http://www.w3.org/1999/xlink" x="0px" y="0px"
	 viewBox="0 0 395.636 395.636" style="enable-background:new 0 0 395.636 395.636;" xml:space="preserve">
<g>
	<path style="fill:#FFFFFF;" d="M32.776,389.43L32.776,389.43c-14.869,0-26.57-11.766-26.57-26.57V68.008h52.558v294.853
		C58.699,377.729,46.998,389.43,32.776,389.43z"/>
	<path style="fill:#FFFFFF;" d="M325.172,6.206H58.699v61.802v288.711v6.206c0,14.869-11.766,26.57-26.57,26.57h332.606
		c13.576,0,24.76-11.119,24.76-24.76V70.465L325.172,6.206z"/>
</g>
<path style="fill:#193651;" d="M327.628,0H52.558v61.802H0v301.059c0,17.907,14.869,32.776,32.776,32.776h331.96
	c17.325,0,30.901-13.576,30.901-30.901V68.008L327.628,0z M52.558,362.861c0,11.119-9.244,20.428-20.428,20.428
	c-10.537,0-19.782-9.244-19.782-20.428V74.214h40.21V362.861z M383.289,364.735c0,10.537-8.016,18.554-18.554,18.554H58.117
	c0,0,7.434-9.891,6.788-20.428V12.347h257.81l60.574,60.574L383.289,364.735L383.289,364.735z"/>
<path style="fill:#E1E6E9;" d="M83.459,364.735c0-0.646,0-8.016,0-8.016V30.901h231.176l50.101,50.101v283.733H83.459z"/>
<polygon style="fill:#2EA2DB;" points="314.634,81.002 364.735,81.002 314.634,30.901 "/>
<g>
	<rect x="119.337" y="48.808" style="fill:#193651;" width="171.83" height="12.347"/>
	<rect x="119.337" y="80.356" style="fill:#193651;" width="171.83" height="12.347"/>
	<rect x="183.596" y="124.251" style="fill:#193651;" width="12.347" height="41.438"/>
	<rect x="215.725" y="124.251" style="fill:#193651;" width="12.347" height="41.438"/>
	<rect x="151.467" y="124.251" style="fill:#193651;" width="12.347" height="41.438"/>
	<rect x="119.337" y="124.251" style="fill:#193651;" width="12.347" height="41.438"/>
	<rect x="297.374" y="262.723" style="fill:#193651;" width="12.347" height="12.347"/>
	<rect x="329.503" y="262.723" style="fill:#193651;" width="12.347" height="12.347"/>
	<rect x="265.18" y="262.723" style="fill:#193651;" width="12.347" height="12.347"/>
	<rect x="233.051" y="262.723" style="fill:#193651;" width="12.347" height="12.347"/>
	<rect x="297.374" y="233.697" style="fill:#193651;" width="12.347" height="12.347"/>
	<rect x="329.503" y="233.697" style="fill:#193651;" width="12.347" height="12.347"/>
	<rect x="265.18" y="233.697" style="fill:#193651;" width="12.347" height="12.347"/>
	<rect x="233.051" y="233.697" style="fill:#193651;" width="12.347" height="12.347"/>
	<rect x="119.337" y="195.362" style="fill:#193651;" width="222.578" height="12.347"/>
	<rect x="119.337" y="297.374" style="fill:#193651;" width="222.578" height="12.347"/>
	<rect x="118.691" y="334.416" style="fill:#193651;" width="222.578" height="12.347"/>
</g>
<rect x="260.848" y="124.251" style="fill:#FFFFFF;" width="74.796" height="41.438"/>
<path style="fill:#193651;" d="M341.85,171.83h-87.143v-53.786h87.143V171.83L341.85,171.83z M267.055,159.483h62.449v-29.026
	h-62.449V159.483z"/>
<rect x="125.479" y="233.697" style="fill:#FFFFFF;" width="74.796" height="41.438"/>
<path style="fill:#193651;" d="M206.481,281.277h-87.143v-53.786h87.143L206.481,281.277L206.481,281.277z M131.685,268.929h62.448
	v-29.091h-62.449C131.685,239.838,131.685,268.929,131.685,268.929z"/>
<g>
</g>
<g>
</g>
<g>
</g>
<g>
</g>
<g>
</g>
<g>
</g>
<g>
</g>
<g>
</g>
<g>
</g>
<g>
</g>
<g>
</g>
<g>
</g>
<g>
</g>
<g>
</g>
<g>
</g>
</svg>
