<?xml version="1.0" encoding="iso-8859-1"?>
<!-- Generator: Adobe Illustrator 19.0.0, SVG Export Plug-In . SVG Version: 6.00 Build 0)  -->
<svg version="1.1" id="Layer_1" xmlns="http://www.w3.org/2000/svg" xmlns:xlink="http://www.w3.org/1999/xlink" x="0px" y="0px"
	 viewBox="0 0 395.636 395.636" style="enable-background:new 0 0 395.636 395.636;" xml:space="preserve">
<polygon style="fill:#FFFFFF;" points="389.43,6.206 54.432,6.206 54.432,179.265 6.206,179.265 6.206,389.43 341.269,389.43 
	341.269,216.372 389.43,216.372 "/>
<path style="fill:#4FBF9F;" d="M364.735,61.802v98.909c-12.865,0-23.725,7.564-28.444,18.554H107.507
	c-4.719-10.99-15.515-18.554-28.38-18.554V61.802c17.325,0,30.901-13.576,30.901-30.901h223.806
	C333.834,48.226,347.41,61.802,364.735,61.802z"/>
<g>
	<circle style="fill:#FFFFFF;" cx="221.931" cy="111.257" r="37.107"/>
	<circle style="fill:#FFFFFF;" cx="323.297" cy="111.257" r="14.222"/>
	<circle style="fill:#FFFFFF;" cx="120.566" cy="111.257" r="14.222"/>
</g>
<path style="fill:#193651;" d="M48.226,0v173.123H0v222.513h347.41V222.578h48.226V0H48.226z M335.063,383.289H12.347V185.471
	h322.715V383.289z M383.289,210.166H347.41v-37.107H60.574V12.347h322.715V210.166z"/>
<rect x="12.347" y="323.297" style="fill:#2EA2DB;" width="322.715" height="34.004"/>
<g>
	<rect x="118.691" y="226.263" style="fill:#193651;" width="12.994" height="12.347"/>
	<rect x="96.453" y="226.263" style="fill:#193651;" width="12.994" height="12.347"/>
	<rect x="74.214" y="226.263" style="fill:#193651;" width="12.994" height="12.347"/>
	<rect x="51.911" y="226.263" style="fill:#193651;" width="12.994" height="12.347"/>
</g>
<rect x="241.067" y="210.812" style="fill:#FFFFFF;" width="69.236" height="51.911"/>
<path style="fill:#193651;" d="M317.156,268.929h-82.23v-64.323h81.584v64.323H317.156z M247.273,256.517h56.889v-39.564h-56.889
	V256.517z"/>
<g>
</g>
<g>
</g>
<g>
</g>
<g>
</g>
<g>
</g>
<g>
</g>
<g>
</g>
<g>
</g>
<g>
</g>
<g>
</g>
<g>
</g>
<g>
</g>
<g>
</g>
<g>
</g>
<g>
</g>
</svg>
