<?xml version="1.0" encoding="iso-8859-1"?>
<!-- Generator: Adobe Illustrator 19.0.0, SVG Export Plug-In . SVG Version: 6.00 Build 0)  -->
<svg version="1.1" id="Layer_1" xmlns="http://www.w3.org/2000/svg" xmlns:xlink="http://www.w3.org/1999/xlink" x="0px" y="0px"
	 viewBox="0 0 395.701 395.701" style="enable-background:new 0 0 395.701 395.701;" xml:space="preserve">
<circle style="fill:#4FBF9F;" cx="197.818" cy="178.421" r="173.705"/>
<path style="fill:#FFFFFF;" d="M254.707,133.298c11.119-12.347,17.907-29.026,17.907-47.58c0-42.667-35.232-76.671-78.481-74.796
	c-36.461,1.875-67.362,30.901-70.465,68.008c-1.875,20.428,4.913,39.564,16.679,53.786c16.097,19.135,25.341,43.248,25.341,68.008
	v37.689h-19.135v40.792h102.594v-40.792h-19.135v-35.232C229.947,177.775,238.028,152.433,254.707,133.298z"/>
<path style="fill:#FDBF5E;" d="M352.388,278.558H43.248c-20.428,0-37.107,16.679-37.107,37.107v50.683h21.657
	c0,13.576,11.119,25.341,25.341,25.341h289.293c13.576,0,25.341-11.119,25.341-25.341h21.657v-30.901v-19.782
	C389.43,295.237,372.751,278.558,352.388,278.558z"/>
<g>
	<path style="fill:#193651;" d="M352.388,272.417h-97.099v-40.792H140.347v40.792H43.248C19.782,272.417,0,291.552,0,315.665v50.683
		c0,3.685,2.457,6.206,6.206,6.206h383.289c3.685,0,6.206-2.457,6.206-6.206v-50.683
		C395.636,291.552,376.501,272.417,352.388,272.417z M152.695,244.554h90.246v27.798h-90.246V244.554z M383.289,360.142H12.347
		v-44.541c0-16.679,13.576-30.901,30.901-30.901h309.075c16.679,0,30.901,13.576,30.901,30.901v44.541H383.289z"/>
	<path style="fill:#193651;" d="M159.483,200.659v16.679h12.347v-16.679c0-25.988-9.244-50.683-27.216-72.339
		c-11.119-13.576-16.679-31.547-15.451-49.455c3.103-34.004,30.901-60.574,64.905-61.802c19.135-0.646,37.107,5.56,50.683,18.554
		c13.576,12.994,21.01,30.901,21.01,49.455c0,16.097-5.56,32.129-16.679,44.541c-16.679,19.135-25.988,45.77-25.988,73.568v14.222
		h12.347v-14.222c0-25.341,8.016-48.226,22.885-65.551c12.347-14.869,19.782-33.358,19.782-52.558
		c0-22.238-8.663-43.248-24.76-58.699S216.242,2.906,194.004,4.134c-40.21,2.457-72.921,34.004-76.671,74.149
		c-1.875,21.01,4.331,42.02,17.907,58.699C150.82,156.183,159.483,178.421,159.483,200.659z"/>
	<rect x="158.901" y="316.247" style="fill:#193651;" width="12.347" height="12.347"/>
	<rect x="191.612" y="316.247" style="fill:#193651;" width="12.347" height="12.347"/>
	<rect x="224.388" y="316.247" style="fill:#193651;" width="12.347" height="12.347"/>
</g>
<g>
</g>
<g>
</g>
<g>
</g>
<g>
</g>
<g>
</g>
<g>
</g>
<g>
</g>
<g>
</g>
<g>
</g>
<g>
</g>
<g>
</g>
<g>
</g>
<g>
</g>
<g>
</g>
<g>
</g>
</svg>
