<?xml version="1.0" encoding="iso-8859-1"?>
<!-- Generator: Adobe Illustrator 19.0.0, SVG Export Plug-In . SVG Version: 6.00 Build 0)  -->
<svg version="1.1" id="Layer_1" xmlns="http://www.w3.org/2000/svg" xmlns:xlink="http://www.w3.org/1999/xlink" x="0px" y="0px"
	 viewBox="0 0 394.343 394.343" style="enable-background:new 0 0 394.343 394.343;" xml:space="preserve">
<rect x="6.141" y="19.782" style="fill:#FFFFFF;" width="299.83" height="354.844"/>
<path style="fill:#193651;" d="M312.178,380.768H0V13.576h312.178V380.768z M12.347,368.42H299.83V25.923H12.347V368.42z"/>
<rect x="30.901" y="44.477" style="fill:#FDBF5E;" width="250.376" height="305.39"/>
<polygon style="fill:#FFFFFF;" points="250.182,182.303 61.802,182.303 61.802,237.964 250.182,237.964 250.958,237.964 
	250.958,182.303 "/>
<path style="fill:#193651;" d="M55.596,176.162v68.008h201.503v-68.008H55.596L55.596,176.162z M118.691,231.758H68.008v-43.248
	h50.683V231.758z M181.721,231.758h-50.683v-43.248h50.683V231.758z M244.752,231.758h-50.683v-43.248h50.683V231.758z"/>
<g>
	<rect x="55.596" y="66.133" style="fill:#FFFFFF;" width="69.236" height="12.347"/>
	<rect x="55.596" y="100.719" style="fill:#FFFFFF;" width="200.921" height="12.347"/>
	<rect x="55.596" y="134.723" style="fill:#FFFFFF;" width="200.921" height="12.347"/>
</g>
<g>
	<rect x="109.382" y="315.863" style="fill:#193651;" width="12.347" height="12.347"/>
	<rect x="150.174" y="315.863" style="fill:#193651;" width="12.347" height="12.347"/>
	<rect x="190.966" y="315.863" style="fill:#193651;" width="12.347" height="12.347"/>
</g>
<circle style="fill:#D3D7DA;" cx="317.091" cy="307.846" r="60.574"/>
<polygon style="fill:#193651;" points="319.547,331.313 289.293,294.853 299.184,286.836 320.194,312.76 385.099,242.295 
	394.343,250.311 "/>
<g>
</g>
<g>
</g>
<g>
</g>
<g>
</g>
<g>
</g>
<g>
</g>
<g>
</g>
<g>
</g>
<g>
</g>
<g>
</g>
<g>
</g>
<g>
</g>
<g>
</g>
<g>
</g>
<g>
</g>
</svg>
