<?xml version="1.0" encoding="iso-8859-1"?>
<!-- Generator: Adobe Illustrator 19.0.0, SVG Export Plug-In . SVG Version: 6.00 Build 0)  -->
<svg version="1.1" id="Layer_1" xmlns="http://www.w3.org/2000/svg" xmlns:xlink="http://www.w3.org/1999/xlink" x="0px" y="0px"
	 viewBox="0 0 395.636 395.636" style="enable-background:new 0 0 395.636 395.636;" xml:space="preserve">
<path id="SVGCleanerId_0" style="fill:#D3D7DA;" d="M197.818,181.721c-41.438,0-75.442-34.004-75.442-75.442
	s34.004-75.378,75.442-75.378s75.442,34.004,75.442,75.442S239.257,181.721,197.818,181.721z"/>
<rect id="SVGCleanerId_1" x="47.58" y="223.806" style="fill:#F16051;" width="300.412" height="38.917"/>
<rect id="SVGCleanerId_2" x="242.941" y="305.39" style="fill:#D3D7DA;" width="80.356" height="53.139"/>
<path style="fill:#FFFFFF;" d="M247.143,193.487c30.319-17.196,50.812-49.778,50.812-87.143
	c0-55.337-44.865-100.137-100.137-100.137S97.681,51.071,97.681,106.343c0,37.366,20.493,69.947,50.812,87.143H41.438V389.43
	h312.824V193.487H247.143z"/>
<path style="fill:#193651;" d="M265.826,187.281c23.467-19.782,38.335-48.808,38.335-81.584C304.162,47.58,256.517,0,197.818,0
	S91.475,47.58,91.475,106.343c0,32.776,14.804,61.802,38.335,81.584H35.232v207.709h325.172V187.281H265.826z M103.822,106.343
	c0-51.911,42.02-93.996,93.996-93.996s93.996,42.02,93.996,93.996c0,34.651-19.135,64.905-46.998,81.584h-93.349
	C123.022,171.248,103.822,140.929,103.822,106.343z M348.057,383.289H47.58V199.693h300.412v183.596H348.057z"/>
<g>
	<path id="SVGCleanerId_0_1_" style="fill:#D3D7DA;" d="M197.818,181.721c-41.438,0-75.442-34.004-75.442-75.442
		s34.004-75.378,75.442-75.378s75.442,34.004,75.442,75.442S239.257,181.721,197.818,181.721z"/>
</g>
<g>
	<rect id="SVGCleanerId_1_1_" x="47.58" y="223.806" style="fill:#F16051;" width="300.412" height="38.917"/>
</g>
<g>
	<rect x="78.481" y="346.182" style="fill:#193651;" width="12.347" height="12.347"/>
	<rect x="109.446" y="346.182" style="fill:#193651;" width="12.347" height="12.347"/>
	<rect x="140.347" y="346.182" style="fill:#193651;" width="12.347" height="12.347"/>
</g>
<g>
	<rect id="SVGCleanerId_2_1_" x="242.941" y="305.39" style="fill:#D3D7DA;" width="80.356" height="53.139"/>
</g>
<path style="fill:#193651;" d="M197.818,100.137c-8.016,0-14.222-6.206-14.222-14.222s6.206-14.222,14.222-14.222
	s14.222,6.206,14.222,14.222h12.347c0-12.671-8.598-23.143-20.428-25.859v-5.042h-12.347v5.042
	c-11.766,2.715-20.428,13.188-20.428,25.859c0,14.869,11.766,26.57,26.57,26.57c8.016,0,14.222,6.206,14.222,14.222
	s-6.206,14.222-14.222,14.222c-8.016,0-14.222-6.206-14.222-14.222h-12.347c0,12.671,8.598,23.143,20.428,25.859v4.396h12.347
	v-4.396c11.766-2.715,20.428-13.188,20.428-25.859C224.388,111.903,212.687,100.137,197.818,100.137z"/>
<g>
</g>
<g>
</g>
<g>
</g>
<g>
</g>
<g>
</g>
<g>
</g>
<g>
</g>
<g>
</g>
<g>
</g>
<g>
</g>
<g>
</g>
<g>
</g>
<g>
</g>
<g>
</g>
<g>
</g>
</svg>
