<?xml version="1.0" encoding="iso-8859-1"?>
<!-- Generator: Adobe Illustrator 19.0.0, SVG Export Plug-In . SVG Version: 6.00 Build 0)  -->
<svg version="1.1" id="Layer_1" xmlns="http://www.w3.org/2000/svg" xmlns:xlink="http://www.w3.org/1999/xlink" x="0px" y="0px"
	 viewBox="0 0 395.636 395.636" style="enable-background:new 0 0 395.636 395.636;" xml:space="preserve">
<polygon style="fill:#FFFFFF;" points="337.519,153.341 337.519,341.204 29.026,341.204 29.026,126.125 169.374,126.125 
	169.374,153.341 216.372,153.341 216.372,192.259 281.859,153.341 "/>
<polygon style="fill:#2EA2DB;" points="312.824,153.341 312.824,316.509 53.786,316.509 53.786,150.82 169.374,150.82 
	169.374,153.341 216.372,153.341 216.372,192.259 281.859,153.341 "/>
<path style="fill:#FFFFFF;" d="M6.206,341.269c0,23.467,19.135,48.226,42.667,48.226h268.929c23.467,0,42.667-24.76,42.667-48.226
	H6.206z"/>
<g>
	<rect x="169.374" y="359.176" style="fill:#193651;" width="27.798" height="12.347"/>
	<rect x="134.788" y="359.176" style="fill:#193651;" width="12.347" height="12.347"/>
	<rect x="218.828" y="359.176" style="fill:#193651;" width="12.347" height="12.347"/>
</g>
<polygon style="fill:#E1E6E9;" points="169.374,6.206 169.374,153.277 213.915,153.277 216.372,153.277 216.372,192.259 
	281.859,153.277 389.43,153.277 389.43,6.206 "/>
<path style="fill:#193651;" d="M395.636,159.483V0H163.168v119.919H22.885v215.143H0v6.206c0,25.923,21.01,54.368,48.808,54.368
	h268.929c27.798,0,48.808-28.444,48.808-54.368v-6.206h-22.885v-175.58H395.636z M35.232,132.267h127.935v27.216h46.998v43.895
	l73.568-43.895h47.58v175.58H35.232L35.232,132.267L35.232,132.267z M352.97,347.41c-3.103,17.907-17.325,35.879-35.879,35.879
	H48.808c-18.554,0-32.776-17.907-35.879-35.879H352.97z M280.048,147.135l-57.471,34.586v-34.004H175.58V12.347h207.709v134.788
	H280.048z"/>
<circle style="fill:#FFFFFF;" cx="218.828" cy="74.796" r="15.451"/>
<path style="fill:#193651;" d="M218.828,96.453c-11.766,0-21.657-9.891-21.657-21.657s9.891-21.657,21.657-21.657
	c11.766,0,21.657,9.891,21.657,21.657S230.594,96.453,218.828,96.453z M218.828,64.905c-4.913,0-9.244,4.331-9.244,9.244
	c0,4.913,4.331,9.244,9.244,9.244s9.244-4.331,9.244-9.244C228.073,69.236,223.806,64.905,218.828,64.905z"/>
<circle style="fill:#FFFFFF;" cx="279.402" cy="74.796" r="15.451"/>
<path style="fill:#193651;" d="M279.402,96.453c-11.766,0-21.657-9.891-21.657-21.657s9.891-21.657,21.657-21.657
	c11.766,0,21.657,9.891,21.657,21.657S291.168,96.453,279.402,96.453z M279.402,64.905c-4.913,0-9.244,4.331-9.244,9.244
	c0,4.913,4.331,9.244,9.244,9.244s9.244-4.331,9.244-9.244C288.646,69.236,284.38,64.905,279.402,64.905z"/>
<circle style="fill:#FFFFFF;" cx="339.976" cy="74.796" r="15.451"/>
<path style="fill:#193651;" d="M339.976,96.453c-11.766,0-21.657-9.891-21.657-21.657s9.891-21.657,21.657-21.657
	s21.657,9.891,21.657,21.657S351.741,96.453,339.976,96.453z M339.976,64.905c-4.913,0-9.244,4.331-9.244,9.244
	c0,4.913,4.331,9.244,9.244,9.244s9.244-4.331,9.244-9.244C349.22,69.236,344.954,64.905,339.976,64.905z"/>
<path style="fill:#FFFFFF;" d="M147.717,199.046c-6.206,0-11.766,1.875-16.679,4.913c-4.913-3.103-10.537-4.913-16.679-4.913
	c-16.679,0-30.901,13.576-30.901,30.901c0,34.586,47.58,58.117,47.58,58.117s47.58-24.113,47.58-58.117
	C178.683,212.687,165.042,199.046,147.717,199.046z"/>
<g>
</g>
<g>
</g>
<g>
</g>
<g>
</g>
<g>
</g>
<g>
</g>
<g>
</g>
<g>
</g>
<g>
</g>
<g>
</g>
<g>
</g>
<g>
</g>
<g>
</g>
<g>
</g>
<g>
</g>
</svg>
