<?xml version="1.0" encoding="iso-8859-1"?>
<!-- Generator: Adobe Illustrator 19.0.0, SVG Export Plug-In . SVG Version: 6.00 Build 0)  -->
<svg version="1.1" id="Layer_1" xmlns="http://www.w3.org/2000/svg" xmlns:xlink="http://www.w3.org/1999/xlink" x="0px" y="0px"
	 viewBox="0 0 395.636 395.636" style="enable-background:new 0 0 395.636 395.636;" xml:space="preserve">
<path style="fill:#FFFFFF;stroke:#193651;stroke-width:2;stroke-miterlimit:10;" d="M389.43,315.313
	c-127.935-48.808-255.289,53.786-383.289,4.913c0-79.774,0-160.129,0-239.838C134.077,129.196,261.43,26.602,389.43,75.41
	C389.43,155.184,389.43,235.539,389.43,315.313z"/>
<path id="SVGCleanerId_0" style="fill:#E1E6E9;" d="M30.901,272.065c0-42.667,0-85.915,0-128.582
	c17.325,4.331,30.901-8.663,30.901-25.988c90.893,8.016,181.139-38.335,272.032-30.319c0,17.325,13.576,31.547,30.901,35.879
	c0,42.667,0,85.915,0,128.582c-17.325-4.331-30.901,8.663-30.901,25.988c-90.893-8.016-181.139,38.335-272.032,30.319
	C61.802,291.2,48.226,276.331,30.901,272.065z"/>
<path id="SVGCleanerId_1" style="fill:#FFFFFF;" d="M263.37,185.503c0,35.879-29.026,69.883-65.552,77.899
	c-35.879,8.016-65.551-16.679-65.551-53.139c0-35.879,29.026-69.883,65.551-77.899C233.697,124.283,263.37,149.042,263.37,185.503z"
	/>
<path id="SVGCleanerId_2" style="fill:#FFFFFF;" d="M331.96,182.4c0,6.788-5.56,11.766-12.347,11.766s-12.347-5.56-12.347-12.347
	s5.56-12.347,12.347-12.347C326.4,170.053,331.96,175.612,331.96,182.4z"/>
<path id="SVGCleanerId_3" style="fill:#FFFFFF;" d="M88.372,213.947c0,6.788-5.56,12.347-12.347,12.347
	c-6.788,0-12.347-6.206-12.347-12.994c0-6.788,5.56-11.766,12.347-11.766C82.812,201.535,88.372,207.095,88.372,213.947z"/>
<path style="fill:#FFFFFF;" d="M389.43,315.313c-127.935-48.808-255.289,53.786-383.289,4.913c0-79.774,0-160.129,0-239.838
	C134.077,129.196,261.43,26.602,389.43,75.41C389.43,155.184,389.43,235.539,389.43,315.313z"/>
<path style="fill:#193651;" d="M83.459,340.008c-29.026,0-55.014-4.331-79.774-14.222L0,324.558V71.143l8.663,3.103
	c22.885,8.598,47.58,12.929,75.378,12.929c37.689,0,76.024-8.016,113.131-16.097c37.107-7.434,76.024-15.451,115.006-15.451
	c29.026,0,55.014,4.331,79.774,14.222l3.685,1.228v253.479l-8.663-3.103c-22.885-8.663-47.58-12.994-75.442-12.994
	c-37.689,0-76.024,8.016-113.131,16.097C161.358,331.992,122.376,340.008,83.459,340.008z M12.347,315.895
	c22.238,8.016,45.123,11.766,71.111,11.766c37.689,0,76.024-8.016,113.131-16.097c37.689-8.016,76.671-16.097,115.588-16.097
	c25.988,0,48.808,3.685,71.111,11.119V79.806c-22.238-8.016-45.123-11.766-71.111-11.766c-37.689,0-76.024,8.016-113.131,16.097
	c-37.689,8.016-76.671,16.097-115.588,16.097c-25.988,0-48.808-3.685-71.111-11.119L12.347,315.895L12.347,315.895z"/>
<g>
	<path id="SVGCleanerId_0_1_" style="fill:#E1E6E9;" d="M30.901,272.065c0-42.667,0-85.915,0-128.582
		c17.325,4.331,30.901-8.663,30.901-25.988c90.893,8.016,181.139-38.335,272.032-30.319c0,17.325,13.576,31.547,30.901,35.879
		c0,42.667,0,85.915,0,128.582c-17.325-4.331-30.901,8.663-30.901,25.988c-90.893-8.016-181.139,38.335-272.032,30.319
		C61.802,291.2,48.226,276.331,30.901,272.065z"/>
</g>
<g>
	<path id="SVGCleanerId_1_1_" style="fill:#FFFFFF;" d="M263.37,185.503c0,35.879-29.026,69.883-65.552,77.899
		c-35.879,8.016-65.551-16.679-65.551-53.139c0-35.879,29.026-69.883,65.551-77.899C233.697,124.283,263.37,149.042,263.37,185.503z
		"/>
</g>
<g>
	<path id="SVGCleanerId_2_1_" style="fill:#FFFFFF;" d="M331.96,182.4c0,6.788-5.56,11.766-12.347,11.766
		s-12.347-5.56-12.347-12.347s5.56-12.347,12.347-12.347C326.4,170.053,331.96,175.612,331.96,182.4z"/>
</g>
<g>
	<path id="SVGCleanerId_3_1_" style="fill:#FFFFFF;" d="M88.372,213.947c0,6.788-5.56,12.347-12.347,12.347
		c-6.788,0-12.347-6.206-12.347-12.994c0-6.788,5.56-11.766,12.347-11.766C82.812,201.535,88.372,207.095,88.372,213.947z"/>
</g>
<path style="fill:#193651;" d="M196.59,192.291c-3.103,0.646-5.56,0-7.434-1.228c-1.875-1.228-2.457-3.685-2.457-6.206
	c0-6.788,5.56-13.576,12.347-14.804c3.103-0.646,5.56,0,7.434,1.228c1.875,1.228,2.457,3.685,2.457,6.206h12.347
	c0-6.206-2.457-12.347-7.434-16.097c-3.103-2.457-6.206-3.685-9.891-4.331v-6.206h-12.347v8.016
	c-9.891,4.331-17.325,14.869-17.325,25.341c0,6.206,2.457,12.347,7.434,16.097c4.978,3.749,11.119,4.913,17.325,3.685
	c3.103-0.646,5.56,0,7.434,1.228c1.875,1.228,2.457,3.685,2.457,6.206c0,6.788-5.56,13.576-12.347,14.869
	c-3.103,0.646-5.56,0-7.434-1.228c-1.875-1.228-2.457-3.685-2.457-6.206h-12.347c0,6.788,2.457,12.347,7.434,16.097
	c3.103,2.457,6.206,3.685,9.891,4.331v4.913h12.347v-6.788c9.891-4.331,17.325-14.869,17.325-25.341
	c0-6.206-2.457-12.347-7.434-16.097C209.584,192.291,202.731,191.063,196.59,192.291z"/>
<g>
</g>
<g>
</g>
<g>
</g>
<g>
</g>
<g>
</g>
<g>
</g>
<g>
</g>
<g>
</g>
<g>
</g>
<g>
</g>
<g>
</g>
<g>
</g>
<g>
</g>
<g>
</g>
<g>
</g>
</svg>
