<?xml version="1.0" encoding="iso-8859-1"?>
<!-- Generator: Adobe Illustrator 19.0.0, SVG Export Plug-In . SVG Version: 6.00 Build 0)  -->
<svg version="1.1" id="Layer_1" xmlns="http://www.w3.org/2000/svg" xmlns:xlink="http://www.w3.org/1999/xlink" x="0px" y="0px"
	 viewBox="0 0 398.804 398.804" style="enable-background:new 0 0 398.804 398.804;" xml:space="preserve">
<rect x="79.774" y="57.212" style="fill:#FFFFFF;" width="241.067" height="270.158"/>
<rect x="104.533" y="81.907" style="fill:#2EA2DB;" width="191.612" height="220.703"/>
<g>
	<path style="fill:#E1E6E9;" d="M320.905,57.212V26.311c0-10.537-8.016-18.554-18.554-18.554H98.327
		c-10.537,0-18.554,8.016-18.554,18.554v30.901H320.905z"/>
	<path style="fill:#E1E6E9;" d="M79.774,327.305v45.123c0,10.537,8.016,18.554,18.554,18.554h204.024
		c10.537,0,18.554-8.016,18.554-18.554v-45.123H79.774z"/>
</g>
<g>
	<circle style="fill:#FFFFFF;" cx="373.463" cy="118.368" r="18.554"/>
	<circle style="fill:#FFFFFF;" cx="27.281" cy="260.59" r="18.554"/>
	<rect x="354.909" y="242.036" style="fill:#FFFFFF;" width="37.107" height="37.107"/>
</g>
<g>
	<rect x="194.198" y="267.96" style="fill:#193651;" width="12.347" height="12.347"/>
	<rect x="194.198" y="118.368" style="fill:#193651;" width="12.347" height="12.347"/>
	<rect x="119.337" y="193.164" style="fill:#193651;" width="12.347" height="12.347"/>
	<rect x="268.994" y="193.164" style="fill:#193651;" width="12.347" height="12.347"/>
	<rect x="181.786" y="26.311" style="fill:#193651;" width="37.107" height="12.347"/>
	<rect x="170.667" y="353.293" style="fill:#193651;" width="58.699" height="12.347"/>
	<path style="fill:#193651;" d="M348.703,255.612h-21.657V124.574h22.885c2.457,10.537,12.347,18.554,24.113,18.554
		c13.576,0,24.76-11.119,24.76-24.76c0-13.576-11.119-24.76-24.76-24.76c-11.766,0-21.01,8.016-24.113,18.554h-22.885V26.311
		c0-13.576-11.119-24.76-24.76-24.76H98.327c-13.576,0-24.76,11.119-24.76,24.76v85.915H23.531l15.451-15.451l-8.663-8.663
		L0,118.432l30.319,30.319l8.663-8.663l-15.451-15.451h50.101v130.974H51.394c-2.457-11.119-12.347-19.782-24.113-19.782
		c-13.576,0-24.76,11.119-24.76,24.76c0,13.576,11.119,24.76,24.76,24.76c11.119,0,20.428-7.434,23.467-17.325h22.885v104.469
		c0,13.576,11.119,24.76,24.76,24.76h204.024c13.576,0,24.76-11.119,24.76-24.76V267.96h21.657v17.325h49.455V235.83h-49.455v19.782
		H348.703z M373.463,106.02c6.788,0,12.347,5.56,12.347,12.347c0,6.788-5.56,12.347-12.347,12.347
		c-6.788,0-12.347-5.56-12.347-12.347C361.051,111.58,366.61,106.02,373.463,106.02z M27.281,272.937
		c-6.788,0-12.347-5.56-12.347-12.347s5.56-12.347,12.347-12.347s12.347,5.56,12.347,12.347S34.069,272.937,27.281,272.937z
		 M314.699,372.493c0,6.788-5.56,12.347-12.347,12.347H98.327c-6.788,0-12.347-5.56-12.347-12.347v-38.917h228.719V372.493z
		 M314.699,321.164H85.98v-53.786h43.248l71.111-71.111l71.111,71.111h43.248V321.164z M86.626,255.612V124.574H128l63.03,63.03
		l-66.715,68.008H86.626z M209.002,187.604l63.03-63.03h42.02v131.038h-37.107L209.002,187.604z M314.699,112.226h-47.58
		l-66.78,66.715l-66.78-66.715H85.98V63.418h228.719V112.226z M314.699,51.006H85.98v-24.76c0-6.788,5.56-12.347,12.347-12.347
		h204.024c6.788,0,12.347,5.56,12.347,12.347L314.699,51.006L314.699,51.006z M361.051,248.178h24.76v24.76h-24.76V248.178z"/>
</g>
<g>
</g>
<g>
</g>
<g>
</g>
<g>
</g>
<g>
</g>
<g>
</g>
<g>
</g>
<g>
</g>
<g>
</g>
<g>
</g>
<g>
</g>
<g>
</g>
<g>
</g>
<g>
</g>
<g>
</g>
</svg>
