<?xml version="1.0" encoding="iso-8859-1"?>
<!-- Generator: Adobe Illustrator 19.0.0, SVG Export Plug-In . SVG Version: 6.00 Build 0)  -->
<svg version="1.1" id="Layer_1" xmlns="http://www.w3.org/2000/svg" xmlns:xlink="http://www.w3.org/1999/xlink" x="0px" y="0px"
	 viewBox="0 0 395.636 395.636" style="enable-background:new 0 0 395.636 395.636;" xml:space="preserve">
<path style="fill:#FDBF5E;" d="M361.051,197.818c0,6.853-0.453,13.64-1.228,20.299c-18.101-17.907-42.99-28.962-70.465-28.962
	c-55.337,0-100.137,44.865-100.137,100.137c0,27.475,11.055,52.364,28.962,70.465c-6.659,0.84-13.446,1.228-20.299,1.228
	c-90.117,0-163.232-73.051-163.232-163.232c0-6.853,0.453-13.64,1.228-20.299c18.101,17.907,42.99,28.962,70.465,28.962
	c55.337,0,100.137-44.865,100.137-100.137c0-27.475-11.055-52.364-28.962-70.465c6.659-0.84,13.446-1.228,20.299-1.228
	C287.935,34.586,361.051,107.701,361.051,197.818z"/>
<circle style="fill:#FFFFFF;" cx="106.343" cy="106.343" r="100.137"/>
<path id="SVGCleanerId_0" style="fill:#193651;" d="M106.343,212.687C47.58,212.687,0,165.042,0,106.343S47.58,0,106.343,0
	s106.343,47.58,106.343,106.343S165.042,212.687,106.343,212.687z M106.343,12.347c-51.911,0-93.996,42.02-93.996,93.996
	s42.02,93.996,93.996,93.996s93.996-42.02,93.996-93.996S158.255,12.347,106.343,12.347z"/>
<path id="SVGCleanerId_1" style="fill:#F16051;" d="M106.343,181.721c-41.438,0-75.442-34.004-75.442-75.442
	s34.004-75.442,75.442-75.442s75.442,34.004,75.442,75.442S147.717,181.721,106.343,181.721z"/>
<circle style="fill:#FFFFFF;" cx="289.293" cy="289.293" r="100.137"/>
<path id="SVGCleanerId_2" style="fill:#193651;" d="M289.293,395.636c-58.699,0-106.343-47.58-106.343-106.343
	s47.644-106.343,106.343-106.343s106.343,47.644,106.343,106.343S348.057,395.636,289.293,395.636z M289.293,195.362
	c-51.911,0-93.996,42.02-93.996,93.931s42.02,93.996,93.996,93.996s93.996-42.02,93.996-93.996
	C383.289,237.382,341.269,195.362,289.293,195.362z"/>
<path id="SVGCleanerId_3" style="fill:#4FBF9F;" d="M289.293,364.735c-41.438,0-75.442-34.004-75.442-75.442
	s34.004-75.442,75.442-75.442s75.442,34.004,75.442,75.442C364.735,330.731,330.731,364.735,289.293,364.735z"/>
<path id="SVGCleanerId_4" style="fill:#193651;" d="M316.509,312.824c-6.206,6.206-14.222,9.891-23.467,9.891
	c-8.663,0-17.325-3.685-23.467-9.891c-1.228-1.228-1.875-1.875-3.103-3.685h37.107v-13.059h-42.667
	c-0.646-4.331-0.646-8.663,0-12.994h42.667v-12.994h-37.107c0.646-1.228,1.875-2.457,3.103-3.685
	c12.994-12.994,33.358-12.994,46.352,0l1.875,1.875l9.244-9.244l-1.875-1.875c-17.907-17.907-46.998-17.907-64.905,0
	c-3.685,3.685-6.788,8.016-8.663,12.994h-13.576v12.994h9.891c-0.646,4.331-0.646,8.663,0,12.994h-9.891v12.994h13.576
	c2.457,4.913,5.56,9.244,8.663,12.994c8.663,8.663,20.428,13.576,32.776,13.576c12.347,0,24.113-4.913,32.776-13.576l1.875-1.875
	l-9.309-9.309L316.509,312.824z"/>
<g>
	<path id="SVGCleanerId_0_1_" style="fill:#193651;" d="M106.343,212.687C47.58,212.687,0,165.042,0,106.343S47.58,0,106.343,0
		s106.343,47.58,106.343,106.343S165.042,212.687,106.343,212.687z M106.343,12.347c-51.911,0-93.996,42.02-93.996,93.996
		s42.02,93.996,93.996,93.996s93.996-42.02,93.996-93.996S158.255,12.347,106.343,12.347z"/>
</g>
<g>
	<path id="SVGCleanerId_1_1_" style="fill:#F16051;" d="M106.343,181.721c-41.438,0-75.442-34.004-75.442-75.442
		s34.004-75.442,75.442-75.442s75.442,34.004,75.442,75.442S147.717,181.721,106.343,181.721z"/>
</g>
<g>
	<path id="SVGCleanerId_2_1_" style="fill:#193651;" d="M289.293,395.636c-58.699,0-106.343-47.58-106.343-106.343
		s47.644-106.343,106.343-106.343s106.343,47.644,106.343,106.343S348.057,395.636,289.293,395.636z M289.293,195.362
		c-51.911,0-93.996,42.02-93.996,93.931s42.02,93.996,93.996,93.996s93.996-42.02,93.996-93.996
		C383.289,237.382,341.269,195.362,289.293,195.362z"/>
</g>
<g>
	<path id="SVGCleanerId_3_1_" style="fill:#4FBF9F;" d="M289.293,364.735c-41.438,0-75.442-34.004-75.442-75.442
		s34.004-75.442,75.442-75.442s75.442,34.004,75.442,75.442C364.735,330.731,330.731,364.735,289.293,364.735z"/>
</g>
<g>
	<rect x="150.82" y="100.137" style="fill:#193651;" width="12.347" height="12.347"/>
	<rect x="48.808" y="100.137" style="fill:#193651;" width="12.347" height="12.347"/>
	<polygon style="fill:#193651;" points="256.517,28.444 273.842,10.537 265.18,1.875 233.051,34.651 265.18,66.78 273.842,58.117 
		256.517,40.792 383.289,40.792 383.289,181.139 395.636,181.139 395.636,28.444 	"/>
	<polygon style="fill:#193651;" points="130.457,328.857 121.794,337.519 139.119,354.844 12.347,354.844 12.347,214.497 0,214.497 
		0,367.192 139.119,367.192 121.794,385.099 130.457,393.762 162.586,361.051 	"/>
	<path style="fill:#193651;" d="M106.343,100.784c-8.016,0-14.222-6.206-14.222-14.222s6.206-14.222,14.222-14.222
		s14.222,6.206,14.222,14.222h12.347c0-12.347-8.663-22.885-20.428-25.341v-6.206h-12.347v6.206
		c-11.766,3.103-20.428,12.994-20.428,25.341c0,14.804,11.766,26.57,26.57,26.57c8.016,0,14.222,6.206,14.222,14.222
		s-6.206,14.222-14.222,14.222s-14.222-6.206-14.222-14.222H79.709c0,12.347,8.663,22.885,20.428,25.341v4.913h12.347v-4.913
		c11.766-3.103,20.428-12.994,20.428-25.341C132.913,112.485,120.566,100.784,106.343,100.784z"/>
</g>
<g>
	<path id="SVGCleanerId_4_1_" style="fill:#193651;" d="M316.509,312.824c-6.206,6.206-14.222,9.891-23.467,9.891
		c-8.663,0-17.325-3.685-23.467-9.891c-1.228-1.228-1.875-1.875-3.103-3.685h37.107v-13.059h-42.667
		c-0.646-4.331-0.646-8.663,0-12.994h42.667v-12.994h-37.107c0.646-1.228,1.875-2.457,3.103-3.685
		c12.994-12.994,33.358-12.994,46.352,0l1.875,1.875l9.244-9.244l-1.875-1.875c-17.907-17.907-46.998-17.907-64.905,0
		c-3.685,3.685-6.788,8.016-8.663,12.994h-13.576v12.994h9.891c-0.646,4.331-0.646,8.663,0,12.994h-9.891v12.994h13.576
		c2.457,4.913,5.56,9.244,8.663,12.994c8.663,8.663,20.428,13.576,32.776,13.576c12.347,0,24.113-4.913,32.776-13.576l1.875-1.875
		l-9.309-9.309L316.509,312.824z"/>
</g>
<g>
</g>
<g>
</g>
<g>
</g>
<g>
</g>
<g>
</g>
<g>
</g>
<g>
</g>
<g>
</g>
<g>
</g>
<g>
</g>
<g>
</g>
<g>
</g>
<g>
</g>
<g>
</g>
<g>
</g>
</svg>
