<?xml version="1.0" encoding="iso-8859-1"?>
<!-- Generator: Adobe Illustrator 19.0.0, SVG Export Plug-In . SVG Version: 6.00 Build 0)  -->
<svg version="1.1" id="Layer_1" xmlns="http://www.w3.org/2000/svg" xmlns:xlink="http://www.w3.org/1999/xlink" x="0px" y="0px"
	 viewBox="0 0 395.636 395.636" style="enable-background:new 0 0 395.636 395.636;" xml:space="preserve">
<path style="fill:#FFFFFF;" d="M370.941,9.244H24.76c-10.537,0-18.554,8.081-18.554,18.554v286.19
	c0,10.537,8.016,18.554,18.554,18.554h346.182c10.537,0,18.554-8.016,18.554-18.554V27.798
	C389.43,17.325,381.414,9.244,370.941,9.244z"/>
<rect x="30.901" y="34.004" style="fill:#2EA2DB;" width="333.834" height="212.04"/>
<polygon style="fill:#FFFFFF;" points="269.511,383.289 248.501,335.063 147.135,335.063 126.125,383.289 "/>
<g>
	<rect x="150.238" y="295.499" style="fill:#193651;" width="12.347" height="12.347"/>
	<rect x="191.612" y="295.499" style="fill:#193651;" width="12.347" height="12.347"/>
	<rect x="233.697" y="295.499" style="fill:#193651;" width="12.347" height="12.347"/>
	<path style="fill:#193651;" d="M370.941,3.103H24.76C11.119,3.103,0,14.222,0,27.798v286.19c0,13.576,11.119,24.76,24.76,24.76
		h113.713l-17.907,41.438H101.43v12.347h192.259v-12.347h-19.135l-18.036-41.438h114.36c13.576,0,24.76-11.119,24.76-24.76V27.798
		C395.636,14.222,384.517,3.103,370.941,3.103z M261.495,380.186H134.141l17.907-41.438h90.893L261.495,380.186z M383.289,314.053
		c0,6.788-5.56,12.347-12.347,12.347H24.76c-6.788,0-12.347-5.56-12.347-12.347v-37.107h370.941v37.107H383.289z M383.289,264.598
		H12.347v-236.8c0-6.788,5.56-12.347,12.347-12.347h346.182c6.788,0,12.347,5.56,12.347,12.347v236.8H383.289z"/>
</g>
<g>
</g>
<g>
</g>
<g>
</g>
<g>
</g>
<g>
</g>
<g>
</g>
<g>
</g>
<g>
</g>
<g>
</g>
<g>
</g>
<g>
</g>
<g>
</g>
<g>
</g>
<g>
</g>
<g>
</g>
</svg>
