<?xml version="1.0" encoding="iso-8859-1"?>
<!-- Generator: Adobe Illustrator 19.0.0, SVG Export Plug-In . SVG Version: 6.00 Build 0)  -->
<svg version="1.1" id="Layer_1" xmlns="http://www.w3.org/2000/svg" xmlns:xlink="http://www.w3.org/1999/xlink" x="0px" y="0px"
	 viewBox="0 0 395.636 395.636" style="enable-background:new 0 0 395.636 395.636;" xml:space="preserve">
<path id="SVGCleanerId_0" style="fill:#D3D7DA;" d="M197.818,314.793c-64.259,0-116.816-52.558-116.816-116.816
	S133.56,81.161,197.818,81.161s116.816,52.558,116.816,116.816S262.141,314.793,197.818,314.793z"/>
<path id="SVGCleanerId_1" style="fill:#FFFFFF;" d="M252.186,210.971l17.907-3.685v-18.554l-17.907-3.685
	c-1.228-5.56-3.685-11.119-6.788-16.097l9.891-15.451l-12.994-12.994l-15.451,9.891c-4.913-3.103-10.537-5.56-16.097-6.788
	l-3.685-17.907h-18.554l-3.685,17.907c-5.56,1.228-11.119,3.685-16.097,6.788l-15.451-9.891L140.283,153.5l9.891,15.451
	c-3.103,4.913-5.56,10.537-6.788,16.097l-17.907,3.685v18.554l17.907,3.685c1.228,5.56,3.685,11.119,6.788,16.097l-9.891,15.451
	l12.994,12.994l15.451-9.891c4.913,3.103,10.537,5.56,16.097,6.788l3.685,17.907h18.554l3.685-17.907
	c5.56-1.228,11.119-3.685,16.097-6.788l15.451,9.891l12.994-12.994l-9.891-15.451C248.501,222.09,250.958,217.112,252.186,210.971z"
	/>
<g>
	<circle style="fill:#FFFFFF;" cx="197.818" cy="197.977" r="23.467"/>
	<path style="fill:#FFFFFF;" d="M346.182,44.054v69.883h-33.358c-2.457,0-4.331-0.646-6.206-1.228l-26.57-14.222
		c-1.875-0.582-3.685-1.228-5.56-1.228H233.05c-8.016,0-14.869-6.788-14.869-14.869c0-3.879,1.616-7.499,4.202-10.214L157.608,94.09
		c-6.788,2.457-14.222-0.646-17.325-7.434s-0.646-14.869,6.206-18.554l89.665-47.58c6.206-3.103,12.994-3.685,19.135-1.875
		l76.024,25.341h14.869V44.054z"/>
</g>
<rect id="SVGCleanerId_2" x="346.182" y="35.391" style="fill:#4FBF9F;" width="43.249" height="89.018"/>
<rect id="SVGCleanerId_3" x="6.206" y="271.545" style="fill:#FDBF5E;" width="43.248" height="89.018"/>
<path id="SVGCleanerId_4" style="fill:#193651;" d="M291.814,321.646l-7.434-9.891c3.103-2.457,6.206-4.913,9.244-7.434l8.016,9.244
	C298.602,316.021,295.499,319.124,291.814,321.646z M310.949,304.32l-9.244-8.663c2.457-3.103,5.56-5.56,8.016-8.663l9.891,7.434
	C317.156,298.114,314.053,301.217,310.949,304.32z M327.046,284.539l-10.537-6.788c2.457-3.103,4.331-6.788,6.206-9.891
	l10.537,6.206C331.96,277.104,329.503,280.789,327.046,284.539z M339.394,261.654l-11.119-4.913
	c1.875-3.685,3.103-7.434,4.331-11.119l11.766,4.331C343.079,254.219,341.269,257.969,339.394,261.654z M348.057,237.541
	l-11.766-3.103c1.228-3.685,1.875-7.434,2.457-11.766l12.347,1.875C350.513,229.524,349.285,233.209,348.057,237.541z
	 M352.388,212.199l-12.347-1.228c0.646-3.685,0.646-8.016,0.646-11.766h12.283C352.97,203.537,352.97,207.868,352.388,212.199z
	 M340.622,187.44c0-3.685-0.646-8.016-1.228-11.766l12.347-1.875c0.646,4.331,1.228,8.663,1.228,12.994L340.622,187.44z"/>
<path id="SVGCleanerId_5" style="fill:#193651;" d="M44.477,222.09c-1.228-4.331-1.228-8.663-1.875-12.994l12.347-0.646
	c0.646,3.685,0.646,8.016,1.228,11.766L44.477,222.09z M54.432,196.749H42.02c0-4.331,0-8.663,0.646-12.994l12.347,1.228
	C55.014,188.733,55.014,192.417,54.432,196.749z M56.889,173.282l-12.347-1.875c0.646-4.331,1.875-8.663,2.457-12.347l11.766,3.103
	C58.117,165.201,57.471,168.951,56.889,173.282z M63.03,150.397l-11.766-4.331c1.228-4.331,3.103-8.016,4.978-11.766l11.119,4.913
	C65.552,142.963,64.259,146.648,63.03,150.397z M72.339,128.741l-10.537-6.206c1.875-3.685,4.331-7.434,6.788-11.119l10.537,6.788
	C76.671,121.953,74.796,125.056,72.339,128.741z M85.915,108.959l-9.891-7.434c2.457-3.103,5.56-6.788,8.663-9.891l9.244,8.663
	C90.893,102.753,88.372,105.856,85.915,108.959z M102.012,91.634l-8.016-9.244c3.103-3.103,6.788-5.56,9.891-8.016l7.434,9.891
	C108.154,86.72,105.115,89.177,102.012,91.634z"/>
<g>
	<path id="SVGCleanerId_0_1_" style="fill:#D3D7DA;" d="M197.818,314.793c-64.259,0-116.816-52.558-116.816-116.816
		S133.56,81.161,197.818,81.161s116.816,52.558,116.816,116.816S262.141,314.793,197.818,314.793z"/>
</g>
<g>
	<path id="SVGCleanerId_1_1_" style="fill:#FFFFFF;" d="M252.186,210.971l17.907-3.685v-18.554l-17.907-3.685
		c-1.228-5.56-3.685-11.119-6.788-16.097l9.891-15.451l-12.994-12.994l-15.451,9.891c-4.913-3.103-10.537-5.56-16.097-6.788
		l-3.685-17.907h-18.554l-3.685,17.907c-5.56,1.228-11.119,3.685-16.097,6.788l-15.451-9.891L140.283,153.5l9.891,15.451
		c-3.103,4.913-5.56,10.537-6.788,16.097l-17.907,3.685v18.554l17.907,3.685c1.228,5.56,3.685,11.119,6.788,16.097l-9.891,15.451
		l12.994,12.994l15.451-9.891c4.913,3.103,10.537,5.56,16.097,6.788l3.685,17.907h18.554l3.685-17.907
		c5.56-1.228,11.119-3.685,16.097-6.788l15.451,9.891l12.994-12.994l-9.891-15.451C248.501,222.09,250.958,217.112,252.186,210.971z
		"/>
</g>
<g>
	<rect id="SVGCleanerId_2_1_" x="346.182" y="35.391" style="fill:#4FBF9F;" width="43.249" height="89.018"/>
</g>
<g>
	<rect id="SVGCleanerId_3_1_" x="6.206" y="271.545" style="fill:#FDBF5E;" width="43.248" height="89.018"/>
</g>
<g>
	<path id="SVGCleanerId_4_1_" style="fill:#193651;" d="M291.814,321.646l-7.434-9.891c3.103-2.457,6.206-4.913,9.244-7.434
		l8.016,9.244C298.602,316.021,295.499,319.124,291.814,321.646z M310.949,304.32l-9.244-8.663c2.457-3.103,5.56-5.56,8.016-8.663
		l9.891,7.434C317.156,298.114,314.053,301.217,310.949,304.32z M327.046,284.539l-10.537-6.788
		c2.457-3.103,4.331-6.788,6.206-9.891l10.537,6.206C331.96,277.104,329.503,280.789,327.046,284.539z M339.394,261.654
		l-11.119-4.913c1.875-3.685,3.103-7.434,4.331-11.119l11.766,4.331C343.079,254.219,341.269,257.969,339.394,261.654z
		 M348.057,237.541l-11.766-3.103c1.228-3.685,1.875-7.434,2.457-11.766l12.347,1.875
		C350.513,229.524,349.285,233.209,348.057,237.541z M352.388,212.199l-12.347-1.228c0.646-3.685,0.646-8.016,0.646-11.766h12.283
		C352.97,203.537,352.97,207.868,352.388,212.199z M340.622,187.44c0-3.685-0.646-8.016-1.228-11.766l12.347-1.875
		c0.646,4.331,1.228,8.663,1.228,12.994L340.622,187.44z"/>
</g>
<g>
	<path id="SVGCleanerId_5_1_" style="fill:#193651;" d="M44.477,222.09c-1.228-4.331-1.228-8.663-1.875-12.994l12.347-0.646
		c0.646,3.685,0.646,8.016,1.228,11.766L44.477,222.09z M54.432,196.749H42.02c0-4.331,0-8.663,0.646-12.994l12.347,1.228
		C55.014,188.733,55.014,192.417,54.432,196.749z M56.889,173.282l-12.347-1.875c0.646-4.331,1.875-8.663,2.457-12.347l11.766,3.103
		C58.117,165.201,57.471,168.951,56.889,173.282z M63.03,150.397l-11.766-4.331c1.228-4.331,3.103-8.016,4.978-11.766l11.119,4.913
		C65.552,142.963,64.259,146.648,63.03,150.397z M72.339,128.741l-10.537-6.206c1.875-3.685,4.331-7.434,6.788-11.119l10.537,6.788
		C76.671,121.953,74.796,125.056,72.339,128.741z M85.915,108.959l-9.891-7.434c2.457-3.103,5.56-6.788,8.663-9.891l9.244,8.663
		C90.893,102.753,88.372,105.856,85.915,108.959z M102.012,91.634l-8.016-9.244c3.103-3.103,6.788-5.56,9.891-8.016l7.434,9.891
		C108.154,86.72,105.115,89.177,102.012,91.634z"/>
</g>
<path style="fill:#193651;" d="M339.976,29.185v8.663h-8.016l-74.796-24.76c-8.016-2.457-16.679-1.875-23.467,1.875l-90.246,46.998
	c-9.891,4.978-13.576,16.679-8.663,26.57c4.331,9.244,15.451,13.576,24.76,10.537l51.911-17.907c0,0.646,9.244,22.238,21.01,22.238
	h41.438c1.228,0,1.875,0,3.103,0.646l25.988,14.222l0.646,0.646c2.457,1.228,5.56,1.228,8.016,1.228h28.444v11.119h55.531V29.185
	H339.976z M339.976,107.731h-27.798c-1.228,0-2.457,0-3.685-0.646l-25.988-14.222h-1.228c-2.457-0.646-4.913-1.228-7.434-1.228
	h-41.438c-4.784,0-8.663-3.879-8.663-8.663c0-4.784,3.879-8.663,8.663-8.663h33.358c9.244,0,17.325-8.016,17.325-17.325h-12.347
	c0,2.457-2.457,4.913-4.978,4.913h-34.004c-4.331,0-8.663,1.228-11.766,3.685l-64.84,22.368c-3.685,1.228-8.016-0.646-9.891-4.331
	c-1.875-3.685,0-8.663,3.685-10.537L238.61,25.5c4.331-2.457,9.244-2.457,14.222-1.228l77.253,25.988h9.891L339.976,107.731
	L339.976,107.731z M383.289,118.203h-30.901V41.597h30.901V118.203z"/>
<path style="fill:#FFFFFF;" d="M249.147,327.787l-89.665,47.58c-6.206,3.103-12.994,3.685-19.135,1.875L64.323,351.9H49.455v-69.883
	h33.358c2.457,0,4.331,0.646,6.206,1.228l26.57,14.222c1.875,0.582,3.685,1.228,5.56,1.228h41.438
	c8.016,0,14.869,6.788,14.869,14.869c0,3.879-1.616,7.499-4.202,10.214l64.776-21.915c6.788-2.457,14.222,0.646,17.325,7.434
	C258.392,316.021,255.935,324.102,249.147,327.787z"/>
<g>
	<path style="fill:#193651;" d="M260.848,307.423c-4.331-9.244-15.451-13.576-24.76-10.537l-51.846,17.907c0-0.646,0-0.646,0-1.228
		c0-11.766-9.244-21.01-21.01-21.01h-41.438c-1.228,0-1.875,0-3.103-0.646l-25.988-13.576l-0.646-0.646
		c-2.457-1.228-5.56-1.228-8.016-1.228H55.596v-11.119H0v101.366h55.661v-8.663h8.016l74.796,24.76
		c3.103,1.228,6.206,1.228,9.244,1.228c4.913,0,9.891-1.228,14.222-3.685l90.246-46.352
		C261.495,329.015,265.826,317.314,260.848,307.423z M12.347,277.751h30.901v76.671H12.347V277.751z M246.044,322.874l-89.665,47.58
		c-4.331,2.457-9.244,2.457-14.222,1.228l-77.253-25.988h-9.244v-57.471h27.798c1.228,0,2.457,0,3.685,0.646l25.988,14.222
		l0.646,0.646c2.457,0.646,4.913,1.228,7.434,1.228h41.438c4.913,0,8.663,3.685,8.663,8.663c0,2.457-1.228,4.913-2.457,6.206
		l-6.788,2.457h-32.776c-9.244,0-17.325,8.016-17.325,17.325h12.347c0-2.457,2.457-4.913,4.913-4.913h34.004
		c4.331,0,8.663-1.228,11.766-3.685l64.84-22.368c3.685-1.228,8.016,0.646,9.891,4.331
		C251.604,316.021,249.729,320.999,246.044,322.874z"/>
	<path style="fill:#193651;" d="M212.04,276.458h-28.444l-4.331-19.135c-3.685-1.228-7.434-2.457-10.537-4.331l-16.679,10.537
		l-19.782-19.782l10.537-16.679c-1.875-3.685-3.103-6.788-4.331-10.537l-19.135-4.331v-28.444l19.135-4.331
		c1.228-3.685,2.457-7.434,4.331-10.537l-10.537-16.679l19.782-19.782l16.679,10.537c3.685-1.875,6.788-3.103,10.537-4.331
		l4.331-19.135h28.444l4.331,19.135c3.685,1.228,7.434,2.457,10.537,4.331l16.679-10.537l19.782,19.782l-10.537,16.679
		c1.875,3.685,3.103,6.788,4.331,10.537l19.135,4.331v28.444l-19.135,4.331c-1.228,3.685-2.457,7.434-4.331,10.537l10.537,16.679
		l-19.782,19.782l-16.679-10.537c-3.685,1.875-6.788,3.103-10.537,4.331L212.04,276.458z M193.487,264.11h8.663l3.685-16.679
		l3.685-0.646c4.913-1.228,9.891-3.103,14.222-6.206l3.103-1.875l14.869,9.244l6.206-6.206l-9.244-14.869l1.875-3.103
		c2.457-4.331,4.913-9.244,6.206-14.222l0.646-3.685l16.679-3.685v-8.663l-16.679-3.685l-0.646-3.685
		c-1.228-4.913-3.103-9.891-6.206-14.222l-1.875-3.103l9.244-14.869l-6.206-6.206l-14.869,9.244l-3.103-1.875
		c-4.331-2.457-9.244-4.913-14.222-6.206l-3.685-0.646l-3.685-16.679h-8.663l-3.685,16.679l-3.685,0.646
		c-4.913,1.228-9.891,3.103-14.222,6.206l-3.103,1.875l-14.869-9.244l-6.206,6.206l9.244,14.869l-1.875,3.103
		c-2.457,4.331-4.913,9.244-6.206,14.222l-0.646,3.685l-16.679,3.685v8.663l16.679,3.685l0.646,3.685
		c1.228,4.913,3.103,9.891,6.206,14.222l1.875,3.103l-9.244,14.869l6.206,6.206l14.804-9.244l3.103,1.875
		c4.331,2.457,9.244,4.913,14.222,6.206l3.685,0.646L193.487,264.11z"/>
</g>
<circle style="fill:#D3D7DA;" cx="197.818" cy="197.977" r="23.467"/>
<path style="fill:#193651;" d="M197.818,227.65c-16.679,0-29.673-13.576-29.673-29.673s13.576-29.673,29.673-29.673
	c16.679,0,29.673,13.576,29.673,29.673S214.497,227.65,197.818,227.65z M197.818,180.652c-9.891,0-17.325,8.016-17.325,17.325
	c0,9.891,8.016,17.325,17.325,17.325c9.891,0,17.325-8.016,17.325-17.325C215.143,188.086,207.709,180.652,197.818,180.652z"/>
<g>
</g>
<g>
</g>
<g>
</g>
<g>
</g>
<g>
</g>
<g>
</g>
<g>
</g>
<g>
</g>
<g>
</g>
<g>
</g>
<g>
</g>
<g>
</g>
<g>
</g>
<g>
</g>
<g>
</g>
</svg>
