<?xml version="1.0" encoding="iso-8859-1"?>
<!-- Generator: Adobe Illustrator 19.0.0, SVG Export Plug-In . SVG Version: 6.00 Build 0)  -->
<svg version="1.1" id="Layer_1" xmlns="http://www.w3.org/2000/svg" xmlns:xlink="http://www.w3.org/1999/xlink" x="0px" y="0px"
	 viewBox="0 0 395.636 395.636" style="enable-background:new 0 0 395.636 395.636;" xml:space="preserve">
<rect x="349.867" y="155.798" style="fill:#F16051;" width="39.564" height="233.051"/>
<rect x="278.174" y="231.822" style="fill:#FDBF5E;" width="39.564" height="157.026"/>
<rect x="205.834" y="285.608" style="fill:#4FBF9F;" width="39.564" height="103.24"/>
<g>
	<path style="fill:#193651;" d="M395.636,394.99h-51.911V102.594h51.911V394.99z M356.073,382.642h27.216V115.006h-27.216V382.642z"
		/>
	<path style="fill:#193651;" d="M323.943,394.99h-51.911V184.242h51.911L323.943,394.99L323.943,394.99z M284.38,382.642h27.216
		V196.59H284.38V382.642z"/>
	<path style="fill:#193651;" d="M251.604,394.99h-51.911V241.713h51.911V394.99L251.604,394.99z M212.04,382.642h27.216V254.061
		H212.04V382.642z"/>
</g>
<path style="fill:#FFFFFF;" d="M272.032,103.24H132.913c-9.244,4.331-19.135,7.434-29.673,7.434s-21.01-2.457-29.673-7.434H50.683
	c-24.76,0-44.477,19.782-44.477,44.541v102.594c0,8.663,7.434,16.097,16.097,16.097h27.216v122.376h106.925v-122.44h18.554V132.913
	h97.681c9.244,0,17.325-8.663,14.869-18.554C285.608,107.572,279.402,103.24,272.032,103.24z"/>
<rect x="96.453" y="291.168" style="fill:#193651;" width="12.347" height="97.681"/>
<circle style="fill:#FFFFFF;" cx="102.594" cy="45.77" r="38.917"/>
<g>
	<path style="fill:#193651;" d="M102.594,90.893c-24.76,0-45.123-20.428-45.123-45.123S77.899,0.646,102.594,0.646
		s45.123,20.428,45.123,45.123S127.935,90.893,102.594,90.893z M102.594,12.994c-17.907,0-32.776,14.869-32.776,32.776
		s14.869,32.776,32.776,32.776S135.37,63.741,135.37,45.77C135.37,27.216,121.147,12.994,102.594,12.994z"/>
	<rect x="95.806" y="144.679" style="fill:#193651;" width="14.222" height="12.347"/>
	<rect x="95.806" y="184.242" style="fill:#193651;" width="14.222" height="12.347"/>
	<rect x="95.806" y="223.806" style="fill:#193651;" width="14.222" height="12.347"/>
	<path style="fill:#193651;" d="M162.586,394.99H43.248V272.614h-21.01C9.891,272.614,0,262.723,0,250.376V147.717
		c0-27.798,22.885-50.683,50.683-50.683h23.467l1.228,0.646c17.325,8.663,37.107,8.663,54.432,0l1.228-0.646h140.929
		c9.891,0,19.135,6.788,21.657,16.097c1.875,6.788,0,12.994-3.685,18.554c-4.331,4.913-9.891,8.016-16.679,8.016h-92.121v133.495
		h-18.554C162.586,273.196,162.586,394.99,162.586,394.99z M55.661,382.642h94.578V260.267h18.554v-133.56h103.822
		c2.457,0,5.56-1.228,6.788-3.103c1.875-2.457,2.457-4.913,1.875-8.016c-0.646-3.685-4.913-6.788-9.244-6.788H134.141
		c-19.782,9.244-42.667,9.244-63.03,0H50.683c-21.01,0-38.335,17.325-38.335,38.335v102.594c0,5.56,4.331,9.891,9.891,9.891h33.358
		v123.022H55.661z"/>
</g>
<g>
</g>
<g>
</g>
<g>
</g>
<g>
</g>
<g>
</g>
<g>
</g>
<g>
</g>
<g>
</g>
<g>
</g>
<g>
</g>
<g>
</g>
<g>
</g>
<g>
</g>
<g>
</g>
<g>
</g>
</svg>
