<?xml version="1.0" encoding="iso-8859-1"?>
<!-- Generator: Adobe Illustrator 19.0.0, SVG Export Plug-In . SVG Version: 6.00 Build 0)  -->
<svg version="1.1" id="Layer_1" xmlns="http://www.w3.org/2000/svg" xmlns:xlink="http://www.w3.org/1999/xlink" x="0px" y="0px"
	 viewBox="0 0 395.636 395.636" style="enable-background:new 0 0 395.636 395.636;" xml:space="preserve">
<g>
	<circle style="fill:#FFFFFF;" cx="197.818" cy="51.588" r="45.123"/>
	<path style="fill:#FFFFFF;" d="M307.846,168.792v64.259H87.79v-64.259c0-27.216,22.238-49.455,49.455-49.455h121.147
		C285.608,119.337,307.846,141.576,307.846,168.792z"/>
</g>
<path style="fill:#FDBF5E;" d="M283.152,208.356v-39.564c0-13.576-11.119-24.76-24.76-24.76H137.244
	c-13.576,0-24.76,11.119-24.76,24.76v39.564H283.152z"/>
<rect x="33.358" y="264.598" style="fill:#FFFFFF;" width="329.503" height="124.897"/>
<rect x="58.117" y="289.293" style="fill:#D3D7DA;" width="280.048" height="75.442"/>
<rect x="6.206" y="233.051" style="fill:#FFFFFF;" width="383.289" height="31.547"/>
<g>
	<rect x="191.612" y="320.84" style="fill:#193651;" width="12.347" height="11.766"/>
	<rect x="145.261" y="320.84" style="fill:#193651;" width="12.347" height="11.766"/>
	<rect x="98.909" y="320.84" style="fill:#193651;" width="12.347" height="11.766"/>
	<rect x="238.028" y="320.84" style="fill:#193651;" width="12.347" height="11.766"/>
	<rect x="284.38" y="320.84" style="fill:#193651;" width="12.347" height="11.766"/>
</g>
<circle style="fill:#FFFFFF;" cx="298.602" cy="76.024" r="17.325"/>
<g>
	<path style="fill:#193651;" d="M197.818,103.24c28.444,0,51.329-22.885,51.329-51.329C249.147,22.885,226.263,0,197.818,0
		s-51.329,22.885-51.329,51.329S169.374,103.24,197.818,103.24z M197.818,12.347c21.657,0,38.917,17.325,38.917,38.917
		s-17.325,38.917-38.917,38.917s-38.917-17.325-38.917-38.917S176.162,12.347,197.818,12.347z"/>
	<path style="fill:#193651;" d="M368.42,226.844V113.131l-47.58-30.319c0.646-1.875,1.228-4.331,1.228-6.788
		c0-12.994-10.537-23.467-23.467-23.467c-12.929,0-23.467,10.537-23.467,23.467s10.537,23.467,23.467,23.467
		c6.206,0,11.766-2.457,15.451-6.206l42.02,26.57V226.78h-42.667v-58.117c0-30.901-24.76-55.661-55.661-55.661H137.244
		c-30.901,0-55.661,24.76-55.661,55.661v58.117H0v43.895h27.216v124.962h341.85V270.739h26.57v-43.895H368.42z M298.602,87.143
		c-6.206,0-11.119-4.913-11.119-11.119s4.913-11.119,11.119-11.119s11.119,4.978,11.119,11.119S304.743,87.143,298.602,87.143z
		 M93.931,168.792c0-24.113,19.135-43.248,43.248-43.248h121.147c24.113,0,43.248,19.135,43.248,43.248v58.117H93.931V168.792z
		 M356.073,383.289H39.564V270.804h317.156v112.485H356.073z M383.289,258.392H12.347v-19.135h370.941L383.289,258.392
		L383.289,258.392z"/>
</g>
<g>
</g>
<g>
</g>
<g>
</g>
<g>
</g>
<g>
</g>
<g>
</g>
<g>
</g>
<g>
</g>
<g>
</g>
<g>
</g>
<g>
</g>
<g>
</g>
<g>
</g>
<g>
</g>
<g>
</g>
</svg>
