<?xml version="1.0" encoding="iso-8859-1"?>
<!-- Generator: Adobe Illustrator 19.0.0, SVG Export Plug-In . SVG Version: 6.00 Build 0)  -->
<svg version="1.1" id="Layer_1" xmlns="http://www.w3.org/2000/svg" xmlns:xlink="http://www.w3.org/1999/xlink" x="0px" y="0px"
	 viewBox="0 0 395.636 395.636" style="enable-background:new 0 0 395.636 395.636;" xml:space="preserve">
<path style="fill:#FFFFFF;" d="M197.818,6.206L197.818,6.206C92.121,6.206,6.206,92.121,6.206,197.818l0,0
	c0,105.697,85.915,191.612,191.612,191.612l0,0c105.697,0,191.612-85.915,191.612-191.612l0,0
	C389.43,92.121,303.515,6.206,197.818,6.206z"/>
<path style="fill:#193651;" d="M197.818,395.636C89.018,395.636,0,306.618,0,197.818S89.018,0,197.818,0
	s197.818,89.018,197.818,197.818S306.618,395.636,197.818,395.636z M197.818,12.347c-102.012,0-185.471,83.459-185.471,185.471
	s83.459,185.471,185.471,185.471l0,0c102.012,0,185.471-83.459,185.471-185.471S299.83,12.347,197.818,12.347z"/>
<path style="fill:#F16051;" d="M197.818,364.735c-92.121,0-166.917-74.796-166.917-166.917S105.697,30.901,197.818,30.901
	s166.917,74.796,166.917,166.917S289.939,364.735,197.818,364.735z"/>
<polygon style="fill:#FFFFFF;" points="259.038,129.228 176.162,212.687 136.598,173.123 109.446,199.693 149.01,239.257 
	155.152,246.044 176.162,266.408 202.731,239.257 286.19,156.38 "/>
<g>
	<path style="fill:#193651;" d="M176.162,275.071l-75.378-75.378l35.879-35.879l39.564,39.564l83.459-83.459l35.879,35.879
		L176.162,275.071z M118.044,199.693l57.471,57.471l101.43-101.366l-17.907-17.907l-82.877,83.394l-39.564-39.564L118.044,199.693z"
		/>
	<rect x="150.82" y="315.281" style="fill:#193651;" width="12.347" height="12.347"/>
	<rect x="191.612" y="315.281" style="fill:#193651;" width="12.347" height="12.347"/>
	<rect x="232.404" y="315.281" style="fill:#193651;" width="12.347" height="12.347"/>
</g>
<g>
</g>
<g>
</g>
<g>
</g>
<g>
</g>
<g>
</g>
<g>
</g>
<g>
</g>
<g>
</g>
<g>
</g>
<g>
</g>
<g>
</g>
<g>
</g>
<g>
</g>
<g>
</g>
<g>
</g>
</svg>
