<?xml version="1.0" encoding="iso-8859-1"?>
<!-- Generator: Adobe Illustrator 19.0.0, SVG Export Plug-In . SVG Version: 6.00 Build 0)  -->
<svg version="1.1" id="Layer_1" xmlns="http://www.w3.org/2000/svg" xmlns:xlink="http://www.w3.org/1999/xlink" x="0px" y="0px"
	 viewBox="0 0 395.636 395.636" style="enable-background:new 0 0 395.636 395.636;" xml:space="preserve">
<path style="fill:#F16051;" d="M388.209,74.085l-27.798-68.59H35.239L7.441,74.085c-6.206,24.113,11.766,48.226,36.461,48.226
	c18.554,0,34.004-13.576,37.107-31.547l2.069-9.18c-1.422,21.915,15.257,40.727,37.495,40.727h1.228
	c19.782,0,36.461-15.451,37.107-35.879c1.099,19.717,17.519,35.879,37.689,35.879h1.875c20.816,0,37.624-17.131,37.754-37.754h0.388
	l0.129,1.875c1.228,19.782,17.907,35.879,37.689,35.879h1.228c20.622,0,37.236-17.131,37.56-37.754h0.129l1.228,5.624
	c3.103,18.554,18.554,32.129,37.107,32.129C376.443,122.311,394.415,98.198,388.209,74.085z"/>
<polyline style="fill:#E1E6E9;" points="28.904,196.59 28.904,146.489 366.488,146.489 366.488,196.59 "/>
<rect id="SVGCleanerId_0" x="59.223" y="165.042" style="fill:#193651;" width="12.347" height="12.347"/>
<rect id="SVGCleanerId_1" x="96.912" y="165.042" style="fill:#193651;" width="12.347" height="12.347"/>
<rect id="SVGCleanerId_2" x="134.665" y="165.042" style="fill:#193651;" width="12.347" height="12.347"/>
<rect id="SVGCleanerId_3" x="172.354" y="165.042" style="fill:#193651;" width="12.347" height="12.347"/>
<rect id="SVGCleanerId_4" x="210.69" y="165.042" style="fill:#193651;" width="12.347" height="12.347"/>
<rect id="SVGCleanerId_5" x="248.378" y="165.042" style="fill:#193651;" width="12.347" height="12.347"/>
<rect id="SVGCleanerId_6" x="286.067" y="165.042" style="fill:#193651;" width="12.347" height="12.347"/>
<rect id="SVGCleanerId_7" x="323.821" y="165.042" style="fill:#193651;" width="12.347" height="12.347"/>
<rect x="28.904" y="146.489" style="fill:#E1E6E9;" width="337.519" height="50.101"/>
<g>
	<rect x="215.021" y="296.081" style="fill:#193651;" width="12.347" height="23.467"/>
	<rect x="168.023" y="296.081" style="fill:#193651;" width="12.347" height="23.467"/>
</g>
<g>
	<rect id="SVGCleanerId_0_1_" x="59.223" y="165.042" style="fill:#193651;" width="12.347" height="12.347"/>
</g>
<g>
	<rect id="SVGCleanerId_1_1_" x="96.912" y="165.042" style="fill:#193651;" width="12.347" height="12.347"/>
</g>
<g>
	<rect id="SVGCleanerId_2_1_" x="134.665" y="165.042" style="fill:#193651;" width="12.347" height="12.347"/>
</g>
<g>
	<rect id="SVGCleanerId_3_1_" x="172.354" y="165.042" style="fill:#193651;" width="12.347" height="12.347"/>
</g>
<g>
	<rect id="SVGCleanerId_4_1_" x="210.69" y="165.042" style="fill:#193651;" width="12.347" height="12.347"/>
</g>
<g>
	<rect id="SVGCleanerId_5_1_" x="248.378" y="165.042" style="fill:#193651;" width="12.347" height="12.347"/>
</g>
<g>
	<rect id="SVGCleanerId_6_1_" x="286.067" y="165.042" style="fill:#193651;" width="12.347" height="12.347"/>
</g>
<g>
	<rect id="SVGCleanerId_7_1_" x="323.821" y="165.042" style="fill:#193651;" width="12.347" height="12.347"/>
</g>
<path style="fill:#193651;" d="M393.639,72.921L364.613,0H30.778L1.752,72.921c-7.434,32.776,16.097,47.58,21.01,50.683v259.62
	H12.225v12.412h370.941v-12.347h-10.537v-259.62c4.978-3.103,9.891-6.788,13.576-11.766
	C394.867,100.784,397.389,86.562,393.639,72.921z M261.372,383.289h-57.471V231.822h57.471V383.289z M191.49,383.289h-57.471
	V231.822h57.471V383.289z M360.281,383.289H273.72V219.475H121.671v163.814H35.11V128.582c3.103,0.646,29.673,6.206,46.998-21.657
	c9.244,15.451,22.885,22.238,39.564,22.238c16.097,0,30.319-8.663,37.689-21.657c9.891,14.222,22.238,22.238,37.689,21.657
	c0,0,19.782,1.228,33.358-13.576c2.457-2.457,4.331-4.913,6.206-8.016c14.869,24.113,38.917,21.657,38.917,21.657
	c12.994,0,24.76-5.56,33.358-15.451c1.875-2.457,3.685-4.331,4.913-6.788c16.679,27.798,43.895,22.238,46.998,21.657v254.707h-0.517
	V383.289z M376.378,104.469c-6.206,8.016-14.869,12.347-24.76,12.347c-15.451,0-28.444-11.119-30.901-27.216l-14.222-61.802l0,0
	h-8.016h-4.331v1.228l0,0l12.347,56.242c0,7.434-2.457,14.804-7.434,21.01c-6.206,6.788-14.869,11.119-24.113,11.119
	c0,0-29.026,1.228-32.776-30.319l-4.331-58.699l0,0h-12.348l0,0l4.331,56.242c-0.646,28.444-32.129,45.123-55.661,22.885
	c-6.206-6.206-9.244-14.222-8.663-22.885l4.331-56.242l0,0h-12.347l0,0l-4.331,56.242c-9.891,19.782-20.428,32.129-31.547,33.358
	c0,0-30.319,1.228-32.776-31.547l12.994-57.471l0,0H89.477l0,0L75.902,91.41c-2.457,15.451-15.451,26.57-30.901,26.57
	c-9.891,0-19.135-4.331-24.76-12.347c-6.206-8.016-8.016-17.907-5.56-27.798l24.76-65.552h317.156l25.988,64.259
	C384.395,86.562,382.52,96.453,376.378,104.469z"/>
<g>
</g>
<g>
</g>
<g>
</g>
<g>
</g>
<g>
</g>
<g>
</g>
<g>
</g>
<g>
</g>
<g>
</g>
<g>
</g>
<g>
</g>
<g>
</g>
<g>
</g>
<g>
</g>
<g>
</g>
</svg>
