<?xml version="1.0" encoding="iso-8859-1"?>
<!-- Generator: Adobe Illustrator 19.0.0, SVG Export Plug-In . SVG Version: 6.00 Build 0)  -->
<svg version="1.1" id="Layer_1" xmlns="http://www.w3.org/2000/svg" xmlns:xlink="http://www.w3.org/1999/xlink" x="0px" y="0px"
	 viewBox="0 0 395.636 395.636" style="enable-background:new 0 0 395.636 395.636;" xml:space="preserve">
<g>
	<rect x="6.206" y="6.206" style="fill:#FFFFFF;" width="127.935" height="383.289"/>
	<rect x="261.818" y="6.206" style="fill:#FFFFFF;" width="127.935" height="383.289"/>
</g>
<rect x="30.901" y="30.901" style="fill:#4FBF9F;" width="78.481" height="116.816"/>
<g>
	<rect x="48.226" y="52.558" style="fill:#193651;" width="43.895" height="12.347"/>
	<rect x="48.226" y="83.459" style="fill:#193651;" width="43.895" height="12.347"/>
	<rect x="48.226" y="113.778" style="fill:#193651;" width="43.895" height="12.347"/>
</g>
<circle style="fill:#FFFFFF;" cx="69.883" cy="336.937" r="27.798"/>
<path style="fill:#193651;" d="M69.883,370.941c-18.554,0-34.004-15.451-34.004-34.004s15.451-34.004,34.004-34.004
	s34.004,15.451,34.004,34.004S88.372,370.941,69.883,370.941z M69.883,315.863c-11.766,0-21.657,9.891-21.657,21.657
	c0,11.766,9.891,21.657,21.657,21.657s21.657-9.891,21.657-21.657C91.475,325.172,81.584,315.863,69.883,315.863z"/>
<rect x="134.141" y="6.206" style="fill:#4FBF9F;" width="127.935" height="383.289"/>
<rect x="158.901" y="30.901" style="fill:#FFFFFF;" width="78.481" height="116.816"/>
<g>
	<rect x="175.58" y="52.558" style="fill:#193651;" width="43.895" height="12.347"/>
	<rect x="175.58" y="83.459" style="fill:#193651;" width="43.895" height="12.347"/>
	<rect x="175.58" y="113.778" style="fill:#193651;" width="43.895" height="12.347"/>
</g>
<circle style="fill:#FFFFFF;" cx="197.818" cy="336.937" r="27.798"/>
<g>
	<path style="fill:#193651;" d="M197.818,370.941c-18.554,0-34.004-15.451-34.004-34.004s15.451-34.004,34.004-34.004
		s34.004,15.451,34.004,34.004S216.372,370.941,197.818,370.941z M197.818,315.863c-11.766,0-21.657,9.891-21.657,21.657
		c0,11.766,9.891,21.657,21.657,21.657c11.766,0,21.657-9.891,21.657-21.657C219.475,325.172,209.584,315.863,197.818,315.863z"/>
	<path style="fill:#193651;" d="M0,0v395.636h395.636V0H0z M127.935,383.289H12.347V12.347h115.588
		C127.935,12.347,127.935,383.289,127.935,383.289z M255.289,383.289H140.347V12.347h115.588v370.941L255.289,383.289
		L255.289,383.289z M383.289,383.289H267.701V12.347h115.588V383.289z"/>
</g>
<rect x="286.19" y="30.901" style="fill:#4FBF9F;" width="78.481" height="116.816"/>
<g>
	<rect x="303.515" y="52.558" style="fill:#193651;" width="43.895" height="12.347"/>
	<rect x="303.515" y="83.459" style="fill:#193651;" width="43.895" height="12.347"/>
	<rect x="303.515" y="113.778" style="fill:#193651;" width="43.895" height="12.347"/>
</g>
<circle style="fill:#FFFFFF;" cx="325.754" cy="336.937" r="27.798"/>
<path style="fill:#193651;" d="M325.754,370.941c-18.554,0-34.004-15.451-34.004-34.004s15.451-34.004,34.004-34.004
	c18.554,0,34.004,15.451,34.004,34.004C359.176,355.426,344.307,370.941,325.754,370.941z M325.754,315.863
	c-11.766,0-21.657,9.891-21.657,21.657c0,11.766,9.891,21.657,21.657,21.657c11.766,0,21.657-9.891,21.657-21.657
	C346.828,325.172,337.519,315.863,325.754,315.863z"/>
<g>
	<rect x="158.901" y="250.376" style="fill:#FFFFFF;" width="12.347" height="12.347"/>
	<rect x="191.612" y="250.376" style="fill:#FFFFFF;" width="12.347" height="12.347"/>
	<rect x="224.388" y="250.376" style="fill:#FFFFFF;" width="12.347" height="12.347"/>
</g>
<g>
</g>
<g>
</g>
<g>
</g>
<g>
</g>
<g>
</g>
<g>
</g>
<g>
</g>
<g>
</g>
<g>
</g>
<g>
</g>
<g>
</g>
<g>
</g>
<g>
</g>
<g>
</g>
<g>
</g>
</svg>
