<?xml version="1.0" encoding="iso-8859-1"?>
<!-- Generator: Adobe Illustrator 19.0.0, SVG Export Plug-In . SVG Version: 6.00 Build 0)  -->
<svg version="1.1" id="Layer_1" xmlns="http://www.w3.org/2000/svg" xmlns:xlink="http://www.w3.org/1999/xlink" x="0px" y="0px"
	 viewBox="0 0 395.701 395.701" style="enable-background:new 0 0 395.701 395.701;" xml:space="preserve">
<g>
	<rect x="135.725" y="246.044" style="fill:#193651;" width="12.929" height="99.556"/>
	<rect x="191.386" y="246.044" style="fill:#193651;" width="12.929" height="99.556"/>
	<rect x="247.046" y="246.044" style="fill:#193651;" width="12.929" height="99.556"/>
</g>
<circle style="fill:#FDBF5E;" cx="197.851" cy="178.683" r="178.683"/>
<g>
	<polygon style="fill:#FFFFFF;" points="153.309,85.915 153.309,83.459 126.739,45.77 100.17,83.459 100.17,85.915 	"/>
	<polygon style="fill:#FFFFFF;" points="288.097,116.816 294.303,94.578 272.646,45.77 250.408,94.578 257.196,116.816 	"/>
	<path style="fill:#FFFFFF;stroke:#193651;stroke-width:2;stroke-miterlimit:10;" d="M61.253,191.03L61.253,191.03
		c0,12.347,9.891,22.238,22.238,22.238h228.137c12.347,0,22.238-9.891,22.238-22.238l0,0c0-12.347-9.891-22.238-22.238-22.238
		H84.137C71.725,168.792,61.253,178.683,61.253,191.03z"/>
</g>
<circle style="fill:#FDBF5E;" cx="197.851" cy="178.683" r="178.683"/>
<rect x="100.17" y="85.915" style="fill:#2EA2DB;" width="53.139" height="76.671"/>
<g>
	<polygon style="fill:#FFFFFF;" points="153.309,85.915 153.309,83.459 126.739,45.77 100.17,83.459 100.17,85.915 	"/>
	<rect x="173.737" y="47.58" style="fill:#FFFFFF;" width="53.139" height="115.006"/>
	<polygon style="fill:#FFFFFF;" points="288.097,116.816 294.303,94.578 272.646,45.77 250.408,94.578 257.196,116.816 	"/>
</g>
<rect x="249.762" y="116.816" style="fill:#F16051;" width="46.352" height="51.911"/>
<g>
	<rect x="197.204" y="63.418" style="fill:#193651;" width="29.673" height="12.929"/>
	<rect x="212.073" y="89.341" style="fill:#193651;" width="14.869" height="12.929"/>
	<rect x="197.204" y="114.683" style="fill:#193651;" width="29.673" height="12.929"/>
	<rect x="212.073" y="140.671" style="fill:#193651;" width="14.869" height="12.929"/>
</g>
<path style="fill:#FFFFFF;" d="M311.628,168.792H84.073c-12.347,0-22.885,9.891-22.885,22.238s9.891,22.238,22.238,22.238h5.883
	v141.64c0,19.329,13.576,34.586,30.901,34.586h154.57c17.325,0,30.901-15.192,30.901-34.586v-141.64h5.883
	c12.347,0,22.238-9.891,22.238-22.238S323.976,168.792,311.628,168.792z"/>
<path style="fill:#193651;" d="M340.655,191.03c0-15.451-12.994-28.444-28.444-28.444H84.137c-15.451,0-28.444,12.994-28.444,28.444
	s12.347,28.444,27.798,28.444v139.119c0,20.428,16.679,37.107,37.107,37.107h154.57c20.428,0,37.107-16.679,37.107-37.107V219.475
	C327.661,219.475,340.655,206.481,340.655,191.03z M299.863,358.529c0,13.576-11.119,24.76-24.76,24.76H120.598
	c-13.576,0-24.76-11.119-24.76-24.76V221.285h204.024V358.529z M311.628,207.063H84.137c-8.663,0-16.097-7.434-16.097-16.097
	s7.434-16.097,16.097-16.097h228.137c8.663,0,16.097,7.434,16.097,16.097C328.307,199.693,320.873,207.063,311.628,207.063z"/>
<g>
</g>
<g>
</g>
<g>
</g>
<g>
</g>
<g>
</g>
<g>
</g>
<g>
</g>
<g>
</g>
<g>
</g>
<g>
</g>
<g>
</g>
<g>
</g>
<g>
</g>
<g>
</g>
<g>
</g>
</svg>
