<?xml version="1.0" encoding="iso-8859-1"?>
<!-- Generator: Adobe Illustrator 19.0.0, SVG Export Plug-In . SVG Version: 6.00 Build 0)  -->
<svg version="1.1" id="Layer_1" xmlns="http://www.w3.org/2000/svg" xmlns:xlink="http://www.w3.org/1999/xlink" x="0px" y="0px"
	 viewBox="0 0 395.636 395.636" style="enable-background:new 0 0 395.636 395.636;" xml:space="preserve">
<rect x="6.206" y="67.362" style="fill:#FFFFFF;" width="383.289" height="322.069"/>
<rect x="30.901" y="92.121" style="fill:#2EA2DB;" width="333.834" height="272.614"/>
<rect x="6.206" y="6.206" style="fill:#FFFFFF;" width="383.289" height="61.22"/>
<g>
	<path style="fill:#193651;" d="M0,0v395.636h395.636V0H0z M383.289,383.289H12.347V73.568h370.941L383.289,383.289L383.289,383.289
		z M383.289,61.22H12.347V12.412h370.941L383.289,61.22L383.289,61.22z"/>
	<rect x="37.107" y="30.319" style="fill:#193651;" width="12.347" height="12.347"/>
	<rect x="84.04" y="30.319" style="fill:#193651;" width="12.347" height="12.347"/>
	<rect x="130.457" y="30.319" style="fill:#193651;" width="12.347" height="12.347"/>
</g>
<path style="fill:#FFFFFF;" d="M208.937,339.976v-46.998c0-21.657-17.325-38.917-38.917-38.917H94.578
	c-21.657,0.646-38.917,17.907-38.917,38.917v46.998H208.937z"/>
<path style="fill:#193651;" d="M215.143,346.182H49.455v-53.139c0-24.76,20.428-45.123,45.123-45.123h75.442
	c24.76,0,45.123,20.428,45.123,45.123V346.182z M61.802,333.834h140.929v-40.792c0-17.907-14.869-32.776-32.776-32.776H94.578
	c-17.907,0-32.776,14.869-32.776,32.776C61.802,293.042,61.802,333.834,61.802,333.834z"/>
<circle style="fill:#FFFFFF;" cx="132.267" cy="187.927" r="31.547"/>
<path style="fill:#193651;" d="M132.267,226.263c-21.01,0-37.689-17.325-37.689-37.689c0-21.01,17.325-37.689,37.689-37.689
	c21.01,0,37.689,17.325,37.689,37.689S153.277,226.263,132.267,226.263z M132.267,162.586c-14.222,0-25.341,11.766-25.341,25.341
	c0,14.222,11.766,25.341,25.341,25.341c14.222,0,25.341-11.766,25.341-25.341S146.489,162.586,132.267,162.586z"/>
<path style="fill:#FFFFFF;" d="M280.63,118.691c-35.232,0-63.03,21.01-63.03,46.998c0,14.804,9.244,28.444,24.113,37.107
	l-16.679,21.01l43.248-12.412c4.331,0.646,8.663,1.228,12.994,1.228c35.232,0,63.03-21.01,63.03-46.998
	S315.863,118.691,280.63,118.691z"/>
<g>
	<path style="fill:#193651;" d="M207.709,234.925l24.76-30.901c-13.576-9.891-21.01-23.467-21.01-38.335
		c0-29.026,30.901-53.139,69.236-53.139s69.236,24.113,69.236,53.139s-30.901,53.139-69.236,53.139c-4.331,0-8.663,0-12.994-0.646
		L207.709,234.925z M280.63,124.897c-31.547,0-56.889,18.554-56.889,40.792c0,12.347,7.434,23.467,21.01,31.547l6.206,3.685
		l-9.244,11.766l25.988-7.434h1.228c4.331,0.646,8.016,1.228,12.347,1.228c31.547,0,56.889-18.554,56.889-40.792
		S312.178,124.897,280.63,124.897z"/>
	<rect x="302.287" y="156.38" style="fill:#193651;" width="12.347" height="12.347"/>
	<rect x="275.717" y="156.38" style="fill:#193651;" width="12.347" height="12.347"/>
	<rect x="249.729" y="156.38" style="fill:#193651;" width="12.347" height="12.347"/>
	<rect x="255.935" y="333.834" style="fill:#193651;" width="88.372" height="12.347"/>
	<rect x="255.935" y="296.727" style="fill:#193651;" width="88.372" height="12.347"/>
	<rect x="255.935" y="260.267" style="fill:#193651;" width="88.372" height="12.347"/>
</g>
<g>
</g>
<g>
</g>
<g>
</g>
<g>
</g>
<g>
</g>
<g>
</g>
<g>
</g>
<g>
</g>
<g>
</g>
<g>
</g>
<g>
</g>
<g>
</g>
<g>
</g>
<g>
</g>
<g>
</g>
</svg>
