<?xml version="1.0" encoding="iso-8859-1"?>
<!-- Generator: Adobe Illustrator 19.0.0, SVG Export Plug-In . SVG Version: 6.00 Build 0)  -->
<svg version="1.1" id="Layer_1" xmlns="http://www.w3.org/2000/svg" xmlns:xlink="http://www.w3.org/1999/xlink" x="0px" y="0px"
	 viewBox="0 0 403.071 403.071" style="enable-background:new 0 0 403.071 403.071;" xml:space="preserve">
<polygon style="fill:#FFFFFF;" points="358.529,228.752 358.529,8.695 43.313,8.695 43.313,228.752 9.309,228.752 38.335,285.576 
	363.507,285.576 392.533,228.752 "/>
<rect x="70.206" y="32.743" style="fill:#2EA2DB;" width="262.723" height="171.83"/>
<g>
	<path style="fill:#193651;" d="M368.42,338.133l-8.663,8.663l14.222,14.222h-85.915v-69.236h79.774l35.232-69.236h-37.689V2.489
		H37.689v220.057H0l34.004,69.236h79.127v69.236H27.216l14.222-14.222l-8.663-8.663L3.103,367.224l30.319,29.026l8.663-8.663
		l-14.222-14.222h98.263v-81.584h68.59v85.333l-14.804-14.222l-8.663,8.663l29.673,29.026l29.673-29.026l-8.663-8.663
		l-14.804,14.222v-85.333h68.59v81.584h98.263l-14.222,14.222l8.663,8.663l29.673-29.026L368.42,338.133z M49.455,14.836h302.933
		v207.709H49.455V14.836z M42.02,279.434l-22.238-44.541h362.861l-22.238,44.541H42.02z"/>
	<rect x="228.719" y="250.99" style="fill:#193651;" width="12.347" height="12.347"/>
	<rect x="194.715" y="250.99" style="fill:#193651;" width="12.347" height="12.347"/>
	<rect x="160.711" y="250.99" style="fill:#193651;" width="12.347" height="12.347"/>
</g>
<g>
</g>
<g>
</g>
<g>
</g>
<g>
</g>
<g>
</g>
<g>
</g>
<g>
</g>
<g>
</g>
<g>
</g>
<g>
</g>
<g>
</g>
<g>
</g>
<g>
</g>
<g>
</g>
<g>
</g>
</svg>
