<?xml version="1.0" encoding="iso-8859-1"?>
<!-- Generator: Adobe Illustrator 19.0.0, SVG Export Plug-In . SVG Version: 6.00 Build 0)  -->
<svg version="1.1" id="Layer_1" xmlns="http://www.w3.org/2000/svg" xmlns:xlink="http://www.w3.org/1999/xlink" x="0px" y="0px"
	 viewBox="0 0 396.283 396.283" style="enable-background:new 0 0 396.283 396.283;" xml:space="preserve">
<path style="fill:#193651;" d="M291.168,249.391H278.82V128.179l68.008-95.806c3.685-5.56,1.875-14.222-3.685-17.907
	c-3.103-1.875-6.206-2.457-9.891-1.875c-3.685,0.646-6.206,2.457-8.016,5.56l-70.465,98.909H140.929L70.465,18.798
	c-1.875-3.103-4.978-4.978-8.663-5.56c-3.103-1.228-6.206-0.646-9.244,1.228c-6.206,3.685-7.434,12.347-3.685,17.907l67.943,95.224
	v121.147h-12.347V131.929L38.335,39.808C30.901,28.042,34.004,12.01,45.77,4.575c5.56-3.685,12.347-4.978,19.135-3.685
	c6.788,1.228,12.347,5.56,16.097,11.119l66.133,92.703h101.366l66.133-92.703c3.685-5.56,9.244-9.244,16.097-10.537
	c6.788-1.228,13.576,0,19.135,3.685c11.766,7.434,14.869,23.467,7.434,35.232l-66.133,92.768V249.391L291.168,249.391z"/>
<circle style="fill:#D3D7DA;" cx="197.818" cy="51.573" r="37.107"/>
<g>
	<path style="fill:#193651;" d="M197.818,94.822c-24.113,0-43.248-19.782-43.248-43.248c0-24.113,19.782-43.248,43.248-43.248
		s43.248,19.782,43.248,43.248C241.067,75.686,221.931,94.822,197.818,94.822z M197.818,20.672
		c-17.325,0-30.901,14.222-30.901,30.901s14.222,30.901,30.901,30.901c17.325,0,30.901-14.222,30.901-30.901
		S215.143,20.672,197.818,20.672z"/>
	<rect x="191.612" y="143.048" style="fill:#193651;" width="12.347" height="12.347"/>
	<rect x="191.612" y="173.367" style="fill:#193651;" width="12.347" height="12.347"/>
	<rect x="191.612" y="202.975" style="fill:#193651;" width="12.347" height="12.347"/>
</g>
<path style="fill:#FDBF5E;" d="M106.925,389.674v-23.467c0-27.798-22.885-50.683-50.683-50.683l0,0
	c-27.798,0-50.683,22.885-50.683,50.683v23.467H106.925z"/>
<path style="fill:#193651;" d="M113.131,395.88H0v-29.673c0-30.901,25.341-56.889,56.889-56.889
	c30.901,0,56.889,25.341,56.889,56.889v29.673H113.131z M12.347,383.533h88.372v-17.325c0-24.113-19.782-44.541-44.477-44.541
	c-24.113,0-44.477,19.782-44.477,44.541v17.325H12.347z"/>
<path style="fill:#F16051;" d="M248.501,389.674v-23.467c0-27.798-22.885-50.683-50.683-50.683l0,0
	c-27.798,0-50.683,22.885-50.683,50.683v23.467H248.501z"/>
<path style="fill:#193651;" d="M254.707,395.88H140.929v-29.673c0-30.901,25.341-56.889,56.889-56.889
	c30.901,0,56.889,25.341,56.889,56.889V395.88z M153.277,383.533h88.372v-17.325c0-24.113-19.782-44.541-44.541-44.541
	c-24.113,0-44.541,19.782-44.541,44.541v17.325H153.277z"/>
<path style="fill:#4FBF9F;" d="M389.43,389.674v-23.467c0-27.798-22.885-50.683-50.683-50.683l0,0
	c-27.798,0-50.683,22.885-50.683,50.683v23.467H389.43z"/>
<g>
	<path style="fill:#193651;" d="M395.636,395.88H282.505v-29.673c0-30.901,25.341-56.889,56.889-56.889
		c30.901,0,56.889,25.341,56.889,56.889v29.673H395.636z M294.853,383.533h88.372v-17.325c0-24.113-19.782-44.541-44.541-44.541
		c-24.113,0-44.477,19.782-44.477,44.541v17.325H294.853z"/>
	<rect x="31.547" y="355.67" style="fill:#193651;" width="12.347" height="12.347"/>
	<rect x="69.236" y="355.67" style="fill:#193651;" width="12.347" height="12.347"/>
	<rect x="172.477" y="355.67" style="fill:#193651;" width="12.347" height="12.347"/>
	<rect x="210.812" y="355.67" style="fill:#193651;" width="12.347" height="12.347"/>
	<rect x="314.053" y="355.67" style="fill:#193651;" width="12.347" height="12.347"/>
	<rect x="351.741" y="355.67" style="fill:#193651;" width="12.347" height="12.347"/>
</g>
<circle style="fill:#FFFFFF;" cx="56.889" cy="266.652" r="27.798"/>
<path style="fill:#193651;" d="M56.889,300.656c-18.554,0-34.004-15.451-34.004-34.004s15.451-34.004,34.004-34.004
	s34.004,15.451,34.004,34.004C90.246,285.852,75.442,300.656,56.889,300.656z M56.889,245.642c-11.766,0-21.657,9.891-21.657,21.657
	c0,11.766,9.891,21.657,21.657,21.657s21.657-9.891,21.657-21.657C78.481,255.533,68.59,245.642,56.889,245.642z"/>
<circle style="fill:#FFFFFF;" cx="197.818" cy="266.652" r="27.798"/>
<path style="fill:#193651;" d="M197.818,300.656c-18.554,0-34.004-15.451-34.004-34.004s15.451-34.004,34.004-34.004
	s34.004,15.451,34.004,34.004C231.822,285.852,216.372,300.656,197.818,300.656z M197.818,245.642
	c-11.766,0-21.657,9.891-21.657,21.657c0,11.766,9.891,21.657,21.657,21.657c11.766,0,21.657-9.891,21.657-21.657
	C219.475,255.533,209.584,245.642,197.818,245.642z"/>
<circle style="fill:#FFFFFF;" cx="338.747" cy="266.652" r="27.798"/>
<path style="fill:#193651;" d="M338.747,300.656c-18.554,0-34.004-15.451-34.004-34.004s15.451-34.004,34.004-34.004
	c18.554,0,34.004,15.451,34.004,34.004C372.751,285.852,357.947,300.656,338.747,300.656z M338.747,245.642
	c-11.766,0-21.657,9.891-21.657,21.657c0,11.766,9.891,21.657,21.657,21.657c11.766,0,21.657-9.891,21.657-21.657
	C360.404,255.533,351.095,245.642,338.747,245.642z"/>
<g>
</g>
<g>
</g>
<g>
</g>
<g>
</g>
<g>
</g>
<g>
</g>
<g>
</g>
<g>
</g>
<g>
</g>
<g>
</g>
<g>
</g>
<g>
</g>
<g>
</g>
<g>
</g>
<g>
</g>
</svg>
