<?xml version="1.0" encoding="iso-8859-1"?>
<!-- Generator: Adobe Illustrator 19.0.0, SVG Export Plug-In . SVG Version: 6.00 Build 0)  -->
<svg version="1.1" id="Layer_1" xmlns="http://www.w3.org/2000/svg" xmlns:xlink="http://www.w3.org/1999/xlink" x="0px" y="0px"
	 viewBox="0 0 395.636 395.636" style="enable-background:new 0 0 395.636 395.636;" xml:space="preserve">
<path style="fill:#FFFFFF;" d="M274.489,82.812c-0.646,0-1.228,0-1.875,0V17.907c0-6.788-4.978-11.766-11.766-11.766H17.907
	c-6.206,0-11.766,4.978-11.766,11.766v334.416h266.408l0,0V312.76c0.646,0,1.228,0,1.875,0c63.483,0,115.006-51.459,115.006-115.006
	S337.972,82.812,274.489,82.812z"/>
<g>
	<path style="fill:#F16051;" d="M272.614,54.432V17.972c0-6.206-4.913-11.766-11.766-11.766H17.907
		c-6.206,0-11.766,4.978-11.766,11.766v36.461"/>
	<path style="fill:#F16051;" d="M6.206,333.834v43.895c0,6.206,4.978,11.766,11.766,11.766h242.941
		c6.206,0,11.766-4.913,11.766-11.766v-43.895H6.206z"/>
</g>
<g>
	<rect x="110.675" y="355.426" style="fill:#193651;" width="58.117" height="12.347"/>
	<rect x="197.172" y="355.426" style="fill:#193651;" width="19.135" height="12.347"/>
	<rect x="63.03" y="355.426" style="fill:#193651;" width="19.135" height="12.347"/>
	<rect x="123.669" y="25.988" style="fill:#193651;" width="31.547" height="12.347"/>
	<path style="fill:#193651;" d="M278.82,77.253V54.368V17.907C278.82,8.016,270.804,0,260.913,0H17.907
		C11.701,0,6.141,3.103,3.038,8.016C1.228,10.537,0,14.222,0,17.907V333.77v24.76v19.135c0,9.956,8.016,17.972,17.907,17.972
		h242.941c9.891,0,17.907-8.016,17.907-17.907v-19.782l0.646,0.646v-40.21c64.323-1.875,116.234-55.661,116.234-120.566
		S343.725,79.127,278.82,77.253z M266.408,377.729c0,3.103-2.457,5.56-5.56,5.56H17.907c-1.745,0-3.297-0.776-4.331-2.069
		L12.347,17.907c-0.646-1.875,2.457-6.206,5.56-5.56h242.941c2.457-0.646,6.788,3.685,5.56,5.56v59.345
		c-62.448,4.331-112.485,56.889-112.485,120.566s50.101,116.234,113.131,120.566v15.451h-0.646V377.729z M166.271,197.818
		c1.228-49.455,33.358-91.475,79.127-104.469c64.259-21.657,144.032,39.564,137.826,104.469
		C373.398,341.269,177.39,343.725,166.271,197.818z"/>
	<polygon style="fill:#193651;" points="296.081,181.721 304.743,190.384 337.519,157.608 304.743,124.251 296.081,132.913 
		314.053,151.467 220.703,151.467 220.703,163.814 314.053,163.814 	"/>
	<polygon style="fill:#193651;" points="253.479,213.915 244.816,205.253 211.394,238.028 244.816,271.386 253.479,262.723 
		235.507,244.17 328.857,244.17 328.857,231.822 235.507,231.822 	"/>
</g>
<g>
</g>
<g>
</g>
<g>
</g>
<g>
</g>
<g>
</g>
<g>
</g>
<g>
</g>
<g>
</g>
<g>
</g>
<g>
</g>
<g>
</g>
<g>
</g>
<g>
</g>
<g>
</g>
<g>
</g>
</svg>
