<?xml version="1.0" encoding="iso-8859-1"?>
<!-- Generator: Adobe Illustrator 19.0.0, SVG Export Plug-In . SVG Version: 6.00 Build 0)  -->
<svg version="1.1" id="Layer_1" xmlns="http://www.w3.org/2000/svg" xmlns:xlink="http://www.w3.org/1999/xlink" x="0px" y="0px"
	 viewBox="0 0 392.533 392.533" style="enable-background:new 0 0 392.533 392.533;" xml:space="preserve">
<path style="fill:#FFFFFF;" d="M10.537,199.693L10.537,199.693L10.537,199.693c103.24,137.244,270.158,137.244,372.751,0l0,0l0,0
	C280.048,62.448,113.131,62.448,10.537,199.693z"/>
<g>
	<path style="fill:#193651;" d="M383.871,132.008C332.606,74.473,265.826,42.343,196.59,42.343S60.574,74.473,9.309,132.008
		L0,123.927c53.786-60.574,123.669-93.931,196.59-93.931s142.804,33.358,195.943,93.931L383.871,132.008z"/>
	<path style="fill:#193651;" d="M197.236,362.537V350.19c3.685,0,8.016,0,11.766-0.646l0.646,12.347
		C205.834,362.537,201.503,362.537,197.236,362.537z M184.824,361.956c-4.331,0-8.663-0.646-12.347-1.228l1.228-12.347
		c3.685,0.646,8.016,0.646,11.766,1.228L184.824,361.956z M222.578,360.727l-1.228-12.347c3.685-0.646,8.016-1.228,11.766-1.875
		l1.875,12.347C231.176,360.081,226.909,360.727,222.578,360.727z M159.483,359.499c-4.331-0.646-8.016-1.228-12.347-2.457
		l2.457-12.347c3.685,0.646,8.016,1.875,11.766,2.457L159.483,359.499z M247.919,356.396l-3.103-11.766
		c3.685-0.646,8.016-1.875,11.766-3.103l3.685,11.766C255.935,354.521,251.604,355.75,247.919,356.396z M134.788,353.875
		c-4.331-1.228-8.016-2.457-12.347-3.685l3.685-11.766c3.685,1.228,7.434,2.457,11.766,3.685L134.788,353.875z M272.032,349.543
		l-4.331-11.701c3.685-1.228,7.434-2.457,11.119-4.331l4.913,11.766C280.048,346.505,276.364,348.315,272.032,349.543z
		 M110.675,345.859c-3.685-1.875-8.016-3.103-11.766-4.978l4.913-11.119c3.685,1.875,7.434,3.103,11.119,4.913L110.675,345.859z
		 M295.499,340.299l-4.913-11.119c3.685-1.875,7.434-3.685,10.537-5.56l5.56,11.119
		C302.933,336.614,299.184,338.424,295.499,340.299z M87.79,335.386c-3.685-1.875-7.434-3.685-11.119-6.206l6.206-10.537
		c3.685,1.875,6.788,3.685,10.537,5.56L87.79,335.386z M317.737,327.952l-6.206-10.537c3.685-1.875,6.788-4.331,10.537-6.206
		l6.788,10.537C325.172,323.62,321.487,326.077,317.737,327.952z M65.552,322.392c-3.685-2.457-6.788-4.913-10.537-7.434
		l7.434-9.891c3.103,2.457,6.788,4.913,9.891,6.788L65.552,322.392z M339.394,314.311l-7.434-9.891
		c3.103-2.457,6.206-4.913,9.891-7.434l7.434,9.891C345.6,309.398,342.497,311.855,339.394,314.311z M45.123,307.523
		c-3.103-2.457-6.206-5.56-9.244-8.016l8.016-9.244c3.103,2.457,6.206,4.913,9.244,7.434L45.123,307.523z M358.529,298.279
		l-8.016-9.244c3.103-2.457,6.206-5.56,8.663-8.016l8.663,8.663C365.382,292.719,362.279,295.822,358.529,298.279z M25.988,290.844
		c-3.103-3.103-6.206-5.56-9.244-8.663l8.663-8.663c3.103,3.103,5.56,5.56,8.663,8.663L25.988,290.844z M377.083,280.954
		l-8.663-8.663c3.103-3.103,5.56-5.56,8.016-8.663l9.244,8.016C382.642,274.747,380.186,277.851,377.083,280.954z M8.663,272.937
		c-3.103-3.103-5.56-6.206-8.016-9.244l9.244-8.016c2.457,3.103,5.56,6.206,8.016,9.244L8.663,272.937z"/>
</g>
<polygon style="fill:#FFFFFF;" points="228.137,176.485 160.711,162.263 174.933,229.624 185.471,209.842 220.057,243.846 
	242.941,221.026 208.356,187.022 "/>
<g>
	<path style="fill:#193651;" d="M196.59,29.996c-72.921,0-142.804,33.358-196.59,93.996l9.244,8.016
		C60.574,74.473,127.354,42.343,196.59,42.343s136.016,32.129,187.281,89.665l8.663-8.016
		C339.394,63.354,269.511,29.996,196.59,29.996z"/>
	<path style="fill:#193651;" d="M76.671,329.18c3.685,2.457,7.434,4.331,11.119,6.206l5.56-11.119
		c-3.685-1.875-6.788-3.685-10.537-5.56L76.671,329.18z"/>
	<path style="fill:#193651;" d="M98.909,340.945c3.685,1.875,8.016,3.103,11.766,4.978l4.331-11.119
		c-3.685-1.875-7.434-3.103-11.119-4.913L98.909,340.945z"/>
	<path style="fill:#193651;" d="M122.44,350.19c4.331,1.228,8.016,2.457,12.347,3.685l3.103-11.766
		c-4.331-1.228-8.016-2.457-11.766-3.685L122.44,350.19z"/>
	<path style="fill:#193651;" d="M35.879,299.507c3.103,2.457,6.206,5.56,9.244,8.016l8.016-9.891
		c-3.103-2.457-6.206-4.913-9.244-7.434L35.879,299.507z"/>
	<path style="fill:#193651;" d="M16.679,282.182c3.103,3.103,6.206,5.56,9.244,8.663l8.016-8.663
		c-3.103-3.103-5.56-5.56-8.663-8.663L16.679,282.182z"/>
	<path style="fill:#193651;" d="M55.014,314.958c3.685,2.457,6.788,4.913,10.537,7.434l6.788-10.537
		c-3.103-1.875-6.788-4.331-9.891-6.788L55.014,314.958z"/>
	<path style="fill:#193651;" d="M9.891,255.612l-9.244,8.016c2.457,3.103,4.913,6.206,8.016,9.244l9.244-8.016
		C15.451,261.818,12.347,258.715,9.891,255.612z"/>
	<path style="fill:#193651;" d="M172.477,360.727c3.685,0.646,8.016,1.228,12.347,1.228l0.646-12.347
		c-3.685-0.646-8.016-0.646-11.766-1.228L172.477,360.727z"/>
	<path style="fill:#193651;" d="M147.135,356.978c4.331,1.228,8.016,1.875,12.347,2.457l1.875-12.347
		c-3.685-0.646-8.016-1.875-11.766-2.457L147.135,356.978z"/>
	<path style="fill:#193651;" d="M331.96,304.42l7.434,9.891c3.103-2.457,6.206-4.978,9.891-7.434l-7.434-9.891
		C338.166,299.507,335.063,301.964,331.96,304.42z"/>
	<path style="fill:#193651;" d="M350.513,288.97l8.016,9.244c3.685-2.457,6.788-5.56,9.244-8.663l-8.598-8.598
		C356.719,283.41,353.616,286.513,350.513,288.97z"/>
	<path style="fill:#193651;" d="M311.596,317.414l6.206,10.537c3.685-1.875,7.434-4.331,11.119-6.206l-6.788-10.537
		C318.384,313.083,315.281,315.604,311.596,317.414z"/>
	<path style="fill:#193651;" d="M376.501,263.628c-2.457,3.103-4.978,5.56-8.016,8.663l8.663,8.663
		c3.103-3.103,5.56-6.206,8.663-9.244L376.501,263.628z"/>
	<path style="fill:#193651;" d="M221.349,348.315l1.228,12.347c4.331,0,8.663-0.646,12.347-1.875l-1.875-12.347
		C229.366,347.087,225.034,347.733,221.349,348.315z"/>
	<path style="fill:#193651;" d="M197.236,350.19v12.347c4.331,0,8.663,0,12.347-0.646l-0.646-12.347
		C205.253,350.19,200.921,350.19,197.236,350.19z"/>
	<path style="fill:#193651;" d="M244.816,344.63l3.103,11.766c3.685-0.646,8.016-1.875,12.347-3.103l-3.685-11.766
		C252.832,342.756,248.501,343.984,244.816,344.63z"/>
	<path style="fill:#193651;" d="M267.701,337.842l4.331,11.766c4.331-1.228,8.016-3.103,11.766-4.331l-4.978-11.766
		C275.071,335.386,271.386,336.614,267.701,337.842z"/>
	<path style="fill:#193651;" d="M290.586,329.18l4.913,11.119c3.685-1.875,7.434-3.685,11.119-5.56l-5.56-11.119
		C297.956,325.495,294.271,327.305,290.586,329.18z"/>
	<path style="fill:#193651;" d="M388.849,196.267C337.519,128.259,269.511,90.57,197.236,90.57
		c-72.921,0-140.929,37.689-191.612,105.697l-3.685,3.103l3.103,3.685c51.2,68.008,119.208,105.697,191.547,105.697
		s140.347-37.107,191.612-105.115l3.685-3.685L388.849,196.267z M17.907,199.952c22.238-28.832,47.838-51.717,75.507-68.008
		c-13.123,19.653-20.752,43.248-20.752,68.655c0,24.63,7.176,47.58,19.588,66.844C65.034,251.152,39.952,228.461,17.907,199.952z
		 M273.261,281.471c-24.501,10.214-50.23,15.58-76.671,15.58c-26.053,0-51.459-5.172-75.572-15.127
		c-21.786-20.299-35.426-49.261-35.426-81.325c0-33.099,14.545-62.901,37.56-83.329c23.596-9.438,48.291-14.352,73.438-14.352
		c25.6,0,50.554,4.978,74.279,14.61c22.885,20.428,37.301,50.036,37.301,83.071C308.17,232.404,294.788,261.172,273.261,281.471z
		 M301.964,266.861c12.154-19.2,19.2-41.891,19.2-66.263c0-25.212-7.564-48.614-20.493-68.202
		c27.281,16.291,52.493,39.046,74.602,67.62C353.487,228.137,328.727,250.634,301.964,266.861z"/>
</g>
<circle style="fill:#F16051;" cx="196.913" cy="199.693" r="79.451"/>
<polygon style="fill:#FFFFFF;" points="228.137,176.485 160.711,162.263 174.933,229.624 185.471,209.842 220.057,243.846 
	242.941,221.026 208.356,187.022 "/>
<g>
</g>
<g>
</g>
<g>
</g>
<g>
</g>
<g>
</g>
<g>
</g>
<g>
</g>
<g>
</g>
<g>
</g>
<g>
</g>
<g>
</g>
<g>
</g>
<g>
</g>
<g>
</g>
<g>
</g>
</svg>
