<?xml version="1.0" encoding="iso-8859-1"?>
<!-- Generator: Adobe Illustrator 19.0.0, SVG Export Plug-In . SVG Version: 6.00 Build 0)  -->
<svg version="1.1" id="Layer_1" xmlns="http://www.w3.org/2000/svg" xmlns:xlink="http://www.w3.org/1999/xlink" x="0px" y="0px"
	 viewBox="0 0 395.636 395.636" style="enable-background:new 0 0 395.636 395.636;" xml:space="preserve">
<g>
	<rect x="102.562" y="6.206" style="fill:#FFFFFF;" width="249.729" height="383.289"/>
	<rect x="43.216" y="6.206" style="fill:#FFFFFF;" width="59.345" height="383.289"/>
</g>
<path style="fill:#193651;" d="M37.075,0v395.636h321.487V0H37.075z M96.42,383.289H49.422v-22.885h16.679v-12.347H49.422v-32.776
	h16.679v-12.347H49.422v-32.129h16.679v-12.347H49.422v-32.194h16.679v-12.347H49.422v-32.129h16.679v-12.412H49.422v-32.129h16.679
	v-12.347H49.422V92.768h16.679V80.42H49.422V47.644h16.679V35.297H49.422V12.412H96.42V383.289z M346.149,383.289H108.768V12.347
	h237.382V383.289z"/>
<polygon style="fill:#E1E6E9;" points="272,30.901 127.321,30.901 127.321,364.735 327.596,364.735 327.596,86.562 "/>
<polygon style="fill:#4FBF9F;" points="272,86.562 327.596,86.562 272,30.901 "/>
<g>
	<rect x="150.206" y="333.834" style="fill:#193651;" width="12.347" height="12.347"/>
	<rect x="178.65" y="333.834" style="fill:#193651;" width="12.347" height="12.347"/>
	<rect x="207.03" y="333.834" style="fill:#193651;" width="12.347" height="12.347"/>
	<rect x="235.475" y="333.834" style="fill:#193651;" width="12.347" height="12.347"/>
	<rect x="263.919" y="333.834" style="fill:#193651;" width="12.347" height="12.347"/>
	<rect x="292.364" y="333.834" style="fill:#193651;" width="12.347" height="12.347"/>
	<rect x="150.206" y="284.38" style="fill:#193651;" width="12.347" height="12.347"/>
	<rect x="178.65" y="284.38" style="fill:#193651;" width="12.347" height="12.347"/>
	<rect x="207.03" y="284.38" style="fill:#193651;" width="12.347" height="12.347"/>
	<rect x="235.475" y="284.38" style="fill:#193651;" width="12.347" height="12.347"/>
	<rect x="263.919" y="284.38" style="fill:#193651;" width="12.347" height="12.347"/>
	<rect x="292.364" y="284.38" style="fill:#193651;" width="12.347" height="12.347"/>
	<rect x="150.206" y="234.925" style="fill:#193651;" width="12.347" height="12.347"/>
	<rect x="178.65" y="234.925" style="fill:#193651;" width="12.347" height="12.347"/>
	<rect x="207.03" y="234.925" style="fill:#193651;" width="12.347" height="12.347"/>
	<rect x="235.475" y="234.925" style="fill:#193651;" width="12.347" height="12.347"/>
	<rect x="263.919" y="234.925" style="fill:#193651;" width="12.347" height="12.347"/>
	<rect x="292.364" y="234.925" style="fill:#193651;" width="12.347" height="12.347"/>
	<rect x="150.206" y="185.471" style="fill:#193651;" width="12.347" height="12.347"/>
	<rect x="178.65" y="185.471" style="fill:#193651;" width="12.347" height="12.347"/>
	<rect x="207.03" y="185.471" style="fill:#193651;" width="12.347" height="12.347"/>
	<rect x="235.475" y="185.471" style="fill:#193651;" width="12.347" height="12.347"/>
	<rect x="263.919" y="185.471" style="fill:#193651;" width="12.347" height="12.347"/>
	<rect x="292.364" y="185.471" style="fill:#193651;" width="12.347" height="12.347"/>
	<rect x="150.206" y="136.598" style="fill:#193651;" width="12.347" height="12.347"/>
	<rect x="178.65" y="136.598" style="fill:#193651;" width="12.347" height="12.347"/>
	<rect x="207.03" y="136.598" style="fill:#193651;" width="12.347" height="12.347"/>
	<rect x="235.475" y="136.598" style="fill:#193651;" width="12.347" height="12.347"/>
	<rect x="263.919" y="136.598" style="fill:#193651;" width="12.347" height="12.347"/>
	<rect x="292.364" y="136.598" style="fill:#193651;" width="12.347" height="12.347"/>
</g>
<g>
</g>
<g>
</g>
<g>
</g>
<g>
</g>
<g>
</g>
<g>
</g>
<g>
</g>
<g>
</g>
<g>
</g>
<g>
</g>
<g>
</g>
<g>
</g>
<g>
</g>
<g>
</g>
<g>
</g>
</svg>
