<?xml version="1.0" encoding="iso-8859-1"?>
<!-- Generator: Adobe Illustrator 19.0.0, SVG Export Plug-In . SVG Version: 6.00 Build 0)  -->
<svg version="1.1" id="Layer_1" xmlns="http://www.w3.org/2000/svg" xmlns:xlink="http://www.w3.org/1999/xlink" x="0px" y="0px"
	 viewBox="0 0 395.636 395.636" style="enable-background:new 0 0 395.636 395.636;" xml:space="preserve">
<g>
	<polygon style="fill:#FDBF5E;" points="117.463,389.43 6.206,389.43 6.206,179.265 117.463,105.115 	"/>
	<polygon style="fill:#FDBF5E;" points="389.43,389.43 278.174,389.43 278.174,105.115 389.43,179.265 	"/>
</g>
<rect x="117.463" y="6.206" style="fill:#FFFFFF;" width="160.129" height="383.289"/>
<g>
	<rect x="142.158" y="225.034" style="fill:#2EA2DB;" width="20.428" height="20.428"/>
	<rect x="187.927" y="225.034" style="fill:#2EA2DB;" width="20.428" height="20.428"/>
	<rect x="232.404" y="225.034" style="fill:#2EA2DB;" width="20.428" height="20.428"/>
	<rect x="142.158" y="162.586" style="fill:#2EA2DB;" width="20.428" height="20.428"/>
	<rect x="187.927" y="162.586" style="fill:#2EA2DB;" width="20.428" height="20.428"/>
	<rect x="232.404" y="162.586" style="fill:#2EA2DB;" width="20.428" height="20.428"/>
	<rect x="142.158" y="100.137" style="fill:#2EA2DB;" width="20.428" height="20.428"/>
	<rect x="187.927" y="100.137" style="fill:#2EA2DB;" width="20.428" height="20.428"/>
	<rect x="232.404" y="100.137" style="fill:#2EA2DB;" width="20.428" height="20.428"/>
	<rect x="142.158" y="37.689" style="fill:#2EA2DB;" width="20.428" height="20.428"/>
	<rect x="187.927" y="37.689" style="fill:#2EA2DB;" width="20.428" height="20.428"/>
	<rect x="232.404" y="37.689" style="fill:#2EA2DB;" width="20.428" height="20.428"/>
</g>
<g>
	<rect x="301.059" y="335.644" style="fill:#FFFFFF;" width="20.428" height="20.428"/>
	<rect x="346.182" y="335.644" style="fill:#FFFFFF;" width="20.428" height="20.428"/>
	<rect x="301.059" y="274.489" style="fill:#FFFFFF;" width="20.428" height="18.554"/>
	<rect x="346.182" y="274.489" style="fill:#FFFFFF;" width="20.428" height="18.554"/>
	<rect x="301.059" y="210.812" style="fill:#FFFFFF;" width="20.428" height="20.428"/>
	<rect x="346.182" y="210.812" style="fill:#FFFFFF;" width="20.428" height="20.428"/>
	<rect x="29.026" y="335.644" style="fill:#FFFFFF;" width="20.428" height="20.428"/>
	<rect x="74.214" y="335.644" style="fill:#FFFFFF;" width="20.428" height="20.428"/>
	<rect x="29.026" y="274.489" style="fill:#FFFFFF;" width="20.428" height="18.554"/>
	<rect x="74.214" y="274.489" style="fill:#FFFFFF;" width="20.428" height="18.554"/>
	<rect x="29.026" y="210.812" style="fill:#FFFFFF;" width="20.428" height="20.428"/>
	<rect x="74.214" y="210.812" style="fill:#FFFFFF;" width="20.428" height="20.428"/>
</g>
<rect x="156.38" y="286.19" style="fill:#2EA2DB;" width="83.459" height="103.24"/>
<g>
	<rect x="144.679" y="280.048" style="fill:#193651;" width="106.343" height="12.347"/>
	<path style="fill:#193651;" d="M284.38,102.012V0H111.257v102.012L0,176.162v219.475h395.636V176.162L284.38,102.012z
		 M111.257,383.289H12.347V183.014l98.909-66.133V383.289z M272.032,383.289H123.669V12.347h148.364V383.289z M383.289,383.289
		H284.38V116.816l98.909,66.133V383.289z"/>
</g>
<g>
</g>
<g>
</g>
<g>
</g>
<g>
</g>
<g>
</g>
<g>
</g>
<g>
</g>
<g>
</g>
<g>
</g>
<g>
</g>
<g>
</g>
<g>
</g>
<g>
</g>
<g>
</g>
<g>
</g>
</svg>
