<?xml version="1.0" encoding="iso-8859-1"?>
<!-- Generator: Adobe Illustrator 19.0.0, SVG Export Plug-In . SVG Version: 6.00 Build 0)  -->
<svg version="1.1" id="Layer_1" xmlns="http://www.w3.org/2000/svg" xmlns:xlink="http://www.w3.org/1999/xlink" x="0px" y="0px"
	 viewBox="0 0 396.283 396.283" style="enable-background:new 0 0 396.283 396.283;" xml:space="preserve">
<circle style="fill:#FDBF5E;" cx="197.818" cy="198.141" r="197.818"/>
<rect x="25.341" y="89.341" style="fill:#FFFFFF;" width="334.416" height="238.028"/>
<rect x="56.242" y="120.242" style="fill:#2EA2DB;" width="272.614" height="176.162"/>
<path style="fill:#E1E6E9;" d="M389.43,321.164L389.43,321.164c0,26.57-20.428,47.58-46.352,47.58H52.558
	c-25.341,0-46.352-21.01-46.352-47.58l0,0"/>
<g>
	<polygon style="fill:#193651;" points="19.135,83.135 19.135,321.164 31.547,321.164 31.547,94.901 352.97,94.901 352.97,321.164 
		365.317,321.164 365.317,83.135 	"/>
	<path style="fill:#193651;" d="M383.289,321.164c0,22.885-17.907,41.438-40.21,41.438H52.558c-22.238,0-40.21-18.554-40.21-41.438
		H0c0,29.673,23.467,53.786,52.558,53.786h291.168c29.026,0,52.558-24.113,52.558-53.786H383.289z"/>
</g>
<path style="fill:#FFFFFF;" d="M225.616,343.402h-56.242c-9.244,0-16.679-8.016-16.679-17.325v-4.978h90.246v4.978
	C242.941,335.386,235.507,343.402,225.616,343.402z"/>
<g>
	<rect x="272.614" y="339.071" style="fill:#193651;" width="12.347" height="10.537"/>
	<rect x="301.059" y="339.071" style="fill:#193651;" width="12.347" height="10.537"/>
	<rect x="329.503" y="339.071" style="fill:#193651;" width="12.347" height="10.537"/>
	<rect x="53.786" y="339.071" style="fill:#193651;" width="12.347" height="10.537"/>
	<rect x="82.23" y="339.071" style="fill:#193651;" width="12.347" height="10.537"/>
	<rect x="110.675" y="339.071" style="fill:#193651;" width="12.347" height="10.537"/>
</g>
<g>
</g>
<g>
</g>
<g>
</g>
<g>
</g>
<g>
</g>
<g>
</g>
<g>
</g>
<g>
</g>
<g>
</g>
<g>
</g>
<g>
</g>
<g>
</g>
<g>
</g>
<g>
</g>
<g>
</g>
</svg>
