<?xml version="1.0" encoding="iso-8859-1"?>
<!-- Generator: Adobe Illustrator 19.0.0, SVG Export Plug-In . SVG Version: 6.00 Build 0)  -->
<svg version="1.1" id="Layer_1" xmlns="http://www.w3.org/2000/svg" xmlns:xlink="http://www.w3.org/1999/xlink" x="0px" y="0px"
	 viewBox="0 0 395.636 395.636" style="enable-background:new 0 0 395.636 395.636;" xml:space="preserve">
<circle style="fill:#FFFFFF;" cx="197.818" cy="197.818" r="99.556"/>
<g>
	<path style="fill:#193651;" d="M303.515,191.612c-3.103-53.786-45.77-96.453-99.556-99.556V56.889h-12.347v35.232
		c-53.786,3.103-96.453,45.77-99.556,99.556H56.889v12.347h35.232c3.103,53.786,45.77,96.452,99.556,99.556v35.168h12.347v-35.232
		c53.786-3.103,96.452-45.77,99.556-99.556h35.168v-12.347H303.515z M197.818,291.168c-51.911,0-93.349-42.02-93.349-93.349
		c0-51.911,42.02-93.349,93.349-93.349c51.911,0,93.349,42.02,93.349,93.349C291.168,249.729,249.729,291.168,197.818,291.168z"/>
	<path style="fill:#193651;" d="M135.37,176.808l-11.766-3.685c-1.228,4.331-2.457,8.663-3.103,12.994l12.347,1.875
		C133.495,184.242,134.141,180.493,135.37,176.808z"/>
	<path style="fill:#193651;" d="M132.267,199.693h-12.347c0,4.978,0.646,9.244,1.228,13.576l12.347-2.457
		C132.913,207.063,132.267,203.378,132.267,199.693z"/>
	<path style="fill:#193651;" d="M146.489,157.026l-9.891-7.434c-3.103,3.685-5.56,7.434-7.434,11.119l10.537,6.206
		C141.576,163.232,144.032,160.129,146.489,157.026z"/>
	<path style="fill:#193651;" d="M136.598,221.931l-11.766,4.331c1.875,3.685,3.685,8.016,6.206,11.766l10.537-6.206
		C139.701,228.719,137.826,225.616,136.598,221.931z"/>
	<path style="fill:#193651;" d="M254.061,144.032c-3.103-3.103-6.206-6.206-9.891-8.663l-7.434,9.891
		c3.103,1.875,6.206,4.978,8.663,7.434L254.061,144.032z"/>
	<path style="fill:#193651;" d="M263.37,193.487l11.766-1.228c0-4.331-0.646-8.663-1.875-12.994l-11.766,3.103
		C262.723,186.053,263.37,189.802,263.37,193.487z"/>
	<path style="fill:#193651;" d="M257.81,171.248l11.119-4.978c-1.228-4.331-3.685-8.016-6.206-11.766l-10.537,6.788
		C254.707,164.461,256.517,167.499,257.81,171.248z"/>
	<path style="fill:#193651;" d="M163.232,142.158l-6.788-10.537c-3.685,2.457-7.434,4.913-10.537,8.016l8.016,9.244
		C156.38,146.489,159.483,144.032,163.232,142.158z"/>
	<path style="fill:#193651;" d="M148.364,241.067l-9.244,8.016c2.457,3.103,5.56,6.206,9.244,9.244l8.016-9.244
		C153.277,246.626,150.82,244.17,148.364,241.067z"/>
	<path style="fill:#193651;" d="M186.053,262.077l-1.875,12.348c4.331,0.646,9.244,1.228,13.576,1.228c2.457,0,4.913,0,6.788-0.646
		l-1.228-12.347C197.818,263.37,191.612,263.37,186.053,262.077z"/>
	<path style="fill:#193651;" d="M235.507,252.251l6.788,9.891c3.685-3.103,7.434-5.56,10.537-8.663l-8.663-8.663
		C241.713,247.919,238.61,250.376,235.507,252.251z"/>
	<path style="fill:#193651;" d="M216.954,134.788c3.685,1.228,7.434,2.457,10.537,4.331l5.56-11.119
		c-3.685-1.875-8.016-3.685-12.347-4.913L216.954,134.788z"/>
	<path style="fill:#193651;" d="M251.604,235.507l9.891,7.434c2.457-3.685,4.978-7.434,6.788-11.766l-11.119-5.56
		C255.935,229.366,254.061,232.404,251.604,235.507z"/>
	<path style="fill:#193651;" d="M263.37,204.606c0,3.685-0.646,7.434-1.875,11.119l11.766,3.103
		c1.228-4.331,1.875-8.663,2.457-12.994L263.37,204.606z"/>
	<path style="fill:#193651;" d="M194.715,132.267c3.685,0,7.434,0,11.119,0.646l1.875-12.347c-4.331-0.646-9.244-0.646-13.576-0.646
		L194.715,132.267z"/>
	<path style="fill:#193651;" d="M215.143,261.495l3.103,11.766c4.331-1.228,8.663-3.103,12.347-4.331l-4.913-11.119
		C222.578,259.038,218.828,260.267,215.143,261.495z"/>
	<path style="fill:#193651;" d="M168.145,126.125l4.913,11.119c3.103-1.875,6.788-2.457,10.537-3.103l-2.457-12.347
		C176.808,123.022,172.477,124.251,168.145,126.125z"/>
	<path style="fill:#193651;" d="M158.901,265.826c4.331,2.457,8.016,4.331,12.347,5.56l4.331-11.119
		c-3.685-1.228-7.434-3.103-10.537-4.978L158.901,265.826z"/>
</g>
<path style="fill:#F16051;" d="M197.818,238.61c-22.885,0-40.792-18.554-40.792-40.792c0-22.885,18.554-40.792,40.792-40.792
	c22.885,0,40.792,18.554,40.792,40.792C238.61,220.703,220.703,238.61,197.818,238.61z"/>
<g>
	<polygon style="fill:#193651;" points="12.347,68.59 0,68.59 0,0 68.59,0 68.59,12.347 12.347,12.347 	"/>
	<polygon style="fill:#193651;" points="395.636,68.59 383.289,68.59 383.289,12.347 327.046,12.347 327.046,0 395.636,0 	"/>
	<polygon style="fill:#193651;" points="12.347,68.59 0,68.59 0,0 68.59,0 68.59,12.347 12.347,12.347 	"/>
	<polygon style="fill:#193651;" points="395.636,395.636 327.046,395.636 327.046,383.289 383.289,383.289 383.289,327.046 
		395.636,327.046 	"/>
	<polygon style="fill:#193651;" points="68.59,395.636 0,395.636 0,327.046 12.347,327.046 12.347,383.289 68.59,383.289 	"/>
	<polygon style="fill:#193651;" points="395.636,395.636 327.046,395.636 327.046,383.289 383.289,383.289 383.289,327.046 
		395.636,327.046 	"/>
</g>
<g>
	<circle style="fill:#FFFFFF;" cx="321.487" cy="321.487" r="22.238"/>
	<circle style="fill:#FFFFFF;" cx="321.487" cy="74.214" r="22.238"/>
	<circle style="fill:#FFFFFF;" cx="74.214" cy="321.487" r="22.238"/>
	<circle style="fill:#FFFFFF;" cx="74.214" cy="74.214" r="22.238"/>
</g>
<g>
	<path style="fill:#193651;" d="M74.214,102.594c-15.451,0-28.444-12.994-28.444-28.444s12.994-28.444,28.444-28.444
		s28.444,12.994,28.444,28.444S89.665,102.594,74.214,102.594z M74.214,58.117c-8.663,0-16.097,7.434-16.097,16.097
		s7.434,16.097,16.097,16.097s16.097-7.434,16.097-16.097C90.246,64.905,82.812,58.117,74.214,58.117z"/>
	<path style="fill:#193651;" d="M74.214,349.867c-15.451,0-28.444-12.994-28.444-28.444c0-15.451,12.994-28.444,28.444-28.444
		s28.444,12.994,28.444,28.444C102.594,337.519,89.665,349.867,74.214,349.867z M74.214,305.39c-8.663,0-16.097,7.434-16.097,16.097
		c0,8.663,7.434,16.097,16.097,16.097s16.097-7.434,16.097-16.097C90.311,312.824,82.812,305.39,74.214,305.39z"/>
	<path style="fill:#193651;" d="M321.487,102.594c-15.451,0-28.444-12.994-28.444-28.444s12.994-28.444,28.444-28.444
		s28.444,12.994,28.444,28.444S337.519,102.594,321.487,102.594z M321.487,58.117c-8.663,0-16.097,7.434-16.097,16.097
		s7.434,16.097,16.097,16.097c8.663,0,16.097-7.434,16.097-16.097C337.519,64.905,330.731,58.117,321.487,58.117z"/>
	<path style="fill:#193651;" d="M321.487,349.867c-15.451,0-28.444-12.994-28.444-28.444c0-15.451,12.994-28.444,28.444-28.444
		s28.444,12.994,28.444,28.444C349.867,337.519,337.519,349.867,321.487,349.867z M321.487,305.39
		c-8.663,0-16.097,7.434-16.097,16.097c0,8.663,7.434,16.097,16.097,16.097c8.663,0,16.097-7.434,16.097-16.097
		C337.584,312.824,330.731,305.39,321.487,305.39z"/>
</g>
<g>
</g>
<g>
</g>
<g>
</g>
<g>
</g>
<g>
</g>
<g>
</g>
<g>
</g>
<g>
</g>
<g>
</g>
<g>
</g>
<g>
</g>
<g>
</g>
<g>
</g>
<g>
</g>
<g>
</g>
</svg>
