<?xml version="1.0" encoding="iso-8859-1"?>
<!-- Generator: Adobe Illustrator 19.0.0, SVG Export Plug-In . SVG Version: 6.00 Build 0)  -->
<svg version="1.1" id="Layer_1" xmlns="http://www.w3.org/2000/svg" xmlns:xlink="http://www.w3.org/1999/xlink" x="0px" y="0px"
	 viewBox="0 0 383.289 383.289" style="enable-background:new 0 0 383.289 383.289;" xml:space="preserve">
<circle style="fill:#F16051;" cx="191.644" cy="210.812" r="172.477"/>
<path style="fill:#FFFFFF;" d="M191.644,357.366L191.644,357.366c-50.101,0-90.893-40.792-90.893-90.893V111.321
	c0-12.347,9.891-22.238,22.238-22.238h137.244c12.347,0,22.238,9.891,22.238,22.238v154.57
	C282.537,316.574,241.745,357.366,191.644,357.366z"/>
<path style="fill:#FDBF5E;" d="M282.537,187.992v-76.671c0-12.347-9.891-22.238-22.238-22.238H123.055
	c-12.347,0-22.238,9.891-22.238,22.238v77.253h181.721V187.992z"/>
<path style="fill:#FFFFFF;" d="M191.644,110.675L191.644,110.675c-9.244,0-16.679,7.434-16.679,16.679v21.01
	c0,9.244,7.434,16.679,16.679,16.679l0,0c9.244,0,16.679-7.434,16.679-16.679v-21.01
	C208.323,118.756,200.889,110.675,191.644,110.675z"/>
<g>
	<path style="fill:#193651;" d="M260.234,82.23h-62.448v-8.016c0-13.576-11.119-24.76-24.76-24.76h-53.139
		c-7.434,0-12.994-5.56-12.994-12.994s5.56-12.994,12.994-12.994h58.699c10.537,0,19.782-8.663,19.782-19.782V0H186.02v3.685
		c0,3.685-3.103,7.434-7.434,7.434h-58.699c-14.222,0-25.341,11.119-25.341,25.341s11.119,25.341,25.341,25.341h53.139
		c6.788,0,12.347,5.56,12.347,12.347v8.016h-62.448c-16.097,0-28.444,12.994-28.444,28.444v155.152
		c0,53.786,43.895,97.034,97.034,97.034s97.034-43.249,97.034-97.034v-154.44C288.679,95.224,275.685,82.23,260.234,82.23z
		 M191.644,116.881c6.206,0,10.537,4.913,10.537,10.537v21.01c0,6.206-4.913,10.537-10.537,10.537
		c-6.206,0-10.537-4.913-10.537-10.537v-21.01C181.107,121.794,185.438,116.881,191.644,116.881z M106.958,111.321
		c0-8.663,7.434-16.097,16.097-16.097h62.448v11.119c-9.891,2.457-16.679,11.766-16.679,22.238v21.075
		c0,10.537,7.434,19.135,16.679,22.238v11.119h-78.545V111.321z M276.331,265.891c0,46.998-38.335,84.687-84.687,84.687
		c-46.998,0-84.687-38.335-84.687-84.687v-71.758h170.02v71.693h-0.646V265.891z M276.331,181.786h-78.481v-11.119
		c9.891-2.457,16.679-11.766,16.679-22.238v-21.01c0-10.537-7.434-19.135-16.679-22.238V94.061h62.448
		c9.244,0,16.097,7.434,16.097,16.097L276.331,181.786L276.331,181.786z"/>
	<rect x="155.766" y="217.018" style="fill:#193651;" width="12.347" height="11.766"/>
	<rect x="185.438" y="217.018" style="fill:#193651;" width="12.347" height="11.766"/>
	<rect x="215.111" y="217.018" style="fill:#193651;" width="12.347" height="11.766"/>
</g>
<g>
</g>
<g>
</g>
<g>
</g>
<g>
</g>
<g>
</g>
<g>
</g>
<g>
</g>
<g>
</g>
<g>
</g>
<g>
</g>
<g>
</g>
<g>
</g>
<g>
</g>
<g>
</g>
<g>
</g>
</svg>
