<?xml version="1.0" encoding="iso-8859-1"?>
<!-- Generator: Adobe Illustrator 19.0.0, SVG Export Plug-In . SVG Version: 6.00 Build 0)  -->
<svg version="1.1" id="Layer_1" xmlns="http://www.w3.org/2000/svg" xmlns:xlink="http://www.w3.org/1999/xlink" x="0px" y="0px"
	 viewBox="0 0 396.283 396.283" style="enable-background:new 0 0 396.283 396.283;" xml:space="preserve">
<g>
	<path style="fill:#FFFFFF;" d="M35.879,390.723L35.879,390.723c-16.097,0-29.026-12.994-29.026-29.673V254.707h58.699v106.343
		C65.552,377.729,52.558,390.723,35.879,390.723z"/>
	<path style="fill:#FFFFFF;" d="M362.925,22.885L335.709,7.434l-27.216,15.451L281.277,7.434l-27.216,15.451L226.909,7.434
		l-27.216,15.451L173.705,7.434l-27.216,15.451L119.273,7.434L92.057,22.885l-26.57-9.891v348.638
		c0,16.097-12.994,29.673-29.026,29.673h324.525c16.097,0,29.026-12.994,29.026-29.673V12.994L362.925,22.885z"/>
</g>
<path style="fill:#193651;" d="M363.507,16.097L335.709,0l-27.216,15.515L281.277,0l-27.152,15.515L226.909,0l-27.216,15.515
	L173.77,0l-27.216,15.515L119.337,0L91.539,16.097L59.345,3.749v244.816H0.646v112.485c0,19.782,16.097,35.232,35.232,35.232
	h324.525c19.782,0,35.232-16.097,35.232-35.879V4.331L363.507,16.097z M59.345,361.051c0,12.994-10.537,23.467-22.885,23.467
	s-23.467-10.537-23.467-23.467V260.913h46.352V361.051z M383.935,361.051c0,12.994-10.537,23.467-22.885,23.467H63.095l0,0
	c3.685-0.646,8.663-20.428,8.663-22.885V248.501V21.657l21.657,8.016l26.57-15.451L147.2,29.673l26.57-15.451l27.216,15.451
	l27.216-15.451l27.216,15.451l27.216-15.451l27.216,15.451l27.216-15.451l26.57,15.451l20.428-8.016v339.394H383.935z"/>
<rect x="90.311" y="72.339" style="fill:#F16051;" width="275.071" height="293.624"/>
<g>
	<rect x="108.8" y="221.931" style="fill:#193651;" width="132.913" height="12.347"/>
	<rect x="108.8" y="275.717" style="fill:#193651;" width="132.913" height="12.347"/>
	<rect x="108.8" y="329.503" style="fill:#193651;" width="132.913" height="12.347"/>
	<rect x="272.679" y="95.224" style="fill:#193651;" width="74.214" height="12.347"/>
	<rect x="272.679" y="134.141" style="fill:#193651;" width="74.214" height="12.347"/>
	<rect x="272.679" y="173.123" style="fill:#193651;" width="74.214" height="12.347"/>
</g>
<rect x="115.006" y="101.43" style="fill:#FFFFFF;" width="126.707" height="77.899"/>
<path style="fill:#193651;" d="M247.919,185.471H108.8V95.224h139.119V185.471z M121.212,173.123h114.36v-65.552h-114.36V173.123z"
	/>
<rect x="278.82" y="228.137" style="fill:#FFFFFF;" width="61.802" height="108.154"/>
<g>
	<path style="fill:#193651;" d="M346.828,341.915h-74.15V221.931h74.214v119.984H346.828z M285.026,329.503h49.455v-95.16h-49.455
		L285.026,329.503L285.026,329.503z"/>
	<rect x="141.576" y="134.141" style="fill:#193651;" width="12.347" height="12.347"/>
	<rect x="171.895" y="134.141" style="fill:#193651;" width="12.347" height="12.347"/>
	<rect x="202.796" y="134.141" style="fill:#193651;" width="12.347" height="12.347"/>
	<rect x="303.58" y="257.164" style="fill:#193651;" width="12.347" height="12.347"/>
	<rect x="303.58" y="294.271" style="fill:#193651;" width="12.347" height="12.347"/>
</g>
<g>
</g>
<g>
</g>
<g>
</g>
<g>
</g>
<g>
</g>
<g>
</g>
<g>
</g>
<g>
</g>
<g>
</g>
<g>
</g>
<g>
</g>
<g>
</g>
<g>
</g>
<g>
</g>
<g>
</g>
</svg>
