<?xml version="1.0" encoding="iso-8859-1"?>
<!-- Generator: Adobe Illustrator 19.0.0, SVG Export Plug-In . SVG Version: 6.00 Build 0)  -->
<svg version="1.1" id="Layer_1" xmlns="http://www.w3.org/2000/svg" xmlns:xlink="http://www.w3.org/1999/xlink" x="0px" y="0px"
	 viewBox="0 0 395.636 395.636" style="enable-background:new 0 0 395.636 395.636;" xml:space="preserve">
<polyline style="fill:#4FBF9F;" points="389.43,392.533 389.43,259.038 293.624,259.038 293.624,301.059 197.818,301.059 
	197.818,339.976 102.012,339.976 102.012,362.279 6.206,362.279 6.206,392.533 "/>
<path id="SVGCleanerId_0" style="fill:#FFFFFF;" d="M326.4,119.919c-3.103-6.206-11.119-8.663-17.325-6.788l-37.689,10.537
	l-21.01-29.673L221.35,77.317c-13.576-7.434-29.673-7.434-43.248,0l-34.004,19.135c-1.875,1.228-3.103,2.457-4.331,4.331
	l-22.238,37.107c-3.685,6.788-2.457,15.451,4.331,19.782c6.206,3.685,14.222,1.875,18.554-3.685l18.554-24.76
	c5.56-7.434,13.576-12.994,22.885-15.45l0,0l-11.766,56.889l-6.788,33.358l-6.788,29.026l-46.352,53.786
	c-6.206,6.788-6.788,17.325-1.228,24.76c7.434,9.244,21.01,9.244,28.444,0.646l53.139-61.802l8.663-29.673
	c1.875-6.788,8.016-11.766,15.451-10.537c8.016,1.228,13.576,8.663,12.347,16.097l-5.56,32.129
	c-1.875,9.891,4.331,19.782,13.576,22.238c10.537,2.457,20.428-4.331,22.238-14.869l8.016-42.02l0,0
	c4.913-19.782-6.206-40.21-25.341-47.58l-6.788-2.457l8.663-40.792l17.325,24.113l58.117-16.097
	C326.4,139.119,331.313,128.582,326.4,119.919z"/>
<circle style="fill:#FFFFFF;" cx="249.147" cy="37.689" r="28.444"/>
<path id="SVGCleanerId_1" style="fill:#193651;" d="M249.147,72.339c-19.135,0-34.586-15.451-34.586-34.586
	s15.451-34.651,34.586-34.651s34.586,15.451,34.586,34.651C283.733,56.889,268.283,72.339,249.147,72.339z M249.147,15.451
	c-12.347,0-22.238,9.891-22.238,22.238s9.891,22.238,22.238,22.238c12.347,0,22.238-9.891,22.238-22.238
	C271.386,25.341,261.495,15.451,249.147,15.451z"/>
<polyline style="fill:#4FBF9F;" points="389.43,392.533 389.43,259.038 293.624,259.038 293.624,301.059 197.818,301.059 
	197.818,339.976 102.012,339.976 102.012,362.279 6.206,362.279 6.206,392.533 "/>
<g>
	<rect x="275.717" y="355.426" style="fill:#193651;" width="12.347" height="12.347"/>
	<rect x="236.735" y="355.426" style="fill:#193651;" width="12.347" height="12.347"/>
	<rect x="314.053" y="355.426" style="fill:#193651;" width="12.347" height="12.347"/>
	<rect x="352.388" y="355.426" style="fill:#193651;" width="12.347" height="12.347"/>
</g>
<g>
	<path id="SVGCleanerId_0_1_" style="fill:#FFFFFF;" d="M326.4,119.919c-3.103-6.206-11.119-8.663-17.325-6.788l-37.689,10.537
		l-21.01-29.673L221.35,77.317c-13.576-7.434-29.673-7.434-43.248,0l-34.004,19.135c-1.875,1.228-3.103,2.457-4.331,4.331
		l-22.238,37.107c-3.685,6.788-2.457,15.451,4.331,19.782c6.206,3.685,14.222,1.875,18.554-3.685l18.554-24.76
		c5.56-7.434,13.576-12.994,22.885-15.45l0,0l-11.766,56.889l-6.788,33.358l-6.788,29.026l-46.352,53.786
		c-6.206,6.788-6.788,17.325-1.228,24.76c7.434,9.244,21.01,9.244,28.444,0.646l53.139-61.802l8.663-29.673
		c1.875-6.788,8.016-11.766,15.451-10.537c8.016,1.228,13.576,8.663,12.347,16.097l-5.56,32.129
		c-1.875,9.891,4.331,19.782,13.576,22.238c10.537,2.457,20.428-4.331,22.238-14.869l8.016-42.02l0,0
		c4.913-19.782-6.206-40.21-25.341-47.58l-6.788-2.457l8.663-40.792l17.325,24.113l58.117-16.097
		C326.4,139.119,331.313,128.582,326.4,119.919z"/>
</g>
<circle style="fill:#FFFFFF;" cx="249.147" cy="37.689" r="28.444"/>
<g>
	<path id="SVGCleanerId_1_1_" style="fill:#193651;" d="M249.147,72.339c-19.135,0-34.586-15.451-34.586-34.586
		s15.451-34.651,34.586-34.651s34.586,15.451,34.586,34.651C283.733,56.889,268.283,72.339,249.147,72.339z M249.147,15.451
		c-12.347,0-22.238,9.891-22.238,22.238s9.891,22.238,22.238,22.238c12.347,0,22.238-9.891,22.238-22.238
		C271.386,25.341,261.495,15.451,249.147,15.451z"/>
</g>
<g>
	<path style="fill:#193651;" d="M123.022,325.172c-7.434,0-14.222-3.103-19.135-9.244c-7.434-9.244-6.788-22.885,1.228-32.129
		l45.123-52.558l6.206-27.798l16.097-78.481c-3.685,2.457-6.788,5.56-9.244,8.663l-18.554,24.76
		c-6.206,8.016-17.907,9.891-26.57,4.913c-4.331-2.457-7.434-6.788-8.663-12.347s-0.646-11.119,2.457-16.097l22.238-37.107
		c1.875-2.457,3.685-4.978,6.788-6.206l34.004-19.135c14.804-8.663,34.586-8.663,49.455,0l30.319,17.325l19.782,27.216l33.358-9.244
		c9.244-2.457,19.782,1.228,24.76,9.244c3.103,5.56,3.685,12.347,1.228,18.554c-2.457,6.206-7.434,10.537-13.576,12.347
		l-62.448,17.325l-13.576-16.679l-4.913,22.238l1.875,0.646c22.238,8.016,34.586,31.547,29.026,54.368l-8.016,42.02
		c-2.457,11.766-12.347,19.782-24.113,19.782c-1.875,0-3.685,0-5.56-0.646c-12.994-3.103-21.01-16.097-18.554-29.026l5.56-32.129
		c0.646-1.875,0-4.331-1.228-6.206c-1.228-1.875-3.103-3.103-5.56-3.103c-3.685-0.646-7.434,2.457-8.663,6.206l-9.244,30.901
		l-53.98,62.319C136.598,322.069,129.81,325.172,123.022,325.172z M189.156,105.697l-20.428,100.137l-7.434,30.901l-46.998,55.014
		c-4.331,4.978-4.331,11.766-0.646,16.679c4.913,5.56,14.222,6.206,19.135,0.646l51.911-60.574l8.016-28.444
		c3.103-9.891,12.347-16.097,21.657-15.451c5.56,0.646,10.537,3.685,13.576,8.016s4.913,9.891,3.685,15.451l-5.56,31.547
		c-1.228,6.788,3.103,13.576,9.244,14.869c6.788,1.875,13.576-3.103,14.869-9.891l8.016-42.02
		c4.331-17.325-4.913-34.586-21.657-40.792l-11.766-4.331l12.994-59.345l22.885,31.547l54.368-14.869
		c2.457-0.646,4.913-2.457,5.56-4.913c1.228-2.457,0.646-5.56-0.646-8.016c-1.875-3.103-6.206-4.913-10.537-3.685l-41.115,11.636
		l-22.238-30.901l-27.798-15.451c-11.119-6.206-25.988-6.206-37.107,0l-34.004,19.135c-0.646,0.646-1.875,1.228-1.875,1.875
		l-22.238,37.107c-1.228,1.875-1.228,4.331-1.228,6.788c0.646,1.875,1.875,3.685,3.103,4.331c3.685,1.875,8.016,1.228,10.537-1.875
		l18.554-24.76c6.788-8.663,16.097-14.804,25.988-17.907L189.156,105.697z"/>
	<polygon style="fill:#193651;" points="395.636,392.533 383.289,392.533 383.289,265.18 299.83,265.18 299.83,307.265 
		204.024,307.265 204.024,346.182 108.154,346.182 108.154,368.42 12.347,368.42 12.347,392.533 0,392.533 0,356.073 
		95.806,356.073 95.806,333.834 191.612,333.834 191.612,294.853 287.483,294.853 287.483,252.832 395.636,252.832 	"/>
</g>
<g>
</g>
<g>
</g>
<g>
</g>
<g>
</g>
<g>
</g>
<g>
</g>
<g>
</g>
<g>
</g>
<g>
</g>
<g>
</g>
<g>
</g>
<g>
</g>
<g>
</g>
<g>
</g>
<g>
</g>
</svg>
