<?xml version="1.0" encoding="iso-8859-1"?>
<!-- Generator: Adobe Illustrator 19.0.0, SVG Export Plug-In . SVG Version: 6.00 Build 0)  -->
<svg version="1.1" id="Layer_1" xmlns="http://www.w3.org/2000/svg" xmlns:xlink="http://www.w3.org/1999/xlink" x="0px" y="0px"
	 viewBox="0 0 398.739 398.739" style="enable-background:new 0 0 398.739 398.739;" xml:space="preserve">
<polygon style="fill:#2EA2DB;" points="344.63,61.22 344.63,392.533 54.109,392.533 54.109,61.22 120.954,61.22 110.998,100.784 
	287.741,100.784 277.786,61.22 "/>
<g>
	<polygon style="fill:#FFFFFF;" points="319.935,85.915 319.935,367.838 78.804,367.838 78.804,85.915 114.683,85.915 
		110.998,100.784 287.741,100.784 284.057,85.915 	"/>
	<path style="fill:#FFFFFF;" d="M287.741,100.784H110.998l16.097-63.677h41.438c0,17.067,13.834,30.901,30.901,30.901
		s30.901-13.834,30.901-30.901h41.438L287.741,100.784z"/>
	<circle style="fill:#FFFFFF;" cx="199.37" cy="37.107" r="30.901"/>
</g>
<g>
	<path style="fill:#193651;" d="M282.828,55.014l-6.206-24.113h-40.21C233.309,12.994,217.859,0,199.305,0
		s-34.004,13.576-37.107,30.901h-40.21l-6.206,24.113H47.903v343.725h302.933V55.014H282.828z M199.37,12.347
		c13.576,0,24.76,11.119,24.76,24.76c0,13.576-11.119,24.76-24.76,24.76c-13.64,0-24.76-11.119-24.76-24.76
		S185.794,12.347,199.37,12.347z M132.008,43.248h30.901c3.103,17.907,18.554,30.901,37.107,30.901s34.004-13.576,37.107-30.901
		h30.901l12.994,51.329H119.014L132.008,43.248z M338.489,386.327H60.251V67.362h52.558l-9.891,39.564h192.84l-9.891-39.564h52.558
		v318.966H338.489z"/>
	<rect x="110.352" y="145.907" style="fill:#193651;" width="115.588" height="12.347"/>
	<rect x="110.352" y="189.156" style="fill:#193651;" width="60.574" height="12.347"/>
	<rect x="110.352" y="229.947" style="fill:#193651;" width="115.588" height="12.347"/>
	<rect x="110.352" y="273.261" style="fill:#193651;" width="60.574" height="12.347"/>
</g>
<g>
</g>
<g>
</g>
<g>
</g>
<g>
</g>
<g>
</g>
<g>
</g>
<g>
</g>
<g>
</g>
<g>
</g>
<g>
</g>
<g>
</g>
<g>
</g>
<g>
</g>
<g>
</g>
<g>
</g>
</svg>
