<?xml version="1.0" encoding="iso-8859-1"?>
<!-- Generator: Adobe Illustrator 19.0.0, SVG Export Plug-In . SVG Version: 6.00 Build 0)  -->
<svg version="1.1" id="Layer_1" xmlns="http://www.w3.org/2000/svg" xmlns:xlink="http://www.w3.org/1999/xlink" x="0px" y="0px"
	 viewBox="0 0 395.636 395.636" style="enable-background:new 0 0 395.636 395.636;" xml:space="preserve">
<polygon style="fill:#FFFFFF;" points="136.016,6.206 6.206,6.206 6.206,276.945 208.356,276.945 208.356,78.481 "/>
<g>
	<path style="fill:#193651;" d="M214.497,283.152H0V0h138.473l76.024,76.024V283.152z M12.347,270.739H202.15V81.002l-68.59-68.655
		H12.347V270.739z"/>
	<rect x="35.232" y="89.665" style="fill:#193651;" width="12.347" height="12.347"/>
	<rect x="64.905" y="89.665" style="fill:#193651;" width="12.347" height="12.347"/>
	<rect x="95.224" y="89.665" style="fill:#193651;" width="12.347" height="12.347"/>
</g>
<polygon style="fill:#4FBF9F;" points="135.758,6.012 135.758,78.675 208.42,78.675 "/>
<g>
	<rect x="35.232" y="43.895" style="fill:#193651;" width="72.339" height="12.347"/>
	<rect x="35.232" y="135.37" style="fill:#193651;" width="134.141" height="12.347"/>
	<rect x="35.232" y="181.139" style="fill:#193651;" width="134.141" height="12.347"/>
	<rect x="35.232" y="226.844" style="fill:#193651;" width="134.141" height="12.347"/>
</g>
<polygon style="fill:#FFFFFF;" points="317.156,118.691 187.281,118.691 187.281,389.43 389.43,389.43 389.43,191.03 "/>
<path style="fill:#193651;" d="M395.636,395.636H181.139V112.485h138.473l76.024,75.442V395.636z M193.487,383.289h189.802V193.487
	l-68.655-68.59H193.487V383.289z"/>
<polygon style="fill:#D3D7DA;" points="212.04,364.735 212.04,143.451 307.265,143.451 364.735,200.921 364.735,364.735 "/>
<polygon style="fill:#4FBF9F;" points="307.265,200.921 364.735,200.921 307.265,143.451 "/>
<path style="fill:#193651;" d="M319.612,112.485H214.497V76.024L138.473,0H0v283.152h181.139v112.485h214.497V187.927
	L319.612,112.485z M12.347,270.739V12.347h121.147l68.59,68.59v31.547h-20.428v158.255H12.347L12.347,270.739z M383.289,383.289
	H193.487V124.897h121.147l68.59,68.59v189.802H383.289z"/>
<polygon style="fill:#193651;" points="279.402,322.069 246.626,288.711 255.289,280.048 279.402,304.162 321.487,262.141 
	330.731,270.739 "/>
<g>
</g>
<g>
</g>
<g>
</g>
<g>
</g>
<g>
</g>
<g>
</g>
<g>
</g>
<g>
</g>
<g>
</g>
<g>
</g>
<g>
</g>
<g>
</g>
<g>
</g>
<g>
</g>
<g>
</g>
</svg>
