<?xml version="1.0" encoding="iso-8859-1"?>
<!-- Generator: Adobe Illustrator 19.0.0, SVG Export Plug-In . SVG Version: 6.00 Build 0)  -->
<svg version="1.1" id="Layer_1" xmlns="http://www.w3.org/2000/svg" xmlns:xlink="http://www.w3.org/1999/xlink" x="0px" y="0px"
	 viewBox="0 0 399.612 399.612" style="enable-background:new 0 0 399.612 399.612;" xml:space="preserve">
<circle style="fill:#D3D7DA;" cx="199.806" cy="197.398" r="194.715"/>
<path style="fill:#FFFFFF;" d="M324.056,131.264c0-71.111-59.345-127.935-131.038-124.251
	C129.341,10.117,77.43,63.903,75.555,127.579c-1.228,33.358,11.766,64.323,32.129,87.143c17.907,19.782,27.798,45.123,27.798,71.693
	v74.214h127.354v-72.986c0-26.57,9.244-52.558,27.216-71.693C311.062,193.713,324.056,164.04,324.056,131.264z"/>
<path style="fill:#F16051;" d="M199.806,228.945c-54.368,0-98.909-44.541-99.556-98.263l0,0
	c0.646-55.014,45.123-98.909,99.556-98.909s98.909,44.541,99.556,98.263l0,0C298.715,184.404,254.173,228.945,199.806,228.945z"/>
<path style="fill:#D3D7DA;" d="M217.713,393.987h-35.232c-10.537,0-18.554-8.016-18.554-18.554v-14.869h72.339v14.869
	C236.266,385.971,227.604,393.987,217.713,393.987z"/>
<path style="fill:#193651;" d="M295.03,219.636c22.885-24.113,35.232-55.661,35.232-89.018c0-74.149-62.448-134.141-137.244-130.457
	C125.656,4.492,71.224,60.153,69.349,127.515c-1.228,34.004,11.119,66.78,34.004,91.475c17.325,18.554,26.57,42.667,26.57,67.362
	v14.222h-12.347c-3.685,0-6.206,2.457-6.206,6.206c0,3.685,2.457,6.206,6.206,6.206h12.347v14.222h-12.347
	c-3.685,0-6.206,2.457-6.206,6.206s2.457,6.206,6.206,6.206h12.347v14.222h-12.347c-3.685,0-6.206,2.457-6.206,6.206
	c0,3.685,2.457,6.206,6.206,6.206h12.347h27.798v8.663c0,13.576,11.119,24.695,24.76,24.695h35.232
	c13.576,0,24.76-11.119,24.76-24.76v-8.663h27.798h12.347c3.685,0,6.206-2.457,6.206-6.206c0-3.75-2.457-6.206-6.206-6.206H270.27
	v-14.222h12.347c3.685,0,6.206-2.457,6.206-6.206c0-3.749-2.457-6.206-6.206-6.206H270.27v-14.222h12.347
	c3.685,0,6.206-2.457,6.206-6.206s-2.457-6.206-6.206-6.206H270.27v-12.994C269.689,261.721,278.933,237.608,295.03,219.636z
	 M230.125,375.434c0,6.788-5.56,12.347-12.347,12.347h-35.232c-6.788,0-12.347-5.56-12.347-12.347v-8.663h59.992v8.663H230.125z
	 M257.276,354.424H142.335v-14.222h115.006L257.276,354.424L257.276,354.424z M257.276,327.854H142.335v-14.222h115.006
	L257.276,327.854L257.276,327.854z M257.276,287.644v12.994h-51.329V136.242l25.341-24.76l27.216,26.57
	c2.457,2.457,6.206,2.457,8.663,0c2.457-2.457,2.457-6.206,0-8.663l-35.879-34.651l-31.483,30.966l-31.547-30.901l-35.814,34.586
	c-2.457,2.457-2.457,6.206,0,8.663s6.206,2.457,8.663,0l27.216-26.57l25.341,24.76v165.042h-51.329v-14.222
	c0-27.798-10.537-55.014-29.673-75.442c-21.01-22.885-31.547-51.911-30.901-82.812c1.875-61.22,50.683-111.257,111.257-114.36
	c68.008-3.685,124.251,50.683,124.251,118.044c0,29.673-11.119,58.699-31.547,80.356
	C267.814,231.402,257.276,258.618,257.276,287.644z"/>
<g>
</g>
<g>
</g>
<g>
</g>
<g>
</g>
<g>
</g>
<g>
</g>
<g>
</g>
<g>
</g>
<g>
</g>
<g>
</g>
<g>
</g>
<g>
</g>
<g>
</g>
<g>
</g>
<g>
</g>
</svg>
