<?xml version="1.0" encoding="iso-8859-1"?>
<!-- Generator: Adobe Illustrator 19.0.0, SVG Export Plug-In . SVG Version: 6.00 Build 0)  -->
<svg version="1.1" id="Layer_1" xmlns="http://www.w3.org/2000/svg" xmlns:xlink="http://www.w3.org/1999/xlink" x="0px" y="0px"
	 viewBox="0 0 395.701 395.701" style="enable-background:new 0 0 395.701 395.701;" xml:space="preserve">
<circle style="fill:#4FBF9F;" cx="197.85" cy="197.818" r="197.818"/>
<rect x="55.693" y="55.014" style="fill:#E1E6E9;" width="284.38" height="271.386"/>
<g>
	<rect x="80.388" y="79.774" style="fill:#FFFFFF;" width="234.925" height="221.931"/>
	<path style="fill:#FFFFFF;" d="M55.693,326.4v44.541c0,10.537,8.016,18.554,18.554,18.554h247.273
		c10.537,0,18.554-8.016,18.554-18.554V326.4H55.693z"/>
	<path style="fill:#FFFFFF;" d="M340.008,55.014V24.695c0-10.537-8.016-18.554-18.554-18.554H74.246
		c-10.537,0-18.554,8.016-18.554,18.554v30.319H340.008z"/>
</g>
<g>
	<path style="fill:#193651;" d="M321.519,0H74.246c-13.576,0-24.76,11.119-24.76,24.76v346.182c0,13.576,11.119,24.76,24.76,24.76
		h247.273c13.576,0,24.76-11.119,24.76-24.76V24.76C346.214,11.119,335.095,0,321.519,0z M333.867,370.941
		c0,6.788-5.56,12.347-12.347,12.347H74.246c-6.788,0-12.347-5.56-12.347-12.347v-38.335h272.032v38.335H333.867z M333.867,320.194
		H61.834V61.22h272.032L333.867,320.194L333.867,320.194z M333.867,48.808H61.834V24.695c0-6.788,5.56-12.347,12.347-12.347h247.273
		c6.788,0,12.347,5.56,12.347,12.347v24.113H333.867z"/>
	<rect x="168.178" y="351.741" style="fill:#193651;" width="59.345" height="12.347"/>
	<rect x="255.968" y="351.741" style="fill:#193651;" width="12.347" height="12.347"/>
	<rect x="127.386" y="351.741" style="fill:#193651;" width="12.347" height="12.347"/>
	<rect x="179.297" y="24.76" style="fill:#193651;" width="37.107" height="12.347"/>
	<polygon style="fill:#193651;" points="178.715,212.687 170.053,204.024 137.859,236.735 170.053,268.929 178.715,260.267 
		161.39,242.941 249.18,242.941 249.18,230.594 161.39,230.594 	"/>
	<polygon style="fill:#193651;" points="216.986,168.792 225.648,177.39 257.842,145.261 225.648,112.485 216.986,121.147 
		234.311,139.119 146.521,139.119 146.521,151.467 234.311,151.467 	"/>
</g>
<g>
</g>
<g>
</g>
<g>
</g>
<g>
</g>
<g>
</g>
<g>
</g>
<g>
</g>
<g>
</g>
<g>
</g>
<g>
</g>
<g>
</g>
<g>
</g>
<g>
</g>
<g>
</g>
<g>
</g>
</svg>
