<?xml version="1.0" encoding="iso-8859-1"?>
<!-- Generator: Adobe Illustrator 19.0.0, SVG Export Plug-In . SVG Version: 6.00 Build 0)  -->
<svg version="1.1" id="Layer_1" xmlns="http://www.w3.org/2000/svg" xmlns:xlink="http://www.w3.org/1999/xlink" x="0px" y="0px"
	 viewBox="0 0 383.224 383.224" style="enable-background:new 0 0 383.224 383.224;" xml:space="preserve">
<rect x="61.802" y="61.802" style="fill:#FFFFFF;" width="259.62" height="259.62"/>
<g>
	<rect x="90.828" y="279.984" style="fill:#193651;" width="12.347" height="12.347"/>
	<rect x="90.828" y="161.939" style="fill:#193651;" width="12.347" height="11.766"/>
	<rect x="90.828" y="256.517" style="fill:#193651;" width="12.347" height="11.766"/>
	<rect x="90.828" y="185.406" style="fill:#193651;" width="12.347" height="12.347"/>
	<rect x="90.828" y="114.941" style="fill:#193651;" width="12.347" height="11.766"/>
	<rect x="90.828" y="233.051" style="fill:#193651;" width="12.347" height="11.766"/>
	<rect x="90.828" y="209.519" style="fill:#193651;" width="12.347" height="11.766"/>
	<rect x="90.828" y="138.473" style="fill:#193651;" width="12.347" height="11.766"/>
	<rect x="90.828" y="90.828" style="fill:#193651;" width="12.347" height="12.347"/>
	<rect x="185.406" y="90.828" style="fill:#193651;" width="12.347" height="12.347"/>
	<rect x="138.473" y="90.828" style="fill:#193651;" width="11.766" height="12.347"/>
	<rect x="114.941" y="90.828" style="fill:#193651;" width="11.766" height="12.347"/>
	<rect x="209.519" y="90.828" style="fill:#193651;" width="11.766" height="12.347"/>
	<rect x="161.939" y="90.828" style="fill:#193651;" width="11.766" height="12.347"/>
	<rect x="256.517" y="90.828" style="fill:#193651;" width="11.766" height="12.347"/>
	<rect x="233.051" y="90.828" style="fill:#193651;" width="11.766" height="12.347"/>
	<rect x="279.984" y="90.828" style="fill:#193651;" width="12.347" height="12.347"/>
	<rect x="279.984" y="233.051" style="fill:#193651;" width="12.347" height="11.766"/>
	<rect x="279.984" y="256.517" style="fill:#193651;" width="12.347" height="11.766"/>
	<rect x="279.984" y="161.939" style="fill:#193651;" width="12.347" height="11.766"/>
	<rect x="279.984" y="138.473" style="fill:#193651;" width="12.347" height="11.766"/>
	<rect x="279.984" y="209.519" style="fill:#193651;" width="12.347" height="11.766"/>
	<rect x="279.984" y="185.406" style="fill:#193651;" width="12.347" height="12.347"/>
	<rect x="279.984" y="114.941" style="fill:#193651;" width="12.347" height="11.766"/>
	<rect x="279.984" y="279.984" style="fill:#193651;" width="12.347" height="12.347"/>
	<rect x="233.051" y="279.984" style="fill:#193651;" width="11.766" height="12.347"/>
	<rect x="256.517" y="279.984" style="fill:#193651;" width="11.766" height="12.347"/>
	<rect x="209.519" y="279.984" style="fill:#193651;" width="11.766" height="12.347"/>
	<rect x="185.406" y="279.984" style="fill:#193651;" width="12.347" height="12.347"/>
	<rect x="138.473" y="279.984" style="fill:#193651;" width="11.766" height="12.347"/>
	<rect x="161.939" y="279.984" style="fill:#193651;" width="11.766" height="12.347"/>
	<rect x="114.941" y="279.984" style="fill:#193651;" width="11.766" height="12.347"/>
</g>
<rect x="134.723" y="134.723" style="fill:#F16051;" width="114.36" height="114.36"/>
<path style="fill:#193651;" d="M383.224,100.137V87.79h-55.661V55.661h-32.129V0h-12.347v55.661h-36.461V0h-12.347v55.661h-36.461V0
	h-12.347v55.661h-36.525V0h-12.347v55.661h-36.461V0H87.79v55.661H55.596V87.79H0v12.347h55.661v36.461H0v12.347h55.661v36.461H0
	v12.347h55.661v36.525H0v12.347h55.661v36.461H0v12.347h55.661v32.129H87.79v55.661h12.347v-55.661h36.461v55.661h12.347v-55.661
	h36.461v55.661h12.347v-55.661h36.525v55.661h12.347v-55.661h36.461v55.661h12.348v-55.661h32.129v-32.129h55.661v-12.347h-55.661
	v-36.461h55.661v-12.347h-55.661v-36.461h55.661v-12.347h-55.661v-36.525h55.661v-12.347h-55.661v-36.461H383.224z M315.281,315.281
	H68.008V68.008h247.273V315.281z"/>
<g>
</g>
<g>
</g>
<g>
</g>
<g>
</g>
<g>
</g>
<g>
</g>
<g>
</g>
<g>
</g>
<g>
</g>
<g>
</g>
<g>
</g>
<g>
</g>
<g>
</g>
<g>
</g>
<g>
</g>
</svg>
