<?xml version="1.0" encoding="iso-8859-1"?>
<!-- Generator: Adobe Illustrator 19.0.0, SVG Export Plug-In . SVG Version: 6.00 Build 0)  -->
<svg version="1.1" id="Layer_1" xmlns="http://www.w3.org/2000/svg" xmlns:xlink="http://www.w3.org/1999/xlink" x="0px" y="0px"
	 viewBox="0 0 395.636 395.636" style="enable-background:new 0 0 395.636 395.636;" xml:space="preserve">
<circle style="fill:#2EA2DB;" cx="173.737" cy="173.705" r="173.705"/>
<path style="fill:#FFFFFF;" d="M370.327,231.176c-12.347-1.228-23.467,8.663-23.467,21.01v-19.782
	c0-11.119-8.016-21.01-19.135-22.238c-12.347-1.228-23.467,8.663-23.467,21.01v7.434c0-11.766-9.244-21.01-21.01-21.01
	c-11.766,0-21.01,9.244-21.01,21.01v-97.034c0-11.119-8.016-21.01-19.135-22.238c-12.347-1.228-23.467,8.663-23.467,21.01v144.679
	l-27.798-28.444c-8.016-8.016-20.428-9.244-29.026-1.875c-9.891,8.016-10.537,22.885-1.228,31.547l59.345,59.345v43.895h151.467
	v-21.657c9.891,0,17.325-8.016,17.325-17.325v-97.034C389.462,242.36,381.446,232.404,370.327,231.176z"/>
<path style="fill:#FDBF5E;" d="M205.867,331.313l13.576,13.576v44.541h152.048v-21.592c9.891,0,17.325-8.016,17.325-17.325v-19.135
	L205.867,331.313L205.867,331.313z"/>
<g>
	<rect x="255.968" y="352.388" style="fill:#193651;" width="12.347" height="11.766"/>
	<rect x="288.743" y="352.388" style="fill:#193651;" width="12.347" height="11.766"/>
	<rect x="320.873" y="352.388" style="fill:#193651;" width="12.347" height="11.766"/>
	<rect x="27.83" y="254.707" style="fill:#193651;" width="12.347" height="12.347"/>
	<rect x="27.83" y="229.947" style="fill:#193651;" width="12.347" height="12.347"/>
	<rect x="27.83" y="205.253" style="fill:#193651;" width="12.347" height="12.347"/>
	<rect x="27.83" y="180.493" style="fill:#193651;" width="12.347" height="12.347"/>
	<polygon style="fill:#193651;" points="57.503,186.053 34.036,160.129 11.151,186.053 1.26,178.036 34.036,140.929 66.812,178.036 
			"/>
	<path style="fill:#193651;" d="M234.957,63.03v31.547h12.347V63.03c0-34.586-28.444-63.03-63.03-63.03s-63.03,28.444-63.03,63.03
		v280.048c0,22.238-17.907,40.21-40.21,40.21s-40.21-17.907-40.21-40.21v-66.133H28.477v66.133
		c0,29.026,23.467,52.558,52.558,52.558s52.558-23.467,52.558-52.558V63.03c0-27.798,22.885-50.683,50.683-50.683
		S234.957,35.232,234.957,63.03z"/>
</g>
<path style="fill:#193651;" d="M370.974,225.034c-6.206-0.646-12.994,0.646-17.907,4.331c-1.875-12.994-11.507-23.402-24.76-24.76
	c-18.747-1.875-26.57,14.222-26.57,14.222c-4.978-4.331-11.766-6.788-18.554-6.788c-5.56,0-10.537,1.228-14.869,4.331v-75.766
	c0-15.192-12.283-27.475-27.475-27.475l0,0c-15.192,0-27.539,12.347-27.539,27.539v130.133l-17.907-17.907
	c-9.891-10.537-26.57-11.119-37.107-2.457c-6.206,4.913-9.244,12.347-9.891,19.782c-0.646,7.434,2.457,14.804,8.016,20.428
	l56.889,56.889v42.02h12.347v-47.58l-60.574-60.574c-3.103-2.457-4.331-6.788-4.331-11.119s2.457-8.016,4.913-11.119
	c6.206-4.913,15.451-3.685,21.01,1.875l38.917,38.917V140.541c0-8.339,6.788-15.127,15.127-15.127l0,0
	c8.339,0,15.127,6.788,15.127,15.127v118.432h12.477V238.61c0-8.016,6.788-14.804,14.804-14.804c8.016,0,14.869,6.788,14.869,14.869
	v23.402h12.347V231.24c1.164-13.64,12.347-15.451,16.679-14.804c7.434,1.228,13.576,8.016,13.576,16.097v35.232h12.412v-15.257
	c0-8.339,6.788-15.127,15.127-15.127l0,0c8.339,0,15.127,6.788,15.127,15.127v98.069c0,6.141-4.978,11.119-11.119,11.119h-6.206
	v27.798h12.347v-16.097c9.891-2.457,17.325-11.766,17.325-22.885v-97.034C395.669,238.61,384.549,226.263,370.974,225.034z"/>
<g>
</g>
<g>
</g>
<g>
</g>
<g>
</g>
<g>
</g>
<g>
</g>
<g>
</g>
<g>
</g>
<g>
</g>
<g>
</g>
<g>
</g>
<g>
</g>
<g>
</g>
<g>
</g>
<g>
</g>
</svg>
