<?xml version="1.0" encoding="iso-8859-1"?>
<!-- Generator: Adobe Illustrator 19.0.0, SVG Export Plug-In . SVG Version: 6.00 Build 0)  -->
<svg version="1.1" id="Layer_1" xmlns="http://www.w3.org/2000/svg" xmlns:xlink="http://www.w3.org/1999/xlink" x="0px" y="0px"
	 viewBox="0 0 395.636 395.636" style="enable-background:new 0 0 395.636 395.636;" xml:space="preserve">
<circle style="fill:#FDBF5E;" cx="197.818" cy="197.818" r="197.818"/>
<rect x="69.883" y="129.81" style="fill:#FFFFFF;" width="255.289" height="136.598"/>
<rect x="94.578" y="154.57" style="fill:#F16051;" width="205.834" height="87.143"/>
<g>
	<circle style="fill:#FFFFFF;" cx="135.37" cy="197.818" r="15.451"/>
	<circle style="fill:#FFFFFF;" cx="197.818" cy="197.818" r="15.451"/>
	<circle style="fill:#FFFFFF;" cx="260.267" cy="197.818" r="15.451"/>
	<circle style="fill:#FFFFFF;" cx="366.61" cy="371.523" r="17.907"/>
	<circle style="fill:#FFFFFF;" cx="197.818" cy="371.523" r="17.907"/>
	<circle style="fill:#FFFFFF;" cx="29.026" cy="371.523" r="17.907"/>
	<circle style="fill:#FFFFFF;" cx="366.61" cy="24.113" r="17.907"/>
	<circle style="fill:#FFFFFF;" cx="197.818" cy="24.113" r="17.907"/>
	<circle style="fill:#FFFFFF;" cx="29.026" cy="24.113" r="17.907"/>
</g>
<g>
	<rect x="276.04" y="306.618" style="fill:#193651;" width="12.347" height="12.347"/>
	<rect x="276.04" y="341.204" style="fill:#193651;" width="12.347" height="12.347"/>
	<rect x="107.895" y="306.618" style="fill:#193651;" width="12.347" height="12.347"/>
	<rect x="107.895" y="341.204" style="fill:#193651;" width="12.347" height="12.347"/>
	<rect x="276.04" y="42.02" style="fill:#193651;" width="12.347" height="12.347"/>
	<rect x="276.04" y="76.671" style="fill:#193651;" width="12.347" height="12.347"/>
	<rect x="107.895" y="42.02" style="fill:#193651;" width="12.347" height="12.347"/>
	<rect x="107.895" y="76.671" style="fill:#193651;" width="12.347" height="12.347"/>
	<path style="fill:#193651;" d="M385.745,300.412l-12.994,12.347v-95.806h-41.438v-37.689h42.02V83.459l11.766,11.766l8.663-8.663
		l-27.216-27.216l-26.57,27.798l8.663,8.663l12.347-12.347v83.459h-29.673v-43.248H203.96V84.04l11.766,11.766l8.663-8.663
		l-26.57-27.152l-27.216,27.216l8.663,8.663l11.766-11.766v39.564H63.677v43.248H35.232V83.459l11.766,11.766l8.663-8.016
		l-26.57-27.216L1.875,87.143l8.663,8.663L22.238,84.04v95.224h41.438v37.689H22.885v95.806l-11.766-11.766l-9.244,8.081
		l27.216,27.216l26.57-27.216l-8.663-8.663L34.651,312.76v-83.394h29.026v43.248h127.935v40.21l-12.347-12.347l-8.663,8.663
		l27.216,27.216l27.216-27.216l-8.663-8.663l-12.347,12.347v-40.792h127.354v-43.248h29.026v83.459l-11.766-11.766l-8.663,8.663
		l27.216,27.216l27.216-27.216L385.745,300.412z M318.966,259.62H76.024V136.016h242.941V259.62z"/>
	<path style="fill:#193651;" d="M135.37,219.475c11.766,0,21.657-9.891,21.657-21.657c0-11.766-9.891-21.657-21.657-21.657
		s-21.657,9.891-21.657,21.657C113.713,209.584,123.022,219.475,135.37,219.475z M135.37,188.574c4.913,0,9.244,4.331,9.244,9.244
		s-4.331,9.244-9.244,9.244c-4.978,0-9.244-4.331-9.244-9.244S129.81,188.574,135.37,188.574z"/>
	<path style="fill:#193651;" d="M197.818,219.475c11.766,0,21.657-9.891,21.657-21.657c0-11.766-9.891-21.657-21.657-21.657
		c-11.766,0-21.657,9.891-21.657,21.657C176.162,209.584,185.471,219.475,197.818,219.475z M197.818,188.574
		c4.913,0,9.244,4.331,9.244,9.244s-4.331,9.244-9.244,9.244s-9.244-4.331-9.244-9.244S192.259,188.574,197.818,188.574z"/>
	<path style="fill:#193651;" d="M260.267,219.475c11.766,0,21.657-9.891,21.657-21.657c0-11.766-9.891-21.657-21.657-21.657
		c-11.766,0-21.657,9.891-21.657,21.657C238.61,209.584,247.919,219.475,260.267,219.475z M260.267,188.574
		c4.913,0,9.244,4.331,9.244,9.244s-4.331,9.244-9.244,9.244c-4.978,0-9.244-4.331-9.244-9.244S254.707,188.574,260.267,188.574z"/>
	<path style="fill:#193651;" d="M366.61,347.41c-12.994,0-24.113,10.537-24.113,24.113c0,13.576,10.537,24.113,24.113,24.113
		c12.994,0,24.113-10.537,24.113-24.113C390.723,357.947,380.186,347.41,366.61,347.41z M366.61,383.289
		c-6.206,0-11.766-4.913-11.766-11.766c0-6.206,4.978-11.766,11.766-11.766c6.206,0,11.766,4.913,11.766,11.766
		C378.311,377.729,373.398,383.289,366.61,383.289z"/>
	<path style="fill:#193651;" d="M197.818,347.41c-12.994,0-24.113,10.537-24.113,24.113c0,13.576,11.119,24.113,24.113,24.113
		c12.994,0,24.113-10.537,24.113-24.113C221.931,357.947,211.394,347.41,197.818,347.41z M197.818,383.289
		c-6.206,0-11.766-4.913-11.766-11.766c0-6.206,4.913-11.766,11.766-11.766c6.206,0,11.766,4.913,11.766,11.766
		C209.584,377.729,204.606,383.289,197.818,383.289z"/>
	<path style="fill:#193651;" d="M29.026,347.41c-12.994,0-24.113,10.537-24.113,24.113c0,13.576,10.537,24.113,24.113,24.113
		s24.113-10.537,24.113-24.113C53.139,357.947,42.02,347.41,29.026,347.41z M29.026,383.289c-6.206,0-11.766-4.913-11.766-11.766
		c0-6.206,4.913-11.766,11.766-11.766c6.206,0,11.766,4.913,11.766,11.766C40.21,377.729,35.232,383.289,29.026,383.289z"/>
	<path style="fill:#193651;" d="M366.61,48.226c12.994,0,24.113-10.537,24.113-24.113S380.186,0,366.61,0
		c-12.994,0-24.113,10.537-24.113,24.113S353.616,48.226,366.61,48.226z M366.61,12.347c6.206,0,11.766,4.978,11.766,11.766
		c0,6.206-4.978,11.766-11.766,11.766c-6.206,0-11.766-4.978-11.766-11.766C355.426,17.907,360.404,12.347,366.61,12.347z"/>
	<path style="fill:#193651;" d="M197.818,48.226c12.994,0,24.113-10.537,24.113-24.113S211.394,0,197.818,0
		c-12.994,0-24.113,10.537-24.113,24.113S184.824,48.226,197.818,48.226z M197.818,12.347c6.206,0,11.766,4.978,11.766,11.766
		c0,6.206-4.913,11.766-11.766,11.766c-6.206,0-11.766-4.978-11.766-11.766C186.053,17.907,191.612,12.347,197.818,12.347z"/>
	<path style="fill:#193651;" d="M29.026,48.226c12.994,0,24.113-10.537,24.113-24.113S42.02,0,29.026,0S4.978,11.119,4.978,24.113
		S15.451,48.226,29.026,48.226z M29.026,12.347c6.206,0,11.766,4.978,11.766,11.766c0,6.206-4.978,11.766-11.766,11.766
		c-6.206,0-11.766-4.978-11.766-11.766C17.325,17.907,22.238,12.347,29.026,12.347z"/>
</g>
<g>
</g>
<g>
</g>
<g>
</g>
<g>
</g>
<g>
</g>
<g>
</g>
<g>
</g>
<g>
</g>
<g>
</g>
<g>
</g>
<g>
</g>
<g>
</g>
<g>
</g>
<g>
</g>
<g>
</g>
</svg>
