<?xml version="1.0" encoding="iso-8859-1"?>
<!-- Generator: Adobe Illustrator 19.0.0, SVG Export Plug-In . SVG Version: 6.00 Build 0)  -->
<svg version="1.1" id="Layer_1" xmlns="http://www.w3.org/2000/svg" xmlns:xlink="http://www.w3.org/1999/xlink" x="0px" y="0px"
	 viewBox="0 0 396.8 396.8" style="enable-background:new 0 0 396.8 396.8;" xml:space="preserve">
<circle style="fill:#F16051;" cx="197.818" cy="198.4" r="197.818"/>
<path style="fill:#FFFFFF;" d="M364.735,126.061l-39.564,229.366H70.465L30.901,130.392l93.349,86.562l56.307-111.644
	c5.042,2.974,10.99,4.719,17.261,4.719c6.917,0,13.382-2.069,18.747-5.624l51.717,105.762L364.735,126.061z"/>
<polygon style="fill:#FDBF5E;" points="89.665,331.895 69.883,199.046 131.038,255.871 198.465,121.147 260.267,248.501 
	327.046,189.737 305.972,331.895 "/>
<g>
	<circle style="fill:#2EA2DB;" cx="197.818" cy="76.024" r="34.004"/>
	<circle style="fill:#2EA2DB;" cx="371.523" cy="116.816" r="17.907"/>
	<circle style="fill:#2EA2DB;" cx="25.406" cy="116.816" r="17.907"/>
</g>
<g>
	<path style="fill:#193651;" d="M371.523,92.703c-13.576,0-24.113,11.119-24.113,24.113c0,4.913,1.228,9.244,3.685,12.994
		l-80.356,70.465l-45.77-93.931c8.663-7.434,14.222-18.554,14.222-30.319c0-22.238-17.907-40.145-40.21-40.145
		c-22.238,0-40.145,17.907-40.145,40.145c0,12.994,6.206,24.113,14.869,31.547l-50.101,99.556l-79.709-74.279
		c3.685-4.331,6.206-9.891,6.206-16.097c0-13.576-11.119-24.113-24.113-24.113c-13.576,0-24.113,11.119-24.113,24.113
		c0,13.576,11.119,24.113,24.113,24.113h2.457l38.917,220.057H331.96l37.689-220.057l-0.646-0.646
		c1.228,0,25.988,3.103,27.798-24.113C395.636,103.822,384.517,92.703,371.523,92.703z M171.248,76.024
		c0-15.386,12.477-27.798,27.798-27.798c15.386,0,27.798,12.477,27.798,27.798c0,15.386-12.477,27.798-27.798,27.798
		S171.248,91.345,171.248,76.024z M25.988,128.129c-6.271,0-11.313-5.107-11.313-11.313c0-6.271,5.107-11.313,11.313-11.313
		c6.271,0,11.313,5.107,11.313,11.313C37.301,123.022,32.194,128.129,25.988,128.129z M319.612,349.22H76.024L40.21,147.717
		l85.333,79.709l57.406-113.713c4.331,1.875,9.244,3.103,14.869,3.103s11.119-1.228,16.097-3.103l51.911,106.343l89.6-78.545
		L319.612,349.22z M371.523,129.164c-6.788,0-11.766-5.56-11.766-11.766c0-6.788,5.56-11.766,11.766-11.766
		c6.206,0,11.766,5.56,11.766,11.766S377.729,129.164,371.523,129.164z"/>
	<rect x="143.451" y="297.309" style="fill:#193651;" width="12.347" height="12.347"/>
	<rect x="191.612" y="297.309" style="fill:#193651;" width="12.347" height="12.347"/>
	<rect x="239.838" y="297.309" style="fill:#193651;" width="12.347" height="12.347"/>
</g>
<g>
</g>
<g>
</g>
<g>
</g>
<g>
</g>
<g>
</g>
<g>
</g>
<g>
</g>
<g>
</g>
<g>
</g>
<g>
</g>
<g>
</g>
<g>
</g>
<g>
</g>
<g>
</g>
<g>
</g>
</svg>
