<?xml version="1.0" encoding="iso-8859-1"?>
<!-- Generator: Adobe Illustrator 19.0.0, SVG Export Plug-In . SVG Version: 6.00 Build 0)  -->
<svg version="1.1" id="Layer_1" xmlns="http://www.w3.org/2000/svg" xmlns:xlink="http://www.w3.org/1999/xlink" x="0px" y="0px"
	 viewBox="0 0 395.636 395.636" style="enable-background:new 0 0 395.636 395.636;" xml:space="preserve">
<rect x="6.206" y="77.899" style="fill:#FFFFFF;" width="383.289" height="239.838"/>
<path style="fill:#193651;" d="M395.636,323.943H0V71.693h395.636V323.943z M12.347,311.596h370.941V84.105H12.347V311.596z"/>
<path style="fill:#4FBF9F;" d="M30.901,262.141V133.56c17.325,0,30.901-13.576,30.901-30.901h272.032
	c0,17.325,13.576,30.901,30.901,30.901v128.582c-17.325,0-30.901,13.576-30.901,30.901H61.802
	C61.802,275.717,48.226,262.141,30.901,262.141z"/>
<g>
	<circle style="fill:#FFFFFF;" cx="197.818" cy="197.818" r="65.552"/>
	<circle style="fill:#FFFFFF;" cx="317.156" cy="197.818" r="16.097"/>
	<circle style="fill:#FFFFFF;" cx="78.481" cy="197.818" r="16.097"/>
</g>
<path style="fill:#193651;" d="M197.818,191.612c-5.56,0-10.537-4.978-10.537-10.537c0-5.56,4.978-10.537,10.537-10.537
	c5.56,0,10.537,4.978,10.537,10.537h12.347c0-10.731-7.176-19.394-16.679-22.044v-8.275h-12.347v8.275
	c-9.826,2.715-16.679,11.701-16.679,22.044c0,12.994,10.537,22.885,22.885,22.885c5.56,0,10.537,4.913,10.537,10.537
	c0,5.56-4.978,10.537-10.537,10.537c-5.56,0-10.537-4.913-10.537-10.537h-12.347c0,10.731,7.176,19.394,16.679,22.044v7.628h12.347
	v-7.628c9.503-2.65,16.679-11.248,16.679-22.044C220.703,201.503,210.166,191.612,197.818,191.612z"/>
<g>
</g>
<g>
</g>
<g>
</g>
<g>
</g>
<g>
</g>
<g>
</g>
<g>
</g>
<g>
</g>
<g>
</g>
<g>
</g>
<g>
</g>
<g>
</g>
<g>
</g>
<g>
</g>
<g>
</g>
</svg>
