<?xml version="1.0" encoding="iso-8859-1"?>
<!-- Generator: Adobe Illustrator 19.0.0, SVG Export Plug-In . SVG Version: 6.00 Build 0)  -->
<svg version="1.1" id="Layer_1" xmlns="http://www.w3.org/2000/svg" xmlns:xlink="http://www.w3.org/1999/xlink" x="0px" y="0px"
	 viewBox="0 0 395.701 395.701" style="enable-background:new 0 0 395.701 395.701;" xml:space="preserve">
<path style="fill:#FFFFFF;" d="M280.63,6.206H24.76c-10.537,0-18.554,8.016-18.554,18.554v346.182
	c0,10.537,8.016,18.554,18.554,18.554h346.182c10.537,0,18.554-8.016,18.554-18.554V115.006c0-4.913-1.875-9.891-5.56-12.994
	l-89.665-90.246C290.521,8.016,285.608,6.206,280.63,6.206z"/>
<path style="fill:#193651;" d="M370.941,395.636H24.76c-13.64,0-24.76-11.119-24.76-24.695V24.76C0,11.119,11.119,0,24.76,0h255.935
	c6.788,0,12.994,2.457,17.325,7.434l90.246,90.246c4.978,4.913,7.434,11.119,7.434,17.325v255.935
	C395.636,384.517,384.517,395.636,370.941,395.636z M24.76,12.347c-6.788,0-12.347,5.56-12.347,12.347v346.182
	c0,6.788,5.56,12.347,12.347,12.347h346.182c6.788,0,12.347-5.56,12.347-12.347V115.006c0-3.103-1.228-6.206-3.685-8.663
	l-89.665-90.246c-2.457-2.457-5.56-3.685-9.244-3.685H24.76V12.347z"/>
<rect x="81.002" y="6.206" style="fill:#D3D7DA;" width="179.265" height="93.996"/>
<rect x="69.236" y="207.709" style="fill:#2EA2DB;" width="257.164" height="181.721"/>
<g>
	<path style="fill:#193651;" d="M388.202,97.034l-89.6-89.6C293.689,2.457,287.483,0,280.695,0H24.76C11.119,0,0,11.119,0,24.76
		v346.182c0,13.576,11.119,24.76,24.76,24.76h346.182c13.576,0,24.76-11.119,24.76-24.76V115.006
		C395.636,108.154,393.18,102.012,388.202,97.034z M383.289,370.941c0,6.788-5.56,12.347-12.347,12.347H24.76
		c-6.788,0-12.347-5.56-12.347-12.347V24.76c0-6.788,5.56-12.347,12.347-12.347h255.935c3.103,0,6.206,1.228,8.663,3.685
		l90.246,90.246c2.457,2.457,3.685,5.56,3.685,8.663L383.289,370.941L383.289,370.941z"/>
	<rect x="221.285" y="39.564" style="fill:#193651;" width="12.347" height="27.216"/>
	<rect x="119.337" y="257.81" style="fill:#193651;" width="157.026" height="12.347"/>
	<rect x="119.337" y="299.184" style="fill:#193651;" width="157.026" height="12.347"/>
	<rect x="119.337" y="339.976" style="fill:#193651;" width="12.347" height="12.347"/>
	<rect x="263.952" y="339.976" style="fill:#193651;" width="12.347" height="12.347"/>
	<rect x="234.925" y="339.976" style="fill:#193651;" width="12.347" height="12.347"/>
	<rect x="206.481" y="339.976" style="fill:#193651;" width="12.347" height="12.347"/>
	<rect x="177.39" y="339.976" style="fill:#193651;" width="12.347" height="12.347"/>
	<rect x="148.364" y="339.976" style="fill:#193651;" width="12.347" height="12.347"/>
</g>
<g>
</g>
<g>
</g>
<g>
</g>
<g>
</g>
<g>
</g>
<g>
</g>
<g>
</g>
<g>
</g>
<g>
</g>
<g>
</g>
<g>
</g>
<g>
</g>
<g>
</g>
<g>
</g>
<g>
</g>
</svg>
