<?xml version="1.0" encoding="iso-8859-1"?>
<!-- Generator: Adobe Illustrator 19.0.0, SVG Export Plug-In . SVG Version: 6.00 Build 0)  -->
<svg version="1.1" id="Layer_1" xmlns="http://www.w3.org/2000/svg" xmlns:xlink="http://www.w3.org/1999/xlink" x="0px" y="0px"
	 viewBox="0 0 395.636 395.636" style="enable-background:new 0 0 395.636 395.636;" xml:space="preserve">
<circle style="fill:#F16051;" cx="197.818" cy="197.818" r="197.818"/>
<circle style="fill:#FFFFFF;" cx="114.36" cy="190.384" r="34.586"/>
<path id="SVGCleanerId_0" style="fill:#193651;" d="M114.36,231.176c-22.238,0-40.792-18.554-40.792-40.792
	s18.554-40.792,40.792-40.792s40.792,18.554,40.792,40.792S136.598,231.176,114.36,231.176z M114.36,161.939
	c-15.451,0-28.444,12.994-28.444,28.444s12.994,28.444,28.444,28.444s28.444-12.994,28.444-28.444
	C142.804,174.352,129.81,161.939,114.36,161.939z"/>
<path style="fill:#FFFFFF;" d="M197.818,364.735v-84.04c0-23.467-21.01-42.02-46.352-42.02l0,0l-37.107,56.889l-37.107-56.889l0,0
	c-25.988,0-46.352,19.135-46.352,42.02v84.04H197.818z"/>
<path style="fill:#193651;" d="M204.024,370.941H24.76V280.63c0-26.57,23.467-48.226,52.558-48.226h3.103l33.358,51.911
	l33.358-51.911h3.103c29.026,0,52.558,21.657,52.558,48.226v90.246h1.228V370.941z M37.107,358.529h154.57V280.63
	c0-19.135-16.097-34.586-37.107-35.879L114.36,307.2l-40.21-62.449c-21.01,1.228-37.107,17.325-37.107,35.879v77.899H37.107z"/>
<circle style="fill:#FFFFFF;" cx="275.717" cy="119.919" r="89.665"/>
<path style="fill:#2EA2DB;" d="M275.717,184.824c-35.879,0-64.905-29.026-64.905-64.905c0-35.232,29.026-64.259,64.905-64.259
	c35.232,0,64.323,29.026,64.323,64.259C339.976,155.798,310.949,184.824,275.717,184.824z"/>
<g>
	<path id="SVGCleanerId_0_1_" style="fill:#193651;" d="M114.36,231.176c-22.238,0-40.792-18.554-40.792-40.792
		s18.554-40.792,40.792-40.792s40.792,18.554,40.792,40.792S136.598,231.176,114.36,231.176z M114.36,161.939
		c-15.451,0-28.444,12.994-28.444,28.444s12.994,28.444,28.444,28.444s28.444-12.994,28.444-28.444
		C142.804,174.352,129.81,161.939,114.36,161.939z"/>
</g>
<g>
	<rect x="74.796" y="329.503" style="fill:#193651;" width="12.347" height="10.537"/>
	<rect x="108.154" y="329.503" style="fill:#193651;" width="12.347" height="10.537"/>
	<rect x="140.929" y="329.503" style="fill:#193651;" width="12.347" height="10.537"/>
	<path style="fill:#193651;" d="M275.717,114.36c-5.56,0-10.537-4.913-10.537-10.537c0-5.56,4.913-10.537,10.537-10.537
		s10.537,4.978,10.537,10.537h12.347c0-10.537-6.788-19.135-16.679-21.657v-6.788h-12.348v6.788
		c-9.244,2.457-16.679,11.119-16.679,21.657c0,12.347,9.891,22.885,22.885,22.885c5.56,0,10.537,4.913,10.537,10.537
		c0,5.624-4.913,10.537-10.537,10.537s-10.537-4.913-10.537-10.537h-12.347c0,10.537,6.788,19.135,16.679,21.657v5.56h12.283v-5.56
		c9.244-2.457,16.679-11.119,16.679-21.657C297.956,124.897,288.065,114.36,275.717,114.36z"/>
	<path style="fill:#193651;" d="M393.762,220.057l-29.026-28.444l-29.026,29.026l8.663,8.663l12.994-12.994
		c-8.727,77.964-74.214,139.119-153.988,142.222V280.63c0-26.57-23.467-48.226-52.558-48.226h-3.103l-33.358,51.911l-34.004-51.911
		h-3.103c-29.026,0-52.558,21.657-52.558,48.226v90.246H203.96l0,0c87.143-3.103,158.255-71.111,166.271-156.38l14.869,14.869
		L393.762,220.057z M191.612,358.529H37.107V280.63c0-19.135,16.097-34.586,37.107-35.879l40.21,62.448l40.21-62.449
		c21.01,1.228,37.107,17.325,37.107,35.879v77.899H191.612z"/>
	<path style="fill:#193651;" d="M25.341,183.596l-14.869-14.804l-8.598,8.598l29.026,29.026l29.026-29.026l-8.663-8.663
		l-12.994,12.994C45.77,100.784,114.36,37.107,197.818,37.107V24.76C106.925,24.76,32.776,94.578,25.341,183.596z"/>
	<path style="fill:#193651;" d="M275.717,215.725c-52.558,0-95.806-42.667-95.806-95.806c0-52.558,42.667-95.224,95.806-95.224
		c52.558,0,95.224,42.667,95.224,95.224C370.941,173.123,328.275,215.725,275.717,215.725z M275.717,37.107
		c-45.77,0-83.459,37.107-83.459,83.459s37.107,83.459,83.459,83.459c45.77,0,83.459-37.107,83.459-83.459
		S321.487,37.107,275.717,37.107z"/>
</g>
<g>
</g>
<g>
</g>
<g>
</g>
<g>
</g>
<g>
</g>
<g>
</g>
<g>
</g>
<g>
</g>
<g>
</g>
<g>
</g>
<g>
</g>
<g>
</g>
<g>
</g>
<g>
</g>
<g>
</g>
</svg>
