<?xml version="1.0" encoding="iso-8859-1"?>
<!-- Generator: Adobe Illustrator 19.0.0, SVG Export Plug-In . SVG Version: 6.00 Build 0)  -->
<svg version="1.1" id="Layer_1" xmlns="http://www.w3.org/2000/svg" xmlns:xlink="http://www.w3.org/1999/xlink" x="0px" y="0px"
	 viewBox="0 0 395.636 395.636" style="enable-background:new 0 0 395.636 395.636;" xml:space="preserve">
<polyline style="fill:#FFFFFF;" points="280.63,27.216 352.388,27.216 352.388,389.43 43.248,389.43 43.248,27.216 115.006,27.216 
	"/>
<rect id="SVGCleanerId_0" x="68.008" y="72.339" style="fill:#2EA2DB;" width="259.62" height="292.396"/>
<rect x="145.907" y="6.206" style="fill:#F16051;" width="103.887" height="42.02"/>
<path style="fill:#193651;" d="M255.935,54.432H139.701V0h116.234L255.935,54.432L255.935,54.432z M152.048,42.02h91.475V12.347
	h-91.475V42.02z"/>
<rect id="SVGCleanerId_1" x="95.224" y="100.137" style="fill:#FFFFFF;" width="50.101" height="50.101"/>
<rect id="SVGCleanerId_2" x="95.224" y="193.487" style="fill:#FFFFFF;" width="50.101" height="50.101"/>
<rect id="SVGCleanerId_3" x="95.224" y="286.19" style="fill:#FFFFFF;" width="50.101" height="50.101"/>
<polygon style="fill:#FFFFFF;" points="255.935,27.216 255.935,54.432 139.701,54.432 139.701,27.216 43.248,27.216 43.248,389.43 
	352.388,389.43 352.388,27.216 "/>
<g>
	<rect id="SVGCleanerId_0_1_" x="68.008" y="72.339" style="fill:#2EA2DB;" width="259.62" height="292.396"/>
</g>
<path style="fill:#193651;" d="M139.701,0v54.432h116.234V0H139.701z M243.588,42.02h-91.539V12.347h91.475V42.02H243.588z"/>
<g>
	<rect id="SVGCleanerId_1_1_" x="95.224" y="100.137" style="fill:#FFFFFF;" width="50.101" height="50.101"/>
</g>
<g>
	<rect id="SVGCleanerId_2_1_" x="95.224" y="193.487" style="fill:#FFFFFF;" width="50.101" height="50.101"/>
</g>
<g>
	<rect id="SVGCleanerId_3_1_" x="95.224" y="286.19" style="fill:#FFFFFF;" width="50.101" height="50.101"/>
</g>
<g>
	<rect x="188.574" y="119.337" style="fill:#193651;" width="111.903" height="12.347"/>
	<rect x="188.574" y="212.04" style="fill:#193651;" width="111.903" height="12.347"/>
	<rect x="188.574" y="305.39" style="fill:#193651;" width="111.903" height="12.347"/>
	<rect x="114.036" y="305.39" style="fill:#193651;" width="12.347" height="11.766"/>
	<rect x="114.036" y="212.687" style="fill:#193651;" width="12.347" height="11.766"/>
	<rect x="114.036" y="119.337" style="fill:#193651;" width="12.347" height="11.766"/>
	<polygon style="fill:#193651;" points="280.63,21.01 280.63,33.358 346.182,33.358 346.182,383.289 49.455,383.289 49.455,33.358 
		115.006,33.358 115.006,21.01 37.107,21.01 37.107,395.636 358.529,395.636 358.529,21.01 	"/>
</g>
<g>
</g>
<g>
</g>
<g>
</g>
<g>
</g>
<g>
</g>
<g>
</g>
<g>
</g>
<g>
</g>
<g>
</g>
<g>
</g>
<g>
</g>
<g>
</g>
<g>
</g>
<g>
</g>
<g>
</g>
</svg>
