<?xml version="1.0" encoding="iso-8859-1"?>
<!-- Generator: Adobe Illustrator 19.0.0, SVG Export Plug-In . SVG Version: 6.00 Build 0)  -->
<svg version="1.1" id="Layer_1" xmlns="http://www.w3.org/2000/svg" xmlns:xlink="http://www.w3.org/1999/xlink" x="0px" y="0px"
	 viewBox="0 0 395.636 395.636" style="enable-background:new 0 0 395.636 395.636;" xml:space="preserve">
<rect x="6.206" y="61.802" style="fill:#FDBF5E;" width="383.289" height="272.614"/>
<path style="fill:#193651;" d="M395.636,339.976H0V55.661h395.636V339.976z M12.347,327.628h370.941V68.008H12.347V327.628z"/>
<rect x="30.901" y="86.562" style="fill:#FFFFFF;" width="333.834" height="223.16"/>
<g>
	<rect x="232.404" y="263.37" style="fill:#193651;" width="12.347" height="12.347"/>
	<rect x="272.032" y="263.37" style="fill:#193651;" width="12.347" height="12.347"/>
	<rect x="312.178" y="263.37" style="fill:#193651;" width="12.347" height="12.347"/>
	<rect x="230.594" y="223.16" style="fill:#193651;" width="95.806" height="12.347"/>
	<rect x="230.594" y="189.156" style="fill:#193651;" width="95.806" height="12.347"/>
	<rect x="230.594" y="155.152" style="fill:#193651;" width="95.806" height="12.347"/>
	<rect x="230.594" y="121.794" style="fill:#193651;" width="95.806" height="12.347"/>
</g>
<rect x="69.236" y="116.234" style="fill:#2EA2DB;" width="124.25" height="143.451"/>
<g>
	<circle style="fill:#FFFFFF;" cx="131.685" cy="155.152" r="25.988"/>
	<path style="fill:#FFFFFF;" d="M180.493,246.044v-24.76c0-10.537-8.663-19.135-19.135-19.135h-59.992
		c-10.537,0-19.135,8.663-19.135,19.135v24.76H180.493z"/>
</g>
<rect x="93.349" y="273.261" style="fill:#193651;" width="76.024" height="12.347"/>
<g>
</g>
<g>
</g>
<g>
</g>
<g>
</g>
<g>
</g>
<g>
</g>
<g>
</g>
<g>
</g>
<g>
</g>
<g>
</g>
<g>
</g>
<g>
</g>
<g>
</g>
<g>
</g>
<g>
</g>
</svg>
