<?xml version="1.0" encoding="iso-8859-1"?>
<!-- Generator: Adobe Illustrator 19.0.0, SVG Export Plug-In . SVG Version: 6.00 Build 0)  -->
<svg version="1.1" id="Layer_1" xmlns="http://www.w3.org/2000/svg" xmlns:xlink="http://www.w3.org/1999/xlink" x="0px" y="0px"
	 viewBox="0 0 395.636 395.636" style="enable-background:new 0 0 395.636 395.636;" xml:space="preserve">
<polygon style="fill:#2EA2DB;" points="389.43,253.479 389.43,389.43 6.206,389.43 6.206,253.479 122.376,253.479 122.376,289.939 
	273.261,289.939 273.261,253.479 "/>
<polygon style="fill:#FFFFFF;" points="345.535,72.339 345.535,253.479 273.261,253.479 273.261,289.939 122.376,289.939 
	122.376,253.479 50.101,253.479 50.101,72.339 "/>
<rect x="74.796" y="97.034" style="fill:#D3D7DA;" width="246.044" height="131.685"/>
<g>
	<rect x="61.802" y="38.917" style="fill:#FFFFFF;" width="271.386" height="32.776"/>
	<rect x="72.921" y="6.206" style="fill:#FFFFFF;" width="249.729" height="32.776"/>
</g>
<g>
	<path style="fill:#193651;" d="M351.741,247.273V66.133h-11.766V32.776h-11.119V0H66.78v32.776H55.661v32.776H43.895v181.721H0
		v148.364h395.636V247.273H351.741z M56.242,247.273V78.481h283.152v168.792h-72.339v36.461H128.582v-36.461L56.242,247.273
		L56.242,247.273z M79.127,12.347h237.382v20.428H79.127V12.347z M68.008,45.123h259.62v20.428H68.008V45.123z M383.289,383.289
		H12.347V259.62H116.17v36.461h163.168V259.62h103.887v123.669H383.289z"/>
	<rect x="158.901" y="333.834" style="fill:#193651;" width="12.347" height="11.766"/>
	<rect x="191.612" y="333.834" style="fill:#193651;" width="12.347" height="11.766"/>
	<rect x="224.388" y="333.834" style="fill:#193651;" width="12.347" height="11.766"/>
	<rect x="103.24" y="124.897" style="fill:#193651;" width="188.574" height="12.347"/>
	<rect x="103.24" y="156.38" style="fill:#193651;" width="188.574" height="12.347"/>
	<rect x="103.24" y="187.927" style="fill:#193651;" width="109.446" height="12.347"/>
</g>
<g>
</g>
<g>
</g>
<g>
</g>
<g>
</g>
<g>
</g>
<g>
</g>
<g>
</g>
<g>
</g>
<g>
</g>
<g>
</g>
<g>
</g>
<g>
</g>
<g>
</g>
<g>
</g>
<g>
</g>
</svg>
