<?xml version="1.0" encoding="iso-8859-1"?>
<!-- Generator: Adobe Illustrator 19.0.0, SVG Export Plug-In . SVG Version: 6.00 Build 0)  -->
<svg version="1.1" id="Layer_1" xmlns="http://www.w3.org/2000/svg" xmlns:xlink="http://www.w3.org/1999/xlink" x="0px" y="0px"
	 viewBox="0 0 395.636 395.636" style="enable-background:new 0 0 395.636 395.636;" xml:space="preserve">
<polygon style="fill:#FFFFFF;" points="261.463,28.444 261.463,6.206 134.109,6.206 134.109,28.444 43.216,28.444 43.216,389.495 
	352.291,389.495 352.291,28.444 "/>
<polygon style="fill:#2EA2DB;" points="327.596,53.139 327.596,364.735 67.976,364.735 67.976,53.139 127.903,53.139 
	127.903,56.889 267.669,56.889 267.669,53.139 "/>
<path style="fill:#193651;" d="M267.669,22.238V0H127.903v22.238H37.075v373.398h321.487V22.238H267.669z M140.315,12.347h115.006
	v31.547H140.315V12.347z M346.149,383.289H49.422V34.651h78.481v22.238h139.701V34.651h78.481L346.149,383.289L346.149,383.289z"/>
<g>
	<ellipse style="fill:#FFFFFF;" cx="197.139" cy="115.006" rx="33.358" ry="33.358"/>
	<path style="fill:#FFFFFF;" d="M260.234,233.697c-1.875-32.776-29.026-58.117-62.448-58.117s-59.992,25.988-61.802,58.117H260.234z
		"/>
</g>
<g>
	<path style="fill:#193651;" d="M267.022,239.838H129.196l0.646-6.788c2.392-35.879,32.065-63.677,67.943-63.677
		c36.461,0,66.78,27.798,68.59,63.677L267.022,239.838z M142.772,227.491h110.675c-4.913-25.988-27.798-45.77-55.661-45.77
		C170.57,181.721,147.685,201.503,142.772,227.491z"/>
	<rect x="121.115" y="295.499" style="fill:#193651;" width="153.341" height="12.347"/>
	<rect x="121.115" y="261.495" style="fill:#193651;" width="153.341" height="12.347"/>
	<rect x="121.115" y="329.503" style="fill:#193651;" width="12.347" height="12.347"/>
	<rect x="149.56" y="329.503" style="fill:#193651;" width="12.347" height="12.347"/>
	<rect x="177.358" y="329.503" style="fill:#193651;" width="12.347" height="12.347"/>
	<rect x="205.802" y="329.503" style="fill:#193651;" width="12.347" height="12.347"/>
	<rect x="233.665" y="329.503" style="fill:#193651;" width="12.347" height="12.347"/>
	<rect x="262.109" y="329.503" style="fill:#193651;" width="12.347" height="12.347"/>
	<path style="fill:#193651;" d="M198.109,75.442c-21.657,0-39.24,17.584-39.24,39.24s17.584,39.24,39.24,39.24
		s39.24-17.584,39.24-39.24S219.766,75.442,198.109,75.442z M198.109,140.994c-14.481,0-26.311-11.83-26.311-26.311
		s11.83-26.311,26.311-26.311s26.311,11.83,26.311,26.311S212.59,140.994,198.109,140.994z"/>
</g>
<g>
</g>
<g>
</g>
<g>
</g>
<g>
</g>
<g>
</g>
<g>
</g>
<g>
</g>
<g>
</g>
<g>
</g>
<g>
</g>
<g>
</g>
<g>
</g>
<g>
</g>
<g>
</g>
<g>
</g>
</svg>
