<?xml version="1.0" encoding="iso-8859-1"?>
<!-- Generator: Adobe Illustrator 19.0.0, SVG Export Plug-In . SVG Version: 6.00 Build 0)  -->
<svg version="1.1" id="Layer_1" xmlns="http://www.w3.org/2000/svg" xmlns:xlink="http://www.w3.org/1999/xlink" x="0px" y="0px"
	 viewBox="0 0 396.283 396.283" style="enable-background:new 0 0 396.283 396.283;" xml:space="preserve">
<rect x="31.418" y="104.792" style="fill:#F16051;" width="333.511" height="232.469"/>
<g>
	<rect x="61.802" y="135.693" style="fill:#FFFFFF;" width="272.614" height="171.248"/>
	<path style="fill:#FFFFFF;" d="M6.206,337.261c0,25.988,20.428,52.558,46.352,52.558h291.168c25.341,0,46.352-26.57,46.352-52.558
		H6.206z"/>
	<path style="fill:#FFFFFF;" d="M197.818,6.529L197.818,6.529c-55.014,0-99.556,44.477-99.556,99.556l0,0
		c0,55.014,44.477,99.556,99.556,99.556l0,0c55.014,0,99.556-44.541,99.556-99.556l0,0C297.374,51.006,252.832,6.529,197.818,6.529z
		"/>
	<path style="fill:#FFFFFF;" d="M197.818,6.529L197.818,6.529c-34.65,0-62.448,44.477-62.448,99.556l0,0
		c0,55.014,27.798,99.556,62.448,99.556l0,0c34.586,0,62.448-44.541,62.448-99.556l0,0C260.267,51.006,232.404,6.529,197.818,6.529z
		"/>
</g>
<g>
	<polygon style="fill:#FDBF5E;" points="114.36,238.933 122.376,255.612 140.347,258.133 127.354,270.481 130.457,288.388 
		114.36,280.372 98.263,288.388 101.366,270.481 88.372,258.133 106.343,255.612 	"/>
	<polygon style="fill:#FDBF5E;" points="197.818,238.933 205.834,255.612 223.806,258.133 210.812,270.481 213.915,288.388 
		197.818,280.372 181.721,288.388 184.824,270.481 171.83,258.133 189.802,255.612 	"/>
	<polygon style="fill:#FDBF5E;" points="281.277,238.933 289.293,255.612 307.265,258.133 294.271,270.481 297.374,288.388 
		281.277,280.372 265.18,288.388 268.283,270.481 255.289,258.133 273.261,255.612 	"/>
</g>
<g>
	<rect x="182.949" y="357.624" style="fill:#193651;" width="29.673" height="12.347"/>
	<rect x="145.261" y="357.624" style="fill:#193651;" width="13.576" height="12.347"/>
	<rect x="236.735" y="357.624" style="fill:#193651;" width="13.576" height="12.347"/>
</g>
<path style="fill:#FFFFFF;" d="M198.141,6.529L198.141,6.529c-55.014,0-99.556,44.477-99.556,99.556l0,0
	c0,55.014,44.477,99.556,99.556,99.556l0,0c55.014,0,99.556-44.541,99.556-99.556l0,0C297.632,51.006,253.156,6.529,198.141,6.529z"
	/>
<path style="fill:#193651;" d="M370.941,331.055V98.586h-68.008c-3.75-55.014-49.455-98.263-105.115-98.263
	S96.453,43.572,92.703,98.586H24.76v233.05H0v6.206c0,27.216,22.238,58.117,52.558,58.117h291.168
	c29.673,0,52.558-30.901,52.558-58.699v-6.206L370.941,331.055L370.941,331.055z M291.168,106.02c0,9.891-1.228,19.135-4.331,27.798
	h-22.885c1.875-8.663,2.457-18.554,2.457-27.798s-0.646-19.135-2.457-27.798h22.885C289.293,86.885,291.168,96.129,291.168,106.02z
	 M281.859,146.23c-8.663,18.554-23.467,33.358-41.438,42.667c9.244-11.119,16.679-25.988,21.01-42.667H281.859z M281.859,65.228
	H261.43c-4.331-16.679-11.766-31.547-21.01-42.667C258.392,32.453,272.614,47.321,281.859,65.228z M204.024,13.317
	c19.782,3.685,35.879,24.113,44.541,51.911h-44.541V13.317z M204.024,77.576h47.58c1.875,8.663,2.457,17.907,2.457,27.798
	s-0.646,19.135-2.457,27.798h-47.58V77.576z M204.024,146.23h44.541c-8.016,28.444-24.76,48.808-44.541,51.911V146.23z
	 M191.612,13.317v51.911h-44.541C155.798,37.43,171.83,17.002,191.612,13.317z M147.135,146.23h44.541v51.911
	C171.83,194.457,155.798,174.675,147.135,146.23z M155.798,188.897c-17.907-9.244-32.776-24.113-41.438-42.667h20.428
	C139.119,162.909,146.489,177.713,155.798,188.897z M144.032,133.883c-1.875-8.663-2.457-17.907-2.457-27.798
	s0.646-19.135,2.457-27.798h47.58v55.661h-47.58V133.883z M155.798,23.208c-9.244,11.119-16.679,25.988-21.01,42.667H114.36
	C123.022,47.321,137.244,32.453,155.798,23.208z M108.8,77.576h22.885c-1.875,8.663-2.457,18.554-2.457,27.798
	s0.646,19.135,2.457,27.798H108.8c-3.103-8.663-4.331-17.907-4.331-27.798C104.469,96.129,106.343,86.885,108.8,77.576z
	 M37.107,110.998h55.661c2.457,55.661,48.808,100.137,105.115,100.137s102.594-44.541,105.115-100.137h55.661v220.703H37.107
	V110.998z M343.079,383.612H52.558c-20.428,0-36.461-20.428-39.564-40.21h369.648C380.186,363.184,363.507,383.612,343.079,383.612z
	"/>
<g>
	<polygon style="fill:#FDBF5E;" points="114.36,238.933 122.376,255.612 140.347,258.133 127.354,270.481 130.457,288.388 
		114.36,280.372 98.263,288.388 101.366,270.481 88.372,258.133 106.343,255.612 	"/>
	<polygon style="fill:#FDBF5E;" points="197.818,238.933 205.834,255.612 223.806,258.133 210.812,270.481 213.915,288.388 
		197.818,280.372 181.721,288.388 184.824,270.481 171.83,258.133 189.802,255.612 	"/>
	<polygon style="fill:#FDBF5E;" points="281.277,238.933 289.293,255.612 307.265,258.133 294.271,270.481 297.374,288.388 
		281.277,280.372 265.18,288.388 268.283,270.481 255.289,258.133 273.261,255.612 	"/>
</g>
<g>
</g>
<g>
</g>
<g>
</g>
<g>
</g>
<g>
</g>
<g>
</g>
<g>
</g>
<g>
</g>
<g>
</g>
<g>
</g>
<g>
</g>
<g>
</g>
<g>
</g>
<g>
</g>
<g>
</g>
</svg>
