<?xml version="1.0" encoding="iso-8859-1"?>
<!-- Generator: Adobe Illustrator 19.0.0, SVG Export Plug-In . SVG Version: 6.00 Build 0)  -->
<svg version="1.1" id="Layer_1" xmlns="http://www.w3.org/2000/svg" xmlns:xlink="http://www.w3.org/1999/xlink" x="0px" y="0px"
	 viewBox="0 0 395.636 395.636" style="enable-background:new 0 0 395.636 395.636;" xml:space="preserve">
<g>
	<path style="fill:#FFFFFF;" d="M340.622,388.848h-22.885c-6.788,0-12.347-5.56-12.347-12.347v-64.905
		c0-6.788,5.56-12.347,12.347-12.347h22.885c6.788,0,12.347,5.56,12.347,12.347v64.905
		C352.97,383.289,347.41,388.848,340.622,388.848z"/>
	<path style="fill:#FFFFFF;" d="M77.899,388.848H55.014c-6.788,0-12.347-5.56-12.347-12.347v-64.905
		c0-6.788,5.56-12.347,12.347-12.347h22.885c6.788,0,12.347,5.56,12.347,12.347v64.905
		C90.246,383.289,84.687,388.848,77.899,388.848z"/>
	<path style="fill:#FFFFFF;" d="M275.717,84.687c-48.226-25.988-108.154-25.988-155.798,0c-12.994,6.788-28.444,3.685-37.689-7.434
		l0,0C71.111,63.03,76.024,42.02,92.121,33.358c65.552-35.232,146.489-35.232,212.04,0c16.097,8.663,21.01,29.673,9.891,43.895l0,0
		C304.743,88.372,288.711,91.475,275.717,84.687z"/>
</g>
<path style="fill:#193651;" d="M395.636,226.263c0-61.802-28.444-116.816-72.921-153.277c3.103-6.788,3.685-14.222,2.457-21.657
	c-2.457-10.537-8.663-19.135-17.907-24.113c-33.422-17.325-71.111-26.57-109.446-26.57s-76.024,9.244-108.8,27.152
	c-9.244,4.978-16.097,13.576-17.907,24.113c-1.875,7.434-0.646,14.804,2.457,21.657C28.444,109.446,0,165.042,0,226.263v123.669
	h36.461v25.988c0,10.537,8.016,18.554,18.554,18.554h22.885c10.537,0,18.554-8.016,18.554-18.554v-64.323
	c0-10.537-8.016-18.554-18.554-18.554H55.014c-10.537,0-18.554,8.016-18.554,18.554v25.988H12.347V226.263
	c0-57.471,26.57-108.8,67.362-142.804c6.788,6.788,15.451,10.537,25.341,10.537c6.206,0,11.766-1.228,17.325-4.331
	c22.885-12.412,48.873-18.554,74.796-18.554c26.57,0,52.558,6.206,74.796,18.554c5.56,3.103,11.119,4.331,17.325,4.331
	c9.891,0,19.135-3.685,25.341-10.537c42.02,34.004,68.59,85.333,68.59,142.804v111.257h-24.113v-25.988
	c0-10.537-8.016-18.554-18.554-18.554h-22.885c-10.537,0-18.554,8.016-18.554,18.554v64.905c0,10.537,8.016,18.554,18.554,18.554
	h22.885c10.537,0,18.554-8.016,18.554-18.554v-25.988h36.525V226.263z M48.808,311.596c0-3.685,2.457-6.206,6.206-6.206h22.885
	c3.685,0,6.206,2.457,6.206,6.206v64.905c0,3.685-2.457,6.206-6.206,6.206H55.014c-3.685,0-6.206-2.457-6.206-6.206V311.596z
	 M289.939,82.23c-3.685,0-8.016-1.228-11.766-3.103c-24.76-12.994-52.558-20.428-81.002-20.428s-56.242,6.788-81.002,20.428
	c-3.685,1.875-7.434,3.103-11.766,3.103c-7.434,0-13.576-3.103-18.554-8.663c-4.331-5.56-5.56-12.347-4.331-19.135
	c1.228-6.788,5.56-12.347,11.766-16.097c30.901-16.679,66.78-25.341,103.24-25.341s71.693,8.663,103.24,25.341
	c6.206,3.103,10.537,9.244,11.766,16.097c1.228,6.853,0,13.576-4.331,18.554c-0.646,0.646-0.646,0.646-1.228,1.228
	C302.933,79.127,296.727,82.23,289.939,82.23z M346.828,376.501c0,3.685-2.457,6.206-6.206,6.206h-22.885
	c-3.685,0-6.206-2.457-6.206-6.206v-64.905c0-3.685,2.457-6.206,6.206-6.206h22.885c3.685,0,6.206,2.457,6.206,6.206V376.501z"/>
<polygon style="fill:#E1E6E9;" points="310.949,123.022 84.687,123.022 84.687,253.479 123.669,253.479 123.669,296.081 
	197.818,253.479 310.949,253.479 "/>
<g>
	<path style="fill:#193651;" d="M117.463,307.265v-47.58H78.545V116.816h238.61V259.62H199.693L117.463,307.265z M90.893,247.273
		h38.917v38.335l66.133-38.335h108.154V129.228H90.893V247.273z"/>
	<rect x="123.022" y="161.358" style="fill:#193651;" width="150.238" height="12.347"/>
	<rect x="123.022" y="208.356" style="fill:#193651;" width="150.238" height="12.347"/>
	<rect x="134.141" y="41.438" style="fill:#193651;" width="12.347" height="12.347"/>
	<rect x="191.612" y="29.026" style="fill:#193651;" width="12.347" height="12.347"/>
	<rect x="249.147" y="41.438" style="fill:#193651;" width="12.347" height="12.347"/>
</g>
<g>
</g>
<g>
</g>
<g>
</g>
<g>
</g>
<g>
</g>
<g>
</g>
<g>
</g>
<g>
</g>
<g>
</g>
<g>
</g>
<g>
</g>
<g>
</g>
<g>
</g>
<g>
</g>
<g>
</g>
</svg>
