<?xml version="1.0" encoding="iso-8859-1"?>
<!-- Generator: Adobe Illustrator 19.0.0, SVG Export Plug-In . SVG Version: 6.00 Build 0)  -->
<svg version="1.1" id="Layer_1" xmlns="http://www.w3.org/2000/svg" xmlns:xlink="http://www.w3.org/1999/xlink" x="0px" y="0px"
	 viewBox="0 0 398.739 398.739" style="enable-background:new 0 0 398.739 398.739;" xml:space="preserve">
<circle style="fill:#FDBF5E;" cx="199.37" cy="197.818" r="197.818"/>
<g>
	<path style="fill:#FFFFFF;" d="M240.808,147.135h-82.877V87.79c0-22.885,18.554-41.438,41.438-41.438l0,0
		c22.885,0,41.438,18.554,41.438,41.438V147.135z"/>
	<rect x="7.758" y="147.135" style="fill:#FFFFFF;" width="383.289" height="245.398"/>
</g>
<path style="fill:#193651;" d="M246.95,140.929V87.79c0-26.57-21.657-47.58-47.58-47.58s-47.58,21.657-47.58,47.58v53.139H1.552
	v257.81h395.636v-257.81H246.95z M164.137,87.143c0-19.782,16.097-35.232,35.232-35.232s35.232,16.097,35.232,35.232v53.139h-70.465
	V87.143z M384.84,385.745H13.899V153.277H384.84L384.84,385.745L384.84,385.745z"/>
<rect x="32.453" y="171.83" style="fill:#E1E6E9;" width="333.834" height="195.943"/>
<path style="fill:#FFFFFF;" d="M199.37,106.343L199.37,106.343c-9.891,0-17.907-8.016-17.907-17.907l0,0
	c0-9.891,8.016-17.907,17.907-17.907l0,0c9.891,0,17.907,8.016,17.907,17.907l0,0C217.277,98.263,209.261,106.343,199.37,106.343z"
	/>
<path style="fill:#193651;" d="M199.37,112.485c-12.994,0-24.113-10.537-24.113-24.113c0-12.994,10.537-24.113,24.113-24.113
	s24.113,10.537,24.113,24.113S212.364,112.485,199.37,112.485z M199.37,76.671c-6.206,0-11.766,4.978-11.766,11.766
	c0,6.206,4.913,11.766,11.766,11.766c6.788,0,11.766-4.913,11.766-11.766C211.135,82.23,205.576,76.671,199.37,76.671z"/>
<circle style="fill:#FFFFFF;" cx="121.471" cy="225.034" r="26.57"/>
<path style="fill:#193651;" d="M121.471,257.745c-17.907,0-32.776-14.869-32.776-32.776s14.869-32.776,32.776-32.776
	s32.776,14.869,32.776,32.776S140.024,257.745,121.471,257.745z M121.471,205.253c-11.119,0-20.428,9.244-20.428,20.428
	c0,11.184,9.244,20.428,20.428,20.428s20.428-9.244,20.428-20.428C141.899,214.497,132.59,205.253,121.471,205.253z"/>
<path style="fill:#FFFFFF;" d="M184.566,335.644c-2.457-32.776-29.673-58.117-63.03-58.117s-60.638,25.341-63.095,58.117"/>
<g>
	<path style="fill:#193651;" d="M178.36,335.644c-2.457-29.673-27.216-52.558-56.889-52.558s-54.432,22.885-56.889,52.558
		l-12.347-1.228c3.103-35.879,33.358-63.677,69.236-63.677s66.78,28.444,69.236,64.323L178.36,335.644z"/>
	<rect x="251.281" y="327.628" style="fill:#193651;" width="12.347" height="12.347"/>
	<rect x="284.057" y="327.628" style="fill:#193651;" width="12.347" height="12.347"/>
	<rect x="316.832" y="327.628" style="fill:#193651;" width="12.347" height="12.347"/>
	<rect x="240.162" y="195.362" style="fill:#193651;" width="99.556" height="12.347"/>
	<rect x="240.162" y="231.176" style="fill:#193651;" width="99.556" height="12.347"/>
	<rect x="240.162" y="267.636" style="fill:#193651;" width="99.556" height="12.347"/>
</g>
<g>
</g>
<g>
</g>
<g>
</g>
<g>
</g>
<g>
</g>
<g>
</g>
<g>
</g>
<g>
</g>
<g>
</g>
<g>
</g>
<g>
</g>
<g>
</g>
<g>
</g>
<g>
</g>
<g>
</g>
</svg>
