<?xml version="1.0" encoding="iso-8859-1"?>
<!-- Generator: Adobe Illustrator 19.0.0, SVG Export Plug-In . SVG Version: 6.00 Build 0)  -->
<svg version="1.1" id="Layer_1" xmlns="http://www.w3.org/2000/svg" xmlns:xlink="http://www.w3.org/1999/xlink" x="0px" y="0px"
	 viewBox="0 0 395.636 395.636" style="enable-background:new 0 0 395.636 395.636;" xml:space="preserve">
<path style="fill:#FFFFFF;" d="M197.818,6.206L197.818,6.206c105.697,0,191.612,85.915,191.612,191.612l0,0
	c0,105.697-85.915,191.612-191.612,191.612l0,0c-105.697,0-191.612-85.915-191.612-191.612l0,0
	C6.206,92.121,92.121,6.206,197.818,6.206z"/>
<path style="fill:#2EA2DB;" d="M389.624,197.818c0,105.503-86.303,191.806-191.806,191.806S6.012,303.321,6.012,197.818
	c0-50.941,19.782-99.491,56.372-135.499c35.943-36.59,84.493-56.372,135.499-56.372C303.321,6.012,389.624,92.315,389.624,197.818z"
	/>
<path style="fill:#FDBF5E;" d="M352.065,197.818c0,84.881-69.43,154.246-154.246,154.246S43.572,282.699,43.572,197.818
	c0-40.986,15.903-80.032,45.317-108.929c28.897-29.414,68.008-45.317,108.929-45.317
	C282.699,43.572,352.065,112.937,352.065,197.818z"/>
<path style="fill:#E1E6E9;" d="M279.725,197.818c0,45.059-36.848,81.907-81.907,81.907s-81.907-36.848-81.907-81.907
	c0-21.786,8.469-42.473,24.048-57.859c15.386-15.644,36.073-24.048,57.859-24.048C242.877,115.911,279.725,152.76,279.725,197.818z"
	/>
<path style="fill:#FFFFFF;" d="M241.972,197.818c0,24.307-19.846,44.154-44.154,44.154s-44.154-19.846-44.154-44.154
	c0-11.701,4.525-22.885,12.994-31.16c8.275-8.404,19.459-12.994,31.16-12.994C222.125,153.665,241.972,173.511,241.972,197.818z"/>
<g>
	<path style="fill:#193651;" d="M197.818,0C145.261,0,95.224,20.428,58.117,58.117C20.428,95.224,0,145.261,0,197.818
		c0,108.8,89.018,197.818,197.818,197.818s197.818-89.018,197.818-197.818S306.618,0,197.818,0z M12.347,197.818
		c0-49.455,19.135-95.806,54.432-131.038s81.584-54.368,131.038-54.368c100.137,0,181.721,79.774,185.471,179.265h-24.76
		c-3.685-85.98-74.15-154.57-160.711-154.57c-42.667,0-83.459,16.679-113.713,46.998s-46.998,71.046-46.998,113.713
		c0,42.02,16.097,80.356,42.667,109.446l-17.325,17.261C31.547,291.168,12.347,246.626,12.347,197.818z M197.818,383.289
		c-48.808,0-93.349-19.135-126.707-50.101l17.325-17.325c29.026,26.57,67.362,42.667,109.446,42.667v-12.347
		c-81.648,0-148.428-66.78-148.428-148.364c0-39.564,15.451-76.671,43.248-105.115c26.57-26.57,61.22-42.02,98.909-43.248v24.76
		c-65.552,3.685-117.463,57.471-117.463,123.669c0,68.008,55.661,123.669,123.669,123.669c32.776,0,64.323-12.994,87.143-36.461
		c23.467-22.885,36.461-54.368,36.461-87.143h-12.347c0,27.798-9.891,53.786-28.444,74.214l-17.261-17.455
		c13.576-15.451,21.01-35.879,21.01-56.889c0-47.58-38.917-86.562-86.562-86.562c-21.657,0-41.438,8.016-56.889,21.01
		l-17.325-17.325c19.782-17.907,45.77-28.444,74.214-28.444c49.455,0,93.996,33.358,106.925,81.002l11.766-3.103
		c-14.222-51.329-59.992-87.143-112.485-90.246V49.39c79.127,3.168,142.158,68.655,142.158,148.428
		c0,69.236-48.808,129.81-116.234,144.679l2.457,12.347c71.111-15.451,123.022-78.481,126.125-150.82h24.76
		C379.539,303.515,297.956,383.289,197.818,383.289z M123.669,197.818c0-40.792,33.358-74.214,74.214-74.214
		c38.917,0,70.465,30.319,73.568,68.008h-24.76c-1.875-14.222-9.891-27.216-22.238-35.232l-6.788,10.537
		c10.537,6.788,17.325,18.554,17.325,31.547c0,9.891-3.685,19.135-11.119,25.988c-6.788,6.788-16.097,10.537-25.988,10.537
		c-20.428,0-37.107-16.679-37.107-37.107s16.679-37.107,37.107-37.107v-12.347c-27.216,0-49.455,22.238-49.455,49.455
		s22.238,49.455,49.455,49.455c12.994,0,25.341-4.913,35.232-14.222c8.016-8.016,12.994-17.907,14.222-29.026h24.76
		c-1.228,17.325-8.663,34.004-21.657,46.352c-14.222,14.222-32.776,21.657-52.558,21.657c-26.57,0-51.329-14.222-64.259-37.689
		l-10.537,6.206c14.804,27.216,43.895,43.895,74.796,43.895c21.01,0,40.792-7.434,56.889-21.01l17.325,17.325
		c-20.428,18.554-46.352,28.444-74.214,28.444c-61.22,0-111.257-50.101-111.257-111.257c0-28.444,11.119-54.368,28.444-74.214
		l17.325,17.325c-12.994,15.451-21.01,35.232-21.01,56.889h12.283V197.818z"/>
	
		<rect x="191.645" y="191.601" transform="matrix(-0.7072 -0.707 0.707 -0.7072 197.8899 477.5014)" style="fill:#193651;" width="12.347" height="12.347"/>
</g>
<g>
</g>
<g>
</g>
<g>
</g>
<g>
</g>
<g>
</g>
<g>
</g>
<g>
</g>
<g>
</g>
<g>
</g>
<g>
</g>
<g>
</g>
<g>
</g>
<g>
</g>
<g>
</g>
<g>
</g>
</svg>
