<?xml version="1.0" encoding="iso-8859-1"?>
<!-- Generator: Adobe Illustrator 19.0.0, SVG Export Plug-In . SVG Version: 6.00 Build 0)  -->
<svg version="1.1" id="Layer_1" xmlns="http://www.w3.org/2000/svg" xmlns:xlink="http://www.w3.org/1999/xlink" x="0px" y="0px"
	 viewBox="0 0 395.636 395.636" style="enable-background:new 0 0 395.636 395.636;" xml:space="preserve">
<g>
	<path style="fill:#FFFFFF;" d="M389.43,328.275c0,17.002-21.463,32.323-56.178,43.378s-82.618,17.842-135.434,17.842
		s-100.784-6.788-135.434-17.842c-34.715-11.055-56.178-26.376-56.178-43.378c0-28.121,58.893-51.653,139.119-58.893v70.659h104.469
		v-70.723c32,2.844,60.638,8.275,83.523,15.58C367.968,295.952,389.43,311.273,389.43,328.275z"/>
	<path style="fill:#FFFFFF;" d="M274.489,129.228c0-21.657-17.325-38.917-38.917-38.917h-75.442
		c-21.657,0-38.917,17.325-38.917,38.917v103.822h24.113v106.925h104.469V233.051h24.113V129.228H274.489z"/>
</g>
<path style="fill:#FDBF5E;" d="M170.02,315.863V208.356h-24.113v-79.127c0-8.016,6.206-14.222,14.222-14.222h76.024
	c8.016,0,14.222,6.206,14.222,14.222v79.127h-24.113v106.925H170.02V315.863z"/>
<circle style="fill:#FFFFFF;" cx="197.818" cy="37.689" r="31.547"/>
<g>
	<path style="fill:#193651;" d="M256.517,263.952v-24.113h24.113v-110.61c0-24.76-20.428-45.123-45.123-45.123h-75.378
		c-24.76,0-45.123,20.428-45.123,45.123v110.028h24.113v24.113C64.323,271.386,0,293.624,0,328.275
		c0,43.895,102.012,67.362,197.818,67.362s197.818-23.467,197.818-67.362C395.636,293.624,331.313,271.386,256.517,263.952z
		 M127.354,226.844v-97.616c0-17.907,14.869-32.776,32.776-32.776h76.024c17.907,0,32.776,14.869,32.776,32.776v97.681h-24.113
		v106.925h-40.792v-78.545h-12.347v78.481h-40.21V226.844H127.354z M197.818,383.289c-109.446,0-185.471-29.026-185.471-55.014
		c0-21.01,50.101-43.895,126.707-51.911v70.465h116.816v-70.465c77.253,8.016,127.354,30.901,127.354,51.911
		C383.289,354.198,307.265,383.289,197.818,383.289z"/>
	<path style="fill:#193651;" d="M197.818,76.024c21.01,0,37.689-17.325,37.689-37.689C235.507,17.325,218.828,0,197.818,0
		s-37.689,17.325-37.689,37.689C160.129,58.699,176.808,76.024,197.818,76.024z M197.818,12.347
		c14.222,0,25.341,11.766,25.341,25.341S211.394,63.03,197.818,63.03c-14.222,0-25.341-11.766-25.341-25.341
		S183.596,12.347,197.818,12.347z"/>
	<path style="fill:#193651;" d="M346.828,202.731h-12.347v-9.244h12.347V202.731z M346.828,181.139h-12.347v-12.347h12.347V181.139z
		 M346.828,156.38h-12.347v-12.347h12.347V156.38z M346.828,131.685h-12.347v-12.347h12.347V131.685z M346.828,106.925h-12.347
		V94.578h12.347V106.925z M346.828,82.23h-12.347V69.883h12.347V82.23z M346.828,57.471h-12.347V45.123h12.347V57.471z"/>
	<polygon style="fill:#193651;" points="340.622,236.154 312.824,207.709 321.487,199.046 340.622,218.246 359.758,199.046 
		368.42,207.709 	"/>
	<path style="fill:#193651;" d="M75.442,202.731H63.03v-9.244h12.347v9.244H75.442z M75.442,181.139H63.03v-12.347h12.347v12.347
		H75.442z M75.442,156.38H63.03v-12.347h12.347v12.347H75.442z M75.442,131.685H63.03v-12.347h12.347v12.347H75.442z
		 M75.442,106.925H63.03V94.578h12.347v12.347H75.442z M75.442,82.23H63.03V69.883h12.347V82.23H75.442z M75.442,57.471H63.03
		V45.123h12.347v12.347H75.442z"/>
	<polygon style="fill:#193651;" points="68.59,236.154 40.792,207.709 49.455,199.046 68.59,218.246 88.372,199.046 97.034,207.709 
			"/>
	<rect x="191.612" y="127.354" style="fill:#193651;" width="12.347" height="12.347"/>
	<rect x="191.612" y="159.483" style="fill:#193651;" width="12.347" height="12.347"/>
	<rect x="191.612" y="191.612" style="fill:#193651;" width="12.347" height="12.347"/>
</g>
<g>
</g>
<g>
</g>
<g>
</g>
<g>
</g>
<g>
</g>
<g>
</g>
<g>
</g>
<g>
</g>
<g>
</g>
<g>
</g>
<g>
</g>
<g>
</g>
<g>
</g>
<g>
</g>
<g>
</g>
</svg>
