<?xml version="1.0" encoding="iso-8859-1"?>
<!-- Generator: Adobe Illustrator 19.0.0, SVG Export Plug-In . SVG Version: 6.00 Build 0)  -->
<svg version="1.1" id="Layer_1" xmlns="http://www.w3.org/2000/svg" xmlns:xlink="http://www.w3.org/1999/xlink" x="0px" y="0px"
	 viewBox="0 0 395.636 395.636" style="enable-background:new 0 0 395.636 395.636;" xml:space="preserve">
<g>
	<rect x="142.869" y="6.206" style="fill:#FFFFFF;" width="110.675" height="34.004"/>
	<rect x="55.725" y="90.893" style="fill:#FFFFFF;" width="284.38" height="298.602"/>
</g>
<path style="fill:#FDBF5E;" d="M355.491,90.893H40.275V58.764c0-10.537,8.016-18.554,18.554-18.554h84.105h110.675h84.04
	c10.537,0,18.554,8.016,18.554,18.554v32.129H355.491z"/>
<path style="fill:#193651;" d="M337.002,34.004h-77.899V0h-122.44v34.004H58.763c-13.576,0-24.76,11.119-24.76,24.76v38.335h15.451
	v298.537h296.727V97.034h15.451V58.699C361.697,45.123,350.578,34.004,337.002,34.004z M149.075,12.347h98.263v21.657h-98.263
	V12.347z M333.899,383.289H61.867V97.034h272.032L333.899,383.289L333.899,383.289z M349.349,84.687H46.416V58.699
	c0-6.788,5.56-12.347,12.347-12.347h77.899h123.022h77.899c6.788,0,12.347,5.56,12.347,12.347v25.988H349.349z"/>
<g>
	<rect x="261.559" y="140.929" style="fill:#4FBF9F;" width="34.004" height="197.818"/>
	<rect x="181.204" y="140.929" style="fill:#4FBF9F;" width="34.004" height="197.818"/>
	<rect x="100.202" y="140.929" style="fill:#4FBF9F;" width="34.004" height="197.818"/>
</g>
<g>
	<rect x="158.965" y="59.345" style="fill:#193651;" width="12.347" height="12.347"/>
	<rect x="191.677" y="59.345" style="fill:#193651;" width="12.347" height="12.347"/>
	<rect x="224.452" y="59.345" style="fill:#193651;" width="12.347" height="12.347"/>
</g>
<g>
</g>
<g>
</g>
<g>
</g>
<g>
</g>
<g>
</g>
<g>
</g>
<g>
</g>
<g>
</g>
<g>
</g>
<g>
</g>
<g>
</g>
<g>
</g>
<g>
</g>
<g>
</g>
<g>
</g>
</svg>
