<?xml version="1.0" encoding="iso-8859-1"?>
<!-- Generator: Adobe Illustrator 19.0.0, SVG Export Plug-In . SVG Version: 6.00 Build 0)  -->
<svg version="1.1" id="Layer_1" xmlns="http://www.w3.org/2000/svg" xmlns:xlink="http://www.w3.org/1999/xlink" x="0px" y="0px"
	 viewBox="0 0 395.636 395.636" style="enable-background:new 0 0 395.636 395.636;" xml:space="preserve">
<path style="fill:#FFFFFF;" d="M339.943,389.43H55.628c-6.788,0-12.347-5.56-12.347-12.347V18.554
	c0-6.788,5.56-12.347,12.347-12.347h284.38c6.788,0,12.347,5.56,12.347,12.347v358.529
	C352.356,383.871,346.796,389.43,339.943,389.43z"/>
<g>
	<path style="fill:#F16051;" d="M339.943,6.206H55.628c-6.788,0-12.347,5.56-12.347,12.347v40.21h309.075v-40.21
		C352.356,11.766,346.796,6.206,339.943,6.206z"/>
	<path style="fill:#F16051;" d="M43.216,320.84v56.242c0,6.788,5.56,12.347,12.347,12.347h284.38c6.788,0,12.347-5.56,12.347-12.347
		V320.84H43.216z"/>
</g>
<path style="fill:#193651;" d="M339.943,395.636H55.628c-10.537,0-18.554-8.016-18.554-18.554V18.554
	C37.075,8.016,45.091,0,55.628,0h284.38c10.537,0,18.554,8.016,18.554,18.554v358.529
	C358.497,387.62,350.481,395.636,339.943,395.636z M55.628,12.347c-3.685,0-6.206,2.457-6.206,6.206v358.529
	c0,3.685,2.457,6.206,6.206,6.206h284.38c3.685,0,6.206-2.457,6.206-6.206V18.554c0-3.685-2.457-6.206-6.206-6.206H55.628z"/>
<g>
	<rect x="162.554" y="29.673" style="fill:#FFFFFF;" width="12.347" height="12.347"/>
	<rect x="191.58" y="29.673" style="fill:#FFFFFF;" width="12.347" height="12.347"/>
	<rect x="221.253" y="29.673" style="fill:#FFFFFF;" width="12.347" height="12.347"/>
	<rect x="162.554" y="349.285" style="fill:#FFFFFF;" width="70.465" height="12.347"/>
	<rect x="87.111" y="89.665" style="fill:#FFFFFF;" width="45.77" height="45.77"/>
</g>
<path style="fill:#193651;" d="M139.669,142.158H81.552V84.04h58.117V142.158z M93.317,129.81h33.358V96.453H93.317V129.81z"/>
<rect x="174.901" y="89.665" style="fill:#FFFFFF;" width="45.77" height="45.77"/>
<path style="fill:#193651;" d="M226.812,142.158h-58.117V84.04h58.117V142.158z M181.107,129.81h33.358V96.453h-33.358V129.81
	L181.107,129.81z"/>
<rect x="262.109" y="89.665" style="fill:#FFFFFF;" width="45.77" height="45.77"/>
<path style="fill:#193651;" d="M314.602,142.158h-58.117V84.04h58.117V142.158z M268.25,129.81h33.358V96.453H268.25V129.81z"/>
<rect x="87.111" y="168.792" style="fill:#FFFFFF;" width="45.77" height="45.77"/>
<path style="fill:#193651;" d="M139.669,220.703H81.552v-58.117h58.117V220.703z M93.317,208.356h33.358v-33.358H93.317V208.356z"/>
<rect x="174.901" y="168.792" style="fill:#FFFFFF;" width="45.77" height="45.77"/>
<path style="fill:#193651;" d="M226.812,220.703h-58.117v-58.117h58.117V220.703z M181.107,208.356h33.358v-33.358h-33.358V208.356
	L181.107,208.356z"/>
<rect x="262.109" y="168.792" style="fill:#FFFFFF;" width="45.77" height="45.77"/>
<path style="fill:#193651;" d="M314.602,220.703h-58.117v-58.117h58.117V220.703z M268.25,208.356h33.358v-33.358H268.25V208.356z"
	/>
<rect x="87.111" y="247.273" style="fill:#FFFFFF;" width="45.77" height="45.77"/>
<path style="fill:#193651;" d="M139.669,299.83H81.552v-58.699h58.117V299.83z M93.317,287.483h33.358v-34.004H93.317V287.483z"/>
<rect x="174.901" y="247.273" style="fill:#FFFFFF;" width="45.77" height="45.77"/>
<path style="fill:#193651;" d="M226.812,299.83h-58.117v-58.699h58.117V299.83z M181.107,287.483h33.358v-34.004h-33.358V287.483
	L181.107,287.483z"/>
<rect x="262.109" y="247.273" style="fill:#FFFFFF;" width="45.77" height="45.77"/>
<path style="fill:#193651;" d="M314.602,299.83h-58.117v-58.699h58.117V299.83z M268.25,287.483h33.358v-34.004H268.25V287.483z"/>
<g>
</g>
<g>
</g>
<g>
</g>
<g>
</g>
<g>
</g>
<g>
</g>
<g>
</g>
<g>
</g>
<g>
</g>
<g>
</g>
<g>
</g>
<g>
</g>
<g>
</g>
<g>
</g>
<g>
</g>
</svg>
