<?xml version="1.0" encoding="iso-8859-1"?>
<!-- Generator: Adobe Illustrator 19.0.0, SVG Export Plug-In . SVG Version: 6.00 Build 0)  -->
<svg version="1.1" id="Layer_1" xmlns="http://www.w3.org/2000/svg" xmlns:xlink="http://www.w3.org/1999/xlink" x="0px" y="0px"
	 viewBox="0 0 395.636 395.636" style="enable-background:new 0 0 395.636 395.636;" xml:space="preserve">
<path style="fill:#FFFFFF;stroke:#193651;stroke-width:2;stroke-miterlimit:10;" d="M324.525,6.206
	c0,10.537-7.434,18.554-17.325,18.554c-9.244,0-17.325-8.016-17.325-18.554h-20.945c0,10.537-7.434,18.554-17.325,18.554
	c-9.244,0-17.325-8.016-17.325-18.554h-21.01c0,10.537-7.434,18.554-17.325,18.554c-9.244,0-17.325-8.016-17.325-18.554h-21.01
	c0,10.537-7.434,18.554-17.325,18.554c-9.891,0-17.325-8.016-17.325-18.554h-21.01c0,10.537-7.434,18.554-17.325,18.554
	c-9.244,0-17.325-8.016-17.325-18.554H43.248v383.289h24.113c0-10.537,7.434-18.554,17.325-18.554
	c9.244,0,17.325,8.016,17.325,18.554h21.01c0-10.537,7.434-18.554,17.325-18.554c9.891,0,17.325,8.016,17.325,18.554h21.01
	c0-10.537,7.434-18.554,17.325-18.554c9.244,0,17.325,8.016,17.325,18.554h21.01c0-10.537,7.434-18.554,17.325-18.554
	c9.244,0,17.325,8.016,17.325,18.554h21.01c0-10.537,7.434-18.554,17.325-18.554c9.244,0,17.325,8.016,17.325,18.554h27.798V6.206
	H324.525z"/>
<path id="SVGCleanerId_0" style="fill:#FDBF5E;" d="M279.402,358.529c-7.434-7.434-17.325-12.347-27.798-12.347
	c-10.473,0-20.428,4.913-27.798,12.347c-7.434-7.434-17.325-12.347-27.798-12.347s-20.428,4.913-27.798,12.347
	c-7.434-7.434-17.325-12.347-27.798-12.347c-10.473,0-20.428,4.913-27.798,12.347c-7.434-7.434-17.325-12.347-27.798-12.347
	c-6.788,0-12.994,1.875-18.554,4.913V44.477c5.56,3.103,11.766,4.978,18.554,4.978c10.537,0,20.428-4.331,27.798-12.347
	c7.434,7.434,17.325,12.347,27.798,12.347c10.473,0,20.428-4.331,27.798-12.347c7.434,7.434,17.325,12.347,27.798,12.347
	s20.428-4.331,27.798-12.347c7.434,7.434,17.325,12.347,27.798,12.347c10.473,0,20.428-4.331,27.798-12.347
	c7.434,7.434,17.325,12.347,27.798,12.347c8.016,0,16.097-2.457,22.238-7.434V352.97c-6.206-4.331-14.222-7.434-22.238-7.434
	C296.727,346.182,286.836,351.095,279.402,358.529z"/>
<path style="fill:#FFFFFF;" d="M324.525,6.206c0,10.537-7.434,18.554-17.325,18.554c-9.244,0-17.325-8.016-17.325-18.554h-20.945
	c0,10.537-7.434,18.554-17.325,18.554c-9.244,0-17.325-8.016-17.325-18.554h-21.01c0,10.537-7.434,18.554-17.325,18.554
	c-9.244,0-17.325-8.016-17.325-18.554h-21.01c0,10.537-7.434,18.554-17.325,18.554c-9.891,0-17.325-8.016-17.325-18.554h-21.01
	c0,10.537-7.434,18.554-17.325,18.554c-9.244,0-17.325-8.016-17.325-18.554H43.248v383.289h24.113
	c0-10.537,7.434-18.554,17.325-18.554c9.244,0,17.325,8.016,17.325,18.554h21.01c0-10.537,7.434-18.554,17.325-18.554
	c9.891,0,17.325,8.016,17.325,18.554h21.01c0-10.537,7.434-18.554,17.325-18.554c9.244,0,17.325,8.016,17.325,18.554h21.01
	c0-10.537,7.434-18.554,17.325-18.554c9.244,0,17.325,8.016,17.325,18.554h21.01c0-10.537,7.434-18.554,17.325-18.554
	c9.244,0,17.325,8.016,17.325,18.554h27.798V6.206H324.525z"/>
<path style="fill:#193651;" d="M358.529,395.636h-40.21v-6.206c0-6.788-4.913-12.347-11.119-12.347s-11.119,5.56-11.119,12.347
	v6.206h-33.358v-6.206c0-6.788-4.913-12.347-11.119-12.347s-11.119,5.56-11.119,12.347v6.206h-33.358v-6.206
	c0-6.788-4.913-12.347-11.119-12.347s-11.119,5.56-11.119,12.347v6.206h-33.358v-6.206c0-6.788-4.913-12.347-11.119-12.347
	s-11.119,5.56-11.119,12.347v6.206H95.935v-6.206c0-6.788-4.913-12.347-11.119-12.347s-11.119,5.56-11.119,12.347v6.206h-36.59V0
	h36.461v6.206c0,6.788,4.978,12.347,11.119,12.347c6.141,0,11.119-5.56,11.119-12.347V0h33.358v6.206
	c0,6.788,4.913,12.347,11.119,12.347s11.119-5.56,11.119-12.347V0h33.358v6.206c0,6.788,4.913,12.347,11.119,12.347
	c6.206,0,11.119-5.56,11.119-12.347V0h33.487v6.206c0,6.788,4.913,12.347,11.119,12.347c6.206,0,11.119-5.56,11.119-12.347V0h33.358
	v6.206c0,6.788,4.913,12.347,11.119,12.347c6.206,0,11.119-5.56,11.119-12.347V0h40.21L358.529,395.636L358.529,395.636z
	 M330.085,383.289h16.097V12.347h-16.097c-2.457,10.537-11.766,18.554-22.885,18.554c-11.119,0-19.782-8.016-22.885-18.554h-10.537
	c-2.457,10.537-11.766,18.554-22.885,18.554c-11.119,0-19.782-8.016-22.885-18.554h-10.537
	c-2.457,10.537-11.766,18.554-22.885,18.554c-11.119,0-19.782-8.016-22.885-18.554h-10.537
	c-2.457,10.537-11.766,18.554-22.885,18.554s-19.782-8.016-22.885-18.554h-10.537C102.4,22.885,93.091,30.901,81.972,30.901
	S62.19,22.885,59.087,12.347h-9.632v370.941h12.994c2.457-10.537,11.766-18.554,22.885-18.554s19.782,8.016,22.885,18.554h10.537
	c2.457-10.537,11.766-18.554,22.885-18.554s19.782,8.016,22.885,18.554h10.537c2.457-10.537,11.766-18.554,22.885-18.554
	c11.119,0,19.782,8.016,22.885,18.554h10.537c2.457-10.537,11.766-18.554,22.885-18.554c11.119,0,19.782,8.016,22.885,18.554h10.537
	c2.457-10.537,11.766-18.554,22.885-18.554S327.046,372.751,330.085,383.289z"/>
<g>
	<path id="SVGCleanerId_0_1_" style="fill:#FDBF5E;" d="M279.402,358.529c-7.434-7.434-17.325-12.347-27.798-12.347
		c-10.473,0-20.428,4.913-27.798,12.347c-7.434-7.434-17.325-12.347-27.798-12.347s-20.428,4.913-27.798,12.347
		c-7.434-7.434-17.325-12.347-27.798-12.347c-10.473,0-20.428,4.913-27.798,12.347c-7.434-7.434-17.325-12.347-27.798-12.347
		c-6.788,0-12.994,1.875-18.554,4.913V44.477c5.56,3.103,11.766,4.978,18.554,4.978c10.537,0,20.428-4.331,27.798-12.347
		c7.434,7.434,17.325,12.347,27.798,12.347c10.473,0,20.428-4.331,27.798-12.347c7.434,7.434,17.325,12.347,27.798,12.347
		s20.428-4.331,27.798-12.347c7.434,7.434,17.325,12.347,27.798,12.347c10.473,0,20.428-4.331,27.798-12.347
		c7.434,7.434,17.325,12.347,27.798,12.347c8.016,0,16.097-2.457,22.238-7.434V352.97c-6.206-4.331-14.222-7.434-22.238-7.434
		C296.727,346.182,286.836,351.095,279.402,358.529z"/>
</g>
<g>
	<path style="fill:#193651;" d="M113.778,259.943c-6.335,0-11.442-5.172-11.442-11.442c0-6.335,5.172-11.442,11.442-11.442
		c6.335,0,11.442,5.172,11.442,11.442h12.929c0-11.184-7.628-20.687-17.907-23.531V213.85h-12.929v11.119
		c-10.343,2.844-17.907,12.283-17.907,23.531c0,13.446,10.925,24.372,24.372,24.372c6.335,0,11.442,5.172,11.442,11.442
		c0,6.271-5.172,11.442-11.442,11.442c-6.335,0-11.442-5.172-11.442-11.442H89.406c0,11.184,7.628,20.687,17.907,23.531v9.244
		h12.929v-9.244c10.343-2.844,17.907-12.283,17.907-23.531C138.149,270.933,127.224,259.943,113.778,259.943z"/>
	<rect x="144.679" y="84.428" style="fill:#193651;" width="106.343" height="12.929"/>
	<rect x="95.806" y="125.802" style="fill:#193651;" width="204.024" height="12.929"/>
	<rect x="95.806" y="167.24" style="fill:#193651;" width="204.024" height="12.929"/>
	<polygon style="fill:#193651;" points="302.287,284.638 302.287,271.709 239.321,271.709 238.61,271.709 238.61,284.638 
		239.321,284.638 	"/>
	<polygon style="fill:#193651;" points="239.321,300.8 238.61,300.8 238.61,313.729 239.321,313.729 250.311,313.729 
		250.958,313.729 250.958,300.8 250.311,300.8 	"/>
	<polygon style="fill:#193651;" points="264.598,300.8 264.275,300.8 264.275,313.729 264.598,313.729 276.945,313.729 
		277.204,313.729 277.204,300.8 276.945,300.8 	"/>
	<polygon style="fill:#193651;" points="302.287,300.8 289.939,300.8 289.616,300.8 289.616,313.729 289.939,313.729 
		302.287,313.729 302.545,313.729 302.545,300.8 	"/>
</g>
<g>
</g>
<g>
</g>
<g>
</g>
<g>
</g>
<g>
</g>
<g>
</g>
<g>
</g>
<g>
</g>
<g>
</g>
<g>
</g>
<g>
</g>
<g>
</g>
<g>
</g>
<g>
</g>
<g>
</g>
</svg>
