<?xml version="1.0" encoding="iso-8859-1"?>
<!-- Generator: Adobe Illustrator 19.0.0, SVG Export Plug-In . SVG Version: 6.00 Build 0)  -->
<svg version="1.1" id="Layer_1" xmlns="http://www.w3.org/2000/svg" xmlns:xlink="http://www.w3.org/1999/xlink" x="0px" y="0px"
	 viewBox="0 0 396.283 396.283" style="enable-background:new 0 0 396.283 396.283;" xml:space="preserve">
<rect x="6.529" y="6.206" style="fill:#FFFFFF;" width="383.289" height="192.259"/>
<rect x="31.224" y="30.966" style="fill:#FDBF5E;" width="333.834" height="142.804"/>
<polygon style="fill:#193651;" points="255.03,137.891 141.253,137.891 141.253,102.659 153.6,102.659 153.6,125.543 
	242.683,125.543 242.683,102.659 255.03,102.659 "/>
<rect x="6.529" y="198.465" style="fill:#FFFFFF;" width="383.289" height="192.259"/>
<path style="fill:#193651;" d="M0.323,0v396.283H395.96V0H0.323z M383.612,384.517H12.671V204.671h370.941L383.612,384.517
	L383.612,384.517z M383.612,192.259H12.671V12.412h370.941L383.612,192.259L383.612,192.259z"/>
<rect x="31.224" y="223.224" style="fill:#FDBF5E;" width="333.834" height="142.804"/>
<g>
	<polygon style="fill:#193651;" points="255.03,330.15 141.253,330.15 141.253,294.271 153.6,294.271 153.6,317.802 
		242.683,317.802 242.683,294.271 255.03,294.271 	"/>
	<rect x="321.81" y="55.079" style="fill:#193651;" width="12.347" height="12.347"/>
	<rect x="321.81" y="96.453" style="fill:#193651;" width="12.347" height="12.347"/>
	<rect x="321.81" y="137.244" style="fill:#193651;" width="12.347" height="12.347"/>
	<rect x="62.125" y="55.079" style="fill:#193651;" width="12.347" height="12.347"/>
	<rect x="62.125" y="96.453" style="fill:#193651;" width="12.347" height="12.347"/>
	<rect x="62.125" y="137.244" style="fill:#193651;" width="12.347" height="12.347"/>
	<rect x="321.81" y="247.273" style="fill:#193651;" width="12.347" height="12.347"/>
	<rect x="321.81" y="288.129" style="fill:#193651;" width="12.347" height="12.347"/>
	<rect x="321.81" y="329.503" style="fill:#193651;" width="12.347" height="12.347"/>
	<rect x="62.125" y="247.273" style="fill:#193651;" width="12.347" height="12.347"/>
	<rect x="62.125" y="288.129" style="fill:#193651;" width="12.347" height="12.347"/>
	<rect x="62.125" y="329.503" style="fill:#193651;" width="12.347" height="12.347"/>
</g>
<g>
</g>
<g>
</g>
<g>
</g>
<g>
</g>
<g>
</g>
<g>
</g>
<g>
</g>
<g>
</g>
<g>
</g>
<g>
</g>
<g>
</g>
<g>
</g>
<g>
</g>
<g>
</g>
<g>
</g>
</svg>
