<?xml version="1.0" encoding="iso-8859-1"?>
<!-- Generator: Adobe Illustrator 19.0.0, SVG Export Plug-In . SVG Version: 6.00 Build 0)  -->
<svg version="1.1" id="Layer_1" xmlns="http://www.w3.org/2000/svg" xmlns:xlink="http://www.w3.org/1999/xlink" x="0px" y="0px"
	 viewBox="0 0 395.636 395.636" style="enable-background:new 0 0 395.636 395.636;" xml:space="preserve">
<polygon style="fill:#FFFFFF;" points="389.43,6.206 389.43,389.43 295.499,389.43 295.499,215.725 98.909,215.725 98.909,6.206 "/>
<polygon style="fill:#FDBF5E;" points="364.735,30.901 364.735,364.735 295.499,364.735 295.499,215.725 123.669,215.725 
	123.669,30.901 "/>
<g>
	<rect x="6.206" y="215.725" style="fill:#FFFFFF;" width="289.293" height="173.705"/>
	<polygon style="fill:#FFFFFF;" points="295.499,215.725 150.82,302.287 6.206,215.725 	"/>
</g>
<g>
	<path style="fill:#193651;" d="M92.703,0v209.584H0v186.053h395.636V0H92.703z M273.261,221.931l-122.44,73.568L28.444,221.931
		H273.261z M289.293,383.289H12.347V226.263l135.37,81.584c1.228,0.646,1.875,0.646,3.103,0.646s2.457,0,3.103-0.646l135.37-81.584
		V383.289z M383.289,383.289c0,0-35.232,0.646-81.584,1.228V209.584h-196.59V12.412h278.174V383.289z"/>
	<rect x="149.01" y="80.356" style="fill:#193651;" width="190.384" height="12.347"/>
	<rect x="149.01" y="114.36" style="fill:#193651;" width="190.384" height="12.347"/>
	<rect x="149.01" y="149.01" style="fill:#193651;" width="190.384" height="12.347"/>
	<rect x="103.822" y="333.188" style="fill:#193651;" width="12.347" height="12.347"/>
	<rect x="144.679" y="333.188" style="fill:#193651;" width="12.347" height="12.347"/>
	<rect x="185.471" y="333.188" style="fill:#193651;" width="12.347" height="12.347"/>
</g>
<g>
</g>
<g>
</g>
<g>
</g>
<g>
</g>
<g>
</g>
<g>
</g>
<g>
</g>
<g>
</g>
<g>
</g>
<g>
</g>
<g>
</g>
<g>
</g>
<g>
</g>
<g>
</g>
<g>
</g>
</svg>
