<?xml version="1.0" encoding="iso-8859-1"?>
<!-- Generator: Adobe Illustrator 19.0.0, SVG Export Plug-In . SVG Version: 6.00 Build 0)  -->
<svg version="1.1" id="Layer_1" xmlns="http://www.w3.org/2000/svg" xmlns:xlink="http://www.w3.org/1999/xlink" x="0px" y="0px"
	 viewBox="0 0 395.636 395.636" style="enable-background:new 0 0 395.636 395.636;" xml:space="preserve">
<rect x="342.465" y="43.248" style="fill:#2EA2DB;" width="31.547" height="37.107"/>
<rect x="342.465" y="119.919" style="fill:#F16051;" width="31.547" height="37.107"/>
<rect x="342.465" y="195.943" style="fill:#FDBF5E;" width="31.547" height="37.107"/>
<rect x="89.632" y="6.206" style="fill:#FFFFFF;" width="252.832" height="383.289"/>
<rect x="114.327" y="30.901" style="fill:#2EA2DB;" width="203.378" height="333.834"/>
<path style="fill:#FFFFFF;" d="M89.632,389.43H40.178c-6.788,0-12.347-5.56-12.347-12.347V18.554c0-6.788,5.56-12.347,12.347-12.347
	h49.455V389.43z"/>
<g>
	<path style="fill:#193651;" d="M40.178,0C29.64,0,21.624,8.016,21.624,18.554v358.529c0,10.537,8.016,18.554,18.554,18.554h308.493
		V0H40.178z M83.426,383.289H40.178c-3.685,0-6.206-2.457-6.206-6.206V18.554c0-3.685,2.457-6.206,6.206-6.206h43.248V383.289z
		 M336.259,383.289H95.774V12.347h240.485V383.289z"/>
	<rect x="148.331" y="321.487" style="fill:#193651;" width="12.347" height="12.347"/>
	<rect x="181.689" y="321.487" style="fill:#193651;" width="12.347" height="12.347"/>
	<rect x="214.465" y="321.487" style="fill:#193651;" width="12.347" height="12.347"/>
</g>
<rect x="151.434" y="68.008" style="fill:#FFFFFF;" width="129.228" height="70.465"/>
<g>
	<path style="fill:#193651;" d="M286.804,144.679H145.228V61.802h141.576V144.679z M157.576,132.267h116.816V74.15H157.576V132.267z
		"/>
	<rect x="143.418" y="180.493" style="fill:#193651;" width="145.261" height="12.347"/>
	<rect x="143.418" y="214.497" style="fill:#193651;" width="145.261" height="12.347"/>
</g>
<g>
</g>
<g>
</g>
<g>
</g>
<g>
</g>
<g>
</g>
<g>
</g>
<g>
</g>
<g>
</g>
<g>
</g>
<g>
</g>
<g>
</g>
<g>
</g>
<g>
</g>
<g>
</g>
<g>
</g>
</svg>
