<?xml version="1.0" encoding="iso-8859-1"?>
<!-- Generator: Adobe Illustrator 19.0.0, SVG Export Plug-In . SVG Version: 6.00 Build 0)  -->
<svg version="1.1" id="Layer_1" xmlns="http://www.w3.org/2000/svg" xmlns:xlink="http://www.w3.org/1999/xlink" x="0px" y="0px"
	 viewBox="0 0 395.636 395.636" style="enable-background:new 0 0 395.636 395.636;" xml:space="preserve">
<circle style="fill:#2EA2DB;" cx="197.818" cy="197.818" r="197.818"/>
<path style="fill:#FFFFFF;" d="M330.731,158.901c0-87.143-73.568-157.608-162.586-152.695
	C90.246,11.119,27.798,76.024,25.341,154.57c-1.228,50.683,21.657,95.806,58.699,124.897v110.028h177.39v-58.117h32.776
	c16.679,0,29.673-13.576,29.673-29.673v-65.551h46.352L330.731,158.901z"/>
<path style="fill:#193651;" d="M336.937,157.608c-0.646-43.248-18.554-84.687-50.101-114.36
	C254.707,12.994,212.04-2.457,167.499,0.646C87.143,5.56,21.657,72.921,19.135,154.57c-1.228,49.455,19.782,95.806,58.699,127.354
	v107.572h12.347V276.364l-2.457-1.875c-37.107-29.026-57.471-72.921-56.242-119.919C33.939,79.774,93.931,17.325,168.727,12.412
	c40.792-2.457,79.774,11.766,110.028,39.564c29.673,27.798,46.352,66.133,46.352,106.925v1.875l35.232,69.883h-42.02v71.693
	c0,12.994-10.537,23.467-23.467,23.467h-38.917v63.677h12.347v-51.911h26.57c19.782,0,35.879-16.097,35.879-35.879V242.36h50.036
	L336.937,157.608z"/>
<path style="fill:#F16051;" d="M263.952,166.271c0.646-9.244,0-18.554-2.457-27.216l25.341-17.907l-14.222-27.798l-29.026,10.537
	c-6.206-6.788-12.994-12.994-21.01-17.907l5.56-30.319l-29.673-9.309l-12.994,27.798c-9.244-0.646-18.554,0-27.216,2.457
	l-17.907-25.341l-27.798,14.222l10.537,29.026c-6.788,6.206-12.994,12.994-17.907,21.01l-30.319-5.56l-9.244,29.673l27.798,13.576
	c-0.646,9.244,0,18.554,2.457,27.216l-25.988,17.39l14.222,27.798l29.026-10.537c6.206,6.788,12.994,12.994,21.01,17.907
	l-5.56,30.319l29.673,9.244l13.576-27.798c9.244,0.646,18.554,0,27.216-2.457l17.907,25.341l27.798-14.222l-10.537-29.026
	c6.788-6.206,12.994-12.994,17.907-21.01l30.319,5.56l9.244-29.673L263.952,166.271z M216.372,171.83
	c-6.788,21.01-29.026,32.776-50.101,25.988c-21.01-6.788-32.776-29.026-25.988-50.101c6.788-21.01,29.026-32.776,50.101-25.988
	C211.394,127.935,223.16,150.82,216.372,171.83z"/>
<g>
	<rect x="124.897" y="358.529" style="fill:#193651;" width="12.347" height="12.347"/>
	<rect x="165.689" y="358.529" style="fill:#193651;" width="12.347" height="12.347"/>
	<rect x="207.063" y="358.529" style="fill:#193651;" width="12.347" height="12.347"/>
</g>
<g>
</g>
<g>
</g>
<g>
</g>
<g>
</g>
<g>
</g>
<g>
</g>
<g>
</g>
<g>
</g>
<g>
</g>
<g>
</g>
<g>
</g>
<g>
</g>
<g>
</g>
<g>
</g>
<g>
</g>
</svg>
