<?xml version="1.0" encoding="iso-8859-1"?>
<!-- Generator: Adobe Illustrator 19.0.0, SVG Export Plug-In . SVG Version: 6.00 Build 0)  -->
<svg version="1.1" id="Layer_1" xmlns="http://www.w3.org/2000/svg" xmlns:xlink="http://www.w3.org/1999/xlink" x="0px" y="0px"
	 viewBox="0 0 395.636 395.636" style="enable-background:new 0 0 395.636 395.636;" xml:space="preserve">
<g>
	<circle style="fill:#F16051;" cx="197.818" cy="155.798" r="39.564"/>
	<path style="fill:#F16051;" d="M197.818,314.053c39.564,0,74.796-20.428,95.806-50.683v-3.685c0-26.57-24.113-48.226-53.139-48.226
		c-19.782,30.901-64.905,30.901-84.687,0l0,0c-29.673,0-53.139,21.657-53.139,48.226v3.685
		C123.022,293.624,158.255,314.053,197.818,314.053z"/>
</g>
<g>
	<path style="fill:#193651;" d="M197.818,320.194c-67.362,0-122.376-55.014-122.376-122.376S130.457,75.442,197.818,75.442
		s122.376,55.014,122.376,122.376S265.18,320.194,197.818,320.194z M197.818,87.79c-60.574,0-110.028,49.455-110.028,110.028
		s49.455,110.028,110.028,110.028s110.028-49.455,110.028-110.028S258.392,87.79,197.818,87.79z"/>
	<path style="fill:#193651;" d="M335.644,220.703l8.663,8.663l12.994-12.994c-8.663,79.709-77.253,142.158-159.483,142.158v12.347
		c90.246,0,164.461-69.236,172.477-157.026l14.869,14.869l8.663-8.663L364.8,191.612L335.644,220.703z"/>
	<path style="fill:#193651;" d="M59.992,177.39l-8.663-8.663l-12.994,12.994C45.77,100.784,114.36,37.107,197.818,37.107V24.76
		c-90.893,0-165.042,69.818-172.477,158.836l-14.869-14.869l-8.598,8.663l29.026,29.026L59.992,177.39z"/>
	<polygon style="fill:#193651;" points="354.844,0 354.844,12.347 378.311,12.347 383.289,17.325 383.289,40.792 395.636,40.792 
		395.636,0 	"/>
	
		<rect x="326.459" y="56.943" transform="matrix(-0.7071 -0.7071 0.7071 -0.7071 523.1442 342.7982)" style="fill:#193651;" width="12.218" height="12.218"/>
	
		<rect x="309.173" y="74.204" transform="matrix(-0.7071 -0.7071 0.7071 -0.7071 481.4297 360.0398)" style="fill:#193651;" width="12.218" height="12.218"/>
	
		<rect x="361.687" y="21.705" transform="matrix(-0.7071 -0.7071 0.7071 -0.7071 608.2003 307.5521)" style="fill:#193651;" width="12.218" height="12.218"/>
	
		<rect x="343.791" y="39.631" transform="matrix(-0.7071 -0.7071 0.7071 -0.7071 564.9735 325.4998)" style="fill:#193651;" width="12.218" height="12.218"/>
	
		<rect x="21.691" y="361.714" transform="matrix(0.7071 0.7071 -0.7071 0.7071 268.2323 88.0753)" style="fill:#193651;" width="12.218" height="12.218"/>
	<polygon style="fill:#193651;" points="12.347,378.311 12.347,354.844 0,354.844 0,395.636 40.792,395.636 40.792,383.289 
		17.325,383.289 	"/>
	
		<rect x="56.934" y="326.475" transform="matrix(0.7071 0.7071 -0.7071 0.7071 253.6371 52.8337)" style="fill:#193651;" width="12.218" height="12.218"/>
	
		<rect x="74.265" y="309.215" transform="matrix(0.7071 0.7071 -0.7071 0.7071 246.5087 35.5229)" style="fill:#193651;" width="12.218" height="12.218"/>
	
		<rect x="39.619" y="344.43" transform="matrix(0.7071 0.7071 -0.7071 0.7071 261.2617 70.3356)" style="fill:#193651;" width="12.218" height="12.218"/>
</g>
<g>
</g>
<g>
</g>
<g>
</g>
<g>
</g>
<g>
</g>
<g>
</g>
<g>
</g>
<g>
</g>
<g>
</g>
<g>
</g>
<g>
</g>
<g>
</g>
<g>
</g>
<g>
</g>
<g>
</g>
</svg>
