<?xml version="1.0" encoding="iso-8859-1"?>
<!-- Generator: Adobe Illustrator 19.0.0, SVG Export Plug-In . SVG Version: 6.00 Build 0)  -->
<svg version="1.1" id="Layer_1" xmlns="http://www.w3.org/2000/svg" xmlns:xlink="http://www.w3.org/1999/xlink" x="0px" y="0px"
	 viewBox="0 0 395.636 395.636" style="enable-background:new 0 0 395.636 395.636;" xml:space="preserve">
<g>
	<rect x="6.206" y="6.206" style="fill:#FFFFFF;" width="127.935" height="354.198"/>
	<rect x="134.141" y="6.206" style="fill:#FFFFFF;" width="127.935" height="354.198"/>
	<rect x="262.141" y="6.206" style="fill:#FFFFFF;" width="127.354" height="354.198"/>
</g>
<g>
	<rect x="6.206" y="6.206" style="fill:#4FBF9F;" width="127.935" height="104.469"/>
	<rect x="134.465" y="6.206" style="fill:#4FBF9F;" width="127.354" height="104.469"/>
	<rect x="261.818" y="6.206" style="fill:#4FBF9F;" width="127.935" height="104.469"/>
</g>
<g>
	<rect x="329.503" y="360.404" style="fill:#FFFFFF;" width="43.249" height="29.026"/>
	<rect x="22.885" y="360.404" style="fill:#FFFFFF;" width="43.248" height="29.026"/>
</g>
<g>
	<path style="fill:#193651;" d="M0,0v366.61h16.679v29.026h55.661V366.61h250.958v29.026h55.661V366.61h16.679V0H0z M59.992,383.289
		H29.026V366.61h30.901v16.679H59.992z M127.935,354.198H12.347V12.347h115.588C127.935,12.347,127.935,354.198,127.935,354.198z
		 M255.935,354.198h-0.646H140.347V12.347h115.588L255.935,354.198L255.935,354.198z M366.61,383.289h-30.901V366.61h30.901V383.289
		z M383.289,354.198H267.701V12.347h115.588V354.198z"/>
	<rect x="166.271" y="317.156" style="fill:#193651;" width="12.347" height="12.347"/>
	<rect x="191.612" y="317.156" style="fill:#193651;" width="12.347" height="12.347"/>
	<rect x="216.954" y="317.156" style="fill:#193651;" width="12.347" height="12.347"/>
	<rect x="294.271" y="37.107" style="fill:#193651;" width="63.03" height="12.347"/>
	<rect x="294.271" y="70.465" style="fill:#193651;" width="63.03" height="12.347"/>
	<rect x="166.271" y="37.107" style="fill:#193651;" width="63.03" height="12.347"/>
	<rect x="166.271" y="70.465" style="fill:#193651;" width="63.03" height="12.347"/>
	<rect x="38.335" y="37.107" style="fill:#193651;" width="63.03" height="12.347"/>
	<rect x="38.335" y="70.465" style="fill:#193651;" width="63.03" height="12.347"/>
	<rect x="286.19" y="159.483" style="fill:#193651;" width="12.347" height="41.438"/>
	<rect x="158.901" y="159.483" style="fill:#193651;" width="12.347" height="41.438"/>
	<rect x="97.034" y="159.483" style="fill:#193651;" width="12.347" height="41.438"/>
</g>
<g>
</g>
<g>
</g>
<g>
</g>
<g>
</g>
<g>
</g>
<g>
</g>
<g>
</g>
<g>
</g>
<g>
</g>
<g>
</g>
<g>
</g>
<g>
</g>
<g>
</g>
<g>
</g>
<g>
</g>
</svg>
