<?xml version="1.0" encoding="iso-8859-1"?>
<!-- Generator: Adobe Illustrator 19.0.0, SVG Export Plug-In . SVG Version: 6.00 Build 0)  -->
<svg version="1.1" id="Layer_1" xmlns="http://www.w3.org/2000/svg" xmlns:xlink="http://www.w3.org/1999/xlink" x="0px" y="0px"
	 viewBox="0 0 404.299 404.299" style="enable-background:new 0 0 404.299 404.299;" xml:space="preserve">
<circle style="fill:#FFFFFF;" cx="174.933" cy="229.366" r="168.792"/>
<path style="fill:#2EA2DB;" d="M174.933,373.398c-79.127,0-144.032-64.323-144.032-144.032c0-79.127,64.259-144.032,144.032-144.032
	c79.127,0,144.032,64.323,144.032,144.032C318.966,308.493,254.061,373.398,174.933,373.398z"/>
<path style="fill:#FFFFFF;" d="M174.933,348.638c-65.552,0-119.337-53.786-119.337-119.337s53.786-119.337,119.337-119.337
	s119.337,53.786,119.337,119.337S240.485,348.638,174.933,348.638z"/>
<path style="fill:#FDBF5E;" d="M174.933,323.943c-51.911,0-94.578-42.667-94.578-94.578s42.667-94.578,94.578-94.578
	s94.578,42.667,94.578,94.578S226.909,323.943,174.933,323.943z"/>
<path style="fill:#FFFFFF;" d="M174.933,299.184c-38.335,0-69.883-31.547-69.883-69.883s31.547-69.818,69.883-69.818
	s69.883,31.547,69.883,69.883C244.816,267.701,213.269,299.184,174.933,299.184z"/>
<path style="fill:#F16051;" d="M174.933,274.489c-24.76,0-45.123-20.428-45.123-45.123s20.428-45.123,45.123-45.123
	s45.123,20.428,45.123,45.123C220.057,254.061,199.693,274.489,174.933,274.489z"/>
<path style="fill:#FFFFFF;" d="M174.933,251.604c-12.347,0-22.238-9.891-22.238-22.238c0-12.347,9.891-22.238,22.238-22.238
	s22.238,9.891,22.238,22.238C197.818,241.713,187.345,251.604,174.933,251.604z"/>
<polygon style="fill:#2EA2DB;" points="351.16,14.869 351.741,52.558 389.43,53.139 346.182,96.453 308.493,95.806 307.846,58.117 
	"/>
<path style="fill:#193651;" d="M310.949,102.012l37.689,0.646l55.661-55.661l-46.352-0.646L357.301,0l-55.596,55.661l0.646,37.107
	l-8.016,8.016c-31.547-28.444-73.568-46.352-119.337-46.352C78.545,54.432,0,132.913,0,229.366s78.481,174.933,174.933,174.933
	s174.933-78.481,174.933-174.933c0-45.77-17.907-87.79-46.998-119.337L310.949,102.012z M345.6,29.673l0.646,29.026l29.026,0.646
	l-31.547,31.547l-26.57-0.646c0-0.646-0.646-1.228-1.228-1.228c-0.646-0.646-0.646-0.646-1.228-0.646l-0.646-26.57L345.6,29.673z
	 M337.519,229.366c0,89.665-72.921,162.586-162.586,162.586S12.347,318.966,12.347,229.366S85.269,66.78,174.933,66.78
	c42.667,0,81.584,16.679,110.675,43.248L170.602,225.034c-2.457,2.457-2.457,6.206,0,8.663c1.228,1.228,3.103,1.875,4.331,1.875
	c1.875,0,3.103-0.646,4.331-1.875l115.006-115.006C320.84,147.782,337.519,186.699,337.519,229.366z"/>
<g>
</g>
<g>
</g>
<g>
</g>
<g>
</g>
<g>
</g>
<g>
</g>
<g>
</g>
<g>
</g>
<g>
</g>
<g>
</g>
<g>
</g>
<g>
</g>
<g>
</g>
<g>
</g>
<g>
</g>
</svg>
