<?xml version="1.0" encoding="iso-8859-1"?>
<!-- Generator: Adobe Illustrator 19.0.0, SVG Export Plug-In . SVG Version: 6.00 Build 0)  -->
<svg version="1.1" id="Layer_1" xmlns="http://www.w3.org/2000/svg" xmlns:xlink="http://www.w3.org/1999/xlink" x="0px" y="0px"
	 viewBox="0 0 398.841 398.841" style="enable-background:new 0 0 398.841 398.841;" xml:space="preserve">
<path style="fill:#FFFFFF;" d="M345.702,180.145c0-97.034-81.584-174.933-180.493-168.792C78.647,16.331,8.764,88.024,6.308,174.585
	c-1.875,56.242,24.113,105.697,64.905,137.826v81.584h197.172v-57.471h36.461c18.554,0,33.358-14.869,33.358-32.776v-38.335h51.329
	L345.702,180.145z"/>
<path style="fill:#193651;" d="M274.591,393.996h-12.347v-63.677h42.667c14.869,0,27.216-11.766,27.216-26.57v-44.541h46.998
	l-39.564-77.899v-1.228c0-45.123-17.907-87.143-51.329-118.044c-33.358-31.547-76.671-46.998-123.022-43.895
	C82.332,22.472,14.97,91.709,12.514,174.585c-1.228,51.911,21.01,100.784,62.448,132.913l2.457,1.875v84.687H65.007v-78.546
	C22.34,280.929-1.773,229.6,0.102,174.585C2.623,84.921,74.898,10.125,164.562,5.147c49.455-3.103,96.453,13.576,131.685,47.58
	c35.232,33.358,55.014,77.899,55.014,125.479l47.58,92.703h-55.014v32.129c0,21.657-17.907,38.917-39.564,38.917h-30.319v51.911
	h0.646V393.996z"/>
<path style="fill:#D3D7DA;" d="M321.589,186.287v-6.206c0-79.127-65.552-144.032-145.261-144.032c-3.103,0-6.206,0-9.244,0
	c-74.214,4.978-133.56,66.198-136.081,139.766c-1.228,45.705,19.2,89.018,55.661,117.463l9.244,7.434v93.35h147.717v-82.295h61.22
	c4.978,0,8.663-3.685,8.663-8.016v-63.03h35.879L321.589,186.287z"/>
<g>
	<rect x="121.314" y="361.866" style="fill:#193651;" width="12.347" height="13.576"/>
	<rect x="163.916" y="361.866" style="fill:#193651;" width="12.347" height="13.576"/>
	<rect x="206.583" y="361.866" style="fill:#193651;" width="12.347" height="13.576"/>
</g>
<circle style="fill:#FFFFFF;" cx="180.013" cy="117.05" r="21.657"/>
<circle style="fill:#2EA2DB;" cx="120.021" cy="213.503" r="21.657"/>
<circle style="fill:#FDBF5E;" cx="240.005" cy="213.503" r="21.657"/>
<path style="fill:#193651;" d="M240.005,185.705c-3.103,0-6.206,0.646-8.663,1.875l-31.547-50.747
	c4.913-4.913,8.016-11.766,8.016-19.782c0-21.075-18.424-27.798-27.798-27.798c-15.968,0-27.798,12.347-27.798,27.798
	c0,7.434,3.103,14.222,8.016,19.782l-31.547,50.683c-3.103-1.228-5.56-1.875-8.663-1.875c-15.451,0-27.798,12.347-27.798,27.798
	s12.347,27.798,27.798,27.798s27.798-12.347,27.798-27.798c0-7.434-3.103-14.222-8.016-19.782l31.547-50.618
	c2.457,1.875,14.804,1.875,17.907,0l31.547,50.683c-5.56,5.56-8.663,12.347-8.663,19.782c0,15.451,12.347,27.798,27.798,27.798
	s27.798-12.347,27.798-27.798C267.803,198.634,255.455,185.705,240.005,185.705z M120.021,228.953
	c-8.663,0-15.451-6.788-15.451-15.451c0-8.663,6.788-15.451,15.451-15.451s15.451,6.788,15.451,15.451
	C134.89,222.165,128.102,228.953,120.021,228.953z M180.013,132.501c-8.663,0-15.451-6.788-15.451-15.451
	s6.788-15.451,15.451-15.451s15.451,6.788,15.451,15.451S188.029,132.501,180.013,132.501z M240.005,228.953
	c-8.663,0-15.451-6.788-15.451-15.451c0-8.663,6.788-15.451,15.451-15.451s15.451,6.788,15.451,15.451
	C255.455,222.165,248.603,228.953,240.005,228.953z"/>
<g>
</g>
<g>
</g>
<g>
</g>
<g>
</g>
<g>
</g>
<g>
</g>
<g>
</g>
<g>
</g>
<g>
</g>
<g>
</g>
<g>
</g>
<g>
</g>
<g>
</g>
<g>
</g>
<g>
</g>
</svg>
