<?xml version="1.0" encoding="iso-8859-1"?>
<!-- Generator: Adobe Illustrator 19.0.0, SVG Export Plug-In . SVG Version: 6.00 Build 0)  -->
<svg version="1.1" id="Layer_1" xmlns="http://www.w3.org/2000/svg" xmlns:xlink="http://www.w3.org/1999/xlink" x="0px" y="0px"
	 viewBox="0 0 395.636 395.636" style="enable-background:new 0 0 395.636 395.636;" xml:space="preserve">
<rect x="6.206" y="6.206" style="fill:#FFFFFF;" width="383.289" height="212.04"/>
<path id="SVGCleanerId_0" style="fill:#4FBF9F;" d="M30.901,162.586V61.802c17.325,0,30.901-13.576,30.901-30.901h272.032
	c0,17.325,13.576,30.901,30.901,30.901v100.784c-17.325,0-30.901,13.576-30.901,30.901H61.802
	C61.802,176.162,48.226,162.586,30.901,162.586z"/>
<g>
	<circle style="fill:#FFFFFF;" cx="197.818" cy="111.903" r="49.455"/>
	<circle style="fill:#FFFFFF;" cx="315.863" cy="111.903" r="15.451"/>
	<circle style="fill:#FFFFFF;" cx="79.774" cy="111.903" r="15.451"/>
	<path style="fill:#FFFFFF;" d="M202.15,290.521c34.004,15.451,74.214,0,89.665-34.004l0,0l0,0
		C257.81,241.067,217.6,256.517,202.15,290.521L202.15,290.521L202.15,290.521z"/>
	<path style="fill:#FFFFFF;" d="M106.925,312.178c13.576,35.232,52.558,52.558,87.79,39.564l0,0l0,0
		C181.721,316.509,142.158,299.184,106.925,312.178L106.925,312.178L106.925,312.178z"/>
</g>
<path style="fill:#193651;" d="M395.636,224.388V0H0v224.388h191.612v108.929c-13.77-19.394-36.396-31.612-60.574-31.612
	c-9.244,0-17.907,1.875-26.57,4.913l-5.56,2.457l2.457,5.56c11.119,28.444,38.917,47.58,69.236,47.58
	c7.305,0,14.222-1.164,21.01-3.168v24.178H6.206v12.412h383.289v-12.347H204.024v-85.398c8.469,3.232,17.002,5.042,25.988,5.042
	c29.026,0,55.661-17.325,68.008-43.895l2.457-5.56l-5.56-2.457c-9.891-4.331-19.782-6.788-30.319-6.788
	c-24.501,0-46.933,11.83-60.574,30.901v-50.683h191.612V224.388z M170.602,349.867c-23.467,0-44.477-13.576-55.014-34.004
	c4.913-1.228,10.537-1.875,16.097-1.875c23.467,0,44.477,13.576,55.014,34.004C181.139,349.285,176.162,349.867,170.602,349.867z
	 M263.952,256.517c6.788,0,12.994,1.228,19.135,3.103c-10.537,19.135-30.901,30.901-53.139,30.901
	c-6.788,0-12.994-1.228-19.135-3.103C221.931,268.283,241.713,256.517,263.952,256.517z M12.347,12.347h370.941V212.04H12.347
	V12.347z"/>
<g>
	<path id="SVGCleanerId_0_1_" style="fill:#4FBF9F;" d="M30.901,162.586V61.802c17.325,0,30.901-13.576,30.901-30.901h272.032
		c0,17.325,13.576,30.901,30.901,30.901v100.784c-17.325,0-30.901,13.576-30.901,30.901H61.802
		C61.802,176.162,48.226,162.586,30.901,162.586z"/>
</g>
<g>
	<circle style="fill:#FFFFFF;" cx="197.818" cy="111.903" r="49.455"/>
	<circle style="fill:#FFFFFF;" cx="315.863" cy="111.903" r="15.451"/>
	<circle style="fill:#FFFFFF;" cx="79.774" cy="111.903" r="15.451"/>
</g>
<g>
	<rect x="334.416" y="251.604" style="fill:#193651;" width="12.347" height="12.347"/>
	<rect x="334.416" y="297.374" style="fill:#193651;" width="12.347" height="12.347"/>
	<rect x="334.416" y="343.725" style="fill:#193651;" width="12.347" height="12.347"/>
	<rect x="48.808" y="251.604" style="fill:#193651;" width="12.347" height="12.347"/>
	<rect x="48.808" y="297.374" style="fill:#193651;" width="12.347" height="12.347"/>
	<rect x="48.808" y="343.725" style="fill:#193651;" width="12.347" height="12.347"/>
</g>
<g>
</g>
<g>
</g>
<g>
</g>
<g>
</g>
<g>
</g>
<g>
</g>
<g>
</g>
<g>
</g>
<g>
</g>
<g>
</g>
<g>
</g>
<g>
</g>
<g>
</g>
<g>
</g>
<g>
</g>
</svg>
