<?xml version="1.0" encoding="iso-8859-1"?>
<!-- Generator: Adobe Illustrator 19.0.0, SVG Export Plug-In . SVG Version: 6.00 Build 0)  -->
<svg version="1.1" id="Layer_1" xmlns="http://www.w3.org/2000/svg" xmlns:xlink="http://www.w3.org/1999/xlink" x="0px" y="0px"
	 viewBox="0 0 395.636 395.636" style="enable-background:new 0 0 395.636 395.636;" xml:space="preserve">
<circle style="fill:#4FBF9F;" cx="197.818" cy="197.818" r="197.818"/>
<polygon style="fill:#FFFFFF;" points="118.691,6.206 342.497,6.206 342.497,389.43 53.139,389.43 53.139,71.693 "/>
<path id="SVGCleanerId_0" style="fill:#193651;" d="M348.638,395.636H46.998v-326.4L116.234,0h233.051v395.636H348.638z
	 M59.345,383.289h277.592V12.347h-215.79L59.345,74.149C59.345,74.149,59.345,383.289,59.345,383.289z"/>
<polygon style="fill:#F16051;" points="53.139,75.442 121.794,75.442 121.794,6.206 "/>
<g>
	<rect x="85.333" y="189.802" style="fill:#193651;" width="225.034" height="12.347"/>
	<rect x="85.333" y="146.489" style="fill:#193651;" width="225.034" height="12.347"/>
	<rect x="85.333" y="102.594" style="fill:#193651;" width="225.034" height="12.347"/>
</g>
<polygon style="fill:#2EA2DB;" points="178.683,317.156 202.731,299.83 178.683,282.505 183.596,253.479 153.923,257.81 
	136.598,233.697 119.337,257.81 90.246,253.479 94.578,282.505 71.111,299.83 94.578,317.156 90.246,346.182 119.337,341.85 
	136.598,365.964 153.923,341.85 183.596,346.182 "/>
<circle style="fill:#FFFFFF;" cx="136.598" cy="299.83" r="38.335"/>
<polygon style="fill:#F16051;" points="165.689,291.814 145.907,288.711 136.598,270.739 127.935,288.711 107.572,291.814 
	122.376,305.972 118.691,326.4 136.598,316.509 154.57,326.4 151.467,305.972 "/>
<g>
	<path id="SVGCleanerId_0_1_" style="fill:#193651;" d="M348.638,395.636H46.998v-326.4L116.234,0h233.051v395.636H348.638z
		 M59.345,383.289h277.592V12.347h-215.79L59.345,74.149C59.345,74.149,59.345,383.289,59.345,383.289z"/>
</g>
<g>
	<rect x="304.743" y="350.513" style="fill:#193651;" width="12.347" height="11.766"/>
	<rect x="278.82" y="350.513" style="fill:#193651;" width="12.347" height="11.766"/>
	<rect x="253.479" y="350.513" style="fill:#193651;" width="12.347" height="11.766"/>
	<rect x="227.491" y="350.513" style="fill:#193651;" width="12.347" height="11.766"/>
	<rect x="201.503" y="350.513" style="fill:#193651;" width="12.347" height="11.766"/>
</g>
<g>
</g>
<g>
</g>
<g>
</g>
<g>
</g>
<g>
</g>
<g>
</g>
<g>
</g>
<g>
</g>
<g>
</g>
<g>
</g>
<g>
</g>
<g>
</g>
<g>
</g>
<g>
</g>
<g>
</g>
</svg>
