<?xml version="1.0" encoding="iso-8859-1"?>
<!-- Generator: Adobe Illustrator 19.0.0, SVG Export Plug-In . SVG Version: 6.00 Build 0)  -->
<svg version="1.1" id="Layer_1" xmlns="http://www.w3.org/2000/svg" xmlns:xlink="http://www.w3.org/1999/xlink" x="0px" y="0px"
	 viewBox="0 0 389.43 389.43" style="enable-background:new 0 0 389.43 389.43;" xml:space="preserve">
<circle style="fill:#FDBF5E;" cx="194.715" cy="195.943" r="193.487"/>
<g>
	<path style="fill:#F16051;" d="M109.059,215.337c0,36.461,6.723,72.921,20.234,107.378c-27.539,13.188-50.489,34.392-65.616,60.574
		c-12.994-22.238-20.428-48.226-20.428-75.442c0-52.558,26.958-98.909,67.749-126.125
		C109.705,192.905,109.059,204.154,109.059,215.337z"/>
	<path style="fill:#F16051;" d="M346.182,307.846c0,27.798-7.434,53.139-20.428,75.442c-15.127-26.246-37.947-47.451-65.487-60.638
		c17.648-44.865,23.855-93.156,18.489-140.412C319.354,209.39,346.182,255.483,346.182,307.846z"/>
</g>
<path style="fill:#FFFFFF;" d="M252.186,341.269c51.976-108.865,32.776-243.006-57.471-332.606l0,0
	c-90.246,90.246-108.8,223.806-57.471,332.606H252.186z"/>
<path style="fill:#F16051;" d="M253.414,93.349c-14.222-30.901-33.358-59.345-58.699-84.687l0,0
	c-25.341,25.341-45.123,53.786-58.699,84.687H253.414z"/>
<path style="fill:#2EA2DB;" d="M228.719,157.026c5.56,25.341-16.679,47.58-42.02,42.02c-12.994-3.103-23.467-12.994-25.988-25.988
	c-5.56-25.341,16.679-47.58,42.02-42.02C215.725,134.141,225.616,144.032,228.719,157.026z"/>
<g>
	<rect x="165.689" y="299.83" style="fill:#193651;" width="12.347" height="12.347"/>
	<rect x="188.509" y="299.83" style="fill:#193651;" width="12.347" height="12.347"/>
	<rect x="211.394" y="299.83" style="fill:#193651;" width="12.347" height="12.347"/>
	<path style="fill:#193651;" d="M255.935,347.41h-122.44l-1.875-3.685C77.188,229.947,100.719,93.35,189.737,4.331L194.715,0
		l4.331,4.331c89.018,89.018,112.485,225.616,58.117,339.394L255.935,347.41z M141.576,335.063h106.925
		c49.455-106.925,27.798-233.051-53.139-317.737C113.713,102.012,92.121,228.719,141.576,335.063z"/>
</g>
<g>
</g>
<g>
</g>
<g>
</g>
<g>
</g>
<g>
</g>
<g>
</g>
<g>
</g>
<g>
</g>
<g>
</g>
<g>
</g>
<g>
</g>
<g>
</g>
<g>
</g>
<g>
</g>
<g>
</g>
</svg>
