<?xml version="1.0" encoding="iso-8859-1"?>
<!-- Generator: Adobe Illustrator 19.0.0, SVG Export Plug-In . SVG Version: 6.00 Build 0)  -->
<svg version="1.1" id="Layer_1" xmlns="http://www.w3.org/2000/svg" xmlns:xlink="http://www.w3.org/1999/xlink" x="0px" y="0px"
	 viewBox="0 0 395.636 395.636" style="enable-background:new 0 0 395.636 395.636;" xml:space="preserve">
<circle style="fill:#2EA2DB;" cx="197.818" cy="197.818" r="117.463"/>
<path style="fill:#F16051;" d="M361.051,63.03L361.051,63.03c-15.451,0-28.444-12.994-28.444-28.444l0,0
	c0-15.451,12.994-28.444,28.444-28.444l0,0c15.451,0,28.444,12.994,28.444,28.444l0,0C389.43,50.101,376.501,63.03,361.051,63.03z"
	/>
<path style="fill:#193651;" d="M361.051,69.236c-19.135,0-34.586-15.451-34.586-34.586S341.85,0,361.051,0
	s34.586,15.451,34.586,34.651S380.186,69.236,361.051,69.236z M361.051,12.347c-12.347,0-22.238,9.891-22.238,22.238
	s9.891,22.238,22.238,22.238s22.238-9.891,22.238-22.238S373.398,12.347,361.051,12.347z"/>
<path style="fill:#D3D7DA;" d="M34.586,63.03L34.586,63.03c-15.451,0-28.444-12.994-28.444-28.444l0,0
	c0-15.451,12.994-28.444,28.444-28.444l0,0c15.451,0,28.444,12.994,28.444,28.444l0,0C63.03,50.101,50.101,63.03,34.586,63.03z"/>
<path style="fill:#193651;" d="M34.586,69.236C15.451,69.236,0,53.786,0,34.651S15.451,0,34.586,0s34.586,15.451,34.586,34.651
	S53.786,69.236,34.586,69.236z M34.586,12.347c-12.347,0-22.238,9.891-22.238,22.238s9.891,22.303,22.238,22.303
	s22.303-9.891,22.303-22.238S46.998,12.347,34.586,12.347z"/>
<path style="fill:#4FBF9F;" d="M361.051,389.43L361.051,389.43c-15.451,0-28.444-12.994-28.444-28.444l0,0
	c0-15.451,12.994-28.444,28.444-28.444l0,0c15.451,0,28.444,12.994,28.444,28.444l0,0C389.43,376.501,376.501,389.43,361.051,389.43
	z"/>
<path style="fill:#193651;" d="M361.051,395.636c-19.135,0-34.586-15.451-34.586-34.586s15.451-34.586,34.586-34.586
	s34.586,15.451,34.586,34.586S380.186,395.636,361.051,395.636z M361.051,338.747c-12.347,0-22.238,9.891-22.238,22.238
	s9.891,22.238,22.238,22.238s22.238-9.891,22.238-22.238S373.398,338.747,361.051,338.747z"/>
<path style="fill:#FDBF5E;" d="M34.586,389.43L34.586,389.43c-15.451,0-28.444-12.994-28.444-28.444l0,0
	c0-15.451,12.994-28.444,28.444-28.444l0,0c15.451,0,28.444,12.994,28.444,28.444l0,0C63.03,376.501,50.101,389.43,34.586,389.43z"
	/>
<g>
	<path style="fill:#193651;" d="M34.586,395.636C15.451,395.636,0,380.186,0,361.051s15.451-34.586,34.586-34.586
		s34.586,15.451,34.586,34.586S53.786,395.636,34.586,395.636z M34.586,338.747c-12.347,0-22.238,9.891-22.238,22.238
		s9.891,22.238,22.238,22.238s22.303-9.826,22.303-22.238C56.889,348.638,46.998,338.747,34.586,338.747z"/>
	<rect x="127.935" y="354.844" style="fill:#193651;" width="12.347" height="12.347"/>
	<rect x="191.612" y="354.844" style="fill:#193651;" width="12.347" height="12.347"/>
	<rect x="255.289" y="354.844" style="fill:#193651;" width="12.347" height="12.347"/>
	<rect x="127.935" y="28.444" style="fill:#193651;" width="12.347" height="12.347"/>
	<rect x="191.612" y="28.444" style="fill:#193651;" width="12.347" height="12.347"/>
	<rect x="255.289" y="28.444" style="fill:#193651;" width="12.347" height="12.347"/>
	<rect x="354.844" y="127.935" style="fill:#193651;" width="12.347" height="12.347"/>
	<rect x="354.844" y="191.612" style="fill:#193651;" width="12.347" height="12.347"/>
	<rect x="354.844" y="255.289" style="fill:#193651;" width="12.347" height="12.347"/>
	<rect x="28.444" y="127.935" style="fill:#193651;" width="12.347" height="12.347"/>
	<rect x="28.444" y="191.612" style="fill:#193651;" width="12.347" height="12.347"/>
	<rect x="28.444" y="255.289" style="fill:#193651;" width="12.347" height="12.347"/>
	<polygon style="fill:#193651;" points="273.261,80.356 273.261,92.703 293.883,92.703 256.453,130.133 265.244,138.861 
		302.933,101.172 302.933,122.376 315.281,122.376 315.281,80.356 	"/>
	<polygon style="fill:#193651;" points="138.861,130.392 101.172,92.703 122.376,92.703 122.376,80.356 80.356,80.356 
		80.356,122.376 92.703,122.376 92.703,101.818 130.069,139.184 	"/>
</g>
<circle style="fill:#FFFFFF;" cx="197.818" cy="144.679" r="42.02"/>
<path style="fill:#193651;" d="M197.818,192.259c-26.57,0-48.226-21.657-48.226-48.226s21.657-48.226,48.226-48.226
	s48.226,21.657,48.226,48.226S224.388,192.259,197.818,192.259z M197.818,108.8c-19.782,0-35.879,16.097-35.879,35.879
	s16.097,35.879,35.879,35.879s35.879-16.097,35.879-35.879S217.6,108.8,197.818,108.8z"/>
<path style="fill:#FFFFFF;" d="M197.818,293.042c32.129,0,60.574-13.576,81.002-34.586v-37.107c0-7.434-4.331-14.222-11.119-17.907
	l-19.135-9.891c-12.994,13.576-30.901,21.657-51.329,21.657c-19.782,0-38.335-8.016-51.329-21.657l-18.554,10.473
	c-6.788,3.103-11.119,10.537-11.119,17.907v37.107C137.244,280.048,165.689,293.042,197.818,293.042z"/>
<path style="fill:#193651;" d="M302.933,273.261v20.558l-25.277-25.277c2.069-1.875,4.137-3.814,6.077-5.818l1.875-1.875v-39.564
	c0-9.891-5.56-19.135-14.222-23.467l-23.467-11.766l-3.103,3.103c-12.994,12.994-29.026,19.782-46.998,19.782
	s-34.586-6.788-46.998-19.782l-3.103-3.103l-23.467,11.766c-8.663,4.913-14.222,13.576-14.222,23.467v39.564l1.875,1.875
	c2.069,2.133,4.267,4.202,6.465,6.141l-25.6,25.6v-21.269H80.42v42.02h42.02v-12.347h-20.622L128,276.687
	c20.17,14.61,44.218,22.497,69.818,22.497c25.729,0,49.907-8.016,70.206-22.82l26.505,26.505h-21.269v12.347h42.02v-42.02h-12.347
	V273.261z M123.022,255.935h-1.228v-34.586c0-5.56,2.457-9.891,7.434-12.347l15.451-7.434
	c14.869,12.994,32.776,20.428,52.558,20.428s38.335-7.434,52.558-20.428l15.45,7.434c4.331,2.457,7.434,7.434,7.434,12.347v34.586
	c-19.782,19.782-46.352,30.901-74.796,30.901C170.02,286.836,143.386,275.717,123.022,255.935z"/>
<g>
</g>
<g>
</g>
<g>
</g>
<g>
</g>
<g>
</g>
<g>
</g>
<g>
</g>
<g>
</g>
<g>
</g>
<g>
</g>
<g>
</g>
<g>
</g>
<g>
</g>
<g>
</g>
<g>
</g>
</svg>
