<?xml version="1.0" encoding="iso-8859-1"?>
<!-- Generator: Adobe Illustrator 19.0.0, SVG Export Plug-In . SVG Version: 6.00 Build 0)  -->
<svg version="1.1" id="Layer_1" xmlns="http://www.w3.org/2000/svg" xmlns:xlink="http://www.w3.org/1999/xlink" x="0px" y="0px"
	 viewBox="0 0 395.636 395.636" style="enable-background:new 0 0 395.636 395.636;" xml:space="preserve">
<polygon style="fill:#FFFFFF;" points="352.356,27.216 352.356,389.43 43.216,389.43 43.216,27.216 140.315,27.216 140.315,48.226 
	254.675,48.226 254.675,27.216 "/>
<polygon style="fill:#D3D7DA;" points="327.596,51.911 327.596,364.735 67.976,364.735 67.976,51.911 134.109,51.911 
	134.109,54.432 260.816,54.432 260.816,51.911 "/>
<rect x="102.562" y="83.459" style="fill:#FFFFFF;" width="48.226" height="48.226"/>
<path style="fill:#193651;" d="M156.994,137.826H96.42V77.253h60.574V137.826z M109.414,125.479h35.879V89.6h-35.879V125.479z"/>
<rect x="102.562" y="182.949" style="fill:#FFFFFF;" width="48.226" height="48.226"/>
<path style="fill:#193651;" d="M156.994,236.735H96.42v-60.574h60.574V236.735z M109.414,224.388h35.879v-35.879h-35.879V224.388z"
	/>
<rect x="102.562" y="281.859" style="fill:#FFFFFF;" width="48.226" height="48.226"/>
<g>
	<path style="fill:#193651;" d="M156.994,336.291H96.42v-60.574h60.574V336.291z M109.414,323.943h35.879v-35.879h-35.879V323.943z"
		/>
	<rect x="193.455" y="101.366" style="fill:#193651;" width="99.556" height="12.347"/>
	<rect x="193.455" y="200.921" style="fill:#193651;" width="99.556" height="12.347"/>
	<rect x="193.455" y="299.83" style="fill:#193651;" width="99.556" height="12.347"/>
</g>
<rect x="140.315" y="6.206" style="fill:#FFFFFF;" width="114.36" height="42.02"/>
<g>
	<path style="fill:#193651;" d="M261.463,21.01V0H134.109v21.01H37.075v374.626h321.487V21.01H261.463z M146.457,12.347h102.012
		V42.02H146.457V12.347z M346.149,383.289H49.422V33.358h84.687v21.01h126.707v-21.01h85.333V383.289z"/>
	<rect x="163.2" y="21.01" style="fill:#193651;" width="12.347" height="12.347"/>
	<rect x="191.58" y="21.01" style="fill:#193651;" width="12.347" height="12.347"/>
	<rect x="220.024" y="21.01" style="fill:#193651;" width="12.347" height="12.347"/>
</g>
<g>
</g>
<g>
</g>
<g>
</g>
<g>
</g>
<g>
</g>
<g>
</g>
<g>
</g>
<g>
</g>
<g>
</g>
<g>
</g>
<g>
</g>
<g>
</g>
<g>
</g>
<g>
</g>
<g>
</g>
</svg>
