<?xml version="1.0" encoding="iso-8859-1"?>
<!-- Generator: Adobe Illustrator 19.0.0, SVG Export Plug-In . SVG Version: 6.00 Build 0)  -->
<svg version="1.1" id="Layer_1" xmlns="http://www.w3.org/2000/svg" xmlns:xlink="http://www.w3.org/1999/xlink" x="0px" y="0px"
	 viewBox="0 0 395.636 395.636" style="enable-background:new 0 0 395.636 395.636;" xml:space="preserve">
<rect x="56.016" y="90.893" style="fill:#FFFFFF;" width="282.505" height="298.602"/>
<rect x="86.917" y="121.794" style="fill:#D3D7DA;" width="220.703" height="236.735"/>
<path style="fill:#FFFFFF;" d="M355.2,90.893H39.984V58.764c0-10.537,8.016-18.554,18.554-18.554h84.105h110.675h84.04
	c10.537,0,18.554,8.016,18.554,18.554v32.129H355.2z"/>
<g>
	<path style="fill:#193651;" d="M336.711,34.004h-77.899V0h-122.44v34.004H58.473c-13.576,0-24.76,11.119-24.76,24.76v38.335h16.679
		v298.537h294.853V97.034h16.679V58.699C361.406,45.123,350.287,34.004,336.711,34.004z M148.784,12.347h98.263v21.657h-98.263
		V12.347z M332.962,383.289H62.222V97.034H332.38v286.19h0.582V383.289z M349.059,84.687H46.125V58.699
		c0-6.788,5.56-12.347,12.347-12.347h278.174c6.788,0,12.347,5.56,12.347,12.347v25.988H349.059z"/>
	<rect x="158.675" y="59.345" style="fill:#193651;" width="12.347" height="12.347"/>
	<rect x="191.386" y="59.345" style="fill:#193651;" width="12.347" height="12.347"/>
	<rect x="224.162" y="59.345" style="fill:#193651;" width="12.347" height="12.347"/>
	<path style="fill:#193651;" d="M269.931,276.945l-19.135-33.358l12.994,3.685l3.103-11.766l-33.358-8.663l-8.663,33.358
		l11.766,3.103l3.685-13.576l19.782,33.358h-47.58v12.347h47.58c4.331,0,8.016-2.457,10.537-6.206
		C272.388,285.608,272.388,281.277,269.931,276.945z"/>
	<path style="fill:#193651;" d="M173.479,265.18l-8.663,8.663l9.891,9.891l-38.917,0.646l24.76-42.667l-10.537-6.206l-24.76,42.667
		c-2.457,3.685-2.457,8.016,0,12.347c2.457,3.685,6.206,6.206,10.537,6.206h38.917l-9.891,9.891l8.663,8.663l24.76-24.76
		L173.479,265.18z"/>
	<path style="fill:#193651;" d="M208.711,170.02c-2.457-3.685-6.206-6.206-10.537-6.206l0,0c-4.331,0-8.016,2.457-10.537,6.206
		l-19.135,33.358l-3.685-12.994l-11.766,3.103l9.244,33.358l33.358-9.244l-3.103-11.766l-13.576,3.685l19.135-33.358l24.113,41.438
		l10.537-6.206L208.711,170.02z"/>
</g>
<g>
</g>
<g>
</g>
<g>
</g>
<g>
</g>
<g>
</g>
<g>
</g>
<g>
</g>
<g>
</g>
<g>
</g>
<g>
</g>
<g>
</g>
<g>
</g>
<g>
</g>
<g>
</g>
<g>
</g>
</svg>
