<?xml version="1.0" encoding="iso-8859-1"?>
<!-- Generator: Adobe Illustrator 19.0.0, SVG Export Plug-In . SVG Version: 6.00 Build 0)  -->
<svg version="1.1" id="Layer_1" xmlns="http://www.w3.org/2000/svg" xmlns:xlink="http://www.w3.org/1999/xlink" x="0px" y="0px"
	 viewBox="0 0 395.636 395.636" style="enable-background:new 0 0 395.636 395.636;" xml:space="preserve">
<rect x="6.206" y="254.707" style="fill:#FFFFFF;" width="191.612" height="134.788"/>
<rect x="30.901" y="279.402" style="fill:#F16051;" width="142.158" height="85.333"/>
<rect x="197.818" y="254.707" style="fill:#FFFFFF;" width="191.612" height="134.788"/>
<rect x="222.578" y="279.402" style="fill:#F16051;" width="142.158" height="85.333"/>
<rect x="6.206" y="6.206" style="fill:#FFFFFF;" width="191.612" height="248.501"/>
<rect x="30.901" y="30.901" style="fill:#D3D7DA;" width="142.158" height="199.046"/>
<rect x="197.818" y="6.206" style="fill:#FFFFFF;" width="191.612" height="248.501"/>
<path style="fill:#193651;" d="M0,0v395.636h395.636V0H0z M191.612,383.289H12.347v-122.44h179.265V383.289z M191.612,248.501
	H12.347V12.347h179.265V248.501z M383.289,383.289H204.024v-122.44h179.265V383.289z M383.289,248.501H204.024V12.347h179.265
	V248.501z"/>
<rect x="222.578" y="30.901" style="fill:#D3D7DA;" width="142.158" height="199.046"/>
<g>
	<circle style="fill:#FFFFFF;" cx="337.519" cy="322.069" r="8.663"/>
	<circle style="fill:#FFFFFF;" cx="243.588" cy="130.457" r="8.663"/>
	<circle style="fill:#FFFFFF;" cx="152.048" cy="130.457" r="8.663"/>
	<circle style="fill:#FFFFFF;" cx="58.117" cy="322.069" r="8.663"/>
</g>
<g>
	<rect x="340.622" y="44.477" style="fill:#193651;" width="11.766" height="12.347"/>
	<rect x="340.622" y="76.671" style="fill:#193651;" width="11.766" height="12.347"/>
	<rect x="340.622" y="108.154" style="fill:#193651;" width="11.766" height="12.347"/>
	<rect x="340.622" y="140.347" style="fill:#193651;" width="11.766" height="12.347"/>
	<rect x="340.622" y="172.477" style="fill:#193651;" width="11.766" height="12.347"/>
	<rect x="340.622" y="204.024" style="fill:#193651;" width="11.766" height="12.347"/>
	<rect x="43.248" y="44.477" style="fill:#193651;" width="11.766" height="12.347"/>
	<rect x="43.248" y="76.671" style="fill:#193651;" width="11.766" height="12.347"/>
	<rect x="43.248" y="108.154" style="fill:#193651;" width="11.766" height="12.347"/>
	<rect x="43.248" y="140.347" style="fill:#193651;" width="11.766" height="12.347"/>
	<rect x="43.248" y="172.477" style="fill:#193651;" width="11.766" height="12.347"/>
	<rect x="43.248" y="204.024" style="fill:#193651;" width="11.766" height="12.347"/>
</g>
<g>
</g>
<g>
</g>
<g>
</g>
<g>
</g>
<g>
</g>
<g>
</g>
<g>
</g>
<g>
</g>
<g>
</g>
<g>
</g>
<g>
</g>
<g>
</g>
<g>
</g>
<g>
</g>
<g>
</g>
</svg>
