<?xml version="1.0" encoding="iso-8859-1"?>
<!-- Generator: Adobe Illustrator 19.0.0, SVG Export Plug-In . SVG Version: 6.00 Build 0)  -->
<svg version="1.1" id="Layer_1" xmlns="http://www.w3.org/2000/svg" xmlns:xlink="http://www.w3.org/1999/xlink" x="0px" y="0px"
	 viewBox="0 0 395.734 395.734" style="enable-background:new 0 0 395.734 395.734;" xml:space="preserve">
<path style="fill:#FFFFFF;" d="M333.188,62.497c-74.796-74.796-195.943-74.796-270.739,0s-74.796,195.943,0,270.739
	c67.362,67.426,172.477,74.214,247.273,19.782l62.448,19.135l-19.2-62.384C407.402,234.974,400.614,129.859,333.188,62.497z"/>
<g>
	<path style="fill:#193651;" d="M337.519,58.166C300.412,20.477,250.376,0.049,197.818,0.049
		c-53.139,0-102.594,20.428-140.347,58.117C20.428,95.273,0,145.309,0,197.867s20.428,102.594,58.117,139.701
		c37.107,37.107,87.143,58.117,139.701,58.117c40.792,0,79.774-12.347,113.131-35.879l70.465,21.657l-21.657-70.465
		C414.772,232.453,406.174,126.174,337.519,58.166z M362.861,362.909l-54.432-16.679l-2.457,1.875
		c-31.547,22.885-69.236,35.232-108.154,35.232c-49.455,0-95.806-19.135-131.038-54.368
		c-35.232-35.297-54.432-81.649-54.432-131.103S31.483,102.061,66.78,66.829s81.584-54.368,131.038-54.368
		s95.806,19.135,131.038,54.432c64.905,64.905,72.921,165.689,19.135,239.257l-1.875,2.457L362.861,362.909z"/>
	<path style="fill:#193651;" d="M197.818,362.909L197.818,362.909c-4.331,0-8.663,0-12.994-0.646l1.228-12.347
		c3.685,0,8.016,0.646,11.766,0.646V362.909z M210.812,362.328l-1.228-12.347c3.685,0,8.016-0.646,11.766-1.228l1.875,12.347
		C219.475,361.681,215.143,362.328,210.812,362.328z M171.83,361.099c-4.331-0.646-8.663-1.228-12.994-2.457l3.103-11.766
		c3.685,0.646,8.016,1.875,11.766,2.457L171.83,361.099z M236.154,358.578l-2.457-12.347c3.685-0.646,8.016-1.875,11.766-3.103
		l3.685,11.766C244.816,356.122,240.485,357.35,236.154,358.578z M146.489,354.893c-4.331-1.228-8.016-3.103-12.347-4.331
		l4.913-11.119c3.685,1.228,7.434,3.103,11.119,4.331L146.489,354.893z M260.848,350.562l-4.913-11.119
		c3.685-1.228,7.434-3.103,11.119-4.913l5.56,11.119C268.929,346.877,265.18,348.687,260.848,350.562z M122.376,345.002
		c-3.685-1.875-7.434-4.331-11.119-6.206l6.206-10.537c3.103,1.875,6.788,4.331,10.537,5.56L122.376,345.002z M283.733,338.796
		l-6.206-10.537c3.103-1.875,6.788-4.331,9.891-6.788l7.434,9.891C291.168,333.883,287.483,336.34,283.733,338.796z
		 M100.784,331.362c-3.685-2.457-6.788-4.978-9.891-8.016l8.016-9.244c3.103,2.457,6.206,4.978,9.244,7.434L100.784,331.362z
		 M304.743,323.346l-8.016-9.244c3.103-2.457,6.206-5.56,8.663-8.016l9.244,8.663l-0.646,0.646
		C311.596,317.786,308.493,320.889,304.743,323.346z M81.002,314.683L81.002,314.683L81.002,314.683L81.002,314.683
		c-3.685-3.685-6.206-6.788-9.244-9.891l9.244-8.016c2.457,3.103,5.56,6.206,8.016,8.663L81.002,314.683z M323.943,304.792
		l-9.891-8.016c2.457-3.103,4.913-6.206,7.434-9.244l9.891,7.434C328.857,298.004,326.4,301.689,323.943,304.792z M64.259,294.901
		c-2.457-3.685-4.978-7.434-7.434-10.537l10.537-6.206c1.875,3.103,4.331,6.788,6.788,9.891L64.259,294.901z M338.747,283.782
		l-10.537-6.206c1.875-3.685,4.331-6.788,5.56-10.537l11.119,5.56C343.079,276.348,341.269,280.097,338.747,283.782z
		 M50.683,273.309c-1.875-3.685-3.685-8.016-5.56-11.766l11.119-4.913c1.228,3.685,3.103,7.434,4.978,11.119L50.683,273.309z
		 M350.513,260.897l-11.766-4.913c1.228-3.685,3.103-7.434,4.331-11.119l11.766,3.685
		C353.616,252.881,352.388,256.566,350.513,260.897z M40.792,249.196c-1.228-4.331-2.457-8.016-3.685-12.347l11.766-3.103
		c0.646,3.685,1.875,8.016,3.103,11.766L40.792,249.196z M358.529,236.202l-12.347-3.103c0.646-3.685,1.875-8.016,2.457-11.766
		l12.347,1.875C360.404,227.54,359.176,231.871,358.529,236.202z M34.586,223.855c-0.646-4.331-1.228-8.663-1.228-12.994
		l12.347-1.228c0.646,3.685,0.646,8.016,1.228,11.766L34.586,223.855z M362.279,210.215l-12.347-1.228
		c0-3.685,0.646-8.016,0.646-11.766l12.347-0.646v1.228C362.861,202.198,362.861,206.53,362.279,210.215z M32.129,197.867
		L32.129,197.867c0-4.331,0-8.663,0.646-12.994l12.347,1.228c0,3.685-0.646,8.016-0.646,11.766H32.129z M349.867,185.52
		c-0.646-3.685-0.646-8.016-1.228-11.766l12.347-1.875c0.646,4.331,1.228,8.663,1.228,12.994L349.867,185.52z M46.352,174.4
		l-12.347-1.875c0.646-4.331,1.228-8.663,2.457-12.994l11.766,3.103C48.226,166.32,46.998,170.069,46.352,174.4z M346.182,161.988
		c-1.228-3.685-1.875-8.016-3.103-11.766l11.766-3.685c1.228,4.331,2.457,8.016,3.685,12.347L346.182,161.988z M51.911,150.869
		l-11.766-3.685c1.228-4.331,3.103-8.016,4.331-12.347l11.119,4.913C55.014,143.499,53.139,147.184,51.911,150.869z
		 M338.747,139.168c-1.228-3.685-3.103-7.434-4.913-11.119l11.119-5.56c1.875,3.685,3.685,8.016,5.56,11.766L338.747,139.168z
		 M61.22,128.631l-11.119-5.56c1.875-3.685,4.331-7.434,6.206-11.119l10.537,6.206C64.905,121.196,63.03,124.946,61.22,128.631z
		 M327.628,117.512c-1.875-3.103-4.331-6.788-6.788-9.891l9.891-7.434c2.457,3.685,4.913,6.788,7.434,10.537L327.628,117.512z
		 M73.568,108.202l-9.891-7.434c2.457-3.685,4.978-6.788,8.016-9.891l9.244,8.016C78.481,101.415,76.024,105.164,73.568,108.202z
		 M314.053,98.312c-2.457-3.103-4.913-5.56-8.016-8.663l4.331-4.331l4.331-4.331l0,0c3.103,3.103,6.206,6.206,8.663,9.244
		L314.053,98.312z M89.665,89.714l-4.331-4.331l-4.331-4.331c3.103-3.103,6.206-6.206,9.244-8.663l8.016,9.244
		C95.224,84.154,92.121,87.192,89.665,89.714z M296.727,81.633c-3.103-2.457-6.206-4.913-9.244-7.434l7.434-9.891
		c3.685,2.457,6.788,4.913,9.891,8.016L296.727,81.633z M107.572,74.263l-7.434-9.891c3.685-2.457,6.788-4.978,10.537-7.434
		l6.206,10.537C114.36,69.932,110.675,71.742,107.572,74.263z M277.592,67.41c-3.103-1.875-6.788-4.331-10.537-5.56l5.56-11.119
		c3.685,1.875,7.434,4.331,11.119,6.206L277.592,67.41z M127.935,61.851l-5.56-11.119c3.685-1.875,8.016-3.685,11.766-5.56
		l4.913,11.119C135.37,58.166,131.685,60.041,127.935,61.851z M255.935,56.291c-3.685-1.228-7.434-3.103-11.119-4.331l3.685-11.766
		c4.331,1.228,8.016,3.103,12.347,4.331L255.935,56.291z M150.238,52.606l-3.685-11.766c4.331-1.228,8.016-2.457,12.347-3.685
		l3.103,12.347C157.608,50.15,153.923,51.378,150.238,52.606z M233.051,48.857c-3.685-0.646-8.016-1.875-11.766-2.457l1.875-12.347
		c4.331,0.646,8.663,1.228,12.994,2.457L233.051,48.857z M173.705,47.047l-1.875-12.347c4.331-0.646,8.663-1.228,12.994-1.228
		l1.228,12.347C181.721,45.819,177.39,46.4,173.705,47.047z M209.584,45.172c-3.685,0-8.016-0.646-11.766-0.646V32.178l0,0
		c4.331,0,8.663,0,12.994,0.646L209.584,45.172z"/>
</g>
<path style="fill:#FDBF5E;" d="M286.836,287.532c-49.455,49.455-129.228,49.455-178.683,0s-49.455-129.228,0-178.683
	s129.228-49.455,178.683,0C336.291,157.657,336.291,238.077,286.836,287.532z"/>
<g>
	<rect x="177.39" y="168.194" style="fill:#FFFFFF;" width="40.21" height="115.006"/>
	<path style="fill:#FFFFFF;" d="M197.818,149.059L197.818,149.059c-11.119,0-20.428-9.244-20.428-20.428l0,0
		c0-11.119,9.244-20.428,20.428-20.428l0,0c11.119,0,20.428,9.244,20.428,20.428l0,0C217.6,139.75,208.937,149.059,197.818,149.059z
		"/>
</g>
<g>
	<path style="fill:#193651;" d="M197.818,155.2c-14.222,0-26.57-11.766-26.57-26.57c0-14.222,11.766-26.57,26.57-26.57
		c14.222,0,26.57,11.766,26.57,26.57C223.806,143.499,212.04,155.2,197.818,155.2z M197.818,115.055
		c-7.434,0-14.222,6.206-14.222,14.222c0,7.434,6.206,14.222,14.222,14.222c7.434,0,14.222-6.206,14.222-14.222
		C211.394,121.196,205.253,115.055,197.818,115.055z"/>
	<path style="fill:#193651;" d="M223.806,276.994V161.988h-64.323v12.347h11.766v115.006h71.111v-12.347H223.806z M211.394,276.994
		h-27.798V174.4h27.798V276.994z"/>
</g>
<g>
</g>
<g>
</g>
<g>
</g>
<g>
</g>
<g>
</g>
<g>
</g>
<g>
</g>
<g>
</g>
<g>
</g>
<g>
</g>
<g>
</g>
<g>
</g>
<g>
</g>
<g>
</g>
<g>
</g>
</svg>
