<?xml version="1.0" encoding="iso-8859-1"?>
<!-- Generator: Adobe Illustrator 19.0.0, SVG Export Plug-In . SVG Version: 6.00 Build 0)  -->
<svg version="1.1" id="Layer_1" xmlns="http://www.w3.org/2000/svg" xmlns:xlink="http://www.w3.org/1999/xlink" x="0px" y="0px"
	 viewBox="0 0 395.636 395.636" style="enable-background:new 0 0 395.636 395.636;" xml:space="preserve">
<rect x="6.206" y="64.259" style="fill:#FFFFFF;" width="383.289" height="325.172"/>
<polygon style="fill:#4FBF9F;" points="358.529,128.259 358.529,358.529 37.107,358.529 37.107,128.259 86.562,230.594 
	309.075,230.594 "/>
<path style="fill:#FFFFFF;" d="M389.43,64.323H6.206l80.356,166.271h83.459v8.663c0,15.451,12.347,27.798,27.798,27.798
	s27.798-12.347,27.798-27.798v-8.663h83.459L389.43,64.323z"/>
<path style="fill:#193651;" d="M287.483,58.117V0H108.154v58.117H0v337.519h395.636V58.117H287.483z M120.566,12.347h153.923v45.77
	H120.566V12.347z M379.539,70.465L305.39,224.388h-73.568v-30.319h-12.347v45.123c0,11.766-9.891,21.657-21.657,21.657
	c-11.766,0-21.657-9.891-21.657-21.657v-45.123h-12.347v30.319H90.246L16.097,70.465H379.539L379.539,70.465z M383.289,383.289
	H12.347V90.893l68.59,142.158c1.228,1.875,3.103,3.685,5.56,3.685h77.253v2.457c0,18.554,15.451,34.004,34.004,34.004
	s34.004-15.451,34.004-34.004v-2.457h77.253c2.457,0,4.331-1.228,5.56-3.685l68.59-142.158v292.396H383.289z"/>
<path style="fill:#F16051;" d="M197.818,230.594c-3.685,0-6.206,2.457-6.206,6.206c0,3.685,2.457,6.206,6.206,6.206
	c3.75,0,6.206-3.103,6.206-6.206C204.024,233.051,201.503,230.594,197.818,230.594z"/>
<g>
	<rect x="100.137" y="113.131" style="fill:#193651;" width="12.347" height="11.766"/>
	<rect x="136.598" y="113.131" style="fill:#193651;" width="12.347" height="11.766"/>
	<rect x="173.123" y="113.131" style="fill:#193651;" width="12.347" height="11.766"/>
	<rect x="210.166" y="113.131" style="fill:#193651;" width="12.347" height="11.766"/>
	<rect x="246.626" y="113.131" style="fill:#193651;" width="12.347" height="11.766"/>
	<rect x="283.152" y="113.131" style="fill:#193651;" width="12.347" height="11.766"/>
</g>
<g>
</g>
<g>
</g>
<g>
</g>
<g>
</g>
<g>
</g>
<g>
</g>
<g>
</g>
<g>
</g>
<g>
</g>
<g>
</g>
<g>
</g>
<g>
</g>
<g>
</g>
<g>
</g>
<g>
</g>
</svg>
