<?xml version="1.0" encoding="iso-8859-1"?>
<!-- Generator: Adobe Illustrator 19.0.0, SVG Export Plug-In . SVG Version: 6.00 Build 0)  -->
<svg version="1.1" id="Layer_1" xmlns="http://www.w3.org/2000/svg" xmlns:xlink="http://www.w3.org/1999/xlink" x="0px" y="0px"
	 viewBox="0 0 395.636 395.636" style="enable-background:new 0 0 395.636 395.636;" xml:space="preserve">
<polygon style="fill:#FFFFFF;" points="97.034,6.206 6.206,97.034 6.206,389.43 313.406,389.43 313.406,6.206 "/>
<polygon style="fill:#E1E6E9;" points="37.107,358.529 37.107,110.028 110.028,37.107 282.505,37.107 282.505,358.529 "/>
<polygon style="fill:#4FBF9F;" points="110.028,110.028 110.028,37.107 37.107,110.028 "/>
<g>
	<rect x="77.253" y="157.026" style="fill:#193651;" width="12.347" height="12.347"/>
	<rect x="77.253" y="208.356" style="fill:#193651;" width="12.347" height="12.347"/>
	<rect x="77.253" y="259.62" style="fill:#193651;" width="12.347" height="12.347"/>
	<rect x="77.253" y="310.949" style="fill:#193651;" width="12.347" height="12.347"/>
</g>
<polygon style="fill:#FFFFFF;" points="212.04,62.448 137.826,140.347 137.826,389.43 389.43,389.43 389.43,62.448 "/>
<path style="fill:#193651;" d="M319.612,56.242V0H94.578L0,94.578v301.059h395.636V56.242H319.612z M131.685,383.289H12.347V100.137
	l87.79-87.79h207.709v43.895h-98.263l-77.899,81.584V383.289z M383.289,383.289H144.032V142.804l71.111-74.214h168.145V383.289z"/>
<polygon style="fill:#F16051;" points="166.271,358.529 166.271,153.923 224.388,93.349 361.051,93.349 361.051,358.529 "/>
<polygon style="fill:#E1E6E9;" points="223.806,153.277 223.806,93.349 166.271,153.277 "/>
<g>
	<rect x="195.362" y="190.384" style="fill:#193651;" width="137.244" height="12.347"/>
	<rect x="195.362" y="234.279" style="fill:#193651;" width="137.244" height="12.347"/>
	<rect x="195.362" y="278.174" style="fill:#193651;" width="137.244" height="12.347"/>
	<rect x="195.362" y="322.069" style="fill:#193651;" width="137.244" height="12.347"/>
</g>
<g>
</g>
<g>
</g>
<g>
</g>
<g>
</g>
<g>
</g>
<g>
</g>
<g>
</g>
<g>
</g>
<g>
</g>
<g>
</g>
<g>
</g>
<g>
</g>
<g>
</g>
<g>
</g>
<g>
</g>
</svg>
