<?xml version="1.0" encoding="iso-8859-1"?>
<!-- Generator: Adobe Illustrator 19.0.0, SVG Export Plug-In . SVG Version: 6.00 Build 0)  -->
<svg version="1.1" id="Layer_1" xmlns="http://www.w3.org/2000/svg" xmlns:xlink="http://www.w3.org/1999/xlink" x="0px" y="0px"
	 viewBox="0 0 383.289 383.289" style="enable-background:new 0 0 383.289 383.289;" xml:space="preserve">
<path style="fill:#FFFFFF;stroke:#193651;stroke-width:2;stroke-miterlimit:10;" d="M191.612,28.477L191.612,28.477
	c-90.246,0-163.232,72.921-163.232,163.168l0,0c0,90.246,72.921,163.232,163.168,163.232l0,0
	c90.246,0,163.232-72.921,163.232-163.232l0,0C354.844,101.398,281.859,28.477,191.612,28.477z"/>
<path id="SVGCleanerId_0" style="fill:#F16051;" d="M191.612,310.335c-65.552,0-118.691-53.139-118.691-118.691
	S126.061,72.954,191.612,72.954s118.691,53.139,118.691,118.691S257.164,310.335,191.612,310.335z"/>
<path style="fill:#FFFFFF;stroke:#193651;stroke-width:2;stroke-miterlimit:10;" d="M191.612,270.772
	c-43.248,0-79.127-35.232-79.127-79.127c0-43.248,35.232-79.127,79.127-79.127c43.248,0,79.127,35.232,79.127,79.127
	C270.739,234.893,234.861,270.772,191.612,270.772z"/>
<polygon style="fill:#2EA2DB;" points="214.497,168.178 155.733,155.766 168.145,214.529 177.39,197.85 207.709,227.523 
	227.491,207.741 197.818,177.422 "/>
<path style="fill:#FFFFFF;" d="M191.612,28.477L191.612,28.477c-90.246,0-163.232,72.921-163.232,163.168l0,0
	c0,90.246,72.921,163.232,163.168,163.232l0,0c90.246,0,163.232-72.921,163.232-163.232l0,0
	C354.844,101.398,281.859,28.477,191.612,28.477z"/>
<g>
	<path id="SVGCleanerId_0_1_" style="fill:#F16051;" d="M191.612,310.335c-65.552,0-118.691-53.139-118.691-118.691
		S126.061,72.954,191.612,72.954s118.691,53.139,118.691,118.691S257.164,310.335,191.612,310.335z"/>
</g>
<path style="fill:#FFFFFF;" d="M191.612,270.772c-43.248,0-79.127-35.232-79.127-79.127c0-43.248,35.232-79.127,79.127-79.127
	c43.248,0,79.127,35.232,79.127,79.127C270.739,234.893,234.861,270.772,191.612,270.772z"/>
<g>
	
		<rect x="88.99" y="278.797" transform="matrix(-0.7069 0.7073 -0.7073 -0.7069 363.9974 419.1075)" style="fill:#193651;" width="12.347" height="12.347"/>
	
		<rect x="281.841" y="85.9" transform="matrix(-0.7069 0.7073 -0.7073 -0.7069 556.7388 -46.5532)" style="fill:#193651;" width="12.347" height="12.347"/>
	
		<rect x="89.02" y="85.925" transform="matrix(-0.7071 0.7071 -0.7071 -0.7071 227.6287 89.9102)" style="fill:#193651;" width="12.347" height="12.347"/>
	
		<rect x="281.91" y="278.771" transform="matrix(-0.7071 0.7071 -0.7071 -0.7071 693.2753 282.7258)" style="fill:#193651;" width="12.347" height="12.347"/>
</g>
<polygon style="fill:#2EA2DB;" points="214.497,168.178 155.733,155.766 168.145,214.529 177.39,197.85 207.709,227.523 
	227.491,207.741 197.818,177.422 "/>
<path style="fill:#193651;" d="M360.404,185.438c-3.103-88.372-74.15-159.483-162.586-162.586V0.032h-12.347v22.885
	C97.034,25.956,25.923,97.067,22.82,185.438H0v12.347h22.885c3.103,88.372,74.214,159.483,162.586,162.586v22.885h12.347v-22.885
	c88.372-3.103,159.483-74.214,162.586-162.586h22.885v-12.347H360.404z M263.952,197.85c-3.103,35.232-30.901,63.03-66.133,66.133
	v-14.222h-12.347v14.222c-35.232-3.103-63.03-30.901-66.133-66.133h14.222v-12.347h-14.222c3.103-35.232,30.901-63.03,66.133-66.133
	v14.222h12.347V119.37c35.232,3.103,63.03,30.901,66.133,66.133h-14.222v12.347H263.952z M185.406,35.265v71.693
	c-42.02,3.103-75.442,36.461-78.481,78.481H35.232C38.271,103.855,103.822,38.303,185.406,35.265z M35.232,197.85h71.693
	c3.103,42.02,36.461,75.442,78.481,78.481v71.693C103.822,344.921,38.271,279.434,35.232,197.85z M197.818,348.024v-71.693
	c42.02-3.103,75.442-36.461,78.481-78.481h71.693C344.889,279.434,279.402,344.921,197.818,348.024z M276.299,185.438
	c-3.103-42.02-36.461-75.442-78.481-78.481V35.265c81.584,3.103,147.135,68.59,150.238,150.238h-71.758V185.438z"/>
<g>
</g>
<g>
</g>
<g>
</g>
<g>
</g>
<g>
</g>
<g>
</g>
<g>
</g>
<g>
</g>
<g>
</g>
<g>
</g>
<g>
</g>
<g>
</g>
<g>
</g>
<g>
</g>
<g>
</g>
</svg>
