<?xml version="1.0" encoding="iso-8859-1"?>
<!-- Generator: Adobe Illustrator 19.0.0, SVG Export Plug-In . SVG Version: 6.00 Build 0)  -->
<svg version="1.1" id="Layer_1" xmlns="http://www.w3.org/2000/svg" xmlns:xlink="http://www.w3.org/1999/xlink" x="0px" y="0px"
	 viewBox="0 0 395.636 395.636" style="enable-background:new 0 0 395.636 395.636;" xml:space="preserve">
<circle style="fill:#F16051;" cx="197.818" cy="197.818" r="194.715"/>
<path style="fill:#FFFFFF;" d="M315.281,389.43H80.356c-3.685,0-6.206-2.457-6.206-6.206V12.347c0-3.685,2.457-6.206,6.206-6.206
	h234.925c3.685,0,6.206,2.457,6.206,6.206v370.941C321.487,386.974,318.966,389.43,315.281,389.43z"/>
<path style="fill:#193651;" d="M315.281,395.636H80.356c-6.788,0-12.347-5.56-12.347-12.347V12.347C68.008,5.56,73.568,0,80.356,0
	h234.925c6.788,0,12.347,5.56,12.347,12.347v370.941C327.628,390.077,322.069,395.636,315.281,395.636z M80.356,12.347v370.941
	h234.925V12.347H80.356z"/>
<rect x="102.594" y="35.879" style="fill:#2EA2DB;" width="190.384" height="59.992"/>
<rect x="138.473" y="192.259" style="fill:#F16051;" width="119.337" height="25.341"/>
<circle style="fill:#2EA2DB;" cx="197.818" cy="306.618" r="23.467"/>
<g>
	<circle style="fill:#193651;" cx="197.818" cy="356.073" r="8.663"/>
	<rect x="158.901" y="244.816" style="fill:#193651;" width="12.347" height="12.347"/>
	<rect x="191.612" y="244.816" style="fill:#193651;" width="12.347" height="12.347"/>
	<rect x="224.388" y="244.816" style="fill:#193651;" width="12.347" height="12.347"/>
</g>
<rect x="124.897" y="59.345" style="fill:#FFFFFF;" width="145.261" height="12.347"/>
<rect x="102.594" y="95.806" style="fill:#2EA2DB;" width="190.384" height="59.992"/>
<path style="fill:#193651;" d="M96.453,29.673v132.267h202.796V29.673H96.453z M286.836,149.01H108.8v-47.58h178.036V149.01z
	 M286.836,89.665H108.8V42.02h178.036V89.665z"/>
<rect x="124.897" y="119.337" style="fill:#FFFFFF;" width="145.261" height="12.347"/>
<g>
</g>
<g>
</g>
<g>
</g>
<g>
</g>
<g>
</g>
<g>
</g>
<g>
</g>
<g>
</g>
<g>
</g>
<g>
</g>
<g>
</g>
<g>
</g>
<g>
</g>
<g>
</g>
<g>
</g>
</svg>
