<?xml version="1.0" encoding="iso-8859-1"?>
<!-- Generator: Adobe Illustrator 19.0.0, SVG Export Plug-In . SVG Version: 6.00 Build 0)  -->
<svg version="1.1" id="Layer_1" xmlns="http://www.w3.org/2000/svg" xmlns:xlink="http://www.w3.org/1999/xlink" x="0px" y="0px"
	 viewBox="0 0 406.756 406.756" style="enable-background:new 0 0 406.756 406.756;" xml:space="preserve">
<polygon style="fill:#FFFFFF;" points="296.081,207.063 110.675,207.063 84.687,246.626 322.069,246.626 "/>
<path style="fill:#193651;" d="M333.834,252.832H72.921l34.004-51.911h192.84L333.834,252.832z M95.806,240.485h215.143
	l-17.907-27.216H113.713L95.806,240.485z"/>
<polygon style="fill:#FFFFFF;" points="369.067,352.388 37.689,352.388 11.766,391.952 394.99,391.952 "/>
<path style="fill:#193651;" d="M406.756,398.093H0l34.004-51.911h337.519L406.756,398.093z M23.467,385.745h360.404l-17.907-27.216
	H41.438L23.467,385.745z"/>
<polygon style="fill:#FFFFFF;" points="332.606,279.402 74.149,279.402 48.226,318.966 358.529,318.966 "/>
<path style="fill:#193651;" d="M370.295,325.172H36.461l34.004-51.911h265.18L370.295,325.172z M59.345,312.824h287.483
	l-17.907-27.216H77.253L59.345,312.824z"/>
<polygon style="fill:#FFFFFF;" points="260.267,134.141 146.489,134.141 120.566,173.705 286.19,173.705 "/>
<path style="fill:#193651;" d="M297.374,179.911H109.382L143.386,128h119.919L297.374,179.911z M132.267,167.499h142.222
	l-17.907-27.216H150.238L132.267,167.499z"/>
<polygon style="fill:#F16051;" points="203.378,8.663 157.026,101.366 178.683,101.366 178.683,398.093 228.137,398.093 
	228.137,101.366 249.729,101.366 "/>
<g>
	<rect x="197.172" y="107.572" style="fill:#193651;" width="12.347" height="12.347"/>
	<rect x="197.172" y="155.152" style="fill:#193651;" width="12.347" height="12.347"/>
	<rect x="197.172" y="202.731" style="fill:#193651;" width="12.347" height="12.347"/>
	<rect x="197.172" y="250.376" style="fill:#193651;" width="12.347" height="12.347"/>
	<rect x="197.172" y="297.956" style="fill:#193651;" width="12.347" height="12.347"/>
	<rect x="197.172" y="345.535" style="fill:#193651;" width="12.347" height="12.347"/>
</g>
<g>
</g>
<g>
</g>
<g>
</g>
<g>
</g>
<g>
</g>
<g>
</g>
<g>
</g>
<g>
</g>
<g>
</g>
<g>
</g>
<g>
</g>
<g>
</g>
<g>
</g>
<g>
</g>
<g>
</g>
</svg>
