<?xml version="1.0" encoding="iso-8859-1"?>
<!-- Generator: Adobe Illustrator 19.0.0, SVG Export Plug-In . SVG Version: 6.00 Build 0)  -->
<svg version="1.1" id="Layer_1" xmlns="http://www.w3.org/2000/svg" xmlns:xlink="http://www.w3.org/1999/xlink" x="0px" y="0px"
	 viewBox="0 0 395.636 395.636" style="enable-background:new 0 0 395.636 395.636;" xml:space="preserve">
<rect id="SVGCleanerId_0" x="24.695" y="6.206" style="fill:#FFFFFF;" width="307.846" height="354.844"/>
<rect id="SVGCleanerId_1" x="46.998" y="30.901" style="fill:#E1E6E9;" width="263.37" height="305.39"/>
<polygon style="fill:#FDBF5E;" points="370.941,34.586 370.941,389.43 63.03,389.43 63.03,361.051 332.606,361.051 332.606,34.586 
	"/>
<g>
	<rect id="SVGCleanerId_0_1_" x="24.695" y="6.206" style="fill:#FFFFFF;" width="307.846" height="354.844"/>
</g>
<path style="fill:#193651;" d="M338.747,28.444V0H18.554v367.192h38.335v28.444h320.194V28.444H338.747z M30.901,12.347H326.4
	v342.497H30.901V12.347z M364.735,383.289H69.236v-16.097h269.511v-326.4h25.988V383.289z"/>
<g>
	<rect id="SVGCleanerId_1_1_" x="46.998" y="30.901" style="fill:#E1E6E9;" width="263.37" height="305.39"/>
</g>
<g>
	<rect x="186.053" y="299.184" style="fill:#193651;" width="12.994" height="12.347"/>
	<rect x="213.915" y="299.184" style="fill:#193651;" width="12.994" height="12.347"/>
	<rect x="242.36" y="299.184" style="fill:#193651;" width="12.994" height="12.347"/>
	<rect x="270.158" y="299.184" style="fill:#193651;" width="12.994" height="12.347"/>
	<rect x="74.214" y="55.014" style="fill:#193651;" width="209.584" height="12.347"/>
	<rect x="74.214" y="95.806" style="fill:#193651;" width="209.584" height="12.347"/>
	<rect x="74.214" y="136.598" style="fill:#193651;" width="209.584" height="12.347"/>
	<rect x="74.214" y="177.39" style="fill:#193651;" width="209.584" height="12.347"/>
	<rect x="74.214" y="218.246" style="fill:#193651;" width="209.584" height="12.347"/>
	<rect x="74.214" y="259.038" style="fill:#193651;" width="209.584" height="12.347"/>
</g>
<g>
</g>
<g>
</g>
<g>
</g>
<g>
</g>
<g>
</g>
<g>
</g>
<g>
</g>
<g>
</g>
<g>
</g>
<g>
</g>
<g>
</g>
<g>
</g>
<g>
</g>
<g>
</g>
<g>
</g>
</svg>
