<?xml version="1.0" encoding="iso-8859-1"?>
<!-- Generator: Adobe Illustrator 19.0.0, SVG Export Plug-In . SVG Version: 6.00 Build 0)  -->
<svg version="1.1" id="Layer_1" xmlns="http://www.w3.org/2000/svg" xmlns:xlink="http://www.w3.org/1999/xlink" x="0px" y="0px"
	 viewBox="0 0 396.461 396.461" style="enable-background:new 0 0 396.461 396.461;" xml:space="preserve">
<g>
	<polygon style="fill:#FFFFFF;" points="55.609,84.865 340.571,84.865 340.571,210.02 199.06,329.681 55.609,209.244 	"/>
	<path style="fill:#FFFFFF;" d="M10.486,171.426l45.123-39.758v78.158C29.427,187.846,10.292,171.62,10.486,171.426z"/>
	<polygon style="fill:#FFFFFF;" points="198.413,5.737 288.142,84.865 108.684,84.865 	"/>
	<path style="fill:#FFFFFF;" d="M386.34,171.426c0.194,0.194-19.265,16.679-45.77,38.917v-79.257L386.34,171.426z"/>
	<polygon style="fill:#FFFFFF;" points="340.571,84.865 340.571,209.891 199.06,329.681 55.609,209.374 55.609,84.865 	"/>
</g>
<path style="fill:#193651;" d="M387.569,396.461H9.258c-2.457,0-4.978-1.875-5.56-4.331c-0.582-2.457,0-4.913,1.875-6.788
	l130.457-110.028c2.457-1.875,5.56-1.875,8.016,0l55.661,46.352l54.368-45.77c2.457-1.875,5.56-1.875,8.016,0L391.9,385.341
	c1.875,1.875,2.457,4.331,1.875,6.788C392.546,394.586,390.025,396.461,387.569,396.461z M25.936,384.048h344.307l-112.485-95.224
	l-54.368,45.77c-2.457,1.875-5.56,1.875-8.016,0l-55.661-46.352L25.936,384.048z"/>
<polygon style="fill:#D3D7DA;" points="386.34,390.255 386.34,171.426 257.047,280.162 "/>
<g>
	<rect x="90.26" y="201.099" style="fill:#193651;" width="216.372" height="12.347"/>
	<rect x="90.26" y="163.992" style="fill:#193651;" width="216.372" height="12.347"/>
	<rect x="90.26" y="127.531" style="fill:#193651;" width="216.372" height="12.347"/>
</g>
<polygon style="fill:#FFFFFF;" points="386.34,390.255 257.047,280.162 199.06,329.681 139.52,279.968 9.258,390.255 9.258,390.255 
	"/>
<polygon style="fill:#D3D7DA;" points="10.486,171.426 10.486,390.255 139.52,279.968 "/>
<g>
	<rect x="164.409" y="353.147" style="fill:#193651;" width="12.347" height="12.347"/>
	<rect x="192.207" y="353.147" style="fill:#193651;" width="12.347" height="12.347"/>
	<rect x="220.07" y="353.147" style="fill:#193651;" width="12.347" height="12.347"/>
	<path style="fill:#193651;" d="M390.025,165.867l-42.667-39.434V84.865c0-3.685-2.457-6.206-6.206-6.206H290.47L202.744,1.406
		c-2.457-1.875-5.56-1.875-8.016,0l-88.436,77.253H55.609c-3.685,0-6.206,2.457-6.206,6.206v40.986L6.284,165.802
		c-0.065,0-0.065,0.065-0.129,0.065c-2.457,1.228-3.685,3.103-3.685,5.56v218.828c0.646,3.685,2.457,5.56,6.206,6.206h378.311
		c3.685,0,5.56-2.457,6.206-6.206V171.426C393.775,168.97,392.546,166.448,390.025,165.867z M377.807,171.749l-30.384,26.246
		v-54.691L377.807,171.749z M198.413,14.4l73.568,64.259H124.845L198.413,14.4z M61.815,91.071h272.614v117.463L199.641,321.665
		L61.815,207.24V91.071z M49.403,142.788v53.98l-30.578-25.406L49.403,142.788z M15.464,184.42l115.006,95.806L15.464,376.679
		V184.42z M25.936,384.048l82.23-69.883l30.901-25.988l55.661,46.352c2.457,1.875,5.56,1.875,8.016,0l54.368-45.77l112.485,95.224
		H25.936V384.048z M381.363,376.679l-113.713-95.871l113.713-95.806V376.679z"/>
</g>
<g>
</g>
<g>
</g>
<g>
</g>
<g>
</g>
<g>
</g>
<g>
</g>
<g>
</g>
<g>
</g>
<g>
</g>
<g>
</g>
<g>
</g>
<g>
</g>
<g>
</g>
<g>
</g>
<g>
</g>
</svg>
