<?xml version="1.0" encoding="iso-8859-1"?>
<!-- Generator: Adobe Illustrator 19.0.0, SVG Export Plug-In . SVG Version: 6.00 Build 0)  -->
<svg version="1.1" id="Layer_1" xmlns="http://www.w3.org/2000/svg" xmlns:xlink="http://www.w3.org/1999/xlink" x="0px" y="0px"
	 viewBox="0 0 395.636 395.636" style="enable-background:new 0 0 395.636 395.636;" xml:space="preserve">
<g>
	<circle style="fill:#FFFFFF;" cx="197.818" cy="32.453" r="26.57"/>
	<circle style="fill:#FFFFFF;" cx="197.818" cy="362.861" r="26.57"/>
	<circle style="fill:#FFFFFF;" cx="362.861" cy="197.818" r="26.57"/>
	<circle style="fill:#FFFFFF;" cx="32.776" cy="197.818" r="26.57"/>
</g>
<g>
	<rect x="307.265" y="307.265" style="fill:#193651;" width="12.347" height="12.347"/>
	<rect x="307.265" y="76.024" style="fill:#193651;" width="12.347" height="12.347"/>
	<rect x="76.024" y="76.024" style="fill:#193651;" width="12.347" height="12.347"/>
	<rect x="76.024" y="307.265" style="fill:#193651;" width="12.347" height="12.347"/>
</g>
<g>
	<circle style="fill:#4FBF9F;" cx="197.818" cy="167.499" r="28.444"/>
	<path style="fill:#4FBF9F;" d="M228.719,207.063L228.719,207.063c-8.663,6.206-19.135,10.537-30.901,10.537
		c-11.119,0-21.657-3.685-30.319-10.537h-0.646l0,0c-21.657,0-38.917,15.451-38.917,35.232v2.457
		c14.804,22.238,40.792,36.461,69.236,36.461c29.026,0,54.368-14.869,69.236-36.461v-2.457
		C267.055,223.16,249.729,207.063,228.719,207.063z"/>
</g>
<g>
	<path style="fill:#193651;" d="M197.818,288.065c-49.455,0-90.246-40.21-90.246-90.246s40.792-90.246,90.246-90.246
		s90.246,40.145,90.246,90.246S247.273,288.065,197.818,288.065z M197.818,119.919c-42.667,0-77.899,34.651-77.899,77.899
		c0,42.667,34.651,77.899,77.899,77.899c42.667,0,77.899-34.586,77.899-77.899C275.717,155.152,240.485,119.919,197.818,119.919z"/>
	<path style="fill:#193651;" d="M197.818,64.905c-17.907,0-32.776-14.804-32.776-32.776C165.042,14.804,179.911,0,197.818,0
		s32.776,14.869,32.776,32.776S215.725,64.905,197.818,64.905z M197.818,12.347c-11.119,0-20.428,9.244-20.428,20.428
		s9.244,20.428,20.428,20.428c11.184,0,20.428-9.244,20.428-20.428S208.937,12.347,197.818,12.347z"/>
	<path style="fill:#193651;" d="M197.818,395.636c-17.907,0-32.776-14.869-32.776-32.776s14.869-32.776,32.776-32.776
		s32.776,14.869,32.776,32.776S215.725,395.636,197.818,395.636z M197.818,343.079c-11.119,0-20.428,9.244-20.428,20.428
		c0,11.119,9.244,20.428,20.428,20.428c11.184,0,20.428-9.244,20.428-20.428C218.246,351.741,208.937,343.079,197.818,343.079z"/>
	<path style="fill:#193651;" d="M362.861,230.594c-17.907,0-32.776-14.869-32.776-32.776s14.869-32.776,32.776-32.776
		s32.776,14.869,32.776,32.776S380.768,230.594,362.861,230.594z M362.861,177.39c-11.119,0-20.428,9.244-20.428,20.428
		c0,11.184,9.244,20.428,20.428,20.428c11.119,0,20.428-9.244,20.428-20.428C383.289,186.634,373.98,177.39,362.861,177.39z"/>
	<path style="fill:#193651;" d="M32.776,230.594C14.869,230.594,0,215.725,0,197.818s14.869-32.776,32.776-32.776
		s32.776,14.869,32.776,32.776C64.905,215.725,50.683,230.594,32.776,230.594z M32.776,177.39c-11.119,0-20.428,9.244-20.428,20.428
		c0,11.184,9.244,20.428,20.428,20.428s20.428-9.244,20.428-20.428C52.558,186.699,43.895,177.39,32.776,177.39z"/>
	<path style="fill:#193651;" d="M38.335,331.96v-80.356H25.988v80.356c0,20.428,16.679,37.107,37.107,37.107h80.356v-12.347H63.03
		C49.455,356.719,38.335,345.535,38.335,331.96z"/>
	<path style="fill:#193651;" d="M356.719,331.96c0,13.576-11.119,24.76-24.76,24.76h-80.356v12.347h80.356
		c20.428,0,37.107-16.679,37.107-37.107v-80.356h-12.347L356.719,331.96L356.719,331.96z"/>
	<path style="fill:#193651;" d="M26.57,63.03v80.356h12.347V63.03c0-13.576,11.119-24.76,24.76-24.76h80.356V25.923H63.677
		C43.248,25.988,26.57,42.667,26.57,63.03z"/>
	<path style="fill:#193651;" d="M331.96,25.988h-80.356v12.347h80.356c13.576,0,24.76,11.119,24.76,24.76v80.356h12.347V63.03
		C369.067,42.667,352.388,25.988,331.96,25.988z"/>
</g>
<g>
</g>
<g>
</g>
<g>
</g>
<g>
</g>
<g>
</g>
<g>
</g>
<g>
</g>
<g>
</g>
<g>
</g>
<g>
</g>
<g>
</g>
<g>
</g>
<g>
</g>
<g>
</g>
<g>
</g>
</svg>
