<?xml version="1.0" encoding="iso-8859-1"?>
<!-- Generator: Adobe Illustrator 19.0.0, SVG Export Plug-In . SVG Version: 6.00 Build 0)  -->
<svg version="1.1" id="Layer_1" xmlns="http://www.w3.org/2000/svg" xmlns:xlink="http://www.w3.org/1999/xlink" x="0px" y="0px"
	 viewBox="0 0 395.636 395.636" style="enable-background:new 0 0 395.636 395.636;" xml:space="preserve">
<g>
	<path style="fill:#FFFFFF;" d="M229.398,18.554v33.81c-10.214-1.939-20.752-2.909-31.547-2.909c-10.796,0-21.333,0.97-31.547,2.909
		v-33.81c0-6.788,5.56-12.347,12.347-12.347h38.335C223.838,6.206,229.398,11.766,229.398,18.554z"/>
	<path style="fill:#FFFFFF;" d="M197.85,49.455L197.85,49.455c-93.996,0-170.02,76.024-170.02,170.02l0,0
		c0,93.996,76.024,170.02,170.02,170.02l0,0c93.996,0,170.02-76.024,170.02-170.02l0,0
		C367.871,125.479,291.846,49.455,197.85,49.455z"/>
</g>
<path style="fill:#193651;" d="M326.432,98.909l19.135-19.135l-8.598-8.663l-19.135,19.135
	c-22.885-21.01-50.683-36.461-82.23-43.248V18.554C235.604,8.016,227.588,0,217.051,0h-38.335c-10.537,0-18.554,8.016-18.554,18.554
	v28.444c-31.547,6.788-59.345,22.238-82.23,43.248l-19.2-19.135l-8.663,9.244l19.135,19.135
	c-29.673,30.901-47.58,73.568-47.58,119.919c0.065,97.099,79.192,176.226,176.226,176.226s176.162-79.127,176.162-176.162
	C374.012,173.123,356.105,130.457,326.432,98.909z M172.509,18.554c0-3.685,2.457-6.206,6.206-6.206h38.335
	c3.685,0,6.206,2.457,6.206,6.206v26.57c-8.016-2.457-42.667-2.457-50.683,0v-26.57H172.509z M197.85,383.289
	c-90.246,0-163.814-73.568-163.814-163.814S107.604,55.661,197.85,55.661s163.814,73.568,163.814,163.814
	S288.097,383.289,197.85,383.289z"/>
<path style="fill:#2EA2DB;" d="M197.85,367.838c-81.584,0-148.364-66.198-148.364-148.364S115.62,71.111,197.85,71.111
	s148.364,66.133,148.364,148.364C346.214,301.059,279.434,367.838,197.85,367.838z"/>
<g>
	<rect x="318.416" y="213.269" style="fill:#FFFFFF;" width="12.347" height="12.347"/>
	<rect x="64.937" y="213.269" style="fill:#FFFFFF;" width="12.347" height="12.347"/>
	<rect x="191.644" y="339.976" style="fill:#FFFFFF;" width="12.347" height="12.347"/>
	<rect x="191.644" y="86.562" style="fill:#FFFFFF;" width="12.347" height="12.347"/>
	
		<rect x="281.378" y="302.883" transform="matrix(0.707 0.7072 -0.7072 0.707 302.8176 -112.8067)" style="fill:#FFFFFF;" width="12.347" height="12.347"/>
	
		<rect x="101.879" y="123.695" transform="matrix(0.707 0.7072 -0.7072 0.707 123.5031 -38.3652)" style="fill:#FFFFFF;" width="12.347" height="12.347"/>
	
		<rect x="102.003" y="303.042" transform="matrix(0.7071 0.7071 -0.7071 0.7071 250.3325 14.0743)" style="fill:#FFFFFF;" width="12.347" height="12.347"/>
	
		<rect x="281.198" y="123.534" transform="matrix(0.7071 0.7071 -0.7071 0.7071 175.8862 -165.2116)" style="fill:#FFFFFF;" width="12.347" height="12.347"/>
	<path style="fill:#FFFFFF;" d="M197.85,213.915c-9.891,0-17.907-8.016-17.907-17.907c0-9.891,8.016-17.907,17.907-17.907
		c9.891,0,17.907,8.016,17.907,17.907h12.347c0-14.545-10.343-26.764-24.113-29.673v-8.081h-12.347v8.081
		c-13.77,2.844-24.113,15.063-24.113,29.673c0,16.679,13.576,30.319,30.319,30.319c9.891,0,17.907,8.016,17.907,17.907
		c0,9.891-8.016,17.907-17.907,17.907c-9.891,0-17.907-8.016-17.907-17.907h-12.347c0,14.545,10.343,26.764,24.113,29.673v6.788
		h12.347v-6.788c13.77-2.844,24.113-15.063,24.113-29.673C228.17,227.491,214.529,213.915,197.85,213.915z"/>
</g>
<g>
</g>
<g>
</g>
<g>
</g>
<g>
</g>
<g>
</g>
<g>
</g>
<g>
</g>
<g>
</g>
<g>
</g>
<g>
</g>
<g>
</g>
<g>
</g>
<g>
</g>
<g>
</g>
<g>
</g>
</svg>
