<?xml version="1.0" encoding="iso-8859-1"?>
<!-- Generator: Adobe Illustrator 19.0.0, SVG Export Plug-In . SVG Version: 6.00 Build 0)  -->
<svg version="1.1" id="Layer_1" xmlns="http://www.w3.org/2000/svg" xmlns:xlink="http://www.w3.org/1999/xlink" x="0px" y="0px"
	 viewBox="0 0 395.636 395.636" style="enable-background:new 0 0 395.636 395.636;" xml:space="preserve">
<circle style="fill:#FFFFFF;" cx="197.818" cy="79.774" r="73.568"/>
<path style="fill:#4FBF9F;" d="M197.818,127.935c-26.57,0-48.808-21.657-48.808-48.808c0-26.57,22.238-48.226,48.808-48.226
	s48.808,21.657,48.808,48.808C246.626,106.343,224.388,127.935,197.818,127.935z"/>
<circle style="fill:#F16051;" cx="197.818" cy="352.97" r="36.461"/>
<path style="fill:#193651;" d="M197.818,395.636c-23.467,0-42.667-19.135-42.667-42.667s19.135-42.667,42.667-42.667
	s42.667,19.135,42.667,42.667S221.285,395.636,197.818,395.636z M197.818,322.715c-16.679,0-30.319,13.576-30.319,30.319
	c0,16.679,13.576,30.319,30.319,30.319c16.679,0,30.319-13.576,30.319-30.319C228.137,336.291,214.497,322.715,197.818,322.715z"/>
<circle style="fill:#E1E6E9;" cx="42.667" cy="246.626" r="36.461"/>
<g>
	<rect x="191.612" y="302.287" style="fill:#193651;" width="12.347" height="12.347"/>
	<rect x="191.612" y="277.592" style="fill:#193651;" width="12.347" height="12.347"/>
	<rect x="191.612" y="252.832" style="fill:#193651;" width="12.347" height="12.347"/>
	<rect x="191.612" y="228.137" style="fill:#193651;" width="12.347" height="12.347"/>
	<rect x="191.612" y="178.683" style="fill:#193651;" width="12.347" height="12.347"/>
	<rect x="191.612" y="203.378" style="fill:#193651;" width="12.347" height="12.347"/>
	
		<rect x="293.169" y="182.519" transform="matrix(-0.7311 0.6823 -0.6823 -0.7311 647.3198 122.5751)" style="fill:#193651;" width="12.671" height="12.671"/>
	
		<rect x="309.88" y="200.491" transform="matrix(-0.7311 0.6823 -0.6823 -0.7311 688.5109 142.2852)" style="fill:#193651;" width="12.671" height="12.671"/>
	
		<rect x="275.84" y="163.98" transform="matrix(-0.7311 0.6823 -0.6823 -0.7311 604.6735 102.3063)" style="fill:#193651;" width="12.671" height="12.671"/>
	<path style="fill:#193651;" d="M256.453,133.366c13.059-14.093,21.075-32.905,21.075-53.592C277.592,35.879,241.713,0,197.818,0
		s-79.774,35.879-79.774,79.127c0,20.816,8.081,39.887,21.269,54.109l-0.259,0.259l9.244,8.663l0.323-0.323
		c12.024,9.438,26.828,15.515,42.925,16.808v7.628h12.347v-7.628c16.162-1.228,31.03-7.24,43.119-16.679l1.358,1.487l9.244-8.663
		L256.453,133.366z M197.818,147.135c-37.107,0-67.362-30.319-67.362-67.362s30.255-67.426,67.362-67.426
		s67.362,30.319,67.362,67.426S234.925,147.135,197.818,147.135z"/>
	
		<rect x="259.173" y="146.055" transform="matrix(-0.7311 0.6823 -0.6823 -0.7311 563.5909 82.648)" style="fill:#193651;" width="12.671" height="12.671"/>
	
		<rect x="124.419" y="144.827" transform="matrix(0.7311 0.6823 -0.6823 0.7311 138.2975 -48.562)" style="fill:#193651;" width="12.671" height="12.671"/>
	
		<rect x="91.015" y="181.289" transform="matrix(0.7311 0.6823 -0.6823 0.7311 154.1924 -15.9658)" style="fill:#193651;" width="12.671" height="12.671"/>
	
		<rect x="74.297" y="199.223" transform="matrix(0.7311 0.6823 -0.6823 0.7311 161.9331 0.2631)" style="fill:#193651;" width="12.671" height="12.671"/>
	
		<rect x="107.727" y="163.355" transform="matrix(0.7311 0.6823 -0.6823 0.7311 146.4504 -32.1912)" style="fill:#193651;" width="12.671" height="12.671"/>
	<path style="fill:#193651;" d="M42.667,204.024C19.2,204.024,0,223.16,0,246.691c0,23.467,19.135,42.667,42.667,42.667
		c23.467,0,42.667-19.135,42.667-42.667S66.133,204.024,42.667,204.024z M42.667,276.945c-16.679,0-30.319-13.576-30.319-30.319
		c0-16.679,13.576-30.319,30.319-30.319c16.679,0,30.319,13.576,30.319,30.319C72.921,263.37,59.345,276.945,42.667,276.945z"/>
</g>
<circle style="fill:#2EA2DB;" cx="352.97" cy="246.626" r="36.461"/>
<path style="fill:#193651;" d="M352.97,289.293c-23.467,0-42.667-19.135-42.667-42.667s19.135-42.667,42.667-42.667
	c23.467,0,42.667,19.135,42.667,42.667S376.501,289.293,352.97,289.293z M352.97,216.372c-16.679,0-30.319,13.576-30.319,30.319
	s13.576,30.319,30.319,30.319c16.679,0,30.319-13.576,30.319-30.319S369.648,216.372,352.97,216.372z"/>
<g>
</g>
<g>
</g>
<g>
</g>
<g>
</g>
<g>
</g>
<g>
</g>
<g>
</g>
<g>
</g>
<g>
</g>
<g>
</g>
<g>
</g>
<g>
</g>
<g>
</g>
<g>
</g>
<g>
</g>
</svg>
