<?xml version="1.0" encoding="iso-8859-1"?>
<!-- Generator: Adobe Illustrator 19.0.0, SVG Export Plug-In . SVG Version: 6.00 Build 0)  -->
<svg version="1.1" id="Layer_1" xmlns="http://www.w3.org/2000/svg" xmlns:xlink="http://www.w3.org/1999/xlink" x="0px" y="0px"
	 viewBox="0 0 398.285 398.285" style="enable-background:new 0 0 398.285 398.285;" xml:space="preserve">
<circle style="fill:#D3D7DA;" cx="199.196" cy="191.612" r="191.612"/>
<path style="fill:#FFFFFF;" d="M388.351,281.859l-57.729-57.729c7.37-41.568-4.913-86.109-36.848-118.432
	c-32.517-32.517-77.059-44.865-118.756-37.172l-57.406-57.406L10.04,118.691l57.729,57.729
	c-7.37,41.568,4.913,86.109,36.848,118.432c32.194,32.194,76.994,44.412,118.885,36.719l57.341,57.859L388.351,281.859z"/>
<path style="fill:#2EA2DB;" d="M320.343,103.24l-18.554,18.554l-24.113-24.113l18.554-18.554c2.457-2.457,6.206-2.457,8.663,0
	l15.451,15.451C322.864,97.034,322.864,100.784,320.343,103.24z"/>
<g>
	
		<rect x="281.598" y="308.502" transform="matrix(-0.7071 0.7071 -0.7071 -0.7071 814.3091 339.0514)" style="fill:#4FBF9F;" width="110.674" height="59.345"/>
	
		<rect x="31.678" y="7.24" transform="matrix(0.7071 0.7071 -0.7071 0.7071 62.2176 -25.0531)" style="fill:#4FBF9F;" width="59.345" height="110.674"/>
</g>
<path style="fill:#D3D7DA;" d="M169.523,170.602L169.523,170.602c-16.097,16.097-16.097,42.667,0,59.345l0,0
	c16.097,16.097,42.667,16.097,59.345,0l0,0c16.097-16.097,16.097-42.667,0-59.345l0,0
	C212.19,153.923,186.202,153.923,169.523,170.602z"/>
<path style="fill:#FFFFFF;" d="M187.43,188.509L187.43,188.509c-6.206,6.206-6.206,16.679,0,22.885l0,0
	c6.206,6.206,16.679,6.206,22.885,0l0,0c6.206-6.206,6.206-16.679,0-22.885l0,0C204.109,182.368,194.283,182.368,187.43,188.509z"/>
<g>
	<path style="fill:#193651;" d="M390.808,277.527l-55.661-55.661c6.788-42.667-6.206-87.79-38.917-120.566
		c-33.358-31.547-72.921-45.77-120.566-38.917L120.004,6.723l-8.598,8.727l49.455,49.455c-23.467,6.206-45.123,18.554-62.448,35.879
		c-17.907,17.907-29.673,39.564-35.879,62.448l-50.101-50.101l-8.598,8.663l55.661,55.661c-6.788,42.667,6.206,87.79,38.917,120.566
		c32.129,32.129,72.921,45.123,120.566,38.917l55.661,55.661l8.663-8.663l-49.455-49.455c23.467-6.206,45.123-18.554,62.448-35.879
		c17.907-17.907,29.673-39.564,35.879-62.449l50.101,50.101L390.808,277.527z M324.674,206.481
		c-1.228,28.444-12.347,56.889-32.776,79.127l-14.869-14.869l-9.244,8.663l14.869,14.869
		c-22.238,19.782-49.455,31.547-79.127,32.776v-14.222H191.18v14.222c-29.673-1.228-57.471-12.994-79.127-32.776l14.804-14.869
		l-8.663-8.663l-15.451,14.869c-19.782-22.238-31.547-49.455-32.776-79.127H84.19v-12.347H69.967
		c1.228-29.673,12.994-57.471,32.776-79.127l14.804,14.869l8.663-8.663l-14.804-14.804c22.238-19.782,49.455-31.547,79.127-32.776
		v14.222h12.347V73.632c29.673,1.228,57.471,12.994,79.127,32.776l-14.869,14.804l8.663,8.663l14.869-14.869
		c20.428,22.885,31.547,50.683,32.776,79.127h-14.222v12.347L324.674,206.481L324.674,206.481z"/>
	<path style="fill:#193651;" d="M266.557,258.392l-47.58-47.58c3.685-6.788,3.685-14.869,0-21.657l32.129-32.129l-8.663-8.663
		l-32.129,32.129c-8.663-4.331-19.782-3.103-26.57,3.685c-8.663,8.663-8.663,22.885,0,32.129c4.331,4.331,9.891,6.788,16.097,6.788
		c3.685,0,7.434-1.228,11.119-3.103l47.58,47.58L266.557,258.392z M191.761,207.063c-3.685-3.685-3.685-10.537,0-14.222
		c1.875-1.875,4.331-3.103,7.434-3.103c2.457,0,5.56,1.228,7.434,3.103c3.685,3.685,3.685,10.537,0,14.222
		C202.299,211.394,196.093,211.394,191.761,207.063z"/>
</g>
<g>
</g>
<g>
</g>
<g>
</g>
<g>
</g>
<g>
</g>
<g>
</g>
<g>
</g>
<g>
</g>
<g>
</g>
<g>
</g>
<g>
</g>
<g>
</g>
<g>
</g>
<g>
</g>
<g>
</g>
</svg>
