<?xml version="1.0" encoding="iso-8859-1"?>
<!-- Generator: Adobe Illustrator 19.0.0, SVG Export Plug-In . SVG Version: 6.00 Build 0)  -->
<svg version="1.1" id="Layer_1" xmlns="http://www.w3.org/2000/svg" xmlns:xlink="http://www.w3.org/1999/xlink" x="0px" y="0px"
	 viewBox="0 0 395.636 395.636" style="enable-background:new 0 0 395.636 395.636;" xml:space="preserve">
<circle style="fill:#2EA2DB;" cx="197.818" cy="197.495" r="194.715"/>
<g>
	<rect x="6.206" y="287.806" style="fill:#FFFFFF;" width="127.935" height="99.556"/>
	<rect x="261.495" y="287.806" style="fill:#FFFFFF;" width="127.935" height="99.556"/>
</g>
<g>
	<path style="fill:#193651;" d="M212.04,110.998c0.646,0.646,0.646,1.228,0.646,2.457c0,0.646,0,1.875-0.646,2.457
		c-0.646,0.646-1.228,0.646-2.457,0.646h-22.885c-0.646,0-1.875,0-2.457-0.646c-0.646-0.646-0.646-1.228-0.646-2.457
		c0-0.646,0-1.875,0.646-2.457c0.646-0.646,1.228-0.646,2.457-0.646h8.663V72.663l-7.434,3.685c-0.646,0-1.228,0.646-1.875,0.646
		c-1.228,0-1.875,0-2.457-0.646c-0.646-0.646-0.646-1.228-0.646-2.457c0-1.228,0.646-2.457,1.875-3.103l9.891-5.56
		c0.646-0.646,1.228-0.646,1.875-0.646h1.875c1.228,0,1.875,0.646,2.457,1.228c0.646,0.646,1.228,1.228,1.228,2.457v42.02h7.434
		C210.166,110.352,211.394,110.352,212.04,110.998z"/>
	<path style="fill:#193651;" d="M86.562,230.917c0.646,0.646,1.228,1.228,1.228,2.457c0,0.646-0.646,1.875-1.228,2.457
		c-0.646,0.646-1.228,0.646-2.457,0.646H55.661c-1.228,0-1.875-0.646-3.103-1.228s-1.228-1.875-1.228-3.103
		c0-2.457,0.646-4.913,2.457-7.434c1.875-1.875,3.685-3.685,6.206-4.913c1.875-1.875,4.978-3.685,8.663-6.206
		c3.103-1.875,5.56-3.685,7.434-4.913c1.875-1.228,3.103-3.103,4.331-4.331c1.228-1.875,1.875-3.103,1.875-4.913
		c0-3.103-1.228-4.913-3.103-6.788s-4.978-2.457-8.663-2.457c-4.331,0-8.663,0.646-12.994,2.457c-0.646,0-1.228,0.646-1.228,0.646
		c-0.646,0-1.228,0-1.875-0.646c-0.646-0.646-0.646-1.228-0.646-1.875c0-1.228,0.646-1.875,1.875-2.457
		c4.978-2.457,10.537-3.685,16.679-3.685c3.103,0,6.206,0.646,8.663,1.875c2.457,1.228,4.913,3.103,6.206,5.56
		c1.228,2.457,2.457,4.913,2.457,8.016s-0.646,5.56-2.457,8.016c-1.875,2.457-3.685,4.913-6.206,6.788
		c-2.521,1.875-5.56,4.331-9.244,6.788c-3.685,2.457-6.206,4.331-8.016,5.56c-1.81,1.228-3.103,3.103-3.685,4.331h25.988
		C85.333,229.689,85.915,230.271,86.562,230.917z"/>
	<path style="fill:#193651;" d="M340.622,225.939c2.457,1.875,3.103,4.913,3.103,9.244s-1.875,8.016-5.56,10.537
		s-8.016,3.685-13.576,3.685s-10.537-1.228-15.451-3.103c-0.646,0-1.228-0.646-1.228-1.228c-0.646-0.646-0.646-1.228-0.646-1.875
		s0-1.875,0.646-2.457c0.646-0.646,1.228-1.228,1.875-1.228s0.646,0,1.228,0c3.685,1.228,7.434,1.875,11.766,1.875
		c3.685,0,6.788-0.646,9.891-1.875c2.457-1.228,3.685-3.103,3.685-6.206c0-6.206-5.56-9.244-16.679-9.244h-1.228
		c-0.646,0-1.875-0.646-2.457-1.228c-0.646-0.646-0.646-1.228-0.646-2.457c0-0.646,0-1.875,0.646-2.457
		c0.646-0.646,1.228-1.228,2.457-1.228h0.646c4.913,0,8.663-0.646,11.119-2.457c2.457-1.228,3.685-3.685,3.685-6.788
		c0-2.457-1.228-4.331-3.103-5.56c-1.875-1.228-4.913-1.875-8.663-1.875c-4.331,0-8.016,0.646-11.766,2.457
		c-0.646,0-1.228,0-1.228,0c-0.646,0-1.228,0-1.875-0.646c-0.646-0.646-0.646-1.228-0.646-1.875c0-1.228,0.646-1.875,1.228-2.457
		c4.913-2.457,9.891-3.685,14.869-3.685c5.56,0,9.891,1.228,12.994,3.685c3.103,2.457,4.913,5.56,4.913,9.891
		c0,3.685-0.646,6.206-2.457,8.016c-1.875,1.875-3.685,3.685-6.206,4.331C335.644,222.255,338.166,224.129,340.622,225.939z"/>
	<rect x="319.612" y="329.18" style="fill:#193651;" width="11.766" height="12.347"/>
	<rect x="319.612" y="361.374" style="fill:#193651;" width="11.766" height="12.347"/>
	<rect x="64.323" y="329.18" style="fill:#193651;" width="11.766" height="12.347"/>
	<rect x="64.323" y="361.374" style="fill:#193651;" width="11.766" height="12.347"/>
</g>
<rect x="134.141" y="154.893" style="fill:#FFFFFF;" width="127.935" height="231.822"/>
<path style="fill:#193651;" d="M267.701,281.6V148.687H127.935v132.267H0v111.903h395.636V281.6H267.701z M127.935,381.091H12.347
	v-87.143h115.588C127.935,293.948,127.935,381.091,127.935,381.091z M255.289,381.091H140.347V161.034h115.588v220.057H255.289z
	 M383.289,381.091H267.701v-87.143h115.588V381.091z"/>
<rect x="158.901" y="179.588" style="fill:#FDBF5E;" width="78.481" height="182.368"/>
<g>
</g>
<g>
</g>
<g>
</g>
<g>
</g>
<g>
</g>
<g>
</g>
<g>
</g>
<g>
</g>
<g>
</g>
<g>
</g>
<g>
</g>
<g>
</g>
<g>
</g>
<g>
</g>
<g>
</g>
</svg>
