<?xml version="1.0" encoding="iso-8859-1"?>
<!-- Generator: Adobe Illustrator 19.0.0, SVG Export Plug-In . SVG Version: 6.00 Build 0)  -->
<svg version="1.1" id="Layer_1" xmlns="http://www.w3.org/2000/svg" xmlns:xlink="http://www.w3.org/1999/xlink" x="0px" y="0px"
	 viewBox="0 0 395.636 395.636" style="enable-background:new 0 0 395.636 395.636;" xml:space="preserve">
<path style="fill:#FFFFFF;" d="M239.838,311.596v46.933c0,17.325-14.222,30.901-30.901,30.901H37.107
	c-17.325,0-30.901-13.576-30.901-30.901v-171.83c0-17.325,13.576-30.901,30.901-30.901h47.774
	c-1.034,8.986,2.004,18.295,9.051,25.341l121.147,121.794C222.061,309.463,231.046,312.372,239.838,311.596z"/>
<g>
	<path style="fill:#F16051;" d="M61.22,186.053L61.22,186.053c-13.576,0-24.76,11.119-24.76,24.695l0,0
		c0,13.576,11.119,24.76,24.76,24.76l0,0c13.576,0,24.76-11.119,24.76-24.76l0,0C86.562,197.172,75.442,186.053,61.22,186.053z"/>
	<path style="fill:#F16051;" d="M184.824,309.075L184.824,309.075c-13.576,0-24.695,11.119-24.695,24.76l0,0
		c0,13.576,11.119,24.76,24.695,24.76l0,0c13.576,0,24.76-11.119,24.76-24.76l0,0C209.584,320.194,198.465,309.075,184.824,309.075z
		"/>
</g>
<path style="fill:#FFFFFF;" d="M215.143,302.933L93.931,181.139c-12.347-12.347-12.347-31.547,0-43.895L215.079,16.097
	c12.347-12.347,31.547-12.347,43.895,0l121.147,121.147c12.347,12.347,12.347,31.547,0,43.895L259.038,302.933
	C246.626,314.634,227.491,314.634,215.143,302.933z"/>
<path style="fill:#193651;" d="M384.517,132.267L263.37,11.119C256.517,3.685,247.273,0,237.382,0s-19.135,3.685-25.988,11.119
	L89.665,132.267c-4.978,4.913-8.016,11.119-9.891,17.325H37.107C16.679,149.592,0,166.271,0,186.699v171.83
	c0,20.428,16.679,37.107,37.107,37.107h171.83c20.428,0,37.107-16.679,37.107-37.107v-42.667c6.788-1.875,12.347-4.978,17.325-9.891
	l121.147-121.147c6.788-6.788,11.119-16.097,11.119-25.988C395.636,148.364,391.952,139.119,384.517,132.267z M233.697,358.529
	c0,13.576-11.119,24.76-24.76,24.76H37.107c-13.576,0-24.76-11.119-24.76-24.76v-171.83c0-13.576,11.119-24.76,24.76-24.76h42.02
	c0.646,8.016,4.331,16.679,10.537,22.885l121.147,121.147c6.206,6.206,14.222,9.891,22.885,10.537L233.697,358.529L233.697,358.529z
	 M375.855,176.162L254.707,297.374c-14.222,12.994-32.129,4.913-35.232,0L98.263,176.162c-11.766-10.537-5.56-30.901,0-35.232
	L219.41,19.782c3.685-5.56,23.467-12.347,35.232,0l121.212,121.147C384.517,149.01,386.392,166.917,375.855,176.162z"/>
<g>
	<path style="fill:#2EA2DB;" d="M341.851,140.929L341.851,140.929c-9.891-9.891-25.341-9.891-35.232,0l0,0
		c-9.891,9.891-9.891,25.341,0,35.232l0,0c9.891,9.891,25.341,9.891,35.232,0l0,0C351.741,166.271,351.741,150.82,341.851,140.929z"
		/>
	<path style="fill:#2EA2DB;" d="M254.707,53.786L254.707,53.786c-9.891-9.891-25.341-9.891-35.232,0l0,0
		c-9.891,9.891-9.891,25.341,0,35.232l0,0c9.891,9.891,25.341,9.891,35.232,0l0,0C264.598,79.127,264.598,63.677,254.707,53.786z"/>
	<path style="fill:#2EA2DB;" d="M167.499,140.929L167.499,140.929c-9.891-9.891-25.341-9.891-35.232,0l0,0
		c-9.891,9.891-9.891,25.341,0,35.232l0,0c9.891,9.891,25.341,9.891,35.232,0l0,0C177.39,166.271,177.39,150.82,167.499,140.929z"/>
	<path style="fill:#2EA2DB;" d="M254.707,228.137L254.707,228.137c-9.891-9.891-25.341-9.891-35.232,0l0,0
		c-9.891,9.891-9.891,25.341,0,35.232l0,0c9.891,9.891,25.341,9.891,35.232,0l0,0C264.598,253.479,264.598,238.028,254.707,228.137z
		"/>
	<path style="fill:#2EA2DB;" d="M254.707,140.929L254.707,140.929c-9.891-9.891-25.341-9.891-35.232,0l0,0
		c-9.891,9.891-9.891,25.341,0,35.232l0,0c9.891,9.891,25.341,9.891,35.232,0l0,0C264.598,166.271,264.598,150.82,254.707,140.929z"
		/>
</g>
<g>
	<rect x="38.335" y="346.828" style="fill:#193651;" width="12.347" height="12.347"/>
	<rect x="63.03" y="346.828" style="fill:#193651;" width="12.347" height="12.347"/>
	<rect x="87.143" y="346.828" style="fill:#193651;" width="12.347" height="12.347"/>
</g>
<g>
</g>
<g>
</g>
<g>
</g>
<g>
</g>
<g>
</g>
<g>
</g>
<g>
</g>
<g>
</g>
<g>
</g>
<g>
</g>
<g>
</g>
<g>
</g>
<g>
</g>
<g>
</g>
<g>
</g>
</svg>
