<?xml version="1.0" encoding="iso-8859-1"?>
<!-- Generator: Adobe Illustrator 19.0.0, SVG Export Plug-In . SVG Version: 6.00 Build 0)  -->
<svg version="1.1" id="Layer_1" xmlns="http://www.w3.org/2000/svg" xmlns:xlink="http://www.w3.org/1999/xlink" x="0px" y="0px"
	 viewBox="0 0 383.289 383.289" style="enable-background:new 0 0 383.289 383.289;" xml:space="preserve">
<path style="fill:#D3D7DA;" d="M191.612,333.77c-78.481,0-142.158-63.677-142.158-142.158S113.131,49.455,191.612,49.455
	S333.77,113.131,333.77,191.612S270.093,333.77,191.612,333.77z"/>
<path style="fill:#FFFFFF;" d="M191.612,309.075c-64.905,0-117.463-52.558-117.463-117.463S126.707,74.149,191.612,74.149
	s117.463,52.558,117.463,117.463S256.517,309.075,191.612,309.075z"/>
<path style="fill:#FDBF5E;" d="M191.612,284.315c-51.329,0-92.703-41.438-92.703-92.703s41.374-92.703,92.703-92.703
	s92.703,41.374,92.703,92.703S242.941,284.315,191.612,284.315z"/>
<g>
	<path style="fill:#193651;" d="M364.735,185.406C361.632,95.16,288.065,21.592,197.818,18.554V0h-12.347v18.554
		C95.16,21.592,21.592,95.16,18.554,185.406H0v12.347h18.554c3.038,90.311,76.024,163.879,166.853,166.982v18.554h12.347v-18.554
		c90.311-3.103,163.879-76.089,166.982-166.917h18.554v-12.347h-18.554V185.406z M185.406,30.901v37.107
		c-63.03,3.685-113.778,54.368-117.463,117.463H30.901C34.004,101.947,101.947,34.004,185.406,30.901z M184.824,351.741
		c-82.812-2.457-150.82-70.465-153.923-153.923h37.107c3.103,63.03,53.786,113.778,116.816,116.816V351.741z M185.406,271.968
		v30.319c-56.242-3.103-101.366-48.226-105.115-104.469h30.901v-12.347H80.291c3.103-56.242,48.226-101.366,105.115-104.469v30.319
		h12.347V81.002c56.242,3.103,101.366,48.226,104.469,104.469h-30.319v12.347h30.319c-3.103,56.242-48.226,101.366-104.469,104.469
		v-30.319H185.406z M197.818,352.323v-37.107c63.03-3.103,113.778-53.786,116.816-116.816h37.107
		C349.22,281.277,281.277,349.22,197.818,352.323z M315.281,185.406c-3.685-63.03-54.368-113.778-117.463-116.816V30.901
		c83.459,3.103,151.467,71.111,154.57,154.57h-37.107V185.406L315.281,185.406z"/>
	
		<rect x="233.521" y="233.735" transform="matrix(0.7071 0.7072 -0.7072 0.7071 239.8704 -99.2226)" style="fill:#193651;" width="12.348" height="12.348"/>
	
		<rect x="137.31" y="137.13" transform="matrix(0.707 0.7072 -0.7072 0.707 143.3853 -59.4856)" style="fill:#193651;" width="12.347" height="12.347"/>
	
		<rect x="137.133" y="233.535" transform="matrix(0.7071 0.7071 -0.7071 0.7071 211.4729 -31.1242)" style="fill:#193651;" width="12.347" height="12.347"/>
	
		<rect x="233.742" y="137.385" transform="matrix(-0.7071 -0.7071 0.7071 -0.7071 308.0505 414.7157)" style="fill:#193651;" width="12.347" height="12.347"/>
	<path style="fill:#193651;" d="M191.677,186.699c-6.788,0-12.347-5.56-12.347-12.347c0-6.788,5.56-12.347,12.347-12.347
		c6.788,0,12.347,5.56,12.347,12.347h12.347c0-11.507-7.952-21.204-18.618-23.984v-9.438h-12.347v9.438
		c-10.602,2.78-18.618,12.412-18.618,23.919c0,13.64,11.184,24.76,24.76,24.76c6.788,0,12.347,5.56,12.347,12.347
		c0,6.788-5.56,12.347-12.347,12.347c-6.788,0-12.347-5.56-12.347-12.347h-12.347c0,11.507,7.952,21.204,18.554,23.984v6.917h12.347
		v-6.917c10.667-2.715,18.683-12.412,18.683-23.919C216.436,197.818,205.253,186.699,191.677,186.699z"/>
</g>
<g>
</g>
<g>
</g>
<g>
</g>
<g>
</g>
<g>
</g>
<g>
</g>
<g>
</g>
<g>
</g>
<g>
</g>
<g>
</g>
<g>
</g>
<g>
</g>
<g>
</g>
<g>
</g>
<g>
</g>
</svg>
