<?xml version="1.0" encoding="iso-8859-1"?>
<!-- Generator: Adobe Illustrator 19.0.0, SVG Export Plug-In . SVG Version: 6.00 Build 0)  -->
<svg version="1.1" id="Layer_1" xmlns="http://www.w3.org/2000/svg" xmlns:xlink="http://www.w3.org/1999/xlink" x="0px" y="0px"
	 viewBox="0 0 395.636 395.636" style="enable-background:new 0 0 395.636 395.636;" xml:space="preserve">
<circle style="fill:#FDBF5E;" cx="197.818" cy="197.818" r="197.818"/>
<path style="fill:#FFFFFF;" d="M326.4,191.354c-18.554,0-34.004,15.451-34.004,34.004v18.166l-132.913-18.812v-59.345
	c0-42.02-34.004-76.671-76.671-76.671S6.206,122.699,6.206,165.366v141.576h153.277h200.921v-81.584
	C360.404,206.804,344.954,191.354,326.4,191.354z"/>
<path style="fill:#2EA2DB;" d="M82.812,113.778c-28.444,0-51.911,23.467-51.911,51.911v116.17v0.646h103.822V165.689
	C134.788,137.244,111.257,113.778,82.812,113.778z"/>
<circle style="fill:#FFFFFF;" cx="82.812" cy="166.271" r="27.216"/>
<path style="fill:#193651;" d="M365.317,192.905l-200.921-43.248c-7.434-38.335-40.792-67.362-81.002-67.362
	C37.107,82.812,0,119.919,0,165.689v147.717h366.61v-87.79c0-7.434-4.331-20.428-4.331-20.428
	c11.766,2.457,21.01,13.576,21.01,25.341h12.347C395.636,212.687,382.642,196.59,365.317,192.905z M304.162,192.259
	c-10.537,7.434-17.325,19.135-17.325,32.776v11.119l-121.147-17.325c0,0,0-55.661,0-56.889L304.162,192.259z M354.198,300.412
	H12.347V165.689c0-38.917,31.547-70.465,70.465-70.465c32.129,0,59.992,22.238,68.008,51.911l-59.992-12.994l0,0
	c-2.457-0.646-4.913-1.228-8.016-1.228c-18.554,0-33.358,14.869-33.358,33.358s14.869,33.358,33.358,33.358
	s33.358-14.869,33.358-33.358c0-5.56-1.228-10.537-3.685-14.804l40.792,8.663c0,1.875,0,69.883,0,69.883l200.921,29.026V300.412z
	 M103.822,166.271c0,11.766-9.244,21.01-21.01,21.01s-21.01-9.244-21.01-21.01c0-11.766,9.244-21.01,21.01-21.01
	S103.822,154.57,103.822,166.271z M354.198,246.044l-55.661-8.016v-12.994c0-15.451,12.347-27.798,27.798-27.798
	c1.228,0,8.016,1.228,8.016,1.228c11.119,3.685,19.782,13.576,19.782,26.57v21.01H354.198z"/>
<circle style="fill:#F16051;" cx="326.4" cy="222.578" r="12.347"/>
<g>
	<rect x="49.455" y="250.958" style="fill:#193651;" width="12.347" height="12.347"/>
	<rect x="76.671" y="250.958" style="fill:#193651;" width="12.347" height="12.347"/>
	<rect x="103.822" y="250.958" style="fill:#193651;" width="12.347" height="12.347"/>
</g>
<g>
</g>
<g>
</g>
<g>
</g>
<g>
</g>
<g>
</g>
<g>
</g>
<g>
</g>
<g>
</g>
<g>
</g>
<g>
</g>
<g>
</g>
<g>
</g>
<g>
</g>
<g>
</g>
<g>
</g>
</svg>
