<?xml version="1.0" encoding="iso-8859-1"?>
<!-- Generator: Adobe Illustrator 19.0.0, SVG Export Plug-In . SVG Version: 6.00 Build 0)  -->
<svg version="1.1" id="Layer_1" xmlns="http://www.w3.org/2000/svg" xmlns:xlink="http://www.w3.org/1999/xlink" x="0px" y="0px"
	 viewBox="0 0 395.636 395.636" style="enable-background:new 0 0 395.636 395.636;" xml:space="preserve">
<rect x="6.206" y="61.802" style="fill:#FFFFFF;" width="383.289" height="327.628"/>
<rect x="30.901" y="198.465" style="fill:#FDBF5E;" width="333.834" height="166.271"/>
<rect x="30.901" y="86.562" style="fill:#D3D7DA;" width="333.834" height="111.903"/>
<g>
	<polyline style="fill:#FFFFFF;" points="90.246,227.491 90.246,169.374 123.022,169.374 123.022,227.491 	"/>
	<polyline style="fill:#FFFFFF;" points="272.614,227.491 272.614,169.374 305.39,169.374 305.39,227.491 	"/>
</g>
<g>
	<path style="fill:#193651;" d="M273.261,54.432V0H122.376v54.432H0v341.204h395.636V54.432H273.261z M134.788,12.347h125.479v42.02
		H134.788V12.347z M383.289,383.289H12.347V204.606H84.04v22.885h12.347V175.58h20.428v51.911h12.347v-22.885h137.244v22.885h12.347
		V175.58h20.428v51.911h12.347v-22.885h71.693v178.683H383.289z M383.289,192.259h-71.693v-29.026h-45.123v29.026H129.228v-29.026
		H84.04v29.026H12.347V68.008h370.941L383.289,192.259L383.289,192.259z"/>
	<rect x="158.901" y="124.251" style="fill:#193651;" width="12.347" height="12.347"/>
	<rect x="191.612" y="124.251" style="fill:#193651;" width="12.347" height="12.347"/>
	<rect x="224.388" y="124.251" style="fill:#193651;" width="12.347" height="12.347"/>
</g>
<g>
</g>
<g>
</g>
<g>
</g>
<g>
</g>
<g>
</g>
<g>
</g>
<g>
</g>
<g>
</g>
<g>
</g>
<g>
</g>
<g>
</g>
<g>
</g>
<g>
</g>
<g>
</g>
<g>
</g>
</svg>
