<?xml version="1.0" encoding="iso-8859-1"?>
<!-- Generator: Adobe Illustrator 19.0.0, SVG Export Plug-In . SVG Version: 6.00 Build 0)  -->
<svg version="1.1" id="Layer_1" xmlns="http://www.w3.org/2000/svg" xmlns:xlink="http://www.w3.org/1999/xlink" x="0px" y="0px"
	 viewBox="0 0 395.636 395.636" style="enable-background:new 0 0 395.636 395.636;" xml:space="preserve">
<circle style="fill:#2EA2DB;" cx="197.818" cy="197.818" r="197.818"/>
<g>
	<path style="fill:#FFFFFF;" d="M388.202,325.754l-3.103,59.345l-59.345,3.103L172.347,234.796
		c27.992-11.895,50.36-34.263,62.319-62.19l19.394,19.717l-4.331,29.673l42.02,7.434l9.891,43.895l49.455,15.451l-4.978,29.673
		L388.202,325.754z"/>
	<circle style="fill:#FFFFFF;" cx="126.125" cy="126.125" r="118.044"/>
</g>
<path style="fill:#193651;" d="M352.97,313.406l4.913-29.026l-51.265-15.45l-9.244-44.541l-40.792-7.434l4.331-26.57l-19.846-20.364
	c5.56-13.576,8.016-28.444,8.016-44.541c0-68.59-55.661-124.251-124.251-124.251S0.646,56.889,0.646,125.479
	s55.596,124.25,124.251,124.25c16.097,0,31.547-3.103,45.77-8.663l0,0l152.695,152.695l68.008-3.103l3.103-70.465L352.97,313.406z
	 M12.994,126.125c0-61.802,50.101-111.903,111.903-111.903S236.8,64.323,236.8,126.125s-50.101,111.903-111.903,111.903
	S12.994,187.927,12.994,126.125z M183.014,236.154c5.56-3.103,11.119-6.788,16.679-10.537l155.152,154.57l-25.988,1.228
	L183.014,236.154z M379.539,379.539h-8.663L208.937,217.6c11.119-9.891,20.428-22.238,27.216-35.232l11.766,11.766l-4.913,32.776
	l44.541,8.016l9.244,43.249l47.58,14.869l-4.913,30.319l42.667,7.434L379.539,379.539z"/>
<path style="fill:#FDBF5E;" d="M126.125,33.681c-51.071,0-92.444,41.374-92.444,92.444s41.374,92.444,92.444,92.444
	c51.006,0,92.444-41.374,92.444-92.444C218.505,75.055,177.131,33.681,126.125,33.681z M94.836,112.162
	c-10.925,0-19.846-8.857-19.846-19.846s8.857-19.846,19.846-19.846s19.846,8.857,19.846,19.846S105.762,112.162,94.836,112.162z"/>
<g>
	
		<rect x="134.968" y="177.447" transform="matrix(0.7071 0.7072 -0.7072 0.7071 171.2903 -46.2473)" style="fill:#193651;" width="12.995" height="12.348"/>
	
		<rect x="156.307" y="156.622" transform="matrix(0.7071 0.7071 -0.7071 0.7071 162.7982 -67.4381)" style="fill:#193651;" width="12.994" height="12.347"/>
	
		<rect x="177.583" y="135.05" transform="matrix(-0.7072 0.707 -0.707 -0.7072 413.7857 111.7315)" style="fill:#193651;" width="12.347" height="12.994"/>
</g>
<g>
</g>
<g>
</g>
<g>
</g>
<g>
</g>
<g>
</g>
<g>
</g>
<g>
</g>
<g>
</g>
<g>
</g>
<g>
</g>
<g>
</g>
<g>
</g>
<g>
</g>
<g>
</g>
<g>
</g>
</svg>
