<?xml version="1.0" encoding="iso-8859-1"?>
<!-- Generator: Adobe Illustrator 19.0.0, SVG Export Plug-In . SVG Version: 6.00 Build 0)  -->
<svg version="1.1" id="Layer_1" xmlns="http://www.w3.org/2000/svg" xmlns:xlink="http://www.w3.org/1999/xlink" x="0px" y="0px"
	 viewBox="0 0 395.701 395.701" style="enable-background:new 0 0 395.701 395.701;" xml:space="preserve">
<g>
	<rect x="6.238" y="42.02" style="fill:#FFFFFF;" width="29.091" height="312.178"/>
	<polygon style="fill:#FFFFFF;" points="389.463,42.02 389.463,354.198 130.489,354.198 130.489,42.02 161.39,42.02 161.39,6.206 
		357.98,6.206 357.98,42.02 	"/>
</g>
<rect id="SVGCleanerId_0" x="161.39" y="292.396" style="fill:#2EA2DB;" width="48.226" height="34.586"/>
<rect id="SVGCleanerId_1" x="236.186" y="292.396" style="fill:#2EA2DB;" width="48.226" height="34.586"/>
<rect id="SVGCleanerId_2" x="310.335" y="292.396" style="fill:#2EA2DB;" width="48.226" height="34.586"/>
<rect id="SVGCleanerId_3" x="161.39" y="226.844" style="fill:#2EA2DB;" width="48.226" height="34.586"/>
<rect id="SVGCleanerId_4" x="236.186" y="226.844" style="fill:#2EA2DB;" width="48.226" height="34.586"/>
<rect id="SVGCleanerId_5" x="310.335" y="226.844" style="fill:#2EA2DB;" width="48.226" height="34.586"/>
<rect id="SVGCleanerId_6" x="161.39" y="161.358" style="fill:#2EA2DB;" width="48.226" height="34.651"/>
<rect id="SVGCleanerId_7" x="236.186" y="161.358" style="fill:#2EA2DB;" width="48.226" height="34.651"/>
<rect id="SVGCleanerId_8" x="310.335" y="161.358" style="fill:#2EA2DB;" width="48.226" height="34.651"/>
<rect id="SVGCleanerId_9" x="186.085" y="30.901" style="fill:#E1E6E9;" width="147.135" height="73.568"/>
<path style="fill:#F16051;" d="M111.935,6.206H53.818c-10.537,0-18.554,8.016-18.554,18.554v346.182
	c0,10.537,8.016,18.554,18.554,18.554h58.117c10.537,0,18.554-8.016,18.554-18.554V24.76
	C130.489,14.222,122.408,6.206,111.935,6.206z"/>
<rect id="SVGCleanerId_10" x="76.703" y="129.228" style="fill:#193651;" width="12.347" height="12.347"/>
<rect id="SVGCleanerId_11" x="76.703" y="191.612" style="fill:#193651;" width="12.347" height="12.347"/>
<rect id="SVGCleanerId_12" x="76.703" y="254.061" style="fill:#193651;" width="12.347" height="12.347"/>
<g>
	<rect id="SVGCleanerId_0_1_" x="161.39" y="292.396" style="fill:#2EA2DB;" width="48.226" height="34.586"/>
</g>
<g>
	<rect id="SVGCleanerId_1_1_" x="236.186" y="292.396" style="fill:#2EA2DB;" width="48.226" height="34.586"/>
</g>
<g>
	<rect id="SVGCleanerId_2_1_" x="310.335" y="292.396" style="fill:#2EA2DB;" width="48.226" height="34.586"/>
</g>
<g>
	<rect id="SVGCleanerId_3_1_" x="161.39" y="226.844" style="fill:#2EA2DB;" width="48.226" height="34.586"/>
</g>
<g>
	<rect id="SVGCleanerId_4_1_" x="236.186" y="226.844" style="fill:#2EA2DB;" width="48.226" height="34.586"/>
</g>
<g>
	<rect id="SVGCleanerId_5_1_" x="310.335" y="226.844" style="fill:#2EA2DB;" width="48.226" height="34.586"/>
</g>
<g>
	<rect id="SVGCleanerId_6_1_" x="161.39" y="161.358" style="fill:#2EA2DB;" width="48.226" height="34.651"/>
</g>
<g>
	<rect id="SVGCleanerId_7_1_" x="236.186" y="161.358" style="fill:#2EA2DB;" width="48.226" height="34.651"/>
</g>
<g>
	<rect id="SVGCleanerId_8_1_" x="310.335" y="161.358" style="fill:#2EA2DB;" width="48.226" height="34.651"/>
</g>
<g>
	<rect id="SVGCleanerId_9_1_" x="186.085" y="30.901" style="fill:#E1E6E9;" width="147.135" height="73.568"/>
</g>
<g>
	<rect id="SVGCleanerId_10_1_" x="76.703" y="129.228" style="fill:#193651;" width="12.347" height="12.347"/>
</g>
<g>
	<rect id="SVGCleanerId_11_1_" x="76.703" y="191.612" style="fill:#193651;" width="12.347" height="12.347"/>
</g>
<g>
	<rect id="SVGCleanerId_12_1_" x="76.703" y="254.061" style="fill:#193651;" width="12.347" height="12.347"/>
</g>
<g>
	<rect x="289.972" y="61.22" style="fill:#193651;" width="12.347" height="12.347"/>
	<rect x="254.093" y="61.22" style="fill:#193651;" width="12.347" height="12.347"/>
	<rect x="218.279" y="61.22" style="fill:#193651;" width="12.347" height="12.347"/>
	<path style="fill:#193651;" d="M364.768,35.879V0H155.184v35.879H136.63V24.76c0-13.576-11.119-24.76-24.76-24.76H53.818
		c-13.576,0-24.76,11.119-24.76,24.76v11.119H0.032v324.525h29.026v10.537c0,13.576,11.119,24.76,24.76,24.76h58.117
		c13.576,0,24.76-11.119,24.76-24.76v-10.537h258.974V35.879H364.768z M29.059,348.057H12.38V48.226h16.679V348.057z
		 M124.283,370.941c0,6.788-5.56,12.347-12.347,12.347H53.818c-6.788,0-12.347-5.56-12.347-12.347V24.76
		c0-6.788,5.56-12.347,12.347-12.347h58.117c6.788,0,12.347,5.56,12.347,12.347C124.283,24.76,124.283,370.941,124.283,370.941z
		 M167.531,12.347h184.824v110.675H167.531V12.347z M383.321,348.057H136.63V48.226h18.554v87.143h209.584V48.226h18.554V348.057z"
		/>
</g>
<g>
</g>
<g>
</g>
<g>
</g>
<g>
</g>
<g>
</g>
<g>
</g>
<g>
</g>
<g>
</g>
<g>
</g>
<g>
</g>
<g>
</g>
<g>
</g>
<g>
</g>
<g>
</g>
<g>
</g>
</svg>
