<?xml version="1.0" encoding="iso-8859-1"?>
<!-- Generator: Adobe Illustrator 19.0.0, SVG Export Plug-In . SVG Version: 6.00 Build 0)  -->
<svg version="1.1" id="Layer_1" xmlns="http://www.w3.org/2000/svg" xmlns:xlink="http://www.w3.org/1999/xlink" x="0px" y="0px"
	 viewBox="0 0 395.636 395.636" style="enable-background:new 0 0 395.636 395.636;" xml:space="preserve">
<polygon style="fill:#FFFFFF;" points="305.39,6.206 108.154,6.206 108.154,389.43 389.43,389.43 389.43,90.246 "/>
<polygon style="fill:#4FBF9F;" points="132.913,364.735 132.913,30.901 294.853,30.901 364.735,100.784 364.735,364.735 "/>
<rect x="6.206" y="139.701" style="fill:#FFFFFF;" width="102.012" height="249.729"/>
<path style="fill:#193651;" d="M307.846,0H102.012v133.56H0v262.077h395.636V87.79L307.846,0z M102.012,383.289H12.347V145.907
	h89.665V383.289z M383.289,383.289H114.36V12.347h188.574l80.356,80.356V383.289z"/>
<polygon style="fill:#D3D7DA;" points="295.499,100.137 364.735,100.137 295.499,30.901 "/>
<g>
	<rect x="31.547" y="191.612" style="fill:#193651;" width="51.329" height="12.347"/>
	<rect x="31.547" y="236.154" style="fill:#193651;" width="51.329" height="12.347"/>
	<rect x="31.547" y="280.63" style="fill:#193651;" width="51.329" height="12.347"/>
	<rect x="31.547" y="325.172" style="fill:#193651;" width="51.329" height="12.347"/>
	<rect x="149.592" y="59.345" style="fill:#193651;" width="106.925" height="12.347"/>
	<rect x="149.592" y="236.154" style="fill:#193651;" width="199.046" height="12.347"/>
	<rect x="149.592" y="280.63" style="fill:#193651;" width="199.046" height="12.347"/>
	<rect x="149.592" y="325.172" style="fill:#193651;" width="199.046" height="12.347"/>
</g>
<rect x="155.798" y="131.685" style="fill:#FFFFFF;" width="186.699" height="70.465"/>
<g>
	<path style="fill:#193651;" d="M348.057,208.937H149.592v-83.459h199.046v83.459H348.057z M161.939,196.59h174.352v-58.117H161.939
		V196.59z"/>
	<rect x="193.487" y="161.358" style="fill:#193651;" width="12.347" height="12.347"/>
	<rect x="242.36" y="161.358" style="fill:#193651;" width="12.347" height="12.347"/>
	<rect x="291.168" y="161.358" style="fill:#193651;" width="12.347" height="12.347"/>
</g>
<g>
</g>
<g>
</g>
<g>
</g>
<g>
</g>
<g>
</g>
<g>
</g>
<g>
</g>
<g>
</g>
<g>
</g>
<g>
</g>
<g>
</g>
<g>
</g>
<g>
</g>
<g>
</g>
<g>
</g>
</svg>
