<?xml version="1.0" encoding="iso-8859-1"?>
<!-- Generator: Adobe Illustrator 19.0.0, SVG Export Plug-In . SVG Version: 6.00 Build 0)  -->
<svg version="1.1" id="Layer_1" xmlns="http://www.w3.org/2000/svg" xmlns:xlink="http://www.w3.org/1999/xlink" x="0px" y="0px"
	 viewBox="0 0 395.636 395.636" style="enable-background:new 0 0 395.636 395.636;" xml:space="preserve">
<polygon style="fill:#E1E6E9;" points="291.749,59.927 244.17,59.927 244.17,12.347 "/>
<polygon style="fill:#FFFFFF;" points="389.43,115.588 389.43,305.39 297.956,305.39 297.956,225.034 97.034,225.034 97.034,305.39 
	6.206,305.39 6.206,115.588 "/>
<polygon style="fill:#4FBF9F;" points="364.735,140.347 364.735,280.63 297.956,280.63 297.956,225.034 97.034,225.034 
	97.034,280.63 30.901,280.63 30.901,140.347 "/>
<rect x="97.034" y="225.034" style="fill:#FFFFFF;" width="200.921" height="164.461"/>
<g>
	<rect x="268.929" y="158.255" style="fill:#193651;" width="12.347" height="12.929"/>
	<rect x="301.059" y="158.255" style="fill:#193651;" width="12.347" height="12.929"/>
	<rect x="333.834" y="158.255" style="fill:#193651;" width="12.347" height="12.929"/>
	<path style="fill:#193651;" d="M304.743,109.446V55.014L249.147,0H90.893v109.446H0v202.149h90.893v84.04h213.269v-84.04h91.475
		V109.446H304.743z M103.24,12.347H244.17l47.58,47.58v48.808H103.24V12.347z M292.396,383.289H103.822V231.176h188.574V383.289
		L292.396,383.289z M383.289,299.184h-78.545v-68.008h27.216v-12.347H63.677v12.347h27.216v67.362H12.347V121.794h370.941
		L383.289,299.184L383.289,299.184z"/>
	<rect x="133.818" y="267.055" style="fill:#193651;" width="127.935" height="12.347"/>
	<rect x="133.818" y="301.059" style="fill:#193651;" width="127.935" height="12.347"/>
	<rect x="133.818" y="335.644" style="fill:#193651;" width="127.935" height="12.347"/>
</g>
<g>
</g>
<g>
</g>
<g>
</g>
<g>
</g>
<g>
</g>
<g>
</g>
<g>
</g>
<g>
</g>
<g>
</g>
<g>
</g>
<g>
</g>
<g>
</g>
<g>
</g>
<g>
</g>
<g>
</g>
</svg>
