<?xml version="1.0" encoding="iso-8859-1"?>
<!-- Generator: Adobe Illustrator 19.0.0, SVG Export Plug-In . SVG Version: 6.00 Build 0)  -->
<svg version="1.1" id="Layer_1" xmlns="http://www.w3.org/2000/svg" xmlns:xlink="http://www.w3.org/1999/xlink" x="0px" y="0px"
	 viewBox="0 0 395.636 395.636" style="enable-background:new 0 0 395.636 395.636;" xml:space="preserve">
<circle style="fill:#FDBF5E;" cx="197.818" cy="197.818" r="197.818"/>
<path style="fill:#FFFFFF;" d="M301.059,239.903L198.4,137.244l6.206-6.206L95.224,21.657c-20.428-20.428-53.139-20.428-73.568,0
	s-20.428,53.139,0,73.568l109.446,109.446l6.141-6.141l102.659,102.659L301.059,239.903z"/>
<path style="fill:#2EA2DB;" d="M131.038,169.374L38.917,77.899c-10.537-10.537-10.537-27.798,0-38.917
	c10.537-10.537,27.798-10.537,38.917,0l92.186,92.057L131.038,169.374z"/>
<polygon style="fill:#FFFFFF;" points="353.616,295.499 308.493,268.283 268.283,308.493 295.499,353.616 389.43,389.43 "/>
<g>
	
		<rect x="172.968" y="186.453" transform="matrix(-0.7071 0.7071 -0.7071 -0.7071 465.804 192.3101)" style="fill:#193651;" width="40.21" height="12.347"/>
	
		<rect x="197.75" y="211.186" transform="matrix(-0.7071 0.7071 -0.7071 -0.7071 525.598 217.0101)" style="fill:#193651;" width="40.21" height="12.347"/>
	
		<rect x="222.486" y="235.881" transform="matrix(-0.7071 0.7071 -0.7071 -0.7071 585.2863 241.6754)" style="fill:#193651;" width="40.21" height="12.347"/>
	
		<rect x="306.521" y="306.615" transform="matrix(-0.7072 0.707 -0.707 -0.7072 754.9788 312.918)" style="fill:#193651;" width="12.347" height="12.347"/>
	
		<rect x="328.109" y="328.269" transform="matrix(-0.7071 0.7071 -0.7071 -0.7071 807.1431 334.555)" style="fill:#193651;" width="12.347" height="12.347"/>
</g>
<polyline style="fill:#FDBF5E;" points="262.723,314.053 244.17,295.499 295.499,244.17 314.053,262.723 "/>
<path style="fill:#193651;" d="M394.99,386.974l-35.879-93.996c-0.646-1.228-1.228-2.457-2.457-3.103l-43.895-26.57l5.56-5.56
	l-13.576-13.576l4.913-4.913L207.063,137.244l6.206-6.206L103.822,21.657c6.206-4.331,14.804-3.685,20.428,1.228l78.481,78.481
	c5.56,5.56,12.347,8.016,19.782,8.016s14.222-2.457,19.782-8.016l-8.663-8.663c-6.206,6.206-16.097,6.206-22.238,0l-78.481-78.481
	c-5.56-5.56-12.347-8.016-19.782-8.016c-6.788,0-12.994,2.457-18.554,6.788C84.687,4.331,71.693,0,58.117,0
	C42.667,0,27.798,6.206,17.325,17.325c-22.885,22.885-22.885,59.992,0,82.23l113.713,113.713l6.206-6.206l102.594,102.659
	l4.913-4.978l13.576,13.576l5.56-5.56l26.57,43.895c0.646,1.228,1.875,1.875,3.103,2.457l94.061,35.879
	c0.646,0.646,5.56,0,6.788-1.228C394.99,391.952,396.283,389.43,394.99,386.974z M127.935,192.905L25.988,90.893
	c-17.907-17.907-17.907-46.998,0-64.905c8.663-8.663,19.782-13.576,32.129-13.576s23.467,4.978,32.776,13.576l102.594,102.594
	L127.935,192.905z M239.257,291.814l-93.35-93.35l52.558-52.558l93.35,93.35L239.257,291.814z M299.83,348.638l-26.57-43.249
	c-4.331-5.56-9.891-1.875-10.537,0l-9.244-9.309l42.667-42.667l9.244,9.244c-1.875,0-5.56,6.788,0,10.537l43.248,26.57
	l30.319,79.127L299.83,348.638z"/>
<g>
</g>
<g>
</g>
<g>
</g>
<g>
</g>
<g>
</g>
<g>
</g>
<g>
</g>
<g>
</g>
<g>
</g>
<g>
</g>
<g>
</g>
<g>
</g>
<g>
</g>
<g>
</g>
<g>
</g>
</svg>
