<?xml version="1.0" encoding="iso-8859-1"?>
<!-- Generator: Adobe Illustrator 19.0.0, SVG Export Plug-In . SVG Version: 6.00 Build 0)  -->
<svg version="1.1" id="Layer_1" xmlns="http://www.w3.org/2000/svg" xmlns:xlink="http://www.w3.org/1999/xlink" x="0px" y="0px"
	 viewBox="0 0 395.636 395.636" style="enable-background:new 0 0 395.636 395.636;" xml:space="preserve">
<path style="fill:#FDBF5E;" d="M250.958,257.81c-62.448,0-113.713-50.683-113.713-113.713S188.574,30.966,250.958,30.966
	s113.778,50.683,113.778,113.713S314.053,257.81,250.958,257.81z"/>
<rect x="6.206" y="234.279" style="fill:#FFFFFF;" width="264.598" height="155.152"/>
<g>
	<polygon style="fill:#193651;" points="393.762,291.168 367.192,264.598 340.622,291.168 349.285,299.83 361.051,288.065 
		361.051,383.289 332.606,383.289 332.606,395.636 373.398,395.636 373.398,288.065 385.099,299.83 	"/>
	<polygon style="fill:#193651;" points="55.014,155.152 46.352,145.907 34.586,157.608 34.586,12.347 149.01,12.347 149.01,0 
		22.238,0 22.238,157.608 10.537,145.907 1.875,155.152 28.444,181.721 	"/>
	<path style="fill:#193651;" d="M250.958,0C171.83,0,106.925,64.905,106.925,144.679c0,31.547,9.891,60.574,27.216,84.105L0,228.137
		v167.499h276.945V286.19c67.362-12.348,118.691-71.046,118.691-142.158C395.636,64.905,330.731,0,250.958,0z M383.289,138.473
		h-57.471c-1.228-53.139-16.679-97.681-38.335-121.147C340.622,32.776,380.186,80.356,383.289,138.473z M312.824,138.473h-55.661
		V12.994C287.483,19.782,311.596,73.568,312.824,138.473z M244.816,12.994v124.897h-55.661
		C191.03,73.568,215.143,19.782,244.816,12.994z M244.816,150.82v77.899h-40.792c-8.663-21.657-13.576-48.808-14.804-77.899H244.816
		z M215.143,17.325c-22.238,23.467-37.107,68.008-38.335,120.566h-57.471C122.376,80.356,161.939,32.776,215.143,17.325z
		 M119.337,150.82h57.471c0.646,29.026,5.56,55.661,13.576,77.899h-40.792C132.267,207.063,121.147,179.911,119.337,150.82z
		 M264.598,383.289H12.347V240.485h252.186v142.804H264.598z M276.945,264.598v-35.879H257.81V150.82h55.661
		c-1.228,48.226-14.869,90.246-34.586,111.903L276.945,264.598z M286.836,271.386c22.238-23.467,37.107-68.008,38.335-120.566
		h57.471C380.186,208.356,340.622,255.935,286.836,271.386z"/>
</g>
<path style="fill:#4FBF9F;" d="M30.901,339.976v-56.242c13.576,0,24.76-11.119,24.76-24.76h165.689
	c0,13.576,11.119,24.76,24.76,24.76v56.242c-13.576,0-24.76,11.119-24.76,24.76H55.661
	C55.661,351.095,44.477,339.976,30.901,339.976z"/>
<circle style="fill:#FFFFFF;" cx="138.473" cy="312.178" r="37.107"/>
<g>
	<rect x="204.606" y="305.972" style="fill:#193651;" width="12.347" height="12.347"/>
	<rect x="59.992" y="305.972" style="fill:#193651;" width="12.347" height="12.347"/>
</g>
<g>
</g>
<g>
</g>
<g>
</g>
<g>
</g>
<g>
</g>
<g>
</g>
<g>
</g>
<g>
</g>
<g>
</g>
<g>
</g>
<g>
</g>
<g>
</g>
<g>
</g>
<g>
</g>
<g>
</g>
</svg>
