<?xml version="1.0" encoding="iso-8859-1"?>
<!-- Generator: Adobe Illustrator 19.0.0, SVG Export Plug-In . SVG Version: 6.00 Build 0)  -->
<svg version="1.1" id="Layer_1" xmlns="http://www.w3.org/2000/svg" xmlns:xlink="http://www.w3.org/1999/xlink" x="0px" y="0px"
	 viewBox="0 0 398.028 398.028" style="enable-background:new 0 0 398.028 398.028;" xml:space="preserve">
<circle style="fill:#2EA2DB;" cx="199.111" cy="199.014" r="197.818"/>
<path style="fill:#FFFFFF;" d="M7.499,124.865l191.612,252.186l0,0l191.612-252.186l0,0L7.499,124.865L7.499,124.865z"/>
<path style="fill:#193651;" d="M199.111,383.257h-3.103l-1.875-2.457L0,126.093l3.685-7.434H7.37h386.974l3.685,6.788l-2.457,3.103
	L202.214,383.257H199.111z M19.846,131.006l179.265,235.507l179.265-235.507H19.846z"/>
<polygon style="fill:#E1E6E9;" points="200.986,50.65 271.45,124.865 275.782,124.865 336.356,50.65 "/>
<g>
	<path style="fill:#FFFFFF;" d="M390.723,124.865L336.937,50.65l0,0l0,0l-60.574,74.214H390.723L390.723,124.865z"/>
	<path style="fill:#FFFFFF;" d="M61.285,50.65L61.285,50.65L7.499,124.865l0,0h116.234L63.095,50.65H61.285z"/>
</g>
<polygon style="fill:#E1E6E9;" points="63.095,50.65 123.669,124.865 128,124.865 197.883,50.65 "/>
<g>
	<polygon style="fill:#FFFFFF;" points="197.883,50.65 128,124.865 271.45,124.865 200.986,50.65 	"/>
	<polygon style="fill:#FFFFFF;" points="275.782,124.865 122.44,124.865 7.499,124.865 199.111,377.051 390.723,124.865 	"/>
</g>
<g>
	<rect x="192.905" y="171.216" style="fill:#193651;" width="11.766" height="12.347"/>
	<rect x="192.905" y="200.242" style="fill:#193651;" width="11.766" height="12.347"/>
	<rect x="192.905" y="229.915" style="fill:#193651;" width="11.766" height="12.347"/>
	<path style="fill:#193651;" d="M396.283,122.343c0-0.646-0.646-0.646-0.646-0.646l0,0L340.04,44.444H59.992L2.521,121.115l0,0
		c0,0-0.646,0.646-0.646,1.228c-1.228,1.875-0.646,4.913,0.646,6.788l191.612,252.186l0,0l0,0l0,0
		c0.646,0.646,1.228,1.228,1.875,1.228l0,0c0,0,0.646,0,1.228,0.646l0,0l0,0c0.646,0,0.646,0,1.228,0l0,0l0,0l0,0l0,0l0,0l0,0l0,0
		h0.646h0.646c0.646,0,0.646,0,1.228,0l0,0c0,0,0,0,0.646,0s0.646-0.646,0.646-0.646c0.646,0,0.646-0.646,1.228-0.646l0,0l0,0l0,0
		l191.612-252.251C396.929,126.675,397.576,124.218,396.283,122.343z M19.846,131.006h97.681l65.552,214.497L19.846,131.006z
		 M199.111,356.04l-68.59-225.034h137.244L199.111,356.04z M215.208,346.149l65.552-215.143h97.681L215.208,346.149z
		 M19.846,118.659l46.352-61.802h267.701l44.541,61.802H19.846z"/>
</g>
<g>
	<polygon style="fill:#E1E6E9;" points="54.432,147.103 103.305,147.103 136.081,255.257 	"/>
	<polygon style="fill:#E1E6E9;" points="294.917,147.103 343.79,147.103 262.141,255.257 	"/>
</g>
<g>
</g>
<g>
</g>
<g>
</g>
<g>
</g>
<g>
</g>
<g>
</g>
<g>
</g>
<g>
</g>
<g>
</g>
<g>
</g>
<g>
</g>
<g>
</g>
<g>
</g>
<g>
</g>
<g>
</g>
</svg>
