<?xml version="1.0" encoding="iso-8859-1"?>
<!-- Generator: Adobe Illustrator 19.0.0, SVG Export Plug-In . SVG Version: 6.00 Build 0)  -->
<svg version="1.1" id="Layer_1" xmlns="http://www.w3.org/2000/svg" xmlns:xlink="http://www.w3.org/1999/xlink" x="0px" y="0px"
	 viewBox="0 0 395.656 395.656" style="enable-background:new 0 0 395.656 395.656;" xml:space="preserve">
<g>
	<rect id="SVGCleanerId_0" x="129.228" y="170.531" style="fill:#4FBF9F;" width="137.244" height="124.25"/>
</g>
<path style="fill:#FFFFFF;" d="M247.919,294.782v-78.481c-14.869,0-27.216-11.766-27.216-27.216h-46.998
	c0,14.804-11.766,27.216-27.216,27.216v78.481L247.919,294.782L247.919,294.782z"/>
<circle style="fill:#193651;" cx="197.818" cy="225.545" r="8.663"/>
<rect id="SVGCleanerId_1" x="159.483" y="352.317" style="fill:#193651;" width="12.347" height="12.347"/>
<rect id="SVGCleanerId_2" x="191.612" y="352.317" style="fill:#193651;" width="12.347" height="12.347"/>
<rect id="SVGCleanerId_3" x="223.806" y="352.317" style="fill:#193651;" width="12.347" height="12.347"/>
<rect id="SVGCleanerId_4" x="6.206" y="33.287" style="fill:#FDBF5E;" width="59.992" height="135.37"/>
<g>
	<path style="fill:#FFFFFF;" d="M387.62,109.764c-4.978,9.891-16.679,14.869-27.216,11.119L258.909,87.202
		c4.267,4.073,6.917,9.826,6.917,16.356c0,12.347-10.537,22.885-23.467,22.885h-64.259c-3.103,0-6.206,0.646-8.663,1.228
		L128,149.327c-3.103,1.228-6.206,1.875-9.244,1.875H66.198V45.505h23.467L208.356,7.17c9.891-3.103,20.364-2.457,29.673,2.457
		l139.701,72.339C388.202,87.525,392.533,99.873,387.62,109.764z"/>
	<polygon style="fill:#FFFFFF;" points="389.43,253.408 389.43,389.36 6.206,389.36 6.206,253.408 129.228,253.408 129.228,294.782 
		266.408,294.782 266.408,253.408 	"/>
</g>
<polygon style="fill:#193651;" points="395.636,247.202 395.636,395.566 0,395.566 0,247.202 129.228,247.202 129.228,259.549 
	12.347,259.549 12.347,383.218 383.289,383.218 383.289,259.549 266.408,259.549 266.408,247.202 "/>
<g>
	<rect id="SVGCleanerId_0_1_" x="129.228" y="170.531" style="fill:#4FBF9F;" width="137.244" height="124.25"/>
</g>
<g>
	<rect id="SVGCleanerId_0_2_" x="129.228" y="170.531" style="fill:#4FBF9F;" width="137.244" height="124.25"/>
</g>
<path style="fill:#FFFFFF;" d="M247.919,294.782v-78.481c-14.869,0-27.216-11.766-27.216-27.216h-46.998
	c0,14.804-11.766,27.216-27.216,27.216v78.481L247.919,294.782L247.919,294.782z"/>
<circle style="fill:#193651;" cx="197.818" cy="225.545" r="8.663"/>
<g>
	<rect id="SVGCleanerId_1_1_" x="159.483" y="352.317" style="fill:#193651;" width="12.347" height="12.347"/>
</g>
<g>
	<rect id="SVGCleanerId_2_1_" x="191.612" y="352.317" style="fill:#193651;" width="12.347" height="12.347"/>
</g>
<g>
	<rect id="SVGCleanerId_3_1_" x="223.806" y="352.317" style="fill:#193651;" width="12.347" height="12.347"/>
</g>
<g>
	<rect id="SVGCleanerId_4_1_" x="6.206" y="33.287" style="fill:#FDBF5E;" width="59.992" height="135.37"/>
</g>
<g>
	<rect x="29.673" y="129.739" style="fill:#193651;" width="12.994" height="12.347"/>
	<rect x="29.673" y="95.153" style="fill:#193651;" width="12.994" height="12.347"/>
	<rect x="29.673" y="60.503" style="fill:#193651;" width="12.994" height="12.347"/>
	<path style="fill:#193651;" d="M380.768,76.6L240.485,4.907c-10.537-5.56-22.885-6.206-34.004-2.457L88.436,40.139H72.339V27.145H0
		v147.717h72.339v-16.679h46.352c3.685,0,8.016-0.646,11.766-1.875l42.02-21.657c1.875-0.646,4.331-1.228,6.206-1.228h64.323
		c16.097,0,29.673-12.994,29.673-29.026c0-2.457,0-4.331-0.646-6.788l86.497,29.026c13.576,4.978,28.444-1.228,34.586-14.222
		C399.321,99.485,393.762,83.97,380.768,76.6z M59.992,40.139v118.044v4.978H12.347V39.493h47.58v0.646H59.992z M382.061,107.501
		c-3.685,7.434-11.766,10.537-19.782,8.016L260.267,81.513c-4.978-3.103-10.537-5.56-17.325-5.56h-53.139
		c-6.206,0-11.119-4.913-11.119-11.119h-12.347c0,12.994,10.537,23.467,23.467,23.467h53.786c9.244,0,16.679,7.499,16.679,16.679
		l0,0c0,9.244-7.499,16.679-16.679,16.679h-64.905c-3.685,0-7.434,0.646-10.537,1.875l-42.02,21.657
		c-2.457,0.646-4.913,1.228-6.788,1.228H72.986V52.487h17.325l119.855-38.335c8.016-2.457,17.325-1.875,24.76,1.875l139.701,72.339
		C382.061,91.404,385.099,100.713,382.061,107.501z"/>
	<path style="fill:#193651;" d="M228.331,288.64c-1.293-15.515-14.352-27.798-30.19-27.798s-28.897,12.283-30.19,27.798h-76.8
		v12.347h213.333V288.64H228.331z M180.816,288.64c1.228-8.663,8.663-14.869,17.907-14.869c8.663,0,16.097,6.206,17.325,14.869
		H180.816z"/>
</g>
<g>
</g>
<g>
</g>
<g>
</g>
<g>
</g>
<g>
</g>
<g>
</g>
<g>
</g>
<g>
</g>
<g>
</g>
<g>
</g>
<g>
</g>
<g>
</g>
<g>
</g>
<g>
</g>
<g>
</g>
</svg>
