<?xml version="1.0" encoding="iso-8859-1"?>
<!-- Generator: Adobe Illustrator 19.0.0, SVG Export Plug-In . SVG Version: 6.00 Build 0)  -->
<svg version="1.1" id="Layer_1" xmlns="http://www.w3.org/2000/svg" xmlns:xlink="http://www.w3.org/1999/xlink" x="0px" y="0px"
	 viewBox="0 0 395.572 395.572" style="enable-background:new 0 0 395.572 395.572;" xml:space="preserve">
<path style="fill:#FFFFFF;" d="M274.352,321.487v30.901H7.879V17.907c0-6.206,5.56-11.766,11.766-11.766h242.941
	c6.788,0,11.766,4.978,11.766,11.766v56.242"/>
<g>
	<path style="fill:#E1E6E9;" d="M262.586,6.206H19.645c-6.206,0-11.766,4.978-11.766,11.766v36.461h266.408V17.972
		C274.352,11.766,269.374,6.206,262.586,6.206z"/>
	<path style="fill:#E1E6E9;" d="M7.879,333.834v43.895c0,6.206,4.913,11.766,11.766,11.766h242.941
		c6.206,0,11.766-4.913,11.766-11.766v-43.895H7.879z"/>
</g>
<g>
	<path style="fill:#193651;" d="M280.493,321.487h-12.347v56.242c0,3.103-2.457,5.56-5.56,5.56H19.645
		c-3.103,0-5.56-2.457-5.56-5.56V17.907c0-3.103,2.457-5.56,5.56-5.56h242.941c3.103,0,5.56,2.457,5.56,5.56v56.242h12.347V17.907
		C280.493,8.016,272.477,0,262.586,0H19.645C9.754,0,1.737,8.016,1.737,17.907v359.758c0,9.891,8.016,17.907,17.907,17.907h242.941
		c9.891,0,17.907-8.016,17.907-17.907V321.487z"/>
	<rect x="111.766" y="355.426" style="fill:#193651;" width="58.117" height="12.347"/>
	<rect x="125.342" y="25.988" style="fill:#193651;" width="31.547" height="12.347"/>
</g>
<path style="fill:#FFFFFF;" d="M267.564,195.362l32.129-95.224c-52.558-17.325-110.028,11.119-127.354,63.677
	c-17.907,52.558,10.537,109.446,63.03,127.354s110.028-11.119,127.354-63.677c0-0.646,0.646-1.228,0.646-1.875L267.564,195.362z"/>
<path style="fill:#FDBF5E;" d="M221.148,181.139c-8.663,25.341,5.56,53.139,30.901,61.22c25.341,8.663,53.139-5.56,61.22-30.901
	c0-0.646,0.646-1.875,0.646-2.457l-46.352-14.222l14.869-44.541C257.026,142.158,229.228,155.798,221.148,181.139z"/>
<path style="fill:#193651;" d="M275.58,191.612l31.547-95.224c-12.994-4.913-26.57-7.434-39.564-7.434
	c-45.77,0-86.562,29.026-101.366,72.921c-21.01,60.574,18.554,138.473,101.366,140.929l0,0c45.77,0,86.562-29.026,101.366-72.921
	l2.457-8.016L275.58,191.612z M267.564,289.939c-64.905-0.646-109.446-60.574-89.665-124.251
	c12.994-38.917,48.808-64.905,89.665-64.905c8.016,0,16.097,1.228,24.113,3.103l-32.129,95.806l95.806,29.673
	C341.713,265.826,307.127,289.939,267.564,289.939z"/>
<path style="fill:#F16051;" d="M383.152,137.826c-11.766-22.885-31.547-41.438-58.117-50.683l-32.129,95.224l96.388,30.319
	C397.374,186.699,394.271,160.129,383.152,137.826z"/>
<g>
</g>
<g>
</g>
<g>
</g>
<g>
</g>
<g>
</g>
<g>
</g>
<g>
</g>
<g>
</g>
<g>
</g>
<g>
</g>
<g>
</g>
<g>
</g>
<g>
</g>
<g>
</g>
<g>
</g>
</svg>
