<?xml version="1.0" encoding="iso-8859-1"?>
<!-- Generator: Adobe Illustrator 19.0.0, SVG Export Plug-In . SVG Version: 6.00 Build 0)  -->
<svg version="1.1" id="Layer_1" xmlns="http://www.w3.org/2000/svg" xmlns:xlink="http://www.w3.org/1999/xlink" x="0px" y="0px"
	 viewBox="0 0 395.668 395.668" style="enable-background:new 0 0 395.668 395.668;" xml:space="preserve">
<path style="fill:#FFFFFF;" d="M387.297,285.236c-3.556-7.37-10.99-11.96-19.523-11.96c-2.457,0-4.913,0.388-7.24,1.099
	l-98.78,33.164l4.137-12.283c0.259-0.84,0.259-3.103,0.259-4.719c0-12.671-10.214-22.626-23.208-22.626h-64.259
	c-3.103,0-6.465-0.97-8.21-1.552l-0.453-0.129l-42.731-21.721l-0.194-0.194c-2.651-0.776-5.301-1.099-8.339-1.099H65.939v-0.129
	h-0.065v105.632h0.065v-0.388h23.531l118.95,38.594c3.62,1.034,8.145,2.198,11.701,2.198c5.689,0,12.024-1.552,17.455-4.267
	l139.766-72.339C387.685,307.41,392.016,295.644,387.297,285.236z"/>
<rect x="6.206" y="226.279" style="fill:#FDBF5E;" width="59.992" height="135.37"/>
<g>
	<rect x="29.673" y="253.495" style="fill:#193651;" width="12.994" height="12.347"/>
	<rect x="29.673" y="288.081" style="fill:#193651;" width="12.994" height="12.347"/>
	<rect x="29.673" y="322.731" style="fill:#193651;" width="12.994" height="12.347"/>
</g>
<rect x="113.131" y="61.236" style="fill:#D3D7DA;" width="169.374" height="127.354"/>
<g>
	<rect x="161.939" y="58.715" style="fill:#193651;" width="12.347" height="12.347"/>
	<rect x="191.612" y="58.715" style="fill:#193651;" width="12.347" height="12.347"/>
	<rect x="221.285" y="58.715" style="fill:#193651;" width="12.347" height="12.347"/>
	<rect x="364.735" y="85.931" style="fill:#193651;" width="12.347" height="12.347"/>
	<rect x="364.735" y="48.824" style="fill:#193651;" width="12.347" height="12.347"/>
	<rect x="364.735" y="122.392" style="fill:#193651;" width="12.347" height="12.347"/>
	<rect x="364.735" y="159.499" style="fill:#193651;" width="12.347" height="12.347"/>
	<rect x="18.554" y="85.931" style="fill:#193651;" width="12.347" height="12.347"/>
	<rect x="18.554" y="48.824" style="fill:#193651;" width="12.347" height="12.347"/>
	<rect x="18.554" y="122.392" style="fill:#193651;" width="12.347" height="12.347"/>
	<rect x="18.554" y="159.499" style="fill:#193651;" width="12.347" height="12.347"/>
</g>
<circle style="fill:#FFFFFF;" cx="199.111" cy="160.856" r="18.36"/>
<g>
	<path style="fill:#193651;" d="M241.067,29.042V0.016H154.57v29.026H82.23v189.802h231.176V29.042H241.067z M166.917,12.364h61.802
		v16.679h-61.802V12.364z M93.931,42.683h206.481v68.008h0.646c-24.76,7.434-52.558,11.766-81.002,13.576v-26.57h-45.123v26.57
		c-28.444-1.875-55.661-6.206-79.774-13.576h-1.228L93.931,42.683L93.931,42.683z M302.287,206.497H94.578v-83.459
		c24.76,7.434,52.558,11.766,81.002,12.994v1.875c0,6.465,2.327,12.024,6.659,15.774c1.681-4.008,4.784-7.24,8.598-9.18
		c-1.552-1.745-2.909-3.943-2.909-6.594v-28.444h20.428v28.444c0,2.198-0.97,4.331-2.004,6.077c3.943,1.681,7.111,4.655,9.051,8.404
		c3.814-4.202,5.947-9.374,5.947-15.127v-1.875c28.444-1.875,55.661-6.206,81.002-12.994v84.105H302.287z"/>
	<path style="fill:#193651;" d="M393.18,282.521c-6.206-12.994-21.01-18.554-34.586-14.222l-86.562,29.091
		c0.646-1.875,0.646-4.331,0.646-6.788c0-16.097-12.994-29.026-29.673-29.026h-64.259c-1.875,0-4.331-0.646-6.206-1.228
		l-41.438-21.01l-0.646-0.646c-3.685-1.228-7.434-1.875-11.766-1.875H72.339v-16.679H0v147.717h72.339v-12.994h16.097
		l118.044,38.335c4.331,1.228,9.244,2.457,13.576,2.457c6.788,0,14.222-1.875,20.428-4.913L380.186,318.4
		C393.762,311.612,399.321,296.097,393.18,282.521z M59.992,354.861v1.228H12.347V232.42h47.58v122.44H59.992z M374.626,307.863
		l-139.701,71.693c-7.434,3.685-16.679,4.331-24.76,1.875L91.475,343.095H72.339v-93.931h46.352c2.457,0,4.978,0.646,6.788,1.228
		l41.438,21.01l0.646,0.646c3.685,1.228,6.788,1.875,10.537,1.875h64.905c9.244,0,16.679,7.499,16.679,16.679
		s-7.499,16.679-16.679,16.679H189.22c-12.994,0-23.467,10.537-23.467,23.467h12.347c0-6.206,4.913-11.119,11.119-11.119h53.139
		c6.206,0,12.347-1.875,17.325-5.56l102.012-34.004c7.434-2.457,16.097,0.646,19.782,8.016
		C385.099,294.869,382.061,304.178,374.626,307.863z"/>
</g>
<g>
</g>
<g>
</g>
<g>
</g>
<g>
</g>
<g>
</g>
<g>
</g>
<g>
</g>
<g>
</g>
<g>
</g>
<g>
</g>
<g>
</g>
<g>
</g>
<g>
</g>
<g>
</g>
<g>
</g>
</svg>
