<?xml version="1.0" encoding="iso-8859-1"?>
<!-- Generator: Adobe Illustrator 19.0.0, SVG Export Plug-In . SVG Version: 6.00 Build 0)  -->
<svg version="1.1" id="Layer_1" xmlns="http://www.w3.org/2000/svg" xmlns:xlink="http://www.w3.org/1999/xlink" x="0px" y="0px"
	 viewBox="0 0 396.412 396.412" style="enable-background:new 0 0 396.412 396.412;" xml:space="preserve">
<circle style="fill:#FDBF5E;" cx="197.947" cy="198.206" r="194.715"/>
<path style="fill:#FFFFFF;" d="M48.356,222.966l124.897,124.897c56.242,56.242,147.717,56.242,204.024,0l5.56-5.56
	c9.244-9.244,9.244-23.467,0-32.776l-59.992-59.992c-9.244-9.244-23.467-9.244-32.776,0l-25.341,25.341
	c-11.119,11.119-29.673,11.119-40.792,0L121.923,172.218c-11.119-11.119-11.119-29.673,0-40.792l25.341-25.341
	c9.244-9.244,9.244-23.467,0-32.776L86.691,13.317c-9.244-9.244-23.467-9.244-32.776,0l-5.56,5.56
	C-7.887,75.184-7.887,166.659,48.356,222.966z"/>
<path style="fill:#193651;" d="M275.2,396.024L275.2,396.024c-40.21,0-77.899-15.451-106.343-43.895L44.024,227.232
	c-58.699-58.699-58.699-153.923,0-212.687l5.56-5.56c5.56-5.495,12.994-8.598,21.01-8.598s15.451,3.103,21.01,8.663l59.992,59.992
	c11.766,11.766,11.766,30.319,0,41.438l-25.341,25.341c-8.663,8.663-8.663,23.467,0,32.129l102.012,102.012
	c8.663,8.663,23.467,8.663,32.129,0l25.341-25.341c5.56-5.56,12.994-8.663,21.01-8.663c8.016,0,15.451,3.103,21.01,8.663
	l59.992,59.992c5.56,5.56,8.663,12.994,8.663,21.01c0,8.016-3.103,15.451-8.663,21.01l-5.56,5.56
	C353.099,380.574,315.41,396.024,275.2,396.024z M70.594,12.735c-4.331,0-8.663,1.875-11.766,4.978l-6.206,5.56
	c-53.786,53.786-53.786,140.929,0,194.715l124.897,124.897c26.57,26.57,61.22,40.792,97.681,40.792l0,0
	c37.107,0,71.693-14.222,97.681-40.21l5.56-5.56c3.103-3.103,4.913-7.434,4.913-11.766c0-4.331-1.875-8.663-4.913-11.766
	l-59.927-59.927c-6.206-6.206-17.907-6.206-24.113,0l-25.341,24.113c-6.788,6.788-15.451,10.537-24.76,10.537
	s-17.907-3.685-24.76-10.537L117.592,176.55c-13.576-13.576-13.576-35.879,0-49.455l25.341-25.341
	c6.788-6.788,6.788-17.325,0-24.113L82.941,17.649C79.257,14.61,74.925,12.735,70.594,12.735z"/>
<path style="fill:#4FBF9F;" d="M275.2,365.123c-32.129,0-61.802-12.347-84.687-35.232L65.681,204.994
	c-46.352-46.352-46.352-122.376,0-168.792l4.331-4.331l58.117,58.117l-24.113,24.113c-21.01,21.01-21.01,55.014,0,76.024
	l102.012,102.012c9.891,9.891,23.467,15.451,37.689,15.451c14.222,0,27.798-5.56,37.689-15.451l24.113-24.113l58.117,58.117
	l-4.331,4.331C337.067,352.776,307.394,365.123,275.2,365.123z"/>
<g>
	
		<rect x="94.817" y="207.452" transform="matrix(0.707 0.7073 -0.7073 0.707 180.6831 -8.8248)" style="fill:#193651;" width="12.348" height="12.348"/>
	
		<rect x="135.552" y="248.292" transform="matrix(0.7071 0.7071 -0.7071 0.7071 221.4448 -25.6837)" style="fill:#193651;" width="12.347" height="12.347"/>
	
		<rect x="176.298" y="289.089" transform="matrix(-0.7071 0.7071 -0.7071 -0.7071 520.2804 375.019)" style="fill:#193651;" width="12.347" height="12.347"/>
</g>
<g>
	<path style="fill:#FFFFFF;" d="M285.737,6.594L285.737,6.594c-56.889,0-103.24,46.352-103.24,103.822l0,0
		c0,57.471,46.352,103.822,103.822,103.822l0,0c56.889-0.646,103.24-46.998,103.24-103.822l0,0
		C389.56,52.945,343.208,6.594,285.737,6.594z"/>
	<path style="fill:#FFFFFF;" d="M285.737,6.594L285.737,6.594c-29.673,0-53.139,46.352-53.139,103.822l0,0
		c0,57.471,24.113,103.822,53.139,103.822l0,0c29.673,0,53.139-46.352,53.139-103.822l0,0
		C339.523,52.945,315.41,6.594,285.737,6.594z"/>
</g>
<path style="fill:#193651;" d="M285.737,0.388c-60.574,0-110.028,49.455-110.028,110.028s49.455,110.028,110.028,110.028
	s110.028-50.036,110.028-110.028C395.766,49.842,346.311,0.388,285.737,0.388z M382.772,104.21h-37.689
	c-0.646-36.461-10.537-66.78-25.988-85.333C354.974,31.935,380.315,64.646,382.772,104.21z M332.735,104.21h-40.792V13.964
	C314.182,20.17,331.442,58.505,332.735,104.21z M279.531,13.964v90.246h-40.792C240.614,58.505,257.939,20.17,279.531,13.964z
	 M252.315,18.941c-14.869,18.554-24.76,49.455-25.988,85.333h-37.689C191.16,64.646,217.083,31.935,252.315,18.941z
	 M188.703,116.622h37.689c1.228,35.879,11.119,66.78,25.988,85.333C217.083,188.315,191.16,155.539,188.703,116.622z
	 M238.739,116.622h40.792v90.246C257.939,200.081,240.614,162.327,238.739,116.622z M291.943,206.869v-90.246h40.792
	C331.442,162.327,314.182,200.081,291.943,206.869z M319.095,201.309c14.869-18.554,24.76-49.455,25.988-85.333h37.689
	C380.315,155.539,354.974,188.315,319.095,201.309z"/>
<g>
</g>
<g>
</g>
<g>
</g>
<g>
</g>
<g>
</g>
<g>
</g>
<g>
</g>
<g>
</g>
<g>
</g>
<g>
</g>
<g>
</g>
<g>
</g>
<g>
</g>
<g>
</g>
<g>
</g>
</svg>
