<?xml version="1.0" encoding="iso-8859-1"?>
<!-- Generator: Adobe Illustrator 19.0.0, SVG Export Plug-In . SVG Version: 6.00 Build 0)  -->
<svg version="1.1" id="Layer_1" xmlns="http://www.w3.org/2000/svg" xmlns:xlink="http://www.w3.org/1999/xlink" x="0px" y="0px"
	 viewBox="0 0 395.636 395.636" style="enable-background:new 0 0 395.636 395.636;" xml:space="preserve">
<g>
	<rect x="71.111" y="37.107" style="fill:#193651;" width="204.606" height="12.347"/>
	<rect x="71.111" y="78.481" style="fill:#193651;" width="204.606" height="12.347"/>
</g>
<polygon style="fill:#FDBF5E;" points="395.636,218.828 346.182,389.43 346.182,218.828 "/>
<polygon style="fill:#FFFFFF;" points="333.834,189.156 333.834,383.289 12.347,383.289 12.347,161.939 95.806,161.939 
	115.006,189.156 "/>
<g>
	<polygon style="fill:#193651;" points="41.438,12.347 304.743,12.347 304.743,158.255 317.156,158.255 317.156,0 29.026,0 
		29.026,128.582 41.438,128.582 	"/>
	<path style="fill:#193651;" d="M121.147,176.808l-19.135-27.216H0v246.044h346.182V176.808H121.147z M333.834,383.289H12.347
		v-221.35h83.459l19.135,27.216H333.77v194.133H333.834z"/>
</g>
<polygon style="fill:#FDBF5E;" points="30.901,364.735 30.901,180.493 85.915,180.493 105.697,207.709 315.281,207.709 
	315.281,364.735 "/>
<g>
	<rect x="53.786" y="336.291" style="fill:#193651;" width="10.537" height="12.347"/>
	<rect x="92.121" y="336.291" style="fill:#193651;" width="10.537" height="12.347"/>
	<rect x="129.81" y="336.291" style="fill:#193651;" width="10.537" height="12.347"/>
	<rect x="168.145" y="336.291" style="fill:#193651;" width="10.537" height="12.347"/>
	<rect x="205.834" y="336.291" style="fill:#193651;" width="10.537" height="12.347"/>
	<rect x="244.17" y="336.291" style="fill:#193651;" width="10.537" height="12.347"/>
	<rect x="281.859" y="336.291" style="fill:#193651;" width="10.537" height="12.347"/>
</g>
<g>
</g>
<g>
</g>
<g>
</g>
<g>
</g>
<g>
</g>
<g>
</g>
<g>
</g>
<g>
</g>
<g>
</g>
<g>
</g>
<g>
</g>
<g>
</g>
<g>
</g>
<g>
</g>
<g>
</g>
</svg>
