<?xml version="1.0" encoding="iso-8859-1"?>
<!-- Generator: Adobe Illustrator 19.0.0, SVG Export Plug-In . SVG Version: 6.00 Build 0)  -->
<svg version="1.1" id="Layer_1" xmlns="http://www.w3.org/2000/svg" xmlns:xlink="http://www.w3.org/1999/xlink" x="0px" y="0px"
	 viewBox="0 0 395.636 395.636" style="enable-background:new 0 0 395.636 395.636;" xml:space="preserve">
<g>
	<path style="fill:#193651;" d="M95.224,276.299C38.335,256.517,0,202.731,0,142.158C0,63.677,63.677,0,142.158,0
		c42.02,0,81.002,18.554,108.154,50.101l-9.244,8.016c-24.76-29.026-60.574-45.77-98.909-45.77
		c-71.693,0-129.81,58.117-129.81,129.81c0,55.014,35.232,104.469,87.143,122.376L95.224,276.299z"/>
	<rect x="24.76" y="136.016" style="fill:#193651;" width="12.347" height="12.347"/>
	
		<rect x="80.275" y="232.435" transform="matrix(-0.4999 0.8661 -0.8661 -0.4999 336.3195 283.016)" style="fill:#193651;" width="12.348" height="12.348"/>
	
		<rect x="191.7" y="39.615" transform="matrix(-0.4999 0.8661 -0.8661 -0.4999 336.4458 -102.698)" style="fill:#193651;" width="12.348" height="12.348"/>
	
		<rect x="80.428" y="39.618" transform="matrix(0.5 0.866 -0.866 0.5 82.9562 -52.1028)" style="fill:#193651;" width="12.347" height="12.347"/>
	
		<rect x="39.56" y="191.542" transform="matrix(-0.866 0.5 -0.5 -0.866 184.2001 346.0734)" style="fill:#193651;" width="12.347" height="12.347"/>
	<rect x="136.016" y="24.76" style="fill:#193651;" width="12.347" height="12.347"/>
	
		<rect x="39.593" y="80.324" transform="matrix(0.866 0.5 -0.5 0.866 49.3816 -11.2949)" style="fill:#193651;" width="12.347" height="12.347"/>
</g>
<path style="fill:#FFFFFF;" d="M142.158,126.707L142.158,126.707c-8.663,0-15.451,6.788-15.451,15.451l0,0
	c0,8.663,6.788,15.451,15.451,15.451l0,0c8.663,0,15.451-6.788,15.451-15.451l0,0C157.608,133.56,150.82,126.707,142.158,126.707z"
	/>
<path style="fill:#193651;" d="M148.364,121.147V61.156h-12.347v59.992c-9.244,2.457-15.451,11.119-15.451,21.01
	c0,1.875,0,3.685,0.646,4.913l-71.111,41.438l6.206,10.537l71.111-41.438c3.685,3.685,9.244,6.206,14.804,6.206
	c11.766,0,21.657-9.891,21.657-21.657C163.814,132.267,157.608,124.251,148.364,121.147z M142.158,151.467
	c-4.913,0-9.244-4.331-9.244-9.244c0-4.913,4.331-9.244,9.244-9.244c4.913,0,9.244,4.331,9.244,9.244
	C151.402,147.135,147.135,151.467,142.158,151.467z"/>
<g>
	<circle style="fill:#FFFFFF;" cx="262.723" cy="151.467" r="65.552"/>
	<path style="fill:#FFFFFF;" d="M372.17,244.17l-50.683-25.341c-16.097,14.222-36.461,22.238-59.345,22.238
		s-43.248-8.663-59.345-22.238l-50.683,25.341c-10.537,5.56-17.325,16.097-17.325,27.798V389.43h254.707V272.032
		C389.43,260.267,382.642,249.729,372.17,244.17z"/>
</g>
<path style="fill:#193651;" d="M395.636,395.636H129.228V272.032c0-14.222,8.016-26.57,20.428-33.358l54.432-27.216l3.103,2.457
	c15.451,13.576,34.586,21.01,55.014,21.01s39.564-7.434,55.014-21.01l3.103-2.457l54.432,27.216
	c12.347,6.206,20.428,19.135,20.428,33.358v123.604H395.636z M141.576,383.289h241.713V272.032c0-9.244-4.913-17.907-13.576-22.238
	l-46.998-23.531c-17.325,13.576-38.335,21.01-59.992,21.01c-21.657,0-43.248-7.434-59.992-21.657l-46.933,23.531
	c-8.663,4.331-13.576,12.994-13.576,22.238v111.903H141.576z"/>
<path style="fill:#FDBF5E;" d="M159.806,365.317v-93.285c0-2.457,1.228-4.913,3.685-6.206l37.107-18.554
	c18.554,11.766,39.564,18.554,61.802,18.554s43.248-6.206,61.802-18.554l37.107,18.554c2.457,1.228,3.685,3.685,3.685,6.206v93.349
	H159.806V365.317z"/>
<polyline style="fill:#FFFFFF;" points="321.487,123.022 284.962,139.701 245.398,115.588 200.275,131.685 "/>
<path style="fill:#193651;" d="M262.723,79.774c-39.564,0-71.693,32.129-71.693,71.693s32.129,71.693,71.693,71.693
	s71.693-32.129,71.693-71.693S302.287,79.774,262.723,79.774z M262.723,92.121c21.01,0,39.564,11.119,50.101,27.798l-27.216,12.994
	L246.044,108.8l-34.004,11.766C222.578,103.822,241.067,92.121,262.723,92.121z M262.723,210.812
	c-32.776,0-59.345-26.57-59.345-59.345c0-5.56,0.646-10.537,1.875-15.451l39.564-13.576l40.21,24.76l33.358-15.451
	c2.457,6.206,3.685,12.994,3.685,20.428C322.069,184.242,295.499,210.812,262.723,210.812z"/>
<g>
</g>
<g>
</g>
<g>
</g>
<g>
</g>
<g>
</g>
<g>
</g>
<g>
</g>
<g>
</g>
<g>
</g>
<g>
</g>
<g>
</g>
<g>
</g>
<g>
</g>
<g>
</g>
<g>
</g>
</svg>
