<?xml version="1.0" encoding="iso-8859-1"?>
<!-- Generator: Adobe Illustrator 19.0.0, SVG Export Plug-In . SVG Version: 6.00 Build 0)  -->
<svg version="1.1" id="Layer_1" xmlns="http://www.w3.org/2000/svg" xmlns:xlink="http://www.w3.org/1999/xlink" x="0px" y="0px"
	 viewBox="0 0 512 512" style="enable-background:new 0 0 512 512;" xml:space="preserve">
<rect x="58" y="225.6" style="fill:#FFFFFF;" width="396" height="278.4"/>
<polyline style="fill:#D3D7DA;" points="422.8,257.6 422.8,472 90,472 90,257.6 "/>
<g>
	<path style="fill:#193651;" d="M415.6,217.6v-58.4C415.6,71.2,344.4,0,256.4,0S97.2,71.2,97.2,159.2v58.4H50V512h412V217.6H415.6z
		 M113.2,159.2C113.2,80,177.2,16,256.4,16s143.2,64,143.2,143.2v58.4H113.2V159.2z M446.8,496H66V233.6h380V496H446.8z"/>
	<rect x="90" y="257.6" style="fill:#193651;" width="16" height="214.4"/>
	<rect x="406.8" y="257.6" style="fill:#193651;" width="16" height="214.4"/>
	<rect x="207.6" y="432" style="fill:#193651;" width="16" height="16"/>
	<rect x="248.4" y="432" style="fill:#193651;" width="16" height="16"/>
	<rect x="289.2" y="432" style="fill:#193651;" width="16" height="16"/>
</g>
<path style="fill:#FFFFFF;" d="M279.6,349.6c0-12.8-10.4-23.2-23.2-23.2c-12.8,0-23.2,10.4-23.2,23.2c0,9.6,6.4,18.4,15.2,21.6V404
	h16v-32.8C273.2,367.2,279.6,359.2,279.6,349.6z"/>
<g>
</g>
<g>
</g>
<g>
</g>
<g>
</g>
<g>
</g>
<g>
</g>
<g>
</g>
<g>
</g>
<g>
</g>
<g>
</g>
<g>
</g>
<g>
</g>
<g>
</g>
<g>
</g>
<g>
</g>
</svg>
