<?xml version="1.0" encoding="iso-8859-1"?>
<!-- Generator: Adobe Illustrator 19.0.0, SVG Export Plug-In . SVG Version: 6.00 Build 0)  -->
<svg version="1.1" id="Layer_1" xmlns="http://www.w3.org/2000/svg" xmlns:xlink="http://www.w3.org/1999/xlink" x="0px" y="0px"
	 viewBox="0 0 394.602 394.602" style="enable-background:new 0 0 394.602 394.602;" xml:space="preserve">
<path style="fill:#2EA2DB;" d="M256.323,102.012c0,0,2.457-8.016,10.537-15.451V46.998c0,0,0-16.679-18.554-21.657
	c0,0,7.434-12.994-9.891-19.135H169.18c0,0-38.917,2.457-42.667,40.792v39.564c0,0,9.244,4.331,10.537,19.782l-0.646-32.776
	c0,0,4.913-19.135,21.657-19.782c0,0,27.798,3.685,48.808-9.891c0,0,20.428,7.434,22.885,7.434c0,0,25.988,5.56,24.76,32.129
	L256.323,102.012z"/>
<path style="fill:#193651;" d="M346.634,191.677v12.347h28.638l-42.214,53.657v-10.99c0-39.564-35.232-71.693-78.481-71.693H244.04
	l-1.875,1.875c-13.576,13.576-29.026,20.428-45.123,20.428c-19.782,0-35.232-11.119-44.477-20.428l-1.875-1.875h-11.119
	c-43.248,0-78.481,32.129-78.481,71.693v85.463L0.388,385.293l8.145,9.309l119.919-105.18l-8.145-9.309l-46.933,41.18v-74.602
	c0-32.776,29.673-59.345,66.133-59.345h6.206c15.451,14.804,33.358,22.238,51.329,22.238c18.554,0,36.461-8.016,51.911-22.238h5.56
	c36.461,0,66.133,26.57,66.133,59.345v26.699l-61.996,78.804l9.697,7.628l113.519-144.226v23.661h12.347v-47.58H346.634z"/>
<circle style="fill:#2EA2DB;" cx="263.758" cy="355.491" r="21.657"/>
<circle style="fill:#FDBF5E;" cx="124.703" cy="281.923" r="21.657"/>
<g>
	<rect x="156.832" y="239.257" style="fill:#193651;" width="12.347" height="12.347"/>
	<rect x="190.19" y="239.257" style="fill:#193651;" width="12.347" height="12.347"/>
	<rect x="223.612" y="239.257" style="fill:#193651;" width="12.347" height="12.347"/>
	
		<rect x="233.746" y="337.85" transform="matrix(-0.4472 0.8944 -0.8944 -0.4472 654.9941 283.3022)" style="fill:#193651;" width="12.412" height="12.412"/>
	
		<rect x="167.606" y="303.863" transform="matrix(0.8944 0.4472 -0.4472 0.8944 157.017 -44.9961)" style="fill:#193651;" width="12.412" height="12.412"/>
	
		<rect x="145.989" y="292.741" transform="matrix(0.8944 0.4472 -0.4472 0.8944 149.7607 -36.5028)" style="fill:#193651;" width="12.412" height="12.412"/>
	
		<rect x="189.884" y="315.602" transform="matrix(0.8944 0.4472 -0.4472 0.8944 164.6187 -53.72)" style="fill:#193651;" width="12.412" height="12.412"/>
	
		<rect x="211.495" y="326.725" transform="matrix(0.8944 0.4472 -0.4472 0.8944 171.8744 -62.2104)" style="fill:#193651;" width="12.412" height="12.412"/>
</g>
<circle style="fill:#2EA2DB;" cx="263.758" cy="355.491" r="21.657"/>
<circle style="fill:#FDBF5E;" cx="124.703" cy="281.923" r="21.657"/>
<path style="fill:#193651;" d="M256.323,21.657c0-2.457,0-5.56-1.228-8.663c-1.875-5.56-6.788-9.891-14.222-12.347L239.644,0H169.18
	c-14.869,1.228-44.477,11.766-48.226,46.352v43.895l3.103,1.875c0,0,5.042,2.78,7.111,13.253v0.517h0.065v0.065l0,0
	c1.81,17.455,9.438,36.525,20.428,51.2c12.929,17.261,29.026,26.764,45.253,26.764c16.937,0,33.551-10.214,46.739-28.832
	c10.408-14.739,17.261-32.776,18.747-49.325l0.646-1.875c0,0,1.875-6.788,8.663-12.994l1.875-1.875v-42.02
	C273.648,40.21,269.964,27.863,256.323,21.657z M132.073,47.644c3.685-32.129,35.232-34.651,36.461-34.651h68.008
	c1.875,1.228,4.978,2.457,5.56,4.978s-0.646,4.978-0.646,4.978l-3.685,6.788l8.016,1.875c13.576,3.103,14.222,14.222,14.222,15.451
	v24.113c-4.331-16.679-19.135-24.113-28.444-25.988c-1.228-0.646-12.347-4.331-21.657-7.434l-3.103-1.228l-3.103,2.457
	c-12.347,8.016-28.444,9.244-36.461,9.244c-5.56,0-8.663-0.646-8.663-0.646h-1.228c-14.804,0.646-22.238,12.347-25.341,19.135
	V47.644H132.073z M196.978,170.99c-26.246,0-49.972-36.073-52.881-67.103l0,0l-0.323-18.101l-0.517-11.636
	c0.646-2.457,4.331-13.576,14.869-14.222c1.228,0,4.331,0.646,9.244,0.646c11.119,0,27.216-1.875,40.792-9.891
	c9.244,3.103,19.135,6.788,21.01,6.788c1.875,0,21.01,4.913,19.782,25.988l0.84,18.941
	C248.049,133.301,223.612,170.99,196.978,170.99z"/>
<g>
</g>
<g>
</g>
<g>
</g>
<g>
</g>
<g>
</g>
<g>
</g>
<g>
</g>
<g>
</g>
<g>
</g>
<g>
</g>
<g>
</g>
<g>
</g>
<g>
</g>
<g>
</g>
<g>
</g>
</svg>
