<?xml version="1.0" encoding="iso-8859-1"?>
<!-- Generator: Adobe Illustrator 19.0.0, SVG Export Plug-In . SVG Version: 6.00 Build 0)  -->
<svg version="1.1" id="Layer_1" xmlns="http://www.w3.org/2000/svg" xmlns:xlink="http://www.w3.org/1999/xlink" x="0px" y="0px"
	 viewBox="0 0 399.386 399.386" style="enable-background:new 0 0 399.386 399.386;" xml:space="preserve">
<path style="fill:#F16051;" d="M201.568,0.646L201.568,0.646C92.121,0.646,3.749,89.018,3.749,198.465l0,0
	c0,109.446,88.372,197.818,197.818,197.818l0,0c109.446,0,197.818-88.372,197.818-197.818l0,0
	C399.386,89.018,310.368,0.646,201.568,0.646z"/>
<rect x="32.194" y="142.222" style="fill:#FFFFFF;" width="320.84" height="203.378"/>
<rect x="56.889" y="166.917" style="fill:#2EA2DB;" width="271.386" height="153.923"/>
<path style="fill:#FFFFFF;" d="M6.206,345.6c0,26.57,20.428,47.58,46.352,47.58h291.168c25.341,0,46.352-21.01,46.352-47.58H6.206z"
	/>
<g>
	<rect x="160.129" y="362.925" style="fill:#193651;" width="12.347" height="12.347"/>
	<rect x="191.677" y="362.925" style="fill:#193651;" width="12.347" height="12.347"/>
	<rect x="223.806" y="362.925" style="fill:#193651;" width="12.347" height="12.347"/>
</g>
<polygon style="fill:#FFFFFF;" points="157.026,33.422 99.556,90.893 99.556,277.592 285.608,277.592 285.608,33.422 "/>
<polygon style="fill:#D3D7DA;" points="157.026,33.422 95.806,94.578 157.026,94.578 "/>
<path style="fill:#193651;" d="M359.176,338.812V136.016h-68.008v-108.8H154.57l-61.22,61.22v47.58H25.341v202.731H0v6.206
	c0,29.673,23.467,53.786,52.558,53.786h291.168c29.026,0,52.558-24.113,52.558-53.786v-6.206h-37.107V338.812z M105.697,93.35
	l53.786-53.786H278.82v231.822H105.697V93.35z M38.335,148.364h55.661v135.37h197.818v-135.37h55.661v190.384H38.335V148.364z
	 M343.725,386.392H52.558c-19.782,0-36.461-15.451-39.564-35.232h370.295C380.186,371.523,363.507,386.392,343.725,386.392z"/>
<g>
	<rect x="140.994" y="173.123" style="fill:#193651;" width="103.24" height="12.347"/>
	<rect x="140.994" y="207.127" style="fill:#193651;" width="103.24" height="12.347"/>
</g>
<g>
</g>
<g>
</g>
<g>
</g>
<g>
</g>
<g>
</g>
<g>
</g>
<g>
</g>
<g>
</g>
<g>
</g>
<g>
</g>
<g>
</g>
<g>
</g>
<g>
</g>
<g>
</g>
<g>
</g>
</svg>
