<?xml version="1.0" encoding="iso-8859-1"?>
<!-- Generator: Adobe Illustrator 19.0.0, SVG Export Plug-In . SVG Version: 6.00 Build 0)  -->
<svg version="1.1" id="Layer_1" xmlns="http://www.w3.org/2000/svg" xmlns:xlink="http://www.w3.org/1999/xlink" x="0px" y="0px"
	 viewBox="0 0 395.636 395.636" style="enable-background:new 0 0 395.636 395.636;" xml:space="preserve">
<rect id="SVGCleanerId_0" x="37.107" y="40.178" style="fill:#2EA2DB;" width="321.487" height="214.497"/>
<path style="fill:#193651;" d="M395.636,392.566H0V3.071h395.636V392.566z M12.347,380.154h370.941V15.483H12.347V380.154z"/>
<polygon style="fill:#E1E6E9;" points="37.107,254.093 123.669,167.531 210.166,254.093 "/>
<polygon style="fill:#D3D7DA;" points="104.469,254.093 231.822,127.321 358.529,254.093 "/>
<circle style="fill:#FFFFFF;" cx="109.446" cy="97.067" r="30.319"/>
<rect id="SVGCleanerId_1" x="259.62" y="294.885" style="fill:#D3D7DA;" width="47.58" height="92.703"/>
<g>
	<rect id="SVGCleanerId_0_1_" x="37.107" y="40.178" style="fill:#2EA2DB;" width="321.487" height="214.497"/>
</g>
<g>
	<rect x="30.901" y="286.222" style="fill:#193651;" width="12.347" height="12.347"/>
	<rect x="56.889" y="286.222" style="fill:#193651;" width="12.347" height="12.347"/>
	<rect x="82.812" y="286.222" style="fill:#193651;" width="12.347" height="12.347"/>
</g>
<polygon style="fill:#E1E6E9;" points="37.107,254.675 123.669,168.113 210.166,254.675 "/>
<polygon style="fill:#D3D7DA;" points="104.469,254.675 231.822,127.968 358.529,254.675 "/>
<circle style="fill:#FFFFFF;" cx="109.446" cy="97.067" r="30.319"/>
<g>
	<rect id="SVGCleanerId_1_1_" x="259.62" y="294.885" style="fill:#D3D7DA;" width="47.58" height="92.703"/>
</g>
<path style="fill:#193651;" d="M0,3.071v389.43h395.636V3.071H0z M301.059,380.154h-35.232v-79.127h35.232V380.154z
	 M283.992,248.727c-34.392,0-62.255-27.863-62.255-62.255s27.863-62.255,62.255-62.255s62.255,27.863,62.255,62.255
	S318.384,248.727,283.992,248.727z M383.289,380.154h-69.883v-91.475h-22.885v-27.927c38.077-3.297,68.008-35.297,68.008-74.279
	c0-41.18-33.358-74.537-74.537-74.537s-74.602,33.422-74.602,74.537c0,39.434,30.642,71.758,69.366,74.408v28.444h-25.341V380.8
	H12.347V16.065h370.941L383.289,380.154L383.289,380.154z"/>
<g>
</g>
<g>
</g>
<g>
</g>
<g>
</g>
<g>
</g>
<g>
</g>
<g>
</g>
<g>
</g>
<g>
</g>
<g>
</g>
<g>
</g>
<g>
</g>
<g>
</g>
<g>
</g>
<g>
</g>
</svg>
