<?xml version="1.0" encoding="iso-8859-1"?>
<!-- Generator: Adobe Illustrator 19.0.0, SVG Export Plug-In . SVG Version: 6.00 Build 0)  -->
<svg version="1.1" id="Layer_1" xmlns="http://www.w3.org/2000/svg" xmlns:xlink="http://www.w3.org/1999/xlink" x="0px" y="0px"
	 viewBox="0 0 389.43 389.43" style="enable-background:new 0 0 389.43 389.43;" xml:space="preserve">
<path style="fill:#FFFFFF;" d="M180.493,208.937V35.232c-96.453,0-174.352,77.899-174.352,173.705S84.04,383.289,180.493,383.289
	s174.352-77.899,174.352-174.352c0-1.228,0-2.457,0-3.685L180.493,208.937z"/>
<path style="fill:#F16051;" d="M96.453,211.394c0,46.352,37.689,84.105,84.105,84.105s84.105-37.689,84.105-84.04
	c0-1.228,0-3.103,0-4.331l-84.17,1.81v-81.584C134.141,127.354,96.453,165.042,96.453,211.394z"/>
<g>
	<path style="fill:#193651;" d="M186.699,202.149V28.444h-6.206C80.937,28.444,0,109.382,0,208.937S80.937,389.43,180.493,389.43
		s179.911-80.937,179.911-181.139c0-0.646,0-1.875,0-2.457V198.4L186.699,202.149z M180.493,377.083
		c-92.703,0-168.145-75.442-168.145-168.145c0-90.246,71.693-164.461,161.939-167.499v173.705l174.352-3.685
		C347.41,302.869,272.614,377.083,180.493,377.083z"/>
	<path style="fill:#193651;" d="M307.2,241.713c-0.646,1.875-1.228,3.685-1.875,5.56l11.766,3.685
		c0.646-1.875,1.228-4.331,1.875-6.206L307.2,241.713z"/>
	<path style="fill:#193651;" d="M50.683,224.388l-12.347,1.228c0,4.331,1.228,8.663,1.875,12.994l12.347-2.457
		C51.911,232.404,51.329,228.073,50.683,224.388z"/>
	<path style="fill:#193651;" d="M55.014,247.273l-11.766,3.685c1.228,4.331,2.457,8.663,4.331,12.347l11.119-4.978
		C57.471,254.707,56.242,250.958,55.014,247.273z"/>
	<path style="fill:#193651;" d="M64.259,269.511l-11.119,5.56c2.457,3.685,4.331,7.434,6.788,11.119l10.537-6.206
		C68.008,276.299,66.133,273.196,64.259,269.511z"/>
	<path style="fill:#193651;" d="M50.036,208.937c0-3.103,0-5.56,0-8.663l-12.347-0.646c-0.646,3.103-0.646,6.206-0.646,9.244
		c0,1.228,0,2.457,0,3.685l12.994-0.646C50.036,210.812,50.036,210.166,50.036,208.937z"/>
	<path style="fill:#193651;" d="M77.253,289.293l-9.891,7.434c3.103,3.685,5.56,6.788,8.663,9.891l9.244-8.016
		C82.23,295.499,79.709,292.396,77.253,289.293z"/>
	<path style="fill:#193651;" d="M61.22,153.923l-11.119-4.913c-1.875,4.331-3.685,8.016-4.913,12.347l11.766,4.331
		C58.117,161.939,59.927,158.255,61.22,153.923z"/>
	<path style="fill:#193651;" d="M106.925,100.719l-6.788-10.537c-3.685,2.457-7.434,5.56-10.537,8.016l8.016,9.244
		C100.719,105.05,103.822,102.594,106.925,100.719z"/>
	<path style="fill:#193651;" d="M88.372,115.588l-8.663-8.663c-3.103,2.457-5.56,6.206-8.663,9.244l9.244,8.016
		C83.459,121.147,85.915,118.691,88.372,115.588z"/>
	<path style="fill:#193651;" d="M85.269,316.509c3.103,2.457,6.206,5.56,9.891,8.016l7.434-9.891
		c-3.103-2.457-6.206-4.913-9.244-7.434L85.269,316.509z"/>
	<path style="fill:#193651;" d="M53.139,176.808l-11.766-3.103c-1.228,4.331-1.875,8.663-2.457,12.994l12.347,1.875
		C51.911,184.824,52.558,180.493,53.139,176.808z"/>
	<path style="fill:#193651;" d="M72.921,134.141l-9.891-7.434c-2.457,3.685-4.978,7.434-6.788,11.119l10.537,6.206
		C68.59,140.347,71.111,137.244,72.921,134.141z"/>
	<path style="fill:#193651;" d="M283.733,289.939l9.891,7.434c2.457-3.685,4.913-7.434,7.434-10.537l-10.537-6.788
		C288.711,283.733,286.19,286.836,283.733,289.939z"/>
	<path style="fill:#193651;" d="M226.844,331.313l4.331,11.766c4.331-1.875,8.016-3.103,12.347-5.56l-5.56-11.119
		C234.279,328.21,230.594,330.085,226.844,331.313z"/>
	<path style="fill:#193651;" d="M248.501,320.84l6.206,10.537c3.685-1.875,7.434-4.331,11.119-7.434l-7.434-9.891
		C255.289,316.509,251.604,318.966,248.501,320.84z"/>
	<path style="fill:#193651;" d="M203.96,337.519l2.457,12.347c4.331-0.646,8.016-1.875,12.347-3.103l-3.103-11.766
		C212.04,335.644,207.709,336.873,203.96,337.519z"/>
	<path style="fill:#193651;" d="M267.636,306.618l8.016,9.244c3.103-2.457,6.206-5.56,9.891-8.663l-9.244-8.663
		C273.196,301.059,270.739,304.162,267.636,306.618z"/>
	<path style="fill:#193651;" d="M296.081,269.511l11.119,5.56c2.457-3.685,3.685-8.016,5.56-11.119l-11.766-4.978
		C299.83,262.077,297.956,265.826,296.081,269.511z"/>
	<path style="fill:#193651;" d="M111.257,83.459l6.206,11.119c3.103-1.875,6.788-3.685,10.537-5.56l-4.913-11.119
		C118.691,79.127,114.941,81.584,111.257,83.459z"/>
	<path style="fill:#193651;" d="M106.343,331.313c3.103,1.875,7.434,4.331,11.119,6.206l5.56-11.119
		c-3.685-1.875-7.434-3.685-10.537-5.56L106.343,331.313z"/>
	<path style="fill:#193651;" d="M129.164,342.432c4.331,1.875,8.016,3.103,12.347,4.331l3.103-12.347
		c-3.685-1.228-7.434-2.457-11.119-3.685L129.164,342.432z"/>
	<path style="fill:#193651;" d="M180.493,339.976v12.347c4.331,0,8.663,0,12.994-0.646l-1.228-12.347
		C188.509,339.976,184.178,339.976,180.493,339.976z"/>
	<path style="fill:#193651;" d="M154.505,349.867c4.331,0.646,8.663,1.228,12.994,1.875l1.228-12.347
		c-3.685-0.646-8.016-1.228-11.766-1.875L154.505,349.867z"/>
	<path style="fill:#193651;" d="M135.37,72.921l3.685,11.766c1.875-0.646,3.685-1.228,5.56-1.875l-3.103-11.766
		C139.701,71.693,137.244,72.339,135.37,72.921z"/>
</g>
<path style="fill:#2EA2DB;" d="M338.747,51.329C307.2,19.782,263.952,0,215.725,0v174.352l173.705-4.331
	C388.202,123.604,369.067,81.584,338.747,51.329z"/>
<g>
</g>
<g>
</g>
<g>
</g>
<g>
</g>
<g>
</g>
<g>
</g>
<g>
</g>
<g>
</g>
<g>
</g>
<g>
</g>
<g>
</g>
<g>
</g>
<g>
</g>
<g>
</g>
<g>
</g>
</svg>
