<?xml version="1.0" encoding="iso-8859-1"?>
<!-- Generator: Adobe Illustrator 19.0.0, SVG Export Plug-In . SVG Version: 6.00 Build 0)  -->
<svg version="1.1" id="Layer_1" xmlns="http://www.w3.org/2000/svg" xmlns:xlink="http://www.w3.org/1999/xlink" x="0px" y="0px"
	 viewBox="0 0 395.636 395.636" style="enable-background:new 0 0 395.636 395.636;" xml:space="preserve">
<g>
	<rect x="22.238" y="303.515" style="fill:#FFFFFF;" width="32.129" height="85.915"/>
	<rect x="340.622" y="303.515" style="fill:#FFFFFF;" width="32.129" height="85.915"/>
	<rect x="6.206" y="270.739" style="fill:#FFFFFF;" width="383.289" height="32.776"/>
	<rect x="171.248" y="231.822" style="fill:#FFFFFF;" width="53.139" height="38.917"/>
	<rect x="65.552" y="6.206" style="fill:#FFFFFF;" width="264.598" height="181.139"/>
</g>
<rect x="90.246" y="30.901" style="fill:#FDBF5E;" width="215.143" height="131.685"/>
<rect x="65.552" y="187.281" style="fill:#FFFFFF;" width="264.598" height="45.123"/>
<g>
	<path style="fill:#193651;" d="M230.594,264.598v-26.57h105.697V0H59.345v238.028h105.697v26.57H0v45.123h16.097v85.915h44.477
		v-85.333h273.842v85.333h44.477v-85.333h16.743V265.18H230.594V264.598z M71.693,12.347h252.251v168.792H71.693V12.347z
		 M71.693,225.616V192.84h252.251v32.776H71.693z M218.246,238.028v26.57h-40.792v-26.57H218.246z M48.808,383.289H28.444v-72.986
		h19.782v72.921h0.582V383.289z M367.192,383.289H347.41v-72.986h19.782V383.289z M383.289,297.956H12.347v-20.428h370.941
		L383.289,297.956L383.289,297.956z"/>
	<rect x="145.261" y="203.378" style="fill:#193651;" width="12.347" height="12.347"/>
	<rect x="181.139" y="203.378" style="fill:#193651;" width="34.004" height="12.347"/>
	<rect x="238.028" y="203.378" style="fill:#193651;" width="12.347" height="12.347"/>
</g>
<g>
</g>
<g>
</g>
<g>
</g>
<g>
</g>
<g>
</g>
<g>
</g>
<g>
</g>
<g>
</g>
<g>
</g>
<g>
</g>
<g>
</g>
<g>
</g>
<g>
</g>
<g>
</g>
<g>
</g>
</svg>
