<?xml version="1.0" encoding="iso-8859-1"?>
<!-- Generator: Adobe Illustrator 19.0.0, SVG Export Plug-In . SVG Version: 6.00 Build 0)  -->
<svg version="1.1" id="Layer_1" xmlns="http://www.w3.org/2000/svg" xmlns:xlink="http://www.w3.org/1999/xlink" x="0px" y="0px"
	 viewBox="0 0 395.729 395.729" style="enable-background:new 0 0 395.729 395.729;" xml:space="preserve">
<circle style="fill:#E1E6E9;" cx="198.096" cy="197.574" r="196.59"/>
<path id="SVGCleanerId_0" style="fill:#2EA2DB;" d="M331.59,146.244c2.457-16.679-11.766-30.901-28.444-28.444
	c-10.537,1.875-18.554,9.891-20.428,20.428c-2.457,16.679,11.766,30.901,28.444,28.444
	C321.764,165.444,329.78,156.782,331.59,146.244z"/>
<path id="SVGCleanerId_1" style="fill:#FDBF5E;" d="M395.267,253.234c3.103-15.451-9.891-28.444-25.341-25.341
	c-8.663,1.875-15.451,8.663-16.679,16.679c-3.103,15.451,9.891,28.444,25.341,25.341
	C387.251,268.038,394.039,261.25,395.267,253.234z"/>
<path id="SVGCleanerId_2" style="fill:#F16051;" d="M49.085,146.244c2.457-16.679-11.766-30.901-28.444-28.444
	c-10.473,1.875-18.489,9.891-20.364,20.428c-2.457,16.679,11.766,30.901,28.444,28.444
	C39.195,165.444,47.275,156.782,49.085,146.244z"/>
<path id="SVGCleanerId_3" style="fill:#4FBF9F;" d="M115.865,252.588c2.457-16.679-11.766-30.901-28.444-28.444
	c-10.537,1.875-18.554,9.891-20.428,20.428c-2.457,16.679,11.766,30.901,28.444,28.444
	C105.974,271.788,114.637,263.125,115.865,252.588z"/>
<polygon style="fill:#FFFFFF;" points="247.55,7.19 247.55,39.965 215.421,39.965 215.421,7.19 183.873,7.19 183.873,39.965 
	151.744,39.965 151.744,7.19 119.615,7.19 119.615,72.677 279.679,72.677 279.679,7.19 "/>
<path id="SVGCleanerId_4" style="fill:#FFFFFF;" d="M230.871,151.804c2.457-10.537,12.347-46.998,35.232-79.127H133.19
	c22.885,32.129,32.776,68.59,35.232,79.127H230.871z"/>
<path id="SVGCleanerId_5" style="fill:#FFFFFF;" d="M242.637,151.804h-86.562c-8.663,0-16.097,6.788-16.097,16.097l0,0
	c0,8.663,6.788,16.097,16.097,16.097h86.562c8.663,0,16.097-6.788,16.097-16.097l0,0
	C258.669,158.656,251.881,151.804,242.637,151.804z"/>
<path id="SVGCleanerId_6" style="fill:#FFFFFF;" d="M242.637,224.143h-86.562c-8.663,0-16.097,6.788-16.097,16.097l0,0
	c0,8.663,6.788,16.097,16.097,16.097h86.562c8.663,0,16.097-6.788,16.097-16.097l0,0
	C258.669,231.578,251.881,224.143,242.637,224.143z"/>
<rect id="SVGCleanerId_7" x="94.855" y="315.618" style="fill:#FFFFFF;" width="209.584" height="72.339"/>
<polygon style="fill:#FFFFFF;" points="230.871,256.273 168.423,256.273 119.615,315.618 279.679,315.618 "/>
<circle style="fill:#E1E6E9;" cx="198.096" cy="197.574" r="196.59"/>
<polygon style="fill:#FFFFFF;" points="247.55,7.19 247.55,39.965 215.421,39.965 215.421,7.19 183.873,7.19 183.873,39.965 
	151.744,39.965 151.744,7.19 119.615,7.19 119.615,72.677 279.679,72.677 279.679,7.19 "/>
<g>
	<path id="SVGCleanerId_4_1_" style="fill:#FFFFFF;" d="M230.871,151.804c2.457-10.537,12.347-46.998,35.232-79.127H133.19
		c22.885,32.129,32.776,68.59,35.232,79.127H230.871z"/>
</g>
<g>
	<path id="SVGCleanerId_5_1_" style="fill:#FFFFFF;" d="M242.637,151.804h-86.562c-8.663,0-16.097,6.788-16.097,16.097l0,0
		c0,8.663,6.788,16.097,16.097,16.097h86.562c8.663,0,16.097-6.788,16.097-16.097l0,0
		C258.669,158.656,251.881,151.804,242.637,151.804z"/>
</g>
<g>
	<path id="SVGCleanerId_6_1_" style="fill:#FFFFFF;" d="M242.637,224.143h-86.562c-8.663,0-16.097,6.788-16.097,16.097l0,0
		c0,8.663,6.788,16.097,16.097,16.097h86.562c8.663,0,16.097-6.788,16.097-16.097l0,0
		C258.669,231.578,251.881,224.143,242.637,224.143z"/>
</g>
<rect x="153.554" y="183.998" style="fill:#FFFFFF;" width="92.121" height="40.21"/>
<g>
	<rect id="SVGCleanerId_7_1_" x="94.855" y="315.618" style="fill:#FFFFFF;" width="209.584" height="72.339"/>
</g>
<polygon style="fill:#FFFFFF;" points="230.871,256.273 168.423,256.273 119.615,315.618 279.679,315.618 "/>
<path style="fill:#193651;" d="M309.352,134.543l-46.998,23.467c-3.685-7.434-11.119-12.347-19.782-12.347h-3.685
	c4.331-14.222,12.994-41.438,30.319-66.78h16.097V0.984h-43.895v32.776h-19.782V0.984h-44.541v32.776h-19.782V0.984h-44.541v77.899
	h16.097c17.325,24.695,26.57,51.911,30.319,66.78h-3.749c-12.347,0-22.238,9.891-22.238,22.238c0,8.663,5.56,16.679,12.994,19.782
	v27.216l-51.911,25.988l-53.786-85.333c-2.457,3.103-5.56,5.56-9.244,6.788c-0.646,0-0.646,0-1.228,0l59.345,94.578l45.77-22.238
	c-0.646,1.875-0.646,3.685-0.646,6.206c0,11.766,9.244,21.657,21.01,21.657l-38.982,47.515H88.714v84.687H310.58v-85.333h-27.798
	l-38.917-47.58c11.766-0.646,21.01-9.891,21.01-21.657c0-8.663-5.56-16.679-12.994-19.782v-32.776
	c6.788-3.103,11.766-9.244,12.994-16.679l40.792-19.782l56.889,89.665c0.646-1.875,1.875-3.685,3.685-5.56
	c1.875-1.875,3.685-2.457,5.56-3.685L309.352,134.543z M125.756,66.535V13.331h19.782v32.776h44.541V13.331h19.782v32.776h43.895
	V13.331h19.782v53.139H125.756V66.535z M144.31,78.883h110.028c-16.679,26.57-25.341,53.786-28.444,66.78h-53.139
	C169.651,132.668,160.988,105.452,144.31,78.883z M292.673,321.824h5.56v59.992H101.061v-59.992h5.56H292.673z M266.685,309.477
	H132.544l38.917-46.998h56.889L266.685,309.477z M252.463,240.24c0,5.56-4.331,9.891-9.891,9.891h-8.663h-68.59h-8.663
	c-5.56,0-9.891-4.331-9.891-9.891c0-5.56,4.331-9.891,9.891-9.891h86.562C248.197,230.349,252.463,234.681,252.463,240.24z
	 M159.76,218.002v-28.444h79.774v28.444H159.76z M242.637,177.145h-86.562c-5.56,0-9.891-4.331-9.891-9.891
	c0-5.56,4.331-9.891,9.891-9.891h6.788h72.921h6.788c5.56,0,9.891,4.331,9.891,9.891
	C252.463,172.879,248.197,177.145,242.637,177.145z"/>
<g>
	<path id="SVGCleanerId_3_1_" style="fill:#4FBF9F;" d="M115.865,252.588c2.457-16.679-11.766-30.901-28.444-28.444
		c-10.537,1.875-18.554,9.891-20.428,20.428c-2.457,16.679,11.766,30.901,28.444,28.444
		C105.974,271.788,114.637,263.125,115.865,252.588z"/>
</g>
<g>
	<path id="SVGCleanerId_0_1_" style="fill:#2EA2DB;" d="M331.59,146.244c2.457-16.679-11.766-30.901-28.444-28.444
		c-10.537,1.875-18.554,9.891-20.428,20.428c-2.457,16.679,11.766,30.901,28.444,28.444
		C321.764,165.444,329.78,156.782,331.59,146.244z"/>
</g>
<g>
	<path id="SVGCleanerId_1_1_" style="fill:#FDBF5E;" d="M395.267,253.234c3.103-15.451-9.891-28.444-25.341-25.341
		c-8.663,1.875-15.451,8.663-16.679,16.679c-3.103,15.451,9.891,28.444,25.341,25.341
		C387.251,268.038,394.039,261.25,395.267,253.234z"/>
</g>
<g>
	<path id="SVGCleanerId_2_1_" style="fill:#F16051;" d="M49.085,146.244c2.457-16.679-11.766-30.901-28.444-28.444
		c-10.473,1.875-18.489,9.891-20.364,20.428c-2.457,16.679,11.766,30.901,28.444,28.444
		C39.195,165.444,47.275,156.782,49.085,146.244z"/>
</g>
<g>
	<rect x="239.534" y="345.937" style="fill:#193651;" width="12.347" height="12.347"/>
	<rect x="193.182" y="345.937" style="fill:#193651;" width="12.347" height="12.347"/>
	<rect x="147.413" y="345.937" style="fill:#193651;" width="12.347" height="12.347"/>
</g>
<g>
</g>
<g>
</g>
<g>
</g>
<g>
</g>
<g>
</g>
<g>
</g>
<g>
</g>
<g>
</g>
<g>
</g>
<g>
</g>
<g>
</g>
<g>
</g>
<g>
</g>
<g>
</g>
<g>
</g>
</svg>
