<?xml version="1.0" encoding="iso-8859-1"?>
<!-- Generator: Adobe Illustrator 19.0.0, SVG Export Plug-In . SVG Version: 6.00 Build 0)  -->
<svg version="1.1" id="Layer_1" xmlns="http://www.w3.org/2000/svg" xmlns:xlink="http://www.w3.org/1999/xlink" x="0px" y="0px"
	 viewBox="0 0 395.636 395.636" style="enable-background:new 0 0 395.636 395.636;" xml:space="preserve">
<circle style="fill:#E1E6E9;" cx="197.818" cy="197.818" r="197.818"/>
<rect x="6.206" y="61.802" style="fill:#FFFFFF;" width="383.289" height="272.032"/>
<path style="fill:#193651;" d="M395.636,339.976H0V55.661h395.636V339.976z M12.347,327.628h370.941V68.008H12.347V327.628z"/>
<rect x="30.901" y="86.562" style="fill:#FDBF5E;" width="333.834" height="222.578"/>
<rect x="30.901" y="247.273" style="fill:#E18742;" width="333.834" height="40.21"/>
<circle style="fill:#2EA2DB;" cx="263.952" cy="143.451" r="32.129"/>
<circle style="fill:#FFFFFF;" cx="307.846" cy="143.451" r="32.129"/>
<g>
	<rect x="55.661" y="114.36" style="fill:#193651;" width="102.012" height="12.347"/>
	<rect x="55.661" y="146.489" style="fill:#193651;" width="102.012" height="12.347"/>
	<rect x="55.661" y="178.036" style="fill:#193651;" width="12.347" height="12.347"/>
	<rect x="77.899" y="178.036" style="fill:#193651;" width="12.347" height="12.347"/>
	<rect x="100.784" y="178.036" style="fill:#193651;" width="12.347" height="12.347"/>
	<rect x="123.022" y="178.036" style="fill:#193651;" width="12.347" height="12.347"/>
	<rect x="145.261" y="178.036" style="fill:#193651;" width="12.347" height="12.347"/>
</g>
<g>
</g>
<g>
</g>
<g>
</g>
<g>
</g>
<g>
</g>
<g>
</g>
<g>
</g>
<g>
</g>
<g>
</g>
<g>
</g>
<g>
</g>
<g>
</g>
<g>
</g>
<g>
</g>
<g>
</g>
</svg>
