<?xml version="1.0" encoding="iso-8859-1"?>
<!-- Generator: Adobe Illustrator 19.0.0, SVG Export Plug-In . SVG Version: 6.00 Build 0)  -->
<svg version="1.1" id="Layer_1" xmlns="http://www.w3.org/2000/svg" xmlns:xlink="http://www.w3.org/1999/xlink" x="0px" y="0px"
	 viewBox="0 0 395.539 395.539" style="enable-background:new 0 0 395.539 395.539;" xml:space="preserve">
<polygon style="fill:#FFFFFF;" points="352.436,44.38 352.436,389.333 43.297,389.333 43.297,44.38 129.277,44.38 129.277,78.384 
	266.457,78.384 266.457,44.38 "/>
<polygon style="fill:#E1E6E9;" points="327.677,69.139 327.677,364.638 68.057,364.638 68.057,69.139 129.277,69.139 
	129.277,78.384 266.457,78.384 266.457,69.139 "/>
<path style="fill:#FFFFFF;" d="M225.665,32.679c-0.646-12.994-9.891-23.467-22.238-25.988c-1.875-0.646-3.685-0.646-5.56-0.646
	c-1.875,0-3.685,0-5.56,0.646c-12.347,2.457-21.657,12.994-22.238,25.988h-40.792v45.77h137.244v-45.77H225.665z"/>
<path style="fill:#193651;" d="M272.663,38.238v-5.56c0-3.685-2.457-6.206-6.206-6.206h-35.879
	c-3.103-12.994-12.994-23.467-26.57-25.988c-4.331-0.646-8.663-0.646-12.994,0c-13.576,2.457-23.467,12.994-26.57,25.988h-35.879
	c-3.685,0-6.206,2.457-6.206,6.206v5.56H37.026v357.301h321.487V38.238H272.663z M135.418,38.82h34.651
	c3.103,0,6.206-2.457,6.206-6.206c0.646-9.891,7.434-18.554,17.325-20.428c2.457-0.646,5.56-0.646,8.016,0
	c9.891,1.875,16.679,10.537,17.325,20.428c0,3.103,3.103,6.206,6.206,6.206h34.586v33.358H135.418V38.82z M346.23,383.192H49.503
	V50.586h73.568v27.798c0,3.685,2.457,6.206,6.206,6.206h137.244c3.685,0,6.206-2.457,6.206-6.206V50.586h73.568v332.606H346.23z"/>
<g>
	<rect x="112.533" y="114.263" style="fill:#FFFFFF;" width="31.547" height="31.547"/>
	<rect x="251.653" y="114.263" style="fill:#FFFFFF;" width="31.547" height="31.547"/>
	<rect x="112.533" y="299.733" style="fill:#FFFFFF;" width="31.547" height="31.547"/>
	<rect x="251.653" y="299.733" style="fill:#FFFFFF;" width="31.547" height="31.547"/>
	<rect x="112.533" y="192.485" style="fill:#FFFFFF;" width="170.602" height="61.22"/>
</g>
<g>
	<path style="fill:#193651;" d="M289.341,151.952v-43.895h-43.895v15.451h-95.16v-15.451h-43.895v43.895h43.895v-15.451h41.438
		v50.101h-85.333v72.921h85.333v50.101h-41.438v-15.451h-43.895v43.895h43.895v-15.451h95.224v15.451h43.895v-43.895h-43.895v15.451
		h-41.438v-50.101h85.333v-73.568h-85.333v-50.101h41.438v15.451h43.895v0.646H289.341z M137.875,139.604h-19.135v-19.135h19.135
		V139.604z M137.875,325.075h-19.135v-19.135h19.135V325.075z M257.859,305.875h19.135v19.2h-19.135V305.875z M276.994,247.176
		H118.739v-48.808h158.255V247.176L276.994,247.176z M257.859,120.469h19.135v19.135h-19.135V120.469z"/>
	<rect x="155.2" y="216.857" style="fill:#193651;" width="12.347" height="12.347"/>
	<rect x="191.661" y="216.857" style="fill:#193651;" width="12.347" height="12.347"/>
	<rect x="228.186" y="216.857" style="fill:#193651;" width="12.347" height="12.347"/>
</g>
<g>
</g>
<g>
</g>
<g>
</g>
<g>
</g>
<g>
</g>
<g>
</g>
<g>
</g>
<g>
</g>
<g>
</g>
<g>
</g>
<g>
</g>
<g>
</g>
<g>
</g>
<g>
</g>
<g>
</g>
</svg>
