<?xml version="1.0" encoding="iso-8859-1"?>
<!-- Generator: Adobe Illustrator 19.0.0, SVG Export Plug-In . SVG Version: 6.00 Build 0)  -->
<svg version="1.1" id="Layer_1" xmlns="http://www.w3.org/2000/svg" xmlns:xlink="http://www.w3.org/1999/xlink" x="0px" y="0px"
	 viewBox="0 0 396.283 396.283" style="enable-background:new 0 0 396.283 396.283;" xml:space="preserve">
<g>
	<rect x="307.588" y="116.234" style="fill:#FFFFFF;" width="82.23" height="136.016"/>
	<path style="fill:#FFFFFF;" d="M276.622,390.723H37.43c-17.325,0-30.901-13.576-30.901-30.901V64.905h301.059v294.271
		C307.588,376.501,293.366,390.723,276.622,390.723z"/>
</g>
<path style="fill:#FDBF5E;" d="M37.43,365.964c-3.685,0-6.206-2.457-6.206-6.206V89.665h251.604v269.511
	c0,3.685-2.457,6.206-6.206,6.206H37.43V365.964z"/>
<polygon style="fill:#FFFFFF;" points="75.119,186.699 101.107,157.026 151.79,157.026 177.713,186.699 177.713,272.032 
	75.119,272.032 "/>
<g>
	<path style="fill:#193651;" d="M313.729,110.093V58.764H0.323v300.412c0,20.428,16.679,37.107,37.107,37.107h239.257
		c20.428,0,37.107-16.679,37.107-37.107V258.457h82.166V110.093H313.729z M301.382,359.822c0,13.576-11.119,24.76-24.76,24.76H37.43
		c-13.576,0-24.76-11.119-24.76-24.76V71.111h107.572v79.127H98.586L69.56,184.242v93.996h114.36v-93.996l-29.026-33.358h-21.657
		V71.111h168.145V359.822z M148.687,163.232l22.238,25.988v76.671h-89.6V189.22l22.238-25.988H148.687L148.687,163.232z
		 M383.612,246.044h-69.883V122.44h69.883L383.612,246.044L383.612,246.044z"/>
	<rect x="120.242" y="180.558" style="fill:#193651;" width="12.347" height="12.347"/>
	<rect x="120.242" y="208.356" style="fill:#193651;" width="12.347" height="12.347"/>
	<rect x="120.242" y="236.154" style="fill:#193651;" width="12.347" height="12.347"/>
	<rect x="213.01" style="fill:#193651;" width="12.347" height="35.232"/>
	<rect x="171.572" style="fill:#193651;" width="12.347" height="35.232"/>
	<rect x="130.133" style="fill:#193651;" width="12.347" height="35.232"/>
	<rect x="88.113" style="fill:#193651;" width="12.347" height="35.232"/>
</g>
<g>
</g>
<g>
</g>
<g>
</g>
<g>
</g>
<g>
</g>
<g>
</g>
<g>
</g>
<g>
</g>
<g>
</g>
<g>
</g>
<g>
</g>
<g>
</g>
<g>
</g>
<g>
</g>
<g>
</g>
</svg>
