<?xml version="1.0" encoding="iso-8859-1"?>
<!-- Generator: Adobe Illustrator 19.0.0, SVG Export Plug-In . SVG Version: 6.00 Build 0)  -->
<svg version="1.1" id="Layer_1" xmlns="http://www.w3.org/2000/svg" xmlns:xlink="http://www.w3.org/1999/xlink" x="0px" y="0px"
	 viewBox="0 0 395.636 395.636" style="enable-background:new 0 0 395.636 395.636;" xml:space="preserve">
<path style="fill:#FFFFFF;" d="M197.818,6.206L197.818,6.206C92.121,6.206,6.206,92.121,6.206,197.818l0,0
	c0,105.697,85.915,191.612,191.612,191.612l0,0c105.697,0,191.612-85.915,191.612-191.612l0,0
	C389.43,92.121,303.515,6.206,197.818,6.206z"/>
<path style="fill:#2EA2DB;" d="M197.818,364.735c-92.121,0-166.917-74.796-166.917-166.917S105.697,30.901,197.818,30.901
	s166.917,74.796,166.917,166.917S289.939,364.735,197.818,364.735z"/>
<g>
	<circle style="fill:#FFFFFF;" cx="197.818" cy="107.572" r="38.917"/>
	<path style="fill:#FFFFFF;" d="M228.719,171.83l-17.584,34.844l-4.073-17.519l4.913-10.537l-14.222-16.097l-14.222,16.097
		l6.206,11.766l-4.59,17.648l-18.295-36.202c-29.673,0-54.368,24.113-54.368,54.432v74.796h170.667v-75.442
		C283.152,195.943,259.038,171.83,228.719,171.83z"/>
</g>
<g>
	<path style="fill:#193651;" d="M197.818,0C89.018,0,0,89.018,0,197.818s89.018,197.818,197.818,197.818
		s197.818-89.018,197.818-197.818S306.618,0,197.818,0z M197.818,383.289c-102.012,0-185.471-83.459-185.471-185.471
		S95.806,12.347,197.818,12.347s185.471,83.459,185.471,185.471S299.83,383.289,197.818,383.289z"/>
	<path style="fill:#193651;" d="M197.818,152.695c24.76,0,45.123-20.428,45.123-45.123s-20.428-45.123-45.123-45.123
		s-45.123,20.428-45.123,45.123C152.695,132.913,173.123,152.695,197.818,152.695z M197.818,75.442
		c17.907,0,32.776,14.869,32.776,32.776s-14.869,32.711-32.776,32.711s-32.776-14.869-32.776-32.776S179.911,75.442,197.818,75.442z
		"/>
	<path style="fill:#193651;" d="M228.719,165.689h-3.685l-27.216,53.786l-27.216-53.786h-3.685
		c-33.358,0-60.574,27.216-60.574,60.574v81.002h183.014v-81.648C289.293,192.905,262.141,165.689,228.719,165.689z
		 M276.945,294.271H118.691v-68.655c0-25.341,19.782-45.77,44.541-48.226l34.586,69.236l34.586-68.59
		c24.76,1.875,44.541,22.885,44.541,48.226V294.271z"/>
	<rect x="158.901" y="264.598" style="fill:#193651;" width="12.347" height="12.347"/>
	<rect x="191.612" y="264.598" style="fill:#193651;" width="12.347" height="12.347"/>
	<rect x="224.388" y="264.598" style="fill:#193651;" width="12.347" height="12.347"/>
</g>
<g>
</g>
<g>
</g>
<g>
</g>
<g>
</g>
<g>
</g>
<g>
</g>
<g>
</g>
<g>
</g>
<g>
</g>
<g>
</g>
<g>
</g>
<g>
</g>
<g>
</g>
<g>
</g>
<g>
</g>
</svg>
