<?xml version="1.0" encoding="iso-8859-1"?>
<!-- Generator: Adobe Illustrator 19.0.0, SVG Export Plug-In . SVG Version: 6.00 Build 0)  -->
<svg version="1.1" id="Layer_1" xmlns="http://www.w3.org/2000/svg" xmlns:xlink="http://www.w3.org/1999/xlink" x="0px" y="0px"
	 viewBox="0 0 395.636 395.636" style="enable-background:new 0 0 395.636 395.636;" xml:space="preserve">
<path id="SVGCleanerId_0" style="fill:#FFFFFF;" d="M275.717,97.034V18.554c0-6.788-5.56-12.347-12.347-12.347H21.657
	c-6.788,0-12.347,5.56-12.347,12.347v358.529c0,6.788,5.56,12.347,12.347,12.347H263.37c6.788,0,12.347-5.56,12.347-12.347v-78.481"
	/>
<path style="fill:#2EA2DB;" d="M275.717,55.661V18.554c0-6.788-5.56-12.347-12.347-12.347H21.657
	c-6.788,0-12.347,5.56-12.347,12.347v37.107"/>
<rect x="231.822" y="139.119" style="fill:#FFFFFF;" width="96.453" height="118.044"/>
<rect id="SVGCleanerId_1" x="165.042" y="160.129" style="fill:#FFFFFF;" width="66.78" height="74.796"/>
<rect id="SVGCleanerId_2" x="92.121" y="174.352" style="fill:#F16051;" width="73.568" height="46.998"/>
<rect id="SVGCleanerId_3" x="59.345" y="160.129" style="fill:#FFFFFF;" width="32.129" height="75.442"/>
<g>
	<path id="SVGCleanerId_0_1_" style="fill:#FFFFFF;" d="M275.717,97.034V18.554c0-6.788-5.56-12.347-12.347-12.347H21.657
		c-6.788,0-12.347,5.56-12.347,12.347v358.529c0,6.788,5.56,12.347,12.347,12.347H263.37c6.788,0,12.347-5.56,12.347-12.347v-78.481
		"/>
</g>
<g>
	<path style="fill:#2EA2DB;" d="M9.244,331.96v45.123c0,6.788,5.56,12.347,12.347,12.347h241.713c6.788,0,12.347-5.56,12.347-12.347
		V331.96H9.244z"/>
	<path style="fill:#2EA2DB;" d="M263.37,6.206H21.657c-6.788,0-12.347,5.56-12.347,12.347v37.107h266.408V18.554
		C275.717,11.766,270.158,6.206,263.37,6.206z"/>
</g>
<g>
	<rect x="113.131" y="351.741" style="fill:#193651;" width="58.117" height="12.347"/>
	<rect x="186.699" y="351.741" style="fill:#193651;" width="16.097" height="12.347"/>
	<rect x="82.23" y="351.741" style="fill:#193651;" width="16.097" height="12.347"/>
	<rect x="126.707" y="26.57" style="fill:#193651;" width="31.547" height="12.347"/>
</g>
<rect x="231.822" y="139.119" style="fill:#FFFFFF;" width="89.665" height="118.044"/>
<g>
	<rect id="SVGCleanerId_1_1_" x="165.042" y="160.129" style="fill:#FFFFFF;" width="66.78" height="74.796"/>
</g>
<g>
	<rect id="SVGCleanerId_2_1_" x="92.121" y="174.352" style="fill:#F16051;" width="73.568" height="46.998"/>
</g>
<g>
	<rect id="SVGCleanerId_3_1_" x="59.345" y="160.129" style="fill:#FFFFFF;" width="32.129" height="75.442"/>
</g>
<path style="fill:#193651;" d="M321.487,145.261v-12.347h-95.871v21.657h-66.715v14.222h-61.22V154.57H53.139v87.79h44.541v-14.222
	h61.22v14.222h66.715v21.657h95.806v-12.347h-83.394V145.261H321.487z M85.915,229.366H66.133v-63.03h19.782V229.366z
	 M158.901,215.143h-61.22v-34.651h61.22V215.143z M225.616,229.366h-54.368v-63.03h54.368V229.366z"/>
<circle style="fill:#FDBF5E;" cx="329.503" cy="197.818" r="63.03"/>
<path id="SVGCleanerId_4" style="fill:#FFFFFF;" d="M392.533,197.818c-34.586-42.02-90.893-42.02-125.479,0l0,0l0,0
	C301.64,239.838,357.947,239.838,392.533,197.818L392.533,197.818L392.533,197.818z"/>
<path id="SVGCleanerId_5" style="fill:#2EA2DB;" d="M363.507,197.818c0-12.994-7.434-24.113-17.907-29.673
	c-10.537-2.457-21.01-2.457-31.547,0c-10.537,5.56-17.907,16.679-17.907,29.673s7.434,24.113,17.907,29.673
	c10.537,2.457,21.01,2.457,31.547,0C356.073,221.931,363.507,210.812,363.507,197.818z"/>
<circle style="fill:#193651;" cx="329.503" cy="197.818" r="16.097"/>
<circle style="fill:#FDBF5E;" cx="329.503" cy="197.818" r="63.03"/>
<g>
	<path id="SVGCleanerId_4_1_" style="fill:#FFFFFF;" d="M392.533,197.818c-34.586-42.02-90.893-42.02-125.479,0l0,0l0,0
		C301.64,239.838,357.947,239.838,392.533,197.818L392.533,197.818L392.533,197.818z"/>
</g>
<g>
	<path id="SVGCleanerId_5_1_" style="fill:#2EA2DB;" d="M363.507,197.818c0-12.994-7.434-24.113-17.907-29.673
		c-10.537-2.457-21.01-2.457-31.547,0c-10.537,5.56-17.907,16.679-17.907,29.673s7.434,24.113,17.907,29.673
		c10.537,2.457,21.01,2.457,31.547,0C356.073,221.931,363.507,210.812,363.507,197.818z"/>
</g>
<g>
	<circle style="fill:#193651;" cx="329.503" cy="197.818" r="16.097"/>
	<path style="fill:#193651;" d="M281.859,97.034V18.554C281.859,8.016,273.842,0,263.305,0H21.657
		C11.119,0,3.103,8.016,3.103,18.554v358.529l0,0c0,7.434,4.913,14.222,11.119,17.325c2.457,0.646,4.913,1.228,7.434,1.228H263.37
		c2.457,0,4.913-0.646,7.434-1.228c6.788-3.103,11.119-9.244,11.119-17.325l0,0v-78.481h-12.347v78.481
		c0,2.457-1.875,4.913-3.685,5.56c-0.646,0.646-1.228,0.646-2.457,0.646H21.657c-0.646,0-1.875,0-2.457-0.646
		c-2.457-1.228-3.685-3.103-3.685-5.56V331.96V18.554c0-3.685,2.457-6.206,6.206-6.206h241.713c3.685,0,6.206,2.457,6.206,6.206
		v78.481H281.859z"/>
</g>
<g>
</g>
<g>
</g>
<g>
</g>
<g>
</g>
<g>
</g>
<g>
</g>
<g>
</g>
<g>
</g>
<g>
</g>
<g>
</g>
<g>
</g>
<g>
</g>
<g>
</g>
<g>
</g>
<g>
</g>
</svg>
